<svg id="Ikon" xmlns="http://www.w3.org/2000/svg" width="14.179" height="14.288" viewBox="0 0 14.179 14.288">
  <path id="Path_44807" data-name="Path 44807" d="M10.446,13.059l5.5-5.5a1.523,1.523,0,0,0,0-2.152l-3.131-3.13a1.523,1.523,0,0,0-2.152,0l-5.5,5.5a1.517,1.517,0,0,0-.4,1.417l-2.1,2.1a1.524,1.524,0,0,0,0,2.153l2.115,2.115a1.516,1.516,0,0,0,1.082.444.478.478,0,0,0,.306.11h7.1a.507.507,0,1,0,0-1.014H7.388l1.641-1.641a1.518,1.518,0,0,0,1.417-.4Zm-7.068-.328a.508.508,0,0,1,0-.718l1.935-1.935,2.833,2.833L6.211,14.846a.522.522,0,0,1-.718,0Z" transform="translate(-2.215 -1.83)" fill="#1d4999"/>
</svg>
