<svg xmlns="http://www.w3.org/2000/svg" width="42" height="40" viewBox="0 0 42 40">
  <g id="Group_19049" data-name="Group 19049" transform="translate(-1652 -118)">
    <rect id="Rectangle_21769" data-name="Rectangle 21769" width="42" height="40" rx="5" transform="translate(1652 118)" fill="#eaf2ff"/>
    <g id="Group_18838" data-name="Group 18838" transform="translate(1652.813 121)">
      <path id="Path_50047" data-name="Path 50047" d="M26.619,10.27h-3.4V9.891A1.894,1.894,0,0,0,21.323,8h-2.27a1.894,1.894,0,0,0-1.891,1.891v.378h-3.4a.757.757,0,0,0-.757.757v1.135a.757.757,0,0,0,.757.757H26.619a.757.757,0,0,0,.757-.757V11.026A.757.757,0,0,0,26.619,10.27Zm-7.944-.378a.379.379,0,0,1,.378-.378h2.27a.379.379,0,0,1,.378.378v.378H18.674Z" fill="#1d4999"/>
      <path id="Path_50048" data-name="Path 50048" d="M27.714,23.248a.757.757,0,0,0-.56-.248h-11.2a.757.757,0,0,0-.753.829l.93,9.718a2.207,2.207,0,0,0,2.261,1.938h6.323a2.207,2.207,0,0,0,2.261-1.938l.93-9.718a.756.756,0,0,0-.193-.581ZM19.787,33.591l-.048,0a.756.756,0,0,1-.754-.709L18.531,25.7a.757.757,0,0,1,1.51-.1l.454,7.188a.757.757,0,0,1-.707.8Zm4.339-.707a.756.756,0,0,1-.754.709l-.048,0a.757.757,0,0,1-.707-.8L23.07,25.6a.757.757,0,1,1,1.51.1Z" transform="translate(-1.368 -9.326)" fill="#1d4999"/>
    </g>
  </g>
</svg>
