<svg xmlns="http://www.w3.org/2000/svg" width="15.594" height="20.472" viewBox="0 0 15.594 20.472">
  <g id="Group_18650" data-name="Group 18650" transform="translate(-61)">
    <path id="Path_50011" data-name="Path 50011" d="M71.756,6a1.4,1.4,0,0,1-1.4-1.4V0H63.2A2.2,2.2,0,0,0,61,2.2V18.273a2.2,2.2,0,0,0,2.2,2.2H74.4a2.2,2.2,0,0,0,2.2-2.2V6Zm-7.477,8.4h2.908a.6.6,0,1,1,0,1.2H64.279a.6.6,0,1,1,0-1.2Zm-.6-2.6a.6.6,0,0,1,.6-.6h8.8a.6.6,0,0,1,0,1.2h-8.8A.6.6,0,0,1,63.679,11.8Zm9.4-3.8a.6.6,0,0,1,0,1.2h-8.8a.6.6,0,1,1,0-1.2Z" fill="#929292"/>
    <path id="Path_50012" data-name="Path 50012" d="M325,10.571a.2.2,0,0,0,.2.2h4.571a2.2,2.2,0,0,0-.42-.549l-3.856-3.648A2.2,2.2,0,0,0,325,6.221v4.35Z" transform="translate(-253.444 -5.972)" fill="#929292"/>
  </g>
</svg>
