<svg xmlns="http://www.w3.org/2000/svg" width="14.964" height="14.396" viewBox="0 0 14.964 14.396">
  <g id="user_interface_download_icon" transform="translate(-16.55 -17.82)">
    <path id="Path_51805" data-name="Path 51805" d="M28.448,57.175H19.617a3.07,3.07,0,0,1-3.067-3.067v-3.02a1.118,1.118,0,1,1,2.237,0v3.02a.831.831,0,0,0,.83.83h8.831a.831.831,0,0,0,.83-.83v-3.02a1.118,1.118,0,1,1,2.237,0v3.02A3.07,3.07,0,0,1,28.448,57.175Z" transform="translate(0 -24.959)" fill="#fff"/>
    <path id="Path_51806" data-name="Path 51806" d="M40.3,24.924,37.619,27.79a1.115,1.115,0,0,1-1.633,0L33.3,24.924a1.119,1.119,0,1,1,1.633-1.53l.749.8V18.938a1.118,1.118,0,0,1,2.237,0v5.257l.749-.8a1.119,1.119,0,0,1,1.633,1.53Z" transform="translate(-12.77)" fill="#fff"/>
  </g>
</svg>
