<svg xmlns="http://www.w3.org/2000/svg" width="37" height="37" viewBox="0 0 37 37">
  <g id="Group_19051" data-name="Group 19051" transform="translate(-349 -144)">
    <rect id="Rectangle_22532" data-name="Rectangle 22532" width="37" height="37" rx="5" transform="translate(349 144)" fill="#dee9fc"/>
    <g id="Report" transform="translate(321 150)">
      <g id="Group_19028" data-name="Group 19028" transform="translate(36)">
        <path id="Path_51789" data-name="Path 51789" d="M52.846,25.369H40.955A4.96,4.96,0,0,1,36,20.414V4.955A4.96,4.96,0,0,1,40.955,0H51.2a4.922,4.922,0,0,1,3.5,1.451L56.35,3.093A4.922,4.922,0,0,1,57.8,6.6v.34a.991.991,0,0,1-.991.991H52.846a2.976,2.976,0,0,1-2.973-2.973V1.982H40.955a2.976,2.976,0,0,0-2.973,2.973V20.414a2.976,2.976,0,0,0,2.973,2.973H52.846a2.976,2.976,0,0,0,2.973-2.973V10.9a.991.991,0,1,1,1.982,0v9.513A4.96,4.96,0,0,1,52.846,25.369ZM51.855,2.053v2.9a.992.992,0,0,0,.991.991h2.9a2.953,2.953,0,0,0-.8-1.451L53.307,2.853A2.953,2.953,0,0,0,51.855,2.053Z" transform="translate(-36)" fill="#1d4999"/>
      </g>
      <path id="Path_51790" data-name="Path 51790" d="M128.883,207.531h-.991v-6.54a.991.991,0,0,0-1.982,0v6.54h-1.982v-4.558a.991.991,0,0,0-1.982,0v4.558h-1.982v-2.576a.991.991,0,1,0-1.982,0v2.576h-.991a.991.991,0,0,0,0,1.982h11.892a.991.991,0,0,0,0-1.982Z" transform="translate(-76.036 -190.09)" fill="#1d4999"/>
      <g id="Group_19029" data-name="Group 19029" transform="translate(39.964 5.946)">
        <path id="Path_51791" data-name="Path 51791" d="M120.955,121.982h-3.964a.991.991,0,1,1,0-1.982h3.964a.991.991,0,0,1,0,1.982Z" transform="translate(-116 -120)" fill="#1d4999"/>
      </g>
    </g>
  </g>
</svg>
