<svg xmlns="http://www.w3.org/2000/svg" width="28.54" height="28.54" viewBox="0 0 28.54 28.54">
  <g id="Group_8147" data-name="Group 8147" transform="translate(0)">
    <g id="Group_8056" data-name="Group 8056" transform="translate(0)">
      <g id="Group_8055" data-name="Group 8055">
        <ellipse id="Ellipse_554" data-name="Ellipse 554" cx="9.333" cy="9.345" rx="9.333" ry="9.345" transform="translate(4.943 4.925)" fill="#1d4999"/>
        <g id="close-_1_">
          <path id="Path_44181" data-name="Path 44181" d="M55.423-468.747a14.312,14.312,0,0,0-11.713,9.688,13.427,13.427,0,0,0-.71,4.482,13.427,13.427,0,0,0,.71,4.482,13.969,13.969,0,0,0,3.469,5.608A13.585,13.585,0,0,0,51-441.738a14.315,14.315,0,0,0,12.524,0,14.288,14.288,0,0,0,7.26-17.427,14.328,14.328,0,0,0-11.928-9.608A19.6,19.6,0,0,0,55.423-468.747Zm-1.855,8.576a18.171,18.171,0,0,1,1.976,1.829l1.721,1.715,1.728-1.715a17.777,17.777,0,0,1,1.969-1.829A1.416,1.416,0,0,1,62.944-459c.054.71.027.744-1.882,2.667l-1.748,1.762,1.748,1.762c1.9,1.916,1.935,1.956,1.882,2.66a1.323,1.323,0,0,1-1.259,1.26c-.7.054-.743.02-2.659-1.883l-1.761-1.749-1.755,1.749c-1.922,1.9-1.962,1.936-2.665,1.883a1.323,1.323,0,0,1-1.259-1.26c-.054-.7-.027-.744,1.882-2.66l1.748-1.762-1.748-1.755c-1.909-1.93-1.935-1.963-1.882-2.673A1.416,1.416,0,0,1,53.568-460.171Z" transform="translate(-43 468.836)" fill="#fff"/>
        </g>
      </g>
    </g>
  </g>
</svg>
