<svg xmlns="http://www.w3.org/2000/svg" width="14.087" height="15.287" viewBox="0 0 14.087 15.287">
  <g id="Layer_2" data-name="Layer 2" transform="translate(0)">
    <path id="Path_44546" data-name="Path 44546" d="M18.216,8.214a.506.506,0,0,1-.485-.443,6.878,6.878,0,0,0-.325-1.263.549.549,0,0,1,.281-.691.482.482,0,0,1,.639.3A8.173,8.173,0,0,1,18.7,7.59a.531.531,0,0,1-.4.616.479.479,0,0,1-.084.008Zm-.945-2.631a.485.485,0,0,1-.415-.245A6.546,6.546,0,0,0,16.1,4.31a.565.565,0,0,1,.01-.754.467.467,0,0,1,.7.011,7.626,7.626,0,0,1,.877,1.194A.571.571,0,0,1,17.7,5.3a.488.488,0,0,1-.432.278ZM15.45,3.556a.46.46,0,0,1-.277-.093,6.068,6.068,0,0,0-1.065-.629.525.525,0,0,1-.326-.427.553.553,0,0,1,.2-.51.461.461,0,0,1,.511-.042,6.9,6.9,0,0,1,1.235.731.557.557,0,0,1,.193.6.5.5,0,0,1-.47.376Zm-2.4-1.1a.512.512,0,0,1-.1-.01,5.707,5.707,0,0,0-1.207-.13.514.514,0,0,1-.493-.533.514.514,0,0,1,.493-.533,6.589,6.589,0,0,1,1.4.151.529.529,0,0,1,.391.575.509.509,0,0,1-.489.48Z" transform="translate(-4.681 -1.25)" fill="#a2a2a2"/>
    <path id="Path_44547" data-name="Path 44547" d="M8.312,16.536c-3.9,0-7.062-3.422-7.062-7.643S4.412,1.25,8.312,1.25a.514.514,0,0,1,.493.533.514.514,0,0,1-.493.533A6.321,6.321,0,0,0,2.236,8.672,6.4,6.4,0,0,0,7.9,15.455a6.241,6.241,0,0,0,6.453-5.9.5.5,0,0,1,.537-.462.523.523,0,0,1,.443.567A7.27,7.27,0,0,1,8.312,16.536Z" transform="translate(-1.25 -1.25)" fill="#a2a2a2"/>
    <path id="Path_44548" data-name="Path 44548" d="M9.255,4A5.484,5.484,0,0,0,4,9.688a5.484,5.484,0,0,0,5.255,5.688,5.484,5.484,0,0,0,5.255-5.688A5.484,5.484,0,0,0,9.255,4Zm3.022,8.141a.468.468,0,0,1-.69.107L8.96,10.115a.541.541,0,0,1-.2-.427V6.133a.494.494,0,1,1,.985,0V9.418l2.431,1.977a.563.563,0,0,1,.1.747Z" transform="translate(-2.194 -2.045)" fill="#a2a2a2"/>
  </g>
</svg>
