<svg id="Layer_93" data-name="Layer 93" xmlns="http://www.w3.org/2000/svg" width="13.639" height="13.639" viewBox="0 0 13.639 13.639">
  <path id="Path_47942" data-name="Path 47942" d="M13.594,4.046h-.682V2.682a.682.682,0,1,0-1.364,0V4.046H6.092V2.682a.682.682,0,1,0-1.364,0V4.046H4.046A2.046,2.046,0,0,0,2,6.092v.682H15.639V6.092A2.046,2.046,0,0,0,13.594,4.046Z" transform="translate(-2 -2)" fill="#7d7d7d"/>
  <path id="Path_47943" data-name="Path 47943" d="M2,16.456A2.046,2.046,0,0,0,4.046,18.5h9.548a2.046,2.046,0,0,0,2.046-2.046V11H2Z" transform="translate(-2 -4.862)" fill="#7d7d7d"/>
</svg>
