<svg xmlns="http://www.w3.org/2000/svg" width="18.645" height="16.08" viewBox="0 0 18.645 16.08">
  <g id="Group_18841" data-name="Group 18841" transform="translate(-1.001 -2.165)">
    <g id="Group_18839" data-name="Group 18839" transform="translate(7.486 16.624)">
      <path id="Path_50049" data-name="Path 50049" d="M20.35,21.621H9.811a.811.811,0,0,1,0-1.621H20.35a.811.811,0,1,1,0,1.621Z" transform="translate(-9 -20)" fill="#fff"/>
    </g>
    <g id="Group_18840" data-name="Group 18840" transform="translate(1.001 2.165)">
      <path id="Path_50050" data-name="Path 50050" d="M19.073,3.771,17.927,2.625a1.66,1.66,0,0,0-2.293,0L13.958,4.3,17.4,7.74l1.677-1.677a1.621,1.621,0,0,0,0-2.293Z" transform="translate(-3.454 -2.165)" fill="#fff"/>
      <path id="Path_50051" data-name="Path 50051" d="M10.358,6.215,2,14.57a.4.4,0,0,0-.108.194l-.884,3.749A.406.406,0,0,0,1.5,19l3.749-.884a.4.4,0,0,0,.194-.108L13.8,9.655Z" transform="translate(-1.001 -2.932)" fill="#fff"/>
    </g>
  </g>
</svg>
