<svg xmlns="http://www.w3.org/2000/svg" width="42" height="40" viewBox="0 0 42 40">
  <g id="Group_19048" data-name="Group 19048" transform="translate(-1704 -118)">
    <rect id="Rectangle_21768" data-name="Rectangle 21768" width="42" height="40" rx="5" transform="translate(1704 118)" fill="#eaf2ff"/>
    <path id="Path_50045" data-name="Path 50045" d="M14.366,5.57a6.023,6.023,0,0,0-3.786-1.476,6.485,6.485,0,1,0,6.109,8.669.964.964,0,0,1,1.081-.652l.846.179a.8.8,0,0,1,.626,1.016A9.08,9.08,0,1,1,10.579,1.5a8.719,8.719,0,0,1,5.63,2.226L17.75,2.186a.865.865,0,0,1,1.476.611V7.553a.865.865,0,0,1-.865.865H13.606a.865.865,0,0,1-.611-1.476Z" transform="translate(1714.611 127.5)" fill="#1d4999"/>
  </g>
</svg>
