<svg id="Layer_8" data-name="Layer 8" xmlns="http://www.w3.org/2000/svg" width="14.323" height="14.323" viewBox="0 0 14.323 14.323">
  <path id="Path_44808" data-name="Path 44808" d="M5.581,4.558V2H10.7V4.558a.512.512,0,0,1-.512.512H6.092A.512.512,0,0,1,5.581,4.558ZM5.069,16.323h8.184v-1.76H5.069Zm0-2.783h8.184V12.517H5.069ZM15.811,5.427l-2.368-2.87A1.535,1.535,0,0,0,12.261,2h-.542V4.558a1.535,1.535,0,0,1-1.535,1.535H6.092A1.535,1.535,0,0,1,4.558,4.558V2H3.535A1.535,1.535,0,0,0,2,3.535V14.788a1.535,1.535,0,0,0,1.535,1.535h.512V11.207A1.535,1.535,0,0,1,5.581,9.673h7.161a1.535,1.535,0,0,1,1.535,1.535v5.115h.512a1.535,1.535,0,0,0,1.535-1.535V6.563a1.535,1.535,0,0,0-.512-1.136ZM12.742,10.7H5.581a.512.512,0,0,0-.512.512v.286h8.184v-.286A.512.512,0,0,0,12.742,10.7Z" transform="translate(-2 -2)" fill="#fff"/>
</svg>
