<svg xmlns="http://www.w3.org/2000/svg" width="333.984" height="253.029" viewBox="0 0 333.984 253.029">
  <g id="Image-68_1_" data-name="Image-68 (1)" transform="translate(-153 534.025)">
    <path id="Path_50064" data-name="Path 50064" d="M245.9-532.673c-.927,3.708,1.39,30.486,8.5,98.564,1.442,13.441,3.3,31.67,4.223,40.528l1.6,16.015-1.03,4.12c-1.854,7.364-5.51,13.492-8.033,13.492a4.277,4.277,0,0,1-2.42-1.339c-1.133-1.236-1.236-1.648-.978-5.253.361-6.334.206-12.514-.463-15.552-.927-4.429-2.935-5.819-5-3.553-.824.875-1.03,2.06-1.133,6.849-.206,5.871.206,8.5,2.266,13.8.927,2.42.927,2.523-.206,6.437-2.42,8.394-6.9,15.088-10.093,15.088-1.6,0-4.274-2.626-5.51-5.407-.824-1.8-.927-3.038-.618-10.557.309-9.424-.155-12.359-2.111-13.646-2.626-1.751-3.965.257-4.274,6.386a30.727,30.727,0,0,0,1.081,10.3,34.651,34.651,0,0,1,1.081,6.128c-.1.155-.36-.206-.566-.721-2.317-6.643-4.841-11.226-8.6-15.449-2.987-3.347-2.935-2.935-5.974-27.5-2.935-23.173-3.656-30.692-3.656-36.82,0-4.429-.154-5.356-.824-5.613-1.6-.618-2.266.669-2.266,4.377,0,4.068-3.553,18.8-4.326,17.921a53.768,53.768,0,0,1,.772-6.386c2.214-14.213,2.678-20.856,2.729-36.3.052-15.655-.36-21.423-2.266-30.949-5.716-28.22-21.062-35.429-27.293-12.719-1.8,6.591-2.626,14.161-2.935,27.19-.412,18.23.875,38.365,5.047,76.472,1.133,10.454,2.214,22.3,2.369,26.315l.309,7.261-4.274,9.475C156.965-322.26,153-310.21,153-298.726c0,6.231,1.287,9.681,4.892,13.183,7.827,7.621,20.7,5.3,23.482-4.274,1.184-3.965.927-27.139-.463-41.352-1.751-18.281-2.008-16.17,4.583-38.468,3.141-10.608,6.592-22.761,7.724-26.984,1.081-4.274,2.781-9.836,3.759-12.462.978-2.575,2.163-6.283,2.678-8.188.463-2.008,1.081-3.3,1.287-3.09.412.412,5.613,44.853,5.613,47.84,0,1.03-.257,1.133-2.987,1.133a11.639,11.639,0,0,0-8.5,3.141c-8.291,7.313-7.312,31.155,1.7,40.939,5.871,6.386,14.367,5.974,20.5-1.03,1.493-1.7,2.832-2.781,3.5-2.781a4.266,4.266,0,0,0,2.266-.927c1.081-.875,1.236-1.545,1.493-6.849.206-3.244.515-6.18.772-6.54.309-.515.978-.1,2.678,1.442,1.39,1.236,2.781,2.111,3.656,2.163,4.48.206,7-.978,9.424-4.48A45.685,45.685,0,0,0,246-357.9c.361-1.8.309-1.751,3.09-.772a6.339,6.339,0,0,0,6.489-1.133,29.7,29.7,0,0,0,3.141-4.48c2.369-4.12,2.575-3.965,3.141,2.008,2.317,22.967,6.643,48.715,10.145,60.714,2.678,9.115,3.5,10.763,5.253,10.505,4.12-.566,4.789-16.324,1.854-43.154-.566-5.253-1.081-9.887-1.133-10.3-.1-.618.412-.721,2.678-.618,9.218.566,17.56-5.047,25.9-17.406,2.008-2.987,3.759-5.51,3.862-5.613a16.284,16.284,0,0,1,3.6,1.545c3.3,1.7,3.656,1.751,8.857,1.7,8.548-.1,15.4-2.472,29.662-10.454,7.106-3.965,30.949-19.775,48.921-32.391,36.253-25.491,49.591-34.348,79.15-52.578,3.347-2.06,6.18-3.914,6.334-4.12a1.009,1.009,0,0,0-.464-1.03c-1.7-1.39-8.291,2.472-41.506,24.2-4.12,2.729-19.054,12.514-33.215,21.783s-32.6,21.371-40.939,26.881c-22.864,15.088-30.383,19.363-39.137,22.4a23.389,23.389,0,0,1-9.372,1.7c-4.892.051-6.489-.669-8.239-3.6-.875-1.493-.824-1.6,1.905-8.445,3.862-9.63,5.459-15.4,5.716-20.6.309-5.1-.309-6.849-2.523-7.107-4.738-.566-11.072,9.166-12.72,19.62a33.632,33.632,0,0,0,1.081,15.088l1.133,3.862-3.038,4.48c-4.017,5.974-11.9,13.852-15.706,15.655-5.716,2.729-9.784,2.884-12,.463-.618-.669-2.008-6.952-4.429-19.981-1.957-10.454-4.274-21.783-5.15-25.13-1.39-5.562-1.545-6.952-1.545-14.419a535.339,535.339,0,0,0-6.746-79.459c-2.832-16.633-8.806-42.021-10.505-44.6C248.371-534.476,246.363-534.476,245.9-532.673Zm4.223,6.746c5.1,18.127,8.548,37.953,11.226,64.525,2.06,19.878,2.575,28.58,2.575,43.772.051,13.749,0,14.213-1.081,16.221a10.177,10.177,0,0,0-1.236,4.377c-.051,2.523-.772,7.982-.927,6.643,0-.463-1.081-10.66-2.369-22.658-3.3-31.567-7.261-73.794-9.269-98.461-.772-9.733-1.03-19.826-.464-19.311A44.329,44.329,0,0,1,250.122-525.927Zm-64.679,15.552c2.266,1.6,4.48,5.047,6.18,9.372,7.57,19.723,8.033,50.981,1.287,88.059-2.626,14.264-4.017,19.62-6.849,26.212-3.656,8.548-7.93,17.509-8.342,17.509-.257,0-3.3-29.559-4.635-45.574-3.3-39.292-3.656-61.486-1.287-76.42C174.371-507.389,179.521-514.65,185.443-510.375Zm133.89,108.812a37.863,37.863,0,0,1-.824,7.57c-.927,3.759-5.2,15.5-5.922,16.221-.257.257-.669-.155-1.03-1.03-1.287-3.347.515-15.706,3.141-21.68,1.339-3.038,3.5-5.922,4.171-5.562C319.127-405.838,319.333-403.83,319.333-401.564Zm-49.8,23.843c4.738,24,5.047,27.19,1.751,20.29a72.622,72.622,0,0,1-6.18-26.418c-.1-4.686.515-9.424,1.184-8.754C266.5-392.346,267.991-385.652,269.536-377.721Zm-24.409,2.06c0,5-.618,5.1-1.184.154-.412-3.4.1-7.467.772-5.819A28.588,28.588,0,0,1,245.127-375.661Zm-62.774,6.231c-.515,1.648-1.442,4.738-2.06,6.746-1.133,3.914-2.06,4.892-2.06,2.163,0-1.493,4.532-12.565,4.944-12.153A12.51,12.51,0,0,1,182.353-369.43Zm24.358.721c.257.206,1.236,4.738,2.214,10.093,2.111,11.638,3.3,16.067,5.922,21.68l1.905,4.223-1.442,1.957c-4.171,5.716-8.188,7.158-12.617,4.532-3.656-2.111-6.952-7.57-8.857-14.676-1.133-4.223-1.236-14.11-.206-17.766,2.214-7.827,6.489-12.153,10.814-10.969A6.122,6.122,0,0,1,206.711-368.709Zm17.869,4.686c0,2.832-.206,5.047-.463,4.892-.618-.412-1.236-6.54-.824-8.754C223.962-371.233,224.58-369.276,224.58-364.023Zm40.682,1.854c2.06,6.283,4.429,10.711,7.107,13.08l2.523,2.266,1.081,7.209a205.622,205.622,0,0,1,2.575,35.017c-.1,7.313-.309,10.2-.824,10.66-.515.515-.721.515-1.133-.052-1.236-2.008-6.695-26.881-9.269-42.175-2.369-14.161-4.12-29.456-3.4-29.456A18.421,18.421,0,0,1,265.262-362.169Zm-49.23,4.944c2.678,5.459,4.635,12.926,4.274,16.221-.309,2.626-1.184,3.862-1.905,2.678-1.442-2.317-5.15-16.633-5.819-22.555C212.221-364.075,213.148-363.045,216.031-357.226ZM171.59-336.473c-6.8,20.393-7.518,24.924-3.914,24.924,1.39,0,1.648-.463.721-1.39-.36-.36-.257-1.6.309-4.068.978-4.326,7.621-24.409,8.033-24.409,1.751-.051,3.193,45.626,1.648,50.775a13.524,13.524,0,0,1-4.429,6.591c-2.266,1.648-6.695,1.442-10.2-.566-5.253-2.935-7.57-8.342-7-16.376.721-10.2,8.136-32.34,17.045-50.724l2.111-4.377.154,2.884C176.225-350.686,175.607-348.42,171.59-336.473Z" transform="translate(0 0)"/>
    <path id="Path_50065" data-name="Path 50065" d="M567.989-486.842c-11.226,6.025-21.834,12.565-38.107,23.534-19.105,12.874-35.429,24.564-64.885,46.6-6.695,4.944-13.234,9.733-14.573,10.557-2.884,1.854-3.244,3.141-.772,2.626,3.5-.721,9.372-4.686,35.172-24,42.793-32.031,63.958-46.45,85.638-58.4,5.665-3.141,7-4.274,5.459-4.789C575.662-490.807,572.109-489.056,567.989-486.842Z" transform="translate(-143.089 -21.01)"/>
  </g>
</svg>
