<svg id="Layer_2" data-name="Layer 2" xmlns="http://www.w3.org/2000/svg" width="12.453" height="13.514" viewBox="0 0 12.453 13.514">
  <path id="Path_44546" data-name="Path 44546" d="M17.408,7.406a.448.448,0,0,1-.429-.392A6.081,6.081,0,0,0,16.692,5.9a.485.485,0,0,1,.248-.611.426.426,0,0,1,.565.269,7.226,7.226,0,0,1,.333,1.3.469.469,0,0,1-.356.544.424.424,0,0,1-.074.007ZM16.572,5.08a.428.428,0,0,1-.367-.216,5.787,5.787,0,0,0-.667-.909.5.5,0,0,1,.009-.667.413.413,0,0,1,.616.01,6.742,6.742,0,0,1,.775,1.055.5.5,0,0,1,.016.481.432.432,0,0,1-.382.246Zm-1.61-1.792a.407.407,0,0,1-.245-.082,5.364,5.364,0,0,0-.941-.556.464.464,0,0,1-.288-.378.489.489,0,0,1,.177-.451.408.408,0,0,1,.451-.037,6.1,6.1,0,0,1,1.092.646.492.492,0,0,1,.17.528.441.441,0,0,1-.416.332Zm-2.124-.972a.452.452,0,0,1-.086-.009,5.045,5.045,0,0,0-1.067-.115.455.455,0,0,1-.436-.471.455.455,0,0,1,.436-.471,5.825,5.825,0,0,1,1.24.133.468.468,0,0,1,.346.509.45.45,0,0,1-.432.424Z" transform="translate(-5.443 -1.25)" fill="#9daecc"/>
  <path id="Path_44547" data-name="Path 44547" d="M7.493,14.764A6.515,6.515,0,0,1,1.25,8.007,6.515,6.515,0,0,1,7.493,1.25a.455.455,0,0,1,.436.471.455.455,0,0,1-.436.471A5.588,5.588,0,0,0,2.122,7.811a5.661,5.661,0,0,0,5.009,6,5.517,5.517,0,0,0,5.7-5.219.445.445,0,0,1,.475-.409.462.462,0,0,1,.392.5A6.427,6.427,0,0,1,7.493,14.764Z" transform="translate(-1.25 -1.25)" fill="#9daecc"/>
  <path id="Path_44548" data-name="Path 44548" d="M8.646,4A4.849,4.849,0,0,0,4,9.028a4.849,4.849,0,0,0,4.646,5.028,4.849,4.849,0,0,0,4.646-5.028A4.849,4.849,0,0,0,8.646,4Zm2.671,7.2a.414.414,0,0,1-.61.094L8.385,9.406a.478.478,0,0,1-.174-.377V5.886a.437.437,0,1,1,.871,0v2.9l2.149,1.747a.5.5,0,0,1,.087.66Z" transform="translate(-2.403 -2.271)" fill="#9daecc"/>
</svg>
