<svg xmlns="http://www.w3.org/2000/svg" width="23.24" height="24.457" viewBox="0 0 23.24 24.457">
  <path id="tooth" d="M35.978,5.964a6.232,6.232,0,0,0-7.77-5.75,15.092,15.092,0,0,1-7.681,0,6.214,6.214,0,0,0-7.087,8.831l2.11,4.231a8,8,0,0,1,.809,2.848l.625,6.87a1.609,1.609,0,0,0,3.123.382c3.009-8.487,5.6-8.592,8.611.029a1.559,1.559,0,0,0,3.026-.348l.722-7.049a8,8,0,0,1,.742-2.638l1.938-4.052A6.174,6.174,0,0,0,35.978,5.964ZM28.05,5.382l-1.61.726a5.057,5.057,0,0,1-4.143,0l-1.629-.73a.762.762,0,1,1,.623-1.39l1.629.73a3.533,3.533,0,0,0,2.894,0l1.61-.726a.762.762,0,0,1,.626,1.389Z" transform="translate(-12.742 0)" fill="#929292"/>
</svg>
