<svg xmlns="http://www.w3.org/2000/svg" width="19.903" height="19.853" viewBox="0 0 19.903 19.853">
  <path id="bpSysDys" d="M12.255,10.642a.839.839,0,0,0-.43-.7V8.6a.43.43,0,1,0-.86,0V9.943a.839.839,0,0,0-.43.7.792.792,0,0,0,.807.807A.929.929,0,0,0,12.255,10.642ZM18.493,1.5a3.081,3.081,0,0,0-2.9,3.28v.054c0,1.344,1.022,3.71,2.474,4.087v7.9a3.718,3.718,0,0,1-3.71,3.71,3.676,3.676,0,0,1-3.71-3.5c1.291-.161,2.474-.484,2.474-1.076V14.352a4.122,4.122,0,0,0,2.151-5.431A4.2,4.2,0,0,0,13.115,6.77V4.4c0-1.183-4.84-1.237-5.808-1.237S1.5,3.221,1.5,4.4V16.019c0,1.183,4.84,1.237,5.808,1.237.376,0,1.4,0,2.527-.108a4.551,4.551,0,0,0,9.088-.269V8.921C20.429,8.545,21.4,6.178,21.4,4.834a3.162,3.162,0,0,0-2.9-3.334ZM2.791,4.4a21.427,21.427,0,0,1,4.517-.43,21.427,21.427,0,0,1,4.517.43,21.427,21.427,0,0,1-4.517.43A21.094,21.094,0,0,1,2.791,4.4Zm5.324,6.238a3.334,3.334,0,1,1,3.334,3.334A3.386,3.386,0,0,1,8.114,10.642Z" transform="translate(-1.5 -1.5)" fill="#7fcccd"/>
</svg>
