<svg id="kidney_2_" data-name="kidney (2)" xmlns="http://www.w3.org/2000/svg" width="12.712" height="18.661" viewBox="0 0 12.712 18.661">
  <g id="Group_16689" data-name="Group 16689" transform="translate(0 0)">
    <g id="Group_16688" data-name="Group 16688">
      <path id="Path_45735" data-name="Path 45735" d="M85.584,11.444a3.961,3.961,0,0,1,1.273-4.417C89.779,5.705,89.6,3.38,89.093,2.18a3.4,3.4,0,0,0-4.5-1.94,9.37,9.37,0,0,0-5.156,4.017c-1.261,2-2.831,8.89,1.261,12.168,1.2.964,4.923,2.111,6.463-.473C87.805,14.348,85.866,12.214,85.584,11.444Z" transform="translate(-78.058 0)" fill="#c8726e"/>
      <path id="Path_45736" data-name="Path 45736" d="M291.01,232.3h-1.349a3.315,3.315,0,0,0-.267,1.513h1.6a1.538,1.538,0,0,1,1.54,1.54v6.756h1.513v-6.772A3.038,3.038,0,0,0,291.01,232.3Z" transform="translate(-281.335 -223.446)" fill="#c8726e"/>
      <path id="Path_45737" data-name="Path 45737" d="M321.839,161.411h3.3V159.9h-1.288A8.818,8.818,0,0,1,321.839,161.411Z" transform="translate(-312.549 -153.805)" fill="#c8726e"/>
    </g>
  </g>
</svg>
