<svg xmlns="http://www.w3.org/2000/svg" width="20.722" height="17.442" viewBox="0 0 20.722 17.442">
  <g id="_2748065-200" data-name="2748065-200" transform="translate(0 184.289)">
    <path id="Path_45769" data-name="Path 45769" d="M72.325-184.248a1.756,1.756,0,0,0-1.254,2.269l.124.311h1.492c1.43,0,1.492-.01,1.606-.238a1.808,1.808,0,0,0,.124-.715A1.692,1.692,0,0,0,72.325-184.248Z" transform="translate(-63.611 0)" fill="#7fcccd"/>
    <path id="Path_45770" data-name="Path 45770" d="M55.133-155.668a4.313,4.313,0,0,0-.9,2.466c-.114.891-.114.964.083,1.223a1.626,1.626,0,0,0,.891.58c.166.052.176.363.176,4.642.01,4.839,0,4.776.487,5.035a.847.847,0,0,0,1.078-.176l.3-.3v-3.7c0-3.461.01-3.689.186-3.657s.176.3.2,3.657a28.8,28.8,0,0,0,.145,3.844.915.915,0,0,0,1.451.155l.3-.3.01-5.533c.01-4.393.041-5.408.135-4.984.145.684.446,1.005.932.995a3.489,3.489,0,0,0,1.751-.912c.332-.3.394-.425.363-.694a.545.545,0,0,0-.311-.487c-.29-.166-.3-.155-1.285.559-.218.155-.228.145-.394-.528a3.924,3.924,0,0,0-.995-1.948L59.4-156H55.465Z" transform="translate(-48.544 -25.358)" fill="#7fcccd"/>
    <path id="Path_45771" data-name="Path 45771" d="M142.471-151.657a1.848,1.848,0,0,0-1.15,1.979l.073.4h1.544c.85,0,1.575.01,1.616.021s.1-.114.155-.28A1.766,1.766,0,0,0,142.471-151.657Z" transform="translate(-126.66 -29.183)" fill="#7fcccd"/>
    <path id="Path_45772" data-name="Path 45772" d="M0-137.031v1.969H4.662V-139H0Zm4.352-.725v.932H.311v-1.865H4.352Zm-3.243,1.73c.041.124-.238.446-.383.446A.741.741,0,0,1,.311-136a.548.548,0,0,1,.166-.259c.145-.145.2-.145.383-.021A.62.62,0,0,1,1.109-136.026Zm1.005-.114a.383.383,0,0,1-.5.5.37.37,0,0,1,.021-.694A.373.373,0,0,1,2.114-136.14Zm2.238-.062c0,.062-.383.1-.932.1s-.932-.041-.932-.1.383-.1.932-.1S4.352-136.265,4.352-136.2Zm0,.414c0,.062-.383.1-.932.1s-.932-.041-.932-.1.383-.1.932-.1S4.352-135.85,4.352-135.788Z" transform="translate(0 -40.596)" fill="#7fcccd"/>
    <path id="Path_45773" data-name="Path 45773" d="M119.445-137.9a.646.646,0,0,0,.414.1.646.646,0,0,0,.414-.1c.041-.062-.124-.1-.414-.1S119.4-137.959,119.445-137.9Z" transform="translate(-107.064 -41.493)" fill="#7fcccd"/>
    <path id="Path_45774" data-name="Path 45774" d="M123.675-126.1a4.091,4.091,0,0,1-.653.6c-.736.57-.912,1.015-1.005,2.518-.062.9-.052.974.176,1.212a1.629,1.629,0,0,0,.528.352l.3.1v-1.192a3.049,3.049,0,0,1,.1-1.181,7.652,7.652,0,0,1,.1,1.927v1.927l.3.3.3.3H128.2v1.689c0,1.855.041,2.01.622,2.248a.661.661,0,0,0,.622,0c.57-.238.622-.477.622-2.953V-120.5l-.3-.3c-.29-.29-.342-.3-1.3-.3h-.995l.021-1.274.021-1.264.031,1.16.041,1.171h.932a4.11,4.11,0,0,1,1.15.114c.238.135.394-.01.394-.383,0-.332-.3-.528-.932-.632l-.57-.083-.031-.414a5.109,5.109,0,0,0-.995-3.16c-.28-.249-.342-.259-2.051-.311C124.2-126.218,123.706-126.2,123.675-126.1Zm.984,1.16c.031.259-.021.342-.228.446a.353.353,0,0,1-.477-.073.417.417,0,0,1,.01-.715C124.3-125.513,124.618-125.347,124.66-124.943Zm1.73-.187a.525.525,0,0,1,.01.342.432.432,0,0,1-.85-.01A.454.454,0,0,1,126.39-125.13Z" transform="translate(-109.346 -52.073)" fill="#7fcccd"/>
    <path id="Path_45775" data-name="Path 45775" d="M6.719-109.389c-.207.342-.508.85-.663,1.14s-.363.528-.446.528c-.238,0-.57-.383-.642-.725s-.238-.425-.238-.1a1.307,1.307,0,0,0,.591.974l.28.145-.352.176-.352.187-.28-.321a2.645,2.645,0,0,1-.414-.839l-.135-.528H2.347v7.046H1v.311c0,.28.031.311.311.311.176,0,.311.041.311.1s-.073.1-.155.1a.382.382,0,0,0-.269.508.369.369,0,0,0,.332.093c.207-.021.259-.1.28-.425l.031-.383H3.5a5.678,5.678,0,0,1,1.647.1c0,.052-.062.1-.145.1a.361.361,0,0,0-.311.456c.062.166.508.238.591.093a4.043,4.043,0,0,0,.124-.736l.073-.642H4.108v-2.974c0-2.8.01-2.963.166-2.725.4.611.756.663,1.285.207a1.551,1.551,0,0,1,.508-.311,2.935,2.935,0,0,0,1.357-.694c0-.124-.062-.114-.332.041-.4.238-1.046.477-.995.363a15.965,15.965,0,0,1,.922-1.647c.332-.466.352-.549.2-.549A2.088,2.088,0,0,0,6.719-109.389Zm-5.1,8.869a.159.159,0,0,1-.155.155.159.159,0,0,1-.155-.155.159.159,0,0,1,.155-.155A.159.159,0,0,1,1.622-100.52Zm3.523,0a.159.159,0,0,1-.155.155.159.159,0,0,1-.155-.155.159.159,0,0,1,.155-.155A.159.159,0,0,1,5.144-100.52Z" transform="translate(-0.896 -66.591)" fill="#7fcccd"/>
    <path id="Path_45776" data-name="Path 45776" d="M138-55.656v1.834l2.051-.021,2.041-.031V-57.4l-2.051-.052L138-57.5Z" transform="translate(-123.702 -113.652)" fill="#7fcccd"/>
  </g>
</svg>
