<svg xmlns="http://www.w3.org/2000/svg" width="19.09" height="20.533" viewBox="0 0 19.09 20.533">
  <g id="catheter_1_" data-name="catheter (1)" transform="translate(-17.992)">
    <path id="Path_45729" data-name="Path 45729" d="M389.821,1.5a4.673,4.673,0,0,1,.751.061V0h-1.5V1.564A4.67,4.67,0,0,1,389.821,1.5Z" transform="translate(-356.196 0)" fill="#e7ae5f"/>
    <path id="Path_45730" data-name="Path 45730" d="M34.376,15.385V10.762a4.667,4.667,0,0,1-1.5,0v4.623a3.646,3.646,0,1,1-7.291,0V7.15L26.1,5.46a3.454,3.454,0,0,0,.154-1.021V0H23.4V4.439a3.454,3.454,0,0,0,.154,1.021l.522,1.69v3.4h-.6a3.988,3.988,0,0,1-3.984-3.984V5.041h-1.5V6.564a5.493,5.493,0,0,0,5.486,5.486h.6v3.334a5.148,5.148,0,0,0,10.3,0Z" fill="#e7ae5f"/>
    <path id="Path_45731" data-name="Path 45731" d="M17.992,0h1.5V3.838h-1.5Z" transform="translate(0 0)" fill="#e7ae5f"/>
    <path id="Path_45732" data-name="Path 45732" d="M458.042,85.467a3.456,3.456,0,0,0-1.5-2.85v5.7A3.456,3.456,0,0,0,458.042,85.467Z" transform="translate(-420.96 -79.304)" fill="#e7ae5f"/>
    <path id="Path_45733" data-name="Path 45733" d="M321.6,85.467a3.456,3.456,0,0,0,1.5,2.85v-5.7A3.456,3.456,0,0,0,321.6,85.467Z" transform="translate(-291.434 -79.304)" fill="#e7ae5f"/>
    <path id="Path_45734" data-name="Path 45734" d="M390.574,67.551a3.433,3.433,0,0,0-1.5,0V74.3a3.433,3.433,0,0,0,1.5,0Z" transform="translate(-356.197 -64.762)" fill="#e7ae5f"/>
  </g>
</svg>
