<svg id="sketch_icon" xmlns="http://www.w3.org/2000/svg" width="11.828" height="25.758" viewBox="0 0 11.828 25.758">
  <path id="Path_44442" data-name="Path 44442" d="M32.59,89.659h9.772a.091.091,0,0,1,.1.111,2.338,2.338,0,0,1-2.24,1.417H34.733a2.341,2.341,0,0,1-2.24-1.417A.091.091,0,0,1,32.59,89.659Z" transform="translate(-32.371 -65.43)" fill="#6f85a5"/>
  <path id="Path_44443" data-name="Path 44443" d="M38.7,23.347H35.981A3.616,3.616,0,0,0,32.3,26.053a.21.21,0,0,0,.228.222h9.632a.208.208,0,0,0,.228-.222A3.619,3.619,0,0,0,38.7,23.347Z" transform="translate(-32.241 -18.097)" fill="#6f85a5"/>
  <path id="Path_44444" data-name="Path 44444" d="M42.335,50.139c0,.119.007.35-.146.35H32.252c-.159,0-.111-.23-.111-.347,0,0,0-12.624,0-14.356a.215.215,0,0,1,.228-.2h9.722a.215.215,0,0,1,.228.2C42.329,37.517,42.335,50.139,42.335,50.139Z" transform="translate(-32.134 -26.835)" fill="#6f85a5"/>
  <path id="Path_44445" data-name="Path 44445" d="M45.8,12.467V14.51a.314.314,0,0,1-.334.289H42.736a.314.314,0,0,1-.334-.289V12.467a.314.314,0,0,1,.334-.289h2.733A.314.314,0,0,1,45.8,12.467Z" transform="translate(-39.003 -10.124)" fill="#6f85a5"/>
  <path id="Path_44446" data-name="Path 44446" d="M44.215,5.74a.686.686,0,0,1-.252.523.918.918,0,0,1-.6.218H38.278a.805.805,0,0,1-.856-.74.691.691,0,0,1,.252-.523.931.931,0,0,1,.6-.214h5.081A.8.8,0,0,1,44.215,5.74Z" transform="translate(-35.672 -5.003)" fill="#6f85a5"/>
  <path id="Path_44447" data-name="Path 44447" d="M56.005,17.331a1.351,1.351,0,0,0,.044.346.072.072,0,0,1-.077.086H54.8a.1.1,0,0,1-.1-.092v-.679a.1.1,0,0,1,.1-.089h1.175a.072.072,0,0,1,.077.086,1.339,1.339,0,0,0-.044.343Z" transform="translate(-47.226 -13.496)" fill="#6f85a5"/>
  <path id="Path_44448" data-name="Path 44448" d="M38.332,16.909h.42a.1.1,0,0,1,.107.092v.677a.1.1,0,0,1-.107.092h-.42a.215.215,0,0,1-.231-.2v-.467A.215.215,0,0,1,38.332,16.909Z" transform="translate(-36.126 -13.501)" fill="#6f85a5"/>
  <ellipse id="Ellipse_638" data-name="Ellipse 638" cx="1.191" cy="1.03" rx="1.191" ry="1.03" transform="translate(9.445 2.805)" fill="#6f85a5"/>
</svg>
