<svg id="hot-stone-massage-black-glyph-icon-relaxing-body-muscles-apply-heated-stones-encourage-blood-flow-th" xmlns="http://www.w3.org/2000/svg" width="20.346" height="16.29" viewBox="0 0 20.346 16.29">
  <path id="Path_45816" data-name="Path 45816" d="M528.578-762.94a2.549,2.549,0,0,0-.307,1.384,2.908,2.908,0,0,0,.26.988,1.554,1.554,0,0,1,.17.668,1.753,1.753,0,0,1-.158.85c-.1.23-.1.346.012.468a.222.222,0,0,0,.206.1c.155,0,.23-.069.337-.3a2.434,2.434,0,0,0,.218-1.026,2.115,2.115,0,0,0-.224-1.006,1.925,1.925,0,0,1-.2-.993,2.671,2.671,0,0,1,.06-.462c.024-.084.06-.212.081-.286a.327.327,0,0,0-.081-.373A.3.3,0,0,0,528.578-762.94Z" transform="translate(-516.953 763.003)" fill="#7c669c"/>
  <path id="Path_45817" data-name="Path 45817" d="M381.957-755.5c-.125.057-.17.134-.26.439a2.987,2.987,0,0,0-.107,1.086,2.8,2.8,0,0,0,.26.922,1.466,1.466,0,0,1,.152.606,1.8,1.8,0,0,1-.149.868.605.605,0,0,0-.075.328.292.292,0,0,0,.5.161,2.332,2.332,0,0,0,.352-1.11,2.317,2.317,0,0,0-.215-1.1,4.958,4.958,0,0,1-.2-.591,2.44,2.44,0,0,1,.075-1c.1-.334.1-.415,0-.525A.261.261,0,0,0,381.957-755.5Z" transform="translate(-374.64 755.746)" fill="#7c669c"/>
  <path id="Path_45818" data-name="Path 45818" d="M653.943-738.711c-.107.057-.17.182-.26.531a2.22,2.22,0,0,0-.084.731,2.327,2.327,0,0,0,.254,1.167,1.647,1.647,0,0,1,.167.633,1.906,1.906,0,0,1-.17.9c-.078.191-.086.239-.06.319a.287.287,0,0,0,.266.215c.107.015.131.006.221-.083a2.071,2.071,0,0,0,.337-.937,2.257,2.257,0,0,0-.23-1.361,2.111,2.111,0,0,1-.1-1.447c.119-.451.119-.468.021-.576A.312.312,0,0,0,653.943-738.711Z" transform="translate(-638.547 739.463)" fill="#7c669c"/>
  <path id="Path_45819" data-name="Path 45819" d="M172.167-598.727a1.434,1.434,0,0,0-.716.406,1.488,1.488,0,0,0-.451,1.059,1.35,1.35,0,0,0,.1.522c.054.069.158.042.266-.069a3.136,3.136,0,0,1,.8-.516,2.972,2.972,0,0,1,1.164-.233c.528-.021.552-.03.462-.254A1.455,1.455,0,0,0,172.167-598.727Z" transform="translate(-170.346 603.653)" fill="#7c669c"/>
  <path id="Path_45820" data-name="Path 45820" d="M374.167-556.6a7.665,7.665,0,0,0-.782.167.412.412,0,0,0,.024.7c.09.048.116.045.561-.042.257-.051.621-.113.806-.137.382-.048.462-.086.552-.266a.378.378,0,0,0-.209-.513C374.987-556.749,374.993-556.752,374.167-556.6Z" transform="translate(-366.516 562.883)" fill="#7c669c"/>
  <path id="Path_45821" data-name="Path 45821" d="M497.727-552.559a.387.387,0,0,0-.26.471c.06.212.087.224.973.376.445.078.838.137.874.137a.419.419,0,0,0,.349-.448.563.563,0,0,0-.224-.3,7.55,7.55,0,0,0-.767-.134c-.391-.06-.743-.11-.785-.119A.433.433,0,0,0,497.727-552.559Z" transform="translate(-487.06 558.855)" fill="#7c669c"/>
  <path id="Path_45822" data-name="Path 45822" d="M175.438-546.686a2.4,2.4,0,0,0-1.238.642,1.581,1.581,0,0,0-.5,1.211,2.036,2.036,0,0,0,.7,1.48,3.152,3.152,0,0,0,1.456.791,2.5,2.5,0,0,0,.776.072,2.361,2.361,0,0,0,.77-.069,2.31,2.31,0,0,0,1.149-.662,1.617,1.617,0,0,0,.448-1.164,1.961,1.961,0,0,0-.585-1.361,3.126,3.126,0,0,0-1.587-.907A3.812,3.812,0,0,0,175.438-546.686Z" transform="translate(-172.964 553.187)" fill="#7c669c"/>
  <path id="Path_45823" data-name="Path 45823" d="M619.218-530.724a.4.4,0,0,0-.218.346.439.439,0,0,0,.209.343,10.929,10.929,0,0,0,1.3.2c.376.042.459.024.57-.116a.35.35,0,0,0,.048-.391c-.1-.2-.152-.221-.913-.328C619.433-530.777,619.352-530.783,619.218-530.724Z" transform="translate(-604.979 537.69)" fill="#7c669c"/>
  <path id="Path_45824" data-name="Path 45824" d="M359.875-519.773a9.654,9.654,0,0,0-2.53.537c-.024.036-.009.113.048.286a1.986,1.986,0,0,1,.018,1.363,1.183,1.183,0,0,0-.075.3c.006.018.122.191.257.382a1.679,1.679,0,0,1,.421,1.364c.021.737.045.856.209,1.053a.748.748,0,0,0,.209.17c.113.06.191.06,4.971.06h4.857l-.012-.066c-.006-.039-.015-.373-.024-.749l-.012-.677h-4.037c-3.873,0-4.04,0-4.085-.054a.188.188,0,0,1,0-.254,32.915,32.915,0,0,1,4.087-.051h4.034v-1.253c0-1.31-.006-1.378-.131-1.423a6.971,6.971,0,0,0-.734-.024,6.7,6.7,0,0,1-1.193-.083c-.952-.14-1.283-.2-2.25-.394-1.217-.242-2.467-.451-2.927-.489A5.664,5.664,0,0,0,359.875-519.773Z" transform="translate(-351.12 527.056)" fill="#7c669c"/>
  <path id="Path_45825" data-name="Path 45825" d="M736.3-510.79a8.477,8.477,0,0,0-2.115.576,11.96,11.96,0,0,0-.057,2.223,13.7,13.7,0,0,0,.039,2.268c.1.185.066.182,1.45.182,1.256,0,1.259,0,1.331-.066l.069-.066v-2.444c0-2.682.009-2.569-.179-2.664A.983.983,0,0,0,736.3-510.79Z" transform="translate(-716.666 518.344)" fill="#7c669c"/>
  <path id="Path_45826" data-name="Path 45826" d="M149.27-462.863c-.2.26-.2.272-.191,1.745.009,1.28.012,1.331.072,1.462a.99.99,0,0,0,.412.442,12.611,12.611,0,0,0,2.8.069c2.611.009,2.679.009,2.721.066a.209.209,0,0,1-.009.26,24.565,24.565,0,0,1-2.814.057l-2.763.015-.125.083a.844.844,0,0,0-.206.206l-.084.122-.009.916c-.009.88-.006.922.057,1.089a1.177,1.177,0,0,0,.6.609l.173.063h9.622c8.855,0,9.631,0,9.709-.048.182-.11.179-.084.179-1.569v-1.358l-.069-.063-.069-.066-6.415-.006-6.412-.009-.2-.1a1.156,1.156,0,0,1-.618-.853,5.7,5.7,0,0,1-.033-.686,4.138,4.138,0,0,0-.033-.624,2.986,2.986,0,0,0-.271-.471l-.245-.358-.194.194a2.736,2.736,0,0,1-1.271.7,4.264,4.264,0,0,1-1.438.048,3.834,3.834,0,0,1-1.456-.57,3.3,3.3,0,0,1-1.047-1.2c-.131-.3-.137-.307-.209-.307C149.395-463,149.341-462.955,149.27-462.863Z" transform="translate(-149.075 471.951)" fill="#7c669c"/>
</svg>
