<svg id="_1350373" data-name="1350373" xmlns="http://www.w3.org/2000/svg" width="20.723" height="19.017" viewBox="0 0 20.723 19.017">
  <path id="Path_45778" data-name="Path 45778" d="M117.765-245.771a1.3,1.3,0,0,0-.818.672,1.506,1.506,0,0,0,1.134,2.283,2.454,2.454,0,0,0,.721-.057,1.779,1.779,0,0,0,.947-1.069A1.544,1.544,0,0,0,117.765-245.771Z" transform="translate(-107.28 245.865)" fill="#c8726e"/>
  <path id="Path_45779" data-name="Path 45779" d="M192.92-217.338c-1.3.85-2.413,1.6-2.461,1.644-.065.065-.049.146.049.3.081.113.178.211.219.211.057,0,4.769-3.028,5-3.206.041-.032-.316-.518-.381-.51C195.309-218.9,194.216-218.2,192.92-217.338Z" transform="translate(-175.002 221.084)" fill="#c8726e"/>
  <path id="Path_45780" data-name="Path 45780" d="M95.036-206.573a1.9,1.9,0,0,0-.551.445,6.443,6.443,0,0,0-.729,2.2l-.057.5h1.255a9.908,9.908,0,0,0,1.3-.049,2.537,2.537,0,0,0-.542-.713,11,11,0,0,1-.721-.858.657.657,0,0,1,.583-1.053c.283,0,.356.049.688.421l.372.429v-.308a1.417,1.417,0,0,0-.389-.98A1.172,1.172,0,0,0,95.036-206.573Z" transform="translate(-86.113 209.89)" fill="#c8726e"/>
  <path id="Path_45781" data-name="Path 45781" d="M110.249-197.83c-.291.227-.275.551.049.939.138.17.51.575.826.891l.567.591h.753a3.412,3.412,0,0,0,.753-.04,9.371,9.371,0,0,0-.745-.761c-.413-.4-.915-.923-1.117-1.166-.324-.4-.615-.623-.8-.623A.819.819,0,0,0,110.249-197.83Z" transform="translate(-101.132 201.875)" fill="#c8726e"/>
  <path id="Path_45782" data-name="Path 45782" d="M.81-189.915v7.085H0v.891H19.918v-.891h-.81v-7.012c0-3.854-.032-7-.065-6.979s-.494.3-1.012.632l-.939.607-.024.607-.024.607H2.874l-.024-1.32L2.834-197H.81Zm16.274-4.105a8.158,8.158,0,0,1-1.393.453c-.769.219-1.425.4-1.457.421-.089.057.178.51.283.478.211-.065,2.478-.688,2.526-.688.024,0,.04,1.951.04,4.332v4.332H2.834l.016-3.627.024-3.619,2.575-.016c3.133-.016,2.891-.113,2.891,1.174A4.767,4.767,0,0,1,6.866-187.1c-.591.615-.632.68-.632,1.012a.693.693,0,0,0,.235.591.865.865,0,0,0,1.239-.032,7.12,7.12,0,0,0,2.048-3.052l.146-.445.146.526a12.263,12.263,0,0,1,.275,1.417c.073.486.146,1,.17,1.15a.876.876,0,0,0,.858.672.675.675,0,0,0,.567-.251l.251-.243-.049-.745a14.546,14.546,0,0,0-1.263-4.785,2.491,2.491,0,0,1-.259-.648,6.218,6.218,0,0,1,.769-.04,5.545,5.545,0,0,0,1.166-.138l.445-.13-.235-.194a.493.493,0,0,0-.478-.146c-.13.024-.656.065-1.15.089-1.069.049-1.036.073-1.036-.85v-.583H7.587l.04.729.049.729-2.4-.016-2.4-.024L2.85-193.3l-.024-.785H9.959C13.878-194.085,17.084-194.053,17.084-194.02Z" transform="translate(0 200.956)" fill="#c8726e"/>
  <path id="Path_45783" data-name="Path 45783" d="M138.819-158.773c.267.283.275.332.016.3-.13-.008-.2.024-.2.089,0,.081.113.113.364.113.324,0,.445.057,1.109.567.818.615,1.077.7,1.36.389a.49.49,0,0,0,.065-.648,7.212,7.212,0,0,0-.713-.583l-.607-.453H138.6Z" transform="translate(-127.378 166.033)" fill="#c8726e"/>
  <path id="Path_45784" data-name="Path 45784" d="M170-157.879c0,.1.105.121.445.121s.445-.024.445-.121-.105-.121-.445-.121S170-157.976,170-157.879Z" transform="translate(-156.236 165.114)" fill="#c8726e"/>
  <path id="Path_45785" data-name="Path 45785" d="M44.025-152.578c-.13.13.032.178.615.178.437,0,.64-.032.623-.089A3,3,0,0,0,44.025-152.578Z" transform="translate(-40.422 160.162)" fill="#c8726e"/>
  <path id="Path_45786" data-name="Path 45786" d="M66.045-152.833c-.121.121-.049.194.194.194.162,0,.235-.032.219-.105A.335.335,0,0,0,66.045-152.833Z" transform="translate(-60.645 160.4)" fill="#c8726e"/>
  <path id="Path_45787" data-name="Path 45787" d="M76-152.421c0,.081.121.113.453.113.583,0,.559-.17-.032-.194C76.105-152.526,76-152.5,76-152.421Z" transform="translate(-69.847 160.07)" fill="#c8726e"/>
  <path id="Path_45788" data-name="Path 45788" d="M128.985-152.639c-.105.105-.024.178.211.178.162,0,.235-.032.219-.105A.38.38,0,0,0,128.985-152.639Z" transform="translate(-118.5 160.223)" fill="#c8726e"/>
  <path id="Path_45789" data-name="Path 45789" d="M44-123.879c0,.1.13.121.648.121s.648-.024.648-.121-.13-.121-.648-.121S44-123.976,44-123.879Z" transform="translate(-40.437 133.867)" fill="#c8726e"/>
  <path id="Path_45790" data-name="Path 45790" d="M66.068-123.943c-.138.13-.024.186.389.186.34,0,.445-.024.445-.121s-.1-.121-.389-.121A1.081,1.081,0,0,0,66.068-123.943Z" transform="translate(-60.668 133.867)" fill="#c8726e"/>
  <path id="Path_45791" data-name="Path 45791" d="M83.068-123.943c-.138.13-.024.186.389.186.34,0,.445-.024.445-.121s-.1-.121-.389-.121A1.081,1.081,0,0,0,83.068-123.943Z" transform="translate(-76.291 133.867)" fill="#c8726e"/>
  <path id="Path_45792" data-name="Path 45792" d="M150-123.879c0,.105.186.121,1.215.121s1.215-.016,1.215-.121-.186-.121-1.215-.121S150-123.984,150-123.879Z" transform="translate(-137.855 133.867)" fill="#c8726e"/>
  <path id="Path_45793" data-name="Path 45793" d="M189.068-123.943c-.138.13-.024.186.389.186.34,0,.445-.024.445-.121s-.1-.121-.389-.121A1.081,1.081,0,0,0,189.068-123.943Z" transform="translate(-173.709 133.867)" fill="#c8726e"/>
  <path id="Path_45794" data-name="Path 45794" d="M51.12-107.943c-.154.146.016.186.834.186.737,0,.891-.024.891-.121S52.7-108,52.011-108A3.844,3.844,0,0,0,51.12-107.943Z" transform="translate(-46.934 119.163)" fill="#c8726e"/>
  <path id="Path_45795" data-name="Path 45795" d="M79-107.879c0,.089.089.121.324.121s.324-.032.324-.121-.089-.121-.324-.121S79-107.968,79-107.879Z" transform="translate(-72.604 119.163)" fill="#c8726e"/>
  <path id="Path_45796" data-name="Path 45796" d="M148-107.756c0,.1.089.13.332.13.421,0,.389-.194-.032-.227C148.073-107.869,148-107.845,148-107.756Z" transform="translate(-136.017 119.032)" fill="#c8726e"/>
  <path id="Path_45797" data-name="Path 45797" d="M162-107.756c0,.105.146.121.9.121.68,0,.891-.024.866-.105-.024-.065-.3-.105-.9-.121C162.13-107.877,162-107.861,162-107.756Z" transform="translate(-148.883 119.04)" fill="#c8726e"/>
  <path id="Path_45798" data-name="Path 45798" d="M196-107.879c0,.081.089.121.283.121s.283-.04.283-.121-.089-.121-.283-.121S196-107.96,196-107.879Z" transform="translate(-180.13 119.163)" fill="#c8726e"/>
  <path id="Path_45799" data-name="Path 45799" d="M44-89.879c0,.105.089.121.5.105.308-.016.51-.065.534-.13s-.113-.1-.5-.1C44.105-90,44-89.976,44-89.879Z" transform="translate(-40.437 102.62)" fill="#c8726e"/>
  <path id="Path_45800" data-name="Path 45800" d="M65-89.879c0,.089.089.121.324.121s.324-.032.324-.121S65.559-90,65.324-90,65-89.968,65-89.879Z" transform="translate(-59.737 102.62)" fill="#c8726e"/>
  <path id="Path_45801" data-name="Path 45801" d="M79-89.879c0,.089.089.121.324.121s.324-.032.324-.121S79.559-90,79.324-90,79-89.968,79-89.879Z" transform="translate(-72.604 102.62)" fill="#c8726e"/>
  <path id="Path_45802" data-name="Path 45802" d="M156-89.879c0,.1.105.121.486.121s.486-.024.486-.121-.105-.121-.486-.121S156-89.976,156-89.879Z" transform="translate(-143.369 102.62)" fill="#c8726e"/>
  <path id="Path_45803" data-name="Path 45803" d="M176.181-89.9c.024.057.186.113.372.13.267.016.34,0,.34-.1s-.089-.13-.372-.13C176.261-90,176.164-89.968,176.181-89.9Z" transform="translate(-161.914 102.62)" fill="#c8726e"/>
  <path id="Path_45804" data-name="Path 45804" d="M193-89.87c0,.1.073.113.34.1.478-.032.51-.227.032-.227C193.089-90,193-89.968,193-89.87Z" transform="translate(-177.373 102.62)" fill="#c8726e"/>
  <path id="Path_45805" data-name="Path 45805" d="M44-71.879c0,.089.1.121.364.121s.364-.032.364-.121-.1-.121-.364-.121S44-71.968,44-71.879Z" transform="translate(-40.437 86.077)" fill="#c8726e"/>
  <path id="Path_45806" data-name="Path 45806" d="M62.262-71.9c.016.065.17.105.381.105s.364-.04.389-.105-.089-.1-.389-.1S62.238-71.968,62.262-71.9Z" transform="translate(-57.218 86.077)" fill="#c8726e"/>
  <path id="Path_45807" data-name="Path 45807" d="M118.175-71.9c.057.162.47.186.47.032,0-.089-.081-.13-.251-.13S118.159-71.968,118.175-71.9Z" transform="translate(-108.605 86.077)" fill="#c8726e"/>
  <path id="Path_45808" data-name="Path 45808" d="M157-71.879c0,.105.146.121,1.028.105.729-.016,1.036-.057,1.061-.13s-.219-.1-1.028-.1C157.162-72,157-71.984,157-71.879Z" transform="translate(-144.288 86.077)" fill="#c8726e"/>
  <path id="Path_45809" data-name="Path 45809" d="M191-71.879c0,.089.1.121.364.121s.364-.032.364-.121-.1-.121-.364-.121S191-71.968,191-71.879Z" transform="translate(-175.535 86.077)" fill="#c8726e"/>
  <path id="Path_45810" data-name="Path 45810" d="M42-56.879c0,.1.13.121.688.121s.688-.024.688-.121S43.247-57,42.688-57,42-56.976,42-56.879Z" transform="translate(-38.599 72.292)" fill="#c8726e"/>
  <path id="Path_45811" data-name="Path 45811" d="M65-56.879c0,.081.089.121.283.121s.283-.04.283-.121S65.478-57,65.283-57,65-56.96,65-56.879Z" transform="translate(-59.737 72.292)" fill="#c8726e"/>
  <path id="Path_45812" data-name="Path 45812" d="M105-56.879c0,.1.121.121.607.121s.607-.024.607-.121-.121-.121-.607-.121S105-56.976,105-56.879Z" transform="translate(-96.498 72.292)" fill="#c8726e"/>
  <path id="Path_45813" data-name="Path 45813" d="M155-56.879c0,.081.089.121.283.121s.283-.04.283-.121-.089-.121-.283-.121S155-56.96,155-56.879Z" transform="translate(-142.45 72.292)" fill="#c8726e"/>
  <path id="Path_45814" data-name="Path 45814" d="M169-56.879c0,.1.146.121.85.121s.85-.024.85-.121-.146-.121-.85-.121S169-56.976,169-56.879Z" transform="translate(-155.317 72.292)" fill="#c8726e"/>
  <path id="Path_45815" data-name="Path 45815" d="M196-56.879c0,.081.089.121.283.121s.283-.04.283-.121-.089-.121-.283-.121S196-56.96,196-56.879Z" transform="translate(-180.13 72.292)" fill="#c8726e"/>
</svg>
