<svg id="infusion_2_" data-name="infusion (2)" xmlns="http://www.w3.org/2000/svg" width="18" height="18" viewBox="0 0 18 18">
  <path id="Path_45751" data-name="Path 45751" d="M68.422,217.173a.725.725,0,0,0,.724.724H73.1a.725.725,0,0,0,.724-.724v-3.208h-5.4Zm2.025-1.713H71.8a.527.527,0,0,1,0,1.055H70.447a.527.527,0,0,1,0-1.055Z" transform="translate(-66.017 -206.443)" fill="#7c669c"/>
  <path id="Path_45752" data-name="Path 45752" d="M68.422,134.013h5.4v1.756h-5.4Z" transform="translate(-66.017 -129.302)" fill="#7c669c"/>
  <path id="Path_45753" data-name="Path 45753" d="M260.711,160.081h-7.759a.687.687,0,0,0-.686.686v11a.687.687,0,0,0,.686.686h7.759a.687.687,0,0,0,.686-.686v-11A.687.687,0,0,0,260.711,160.081Zm-5.6,10.47a.527.527,0,0,1-.742.75l-.8-.8a.527.527,0,0,1,0-.748l.8-.8a.527.527,0,1,1,.746.746l-.429.429Zm1.747.11a.527.527,0,1,1,.527-.527A.527.527,0,0,1,256.855,170.661Zm3.25-.166-.8.8a.527.527,0,1,1-.746-.746l.429-.429-.428-.423a.527.527,0,0,1,.742-.75l.8.8a.527.527,0,0,1,0,.748Z" transform="translate(-243.397 -154.453)" fill="#7c669c"/>
  <path id="Path_45754" data-name="Path 45754" d="M8.869,4.715a1.732,1.732,0,0,1,.686-.141h.672V2.233a.549.549,0,0,0-.549-.549h-2.2a.383.383,0,0,1-.361-.26,2.115,2.115,0,0,0-4,0,.383.383,0,0,1-.361.26H.549A.549.549,0,0,0,0,2.233V13.739a.549.549,0,0,0,.549.549H3.362a.381.381,0,0,1,.381.381v.944a.381.381,0,0,0,.381.381H4.6v1.469a.527.527,0,0,0,1.055,0V15.995h.48a.381.381,0,0,0,.381-.381v-.944a.381.381,0,0,1,.381-.381h.846a.379.379,0,0,0,.068-.006V12.358a1.764,1.764,0,0,1-.724.155H3.138a1.779,1.779,0,0,1-1.779-1.779V4.189a.527.527,0,0,1,.527-.527H8.341a.527.527,0,0,1,.527.527ZM5.1,2.221a.527.527,0,1,1,.527-.527A.527.527,0,0,1,5.1,2.221Z" fill="#7c669c"/>
</svg>
