<svg xmlns="http://www.w3.org/2000/svg" width="11.113" height="21.074" viewBox="0 0 11.113 21.074">
  <g id="iv-bag_1_" data-name="iv-bag (1)" transform="translate(-121)">
    <path id="Path_45747" data-name="Path 45747" d="M121.617,332.47h3.7v4.4a.617.617,0,0,0,.617.617h1.235a.617.617,0,0,0,.617-.617v-4.4h3.7a.617.617,0,0,0,.617-.617A1.854,1.854,0,0,0,130.261,330h-7.409A1.854,1.854,0,0,0,121,331.852.617.617,0,0,0,121.617,332.47Z" transform="translate(0 -316.417)" fill="#c8726e"/>
    <path id="Path_45748" data-name="Path 45748" d="M125.939,75H121v1.235h3.087a.617.617,0,0,1,0,1.235H121V78.7h3.087a.617.617,0,0,1,0,1.235H121v1.235h4.939Z" transform="translate(0 -71.913)" fill="#c8726e"/>
    <path id="Path_45749" data-name="Path 45749" d="M121.852,12.348h9.409l.79-1.581a.674.674,0,0,0,.062-.272h-3.087a.611.611,0,0,1-.617-.617V2.47a.611.611,0,0,1,.617-.617h3.087A1.85,1.85,0,0,0,130.261,0h-7.409A1.85,1.85,0,0,0,121,1.852h5.557a.611.611,0,0,1,.617.617V9.879a.611.611,0,0,1-.617.617H121a.674.674,0,0,0,.062.272Z" fill="#c8726e"/>
    <path id="Path_45750" data-name="Path 45750" d="M331,75h2.47v6.174H331Z" transform="translate(-201.356 -71.913)" fill="#c8726e"/>
  </g>
</svg>
