<svg id="_x33_8_x2C__Laser_x2C__cnc_machine_x2C__industry_x2C__engrave_x2C__laser_cutting_machine_x2C__laser_theraphy" xmlns="http://www.w3.org/2000/svg" width="16.356" height="16.356" viewBox="0 0 16.356 16.356">
  <g id="Group_16706" data-name="Group 16706" transform="translate(0 0)">
    <g id="Group_16705" data-name="Group 16705">
      <path id="Path_45832" data-name="Path 45832" d="M17.036,10.3H3.886V8.7h.321a.321.321,0,0,0,.321-.321V4.849a.321.321,0,0,0-.321-.321H3.886v-1.6H8.056v1.6a.321.321,0,0,0,.321.321h.8V5.49a.321.321,0,1,0,.641,0V4.849h.8a.321.321,0,0,0,.321-.321V1.321A.321.321,0,0,0,10.621,1H1.641a.321.321,0,0,0-.321.321V2.6a.321.321,0,0,0,.321.321h.321v1.6H1.641a.321.321,0,0,0-.321.321V8.376a.321.321,0,0,0,.321.321h.321v1.6H1.321A.321.321,0,0,0,1,10.621V11.9a.321.321,0,0,0,.321.321H3.566v.962a.321.321,0,0,0,.321.321h.641v1.924H3.886a.321.321,0,0,0-.321.321v1.283a.321.321,0,0,0,.321.321H14.47a.321.321,0,0,0,.321-.321V15.753a.321.321,0,0,0-.321-.321h-.641V13.508h.641a.321.321,0,0,0,.321-.321v-.962h2.245a.321.321,0,0,0,.321-.321V10.621A.321.321,0,0,0,17.036,10.3ZM10.3,4.207H8.7V1.641h1.6ZM1.962,1.641H8.056v.641H1.962ZM2.6,2.924h.641v1.6H2.6ZM2.6,8.7h.641v1.6H2.6Zm11.546,8.018H4.207v-.641h9.942Zm0-3.849H4.207v-.641h9.942Zm2.566-1.283H1.641v-.641H16.715Z" transform="translate(-1 -1)" fill="#e7ae5f"/>
      <path id="Path_45833" data-name="Path 45833" d="M189.372,223.27a.321.321,0,1,0-.454.454,3.367,3.367,0,0,0,4.762,0,.321.321,0,0,0-.454-.454A2.725,2.725,0,0,1,189.372,223.27Z" transform="translate(-182.8 -216.05)" fill="#e7ae5f"/>
      <path id="Path_45834" data-name="Path 45834" d="M221.3,195.7a1.367,1.367,0,0,1-1.931,0,.321.321,0,1,0-.454.454,2.009,2.009,0,0,0,2.838,0,.321.321,0,0,0-.454-.454Z" transform="translate(-211.838 -189.361)" fill="#e7ae5f"/>
      <circle id="Ellipse_829" data-name="Ellipse 829" cx="0.348" cy="0.348" r="0.348" transform="translate(8.248 5.568)" fill="#e7ae5f"/>
    </g>
  </g>
</svg>
