<svg xmlns="http://www.w3.org/2000/svg" width="15.412" height="19.533" viewBox="0 0 15.412 19.533">
  <g id="catheter" transform="translate(0)">
    <g id="Group_16687" data-name="Group 16687" transform="translate(0 0)">
      <g id="Group_16686" data-name="Group 16686">
        <path id="Path_45725" data-name="Path 45725" d="M121.623,67.012a.6.6,0,1,0,.591.678A.6.6,0,0,0,121.623,67.012Z" transform="translate(-118.469 -64.455)" fill="#c8726e"/>
        <path id="Path_45726" data-name="Path 45726" d="M68.626,2.354a.8.8,0,0,0-.8.8V13a4.931,4.931,0,0,1-9.846.391,2.63,2.63,0,0,0,1.8-2.311c0-.044.54-7.888.54-7.932a3.154,3.154,0,0,0-6.307,0c0,.042.536,7.89.539,7.932a2.63,2.63,0,0,0,1.828,2.32A6.529,6.529,0,0,0,69.425,13V3.154A.8.8,0,0,0,68.626,2.354ZM57.167,4.709a1.53,1.53,0,0,1-1.555-1.58,1.555,1.555,0,1,1,1.557,1.58Z" transform="translate(-54.013 0)" fill="#c8726e"/>
      </g>
    </g>
  </g>
</svg>
