<svg xmlns="http://www.w3.org/2000/svg" width="22.152" height="21.074" viewBox="0 0 22.152 21.074">
  <g id="massage" transform="translate(15.505 -4.418)">
    <path id="Path_45755" data-name="Path 45755" d="M227.027,444.88a1.02,1.02,0,1,0,2.039,0v-1.467h-2.04v1.467Z" transform="translate(-232.263 -420.407)" fill="#c8726e"/>
    <path id="Path_45756" data-name="Path 45756" d="M285.594,444.88a1.02,1.02,0,1,0,2.039,0v-1.467h-2.04v1.467Z" transform="translate(-288.351 -420.407)" fill="#c8726e"/>
    <circle id="Ellipse_827" data-name="Ellipse 827" cx="1.761" cy="1.761" r="1.761" transform="translate(-4.777 7.941) rotate(-88.568)" fill="#c8726e"/>
    <path id="Path_45757" data-name="Path 45757" d="M283.833,274.81h1.01a1.2,1.2,0,0,1,.477.1h1.724l-.438-2.263h-.366Z" transform="translate(-286.664 -256.87)" fill="#c8726e"/>
    <path id="Path_45758" data-name="Path 45758" d="M401.491,271.473a.919.919,0,0,0,.684.33.847.847,0,0,0,.709-.382,1.375,1.375,0,0,1-.374.052h-1.019Z" transform="translate(-399.34 -255.698)" fill="#c8726e"/>
    <circle id="Ellipse_828" data-name="Ellipse 828" cx="1.777" cy="1.777" r="1.777" transform="matrix(0.793, -0.609, 0.609, 0.793, -15.505, 17.431)" fill="#c8726e"/>
    <g id="Group_16704" data-name="Group 16704" transform="translate(-10.594 13.496)">
      <path id="Path_45759" data-name="Path 45759" d="M210.357,380.734h0Z" transform="translate(-205.705 -373.879)" fill="#c8726e"/>
      <path id="Path_45760" data-name="Path 45760" d="M213.42,243.288l.541-.465-1.683-.7-.226,1.168Z" transform="translate(-207.328 -241.134)" fill="#c8726e"/>
      <path id="Path_45761" data-name="Path 45761" d="M114.251,218.823h-4.1a.9.9,0,0,0-.419.1,1.27,1.27,0,0,1-1.342,2.114l-.777-.324-.846.727H101.5a1.016,1.016,0,0,0-1.012,1.017l0,2.187a1.03,1.03,0,0,0,1.014,1.032h3.632l-1.944-1.1,1.855.659a.8.8,0,0,0,.269.046h3.945a.805.805,0,1,0,0-1.61h-3.807l-1.725-.612,1.586.211h2.255l2.911-2.638h3.77a.9.9,0,0,0,0-1.806Z" transform="translate(-100.487 -218.823)" fill="#c8726e"/>
    </g>
    <path id="Path_45762" data-name="Path 45762" d="M314.3,338.319l-5.578-.006a1.205,1.205,0,0,1-1.052,1.8h6.63a.89.89,0,0,0,.9-.888A.9.9,0,0,0,314.3,338.319Z" transform="translate(-309.497 -319.757)" fill="#c8726e"/>
    <path id="Path_45763" data-name="Path 45763" d="M20.648,391.387H.847a.847.847,0,1,0,0,1.694H1.14v2.149a.847.847,0,0,0,1.694,0v-2.149H18.661v2.149a.847.847,0,0,0,1.694,0v-2.149h.293a.847.847,0,1,0,0-1.694Z" transform="translate(-14.849 -370.584)" fill="#c8726e"/>
    <path id="Path_45764" data-name="Path 45764" d="M199.184,104.169l.18,2.536a.85.85,0,0,0,.52.724l3.176,1.327a.85.85,0,0,0,.655-1.568l-2.693-1.125-.143-2.014.444,1.677,2.466,1.038a1.376,1.376,0,0,1,.87-.31H205l-.22-1.234.439,1.234h2.148l-.529-.52c-.342-.953-.606-1.7-.786-2.225-.394-1.147-1.055-1.729-1.965-1.729h-2.865a2.047,2.047,0,0,0-2.041,2.19Z" transform="translate(-205.594 -93.43)" fill="#c8726e"/>
  </g>
</svg>
