<svg id="sketch_icon" xmlns="http://www.w3.org/2000/svg" width="9.029" height="19.662" viewBox="0 0 9.029 19.662">
  <path id="Path_44442" data-name="Path 44442" d="M32.566,89.659h7.459a.069.069,0,0,1,.074.085,1.785,1.785,0,0,1-1.71,1.081H34.2a1.787,1.787,0,0,1-1.71-1.081A.069.069,0,0,1,32.566,89.659Z" transform="translate(-32.399 -71.163)" fill="#c8726e"/>
  <path id="Path_44443" data-name="Path 44443" d="M37.184,23.347H35.109A2.76,2.76,0,0,0,32.3,25.413a.161.161,0,0,0,.174.17h7.353a.159.159,0,0,0,.174-.17A2.762,2.762,0,0,0,37.184,23.347Z" transform="translate(-32.254 -19.339)" fill="#c8726e"/>
  <path id="Path_44444" data-name="Path 44444" d="M39.921,46.7c0,.091.005.267-.111.267H32.224c-.121,0-.084-.176-.084-.265,0,0,0-9.637,0-10.959a.164.164,0,0,1,.174-.15h7.421a.164.164,0,0,1,.174.15C39.916,37.061,39.921,46.7,39.921,46.7Z" transform="translate(-32.134 -28.907)" fill="#c8726e"/>
  <path id="Path_44445" data-name="Path 44445" d="M45,12.4v1.559a.24.24,0,0,1-.255.221H42.657a.24.24,0,0,1-.255-.221V12.4a.24.24,0,0,1,.255-.221h2.086A.24.24,0,0,1,45,12.4Z" transform="translate(-39.807 -10.61)" fill="#c8726e"/>
  <path id="Path_44446" data-name="Path 44446" d="M42.608,5.566a.524.524,0,0,1-.192.4.7.7,0,0,1-.462.166H38.076a.615.615,0,0,1-.654-.565.527.527,0,0,1,.192-.4A.711.711,0,0,1,38.076,5h3.879A.613.613,0,0,1,42.608,5.566Z" transform="translate(-36.086 -5.003)" fill="#c8726e"/>
  <path id="Path_44447" data-name="Path 44447" d="M55.695,17.23a1.031,1.031,0,0,0,.034.264.055.055,0,0,1-.059.066h-.9a.075.075,0,0,1-.079-.07V16.97a.074.074,0,0,1,.079-.068h.9a.055.055,0,0,1,.059.066,1.022,1.022,0,0,0-.033.262Z" transform="translate(-48.993 -14.302)" fill="#c8726e"/>
  <path id="Path_44448" data-name="Path 44448" d="M38.277,16.909H38.6a.076.076,0,0,1,.081.07V17.5a.076.076,0,0,1-.081.07h-.321a.164.164,0,0,1-.176-.15v-.357A.164.164,0,0,1,38.277,16.909Z" transform="translate(-36.593 -14.308)" fill="#c8726e"/>
  <ellipse id="Ellipse_638" data-name="Ellipse 638" cx="0.909" cy="0.786" rx="0.909" ry="0.786" transform="translate(7.21 2.142)" fill="#c8726e"/>
</svg>
