<svg xmlns="http://www.w3.org/2000/svg" width="18.346" height="16.356" viewBox="0 0 18.346 16.356">
  <g id="massage-spa-body-treatment" transform="translate(0 -51.252)">
    <path id="Path_45777" data-name="Path 45777" d="M11.946,67.609H0V66.495a1.276,1.276,0,0,0,.794.278H11.121ZM5.17,51.252a1.16,1.16,0,0,0-.654,2.119,2.714,2.714,0,0,1,1.613-1.613A1.158,1.158,0,0,0,5.17,51.252Zm-.332,3.041a2.209,2.209,0,1,0,.126-.739A2.212,2.212,0,0,0,4.838,54.293Zm-1.2,3.052c-.518,1.149-1.647,4.085-1.958,4.824H5.532a5.983,5.983,0,0,1,.285-.605c.363-.677,1.5-1.013,1.226-1.958,0-.008-.006-.016-.008-.025l1.015.963a.8.8,0,0,0,.264.167l2.775,1.06a.814.814,0,0,0,.285.052.8.8,0,0,0,.283-1.545L9.206,59.34a.965.965,0,0,1-.309-.194L6.736,57.095a.865.865,0,0,0-.334-.184c-.029-.01-.06-.019-.091-.027s-.068-.019-.1-.027a5.087,5.087,0,0,0-1.694-.217,1.13,1.13,0,0,0-.538.169A1.231,1.231,0,0,0,3.637,57.345ZM.794,66.287H11.323l1.009,1.023a1,1,0,0,0,.332.223,1.015,1.015,0,0,0,.38.076h4.3a1,1,0,1,0-.016-2H13.463l-2.627-2.666a.78.78,0,0,0-.689-.293l-9.353.006A.793.793,0,0,0,0,63.448v2.045A.793.793,0,0,0,.794,66.287ZM16.9,62.627a2.3,2.3,0,1,0-2.3,2.3A2.3,2.3,0,0,0,16.9,62.627Z" transform="translate(0 0)" fill="#e7ae5f"/>
  </g>
</svg>
