<svg xmlns="http://www.w3.org/2000/svg" xmlns:xlink="http://www.w3.org/1999/xlink" width="20" height="20" viewBox="0 0 20 20">
  <defs>
    <clipPath id="clip-path">
      <path id="path3648" d="M0-682.665H20v20H0Z" transform="translate(0 682.665)"/>
    </clipPath>
  </defs>
  <g id="tube" transform="translate(0 -0.001)">
    <g id="g3642" transform="translate(0 0.002)">
      <g id="g3644">
        <g id="g3646" clip-path="url(#clip-path)">
          <g id="g3652" transform="translate(5.273 2.637)">
            <path id="path3654" d="M-332.627-166.313a5.019,5.019,0,0,1-5.019,5.019,5.019,5.019,0,0,1-5.019-5.019,5.019,5.019,0,0,1,5.019-5.019A5.019,5.019,0,0,1-332.627-166.313Z" transform="translate(342.666 171.333)" fill="rgba(0,0,0,0)" stroke="#7fcccd" stroke-linecap="round" stroke-linejoin="round" stroke-width="1"/>
          </g>
          <g id="g3656" transform="translate(2.93 0.293)">
            <path id="path3658" d="M-449.111-243.97v11.464a.586.586,0,0,0,.586.586.586.586,0,0,0,.586-.586V-243.97a7.363,7.363,0,0,0-7.363-7.363,7.363,7.363,0,0,0-7.363,7.363,7.363,7.363,0,0,0,7.363,7.363,7.357,7.357,0,0,0,6.191-3.376" transform="translate(462.666 251.333)" fill="rgba(0,0,0,0)" stroke="#7fcccd" stroke-linecap="round" stroke-linejoin="round" stroke-width="1"/>
          </g>
          <g id="g3660" transform="translate(16.484 18.535)">
            <path id="path3662" d="M-38.828-19.414A.586.586,0,0,0-39.414-20a.586.586,0,0,0-.586.586" transform="translate(40 20)" fill="rgba(0,0,0,0)" stroke="#7fcccd" stroke-linecap="round" stroke-linejoin="round" stroke-width="1"/>
          </g>
          <g id="g3664" transform="translate(2.344 7.656)">
            <path id="path3666" d="M-19.414,0V7.363L-20,10.878h2.344l-.586-3.516V3.987" transform="translate(20)" fill="rgba(0,0,0,0)" stroke="#7fcccd" stroke-linecap="round" stroke-linejoin="round" stroke-width="1"/>
          </g>
          <g id="g3668" transform="translate(2.93 15.019)">
            <path id="path3670" d="M-38.828,0H-40" transform="translate(40)" fill="rgba(0,0,0,0)" stroke="#7fcccd" stroke-linecap="round" stroke-linejoin="round" stroke-width="1"/>
          </g>
          <g id="g3672" transform="translate(2.93 13.847)">
            <path id="path3674" d="M-38.828,0H-40" transform="translate(40)" fill="rgba(0,0,0,0)" stroke="#7fcccd" stroke-linecap="round" stroke-linejoin="round" stroke-width="1"/>
          </g>
          <g id="g3676" transform="translate(2.344 19.707)">
            <path id="path3678" d="M-77.656,0H-80" transform="translate(80)" fill="rgba(0,0,0,0)" stroke="#7fcccd" stroke-linecap="round" stroke-linejoin="round" stroke-width="1"/>
          </g>
          <g id="g3680" transform="translate(2.93 18.535)">
            <path id="path3682" d="M0,0V1.172" fill="rgba(0,0,0,0)" stroke="#7fcccd" stroke-linecap="round" stroke-linejoin="round" stroke-width="1"/>
          </g>
          <g id="g3684" transform="translate(4.102 18.535)">
            <path id="path3686" d="M0,0V1.172" fill="rgba(0,0,0,0)" stroke="#7fcccd" stroke-linecap="round" stroke-linejoin="round" stroke-width="1"/>
          </g>
          <g id="g3688" transform="translate(4.102 1.465)">
            <path id="path3690" d="M-47.005-74.462a6.166,6.166,0,0,0-1.419,3.944,6.191,6.191,0,0,0,6.191,6.191,6.191,6.191,0,0,0,6.191-6.191,6.191,6.191,0,0,0-6.191-6.191,6.166,6.166,0,0,0-3.944,1.419" transform="translate(48.424 76.709)" fill="rgba(0,0,0,0)" stroke="#7fcccd" stroke-linecap="round" stroke-linejoin="round" stroke-width="1"/>
          </g>
        </g>
      </g>
    </g>
  </g>
</svg>
