<svg xmlns="http://www.w3.org/2000/svg" width="19.511" height="19.511" viewBox="0 0 19.511 19.511">
  <g id="Layer_2" data-name="Layer 2" transform="translate(0)">
    <g id="_15_Phosphorus_periodic_table_chemistry_metal_education_science_element" data-name="15 Phosphorus,periodic table,chemistry,metal,education,science,element" transform="translate(0 0)">
      <path id="Path_45745" data-name="Path 45745" d="M227.577,192.28h-1.1c0,.4,0,.906,0,1.121,0,.255,0,.74,0,1.126l1.091,0a1.122,1.122,0,1,0,0-2.243Z" transform="translate(-217.849 -184.953)" fill="#7c669c"/>
      <path id="Path_45746" data-name="Path 45746" d="M16.653,2.86a9.755,9.755,0,1,0,0,13.8,9.754,9.754,0,0,0,0-13.8ZM9.728,10.716l-1.1,0v2.038a.572.572,0,0,1-1.143,0V6.7a.216.216,0,0,1,0-.035c0-.011,0-.014,0-.02S7.5,6.618,7.5,6.6l0-.012c0-.014.01-.029.015-.042a.028.028,0,0,1,0-.01c.006-.013.012-.026.018-.038L7.55,6.49c.006-.012.013-.023.021-.034l.008-.014.022-.03L7.612,6.4l.027-.03.01-.011a.555.555,0,0,1,.041-.038L7.7,6.312a.36.36,0,0,1,.038-.027l.008,0c.013-.008.026-.017.04-.024l0,0,.046-.021h0l.05-.018h0L7.942,6.2h.011L8,6.194l.057,0H9.725a2.263,2.263,0,1,1,0,4.525Z" transform="translate(0 -0.002)" fill="#7c669c"/>
    </g>
  </g>
</svg>
