<svg xmlns="http://www.w3.org/2000/svg" width="19.511" height="19.511" viewBox="0 0 19.511 19.511">
  <g id="Layer_2" data-name="Layer 2" transform="translate(0)">
    <g id="_19_Potassium_periodic_table_chemistry_metal_education_science_element" data-name="19 Potassium,periodic table,chemistry,metal,education,science,element" transform="translate(0 0)">
      <path id="Path_45744" data-name="Path 45744" d="M16.653,2.86a9.755,9.755,0,1,0,0,13.8,9.754,9.754,0,0,0,0-13.8ZM11.887,13.155a.572.572,0,0,1-.808.014L8.607,10.784v1.973a.572.572,0,0,1-1.143,0v-6a.572.572,0,0,1,1.143,0V8.5l2.269-2.086a.572.572,0,1,1,.774.842L9.061,9.636l2.812,2.712a.572.572,0,0,1,.014.806Z" transform="translate(0 -0.002)" fill="#e7ae5f"/>
    </g>
  </g>
</svg>
