<svg xmlns="http://www.w3.org/2000/svg" width="15.809" height="19.511" viewBox="0 0 15.809 19.511">
  <g id="protein-powder" transform="translate(0)">
    <g id="Group_16691" data-name="Group 16691" transform="translate(0 16.207)">
      <g id="Group_16690" data-name="Group 16690">
        <path id="Path_45739" data-name="Path 45739" d="M48.574,425.285v.217a3.091,3.091,0,0,0,3.088,3.088H61.3a3.091,3.091,0,0,0,3.088-3.088v-.217Z" transform="translate(-48.574 -425.285)" fill="#7fcccd"/>
      </g>
    </g>
    <g id="Group_16693" data-name="Group 16693" transform="translate(2.348)">
      <g id="Group_16692" data-name="Group 16692">
        <path id="Path_45740" data-name="Path 45740" d="M110.2,0V2.444a4.242,4.242,0,0,1,.739-.065h9.634a4.242,4.242,0,0,1,.739.065V0Z" transform="translate(-110.204)" fill="#7fcccd"/>
      </g>
    </g>
    <g id="Group_16695" data-name="Group 16695" transform="translate(0 7.971)">
      <g id="Group_16694" data-name="Group 16694">
        <path id="Path_45741" data-name="Path 45741" d="M48.574,209.163v7.093H64.383v-7.093Zm8.225,5.982-1.052-.447.6-1.417H54.882l1.277-3.007,1.052.447-.6,1.417h1.466Z" transform="translate(-48.574 -209.163)" fill="#7fcccd"/>
      </g>
    </g>
    <g id="Group_16697" data-name="Group 16697" transform="translate(0 3.523)">
      <g id="Group_16696" data-name="Group 16696">
        <path id="Path_45742" data-name="Path 45742" d="M61.3,92.448H51.662a3.091,3.091,0,0,0-3.088,3.088v.217H64.383v-.217A3.091,3.091,0,0,0,61.3,92.448Z" transform="translate(-48.574 -92.448)" fill="#7fcccd"/>
      </g>
    </g>
  </g>
</svg>
