<svg xmlns="http://www.w3.org/2000/svg" width="17.883" height="19.166" viewBox="0 0 17.883 19.166">
  <g id="blood-pressure_1_" data-name="blood-pressure (1)" transform="translate(-5.873 -4)">
    <path id="Path_44694" data-name="Path 44694" d="M33.709,27.02a5.133,5.133,0,1,0,4.686,5.113A5.133,5.133,0,0,0,33.709,27.02Zm.75,8.194h-2.4a.342.342,0,1,1,0-.685h2.4a.342.342,0,1,1,0,.685Zm-.342-2.054a.856.856,0,1,1-1.2-.784V30.388a.342.342,0,1,1,.685,0v1.989a.853.853,0,0,1,.513.784Zm2.909-.685a.343.343,0,0,1-.342-.342,3.423,3.423,0,0,0-6.845,0,.342.342,0,1,1-.685,0,4.107,4.107,0,0,1,8.214,0,.341.341,0,0,1-.342.342Z" transform="translate(-14.638 -15.129)" fill="#7fcccd"/>
    <path id="Path_44695" data-name="Path 44695" d="M12.8,17a5.833,5.833,0,0,1,5.866-5.818A53.188,53.188,0,0,0,13.4,4.112a.347.347,0,0,0-.51,0c-.288.322-7.02,7.869-7.02,11.781a7.282,7.282,0,0,0,7.273,7.273,7.2,7.2,0,0,0,3.272-.78A5.846,5.846,0,0,1,12.8,17Z" fill="#7fcccd"/>
    <path id="Path_44696" data-name="Path 44696" d="M42.626,44.678a.171.171,0,1,0,.171-.167.171.171,0,0,0-.171.167Z" transform="translate(-24.174 -26.647)" fill="#7fcccd"/>
  </g>
</svg>
