<svg id="blood-pressure" xmlns="http://www.w3.org/2000/svg" width="21.595" height="16.331" viewBox="0 0 21.595 16.331">
  <path id="Path_44437" data-name="Path 44437" d="M13.4,14.446a1.336,1.336,0,0,1-.9-.3L10.662,12.4H9.08c-.6,0-1.08-.3-1.08-.681s.484-.681,1.08-.681h2.159a1.337,1.337,0,0,1,.9.3l1.127,1.066,2.407-3.035A1.235,1.235,0,0,1,16.6,9a1.3,1.3,0,0,1,.967.329L20.488,12.4h1.548c.6,0,1.08.3,1.08.681s-.484.681-1.08.681H19.877a1.3,1.3,0,0,1-.925-.33l-2.228-2.34L14.365,14.07a1.222,1.222,0,0,1-.9.375Z" transform="translate(-1.522 -2.88)" fill="#7c669c"/>
  <path id="Path_44438" data-name="Path 44438" d="M20.356,12.257a3.919,3.919,0,0,1-2.775-.994l-.205-.211-.6.756a3.616,3.616,0,0,1-2.689,1.123l-.205.007a3.992,3.992,0,0,1-2.7-.912l-1.2-1.13H9.558c-1.782,0-3.239-.919-3.239-2.042S7.777,6.811,9.558,6.811h2.159a4.707,4.707,0,0,1,1.576.259L14.223,5.9A3.688,3.688,0,0,1,17,4.768a4.939,4.939,0,0,1,1.328.15A40.628,40.628,0,0,0,12.29.153a1.217,1.217,0,0,0-1.145,0C10.767.391,2,6.014,2,10.167c0,3.4,4.362,6.174,9.718,6.174,4.2,0,7.8-1.709,9.145-4.084Z" transform="translate(-2 -0.01)" fill="#7c669c"/>
</svg>
