<svg xmlns="http://www.w3.org/2000/svg" width="19.331" height="24.5" viewBox="0 0 19.331 24.5">
  <g id="catheter" transform="translate(0)">
    <g id="Group_16687" data-name="Group 16687" transform="translate(0 0)">
      <g id="Group_16686" data-name="Group 16686">
        <path id="Path_45725" data-name="Path 45725" d="M121.775,67.012a.749.749,0,1,0,.742.85A.749.749,0,0,0,121.775,67.012Z" transform="translate(-117.819 -63.805)" fill="#6f85a5"/>
        <path id="Path_45726" data-name="Path 45726" d="M72.341,14.953a1,1,0,0,0-1,1v.356A6.184,6.184,0,0,1,58.99,16.8a3.3,3.3,0,0,0,2.257-2.9c0-.055.677-9.894.677-9.949a3.955,3.955,0,1,0-7.911,0c0,.053.673,9.9.676,9.948a3.3,3.3,0,0,0,2.292,2.91,8.189,8.189,0,0,0,16.362-.5v-.356A1,1,0,0,0,72.341,14.953ZM57.968,5.906a1.92,1.92,0,0,1-1.951-1.982A1.951,1.951,0,1,1,57.97,5.906Z" transform="translate(-54.013 0)" fill="#6f85a5"/>
      </g>
    </g>
  </g>
</svg>
