<svg xmlns="http://www.w3.org/2000/svg" width="19.511" height="19.511" viewBox="0 0 19.511 19.511">
  <g id="sodium_1_" data-name="sodium (1)" transform="translate(0)">
    <ellipse id="Ellipse_824" data-name="Ellipse 824" cx="2.436" cy="2.436" rx="2.436" ry="2.436" transform="translate(0.421 14.218)" fill="#7c669c"/>
    <ellipse id="Ellipse_825" data-name="Ellipse 825" cx="2.436" cy="2.436" rx="2.436" ry="2.436" transform="matrix(0.987, -0.16, 0.16, 0.987, 13.858, 0.845)" fill="#7c669c"/>
    <ellipse id="Ellipse_826" data-name="Ellipse 826" cx="1.15" cy="1.15" rx="1.15" ry="1.15" transform="translate(11.127 9.704) rotate(-22.514)" fill="#7c669c"/>
    <path id="Path_45743" data-name="Path 45743" d="M18.678,5.807A3.577,3.577,0,0,1,13.7.833,9.759,9.759,0,0,0,.833,13.7a3.577,3.577,0,0,1,4.974,4.974A9.759,9.759,0,0,0,18.678,5.807Zm-9.5,6.816H8.069L5.735,9.035v3.588H4.592V6.888H5.7l2.334,3.588V6.888H9.179Zm5.74,0H13.776v-.311a2.294,2.294,0,1,1,0-3.966v-.31h1.143Z" transform="translate(0 0)" fill="#7c669c"/>
  </g>
</svg>
