<svg xmlns="http://www.w3.org/2000/svg" width="10.446" height="21.613" viewBox="0 0 10.446 21.613">
  <path id="temprature" d="M58.222,341.78A5.334,5.334,0,0,1,53,336.34a5.529,5.529,0,0,1,1.741-4.055v-8.637a3.481,3.481,0,0,1,6.963,0v8.637a5.529,5.529,0,0,1,1.741,4.055A5.334,5.334,0,0,1,58.222,341.78Zm2.32-8.143-.58-.54v-9.448a1.741,1.741,0,1,0-3.481,0V333.1l-.58.54a3.68,3.68,0,0,0-1.161,2.7,3.481,3.481,0,0,0,6.963,0,3.679,3.679,0,0,0-1.161-2.7Zm-2.32,5.423a2.667,2.667,0,0,1-2.611-2.72,2.715,2.715,0,0,1,1.741-2.564v-6.5h1.741v6.5a2.715,2.715,0,0,1,1.741,2.564A2.667,2.667,0,0,1,58.222,339.06Z" transform="translate(-52.999 -320.167)" fill="#7fcccd" fill-rule="evenodd"/>
</svg>
