<svg id="exercise-ball" xmlns="http://www.w3.org/2000/svg" width="19.392" height="22" viewBox="0 0 19.392 22">
  <path id="Path_45827" data-name="Path 45827" d="M269.719,95.368l-.989-.031a2.473,2.473,0,0,1-1.97.114,1.268,1.268,0,0,0-.521.54L264.6,98.769c-.852.631-3.2,2.37-3.27,2.423a1.871,1.871,0,0,1,1.186.184,1.543,1.543,0,0,1,1.027-1.667l3.664-1.261.75-1.012-.644,1.7-3.473,1.158a.92.92,0,1,0,.582,1.746l3.887-1.3a.92.92,0,0,0,.57-.547l.808-2.136-.181,2.265a.934.934,0,0,1-.626.809c-1.039.357-2.986,1.017-2.986,1.017v.933l-1.471,3.795a1.076,1.076,0,0,0-.03.69l1.418,4.872a1.076,1.076,0,0,0,2.067-.6l-1.316-4.522,1.426-3.68h.616s0,6.125,0,8.5a1.058,1.058,0,0,0,1.055,1.076,1.076,1.076,0,0,0,1.076-1.076c0-2.334,0-12.913,0-15.472C270.763,95.973,270.416,95.39,269.719,95.368Z" transform="translate(-251.35 -91.219)" fill="#e7ae5f"/>
  <path id="Path_45828" data-name="Path 45828" d="M363.745,3.654a1.905,1.905,0,1,0-.992-2.5A1.9,1.9,0,0,0,363.745,3.654Z" transform="translate(-348.238 0)" fill="#e7ae5f"/>
  <path id="Path_45829" data-name="Path 45829" d="M33.483,371.473a2.8,2.8,0,0,1-2.035-.876,3.369,3.369,0,1,0,5,.876Z" transform="translate(-30.193 -354.589)" fill="#e7ae5f"/>
  <path id="Path_45830" data-name="Path 45830" d="M97.371,97.85a1.91,1.91,0,1,0-.708.083A1.91,1.91,0,0,0,97.371,97.85Z" transform="translate(-92.095 -90.054)" fill="#e7ae5f"/>
  <path id="Path_45831" data-name="Path 45831" d="M59.311,196.684v-1.592l-1.354-1.67,1.924,1.433a.86.86,0,0,0,.564.169l3.512-.208a.86.86,0,0,0-.1-1.716l-3.2.189-1.634-1.217.288.117v-.21a1.2,1.2,0,0,0-1.2-1.2h-1.38a2.187,2.187,0,0,0-2.187,2.187v3.647a2.225,2.225,0,0,0,2.238,2.223H60.2l1.117,4.9a1.032,1.032,0,1,0,2.013-.451l-1.3-5.788a1.032,1.032,0,0,0-1.007-.806Z" transform="translate(-53.49 -182.536)" fill="#e7ae5f"/>
</svg>
