<svg xmlns="http://www.w3.org/2000/svg" width="18.562" height="18.388" viewBox="0 0 18.562 18.388">
  <g id="time_2_" data-name="time (2)" transform="translate(0 -0.3)">
    <path id="Path_45616" data-name="Path 45616" d="M35.11,43.812v1.441a.142.142,0,0,0,.284,0V43.812a.142.142,0,1,0-.284,0Z" transform="translate(-24.927 -30.792)" fill="#1d4999"/>
    <path id="Path_45617" data-name="Path 45617" d="M50.57,28.352a.142.142,0,0,0,.142.142h1.441a.142.142,0,1,0,0-.284H50.712A.142.142,0,0,0,50.57,28.352Z" transform="translate(-35.903 -19.815)" fill="#1d4999"/>
    <path id="Path_45618" data-name="Path 45618" d="M15.806.3A8.265,8.265,0,0,0,7.72,6.985H9.475a6.522,6.522,0,1,1,1.137,5.5,3.553,3.553,0,0,1-.539.444l.075.165a5.212,5.212,0,0,1,1.845,2.752A8.239,8.239,0,1,0,15.806.3Z" transform="translate(-5.481)" fill="#1d4999"/>
    <path id="Path_45619" data-name="Path 45619" d="M35.394,9.366V7.922a.142.142,0,0,0-.284,0V9.364a.142.142,0,0,0,.142.142A.138.138,0,0,0,35.394,9.366Z" transform="translate(-24.927 -5.311)" fill="#1d4999"/>
    <path id="Path_45620" data-name="Path 45620" d="M42.118,10.294a.138.138,0,0,0,.131-.087l.276-.667a.143.143,0,0,0-.078-.186.141.141,0,0,0-.186.078l-.276.667a.143.143,0,0,0,.078.186A.182.182,0,0,0,42.118,10.294Z" transform="translate(-29.801 -6.421)" fill="#1d4999"/>
    <path id="Path_45621" data-name="Path 45621" d="M47.94,14.563a.15.15,0,0,0,.1-.041l.51-.51a.144.144,0,0,0-.2-.2l-.51.51a.145.145,0,0,0,0,.2A.156.156,0,0,0,47.94,14.563Z" transform="translate(-33.935 -9.562)" fill="#1d4999"/>
    <path id="Path_45622" data-name="Path 45622" d="M51.836,20.956a.126.126,0,0,0,.055-.012l.667-.276a.142.142,0,0,0-.107-.264l-.667.276a.143.143,0,0,0-.078.186A.139.139,0,0,0,51.836,20.956Z" transform="translate(-36.702 -14.267)" fill="#1d4999"/>
    <path id="Path_45623" data-name="Path 45623" d="M51.891,35.094a.141.141,0,0,0-.186.078.143.143,0,0,0,.078.186l.667.276a.126.126,0,0,0,.055.012.138.138,0,0,0,.131-.087.143.143,0,0,0-.078-.186Z" transform="translate(-36.702 -24.695)" fill="#1d4999"/>
    <path id="Path_45624" data-name="Path 45624" d="M47.839,41.142l.51.51a.138.138,0,0,0,.1.041.15.15,0,0,0,.1-.041.145.145,0,0,0,0-.2l-.51-.51a.144.144,0,1,0-.2.2Z" transform="translate(-33.935 -28.823)" fill="#1d4999"/>
    <path id="Path_45625" data-name="Path 45625" d="M42.063,44.8a.143.143,0,0,0-.078.186l.276.667a.141.141,0,0,0,.131.087.126.126,0,0,0,.055-.012.143.143,0,0,0,.078-.186l-.276-.667A.142.142,0,0,0,42.063,44.8Z" transform="translate(-29.801 -31.589)" fill="#1d4999"/>
    <path id="Path_45626" data-name="Path 45626" d="M27.382,45.743a.126.126,0,0,0,.055.012.138.138,0,0,0,.131-.087L27.843,45a.142.142,0,1,0-.264-.107l-.276.667A.141.141,0,0,0,27.382,45.743Z" transform="translate(-19.378 -31.597)" fill="#1d4999"/>
    <path id="Path_45627" data-name="Path 45627" d="M21.219,40.944l-.51.51a.145.145,0,0,0,0,.2.138.138,0,0,0,.1.041.15.15,0,0,0,.1-.041l.51-.51a.145.145,0,0,0,0-.2A.14.14,0,0,0,21.219,40.944Z" transform="translate(-14.673 -28.825)" fill="#1d4999"/>
    <path id="Path_45628" data-name="Path 45628" d="M16.99,20.951a.126.126,0,0,0,.055.012.138.138,0,0,0,.131-.087.143.143,0,0,0-.078-.186l-.667-.276a.141.141,0,0,0-.186.078.143.143,0,0,0,.078.186Z" transform="translate(-11.526 -14.273)" fill="#1d4999"/>
    <path id="Path_45629" data-name="Path 45629" d="M21.311,14.563a.15.15,0,0,0,.1-.041.145.145,0,0,0,0-.2l-.51-.51a.144.144,0,0,0-.2.2l.51.51A.156.156,0,0,0,21.311,14.563Z" transform="translate(-14.666 -9.562)" fill="#1d4999"/>
    <path id="Path_45630" data-name="Path 45630" d="M27.581,10.191a.141.141,0,0,0,.131.087.126.126,0,0,0,.055-.012.143.143,0,0,0,.078-.186l-.276-.667a.142.142,0,0,0-.264.107Z" transform="translate(-19.379 -6.407)" fill="#1d4999"/>
    <path id="Path_45631" data-name="Path 45631" d="M33.284,17.084v2.407A.8.8,0,0,0,33.64,21a.79.79,0,0,0,.249-.044L36.428,23.5a.357.357,0,1,0,.5-.5l-2.538-2.538a.784.784,0,0,0-.4-.963V17.087a.36.36,0,0,0-.357-.357.354.354,0,0,0-.357.354Z" transform="translate(-23.316 -11.665)" fill="#1d4999"/>
    <path id="Path_45632" data-name="Path 45632" d="M6.6,34.72h-.09A5.308,5.308,0,0,0,4.2,30.2a.176.176,0,0,1-.09-.157.171.171,0,0,1,.09-.154,5.312,5.312,0,0,0,2.3-4.519H6.6A.375.375,0,0,0,6.969,25v-.284A.375.375,0,0,0,6.6,24.34H.374A.371.371,0,0,0,0,24.714V25a.375.375,0,0,0,.374.374H.461a5.3,5.3,0,0,0,2.306,4.519.181.181,0,0,1,0,.313A5.305,5.305,0,0,0,.461,34.723H.374A.371.371,0,0,0,0,35.1v.284a.375.375,0,0,0,.374.374H6.6a.375.375,0,0,0,.374-.374V35.1A.376.376,0,0,0,6.6,34.72Zm-5.676,0A4.9,4.9,0,0,1,2.981,30.6a.635.635,0,0,0,0-1.119A4.908,4.908,0,0,1,.922,25.369H6.053a4.912,4.912,0,0,1-2.059,4.115.636.636,0,0,0,0,1.119A4.908,4.908,0,0,1,6.053,34.72Z" transform="translate(0 -17.068)" fill="#1d4999"/>
    <path id="Path_45633" data-name="Path 45633" d="M9.2,32.129a.165.165,0,0,0,0-.038,3.22,3.22,0,0,0-1.705.458,3.579,3.579,0,0,1-2.2-.27,2.457,2.457,0,0,0,1.955,2.387A2.479,2.479,0,0,0,9.2,32.129Z" transform="translate(-3.756 -22.565)" fill="#1d4999"/>
    <path id="Path_45634" data-name="Path 45634" d="M4.56,54.154H8.884a2.293,2.293,0,0,0-2.164-1.8A2.29,2.29,0,0,0,4.56,54.154Z" transform="translate(-3.237 -36.954)" fill="#1d4999"/>
  </g>
</svg>
