<svg xmlns="http://www.w3.org/2000/svg" width="13.384" height="22.307" viewBox="0 0 13.384 22.307">
  <g id="_2748063-200" data-name="2748063-200" transform="translate(-40 200)">
    <path id="Path_45835" data-name="Path 45835" d="M42.9-196.431v3.569h-.558c-.424,0-.558.045-.558.167s.134.167.558.167H42.9v1.785c0,1.517-.022,1.785-.167,1.785s-.167.2-.167,1.115v1.115H40v1.9h5.019v-1.9H43.681v-1.115c0-.669-.045-1.115-.112-1.115a6.163,6.163,0,0,1-.112-1.785c0-1.706.011-1.785.223-1.785.123,0,.223-.078.223-.167s-.1-.167-.223-.167c-.212,0-.223-.078-.223-1.539v-1.528l1.149-1.149,1.138-1.138h1.595c2.13,0,2.03-.112,2.03,2.22v1.773l-.4.234c-.39.234-.4.268-.335.691a4.7,4.7,0,0,0,1.807,2.654c.77.5.892.457.5-.245a5.2,5.2,0,0,1-.625-2.454l-.078-.859H49.48v-1.818c0-1.684.011-1.818.223-1.952.234-.145.3-.524.112-.636a.39.39,0,0,1-.112-.29c0-.19.078-.212.836-.212s.837-.022.837-.223c0-.223-.078-.223-3.959-.223s-3.959,0-3.959-.223c0-.167-.078-.223-.279-.223H42.9Zm2.9-2.643c0,.011-.524.546-1.171,1.193l-1.171,1.171v-2.4h1.171A9.318,9.318,0,0,1,45.8-199.074Zm3.346.167c0,.413-.223.468-1.718.468h-1.45l.323-.335c.323-.335.323-.335,1.584-.335C49.023-199.108,49.146-199.085,49.146-198.907Zm.446,5.331a.162.162,0,0,1-.167.156c-.167,0-.234-.234-.1-.368C49.436-193.888,49.592-193.765,49.592-193.576ZM41.048-186.1a.363.363,0,0,1,.178.335c0,.212-.056.268-.279.268-.335,0-.48-.268-.279-.5C40.825-186.192,40.814-186.192,41.048-186.1Zm1.338.2c.1.145.078.223-.078.346-.279.2-.524.089-.524-.223C41.785-186.192,42.164-186.27,42.387-185.9Z" fill="#7fcccd"/>
    <path id="Path_45836" data-name="Path 45836" d="M134.131-144.056a4.194,4.194,0,0,0,.68,2.264l.279.312.279-.335a2,2,0,0,0,.435-1.573,2.157,2.157,0,0,0-1.126-1.338C134.064-144.982,134.053-144.96,134.131-144.056Z" transform="translate(-83.602 -48.984)" fill="#7fcccd"/>
    <path id="Path_45837" data-name="Path 45837" d="M116.522-132.576a2.134,2.134,0,0,0,.357,1.416,2.038,2.038,0,0,0,1.383.7h.424l-.58-.48a6,6,0,0,1-1.394-1.706C116.6-132.833,116.589-132.822,116.522-132.576Z" transform="translate(-67.967 -59.728)" fill="#7fcccd"/>
    <path id="Path_45838" data-name="Path 45838" d="M98.781-110.676c-.792.346-1.316,1.361-1.628,3.156a7.372,7.372,0,0,0,.212,3.346c.368.714.714.814,2.688.814a9.032,9.032,0,0,1,1.684.078c0,.056-.2.915-.446,1.918s-.446,1.918-.446,2.041a1.257,1.257,0,0,0,.948.87,1.125,1.125,0,0,0,1.048-.692c.268-.836,1.238-4.963,1.238-5.3a.749.749,0,0,0-.346-.636c-.335-.29-.346-.29-2.353-.29-1.706,0-2-.022-1.885-.156s.067-.245-.145-.569a5.236,5.236,0,0,1-.814-2.532c-.078-1.1.089-1.428.747-1.428.58,0,.892.379.9,1.1a2.851,2.851,0,0,0,.089.736c.078.178.123.1.223-.368a2.169,2.169,0,0,0-.033-1.528A1.208,1.208,0,0,0,98.781-110.676Z" transform="translate(-50.695 -79.241)" fill="#7fcccd"/>
    <path id="Path_45839" data-name="Path 45839" d="M111.312-102.856c-.257.257-.268.435-.1,1.45a6.189,6.189,0,0,0,.915,2.309l.245.368h2.342l-.58-.335a3.563,3.563,0,0,1-1.673-2.922C112.36-102.99,111.836-103.38,111.312-102.856Z" transform="translate(-63.17 -86.102)" fill="#7fcccd"/>
    <path id="Path_45840" data-name="Path 45840" d="M40-58.654v3.346h5.019V-62H40Z" transform="translate(0 -122.608)" fill="#7fcccd"/>
    <path id="Path_45841" data-name="Path 45841" d="M89-38.825v2.175h4.238V-41H89Z" transform="translate(-43.535 -141.266)" fill="#7fcccd"/>
  </g>
</svg>
