<svg xmlns="http://www.w3.org/2000/svg" width="13.177" height="15.264" viewBox="0 0 13.177 15.264">
  <g id="urine-test_1_" data-name="urine-test (1)" transform="translate(-7.829 -4)">
    <path id="Path_45715" data-name="Path 45715" d="M17.528,27.036c0-.263-.472-.557-1.1-.557H14.93L15.1,28.06h2.429Z" transform="translate(-5.165 -16.352)" fill="#7fcccd"/>
    <path id="Path_45716" data-name="Path 45716" d="M18.139,35.383V34.356H15.77l.169,1.584h1.1C17.667,35.94,18.139,35.646,18.139,35.383Z" transform="translate(-5.776 -22.082)" fill="#7fcccd"/>
    <path id="Path_45717" data-name="Path 45717" d="M20.12,26.65c.033-1.519,1.671-3.669,2.191-4.317a.8.8,0,0,1,.984-.215l.5-4.71H13.96l.2,1.907h1.554c.924,0,1.649.492,1.649,1.123v2.617c0,.631-.725,1.123-1.649,1.123H14.682l.177,1.666a1.488,1.488,0,0,0,1.447,1.372h3.871a2.438,2.438,0,0,1-.057-.566Z" transform="translate(-4.46 -9.754)" fill="#7fcccd"/>
    <path id="Path_45718" data-name="Path 45718" d="M19.915,4h-11a1.111,1.111,0,0,0-1.09,1.132v.826A1.111,1.111,0,0,0,8.92,7.089h11a1.111,1.111,0,0,0,1.09-1.132V5.132A1.111,1.111,0,0,0,19.915,4Z" transform="translate(0)" fill="#7fcccd"/>
    <path id="Path_45719" data-name="Path 45719" d="M41.119,36.62c-.164-.226-.4-.245-.548-.008-.368.464-1.976,2.571-2.012,3.884a2.275,2.275,0,1,0,4.547.158C43.211,39.033,41.533,37.086,41.119,36.62Zm.136,1.986a2.012,2.012,0,0,1,.711,1.485.271.271,0,0,1-.262.207.278.278,0,0,1-.273-.263,1.611,1.611,0,0,0-.48-.965C40.716,38.861,40.984,38.448,41.256,38.606Z" transform="translate(-22.354 -23.599)" fill="#7fcccd"/>
  </g>
</svg>
