<svg xmlns="http://www.w3.org/2000/svg" width="16.503" height="18.771" viewBox="0 0 16.503 18.771">
  <path id="ventilation" d="M43.352,10.95v1.408a.627.627,0,0,1-.626.626h-.391a.627.627,0,0,1-.626-.626V10.95a.627.627,0,0,1,.626-.626h.391A.627.627,0,0,1,43.352,10.95ZM45.5,9.464v4.224a1.564,1.564,0,0,1-1.564,1.564h-.156a.313.313,0,0,1-.313-.313V13.51a.307.307,0,0,1,.1-.228,1.249,1.249,0,0,0,.409-.924V10.95A1.252,1.252,0,0,0,42.727,9.7h-.391a1.252,1.252,0,0,0-1.251,1.251v1.408a1.252,1.252,0,0,0,1.252,1.251h.2a.313.313,0,0,1,.312.313v1.291a3.563,3.563,0,0,1-3.559,3.559H34.123a3.563,3.563,0,0,1-3.559-3.559V12.827h-.078A1.486,1.486,0,0,1,29,11.341V9.947a1.877,1.877,0,1,1,3.754.031v1.363a1.479,1.479,0,0,1-.4,1.01.313.313,0,0,1-.542-.214v-1.07a.313.313,0,0,0-.334-.312.32.32,0,0,0-.292.323v4.1a2.967,2.967,0,0,0,2.97,2.971,2.936,2.936,0,0,0,2.9-2.894H35.961A1.564,1.564,0,0,1,34.4,13.688V9.464A1.564,1.564,0,0,1,35.961,7.9h3.676V6.648h-2.8A1.566,1.566,0,0,1,35.27,5.084V1.564A1.566,1.566,0,0,1,36.834,0h6.231A1.566,1.566,0,0,1,44.63,1.564v3.52a1.566,1.566,0,0,1-1.564,1.564h-2.8V7.9h3.676A1.564,1.564,0,0,1,45.5,9.464Zm-3.9-6.14a.313.313,0,0,0,.313.313h.81a.313.313,0,0,0,0-.626h-.81A.313.313,0,0,0,41.6,3.324Zm-1.749,1.24L41.4,2.453a.313.313,0,0,0-.505-.369L39.6,3.85l-.519-.71a.313.313,0,0,0-.253-.128H37.173a.313.313,0,1,0,0,.626h1.5l.678.928a.313.313,0,0,0,.505,0ZM38.62,15.252a.313.313,0,0,1-.312-.312V13.383a.306.306,0,0,1,.126-.25,1.094,1.094,0,0,0,.461-.892V11.067a1.1,1.1,0,0,0-1.095-1.1h-.86a1.1,1.1,0,0,0-1.1,1.1v1.173a1.1,1.1,0,0,0,1.1,1.1.117.117,0,0,0,.117-.117c0-.426.01-.429-.034-.474a.117.117,0,0,0-.083-.034.469.469,0,0,1-.469-.469V11.067a.469.469,0,0,1,.469-.469h.86a.469.469,0,0,1,.469.469v.595a.312.312,0,0,1-.3.306.308.308,0,0,0-.291.311v2.933a3.557,3.557,0,0,1-1.546,2.933h3.149a2.936,2.936,0,0,0,2.933-2.894Z" transform="translate(-29)" fill="#e7ae5f"/>
</svg>
