<svg xmlns="http://www.w3.org/2000/svg" width="20" height="19.817" viewBox="0 0 20 19.817">
  <g id="Appointment" transform="translate(-56 -57.832)">
    <path id="Path_50008" data-name="Path 50008" d="M73.432,60.621A1.317,1.317,0,0,0,72.115,59.3H70.277v-.872a.6.6,0,0,0-1.2,0V59.3H60.355v-.872a.6.6,0,1,0-1.2,0V59.3H57.317A1.317,1.317,0,0,0,56,60.621v.733H73.432Z" fill="#1d4999"/>
    <path id="Path_50009" data-name="Path 50009" d="M247.551,240.373a5.345,5.345,0,1,0,5.345,5.345,5.345,5.345,0,0,0-5.345-5.345Zm3.177,6.12a.346.346,0,0,1-.346.346h-1.71v1.71a.346.346,0,0,1-.346.346h-1.551a.346.346,0,0,1-.346-.346v-1.71h-1.71a.346.346,0,0,1-.346-.346v-1.551a.346.346,0,0,1,.346-.346h1.71v-1.71a.346.346,0,0,1,.346-.346h1.551a.346.346,0,0,1,.346.346v1.71h1.71a.346.346,0,0,1,.346.346Z" transform="translate(-176.896 -173.414)" fill="#1d4999"/>
    <path id="Path_50010" data-name="Path 50010" d="M61.8,162.546v-1.9h2.468a6.527,6.527,0,0,1,1.328-2.76v-.657h.627a6.524,6.524,0,0,1,3.17-1.622v-1.795h2.278v1.755a6.485,6.485,0,0,1,1.767.541v-3.832H56v10.685a1.317,1.317,0,0,0,1.317,1.317h7.2a6.571,6.571,0,0,1-.384-1.736Zm3.8-8.732h2.278v1.9H65.592Zm-3.8,0h2.278v1.9H61.8Zm0,3.417h2.278v1.9H61.8Zm-1.519,5.315H58v-1.9h2.278Zm0-3.417H58v-1.9h2.278Z" transform="translate(0 -89.725)" fill="#1d4999"/>
  </g>
</svg>
