<svg xmlns="http://www.w3.org/2000/svg" width="15.764" height="15.764" viewBox="0 0 15.764 15.764">
  <g id="Group_18826" data-name="Group 18826" transform="translate(-0.002)">
    <g id="Group_18825" data-name="Group 18825" transform="translate(0.002)">
      <g id="Group_18824" data-name="Group 18824" transform="translate(0)">
        <path id="Path_50036" data-name="Path 50036" d="M15.761,133.893a.65.65,0,0,0-.037-.208l-1.97-5.255a.657.657,0,0,0-.615-.426h-1.97a.657.657,0,0,0,0,1.314h1.515l1.478,3.941H11.168a.657.657,0,0,0-.657.657v1.314H5.257v-1.314a.657.657,0,0,0-.657-.657H1.607l1.478-3.941H4.6A.657.657,0,0,0,4.6,128H2.629a.658.658,0,0,0-.615.426l-1.97,5.255a.649.649,0,0,0-.037.208c0,.008,0,.014,0,.022v5.255a.657.657,0,0,0,.657.657h14.45a.657.657,0,0,0,.657-.657v-5.255C15.766,133.907,15.761,133.9,15.761,133.893Z" transform="translate(-0.002 -124.063)" fill="#1d4999"/>
        <path id="Path_50037" data-name="Path 50037" d="M170.852,7.033,172.822,9a.651.651,0,0,0,.214.143.647.647,0,0,0,.5,0A.65.65,0,0,0,173.752,9l1.97-1.97a.657.657,0,0,0-.929-.929l-.849.849V.657a.657.657,0,0,0-1.314,0v6.3l-.849-.849a.657.657,0,0,0-.929.929Z" transform="translate(-165.405)" fill="#1d4999"/>
      </g>
    </g>
  </g>
</svg>
