<svg xmlns="http://www.w3.org/2000/svg" width="19" height="19.05" viewBox="0 0 19 19.05">
  <g id="Group_18651" data-name="Group 18651" transform="translate(-2 -2)">
    <path id="Path_50013" data-name="Path 50013" d="M12.641,6H6.555a5.768,5.768,0,0,0-.713.038C3.284,6.257,2,7.769,2,10.555v3.8c0,3.8,1.522,4.555,4.555,4.555h.38a.878.878,0,0,1,.609.3L8.685,20.74a1.076,1.076,0,0,0,1.826,0l1.141-1.522a.766.766,0,0,1,.609-.3h.38c2.786,0,4.3-1.274,4.517-3.842a5.767,5.767,0,0,0,.038-.713v-3.8Q17.2,6,12.641,6ZM6.279,13.608a.951.951,0,1,1,.951-.951A.948.948,0,0,1,6.279,13.608Zm3.319,0a.951.951,0,1,1,.951-.951A.948.948,0,0,1,9.6,13.608Zm3.328,0a.951.951,0,1,1,.951-.951A.948.948,0,0,1,12.926,13.608Z" transform="translate(0 -0.196)" fill="#929292"/>
    <path id="Path_50014" data-name="Path 50014" d="M21.227,6.555v3.8c0,1.9-.59,3.2-1.769,3.908a.416.416,0,0,1-.618-.39l.01-3.518c0-3.8-2.178-5.981-5.981-5.981l-5.791.01a.416.416,0,0,1-.39-.618C7.4,2.59,8.694,2,10.586,2h6.086q4.55,0,4.555,4.555Z" transform="translate(-0.227 0)" fill="#929292"/>
  </g>
</svg>
