<svg xmlns="http://www.w3.org/2000/svg" width="20" height="21.06" viewBox="0 0 20 21.06">
  <path id="Path_50003" data-name="Path 50003" d="M36.728,28.885a.676.676,0,0,1-.675.675h-10.2a.675.675,0,1,1,0-1.349h10.2A.676.676,0,0,1,36.728,28.885Zm-8.278-2.767-.715,1.454H34.17l-.715-1.454ZM38.07,9.957H23.752V9.324a.827.827,0,0,1,.824-.824H37.245a.827.827,0,0,1,.824.824Zm-12.1-.728a.319.319,0,0,0-.319-.319H25.2a.319.319,0,0,0,0,.638h.45A.319.319,0,0,0,25.972,9.228Zm1.513,0a.319.319,0,0,0-.319-.319h-.45a.319.319,0,0,0,0,.638h.45A.319.319,0,0,0,27.485,9.228Zm1.513,0a.319.319,0,0,0-.319-.319h-.45a.319.319,0,1,0,0,.638h.45A.319.319,0,0,0,29,9.228Zm7.849,0a.319.319,0,0,0-.319-.319H31.439a.319.319,0,0,0,0,.638h5.089A.319.319,0,0,0,36.847,9.228ZM23.752,22.076V10.595H38.07V22.076a.827.827,0,0,1-.824.824H24.576A.827.827,0,0,1,23.752,22.076Zm6.509-2.291a.085.085,0,0,0-.085-.085H25.568a.085.085,0,0,0-.085.085v1.342a.085.085,0,0,0,.085.085h4.608a.085.085,0,0,0,.085-.085Zm1.139-6.4a.319.319,0,0,0,.319.319h4.65a.319.319,0,0,0,0-.638h-4.65A.319.319,0,0,0,31.4,13.382Zm0,1.83a.319.319,0,0,0,.319.319h4.65a.319.319,0,0,0,0-.638h-4.65A.319.319,0,0,0,31.4,15.212Zm0,1.83a.319.319,0,0,0,.319.319h4.65a.319.319,0,0,0,0-.638h-4.65A.319.319,0,0,0,31.4,17.041Zm0,1.83a.319.319,0,0,0,.319.319h4.65a.319.319,0,1,0,0-.638h-4.65A.319.319,0,0,0,31.4,18.871Zm0,1.83a.319.319,0,0,0,.319.319h4.65a.319.319,0,0,0,0-.638h-4.65A.319.319,0,0,0,31.4,20.7Zm-4.984-6.979a1.456,1.456,0,1,0,1.456-1.438,1.447,1.447,0,0,0-1.456,1.438Zm-.962,4.316a.125.125,0,0,0,.125.125h4.587a.125.125,0,0,0,.125-.125V17a2.061,2.061,0,0,0-.994-1.759,2.107,2.107,0,0,1-2.848,0A2.061,2.061,0,0,0,25.454,17Zm14.57-6.946H38.708v1.225h1.02v11.94H22.177V12.316h.937V11.091H21.881a.932.932,0,0,0-.929.929V24.551a.932.932,0,0,0,.929.929H40.023a.932.932,0,0,0,.929-.929V12.02A.932.932,0,0,0,40.023,11.091Z" transform="translate(-20.952 -8.5)" fill="#929292"/>
</svg>
