<svg id="research" xmlns="http://www.w3.org/2000/svg" width="19" height="19.084" viewBox="0 0 19 19.084">
  <path id="Path_44499" data-name="Path 44499" d="M315.638,8.787V11.8h3.014Z" transform="translate(-303.967 -8.461)" fill="#929292"/>
  <path id="Path_44500" data-name="Path 44500" d="M151.133,120h1.952v1.192h-1.952Z" transform="translate(-145.566 -115.549)" fill="#929292"/>
  <path id="Path_44501" data-name="Path 44501" d="M2.241,74.079V60H1.684a.557.557,0,0,0-.557.557V76.305a.557.557,0,0,0,.557.557H13.355a.557.557,0,0,0,.557-.557v-.557h-10a1.672,1.672,0,0,1-1.67-1.67Z" transform="translate(-1.127 -57.778)" fill="#929292"/>
  <ellipse id="Ellipse_649" data-name="Ellipse 649" cx="2.227" cy="2.227" rx="2.227" ry="2.227" transform="translate(12.785 8.758)" fill="#929292"/>
  <path id="Path_44502" data-name="Path 44502" d="M70.577,10.985a3.344,3.344,0,0,1,3.34-3.34V4.453h-3.9a.557.557,0,0,1-.557-.557V0H61.69a.557.557,0,0,0-.557.557V16.3a.557.557,0,0,0,.557.557H73.361a.557.557,0,0,0,.557-.557V14.324a3.344,3.344,0,0,1-3.34-3.34ZM63.36,3.9a.557.557,0,0,1,.557-.557h3.065a.557.557,0,0,1,.557.557V6.2a.557.557,0,0,1-.557.557H63.916A.557.557,0,0,1,63.36,6.2Zm.557,3.975h4.851a.557.557,0,0,1,0,1.113H63.916a.557.557,0,1,1,0-1.113Zm0,2.227h4.44a.557.557,0,0,1,0,1.113h-4.44a.557.557,0,1,1,0-1.113Zm5.078,3.34H63.916a.557.557,0,1,1,0-1.113h5.078a.557.557,0,0,1,0,1.113Z" transform="translate(-58.906 0)" fill="#929292"/>
  <path id="Path_44503" data-name="Path 44503" d="M459.648,349.225l-1.1-1.1a3.369,3.369,0,0,1-.787.787l1.1,1.1a.557.557,0,0,0,.787-.787Z" transform="translate(-440.811 -335.202)" fill="#929292"/>
</svg>
