<svg xmlns="http://www.w3.org/2000/svg" width="18.556" height="14.735" viewBox="0 0 18.556 14.735">
  <g id="Group_18652" data-name="Group 18652" transform="translate(0 -52.705)">
    <g id="Page-1_49_" transform="translate(0 52.705)">
      <g id="paperwork_filled_49_">
        <path id="signature_x2C_-name_x2C_-person_x2C_-distinctive_x2C_-identification_x2C_-authorization" d="M552.918,358.477v8.873a1.092,1.092,0,0,1-1.092,1.091H537.091A1.091,1.091,0,0,1,536,367.349V356.98a1.091,1.091,0,0,1,1.091-1.092h12.147l-2.31,2.31a1.91,1.91,0,0,0-.559,1.351v.706a1.637,1.637,0,0,0,1.637,1.637h.706a1.91,1.91,0,0,0,1.351-.559ZM539.547,366.8c0-.888.03-1.727.09-2.5a7.588,7.588,0,0,0,2.962-2.1c1.094-1.356,1.054-2.823-.351-3.525s-2.481.144-3.082,1.991a14.3,14.3,0,0,0-.553,2.859,8.916,8.916,0,0,1-1.082.288.546.546,0,1,0,.214,1.07q.392-.078.772-.187c-.04.666-.06,1.371-.06,2.107a.546.546,0,1,0,1.091,0Zm3.14-1.824,1.109-1.267.05.4a.819.819,0,0,0,1.407.461l.508-.536.324.461a.819.819,0,0,0,.894.317l2-.568a.546.546,0,0,0-.3-1.05l-1.81.515-.4-.576a.818.818,0,0,0-1.264-.093l-.34.359-.054-.433a.819.819,0,0,0-1.428-.438l-1.509,1.725a.546.546,0,0,0,.821.719Zm9.253-10.251.865-.865a.546.546,0,0,1,.772,0l.819.819a.546.546,0,0,1,0,.772l-.865.865Zm-10.191,6.786a6.1,6.1,0,0,1-1.98,1.526A11.854,11.854,0,0,1,540.2,361c.423-1.3.9-1.679,1.557-1.352C542.438,359.991,542.455,360.64,541.749,361.516Zm7.542-.956a.819.819,0,0,1-.579.24h-.706a.546.546,0,0,1-.546-.546v-.706a.819.819,0,0,1,.24-.579l3.467-3.467,1.59,1.59Z" transform="translate(-536 -353.705)" fill="#929292"/>
      </g>
    </g>
  </g>
</svg>
