<svg xmlns="http://www.w3.org/2000/svg" width="239.059" height="46.146" viewBox="0 0 239.059 46.146">
  <g id="Group_18669" data-name="Group 18669" transform="translate(17158.027 -9457)">
    <g id="Group_18668" data-name="Group 18668" transform="translate(-17158.027 9457)">
      <path id="Path_50060" data-name="Path 50060" d="M102.431,141.91h23.861v3.168a4.833,4.833,0,0,1-4.833,4.833H97.6v-3.17A4.833,4.833,0,0,1,102.431,141.91Z" transform="translate(-78.478 -114.104)" fill="#bbbdc0"/>
      <path id="Path_50061" data-name="Path 50061" d="M0,0H23.853a4.833,4.833,0,0,1,4.833,4.833V8H4.833A4.833,4.833,0,0,1,0,3.168Z" transform="translate(37.462 17.46) rotate(90)" fill="#bbbdc0"/>
      <path id="Path_50062" data-name="Path 50062" d="M166.274,538.759a46.36,46.36,0,0,1-8-5.638,33.929,33.929,0,0,1-3.469-3.548,29.5,29.5,0,0,1-2.915-4.09l-.605-1.111-.543-1.132a25.578,25.578,0,0,1-.93-2.41,23.976,23.976,0,0,1-1.064-5.035A20.1,20.1,0,0,1,150.39,505.5l.613-1.2.709-1.152.045-.07.084-.116.09-.123.18-.245.359-.49c.308-.36.619-.731.934-1.074a18.645,18.645,0,0,1,4.237-3.319A19.944,19.944,0,0,1,162.6,495.7a20.375,20.375,0,0,1,5.327-.662c.451,0,.9.039,1.352.061l1.279.143c.458.078.934.151,1.371.243s.874.2,1.3.315a22.887,22.887,0,0,1,4.933,1.994,25.622,25.622,0,0,1,8.007,6.81l-3.119-.229a22.815,22.815,0,0,1,3.918-2.956,21.727,21.727,0,0,1,4.451-2.024,20.939,20.939,0,0,1,9.707-.884c.411.041.813.149,1.219.225a11.311,11.311,0,0,1,1.2.306l.588.172.074.023h.037l.11.039.129.049.261.1.519.2.259.112.3.135c.392.2.8.374,1.175.572l1.07.627a19.974,19.974,0,0,1,1.99,1.454,18.219,18.219,0,0,1,5.568,7.934,16.609,16.609,0,0,1,.946,4.809l-.012,1.234v.341l-.025.276-.057.556a17.007,17.007,0,0,1-.5,2.414,19.057,19.057,0,0,1-1.857,4.373,22.856,22.856,0,0,1-2.727,3.777A32.055,32.055,0,0,1,204.353,534a80.379,80.379,0,0,1-7.893,4.218c2.457-1.679,4.941-3.315,7.248-5.137a32.508,32.508,0,0,0,6.13-6.11,23.659,23.659,0,0,0,2.194-3.616,16.507,16.507,0,0,0,1.334-3.918,15.122,15.122,0,0,0,.264-1.959l.016-.553.01-.278v-.216l-.043-.991a13.5,13.5,0,0,0-.979-3.844,14.79,14.79,0,0,0-2.012-3.444,16.931,16.931,0,0,0-2.837-2.794,15.874,15.874,0,0,0-1.642-1.109l-.868-.466-.838-.372-.212-.094-.264-.082-.529-.176-.263-.092-.131-.045h-.016l.061.022h-.029l-.061-.016-.476-.122a7.57,7.57,0,0,0-.96-.216c-.323-.051-.643-.135-.979-.155a17.551,17.551,0,0,0-7.836.887,18.838,18.838,0,0,0-3.607,1.695,18.613,18.613,0,0,0-3.162,2.412l-1.677,1.595-1.44-1.824a22.279,22.279,0,0,0-6.69-5.716,20.394,20.394,0,0,0-4.041-1.689c-.349-.11-.705-.18-1.056-.274s-.674-.129-1.011-.2l-1.134-.147c-.357-.02-.715-.053-1.074-.067a16.921,16.921,0,0,0-8.371,1.94,14.932,14.932,0,0,0-3.489,2.523l-.7.729-.719.885-.615.885-.541.927a15.616,15.616,0,0,0-1.465,4.138,19.261,19.261,0,0,0-.362,4.476,21.266,21.266,0,0,0,.615,4.523,22.659,22.659,0,0,0,.66,2.182l.431,1.1.482,1.062a28.435,28.435,0,0,0,2.365,4.061,38.1,38.1,0,0,0,2.984,3.722A57.435,57.435,0,0,0,166.274,538.759Z" transform="translate(-148.648 -495.036)" fill="#bbbdc0"/>
    </g>
    <text id="Brand_Logo" data-name="Brand Logo" transform="translate(-17000.969 9490)" fill="#bbbdc0" font-size="29" font-family="Poppins-SemiBold, Poppins" font-weight="600" letter-spacing="-0.014em"><tspan x="-81.04" y="0">Brand Logo</tspan></text>
  </g>
</svg>
