<svg xmlns="http://www.w3.org/2000/svg" width="13.306" height="20.567" viewBox="0 0 13.306 20.567">
  <g id="blood-bag" transform="translate(-90.375)">
    <path id="Path_44944" data-name="Path 44944" d="M186.681,180.625h-6.056v6.056h6.056Zm-1.818,3.63h-.608v.608a.6.6,0,0,1-1.205,0v-.608h-.608a.6.6,0,1,1,0-1.205h.608v-.608a.6.6,0,1,1,1.205,0v.608h.608a.6.6,0,0,1,0,1.205Z" transform="translate(-86.625 -173.369)" fill="#929292"/>
    <path id="Path_44945" data-name="Path 44945" d="M91.215,3.068a3.521,3.521,0,0,1,2.682,0,2.317,2.317,0,0,0,1.79,0,3.52,3.52,0,0,1,2.682,0,2.316,2.316,0,0,0,1.79,0,3.52,3.52,0,0,1,2.682,0,2.009,2.009,0,0,0,.84.179v-.8A2.45,2.45,0,0,0,101.234,0H92.823a2.45,2.45,0,0,0-2.448,2.448v.8A2.01,2.01,0,0,0,91.215,3.068Z" transform="translate(0 0)" fill="#929292"/>
    <path id="Path_44946" data-name="Path 44946" d="M102.4,99.949a2.316,2.316,0,0,0-1.79,0,3.52,3.52,0,0,1-2.682,0,2.316,2.316,0,0,0-1.79,0,3.52,3.52,0,0,1-2.682,0,2.317,2.317,0,0,0-1.79,0,3.2,3.2,0,0,1-1.286.265v10.032a2.45,2.45,0,0,0,2.42,2.447v.206a1.816,1.816,0,0,0,1.21,1.709v1.118a.6.6,0,1,0,1.205,0v-1.118a1.816,1.816,0,0,0,1.21-1.709v-.206h1.215v.206a1.816,1.816,0,0,0,1.21,1.709v1.118a.6.6,0,1,0,1.205,0v-1.118a1.816,1.816,0,0,0,1.21-1.709v-.206a2.45,2.45,0,0,0,2.42-2.447V100.214A3.2,3.2,0,0,1,102.4,99.949Zm-9.6,2.466a.6.6,0,0,1,.6-.6h7.261a.6.6,0,0,1,.6.6v7.261a.6.6,0,0,1-.6.6H93.4a.6.6,0,0,1-.6-.6Z" transform="translate(0 -95.761)" fill="#929292"/>
  </g>
</svg>
