<svg xmlns="http://www.w3.org/2000/svg" width="20.5" height="20.5" viewBox="0 0 20.5 20.5">
  <g id="Layer_2" data-name="Layer 2" transform="translate(-2 -2)">
    <path id="Path_44279" data-name="Path 44279" d="M22.5,7.857v-2.2a2.2,2.2,0,0,0-2.2-2.2H17.375V2.732a.732.732,0,0,0-1.464,0v.732H8.589V2.732a.732.732,0,0,0-1.464,0v.732H4.2A2.2,2.2,0,0,0,2,5.661v2.2Z" fill="#1d4999"/>
    <path id="Path_44280" data-name="Path 44280" d="M2,12V22.982a2.2,2.2,0,0,0,2.2,2.2H20.3a2.2,2.2,0,0,0,2.2-2.2V12Zm14.387,4.216-5.125,4.393a.732.732,0,0,1-.994-.039l-2.2-2.2a.732.732,0,1,1,1.035-1.035l1.718,1.718L15.437,15.1a.732.732,0,1,1,.952,1.112Z" transform="translate(0 -2.679)" fill="#1d4999"/>
  </g>
</svg>
