<svg xmlns="http://www.w3.org/2000/svg" width="15.71" height="16.278" viewBox="0 0 15.71 16.278">
  <g id="search-_1_" transform="translate(0 0)">
    <path id="Path_44221" data-name="Path 44221" d="M15.034-511.932a6.685,6.685,0,0,0-3.245,1.282,8.345,8.345,0,0,0-1.295,1.279,6.472,6.472,0,0,0-1.336,3.751,6.3,6.3,0,0,0,.328,2.3,6.568,6.568,0,0,0,1.591,2.565,6.593,6.593,0,0,0,3.9,1.9,9.379,9.379,0,0,0,1.82-.048,6.755,6.755,0,0,0,2.412-.92l.277-.178,1.954,2.03c1.072,1.114,1.995,2.065,2.049,2.109a.862.862,0,0,0,1.2-.159.78.78,0,0,0,.175-.522c.006-.344-.016-.372-2.081-2.514-1.031-1.069-1.909-1.985-1.947-2.033l-.073-.086.172-.216a6.585,6.585,0,0,0,1.225-5.326,6.751,6.751,0,0,0-1.311-2.778A6.6,6.6,0,0,0,15.034-511.932Zm1.3,1.728a4.861,4.861,0,0,1,4.136,3.824,5.9,5.9,0,0,1,.064,1.6,4.843,4.843,0,0,1-1.387,2.816,4.846,4.846,0,0,1-2.685,1.374,6.414,6.414,0,0,1-1.483,0,4.854,4.854,0,0,1-3.306-2.119,4.316,4.316,0,0,1-.557-1.142,4.353,4.353,0,0,1-.245-1.381,4.852,4.852,0,0,1,4.811-5.014C15.861-510.245,16.154-510.226,16.339-510.2Z" transform="translate(-9.153 511.965)" fill="#6f85a5"/>
  </g>
</svg>
