<svg id="user_1_" data-name="user (1)" xmlns="http://www.w3.org/2000/svg" width="21.614" height="24.147" viewBox="0 0 21.614 24.147">
  <g id="Group_10" data-name="Group 10" transform="translate(4.539)">
    <g id="Group_9" data-name="Group 9" transform="translate(0)">
      <path id="Path_44247" data-name="Path 44247" d="M117.06,0a6.269,6.269,0,1,0,6.269,6.269A6.286,6.286,0,0,0,117.06,0Z" transform="translate(-110.791)" fill="#929292"/>
    </g>
  </g>
  <g id="Group_12" data-name="Group 12" transform="translate(0 12.987)">
    <g id="Group_11" data-name="Group 11" transform="translate(0)">
      <path id="Path_44248" data-name="Path 44248" d="M45.733,252.4a5.845,5.845,0,0,0-.63-1.15,7.793,7.793,0,0,0-5.393-3.395,1.154,1.154,0,0,0-.794.192,6.683,6.683,0,0,1-7.885,0,1.027,1.027,0,0,0-.794-.192,7.736,7.736,0,0,0-5.393,3.395,6.739,6.739,0,0,0-.63,1.15.582.582,0,0,0,.027.52,10.926,10.926,0,0,0,.739,1.1,10.407,10.407,0,0,0,1.259,1.424,16.418,16.418,0,0,0,1.259,1.1,12.484,12.484,0,0,0,14.893,0,12.041,12.041,0,0,0,1.259-1.1,12.645,12.645,0,0,0,1.259-1.424,9.6,9.6,0,0,0,.739-1.1A.467.467,0,0,0,45.733,252.4Z" transform="translate(-24.165 -247.841)" fill="#929292"/>
    </g>
  </g>
</svg>
