<svg id="data-analysis" xmlns="http://www.w3.org/2000/svg" width="19.071" height="19.027" viewBox="0 0 19.071 19.027">
  <path id="Path_45210" data-name="Path 45210" d="M12.842,16.172l3.211,3.211a2.406,2.406,0,0,0,3.33,0,2.3,2.3,0,0,0,0-3.33l-3.211-3.211a8.2,8.2,0,0,0,.951-3.805,2.229,2.229,0,0,0-.059-.654l2.2-2.2a.589.589,0,1,0-.832-.832L16.826,6.956a7.775,7.775,0,0,0-2.081-3.568A8.03,8.03,0,0,0,3.388,14.745,8,8,0,0,0,12.842,16.172Zm5.649.714a1.177,1.177,0,0,1-1.665,1.665l-3.032-3.032a10.336,10.336,0,0,0,.892-.773,10.336,10.336,0,0,0,.773-.892ZM4.221,4.221A6.833,6.833,0,0,1,15.815,7.967L14.626,9.156,12.664,7.194a.575.575,0,0,0-.832,0L8.74,10.286,7.372,8.918a.575.575,0,0,0-.832,0L4.161,11.3a.589.589,0,0,0,.832.832l1.962-1.962c.892.714,1.546,2.022,2.2,1.368l3.092-3.092L14.21,10.4a.575.575,0,0,0,.832,0l.832-.832a6.98,6.98,0,0,1-1.962,4.34A6.853,6.853,0,0,1,4.221,4.221Z" transform="translate(-1.025 -1.025)" fill="#6185c7"/>
</svg>
