<svg xmlns="http://www.w3.org/2000/svg" width="14.261" height="14.261" viewBox="0 0 14.261 14.261">
  <g id="status" transform="translate(-0.5 -0.5)">
    <path id="Path_44551" data-name="Path 44551" d="M13.5,3.068l-2.71,2.71a3.3,3.3,0,0,1,.627,1.537.7.7,0,0,1,.164-.026h3.571a.7.7,0,0,1,.1.015A7.1,7.1,0,0,0,13.5,3.068Z" transform="translate(-0.491 -0.123)" fill="#546788"/>
    <path id="Path_44552" data-name="Path 44552" d="M.5,7.642a7.14,7.14,0,0,0,6.681,7.119.707.707,0,0,1-.015-.1V11.094a.707.707,0,0,1,.026-.164A3.324,3.324,0,1,1,9.629,4.982l2.71-2.71A7.134,7.134,0,0,0,.5,7.642Z" transform="translate(0 0)" fill="#546788"/>
    <path id="Path_44553" data-name="Path 44553" d="M15.046,8.5H11.475a.7.7,0,0,1-.164-.026A3.319,3.319,0,0,1,8.472,11.31a.707.707,0,0,1,.026.165v3.571a.707.707,0,0,1-.015.1,7.135,7.135,0,0,0,6.658-6.658.7.7,0,0,1-.1.015Z" transform="translate(-0.38 -0.38)" fill="#546788"/>
  </g>
</svg>
