<svg xmlns="http://www.w3.org/2000/svg" width="30.5" height="30.5" viewBox="0 0 30.5 30.5">
  <g id="active" transform="translate(-1582.464 -540)">
    <rect id="Rectangle_21976" data-name="Rectangle 21976" width="30.5" height="30.5" transform="translate(1582.464 540)" fill="#c1f5d7" opacity="0.82"/>
    <g id="Image-68" transform="translate(1589.417 546.956)">
      <path id="Path_50070" data-name="Path 50070" d="M42.059-611.6c-.1.005-.337.03-.534.055a8.306,8.306,0,0,0-6.184,4.087,8.347,8.347,0,0,0-1.107,4.449,8.286,8.286,0,0,0,4.114,6.866,8.319,8.319,0,0,0,5.984.929,8.347,8.347,0,0,0,5.024-3.382,8.3,8.3,0,0,0,1.392-5.783c-.058-.425-.1-.532-.252-.7a.646.646,0,0,0-.6-.241.7.7,0,0,0-.351.049.915.915,0,0,0-.46.63,2.48,2.48,0,0,0,.03.461,7.075,7.075,0,0,1-.1,2.3,6.7,6.7,0,0,1-2.322,3.747,6.61,6.61,0,0,1-3.229,1.412,7.224,7.224,0,0,1-1.9,0,6.645,6.645,0,0,1-2.02-.636,6.647,6.647,0,0,1-3.347-3.876,6.8,6.8,0,0,1-.134-3.673,6.655,6.655,0,0,1,5.153-4.915,5.878,5.878,0,0,1,1.343-.123,5.981,5.981,0,0,1,1.954.3,1.312,1.312,0,0,0,.548.1.879.879,0,0,0,.663-.471.9.9,0,0,0,.005-.693.945.945,0,0,0-.348-.37,7.205,7.205,0,0,0-1.782-.452A11.47,11.47,0,0,0,42.059-611.6Z" transform="translate(-34.226 611.602)" fill="#00b24a"/>
      <path id="Path_50071" data-name="Path 50071" d="M221.957-523.87a1.237,1.237,0,0,0-.233.118c-.06.041-1.28,1.414-2.714,3.051l-2.6,2.977-.946-.94a9.69,9.69,0,0,0-1.072-1,.928.928,0,0,0-1.091.2.915.915,0,0,0-.082,1.151c.041.06.666.7,1.387,1.414a14.044,14.044,0,0,0,1.447,1.37.752.752,0,0,0,.4.066.727.727,0,0,0,.419-.077c.173-.085.09.005,2.171-2.376.493-.565.968-1.107,1.055-1.206s.345-.395.576-.658.669-.762.97-1.11.737-.841.962-1.1c.515-.589.548-.647.548-1.011a.731.731,0,0,0-.238-.633A.956.956,0,0,0,221.957-523.87Z" transform="translate(-208.149 526.318)" fill="#00b24a"/>
    </g>
  </g>
</svg>
