<svg xmlns="http://www.w3.org/2000/svg" width="19.964" height="21.308" viewBox="0 0 19.964 21.308">
  <g id="activity_tracker" data-name="activity tracker" transform="translate(17351 10655.964)">
    <path id="Subtraction_143" data-name="Subtraction 143" d="M12.6,21.308a1.407,1.407,0,0,1-1.347-1.014l-.481-1.637a2.857,2.857,0,0,0-1.833-1.913L7.654,16.3l-.43,1.01a5.13,5.13,0,0,1-3.636,2.992l-1.8.384a1.48,1.48,0,0,1-.848-2.826l3.107-1.219L5.685,8.82a3.267,3.267,0,0,0-1.491,2.621,1.1,1.1,0,0,1-1.1,1.067,1.126,1.126,0,0,1-.7-.249,1.107,1.107,0,0,1-.4-.789A5.817,5.817,0,0,1,5.429,5.816l.3-.128A3.373,3.373,0,0,1,7.112,5.4a3.49,3.49,0,0,1,.5.037L9.462,5.7a3.411,3.411,0,0,1,2.178,1.257l.243.307a1.656,1.656,0,0,0,.384.352l-.086.041a5.711,5.711,0,0,0,1.372,10.3l.414,1.574A1.4,1.4,0,0,1,12.773,21.3,1.2,1.2,0,0,1,12.6,21.308ZM13.866,9.425h0v-.2a.559.559,0,0,1,1-.34,7.552,7.552,0,0,1-1,.54ZM9.872,4.892A2.447,2.447,0,0,1,8.143.716,2.446,2.446,0,1,1,11.6,4.175,2.43,2.43,0,0,1,9.872,4.892Z" transform="translate(-17351 -10655.964)" fill="#df8354"/>
    <g id="Group_18021" data-name="Group 18021" transform="translate(-17340.502 -10648.27)">
      <path id="Path_48722" data-name="Path 48722" d="M80.259,84.479h0l.139.021a.459.459,0,0,1-.139-.021l-.939.453a4.716,4.716,0,1,0,.939-.453C80.281,84.561,80.286,84.39,80.259,84.479Zm.459,1.748a.463.463,0,1,1,.926,0v2.521a.377.377,0,0,0,.377.377H83.7a.463.463,0,1,1,0,.926h-1.68a1.3,1.3,0,0,1-1.3-1.3Z" transform="translate(-77.1 -84.21)" fill="#df8354"/>
    </g>
  </g>
</svg>
