<svg xmlns="http://www.w3.org/2000/svg" width="30.5" height="30.5" viewBox="0 0 30.5 30.5">
  <g id="add_credit_limit" data-name="add credit limit" transform="translate(-1500.193 -769.5)">
    <rect id="Rectangle_21974" data-name="Rectangle 21974" width="30.5" height="30.5" transform="translate(1500.193 769.5)" fill="#c9eff3"/>
    <g id="Group_18884" data-name="Group 18884" transform="translate(1506.651 776.456)">
      <path id="Path_50063" data-name="Path 50063" d="M18.838,14a.838.838,0,0,1,.838.838v6.7a.838.838,0,1,1-1.676,0v-6.7A.838.838,0,0,1,18.838,14Z" transform="translate(-5.456 -5.794)" fill="#1b93a4" fill-rule="evenodd"/>
      <path id="Path_50064" data-name="Path 50064" d="M14,18.838A.838.838,0,0,1,14.838,18h6.7a.838.838,0,0,1,0,1.676h-6.7A.838.838,0,0,1,14,18.838Z" transform="translate(-4.797 -6.453)" fill="#1b93a4" fill-rule="evenodd"/>
      <path id="Path_50065" data-name="Path 50065" d="M3.656,4.462A2.2,2.2,0,0,0,1.462,6.656v5.85A2.2,2.2,0,0,0,3.656,14.7H5.713a.731.731,0,1,1,0,1.462H3.656A3.665,3.665,0,0,1,0,12.506V6.656A3.665,3.665,0,0,1,3.656,3H13.893a3.665,3.665,0,0,1,3.656,3.656V9.717a.731.731,0,0,1-1.462,0V6.656a2.2,2.2,0,0,0-2.194-2.194Z" transform="translate(0 -3)" fill="#1b93a4" fill-rule="evenodd"/>
      <path id="Path_50066" data-name="Path 50066" d="M0,8.731A.731.731,0,0,1,.731,8H16.818a.731.731,0,0,1,0,1.462H.731A.731.731,0,0,1,0,8.731Z" transform="translate(0 -4.344)" fill="#1b93a4" fill-rule="evenodd"/>
    </g>
  </g>
</svg>
