<svg xmlns="http://www.w3.org/2000/svg" width="18.54" height="16.932" viewBox="0 0 18.54 16.932">
  <g id="man" transform="translate(0)">
    <path id="Path_44766" data-name="Path 44766" d="M138.529,26.159h5.417a.642.642,0,0,1,.641.642v4.986h.247V26.8a.889.889,0,0,0-.888-.888h-5.373A2.142,2.142,0,0,1,138.529,26.159Z" transform="translate(-127.155 -23.785)" fill="#929292"/>
    <path id="Path_44767" data-name="Path 44767" d="M10.733,31.787V26.8a.642.642,0,0,1,.641-.642h5.417a2.185,2.185,0,0,1-.043-.246H11.374a.889.889,0,0,0-.888.888v4.986Z" transform="translate(-9.625 -23.785)" fill="#929292"/>
    <path id="Path_44768" data-name="Path 44768" d="M79.542,53.207c-.1-1.96-.437-3.188-1.02-3.688a1.057,1.057,0,0,0-.58-.263.644.644,0,0,0-.092-.007H74.679a.632.632,0,0,0-.092.007,1.056,1.056,0,0,0-.58.263c-.583.5-.917,1.729-1.02,3.688Z" transform="translate(-66.995 -45.205)" fill="#929292"/>
    <ellipse id="Ellipse_676" data-name="Ellipse 676" cx="1.847" cy="1.847" rx="1.847" ry="1.847" transform="translate(7.423)" fill="#929292"/>
    <path id="Path_44769" data-name="Path 44769" d="M17.031,160.947v.087H1.508v-.087H.857v.858H0v.759H1.244v.85a.139.139,0,0,1-.13.136v-.364a.258.258,0,0,0-.258-.258H.463a.258.258,0,0,0-.258.258v1.22a.258.258,0,0,0,.258.258H.856a.258.258,0,0,0,.258-.258v-.362a.632.632,0,0,0,.623-.631v-.85H16.8v.85a.632.632,0,0,0,.623.631v.362a.258.258,0,0,0,.258.258h.393a.258.258,0,0,0,.258-.258v-1.22a.258.258,0,0,0-.258-.258h-.393a.258.258,0,0,0-.258.258v.364a.139.139,0,0,1-.13-.136v-.85h1.245V161.8h-.858v-.858ZM1.508,161.4H17.031v.409H1.508Z" transform="translate(0.001 -147.732)" fill="#929292"/>
    <path id="Path_44770" data-name="Path 44770" d="M18.757,106.016v-3.824a.732.732,0,0,0-.732-.732H.993a.732.732,0,0,0-.732.732v3.824Z" transform="translate(-0.239 -93.13)" fill="#929292"/>
  </g>
</svg>
