<svg xmlns="http://www.w3.org/2000/svg" width="23" height="23" viewBox="0 0 23 23">
  <g id="approve" transform="translate(-3 -3)">
    <rect id="Rectangle_19813" data-name="Rectangle 19813" width="9.118" height="3.647" rx="1.824" transform="translate(4.117 5.735)" fill="#1d4999"/>
    <path id="Path_45530" data-name="Path 45530" d="M15.043,21.381H3.05a3.814,3.814,0,0,1,1.413-2.508L5.553,18a.548.548,0,0,0,.208-.427V17h6.571v.57A.548.548,0,0,0,12.54,18l1.09.876a3.814,3.814,0,0,1,1.413,2.508Z" transform="translate(-0.023 -6.333)" fill="#1d4999"/>
    <path id="Path_45531" data-name="Path 45531" d="M13.738,31.1h.548v1.1h-.548a.549.549,0,0,0-.548.548v.548H12.1v-.548a.549.549,0,0,0-.548-.548H11V31.1h.548a.549.549,0,0,0,.548-.548V30h1.1v.548a.549.549,0,0,0,.548.548Z" transform="translate(-3.619 -12.214)" fill="#1d4999"/>
    <path id="Path_45532" data-name="Path 45532" d="M3,27v6.571H15.048V27Zm8.762,4.381a.549.549,0,0,1-.548.548h-.548v.548a.549.549,0,0,1-.548.548H7.929a.549.549,0,0,1-.548-.548v-.548H6.833a.549.549,0,0,1-.548-.548V29.19a.549.549,0,0,1,.548-.548h.548V28.1a.549.549,0,0,1,.548-.548h2.19a.549.549,0,0,1,.548.548v.548h.548a.549.549,0,0,1,.548.548Z" transform="translate(0 -10.857)" fill="#1d4999"/>
    <path id="Path_45533" data-name="Path 45533" d="M3,41H15.048v1.1a1.1,1.1,0,0,1-1.1,1.1H4.1A1.1,1.1,0,0,1,3,42.1Z" transform="translate(0 -17.19)" fill="#1d4999"/>
    <path id="Path_45534" data-name="Path 45534" d="M30.476,3a5.476,5.476,0,1,0,5.476,5.476A5.476,5.476,0,0,0,30.476,3Zm2.853,4.222-3.286,3.286a.555.555,0,0,1-.778,0L27.623,8.865a.55.55,0,1,1,.778-.778l1.254,1.26,2.9-2.9a.55.55,0,1,1,.778.778Z" transform="translate(-9.952)" fill="#1d4999"/>
  </g>
</svg>
