<svg xmlns="http://www.w3.org/2000/svg" width="18.141" height="18.141" viewBox="0 0 18.141 18.141">
  <g id="Group_13120" data-name="Group 13120" transform="translate(-259.978 -254.319)">
    <g id="no-drugs" transform="translate(259.978 254.319)">
      <path id="Path_2568" data-name="Path 2568" d="M10.153,7.916V6.077A5.077,5.077,0,0,0,0,6.077V9.52H6.591A6.119,6.119,0,0,1,10.153,7.916Z" transform="translate(0 -0.964)" fill="#1d4999"/>
      <path id="Path_2569" data-name="Path 2569" d="M5.674,271H0v3.443a5.077,5.077,0,0,0,6.868,4.75A6.132,6.132,0,0,1,5.674,271Z" transform="translate(0 -261.379)" fill="#1d4999"/>
      <path id="Path_2570" data-name="Path 2570" d="M165.076,225a5.076,5.076,0,1,0,5.077,5.076A5.082,5.082,0,0,0,165.076,225Zm2.365,3.465-3.976,3.976a.533.533,0,0,1-.753-.753l3.976-3.976a.533.533,0,0,1,.753.753Z" transform="translate(-154.32 -217.012)" fill="#1d4999"/>
      <path id="Path_2571" data-name="Path 2571" d="M306.692,0a3.692,3.692,0,1,0,3.692,3.692A3.7,3.7,0,0,0,306.692,0Zm1.229,4.167a.533.533,0,0,1-.753.753l-.475-.475-.475.475a.533.533,0,0,1-.753-.753l.475-.475-.475-.475a.533.533,0,0,1,.753-.753l.475.475.475-.475a.533.533,0,0,1,.753.753l-.475.475Z" transform="translate(-292.243 0)" fill="#1d4999"/>
    </g>
  </g>
</svg>
