<svg xmlns="http://www.w3.org/2000/svg" width="24.751" height="24.235" viewBox="0 0 24.751 24.235">
  <g id="allergies" transform="translate(-36.919 -41.47)">
    <g id="_253902536" data-name=" 253902536" transform="translate(54.12 45.986)">
      <path id="Path_45535" data-name="Path 45535" d="M343.565,121.42a2.105,2.105,0,1,0,2.106,2.105A2.105,2.105,0,0,0,343.565,121.42Zm-.835,2.388h-.142a.282.282,0,0,1,0-.565h.142a.282.282,0,0,1,0,.565Zm1-1.243a.282.282,0,0,1,.282-.282h.142a.282.282,0,1,1,0,.565h-.142a.282.282,0,0,1-.282-.283Zm.565,1.85h-.142a.282.282,0,0,1,0-.565h.142a.282.282,0,0,1,0,.565Z" transform="translate(-341.46 -121.42)" fill="#1d4999"/>
    </g>
    <g id="_253902464" data-name=" 253902464" transform="translate(55.942 44.067)">
      <path id="Path_45536" data-name="Path 45536" d="M374.285,87.45v1.369a2.723,2.723,0,0,0-.565,0V87.45A1.156,1.156,0,0,0,374.285,87.45Z" transform="translate(-373.72 -87.45)" fill="#1d4999"/>
    </g>
    <g id="_253902224" data-name=" 253902224" transform="translate(55.631 42.35)">
      <circle id="Ellipse_802" data-name="Ellipse 802" cx="0.594" cy="0.594" r="0.594" transform="translate(0 0)" fill="#1d4999"/>
    </g>
    <g id="_253902464-2" data-name=" 253902464" transform="translate(52.261 46.511)">
      <path id="Path_45537" data-name="Path 45537" d="M310.1,131.166a2.655,2.655,0,0,0-.185.534l-1.361-.443a1.132,1.132,0,0,0,.121-.258,1.158,1.158,0,0,0,.054-.28Z" transform="translate(-308.55 -130.72)" fill="#1d4999"/>
    </g>
    <g id="_253902224-2" data-name=" 253902224" transform="translate(50.686 45.841)">
      <path id="Path_45538" data-name="Path 45538" d="M281.821,119.625a.594.594,0,1,1-.834-.711.586.586,0,0,1,.269-.065.608.608,0,0,1,.184.029.594.594,0,0,1,.381.748Z" transform="translate(-280.662 -118.85)" fill="#1d4999"/>
    </g>
    <g id="_253902464-3" data-name=" 253902464" transform="translate(53.503 49.983)">
      <path id="Path_45539" data-name="Path 45539" d="M331.81,192.535l-.823,1.133a1.169,1.169,0,0,0-.457-.332l.839-1.156A2.725,2.725,0,0,0,331.81,192.535Z" transform="translate(-330.53 -192.18)" fill="#1d4999"/>
    </g>
    <g id="_253902224-3" data-name=" 253902224" transform="translate(52.477 51.619)">
      <path id="Path_45540" data-name="Path 45540" d="M313.45,222.1a.594.594,0,1,1-.573-.936.663.663,0,0,1,.094-.007.588.588,0,0,1,.347.113A.6.6,0,0,1,313.45,222.1Z" transform="translate(-312.377 -221.16)" fill="#1d4999"/>
    </g>
    <path id="Path_45541" data-name="Path 45541" d="M401.518,196.316a1.15,1.15,0,0,0-.249.138,1.172,1.172,0,0,0-.208.194l-.791-1.087a2.665,2.665,0,0,0,.473-.311Z" transform="translate(-342.828 -145.094)" fill="#1d4999"/>
    <g id="_253902224-4" data-name=" 253902224" transform="translate(58.53 51.704)">
      <path id="Path_45542" data-name="Path 45542" d="M420.707,223.342a.593.593,0,1,1-.38-.649.589.589,0,0,1,.38.649Z" transform="translate(-419.529 -222.656)" fill="#1d4999"/>
    </g>
    <path id="Path_45543" data-name="Path 45543" d="M423.647,133.657l-1.243.4a2.638,2.638,0,0,0-.164-.541l1.233-.4a1.157,1.157,0,0,0,.054.28A1.133,1.133,0,0,0,423.647,133.657Z" transform="translate(-363.557 -86.473)" fill="#1d4999"/>
    <g id="_253902224-5" data-name=" 253902224" transform="translate(60.482 45.974)">
      <path id="Path_45544" data-name="Path 45544" d="M455.215,122.074a.594.594,0,0,1-1.091-.079v-.007a.042.042,0,0,0,0-.007.6.6,0,0,1,.384-.741.609.609,0,0,1,.184-.029.594.594,0,0,1,.529.864Z" transform="translate(-454.097 -121.21)" fill="#1d4999"/>
    </g>
    <g id="_253899152" data-name=" 253899152" transform="translate(36.919 41.47)">
      <path id="Path_45545" data-name="Path 45545" d="M49.632,49.33a1.2,1.2,0,0,0-.949-.1.929.929,0,0,0-.565.473L47.1,53.22l-.006.02L46.763,54.4a.282.282,0,0,1-.543-.156l.324-1.123V43.338a.988.988,0,1,0-1.977,0v7.5a.282.282,0,0,1-.565,0V42.37a.992.992,0,0,0-1.976,0v8.472a.282.282,0,0,1-.565,0V44.061a.988.988,0,0,0-1.977,0v6.781a.282.282,0,0,1-.565,0V46.558a1,1,0,0,0-1.976,0v4.284c0,.508-.007,1.017-.013,1.513a23.826,23.826,0,0,0,.514,6.6c.1.379.2.715.282,1.017a16,16,0,0,1,.779,5.734h6.4a21.977,21.977,0,0,1,.684-5.118,2.493,2.493,0,0,1,.788-1.543,6.8,6.8,0,0,0,.982-1.224c.132-.2.249-.378.352-.534a7.9,7.9,0,0,0,1.372-3.216c.214-.734.508-1.738.935-3.146C50.125,50.574,50.3,49.717,49.632,49.33Zm-8.557,2.532a1.044,1.044,0,1,1-1.045,1.045A1.044,1.044,0,0,1,41.075,51.862ZM38.16,56.034A1.045,1.045,0,1,1,39.2,57.078a1.045,1.045,0,0,1-1.045-1.044Zm1.989,5.982a1.045,1.045,0,1,1,1.044-1.045A1.045,1.045,0,0,1,40.149,62.015Zm1.525-2.8a1.045,1.045,0,1,1,1.045-1.044,1.045,1.045,0,0,1-1.045,1.044Zm1.858,3.023a1.044,1.044,0,1,1,1.044-1.044A1.044,1.044,0,0,1,43.532,62.235ZM44,56.68a1.044,1.044,0,1,1,1.044-1.044A1.044,1.044,0,0,1,44,56.68Z" transform="translate(-36.919 -41.47)" fill="#1d4999"/>
      <path id="Path_45546" data-name="Path 45546" d="M146.46,382.6a.48.48,0,1,1-.48-.48A.48.48,0,0,1,146.46,382.6Z" transform="translate(-139.367 -362.879)" fill="#1d4999"/>
      <path id="Path_45547" data-name="Path 45547" d="M86.55,378.7a.48.48,0,1,1-.48-.48A.48.48,0,0,1,86.55,378.7Z" transform="translate(-82.841 -359.199)" fill="#1d4999"/>
      <path id="Path_45548" data-name="Path 45548" d="M113.54,329.07a.48.48,0,1,1-.48-.48A.48.48,0,0,1,113.54,329.07Z" transform="translate(-108.306 -312.373)" fill="#1d4999"/>
      <path id="Path_45549" data-name="Path 45549" d="M69.84,291.29a.48.48,0,1,1-.48-.48A.48.48,0,0,1,69.84,291.29Z" transform="translate(-67.075 -276.727)" fill="#1d4999"/>
      <path id="Path_45550" data-name="Path 45550" d="M102.96,235.93a.48.48,0,1,1-.48-.48A.48.48,0,0,1,102.96,235.93Z" transform="translate(-98.324 -224.493)" fill="#1d4999"/>
      <path id="Path_45551" data-name="Path 45551" d="M154.71,284.25a.48.48,0,1,1-.48-.48A.48.48,0,0,1,154.71,284.25Z" transform="translate(-147.151 -270.084)" fill="#1d4999"/>
    </g>
  </g>
</svg>
