<svg xmlns="http://www.w3.org/2000/svg" width="18.975" height="24.91" viewBox="0 0 18.975 24.91">
  <g id="report_4_" data-name="report (4)" transform="translate(-61)">
    <path id="Path_45507" data-name="Path 45507" d="M61,.73V19.8a.729.729,0,0,0,.73.73H74.866a.729.729,0,0,0,.73-.73V.73a.729.729,0,0,0-.73-.73H61.73A.729.729,0,0,0,61,.73Zm11.677,16.1H69.758a.73.73,0,0,1,0-1.46h2.919a.73.73,0,1,1,0,1.46ZM63.919,3.7H68.3a.73.73,0,1,1,0,1.46H63.919a.73.73,0,1,1,0-1.46Zm0,2.919h8.758a.73.73,0,1,1,0,1.46H63.919a.73.73,0,1,1,0-1.46Zm0,2.919h8.758a.73.73,0,1,1,0,1.46H63.919a.73.73,0,1,1,0-1.46Zm0,2.919h8.758a.73.73,0,1,1,0,1.46H63.919a.73.73,0,1,1,0-1.46Z" fill="#fff"/>
    <path id="Path_45508" data-name="Path 45508" d="M151.73,111.483h13.136a.729.729,0,0,0,.73-.73V91.73a.729.729,0,0,0-.73-.73h-2.189v15.374a2.192,2.192,0,0,1-2.189,2.189H151v2.189A.729.729,0,0,0,151.73,111.483Z" transform="translate(-85.621 -86.573)" fill="#fff"/>
  </g>
</svg>
