<svg xmlns="http://www.w3.org/2000/svg" width="18.141" height="23.223" viewBox="0 0 18.141 23.223">
  <g id="Group_13128" data-name="Group 13128" transform="translate(-1078.434 -631.597)">
    <path id="Subtraction_1" data-name="Subtraction 1" d="M.448,8.105h0A.448.448,0,0,1,0,7.657V5.011A4.621,4.621,0,0,1,4.623.388a1.863,1.863,0,0,0,1.024-.3.432.432,0,0,1,.238-.07.457.457,0,0,1,.288.1A4.577,4.577,0,0,0,9.051,1.152,4.523,4.523,0,0,0,11.946.1a.458.458,0,0,1,.289-.1.43.43,0,0,1,.241.073,1.861,1.861,0,0,0,1.042.315,4.621,4.621,0,0,1,4.623,4.623V7.484l-.155-.368h-.013L16.591,3.8a3.052,3.052,0,1,0-5.618,2.385l.058.138.021,0h0L.448,8.105Z" transform="translate(1078.434 643.028)" fill="#1d4999"/>
    <g id="MEDICAL" transform="translate(1087.432 645.824)">
      <path id="Path_2589" data-name="Path 2589" d="M.7,386.41a2.5,2.5,0,0,0,4.958,0Z" transform="translate(-0.7 -379.612)" fill="#1d4999"/>
      <path id="Path_2590" data-name="Path 2590" d="M5.658,226.488a2.5,2.5,0,0,0-4.958,0Z" transform="translate(-0.7 -220.36)" fill="#1d4999"/>
      <path id="Path_2591" data-name="Path 2591" d="M292.362,222.612l-.808-1.922a6.743,6.743,0,0,0-2.257.53q-.31.131-.6.291a3.193,3.193,0,0,1-.064,3.605,2.287,2.287,0,0,0,3.732-2.5Z" transform="translate(-283.571 -216.804)" fill="#1d4999"/>
      <path id="Path_2592" data-name="Path 2592" d="M150.159.936a2.286,2.286,0,1,0-4.208,1.787l.044.1a3.152,3.152,0,0,1,1.915.889,7.546,7.546,0,0,1,.776-.383,7.407,7.407,0,0,1,2.242-.564Zm-.735.7a.334.334,0,0,1-.437-.178,1.1,1.1,0,0,0-.734-.639.334.334,0,0,1,.17-.646A1.758,1.758,0,0,1,149.6,1.2.334.334,0,0,1,149.425,1.633Z" transform="translate(-143.222 0.466)" fill="#1d4999"/>
    </g>
    <path id="businessman" d="M146.67,16.634a4.444,4.444,0,0,0,2.745-.854.32.32,0,0,1,.544.149,3.92,3.92,0,0,0,.9,1.85c.485-2.551-.288-3.266-1.128-3.62a.319.319,0,0,1-.114-.081,3.124,3.124,0,0,0-2.6-1.078,4.213,4.213,0,0,0-3.182,1.71,3.831,3.831,0,0,0-.685,3.057,6.148,6.148,0,0,1,3.526-1.133Zm-2.776,5.2a5.982,5.982,0,0,0,.524.973,2.88,2.88,0,0,0,5.185,0,5.981,5.981,0,0,0,.524-.973c.834-.1,1.334-1.256,1.41-2.013.065-.653-.146-1.12-.564-1.25a.885.885,0,0,0-.274-.04,4.288,4.288,0,0,1-1.231-1.965,6.115,6.115,0,0,1-2.73.7c-1.3.141-2.633.286-3.448,1.26a.889.889,0,0,0-.243.04c-.418.13-.629.6-.564,1.25.075.757.575,1.915,1.409,2.013Z" transform="translate(940.493 618.597)" fill="#1d4999"/>
  </g>
</svg>
