<svg xmlns="http://www.w3.org/2000/svg" width="16.431" height="16" viewBox="0 0 16.431 16">
  <g id="advice" transform="translate(-4 -4.735)">
    <path id="Path_44820" data-name="Path 44820" d="M34.469,4.735h-8.05a1.06,1.06,0,0,0-1.059,1.059V9.955a1.06,1.06,0,0,0,1.059,1.059h.824V12a.435.435,0,0,0,.27.406.429.429,0,0,0,.168.036.44.44,0,0,0,.31-.129l1.3-1.3h5.181a1.059,1.059,0,0,0,1.055-1.059V5.793a1.059,1.059,0,0,0-1.055-1.059Zm-6.21,3.5a.364.364,0,1,1,.258-.105A.363.363,0,0,1,28.259,8.237Zm2.183,0a.362.362,0,1,1,.259-.1.363.363,0,0,1-.259.1Zm2.183,0a.362.362,0,1,1,.259-.1.363.363,0,0,1-.259.1Z" transform="translate(-15.093 0)" fill="#1d4999"/>
    <path id="Path_44821" data-name="Path 44821" d="M8.962,40.944l.825-1.117A2.874,2.874,0,0,1,11.7,38.69l3.272-.451a2.51,2.51,0,0,0,1.307-.594l3.645-3.16a.638.638,0,0,0,.224-.509.658.658,0,0,0-.248-.5.665.665,0,0,0-.865.047L17.322,35.2a1.621,1.621,0,0,1-1.09.468l-2.24.085a1.128,1.128,0,0,1-.961.533h-2.41a.17.17,0,0,1,0-.339h2.41a.8.8,0,0,0,.8-.8.812.812,0,0,0-.8-.8h-3.2a6.108,6.108,0,0,0-1.548.2l-.292.078A2.34,2.34,0,0,0,6.471,35.89l-.19.4a6.155,6.155,0,0,1-.991,1.5L4,39.23Z" transform="translate(0 -20.209)" fill="#1d4999"/>
    <path id="Path_44822" data-name="Path 44822" d="M39.87,31.117l-1.907,1.717a1.1,1.1,0,0,1,.207.648,1.082,1.082,0,0,1-.031.261l.305-.014,2.244-2.023a.516.516,0,0,0-.818-.591Z" transform="translate(-23.998 -18.549)" fill="#1d4999"/>
    <path id="Path_44823" data-name="Path 44823" d="M42.652,34.4a1.29,1.29,0,0,0,.865-.37l1.151-1.134a.51.51,0,0,0,.153-.373.52.52,0,0,0-.16-.363.532.532,0,0,0-.7-.01l-2.549,2.3Z" transform="translate(-26.433 -19.278)" fill="#1d4999"/>
  </g>
</svg>
