<svg id="question" xmlns="http://www.w3.org/2000/svg" width="14.529" height="17.984" viewBox="0 0 14.529 17.984">
  <path id="Path_44858" data-name="Path 44858" d="M27.182,15.38a8.678,8.678,0,0,0-1.837-1.193c-.507-.253-.883-.4-.89-.4-.866-.3-1.175-.615-1.282-.822l-.043-.125c-.012-.044-.023-.085-.033-.125l-.105-.591,0-.029a4.447,4.447,0,0,0,.675-1.216l.021-.033a2.231,2.231,0,0,0,.381-.877c.181-.508.113-.729.057-.818L24.1,9.114l.013-.04a3.174,3.174,0,0,0-.143-2.349L23.959,6.7a2.061,2.061,0,0,0-1.3-1.332A3.572,3.572,0,0,0,20.966,5h-.107a3.574,3.574,0,0,0-1.7.367,2.063,2.063,0,0,0-1.3,1.332l-.01.026a3.175,3.175,0,0,0-.143,2.349l.013.04-.023.037c-.056.089-.124.31.057.818a2.227,2.227,0,0,0,.381.877l.022.033a4.454,4.454,0,0,0,.675,1.216l0,.029-.105.591c-.01.04-.021.081-.033.125l-.043.125c-.107.207-.416.518-1.282.822-.007,0-.383.148-.891.4a8.69,8.69,0,0,0-1.837,1.193,3.469,3.469,0,0,0-.989,2.967c.006.156.018.317.038.487,0,.171.055.309.385.412a21.063,21.063,0,0,0,4.731.936l-.027-.01a1.328,1.328,0,0,1-.753-.644A1.287,1.287,0,0,1,18,18.466l0-.01,0-.01a3,3,0,0,1,2.979-1.909c1.729,0,2.937,1.04,2.937,2.529a2.483,2.483,0,0,1-.215,1.043,20.437,20.437,0,0,0,4.039-.865c.331-.1.386-.241.386-.412.02-.17.032-.331.038-.487a3.469,3.469,0,0,0-.989-2.967Z" transform="translate(-13.647 -5)" fill="#546788"/>
  <path id="Path_44859" data-name="Path 44859" d="M46.324,88.055h-.356c-.436,0-.574.138-.574.567v.254c0,.429.138.567.574.567h.356c.436,0,.574-.138.574-.567v-.254C46.9,88.193,46.76,88.055,46.324,88.055Z" transform="translate(-39.05 -71.459)" fill="#546788"/>
  <path id="Path_44860" data-name="Path 44860" d="M42.09,67.83A1.974,1.974,0,0,0,40.054,69.1c-.08.211-.022.313.189.393l.7.262a.717.717,0,0,0,.08.022l.025,0,.043,0H41.1l.01,0a.182.182,0,0,0,.05-.009l.015,0a.186.186,0,0,0,.052-.036l.01-.011a.394.394,0,0,0,.039-.053l.013-.021a.95.95,0,0,0,.046-.091c.189-.421.363-.618.749-.618.342,0,.509.174.509.414,0,.48-.4.581-.771.807a1.2,1.2,0,0,0-.6,1.17c0,.225.073.29.291.29h.654c.218,0,.291-.065.291-.29a.5.5,0,0,1,.277-.4c.436-.3,1.279-.53,1.279-1.592C44.008,68.455,43.3,67.83,42.09,67.83Z" transform="translate(-34.75 -55.275)" fill="#546788"/>
</svg>
