<svg id="health-report" xmlns="http://www.w3.org/2000/svg" width="25.048" height="25.048" viewBox="0 0 25.048 25.048">
  <path id="Path_45552" data-name="Path 45552" d="M105.978,1.957a.978.978,0,0,0-.978.978V4.158a.734.734,0,0,0,.734.734h6.36a.734.734,0,0,0,.734-.734V2.935a.978.978,0,0,0-.978-.978h-1.223l-.193-.77a1.566,1.566,0,0,0-3.039,0l-.193.77Z" transform="translate(-99.863)" fill="#fff"/>
  <path id="Path_45553" data-name="Path 45553" d="M15.9,70H14.432v.734a2.2,2.2,0,0,1-2.2,2.2H5.871a2.2,2.2,0,0,1-2.2-2.2V70H2.2A2.2,2.2,0,0,0,0,72.2v17.22a2.2,2.2,0,0,0,2.2,2.2H12.226a2.9,2.9,0,0,1-.078-2.754l.091-.181H3.669a.734.734,0,0,1,0-1.468h9.3l.734-1.468H3.669a.734.734,0,1,1,0-1.468H14.441l2.127-4.254A2.9,2.9,0,0,1,18.1,78.622V72.2A2.2,2.2,0,0,0,15.9,70ZM3.669,76.458H4.892V75.235a.734.734,0,0,1,1.468,0v1.223H7.583a.734.734,0,1,1,0,1.468H6.36v1.223a.734.734,0,1,1-1.468,0V77.925H3.669a.734.734,0,1,1,0-1.468Zm9.3,6.36h-9.3a.734.734,0,0,1,0-1.468h9.3a.734.734,0,0,1,0,1.468Zm1.468-2.935H10.518a.734.734,0,1,1,0-1.468h3.914a.734.734,0,1,1,0,1.468Zm0-2.935H10.518a.734.734,0,0,1,0-1.468h3.914a.734.734,0,0,1,0,1.468Z" transform="translate(0 -66.575)" fill="#fff"/>
  <path id="Path_45554" data-name="Path 45554" d="M283.586,281.716l-4.419-8.838a1.45,1.45,0,0,0-2.593,0l-4.419,8.838a1.45,1.45,0,0,0,1.3,2.1h8.838A1.45,1.45,0,0,0,283.586,281.716Zm-5.716-.1a.734.734,0,1,1,.734-.734A.734.734,0,0,1,277.871,281.613Zm.734-3.18a.734.734,0,1,1-1.468,0V275.5a.734.734,0,0,1,1.468,0Z" transform="translate(-258.693 -258.766)" fill="#fff"/>
</svg>
