<svg xmlns="http://www.w3.org/2000/svg" width="17.471" height="17.419" viewBox="0 0 17.471 17.419">
  <g id="anesthesia_1_" data-name="anesthesia (1)" transform="translate(-14.5 -15.255)">
    <rect id="Rectangle_17433" data-name="Rectangle 17433" width="8.053" height="4.356" transform="translate(21.374 15.755)" fill="none" stroke="#fff" stroke-width="1"/>
    <line id="Line_68" data-name="Line 68" x1="6.214" transform="translate(22.293 30.706)" fill="none" stroke="#fff" stroke-width="1"/>
    <path id="Path_44541" data-name="Path 44541" d="M439.533,214.444h0a1.022,1.022,0,0,1-1.022-1.022v-5.666h2.044v5.666A1.022,1.022,0,0,1,439.533,214.444Z" transform="translate(-409.084 -185.461)" fill="none" stroke="#fff" stroke-width="1"/>
    <circle id="Ellipse_343" data-name="Ellipse 343" cx="1.022" cy="1.022" r="1.022" transform="translate(20.352 30.13)" fill="none" stroke="#fff" stroke-width="1"/>
    <circle id="Ellipse_344" data-name="Ellipse 344" cx="1.022" cy="1.022" r="1.022" transform="translate(28.405 30.13)" fill="none" stroke="#fff" stroke-width="1"/>
    <rect id="Rectangle_17434" data-name="Rectangle 17434" width="4.132" height="2.178" transform="translate(17.242 15.755)" fill="none" stroke="#fff" stroke-width="1"/>
    <line id="Line_69" data-name="Line 69" x1="2.044" transform="translate(29.427 24.296)" fill="none" stroke="#fff" stroke-width="1"/>
    <path id="Path_44542" data-name="Path 44542" d="M47.9,262.877v.82a1.6,1.6,0,0,0,1.6,1.6h0a1.6,1.6,0,0,0,1.6-1.6V261.33h2.044" transform="translate(-31.781 -237.21)" fill="none" stroke="#fff" stroke-width="1"/>
    <ellipse id="Ellipse_345" data-name="Ellipse 345" cx="1.121" cy="1.599" rx="1.121" ry="1.599" transform="translate(15 22.47)" fill="none" stroke="#fff" stroke-width="1"/>
    <rect id="Rectangle_17435" data-name="Rectangle 17435" width="3.783" height="2.178" transform="translate(23.509 17.933)" fill="none" stroke="#fff" stroke-width="1"/>
    <line id="Line_70" data-name="Line 70" x2="8.053" transform="translate(21.374 25.957)" fill="none" stroke="#fff" stroke-width="1"/>
    <line id="Line_71" data-name="Line 71" x2="8.053" transform="translate(21.374 28.331)" fill="none" stroke="#fff" stroke-width="1"/>
    <rect id="Rectangle_17436" data-name="Rectangle 17436" width="2.044" height="3.662" transform="translate(23.357 22.295)" fill="none" stroke="#fff" stroke-width="1"/>
    <rect id="Rectangle_17437" data-name="Rectangle 17437" width="2.044" height="3.662" transform="translate(25.4 22.295)" fill="none" stroke="#fff" stroke-width="1"/>
    <path id="Path_44543" data-name="Path 44543" d="M141.46,79.69v3.267h2.066" transform="translate(-122.152 -61.757)" fill="none" stroke="#fff" stroke-width="1"/>
    <path id="Path_44544" data-name="Path 44544" d="M202.115,153.645V143.626h8.053v10.019" transform="translate(-180.741 -123.515)" fill="none" stroke="#fff" stroke-width="1"/>
  </g>
</svg>
