<svg xmlns="http://www.w3.org/2000/svg" width="16" height="16" viewBox="0 0 16 16">
  <g id="Group_12370" data-name="Group 12370" transform="translate(-1481.467 -1042.078)">
    <path id="Path_44824" data-name="Path 44824" d="M174.927,159.688a.844.844,0,1,0-.844-.844A.845.845,0,0,0,174.927,159.688Z" transform="translate(1312.287 889.125)" fill="#1d4999"/>
    <path id="Path_44825" data-name="Path 44825" d="M230.148,363.93a.8.8,0,1,0,.8.8A.8.8,0,0,0,230.148,363.93Z" transform="translate(1259.611 689.443)" fill="#1d4999"/>
    <path id="Path_44826" data-name="Path 44826" d="M241.656,228.555a.483.483,0,1,0-.483-.483A.484.484,0,0,0,241.656,228.555Z" transform="translate(1248.294 821.523)" fill="#1d4999"/>
    <path id="Path_44827" data-name="Path 44827" d="M348.552,134.937a.469.469,0,1,0-.469-.469A.469.469,0,0,0,348.552,134.937Z" transform="translate(1144.725 912.188)" fill="#1d4999"/>
    <path id="Path_44828" data-name="Path 44828" d="M308.052,339a.469.469,0,1,0,.469.469A.469.469,0,0,0,308.052,339Z" transform="translate(1183.823 713.594)" fill="#1d4999"/>
    <path id="Path_44829" data-name="Path 44829" d="M8,0a8,8,0,1,0,8,8A8.009,8.009,0,0,0,8,0Zm3.346,3.25A1.406,1.406,0,1,1,9.94,4.656,1.408,1.408,0,0,1,11.346,3.25ZM7.284,2.156a.469.469,0,1,1-.469.469A.47.47,0,0,1,7.284,2.156ZM6.284,4A1.78,1.78,0,0,1,8.021,6.175,1.42,1.42,0,1,1,6.6,7.6c0-.021,0-.041,0-.061A1.781,1.781,0,1,1,6.284,4ZM3.19,8.813a.469.469,0,1,1,.469-.469A.47.47,0,0,1,3.19,8.813Zm1.688,2.312a.469.469,0,1,1,.469-.469A.47.47,0,0,1,4.878,11.125Zm5.2,1.344a1.4,1.4,0,0,1-.4-.058,1.737,1.737,0,1,1-.938-1.79,1.406,1.406,0,1,1,1.335,1.847ZM12.6,9.063a.469.469,0,1,1,.469-.469A.47.47,0,0,1,12.6,9.063Z" transform="translate(1481.467 1042.078)" fill="#1d4999"/>
  </g>
</svg>
