<svg id="ventilator" xmlns="http://www.w3.org/2000/svg" width="22.185" height="22.873" viewBox="0 0 22.185 22.873">
  <path id="Path_47703" data-name="Path 47703" d="M184.8,367.2h5.714v3.279H184.8Z" transform="translate(-176.888 -350.796)" fill="#929292"/>
  <path id="Path_47704" data-name="Path 47704" d="M143.5,223.874H144.7a.24.24,0,0,0,.241-.241v-.755h.027a.927.927,0,0,0,.925-.925V211.325a.927.927,0,0,0-.925-.925h-8.247a.927.927,0,0,0-.925.925v10.628a.927.927,0,0,0,.925.925h.027v.755a.24.24,0,0,0,.241.241H138.2a.24.24,0,0,0,.241-.241v-.755h4.816v.755A.24.24,0,0,0,143.5,223.874Zm-5.745-11.763h6.2a.241.241,0,0,1,0,.482h-6.2a.241.241,0,0,1,0-.482Zm0,1.55h6.2a.241.241,0,0,1,0,.482h-6.2a.241.241,0,0,1,0-.482Zm0,1.555h6.2a.241.241,0,1,1,0,.482h-6.2a.241.241,0,0,1,0-.482Zm0,5.951a.24.24,0,0,1-.241-.241v-3.762a.24.24,0,0,1,.241-.241h6.2a.24.24,0,0,1,.241.241v3.762a.24.24,0,0,1-.241.241Z" transform="translate(-130.077 -201.001)" fill="#929292"/>
  <path id="Path_47705" data-name="Path 47705" d="M130.962,7.094V.925A.927.927,0,0,0,130.037,0h-9.712a.927.927,0,0,0-.925.925V7.094a.927.927,0,0,0,.925.925h1.912v.893h5.888V8.019h1.912A.921.921,0,0,0,130.962,7.094ZM129.023,6.1a.21.21,0,0,1-.21.21h-7.264a.21.21,0,0,1-.21-.21V1.921a.21.21,0,0,1,.21-.21h7.264a.21.21,0,0,1,.21.21Z" transform="translate(-114.41 0)" fill="#929292"/>
  <path id="Path_47706" data-name="Path 47706" d="M376.234,315.329a1.447,1.447,0,1,1-2.895,0v-.88a.914.914,0,0,0,.871-.916v-.777a.919.919,0,0,0-.92-.92h-.59v2.618h.156v.876a1.93,1.93,0,1,0,3.86,0V309.2h-.482Z" transform="translate(-356.394 -295.387)" fill="#929292"/>
  <path id="Path_47707" data-name="Path 47707" d="M39.055,228.676V227.8h.156v-2.618h-.59a.919.919,0,0,0-.92.92v.777a.921.921,0,0,0,.876.916v.88a1.447,1.447,0,1,1-2.895,0V222.9a2.2,2.2,0,0,1-.246.013,2.044,2.044,0,0,1-.237-.013v5.772a1.928,1.928,0,1,0,3.855,0Z" transform="translate(-33.971 -212.942)" fill="#929292"/>
  <path id="Path_47708" data-name="Path 47708" d="M10.255,129.959a.849.849,0,0,0,.371-.71v-1.371a.865.865,0,0,0-.268-.625l-.6-.567a.859.859,0,0,0-1.179,0l-.608.567a.865.865,0,0,0-.268.625v1.371a.849.849,0,0,0,.371.71,1.958,1.958,0,0,0,1.095.335A1.934,1.934,0,0,0,10.255,129.959Z" transform="translate(-7.7 -120.801)" fill="#929292"/>
  <path id="Path_47709" data-name="Path 47709" d="M413.344,162.3h-2.671a.773.773,0,0,0-.773.773v3.333a.772.772,0,0,0,.773.768h.232v.362a.842.842,0,0,0,.84.84h.527a.842.842,0,0,0,.84-.84v-.362h.232a.769.769,0,0,0,.773-.768v-3.333A.773.773,0,0,0,413.344,162.3Z" transform="translate(-391.932 -155.049)" fill="#929292"/>
</svg>
