<svg xmlns="http://www.w3.org/2000/svg" width="16.098" height="15.575" viewBox="0 0 16.098 15.575">
  <g id="bed" transform="translate(0.113)">
    <path id="Path_44830" data-name="Path 44830" d="M55.086,31.08A.271.271,0,0,1,55.28,31a.28.28,0,0,1,.28.28v5.648a1.1,1.1,0,0,0-.28-.04H55V31.28A.274.274,0,0,1,55.086,31.08Z" transform="translate(-40.138 -22.589)" fill="#1d4999"/>
    <path id="Path_44831" data-name="Path 44831" d="M10.926,38v2.8H7V38h3.926Z" transform="translate(-5.598 -27.626)" fill="#1d4999"/>
    <path id="Path_44832" data-name="Path 44832" d="M7,50H19.9v.561H7Z" transform="translate(-5.598 -36.261)" fill="#1d4999"/>
    <path id="Path_44833" data-name="Path 44833" d="M23.28,36h8.132v3.365H23V36.28A.28.28,0,0,1,23.28,36Z" transform="translate(-17.111 -26.187)" fill="#1d4999"/>
    <path id="Path_44834" data-name="Path 44834" d="M9.524,32a.28.28,0,0,1,.28.28v.841H7V32Z" transform="translate(-5.598 -23.309)" fill="#1d4999"/>
    <path id="Path_44835" data-name="Path 44835" d="M3.086,24.08A.271.271,0,0,1,3.28,24a.28.28,0,0,1,.28.28v7.572H3.28a1.1,1.1,0,0,0-.28.04V24.28A.274.274,0,0,1,3.086,24.08Z" transform="translate(-2.72 -17.552)" fill="#1d4999"/>
    <circle id="Ellipse_684" data-name="Ellipse 684" cx="0.5" cy="0.5" r="0.5" transform="translate(-0.113 14.575)" fill="#1d4999"/>
    <path id="Path_44836" data-name="Path 44836" d="M7.6,54.561A1.11,1.11,0,0,0,7.444,54h12.65a1.11,1.11,0,0,0-.156.561Z" transform="translate(-5.917 -39.139)" fill="#1d4999"/>
    <circle id="Ellipse_685" data-name="Ellipse 685" cx="0.5" cy="0.5" r="0.5" transform="translate(14.887 14.575)" fill="#1d4999"/>
    <path id="Path_44837" data-name="Path 44837" d="M28.725,5.713l-4,3.536a.667.667,0,0,1-1.107-.5V6.613c-3.334,0-5.077.979-5.877,1.643a.308.308,0,0,1-.5-.282c.409-2.522,2.6-4.446,6.38-4.446V1.675a.667.667,0,0,1,1.107-.5l4,3.536a.673.673,0,0,1,0,1Z" transform="translate(-12.965 -1.007)" fill="#1d4999"/>
  </g>
</svg>
