<svg xmlns="http://www.w3.org/2000/svg" width="32.552" height="32.551" viewBox="0 0 32.552 32.551">
  <g id="bed" transform="translate(0.001 0)">
    <path id="Path_44561" data-name="Path 44561" d="M14.356,26.672A1.355,1.355,0,0,1,13,25.316v-7.46a1.356,1.356,0,1,1,2.713,0v7.46A1.355,1.355,0,0,1,14.356,26.672Z" transform="translate(4.632 5.879)" fill="#fff"/>
    <path id="Path_44562" data-name="Path 44562" d="M9.356,26.672A1.355,1.355,0,0,1,8,25.316v-7.46a1.356,1.356,0,1,1,2.713,0v7.46A1.355,1.355,0,0,1,9.356,26.672Z" transform="translate(2.851 5.879)" fill="#fff"/>
    <path id="Path_44563" data-name="Path 44563" d="M19.563,24.713H7.356a1.356,1.356,0,0,1,0-2.713H19.563a1.356,1.356,0,1,1,0,2.713Z" transform="translate(2.138 7.838)" fill="#fff"/>
    <path id="Path_44564" data-name="Path 44564" d="M29.456,23.562a3.2,3.2,0,0,1-1.835-.576l-2.969-2.1h-17a1.017,1.017,0,0,1-.7-.277L.891,14.9a2.792,2.792,0,0,1-.735-2.965,2.916,2.916,0,0,1,2.087-1.85,3.038,3.038,0,0,1,2.81.728l4.389,4.13H26.36a1.023,1.023,0,0,1,.587.186l4.34,3.062a2.9,2.9,0,0,1,1.1,3.354,3.012,3.012,0,0,1-1.953,1.862,3.228,3.228,0,0,1-.974.151Z" transform="translate(0 3.563)" fill="#fff"/>
    <path id="Path_44565" data-name="Path 44565" d="M4.747,6.1a1.353,1.353,0,0,1-.959-.4L.4,2.315A1.356,1.356,0,0,1,2.315.4L5.706,3.788A1.356,1.356,0,0,1,4.747,6.1Z" transform="translate(0 0)" fill="#fff"/>
    <path id="Path_44566" data-name="Path 44566" d="M20.856,6.1A1.356,1.356,0,0,1,19.9,3.788L23.288.4a1.356,1.356,0,0,1,1.918,1.918L21.815,5.706A1.353,1.353,0,0,1,20.856,6.1Z" transform="translate(6.948)" fill="#fff"/>
    <path id="Path_44567" data-name="Path 44567" d="M9.859,3.195a1.352,1.352,0,0,0-1.458-.3l-.536-.536a2.377,2.377,0,0,0-3.357,0L2.359,4.51a2.377,2.377,0,0,0,0,3.357l.536.536A1.355,1.355,0,0,0,5.112,9.859L9.859,5.112a1.355,1.355,0,0,0,0-1.918Z" transform="translate(0.594 0.593)" fill="#fff"/>
    <path id="Path_44568" data-name="Path 44568" d="M23.9,4.51,21.747,2.359a2.377,2.377,0,0,0-3.357,0l-.536.536A1.355,1.355,0,0,0,16.4,5.112l4.747,4.747A1.355,1.355,0,0,0,23.362,8.4l.536-.536A2.376,2.376,0,0,0,23.9,4.51Z" transform="translate(5.7 0.593)" fill="#fff"/>
  </g>
</svg>
