<svg xmlns="http://www.w3.org/2000/svg" width="22" height="22.002" viewBox="0 0 22 22.002">
  <path id="invoice_1_" data-name="invoice (1)" d="M19,1H5a1,1,0,0,0-.65.25A4,4,0,0,1,7,4.6,1.75,1.75,0,0,1,7,5V22a1,1,0,0,0,1.65.76l2.85-2.44,2.85,2.44a1,1,0,0,0,1.3,0l2.85-2.44,2.85,2.44A1,1,0,0,0,22,23a1.06,1.06,0,0,0,.42-.09A1,1,0,0,0,23,22V5A4,4,0,0,0,19,1ZM18,15H12a1,1,0,0,1,0-2h6a1,1,0,0,1,0,2Zm0-4H12a1,1,0,0,1,0-2h6a1,1,0,0,1,0,2Zm0-4H12a1,1,0,0,1,0-2h6a1,1,0,0,1,0,2ZM5,5v8H2a1,1,0,0,1-1-1V4.6A2.01,2.01,0,1,1,5,5Z" transform="translate(-1 -1)" fill="#929292"/>
</svg>
