<svg xmlns="http://www.w3.org/2000/svg" width="17.923" height="16.36" viewBox="0 0 17.923 16.36">
  <g id="invoice" transform="translate(0 -0.105)">
    <path id="Path_45175" data-name="Path 45175" d="M10.08,302.449H0v1.559a1.787,1.787,0,0,0,1.666,1.781.455.455,0,0,1,.06,0H10.79a2.681,2.681,0,0,1-.711-1.82Zm0,0" transform="translate(0 -289.325)" fill="#546788"/>
    <path id="Path_45176" data-name="Path 45176" d="M63.892,1.223l-.075,11.04h7.762a.431.431,0,0,1,.431.431v1.945a1.854,1.854,0,0,0,1.665,1.82h.147a.428.428,0,0,1,.07.006,1.828,1.828,0,0,0,1.766-1.827V1.361A2.056,2.056,0,0,1,76.085.1H65.03a1.13,1.13,0,0,0-1.138,1.118Zm1.844,1.824h4.078a.431.431,0,0,1,0,.861H65.736a.431.431,0,1,1,0-.861Zm0,3.079h7.608a.431.431,0,1,1,0,.861H65.736a.431.431,0,1,1,0-.861Zm0,3.079h7.608a.431.431,0,0,1,0,.861H65.736a.431.431,0,0,1,0-.861Zm0,0" transform="translate(-61.068 0)" fill="#546788"/>
    <path id="Path_45177" data-name="Path 45177" d="M360.041,1.019A1.228,1.228,0,0,0,358.8,2.235V8.2h2.472V2.235a1.228,1.228,0,0,0-1.236-1.216Zm0,0" transform="translate(-343.354 -0.875)" fill="#546788"/>
  </g>
</svg>
