<svg xmlns="http://www.w3.org/2000/svg" width="20.032" height="20" viewBox="0 0 20.032 20">
  <g id="blood-drop_3_" data-name="blood-drop (3)" transform="translate(0 -0.409)">
    <path id="Path_44939" data-name="Path 44939" d="M134.366,297.807l-.012-.02a3.339,3.339,0,0,0-4.467-1.253l-2.488,1.292c.01.108.02.226.02.281a2.633,2.633,0,0,1-1.3,2.244,2.261,2.261,0,0,1-1.137.308,2.523,2.523,0,0,1-1.263-.354l-.021-.013-2.137-1.358a.586.586,0,0,1,.629-.989l2.126,1.35a1.164,1.164,0,0,0,1.218.04,1.466,1.466,0,0,0,.664-.889h0a1.332,1.332,0,0,0-.7-1.443l-2.419-1.4a1.417,1.417,0,0,0-.836-.272h-3.224v5.538h.374l4.642,2.685a1.767,1.767,0,0,0,.883.253,1.441,1.441,0,0,0,.774-.223l8.571-5.387A.293.293,0,0,0,134.366,297.807Z" transform="translate(-114.373 -283.403)" fill="#929292"/>
    <path id="Path_44940" data-name="Path 44940" d="M2.892,249.162H.586a.586.586,0,0,0-.586.586v8.162a.586.586,0,0,0,.586.586H2.892a.586.586,0,0,0,.586-.586v-8.162A.586.586,0,0,0,2.892,249.162Z" transform="translate(0 -239.033)" fill="#929292"/>
    <path id="Path_44941" data-name="Path 44941" d="M224.05,10.528a3.764,3.764,0,0,0,3.76-3.76,9.119,9.119,0,0,0-1.556-3.851,19.358,19.358,0,0,0-1.112-1.624c-.529-.685-.774-.883-1.093-.883s-.563.2-1.093.883a19.358,19.358,0,0,0-1.112,1.624,9.119,9.119,0,0,0-1.556,3.851A3.764,3.764,0,0,0,224.05,10.528Z" transform="translate(-211.682)" fill="#929292"/>
  </g>
</svg>
