<svg id="blood-pressure" xmlns="http://www.w3.org/2000/svg" width="15.383" height="15.771" viewBox="0 0 15.383 15.771">
  <path id="Path_44437" data-name="Path 44437" d="M11.846,14.259a.811.811,0,0,1-.64-.293L9.9,12.287H8.769A.72.72,0,0,1,8,11.63a.72.72,0,0,1,.769-.657h1.538a.812.812,0,0,1,.64.293l.8,1.03,1.714-2.931A.788.788,0,0,1,14.123,9a.8.8,0,0,1,.689.318L16.9,12.287H18A.666.666,0,1,1,18,13.6H16.461a.8.8,0,0,1-.659-.319l-1.587-2.26L12.534,13.9a.784.784,0,0,1-.641.362Z" transform="translate(-3.385 -3.09)" fill="#fc7349"/>
  <path id="Path_44438" data-name="Path 44438" d="M15.075,11.837a2.417,2.417,0,0,1-1.977-.96l-.146-.2-.431.73a2.323,2.323,0,0,1-1.915,1.085l-.146.007a2.427,2.427,0,0,1-1.923-.881l-.854-1.091h-.3A2.166,2.166,0,0,1,5.077,8.55,2.166,2.166,0,0,1,7.384,6.578H8.922a2.57,2.57,0,0,1,1.123.25L10.707,5.7a2.355,2.355,0,0,1,1.977-1.091,2.647,2.647,0,0,1,.946.145,32.133,32.133,0,0,0-4.3-4.6.671.671,0,0,0-.815,0C8.245.378,2,5.808,2,9.819c0,3.287,3.107,5.963,6.922,5.963a6.963,6.963,0,0,0,6.515-3.944Z" transform="translate(-2 -0.01)" fill="#fc7349"/>
</svg>
