<svg xmlns="http://www.w3.org/2000/svg" width="18.999" height="19" viewBox="0 0 18.999 19">
  <g id="red-blood-cells" transform="translate(-0.021 0)">
    <ellipse id="Ellipse_702" data-name="Ellipse 702" cx="1.67" cy="2.227" rx="1.67" ry="2.227" transform="translate(13.141 14.978) rotate(-45)" fill="#929292"/>
    <path id="Path_44947" data-name="Path 44947" d="M.423,211.252a1.987,1.987,0,0,0,.394,2.756c.777.777,2.058,1.129,2.793.394a1.987,1.987,0,0,0-.394-2.756,2.033,2.033,0,0,0-2.793-.394Z" transform="translate(0 -203.024)" fill="#929292"/>
    <path id="Path_44948" data-name="Path 44948" d="M287.632,3.987a1.987,1.987,0,0,0,.394-2.756,1.989,1.989,0,0,0-2.756.394c-.771.77-1.136,2.013-.394,2.756C285.6,5.11,286.852,4.769,287.632,3.987Z" transform="translate(-273.892 -0.799)" fill="#929292"/>
    <path id="Path_44949" data-name="Path 44949" d="M282.488,92.638c-1.6,1.6-2.735,4.352-1.181,5.906s4.3.427,5.906-1.181c1.987-1.986,2.543-4.581,1.218-5.906S284.475,90.651,282.488,92.638Zm2.793,2.756a4.13,4.13,0,0,1-2.221,1.241l-.162-1.1a2.988,2.988,0,0,0,1.558-.927,3.217,3.217,0,0,0,.964-1.559l1.1.162A4.077,4.077,0,0,1,285.281,95.394Z" transform="translate(-270.133 -87.357)" fill="#929292"/>
    <path id="Path_44950" data-name="Path 44950" d="M31.645.733c-1.325,1.325-.806,3.957,1.181,5.943,1.651,1.65,4.386,2.691,5.906,1.17,1.549-1.549.427-4.324-1.181-5.932C35.564-.073,32.97-.594,31.645.733Zm5.334,5.2A4.027,4.027,0,0,1,34.8,4.708a4.128,4.128,0,0,1-1.241-2.221l1.1-.162a2.991,2.991,0,0,0,.927,1.559,3.147,3.147,0,0,0,1.558.953Z" transform="translate(-29.745)" fill="#929292"/>
    <path id="Path_44951" data-name="Path 44951" d="M121.645,281.33c-1.325,1.325-.806,3.945,1.181,5.932,1.661,1.66,4.385,2.7,5.906,1.181,1.325-1.325.806-3.945-1.181-5.932S122.969,280.006,121.645,281.33Zm3.937,3.139a2.986,2.986,0,0,0,1.558.927l-.162,1.1a4.74,4.74,0,0,1-3.425-3.414l1.1-.162A2.976,2.976,0,0,0,125.583,284.468Z" transform="translate(-116.405 -270.182)" fill="#929292"/>
  </g>
</svg>
