<svg xmlns="http://www.w3.org/2000/svg" width="15.838" height="20" viewBox="0 0 15.838 20">
  <g id="results" transform="translate(-72.398)">
    <path id="Path_44952" data-name="Path 44952" d="M82.588,65.988a5.98,5.98,0,0,1,1.067-2.841c.457-.821.907-1.519.926-1.548a1.917,1.917,0,0,1,1.612-.831V57.949a.625.625,0,0,0-.657-.586H84.177a4.421,4.421,0,0,1,.145,1.316,1.876,1.876,0,0,1-1.971,1.758H76.24a1.876,1.876,0,0,1-1.971-1.758,4.422,4.422,0,0,1,.145-1.316H73.055a.625.625,0,0,0-.657.586V74.536a.625.625,0,0,0,.657.586H85.536a.625.625,0,0,0,.657-.586V69.2a3.431,3.431,0,0,1-3.605-3.215ZM75.7,61.6h5.052a.59.59,0,1,1,0,1.172H75.7a.59.59,0,1,1,0-1.172Zm0,2.355h2.411a.59.59,0,1,1,0,1.172H75.7a.59.59,0,1,1,0-1.172Zm1.331,5.881H75.7a.59.59,0,1,1,0-1.172h1.331a.59.59,0,1,1,0,1.172ZM75.7,67.481a.59.59,0,1,1,0-1.172h3.6a.59.59,0,1,1,0,1.172Zm7.666,3.933-1.9,1.691a.715.715,0,0,1-.929,0l-.766-.683a.542.542,0,0,1,0-.829.715.715,0,0,1,.929,0l.3.268,1.432-1.277a.715.715,0,0,1,.929,0A.542.542,0,0,1,83.362,71.414Z" transform="translate(0 -55.122)" fill="#929292"/>
    <path id="Path_44953" data-name="Path 44953" d="M337.465,174.781a.487.487,0,0,0-.844,0c-.016.028-.4.7-.792,1.485a5.783,5.783,0,0,0-.829,2.319,2.043,2.043,0,1,0,4.086,0,5.783,5.783,0,0,0-.829-2.319C337.866,175.478,337.481,174.809,337.465,174.781Z" transform="translate(-250.85 -167.719)" fill="#929292"/>
    <path id="Path_44954" data-name="Path 44954" d="M145.108,3.557a.586.586,0,0,0,.586.586h5.449a.586.586,0,0,0,.586-.586V3.31a3.31,3.31,0,0,0-6.62,0Z" transform="translate(-69.32)" fill="#929292"/>
  </g>
</svg>
