<svg id="building" xmlns="http://www.w3.org/2000/svg" width="22.123" height="22.123" viewBox="0 0 22.123 22.123">
  <path id="Path_47687" data-name="Path 47687" d="M359.387,358.3a1.087,1.087,0,1,0,1.087,1.087,1.089,1.089,0,0,0-1.087-1.087Z" transform="translate(-342.818 -342.818)" fill="#929292"/>
  <path id="Path_47688" data-name="Path 47688" d="M87.928,12.385l.9-.9a.645.645,0,0,1-.161-.427v-.694a.648.648,0,0,1,1.3,0v.252a1.883,1.883,0,0,1,.979-.066A1.879,1.879,0,0,1,92.5,9.719h.238V.648A.648.648,0,0,0,92.089,0H80.981a.648.648,0,0,0-.648.648v17.31h6.3a1.87,1.87,0,0,1-.057-.456V15.637a1.879,1.879,0,0,1,.834-1.56A1.879,1.879,0,0,1,87.928,12.385Zm.736-8.96a.648.648,0,0,1,1.3,0v.694a.648.648,0,0,1-1.3,0Zm0,3.471a.648.648,0,0,1,1.3,0V7.59a.648.648,0,0,1-1.3,0Zm-4.258,4.165a.648.648,0,0,1-1.3,0v-.694a.648.648,0,0,1,1.3,0Zm0-3.471a.648.648,0,0,1-1.3,0V6.9a.648.648,0,0,1,1.3,0Zm0-3.471a.648.648,0,0,1-1.3,0V3.425a.648.648,0,0,1,1.3,0Zm2.777,6.942a.648.648,0,0,1-1.3,0v-.694a.648.648,0,0,1,1.3,0Zm0-3.471a.648.648,0,0,1-1.3,0V6.9a.648.648,0,0,1,1.3,0Zm0-3.471a.648.648,0,0,1-1.3,0V3.425a.648.648,0,0,1,1.3,0Z" transform="translate(-76.862 0)" fill="#929292"/>
  <path id="Path_47689" data-name="Path 47689" d="M399.29,87.414a1.883,1.883,0,0,1,.979.066V83.063a.648.648,0,0,0-.19-.458L398,80.522a.648.648,0,0,0-.6-.174v6.233h.33A1.879,1.879,0,0,1,399.29,87.414Z" transform="translate(-380.229 -76.861)" fill="#929292"/>
  <path id="Path_47690" data-name="Path 47690" d="M265.531,258.978l-.708-.088q-.064-.173-.141-.341l.438-.563a.581.581,0,0,0-.048-.767l-1.319-1.319a.58.58,0,0,0-.767-.048l-.563.438q-.168-.077-.341-.141l-.088-.708a.58.58,0,0,0-.576-.508h-1.865a.58.58,0,0,0-.576.508l-.088.708q-.173.064-.341.141l-.563-.438a.58.58,0,0,0-.767.048l-1.319,1.319a.58.58,0,0,0-.048.767l.438.563q-.078.168-.141.341l-.708.088a.58.58,0,0,0-.509.576v1.865a.58.58,0,0,0,.509.576l.708.088q.064.173.141.341l-.438.563a.58.58,0,0,0,.048.767l1.319,1.319a.58.58,0,0,0,.767.048l.564-.438q.168.077.341.141l.088.708a.58.58,0,0,0,.576.508h1.865a.58.58,0,0,0,.576-.508l.088-.708q.173-.064.341-.141l.563.438a.58.58,0,0,0,.767-.048l1.319-1.319a.58.58,0,0,0,.048-.767l-.438-.563q.077-.168.141-.341l.708-.088a.58.58,0,0,0,.508-.576v-1.865A.58.58,0,0,0,265.531,258.978Zm-5.045,3.892a2.384,2.384,0,1,1,2.384-2.384A2.386,2.386,0,0,1,260.486,262.871Z" transform="translate(-243.917 -243.917)" fill="#929292"/>
  <path id="Path_47691" data-name="Path 47691" d="M0,177.381v9.025a.648.648,0,0,0,.648.648H2.175V176.733H.648A.648.648,0,0,0,0,177.381Z" transform="translate(0 -169.096)" fill="#929292"/>
</svg>
