<svg xmlns="http://www.w3.org/2000/svg" width="14.5" height="14.464" viewBox="0 0 14.5 14.464">
  <path id="bpSysDys" d="M9.335,8.16a.611.611,0,0,0-.313-.509V6.671a.313.313,0,1,0-.627,0v.979a.611.611,0,0,0-.313.509.577.577,0,0,0,.588.588A.677.677,0,0,0,9.335,8.16ZM13.88,1.5a2.245,2.245,0,0,0-2.116,2.39v.039c0,.979.744,2.7,1.8,2.977v5.759a2.709,2.709,0,0,1-2.7,2.7,2.678,2.678,0,0,1-2.7-2.546c.94-.118,1.8-.353,1.8-.784V10.863a3,3,0,0,0,1.567-3.957A3.059,3.059,0,0,0,9.962,5.339V3.616c0-.862-3.526-.9-4.231-.9s-4.231.039-4.231.9v8.462c0,.862,3.526.9,4.231.9.274,0,1.019,0,1.841-.078a3.315,3.315,0,0,0,6.621-.2v-5.8c1.1-.274,1.8-2,1.8-2.977A2.3,2.3,0,0,0,13.88,1.5ZM2.44,3.616A15.61,15.61,0,0,1,5.731,3.3a15.61,15.61,0,0,1,3.291.313,15.61,15.61,0,0,1-3.291.313A15.368,15.368,0,0,1,2.44,3.616ZM6.319,8.16a2.429,2.429,0,1,1,2.429,2.429A2.467,2.467,0,0,1,6.319,8.16Z" transform="translate(-1.5 -1.5)" fill="#1d4999"/>
</svg>
