<svg xmlns="http://www.w3.org/2000/svg" width="16.813" height="16.771" viewBox="0 0 16.813 16.771">
  <path id="bpSysDys" d="M10.586,9.223a.709.709,0,0,0-.363-.591V7.5a.363.363,0,1,0-.727,0V8.632a.709.709,0,0,0-.363.591.669.669,0,0,0,.681.681A.785.785,0,0,0,10.586,9.223ZM15.855,1.5A2.6,2.6,0,0,0,13.4,4.271v.045c0,1.136.863,3.135,2.09,3.452v6.678a3.141,3.141,0,0,1-3.135,3.135,3.105,3.105,0,0,1-3.135-2.953c1.09-.136,2.09-.409,2.09-.909V12.357a3.483,3.483,0,0,0,1.817-4.588,3.547,3.547,0,0,0-1.817-1.817v-2c0-1-4.088-1.045-4.906-1.045S1.5,2.954,1.5,3.953v9.812c0,1,4.088,1.045,4.906,1.045.318,0,1.181,0,2.135-.091a3.844,3.844,0,0,0,7.677-.227V7.769c1.272-.318,2.09-2.317,2.09-3.452A2.671,2.671,0,0,0,15.855,1.5ZM2.59,3.953A18.1,18.1,0,0,1,6.406,3.59a18.1,18.1,0,0,1,3.816.363,18.1,18.1,0,0,1-3.816.363A17.82,17.82,0,0,1,2.59,3.953Zm4.5,5.27A2.817,2.817,0,1,1,9.9,12.039,2.861,2.861,0,0,1,7.088,9.223Z" transform="translate(-1.5 -1.5)" fill="#fc7349"/>
</svg>
