<svg id="bucket" xmlns="http://www.w3.org/2000/svg" width="17" height="17" viewBox="0 0 17 17">
  <path id="Path_44582" data-name="Path 44582" d="M16.15,12.715v-.531a.85.85,0,0,0-.85-.85H13.317V11.05a.85.85,0,0,0-.85-.85h-.283V.85a.85.85,0,0,0-.85-.85h-.567a.85.85,0,0,0-.85.85V3.967H8.188A1.417,1.417,0,0,0,6.327,2.915a1.688,1.688,0,0,0-2.87-.242,1.659,1.659,0,0,0-.623-.123A1.7,1.7,0,0,0,1.159,3.967H.567A.567.567,0,0,0,0,4.533V5.667a.567.567,0,0,0,.567.567H.595l1,9.5A1.417,1.417,0,0,0,3,17H16.15a.85.85,0,0,0,.829-1.039Zm-.567-.531v.283H6.517v-.283A.283.283,0,0,1,6.8,11.9h8.5A.283.283,0,0,1,15.583,12.183ZM12.75,11.05v.283H9.35V11.05a.283.283,0,0,1,.283-.283h2.833A.283.283,0,0,1,12.75,11.05ZM10.483.85a.283.283,0,0,1,.283-.283h.567a.283.283,0,0,1,.283.283V10.2H10.483ZM2.833,3.117a1.112,1.112,0,0,1,.581.166.283.283,0,0,0,.4-.113,1.124,1.124,0,0,1,2.09.211.283.283,0,0,0,.43.16A.845.845,0,0,1,7.6,3.967H1.74a1.133,1.133,0,0,1,1.093-.85ZM.567,4.533h9.35V5.667H.567ZM2.158,15.673,1.165,6.233H9.917V10.2H9.633a.85.85,0,0,0-.85.85v.283H6.8a.85.85,0,0,0-.85.85v.531l-.831,3.258a.842.842,0,0,0,.035.46H3a.85.85,0,0,1-.846-.761Zm14.213.656a.283.283,0,0,1-.22.105H14.733V14.167a.283.283,0,1,0-.567,0v2.267H13.033V14.167a.283.283,0,0,0-.567,0v2.267H11.333V14.167a.283.283,0,1,0-.567,0v2.267H9.633V14.167a.283.283,0,1,0-.567,0v2.267H7.933V14.167a.283.283,0,1,0-.567,0v2.267H5.95a.283.283,0,0,1-.22-.105A.279.279,0,0,1,5.67,16.1l.783-3.068h9.193l.781,3.057a.283.283,0,0,1-.057.238Z" transform="translate(0 0)" fill="#fff"/>
  <path id="Path_44583" data-name="Path 44583" d="M24.133,1a1.133,1.133,0,1,0,1.133,1.133A1.133,1.133,0,0,0,24.133,1Zm0,1.7a.567.567,0,1,1,.567-.567A.567.567,0,0,1,24.133,2.7Z" transform="translate(-16.483 -0.717)" fill="#fff"/>
  <path id="Path_44584" data-name="Path 44584" d="M6,.85A.85.85,0,1,0,6.85,0,.85.85,0,0,0,6,.85ZM6.85.567A.283.283,0,1,1,6.567.85.283.283,0,0,1,6.85.567Z" transform="translate(-4.3)" fill="#fff"/>
</svg>
