<svg id="calculator" xmlns="http://www.w3.org/2000/svg" width="20.38" height="20.38" viewBox="0 0 20.38 20.38">
  <path id="Path_44504" data-name="Path 44504" d="M1.791,9.593H7.8A1.793,1.793,0,0,0,9.593,7.8V1.791A1.793,1.793,0,0,0,7.8,0H1.791A1.793,1.793,0,0,0,0,1.791V7.8A1.793,1.793,0,0,0,1.791,9.593ZM3.025,4.219H4.219V3.025a.6.6,0,1,1,1.194,0V4.219H6.607a.6.6,0,0,1,0,1.194H5.413V6.607a.6.6,0,0,1-1.194,0V5.413H3.025a.6.6,0,1,1,0-1.194Z" transform="translate(0 0)" fill="#929292"/>
  <path id="Path_44505" data-name="Path 44505" d="M278.8,0h-6.01A1.793,1.793,0,0,0,271,1.791V7.8a1.793,1.793,0,0,0,1.791,1.791h6.01A1.793,1.793,0,0,0,280.593,7.8V1.791A1.793,1.793,0,0,0,278.8,0Zm-1.194,5.413h-3.622a.6.6,0,1,1,0-1.194h3.622a.6.6,0,0,1,0,1.194Z" transform="translate(-260.213 0)" fill="#929292"/>
  <path id="Path_44506" data-name="Path 44506" d="M278.8,271h-6.01A1.793,1.793,0,0,0,271,272.791v6.01a1.793,1.793,0,0,0,1.791,1.791h6.01a1.793,1.793,0,0,0,1.791-1.791v-6.01A1.793,1.793,0,0,0,278.8,271Zm-1.194,6.568h-3.622a.6.6,0,1,1,0-1.194h3.622a.6.6,0,0,1,0,1.194Zm0-2.388h-3.622a.6.6,0,1,1,0-1.194h3.622a.6.6,0,0,1,0,1.194Z" transform="translate(-260.213 -260.213)" fill="#929292"/>
  <path id="Path_44507" data-name="Path 44507" d="M9.593,278.8v-6.01A1.793,1.793,0,0,0,7.8,271H1.791A1.793,1.793,0,0,0,0,272.791v6.01a1.793,1.793,0,0,0,1.791,1.791H7.8A1.793,1.793,0,0,0,9.593,278.8ZM6.5,276.621a.6.6,0,1,1-.844.844l-.844-.844-.844.844a.6.6,0,0,1-.844-.844l.844-.844-.844-.844a.6.6,0,1,1,.844-.844l.844.844.844-.844a.6.6,0,0,1,.844.844l-.844.844Z" transform="translate(0 -260.213)" fill="#929292"/>
</svg>
