<svg xmlns="http://www.w3.org/2000/svg" width="14.879" height="13.905" viewBox="0 0 14.879 13.905">
  <g id="calendar_4_" data-name="calendar (4)" transform="translate(-1 -2)">
    <path id="Path_44796" data-name="Path 44796" d="M14.256,2H12.866V3.391a.464.464,0,1,1-.927,0V2H4.523V3.391a.464.464,0,1,1-.927,0V2H2.205A1.277,1.277,0,0,0,1,3.391V5.059H15.832V3.391A1.564,1.564,0,0,0,14.256,2ZM1,6.033v8.482a1.258,1.258,0,0,0,1.251,1.391H14.3a1.564,1.564,0,0,0,1.576-1.391V6.033ZM5.125,13.82H4.013a.366.366,0,0,1-.371-.371V12.29a.366.366,0,0,1,.371-.371H5.172a.366.366,0,0,1,.371.371v1.159A.406.406,0,0,1,5.125,13.82Zm0-4.172H4.013a.366.366,0,0,1-.371-.371V8.118a.366.366,0,0,1,.371-.371H5.172a.366.366,0,0,1,.371.371V9.277A.406.406,0,0,1,5.125,9.648ZM8.833,13.82H7.675a.366.366,0,0,1-.371-.371V12.29a.366.366,0,0,1,.371-.371H8.833a.366.366,0,0,1,.371.371v1.159A.341.341,0,0,1,8.833,13.82Zm0-4.172H7.675A.366.366,0,0,1,7.3,9.277V8.118a.366.366,0,0,1,.371-.371H8.833a.366.366,0,0,1,.371.371V9.277A.341.341,0,0,1,8.833,9.648Zm3.708,4.172H11.383a.366.366,0,0,1-.371-.371V12.29a.366.366,0,0,1,.371-.371h1.159a.366.366,0,0,1,.371.371v1.159A.341.341,0,0,1,12.541,13.82Zm0-4.172H11.383a.366.366,0,0,1-.371-.371V8.118a.366.366,0,0,1,.371-.371h1.159a.366.366,0,0,1,.371.371V9.277A.341.341,0,0,1,12.541,9.648Z" fill="#546788"/>
  </g>
</svg>
