<svg xmlns="http://www.w3.org/2000/svg" width="14.28" height="15.578" viewBox="0 0 14.28 15.578">
  <g id="celsius" transform="translate(0)">
    <g id="Group_181" data-name="Group 181" transform="translate(0)">
      <g id="Group_180" data-name="Group 180">
        <path id="Path_44698" data-name="Path 44698" d="M110.561,1.623a1.623,1.623,0,0,0-3.245,0v10.1a2.272,2.272,0,1,0,3.245,0Zm-1.623,13.306a1.625,1.625,0,0,1-1.623-1.623,1.6,1.6,0,0,1,.542-1.2.326.326,0,0,0,.107-.241V1.623a.974.974,0,1,1,1.947,0V11.864a.326.326,0,0,0,.107.241,1.6,1.6,0,0,1,.542,1.2A1.625,1.625,0,0,1,108.939,14.929Z" transform="translate(-104.071)" fill="#fff"/>
        <path id="Path_44699" data-name="Path 44699" d="M150.631,219.235v-5.577a.325.325,0,0,0-.649,0v5.577a.974.974,0,1,0,.649,0Zm-.325,1.238a.325.325,0,1,1,.325-.325A.325.325,0,0,1,150.307,220.473Z" transform="translate(-145.439 -206.842)" fill="#fff"/>
        <path id="Path_44700" data-name="Path 44700" d="M23.6,341.333H21.658a.325.325,0,0,0,0,.649H23.6a.325.325,0,0,0,0-.649Z" transform="translate(-21.333 -330.948)" fill="#fff"/>
        <path id="Path_44701" data-name="Path 44701" d="M64.974,298.667h-.649a.325.325,0,1,0,0,.649h.649a.325.325,0,1,0,0-.649Z" transform="translate(-62.702 -289.58)" fill="#fff"/>
        <path id="Path_44702" data-name="Path 44702" d="M64.974,256h-.649a.325.325,0,1,0,0,.649h.649a.325.325,0,1,0,0-.649Z" transform="translate(-62.702 -248.211)" fill="#fff"/>
        <path id="Path_44703" data-name="Path 44703" d="M21.658,213.982H23.6a.325.325,0,1,0,0-.649H21.658a.325.325,0,1,0,0,.649Z" transform="translate(-21.333 -206.842)" fill="#fff"/>
        <path id="Path_44704" data-name="Path 44704" d="M21.658,85.982H23.6a.325.325,0,1,0,0-.649H21.658a.325.325,0,1,0,0,.649Z" transform="translate(-21.333 -82.737)" fill="#fff"/>
        <path id="Path_44705" data-name="Path 44705" d="M64.974,170.667h-.649a.325.325,0,1,0,0,.649h.649a.325.325,0,1,0,0-.649Z" transform="translate(-62.702 -165.474)" fill="#fff"/>
        <path id="Path_44706" data-name="Path 44706" d="M64.974,128h-.649a.325.325,0,1,0,0,.649h.649a.325.325,0,1,0,0-.649Z" transform="translate(-62.702 -124.105)" fill="#fff"/>
        <path id="Path_44707" data-name="Path 44707" d="M278.958,149.983h.649a.975.975,0,0,1,.974.974.325.325,0,0,0,.649,0,1.625,1.625,0,0,0-1.623-1.623h-.649a1.625,1.625,0,0,0-1.623,1.623v2.6a1.625,1.625,0,0,0,1.623,1.623h.649a1.625,1.625,0,0,0,1.623-1.623.325.325,0,1,0-.649,0,.975.975,0,0,1-.974.974h-.649a.975.975,0,0,1-.974-.974v-2.6A.975.975,0,0,1,278.958,149.983Z" transform="translate(-269.546 -144.79)" fill="#fff"/>
        <path id="Path_44708" data-name="Path 44708" d="M427.641,149.333a.974.974,0,1,0,.974.974A.975.975,0,0,0,427.641,149.333Zm0,1.3a.325.325,0,1,1,.325-.325A.325.325,0,0,1,427.641,150.631Z" transform="translate(-414.334 -144.789)" fill="#fff"/>
      </g>
    </g>
  </g>
</svg>
