<svg xmlns="http://www.w3.org/2000/svg" width="28.558" height="25.823" viewBox="0 0 28.558 25.823">
  <path id="conversation" d="M24.843,29.257h1.015a2.708,2.708,0,0,1,2.7,2.7V44.568a2.708,2.708,0,0,1-2.7,2.7H23.816v2.786a.288.288,0,0,1-.5.2l-2.828-2.984h-7.61a2.708,2.708,0,0,1-2.7-2.7V43.423h11.07a3.6,3.6,0,0,0,3.592-3.592ZM21.251,24.52H2.7A2.708,2.708,0,0,0,0,27.22V39.831a2.708,2.708,0,0,0,2.7,2.7H4.742v2.786a.288.288,0,0,0,.5.2l2.828-2.984H21.251a2.708,2.708,0,0,0,2.7-2.7V27.22a2.708,2.708,0,0,0-2.7-2.7ZM4.039,30.188H19.912a.461.461,0,0,0,0-.921H4.039a.461.461,0,0,0,0,.921Zm0,7.6a.461.461,0,0,1,0-.921H8.41a.461.461,0,0,1,0,.921Zm6.721,0H14.2a.461.461,0,0,0,0-.921H10.76a.461.461,0,0,0,0,.921Zm5.546,0h3.606a.461.461,0,0,0,0-.921H16.306a.461.461,0,0,0,0,.921Zm-12.267-3.8a.461.461,0,0,1,0-.921H8.41a.461.461,0,1,1,0,.921Zm6.721,0h9.152a.461.461,0,0,0,0-.921H10.76a.461.461,0,1,0,0,.921Z" transform="translate(0 -24.52)" fill="#fff" fill-rule="evenodd"/>
</svg>
