<svg xmlns="http://www.w3.org/2000/svg" width="20.149" height="20.149" viewBox="0 0 20.149 20.149">
  <g id="Group_16519" data-name="Group 16519" transform="translate(-1685 -244)">
    <rect id="Rectangle_18834" data-name="Rectangle 18834" width="20.149" height="20.149" rx="10" transform="translate(1685 244)" fill="#319731"/>
    <g id="check" transform="translate(1689.81 250.098)">
      <path id="Path_44397" data-name="Path 44397" d="M10.854-439.844c-.241.08-.25.088-3.315,3.346l-3.016,3.205-1.365-1.451c-1.268-1.344-1.376-1.454-1.518-1.524a.882.882,0,0,0-1.041.154,1.021,1.021,0,0,0-.287.888c.057.327.021.285,1.924,2.3C3.9-431.158,4-431.053,4.145-430.987a.943.943,0,0,0,.589.061c.28-.08.161.039,3.737-3.764,3.7-3.942,3.491-3.7,3.548-4.049a1,1,0,0,0-.67-1.1A1,1,0,0,0,10.854-439.844Z" transform="translate(-0.298 439.875)" fill="#fff"/>
    </g>
  </g>
</svg>
