<svg xmlns="http://www.w3.org/2000/svg" width="16" height="16" viewBox="0 0 16 16">
  <path id="Subtraction_21" data-name="Subtraction 21" d="M8,16a8,8,0,1,1,8-8A8.009,8.009,0,0,1,8,16ZM4.547,7.624a.7.7,0,0,0-.489.2.8.8,0,0,0-.228.7l0,.014c.041.242.041.242,1.468,1.753l.058.061c1.319,1.4,1.4,1.485,1.516,1.537a.769.769,0,0,0,.317.068.562.562,0,0,0,.151-.019l.019-.005c.193-.054.193-.054,2.67-2.687l.278-.3.461-.491C13.092,6,13.092,6,13.121,5.786c0-.013,0-.026.006-.041a.794.794,0,0,0-.532-.878.7.7,0,0,0-.2-.024.677.677,0,0,0-.2.024c-.191.064-.215.089-2.632,2.658L7.175,10.07,6.09,8.917C5.076,7.842,5,7.763,4.885,7.707A.76.76,0,0,0,4.547,7.624Z" fill="#319731"/>
</svg>
