<svg xmlns="http://www.w3.org/2000/svg" width="16.992" height="16.932" viewBox="0 0 16.992 16.932">
  <path id="leader" d="M19.691,38.925h7.98L26.4,37.516a.35.35,0,0,1-.086-.315L27,33.886l-.822.975a.154.154,0,0,1-.253-.024L24.283,31.92a8.637,8.637,0,0,0-5.1,6.4A.513.513,0,0,0,19.691,38.925Zm7.981-16.932a4.36,4.36,0,1,1-4.36,4.36A4.36,4.36,0,0,1,27.672,21.993Zm0,11.091L25.6,31.48a8.68,8.68,0,0,1,4.143,0Zm.676.8.684,3.315a.351.351,0,0,1-.086.315l-1.274,1.409h7.98a.513.513,0,0,0,.507-.606,8.637,8.637,0,0,0-5.1-6.4l-1.637,2.917a.154.154,0,0,1-.253.024Z" transform="translate(-19.176 -21.993)" fill="#929292" fill-rule="evenodd"/>
</svg>
