<svg xmlns="http://www.w3.org/2000/svg" width="30" height="30" viewBox="0 0 30 30">
  <g id="claim" transform="translate(-1320 -949)">
    <rect id="Rectangle_21720" data-name="Rectangle 21720" width="30" height="30" transform="translate(1320 949)" fill="#ffddd9"/>
    <g id="Group_18757" data-name="Group 18757" transform="translate(1301.759 956.556)">
      <g id="Group_18756" data-name="Group 18756" transform="translate(26.57)">
        <g id="Group_18755" data-name="Group 18755">
          <path id="Path_50145" data-name="Path 50145" d="M113.612,200.582a.582.582,0,0,0-.582-.582h-5.99a.582.582,0,1,0,0,1.163h5.99A.582.582,0,0,0,113.612,200.582Z" transform="translate(-104.136 -194.185)" fill="#f5311a"/>
          <path id="Path_50146" data-name="Path 50146" d="M107.041,280a.582.582,0,1,0,0,1.163h3.638a.582.582,0,1,0,0-1.163Z" transform="translate(-104.136 -271.859)" fill="#f5311a"/>
          <path id="Path_50147" data-name="Path 50147" d="M30.841,13.724H28.9a1.164,1.164,0,0,1-1.163-1.163V2.326A1.164,1.164,0,0,1,28.9,1.163h7.15a1.164,1.164,0,0,1,1.163,1.163V5.9a.582.582,0,1,0,1.163,0V2.326A2.329,2.329,0,0,0,36.046,0H28.9A2.329,2.329,0,0,0,26.57,2.326V12.561A2.329,2.329,0,0,0,28.9,14.887h1.945a.582.582,0,0,0,0-1.163Z" transform="translate(-26.57)" fill="#f5311a"/>
          <path id="Path_50148" data-name="Path 50148" d="M249.983,272.534a1.746,1.746,0,0,0-2.467,0l-3.193,3.186a.581.581,0,0,0-.146.243l-.7,2.289a.581.581,0,0,0,.712.729l2.347-.65a.581.581,0,0,0,.256-.149l3.186-3.18A1.747,1.747,0,0,0,249.983,272.534Zm-3.9,4.716-1.181.327.346-1.138,2.154-2.15.823.823Zm3.077-3.072-.113.112-.822-.822.112-.112a.582.582,0,0,1,.823.822Z" transform="translate(-237.151 -264.115)" fill="#f5311a"/>
          <path id="Path_50149" data-name="Path 50149" d="M113.03,120h-5.99a.582.582,0,0,0,0,1.163h5.99a.582.582,0,0,0,0-1.163Z" transform="translate(-104.136 -116.511)" fill="#f5311a"/>
        </g>
      </g>
    </g>
  </g>
</svg>
