<svg xmlns="http://www.w3.org/2000/svg" width="423.175" height="511.999" viewBox="0 0 423.175 511.999">
  <g id="Group_18889" data-name="Group 18889" transform="translate(-44.412)">
    <g id="Group_18884" data-name="Group 18884">
      <g id="Group_18883" data-name="Group 18883">
        <path id="Path_50063" data-name="Path 50063" d="M119.187,18.461l-56.3,56.283a5.725,5.725,0,0,0,4.047,9.774h56.3a5.726,5.726,0,0,0,5.725-5.726V22.51A5.725,5.725,0,0,0,119.187,18.461Z" fill="#fff"/>
      </g>
    </g>
    <g id="Group_18886" data-name="Group 18886">
      <g id="Group_18885" data-name="Group 18885">
        <path id="Path_50064" data-name="Path 50064" d="M370.022,316.87a97.564,97.564,0,1,0,97.565,97.564A97.674,97.674,0,0,0,370.022,316.87Zm-15.033,59.493a15.034,15.034,0,0,1,30.068,0v38.072a15.034,15.034,0,0,1-30.068,0Zm29.99,79.337a14.056,14.056,0,0,1-.22,1.463,13.471,13.471,0,0,1-.361,1.423c-.14.471-.311.932-.49,1.383s-.4.9-.631,1.333a14.246,14.246,0,0,1-.752,1.263,14.7,14.7,0,0,1-.883,1.193,12.852,12.852,0,0,1-.991,1.092c-.341.351-.712.682-1.092,1-.382.3-.782.6-1.193.872a14.5,14.5,0,0,1-1.263.752c-.432.231-.882.441-1.333.631a13.346,13.346,0,0,1-1.383.491,11.91,11.91,0,0,1-1.423.361,12.239,12.239,0,0,1-1.463.221,14.546,14.546,0,0,1-1.474.08,14.735,14.735,0,0,1-1.482-.08,11.95,11.95,0,0,1-1.453-.221,11.83,11.83,0,0,1-1.433-.361,13.191,13.191,0,0,1-1.383-.491c-.451-.19-.9-.4-1.333-.631s-.853-.481-1.264-.752-.812-.571-1.183-.872a14.861,14.861,0,0,1-1.1-1,12.509,12.509,0,0,1-.992-1.092,14.339,14.339,0,0,1-.872-1.193,12.446,12.446,0,0,1-.762-1.263,13.194,13.194,0,0,1-.621-1.333,13.411,13.411,0,0,1-.5-1.383c-.14-.461-.261-.942-.361-1.423a14.616,14.616,0,0,1-.221-1.463,14.241,14.241,0,0,1-.07-1.473c0-.491.021-.992.07-1.483a14.284,14.284,0,0,1,.221-1.453c.1-.481.221-.962.361-1.433a14.317,14.317,0,0,1,.5-1.383,13.414,13.414,0,0,1,.621-1.333A15.95,15.95,0,0,1,358.4,444.7a14.521,14.521,0,0,1,.992-1.1c.351-.341.712-.682,1.1-.992a13.019,13.019,0,0,1,1.183-.872c.411-.271.832-.531,1.264-.762a16.641,16.641,0,0,1,2.716-1.122c.471-.14.951-.261,1.433-.361s.972-.17,1.453-.221a14.61,14.61,0,0,1,2.957,0,14.14,14.14,0,0,1,1.463.221c.48.1.951.221,1.423.361a16.641,16.641,0,0,1,2.716,1.122,14.74,14.74,0,0,1,1.263.762,14.4,14.4,0,0,1,3.276,2.966,12.983,12.983,0,0,1,.883,1.183q.406.617.752,1.263c.229.431.44.882.631,1.333s.351.922.49,1.383a13.778,13.778,0,0,1,.361,1.433,14.277,14.277,0,0,1,.22,1.453,14.448,14.448,0,0,1,.08,1.483A14.256,14.256,0,0,1,384.979,455.7Z" fill="#fff"/>
      </g>
    </g>
    <g id="Group_18888" data-name="Group 18888">
      <g id="Group_18887" data-name="Group 18887">
        <path id="Path_50065" data-name="Path 50065" d="M342.673,0H164.752a5.725,5.725,0,0,0-5.725,5.725V98.851c0,.118-.015.233-.018.35s.018.232.018.35a15.034,15.034,0,0,1-15.034,15.034H50.137a5.725,5.725,0,0,0-5.725,5.725V400.715A42.384,42.384,0,0,0,86.8,443.1h157.98a10.434,10.434,0,0,0,10.254-12.414,117.72,117.72,0,0,1-2.147-22.438c0-64.7,52.445-112.129,117.14-112.129q2.135,0,4.251.076a10.43,10.43,0,0,0,10.782-10.439V42.384A42.383,42.383,0,0,0,342.673,0ZM196.11,356.74H119.62a15.034,15.034,0,1,1,0-30.068h76.49a15.034,15.034,0,0,1,0,30.068Zm113.74-59.848H119.619a15.034,15.034,0,1,1,0-30.068H309.85a15.034,15.034,0,0,1,0,30.068Zm0-60.309H119.619a15.034,15.034,0,1,1,0-30.068H309.85a15.034,15.034,0,0,1,0,30.068Zm0-57.993H119.619a15.034,15.034,0,0,1,0-30.068H309.85a15.034,15.034,0,0,1,0,30.068Z" fill="#fff"/>
      </g>
    </g>
  </g>
</svg>
