<svg id="Ikon" xmlns="http://www.w3.org/2000/svg" width="15.55" height="15.67" viewBox="0 0 15.55 15.67">
  <path id="Path_44807" data-name="Path 44807" d="M11.242,14.146,17.278,8.11a1.67,1.67,0,0,0,0-2.36L13.844,2.318a1.67,1.67,0,0,0-2.36,0L5.449,8.353a1.664,1.664,0,0,0-.441,1.554l-2.3,2.3a1.671,1.671,0,0,0,0,2.361l2.32,2.32a1.663,1.663,0,0,0,1.187.488.524.524,0,0,0,.336.12h7.788a.556.556,0,1,0,0-1.113H7.888l1.8-1.8a1.664,1.664,0,0,0,1.554-.441Zm-7.752-.36a.558.558,0,0,1,0-.788l2.122-2.122L8.72,13.983,6.6,16.105a.573.573,0,0,1-.787,0Z" transform="translate(-2.215 -1.83)" fill="#1d4999"/>
</svg>
