<svg xmlns="http://www.w3.org/2000/svg" width="17" height="17" viewBox="0 0 17 17">
  <g id="clean" transform="translate(-1 -1)">
    <path id="Path_44590" data-name="Path 44590" d="M19.823,53.213a.823.823,0,0,0,.823-.823,3.227,3.227,0,0,0-.6-1.253.285.285,0,0,0-.451,0A3.227,3.227,0,0,0,19,52.39.823.823,0,0,0,19.823,53.213Zm0-1.411a2.045,2.045,0,0,1,.274.588.274.274,0,0,1-.548,0,2.045,2.045,0,0,1,.274-.588Z" transform="translate(-13.065 -36.31)" fill="#fff"/>
    <path id="Path_44591" data-name="Path 44591" d="M16.081,1H2.919A1.922,1.922,0,0,0,1,2.919V8.4a.274.274,0,0,0,.274.274H2.687l.236,1.416a.274.274,0,0,0,.27.229H6.939l1.19,2.261v1.029a.274.274,0,0,0,.274.274h.288a2.746,2.746,0,0,0,2.728,2.468A1.647,1.647,0,0,1,13.065,18h.548a2.2,2.2,0,0,0-2.194-2.194,2.2,2.2,0,0,1-2.175-1.919H9.8a1.647,1.647,0,0,0,1.62,1.371A2.745,2.745,0,0,1,14.161,18h.548a3.294,3.294,0,0,0-3.29-3.29,1.1,1.1,0,0,1-1.058-.823H10.6a.274.274,0,0,0,.274-.274V12.584l1.19-2.261h3.745a.274.274,0,0,0,.27-.229l.236-1.416h1.413A.274.274,0,0,0,18,8.4V2.919A1.922,1.922,0,0,0,16.081,1ZM13.216,8.129l.288-.548h2.3v.548Zm-2.783,4.113h-.32l.981-4.661h1.791ZM6.115,7.581H7.907l.981,4.661h-.32Zm3.333,4.661L8.467,7.581h2.066l-.981,4.661Zm-.771.548h1.645v.548H8.677Zm7.129-7.952H3.194V4.29H15.806ZM3.194,5.387H15.806v.548H3.194Zm0,1.1H15.806v.548H3.194Zm0,1.1H5.5l.289.548H3.194Zm.232,2.194-.183-1.1h2.83l.577,1.1Zm12.148,0H12.35l.576-1.1h2.832Zm1.877-1.645h-1.1V4.016a.274.274,0,0,0-.274-.274H2.919a.274.274,0,0,0-.274.274V8.129h-1.1V2.919A1.373,1.373,0,0,1,2.919,1.548H16.081a1.373,1.373,0,0,1,1.371,1.371Z" fill="#fff"/>
    <path id="Path_44592" data-name="Path 44592" d="M8.6,41.138A3.228,3.228,0,0,0,8,42.39a.823.823,0,0,0,1.645,0,3.228,3.228,0,0,0-.6-1.253.285.285,0,0,0-.451,0Zm.226,1.527a.274.274,0,0,1-.274-.274,2.045,2.045,0,0,1,.274-.589,2.045,2.045,0,0,1,.274.589.274.274,0,0,1-.274.274Z" transform="translate(-5.081 -29.052)" fill="#fff"/>
    <path id="Path_44593" data-name="Path 44593" d="M15.6,36.138A3.228,3.228,0,0,0,15,37.39a.823.823,0,0,0,1.645,0,3.228,3.228,0,0,0-.6-1.253.285.285,0,0,0-.451,0Zm.226,1.527a.274.274,0,0,1-.274-.274,2.045,2.045,0,0,1,.274-.589,2.045,2.045,0,0,1,.274.589A.274.274,0,0,1,15.823,37.664Z" transform="translate(-10.161 -25.422)" fill="#fff"/>
    <path id="Path_44594" data-name="Path 44594" d="M43.6,36.138A3.228,3.228,0,0,0,43,37.39a.823.823,0,0,0,1.645,0,3.228,3.228,0,0,0-.6-1.253.285.285,0,0,0-.451,0Zm.5,1.253a.274.274,0,1,1-.548,0,2.045,2.045,0,0,1,.274-.589A2.045,2.045,0,0,1,44.1,37.39Z" transform="translate(-30.484 -25.422)" fill="#fff"/>
    <path id="Path_44595" data-name="Path 44595" d="M51.048,41.138a.285.285,0,0,0-.451,0A3.228,3.228,0,0,0,50,42.39a.823.823,0,0,0,1.645,0A3.228,3.228,0,0,0,51.048,41.138Zm-.226,1.527a.274.274,0,0,1-.274-.274,2.045,2.045,0,0,1,.274-.589,2.045,2.045,0,0,1,.274.589A.274.274,0,0,1,50.823,42.664Z" transform="translate(-35.565 -29.052)" fill="#fff"/>
  </g>
</svg>
