<svg xmlns="http://www.w3.org/2000/svg" xmlns:xlink="http://www.w3.org/1999/xlink" width="47.144" height="26.82" viewBox="0 0 47.144 26.82">
  <defs>
    <linearGradient id="linear-gradient" x1="0.5" y1="1" x2="0.5" y2="-0.482" gradientUnits="objectBoundingBox">
      <stop offset="0" stop-color="#fff" stop-opacity="0.431"/>
      <stop offset="1" stop-color="#538fd4"/>
    </linearGradient>
    <filter id="Ellipse_812" x="7.752" y="0" width="26.82" height="26.82" filterUnits="userSpaceOnUse">
      <feOffset dy="3" input="SourceAlpha"/>
      <feGaussianBlur stdDeviation="3" result="blur"/>
      <feFlood flood-opacity="0.161"/>
      <feComposite operator="in" in2="blur"/>
      <feComposite in="SourceGraphic"/>
    </filter>
  </defs>
  <g id="Group_16544" data-name="Group 16544" transform="translate(-230 -811)">
    <path id="Path_45575" data-name="Path 45575" d="M2478.93,321.151s1.634-4.255,2.449-6.888,3.945-3,3.945-3a12.441,12.441,0,0,1,3.669-2.039c1.63-.408,5.707-.408,7.337-1.631s2.853-2.854,5.707-3.262,4.484-7.421,7.337-4.526,5.707-2.895,9.375,0,7.325-1.349,7.325-1.349v22.7" transform="translate(-2248.93 515.548)" fill="url(#linear-gradient)"/>
    <g transform="matrix(1, 0, 0, 1, 230, 811)" filter="url(#Ellipse_812)">
      <g id="Ellipse_812-2" data-name="Ellipse 812" transform="translate(16.75 6)" fill="#538fd4" stroke="#fff" stroke-width="1">
        <circle cx="4.41" cy="4.41" r="4.41" stroke="none"/>
        <circle cx="4.41" cy="4.41" r="3.91" fill="none"/>
      </g>
    </g>
  </g>
</svg>
