<svg xmlns="http://www.w3.org/2000/svg" width="14.245" height="13.844" viewBox="0 0 14.245 13.844">
  <g id="Layer_25" transform="translate(-53.43 -65.36)">
    <g id="Group_12760" data-name="Group 12760" transform="translate(53.893 65.36)">
      <path id="Path_45063" data-name="Path 45063" d="M78.783,71.4a.4.4,0,0,1-.251.124h-.605a4.846,4.846,0,0,0-.879-2.156l.418-.418a.393.393,0,0,1,.265-.09.707.707,0,0,0,.572-1.19l-.577-.577c-.4-.4-1.132-.212-1.19.572a.4.4,0,0,1-.09.265l-.409.409a4.852,4.852,0,0,0-2.165-.924v-.552A.4.4,0,0,1,74,66.606a.707.707,0,0,0-.437-1.246h-.816a.7.7,0,0,0-.437,1.246.4.4,0,0,1,.123.251V67.4a4.852,4.852,0,0,0-2.2.9l-.37-.37a.4.4,0,0,1-.091-.265.706.706,0,0,0-1.19-.572L68,67.663c-.4.4-.212,1.132.572,1.189a.4.4,0,0,1,.265.09l.365.365a4.851,4.851,0,0,0-.918,2.209h-.514a.4.4,0,0,1-.251-.124.707.707,0,0,0-1.246.437v.817a.7.7,0,0,0,1.246.436.4.4,0,0,1,.251-.123h.518a4.85,4.85,0,0,0,.928,2.2l-.38.38a.4.4,0,0,1-.265.091A.706.706,0,0,0,68,76.814l.577.577c.4.4,1.132.212,1.19-.572a.4.4,0,0,1,.09-.265l.389-.389a4.841,4.841,0,0,0,2.185.883v.573a.4.4,0,0,1-.123.252.707.707,0,0,0,.437,1.246h.816a.7.7,0,0,0,.437-1.246.4.4,0,0,1-.123-.252v-.585a4.848,4.848,0,0,0,2.146-.908l.428.428a.4.4,0,0,1,.091.265.707.707,0,0,0,1.19.572l.577-.577c.4-.4.212-1.133-.572-1.19a.4.4,0,0,1-.265-.09l-.432-.433a4.848,4.848,0,0,0,.889-2.141h.61a.4.4,0,0,1,.251.123.707.707,0,0,0,1.246-.437v-.816A.7.7,0,0,0,78.783,71.4Zm-8.612,2.182a.277.277,0,1,1,.277-.277A.277.277,0,0,1,70.171,73.578Zm2.1,1.586a.893.893,0,1,1,.893-.893.894.894,0,0,1-.893.893Zm-.4-2.568a1.57,1.57,0,1,1,1.569-1.57A1.572,1.572,0,0,1,71.877,72.6Zm2.384-3.287a.277.277,0,1,1-.277.277A.277.277,0,0,1,74.261,69.308Zm-.208,5.6a.277.277,0,1,1,.277-.277A.277.277,0,0,1,74.054,74.91Zm1.317-1.635a1.009,1.009,0,1,1,1.009-1.009A1.01,1.01,0,0,1,75.371,73.275Z" transform="translate(-66.27 -65.36)" fill="#546788"/>
    </g>
    <g id="Group_12764" data-name="Group 12764" transform="translate(53.43 68.467)">
      <g id="Group_12761" data-name="Group 12761" transform="translate(8.85 9.341)">
        <path id="Path_45064" data-name="Path 45064" d="M299.268,410.15a.7.7,0,1,0,.7.7A.7.7,0,0,0,299.268,410.15Z" transform="translate(-298.57 -410.15)" fill="#546788"/>
      </g>
      <g id="Group_12762" data-name="Group 12762" transform="translate(11.97 5.139)">
        <path id="Path_45065" data-name="Path 45065" d="M386.108,293.74a1.138,1.138,0,1,0,1.138,1.138A1.139,1.139,0,0,0,386.108,293.74Z" transform="translate(-384.97 -293.74)" fill="#546788"/>
      </g>
      <g id="Group_12763" data-name="Group 12763" transform="translate(0 0)">
        <circle id="Ellipse_706" data-name="Ellipse 706" cx="0.919" cy="0.919" r="0.919" transform="translate(0 1.3) rotate(-45)" fill="#546788"/>
      </g>
    </g>
  </g>
</svg>
