<svg width="8" height="8" viewBox="0 0 8 8" fill="none" xmlns="http://www.w3.org/2000/svg">
<g id="Vector">
<path d="M3.49201 2.07366L1.41836 0L0.375868 1.03855C0.0822863 1.33213 -0.0420782 1.73221 0.00624496 2.22801C0.20798 4.29722 3.72006 8 5.9216 8C6.34045 8 6.69381 7.86741 6.96152 7.5997L8.00007 6.57657L5.92641 4.50244L4.87115 5.54504C4.791 5.62565 4.66482 5.63962 4.57802 5.57848C4.23199 5.33322 3.85516 5.03872 3.51967 4.70323C3.08617 4.26949 2.67372 3.77563 2.41654 3.43465C2.34372 3.338 2.35196 3.20724 2.43577 3.12365L3.49201 2.07366Z" fill="#434242"/>
<path d="M7.06204 3.28303H7.53105C7.53105 1.73128 6.26877 0.469005 4.71702 0.469005V0.938009C6.01 0.938009 7.06204 1.99006 7.06204 3.28303Z" fill="#434242"/>
<path d="M4.71702 1.87602C5.49289 1.87602 6.12403 2.50716 6.12403 3.28303H6.59304C6.59304 2.24861 5.75144 1.40701 4.71702 1.40701V1.87602Z" fill="#434242"/>
<path d="M4.71702 2.81403C4.97557 2.81403 5.18602 3.02449 5.18602 3.28303H5.65503C5.65503 2.7657 5.23435 2.34502 4.71702 2.34502V2.81403Z" fill="#434242"/>
</g>
</svg>
