<svg xmlns="http://www.w3.org/2000/svg" width="20.343" height="20.338" viewBox="0 0 20.343 20.338">
  <g id="dashboard" transform="translate(0 0)">
    <path id="Path_238" data-name="Path 238" d="M1.076-511.713a1.557,1.557,0,0,0-.891.883,9.8,9.8,0,0,0-.068,2.5l.012,2.3.135.251a1.561,1.561,0,0,0,.712.676L1.2-505h7.16l.239-.115a1.656,1.656,0,0,0,.72-.72l.115-.239v-4.614l-.107-.227a1.561,1.561,0,0,0-.676-.712l-.251-.135-3.56-.008A23.794,23.794,0,0,0,1.076-511.713Z" transform="translate(-0.114 511.776)" fill="#929292"/>
    <path id="Path_239" data-name="Path 239" d="M278.506-511.722a1.574,1.574,0,0,0-.9.815l-.1.223v9.706l.115.239a1.657,1.657,0,0,0,.72.72l.239.115h7.16l.227-.107a1.561,1.561,0,0,0,.712-.676l.135-.251v-9.786l-.107-.219a1.687,1.687,0,0,0-.708-.708l-.219-.107-3.56-.008C279.354-511.774,278.626-511.766,278.506-511.722Z" transform="translate(-266.466 511.769)" fill="#929292"/>
    <path id="Path_240" data-name="Path 240" d="M1.526-298.678a1.559,1.559,0,0,0-.915.788L.5-297.68v9.786l.107.219a1.688,1.688,0,0,0,.708.708l.219.107h7.24L9.025-287a1.561,1.561,0,0,0,.676-.712l.107-.227v-9.706l-.115-.239a1.657,1.657,0,0,0-.72-.72l-.239-.115-3.52-.008C2.382-298.726,1.662-298.718,1.526-298.678Z" transform="translate(-0.485 307.198)" fill="#929292"/>
    <path id="Path_241" data-name="Path 241" d="M278.1-170.715a1.579,1.579,0,0,0-.736.557c-.274.394-.271.366-.259,2.848l.012,2.224.107.227a1.56,1.56,0,0,0,.676.712l.251.135h7.24l.219-.107a1.689,1.689,0,0,0,.708-.708l.107-.219v-4.694l-.135-.251a1.561,1.561,0,0,0-.712-.676l-.227-.107-3.521-.008C278.442-170.79,278.3-170.79,278.1-170.715Z" transform="translate(-266.079 184.35)" fill="#929292"/>
  </g>
</svg>
