<svg id="trash_1_" data-name="trash (1)" xmlns="http://www.w3.org/2000/svg" width="12.405" height="15.67" viewBox="0 0 12.405 15.67">
  <path id="Path_45283" data-name="Path 45283" d="M24.752,9.959H21.814V9.632A1.634,1.634,0,0,0,20.182,8H18.223a1.634,1.634,0,0,0-1.632,1.632v.326H13.653a.653.653,0,0,0-.653.653v.979a.653.653,0,0,0,.653.653h11.1a.653.653,0,0,0,.653-.653v-.979A.653.653,0,0,0,24.752,9.959ZM17.9,9.632a.327.327,0,0,1,.326-.326h1.959a.327.327,0,0,1,.326.326v.326H17.9Z" transform="translate(-13 -8)" fill="#1d4999"/>
  <path id="Path_45284" data-name="Path 45284" d="M26,23.214A.653.653,0,0,0,25.516,23H15.853a.653.653,0,0,0-.65.715l.8,8.386a1.9,1.9,0,0,0,1.951,1.672h5.456A1.9,1.9,0,0,0,25.363,32.1l.8-8.386A.653.653,0,0,0,26,23.214Zm-6.84,8.925h-.042a.653.653,0,0,1-.651-.612l-.392-6.2a.653.653,0,1,1,1.3-.082l.392,6.2A.653.653,0,0,1,19.159,32.139Zm3.744-.61a.653.653,0,0,1-.651.612H22.21a.653.653,0,0,1-.61-.693l.392-6.2a.653.653,0,1,1,1.3.082Z" transform="translate(-14.482 -18.103)" fill="#1d4999"/>
</svg>
