<svg xmlns="http://www.w3.org/2000/svg" width="30" height="30" viewBox="0 0 30 30">
  <g id="Group_12438" data-name="Group 12438" transform="translate(-1699 -983.527)">
    <rect id="Rectangle_18865" data-name="Rectangle 18865" width="30" height="30" transform="translate(1699 983.527)" fill="#ffefef"/>
    <g id="Icon_feather-trash-2" data-name="Icon feather-trash-2" transform="translate(1707 991.799)">
      <path id="Path_9743" data-name="Path 9743" d="M4.5,9H18.275" transform="translate(-4.5 -6.054)" fill="none" stroke="#fe3535" stroke-linecap="round" stroke-linejoin="round" stroke-width="1.3"/>
      <path id="Path_9744" data-name="Path 9744" d="M18.214,5.946v10.31a1.5,1.5,0,0,1-1.531,1.473H9.031A1.5,1.5,0,0,1,7.5,16.256V5.946m2.3,0V4.473A1.5,1.5,0,0,1,11.326,3h3.061a1.5,1.5,0,0,1,1.531,1.473V5.946" transform="translate(-5.969 -3)" fill="none" stroke="#fe3535" stroke-linecap="round" stroke-linejoin="round" stroke-width="1.3"/>
      <path id="Path_9745" data-name="Path 9745" d="M15,16.5v4.419" transform="translate(-9.643 -9.872)" fill="none" stroke="#fe3535" stroke-linecap="round" stroke-linejoin="round" stroke-width="1.3"/>
      <path id="Path_9746" data-name="Path 9746" d="M21,16.5v4.419" transform="translate(-12.581 -9.872)" fill="none" stroke="#fe3535" stroke-linecap="round" stroke-linejoin="round" stroke-width="1.3"/>
    </g>
  </g>
</svg>
