<svg xmlns="http://www.w3.org/2000/svg" width="17.143" height="15.368" viewBox="0 0 17.143 15.368">
  <g id="healthy-food" transform="translate(0 -26.5)">
    <path id="Path_45069" data-name="Path 45069" d="M233.117,30.256a3.409,3.409,0,0,1,.48,1.373l2.225-2.684a2.623,2.623,0,0,1,1.411-.876,2.939,2.939,0,0,0-2.607-1.569,3.564,3.564,0,0,0-2.126.636,3.38,3.38,0,0,1,.616,3.12Z" transform="translate(-224.716 0)" fill="#546788"/>
    <path id="Path_45070" data-name="Path 45070" d="M.634,33.123H5.479L4.458,32.092H2.592a.492.492,0,1,1,0-.984h.882L1.82,29.453a.492.492,0,0,1,.7-.7L4.17,30.411V29.53a.492.492,0,0,1,.985,0V31.4l1.754,1.727H7.8A2.393,2.393,0,0,0,7.258,30.8a2.379,2.379,0,0,0-3.223-3.224,2.391,2.391,0,0,0-3.288-.02,2.378,2.378,0,0,0-.074,3.382,2.369,2.369,0,0,0-.039,2.187Z" transform="translate(-0.003 -0.395)" fill="#546788"/>
    <path id="Path_45071" data-name="Path 45071" d="M279.637,58.928l-2.6,3.142h5.66l.047-.039a1.61,1.61,0,0,0,.214-2.264,2.318,2.318,0,0,1,1.3-.03.5.5,0,0,0,.3-.96,3.427,3.427,0,0,0-1.493-.071,3.427,3.427,0,0,0-.071-1.493.5.5,0,0,0-.96.3A2.321,2.321,0,0,1,282,58.8a1.609,1.609,0,0,0-2.359.129Z" transform="translate(-267.757 -29.342)" fill="#546788"/>
    <path id="Path_45072" data-name="Path 45072" d="M16.64,242.5H.5a.483.483,0,0,0-.5.46,7.151,7.151,0,0,0,2.4,5.307q.205.188.422.36H14.317q.217-.172.422-.36a7.151,7.151,0,0,0,2.4-5.307A.482.482,0,0,0,16.64,242.5Z" transform="translate(0 -208.767)" fill="#546788"/>
    <path id="Path_45073" data-name="Path 45073" d="M68.888,455.5H56.5a.5.5,0,0,0,0,1H68.888a.5.5,0,1,0,0-1Z" transform="translate(-54.123 -414.636)" fill="#546788"/>
  </g>
</svg>
