<svg id="diet" xmlns="http://www.w3.org/2000/svg" width="26.691" height="26.691" viewBox="0 0 26.691 26.691">
  <path id="Path_44244" data-name="Path 44244" d="M3.961,79.192a.782.782,0,1,1,0-1.564h7.056A9.809,9.809,0,0,1,11,76.064H3.961a.782.782,0,1,1,0-1.564h7.276c.731-2.969,2.995-5.253,6.016-5.043V60.689a.782.782,0,0,0-.782-.782h-1.3v1.3a2.348,2.348,0,0,1-2.346,2.345H4.483A2.348,2.348,0,0,1,2.137,61.21v-1.3H.782A.782.782,0,0,0,0,60.689V81.016a.782.782,0,0,0,.782.782h11.61a9.254,9.254,0,0,1-1.1-2.606H3.961Zm0-14.073h6.255a.782.782,0,1,1,0,1.564H3.961a.782.782,0,1,1,0-1.564Zm0,3.127h9.382a.782.782,0,1,1,0,1.564H3.961a.782.782,0,1,1,0-1.564Zm0,3.127h6.255a.782.782,0,1,1,0,1.564H3.961a.782.782,0,1,1,0-1.564Z" transform="translate(0 -56.784)" fill="#929292"/>
  <path id="Path_44245" data-name="Path 44245" d="M71.772,5.208h8.34a.782.782,0,0,0,.782-.782V2.342a.782.782,0,0,0-.782-.782H78.153a2.348,2.348,0,0,0-4.423,0H71.772a.782.782,0,0,0-.782.782V4.427A.782.782,0,0,0,71.772,5.208Z" transform="translate(-67.289 -0.001)" fill="#929292"/>
  <path id="Path_44246" data-name="Path 44246" d="M248.245,216.105a6.724,6.724,0,0,1,.775-2.589.782.782,0,0,0-1.389-.718,8.319,8.319,0,0,0-.946,3.218c-3.393-1.822-6.811,1.621-6.132,6.4.611,4.294,4.167,6.776,6.99,4.984,2.871,1.822,6.389-.756,6.99-4.984C255.236,217.483,251.623,214.115,248.245,216.105Zm-1.512,5.844a.782.782,0,0,1-1.54.271l-.136-.77a.782.782,0,0,1,1.54-.271Zm3.129.288a.782.782,0,0,1-1.54-.271l.136-.77a.782.782,0,0,1,1.54.271Z" transform="translate(-227.932 -201.304)" fill="#929292"/>
</svg>
