<svg id="discount" xmlns="http://www.w3.org/2000/svg" width="15.989" height="16.663" viewBox="0 0 15.989 16.663">
  <g id="Group_12409" data-name="Group 12409" transform="translate(0 0)">
    <g id="Group_12408" data-name="Group 12408">
      <path id="Path_44894" data-name="Path 44894" d="M25.577,8.545a.488.488,0,0,1,0-.432L26.2,6.842a1.447,1.447,0,0,0-.624-1.921l-1.25-.663a.488.488,0,0,1-.254-.349l-.244-1.394a1.447,1.447,0,0,0-1.634-1.187l-1.4.2a.488.488,0,0,1-.41-.133L19.363.409a1.446,1.446,0,0,0-2.02,0l-1.017.984a.488.488,0,0,1-.41.133l-1.4-.2a1.446,1.446,0,0,0-1.634,1.187l-.244,1.394a.488.488,0,0,1-.254.349l-1.25.663a1.447,1.447,0,0,0-.624,1.921l.621,1.271a.488.488,0,0,1,0,.432l-.621,1.271a1.447,1.447,0,0,0,.624,1.921l1.25.663a.488.488,0,0,1,.254.349l.244,1.394a1.446,1.446,0,0,0,1.426,1.2,1.486,1.486,0,0,0,.208-.015l1.4-.2a.488.488,0,0,1,.41.133l1.017.984a1.446,1.446,0,0,0,2.02,0l1.017-.984a.489.489,0,0,1,.41-.133l1.4.2a1.446,1.446,0,0,0,1.634-1.187l.245-1.394a.488.488,0,0,1,.254-.349l1.25-.663A1.447,1.447,0,0,0,26.2,9.817ZM16.431,4a1.762,1.762,0,1,1-1.762,1.762A1.764,1.764,0,0,1,16.431,4Zm-.909,7.836a.481.481,0,1,1-.68-.68l6.343-6.343a.481.481,0,1,1,.68.68Zm4.754.814a1.762,1.762,0,1,1,1.762-1.762A1.764,1.764,0,0,1,20.275,12.654Z" transform="translate(-10.359 0.002)" fill="#546788"/>
    </g>
  </g>
  <g id="Group_12411" data-name="Group 12411" transform="translate(9.115 10.094)">
    <g id="Group_12410" data-name="Group 12410">
      <path id="Path_44895" data-name="Path 44895" d="M291.253,310.141a.8.8,0,1,0,.8.8A.8.8,0,0,0,291.253,310.141Z" transform="translate(-290.452 -310.141)" fill="#546788"/>
    </g>
  </g>
  <g id="Group_12413" data-name="Group 12413" transform="translate(5.271 4.968)">
    <g id="Group_12412" data-name="Group 12412">
      <path id="Path_44896" data-name="Path 44896" d="M173.134,152.646a.8.8,0,1,0,.8.8A.8.8,0,0,0,173.134,152.646Z" transform="translate(-172.333 -152.646)" fill="#546788"/>
    </g>
  </g>
</svg>
