<svg xmlns="http://www.w3.org/2000/svg" width="14.122" height="14.123" viewBox="0 0 14.122 14.123">
  <g id="discount_1_" data-name="discount (1)" transform="translate(0)">
    <path id="Path_45955" data-name="Path 45955" d="M222.468,175.991a.417.417,0,1,0-.295.122A.414.414,0,0,0,222.468,175.991Z" transform="translate(-215.645 -170.449)" fill="#546788"/>
    <path id="Path_45956" data-name="Path 45956" d="M221.885,346.409a.417.417,0,1,0,0-.589A.414.414,0,0,0,221.885,346.409Z" transform="translate(-215.652 -336.171)" fill="#546788"/>
    <path id="Path_45957" data-name="Path 45957" d="M14.123,1.48A1.476,1.476,0,0,0,12.655.011L8.541,0H8.536A2.081,2.081,0,0,0,7.074.605l-6.7,6.7a1.242,1.242,0,0,0,0,1.754l4.7,4.7a1.24,1.24,0,0,0,1.754,0l6.7-6.7a2.08,2.08,0,0,0,.605-1.467ZM12.46,2.918a1.244,1.244,0,1,1-1.244-1.243A1.245,1.245,0,0,1,12.46,2.918ZM3.522,8.008a.413.413,0,1,1,0-.827H9.556a.413.413,0,1,1,0,.827Zm3.9,2.814A1.243,1.243,0,0,1,5.66,9.064h0a1.243,1.243,0,1,1,1.759,1.759ZM5.3,5.247a1.242,1.242,0,1,1,.364.879A1.235,1.235,0,0,1,5.3,5.247Z" transform="translate(-0.012 0)" fill="#546788"/>
  </g>
</svg>
