<svg xmlns="http://www.w3.org/2000/svg" width="16.033" height="17.035" viewBox="0 0 16.033 17.035">
  <g id="disinfection" transform="translate(-43.698 -37.058)">
    <path id="Path_44596" data-name="Path 44596" d="M143.7,172a1.056,1.056,0,1,0,1.056-1.056A1.057,1.057,0,0,0,143.7,172Zm1.508,0a.452.452,0,1,1-.452-.452A.453.453,0,0,1,145.206,172Z" transform="translate(-92.459 -123.788)" fill="#fff"/>
    <path id="Path_44597" data-name="Path 44597" d="M248.072,201.057a.323.323,0,1,0,.322.322A.322.322,0,0,0,248.072,201.057Z" transform="translate(-188.664 -151.631)" fill="#fff"/>
    <path id="Path_44598" data-name="Path 44598" d="M203.75,221.38a.322.322,0,1,0,.322-.322A.322.322,0,0,0,203.75,221.38Z" transform="translate(-147.982 -170.124)" fill="#fff"/>
    <path id="Path_44599" data-name="Path 44599" d="M204.072,37.7a.323.323,0,1,0-.322-.323A.322.322,0,0,0,204.072,37.7Z" transform="translate(-147.982)" fill="#fff"/>
    <path id="Path_44600" data-name="Path 44600" d="M156.072,61.7a.323.323,0,1,0-.322-.323A.322.322,0,0,0,156.072,61.7Z" transform="translate(-103.602 -22.19)" fill="#fff"/>
    <path id="Path_44601" data-name="Path 44601" d="M184,95.035a.3.3,0,0,0,.184-.063l.478-.368a.3.3,0,1,0-.368-.478l-.478.368a.3.3,0,0,0,.184.541Z" transform="translate(-129.442 -52.707)" fill="#fff"/>
    <path id="Path_44602" data-name="Path 44602" d="M203.445,75.266a.3.3,0,0,0,.184-.063l.988-.76a.3.3,0,1,0-.368-.478l-.988.76a.3.3,0,0,0,.184.541Z" transform="translate(-147.421 -34.066)" fill="#fff"/>
    <path id="Path_44603" data-name="Path 44603" d="M229.66,59.911a.3.3,0,0,0,.184-.063l.478-.368a.3.3,0,1,0-.368-.478l-.478.368a.3.3,0,0,0,.184.541Z" transform="translate(-171.658 -20.231)" fill="#fff"/>
    <path id="Path_44604" data-name="Path 44604" d="M187.707,109.3a.3.3,0,0,0,.373.207l.58-.166a.3.3,0,1,0-.166-.58l-.58.166A.3.3,0,0,0,187.707,109.3Z" transform="translate(-133.138 -66.281)" fill="#fff"/>
    <path id="Path_44605" data-name="Path 44605" d="M208.938,101.685a.3.3,0,0,0,.373.207l1.021-.292a.3.3,0,1,0-.166-.58l-1.021.292A.3.3,0,0,0,208.938,101.685Z" transform="translate(-152.767 -59.128)" fill="#fff"/>
    <path id="Path_44606" data-name="Path 44606" d="M236.016,95.495a.3.3,0,0,0,.373.207l.58-.166a.3.3,0,1,0-.166-.58l-.58.166A.3.3,0,0,0,236.016,95.495Z" transform="translate(-177.803 -53.521)" fill="#fff"/>
    <path id="Path_44607" data-name="Path 44607" d="M184.294,135.849a.3.3,0,0,0,.184.063.3.3,0,0,0,.184-.541l-.478-.368a.3.3,0,1,0-.368.478Z" transform="translate(-129.442 -90.5)" fill="#fff"/>
    <path id="Path_44608" data-name="Path 44608" d="M204.432,151.262a.3.3,0,0,0,.184-.541l-.988-.76a.3.3,0,1,0-.368.478l.988.76A.3.3,0,0,0,204.432,151.262Z" transform="translate(-147.42 -104.331)" fill="#fff"/>
    <path id="Path_44609" data-name="Path 44609" d="M229.843,170.125a.3.3,0,1,0-.368.478l.478.368a.3.3,0,1,0,.368-.478Z" transform="translate(-171.658 -122.974)" fill="#fff"/>
    <path id="Path_44610" data-name="Path 44610" d="M188.66,123.121l-.58-.166a.3.3,0,1,0-.166.58l.58.166a.3.3,0,0,0,.083.012.3.3,0,0,0,.083-.592Z" transform="translate(-133.138 -79.408)" fill="#fff"/>
    <path id="Path_44611" data-name="Path 44611" d="M210.25,129.9a.3.3,0,0,0,.083-.592l-1.021-.292a.3.3,0,1,0-.166.58l1.021.292A.3.3,0,0,0,210.25,129.9Z" transform="translate(-152.768 -85.015)" fill="#fff"/>
    <path id="Path_44612" data-name="Path 44612" d="M237.176,137.295a.3.3,0,0,0-.207-.373l-.58-.166a.3.3,0,1,0-.166.58l.58.166a.3.3,0,0,0,.083.012.3.3,0,0,0,.29-.219Z" transform="translate(-177.803 -92.168)" fill="#fff"/>
    <path id="Path_44613" data-name="Path 44613" d="M57.574,62.629H49.731V54.484h1.207a.906.906,0,0,0,.9-.9.9.9,0,0,0-.056-.3h1.564v.3a.3.3,0,0,0,.6,0V51.468a.3.3,0,1,0-.6,0v.3h-3.92a1.5,1.5,0,0,0-.3-.3v-.3h.6a.3.3,0,0,0,.3-.3V49.658a.3.3,0,0,0-.3-.3h-.6v-.9a1.51,1.51,0,0,0-1.508-1.508h-.3a1.51,1.51,0,0,0-1.508,1.508v2.992l-.025.025H44a.3.3,0,0,0-.3.3V56.9a.3.3,0,0,0,.167.27l1.569.785-.209,4.677H44.3a.3.3,0,0,0,0,.6H57.574a.3.3,0,1,0,0-.6ZM49.128,49.96h.3v.6h-.3Zm-3.665,7.333L44.3,56.711v-4.64h1.207v.754h0v3.456Zm7.888-4.919v.3h-3.62v-.018a1.488,1.488,0,0,0-.029-.284Zm-4.223.284v.018h-.292l-.346-.865A.886.886,0,0,1,49.128,52.657Zm-.6-3h-.64a.6.6,0,0,1-.566-.629v-.276h1.207Zm-1.207-2.112h.3a.9.9,0,0,1,.849.6h-2A.9.9,0,0,1,47.318,47.546Zm-.9,1.207h.3v.276a1.2,1.2,0,0,0,1.17,1.232h.64v.9H46.413Zm.6,13.876.8-2.911.4,2.911Zm2.12,0h-.306l-.61-4.445a.3.3,0,0,0-.279-.26.3.3,0,0,0-.311.221l-1.24,4.484h-.553L46.1,56.6h3.03Zm0-6.636H46.111V52.149a.38.38,0,0,1,.379-.379h.28a.9.9,0,0,0,.009.638l.6,1.508a.9.9,0,0,0,.84.569h.9Zm-.9-2.112a.3.3,0,0,1-.28-.19l-.6-1.508a.3.3,0,0,1,.56-.224l.452,1.129a.3.3,0,0,0,.28.19h2.306a.3.3,0,0,1,0,.6H48.223Z" transform="translate(0 -9.14)" fill="#fff"/>
  </g>
</svg>
