<svg xmlns="http://www.w3.org/2000/svg" width="17.516" height="19" viewBox="0 0 17.516 19">
  <path id="order" d="M8.617.709V7.147h3.229V.709a1.614,1.614,0,0,0-3.229,0ZM.677,3.519a.557.557,0,0,1,.787-.787l.3.305.986-.985A1.723,1.723,0,1,0,3.375,3L2.163,4.217a.557.557,0,0,1-.787,0ZM3.546,1.26l.7-.7a.557.557,0,0,1,.787.787l-.795.795a2.837,2.837,0,1,1-.691-.883ZM-1.774,12.9a.557.557,0,0,0-.557.557.557.557,0,0,0,.557.557.557.557,0,0,0,.557-.557A.557.557,0,0,0-1.774,12.9ZM.453,14.012a.557.557,0,0,1,0-1.113H5.834a.557.557,0,0,1,0,1.113Zm-2.227-3.34a.557.557,0,0,0-.557.557.557.557,0,0,0,.557.557.557.557,0,0,0,.557-.557A.557.557,0,0,0-1.774,10.672ZM.453,11.786a.557.557,0,1,1,0-1.113H5.834a.557.557,0,0,1,0,1.113ZM8.617,8.26v8.164a.557.557,0,0,1-.557.557H-4a.556.556,0,0,1-.557-.557V.653A2.676,2.676,0,0,1-1.885-2.019H10.231A2.734,2.734,0,0,1,12.959.709V7.7a.557.557,0,0,1-.557.557ZM8.035-.906A2.712,2.712,0,0,0,7.5.709V15.868H-3.444V.653A1.563,1.563,0,0,1-1.885-.906ZM-1.774,8.446A.557.557,0,0,0-2.331,9a.557.557,0,0,0,.557.557A.557.557,0,0,0-1.217,9,.557.557,0,0,0-1.774,8.446ZM.453,9.559H5.834a.557.557,0,0,0,0-1.113H.453a.557.557,0,0,0,0,1.113Zm0,0" transform="translate(4.557 2.019)" fill="#6185c7" fill-rule="evenodd"/>
</svg>
