<svg id="doctor" xmlns="http://www.w3.org/2000/svg" width="13.058" height="13.058" viewBox="0 0 13.058 13.058">
  <path id="Path_44510" data-name="Path 44510" d="M11.385,303.908l-2.209-1.386-.016.017q-.077.077-.157.147v1.965h.408a.894.894,0,0,1,.893.893v.663a.638.638,0,0,1-.638.638H9.284a.383.383,0,1,1,0-.765h.255v-.536a.128.128,0,0,0-.128-.128H7.779a.128.128,0,0,0-.128.128v.536h.255a.383.383,0,1,1,0,.765H7.524a.638.638,0,0,1-.638-.638v-.663a.894.894,0,0,1,.893-.893h.459v-1.467a3.2,3.2,0,0,1-1.345.294H6.166a3.2,3.2,0,0,1-1.358-.3v1.569a1.148,1.148,0,1,1-.765-.009v-2.064q-.074-.066-.145-.136l-.016-.017-2.209,1.386A3.571,3.571,0,0,0,0,306.932v.932H13.058v-.932A3.571,3.571,0,0,0,11.385,303.908Z" transform="translate(0 -294.806)" fill="#00e3e5"/>
  <path id="Path_44511" data-name="Path 44511" d="M158.383,417.765a.383.383,0,1,0-.383-.383A.383.383,0,0,0,158.383,417.765Z" transform="translate(-153.97 -406.365)" fill="#00e3e5"/>
  <path id="Path_44512" data-name="Path 44512" d="M146,3.9h5.611V1.53A1.53,1.53,0,0,0,150.081,0h-2.55A1.53,1.53,0,0,0,146,1.53Zm2.168-2.139h.255V1.5a.383.383,0,0,1,.765,0V1.76h.255a.383.383,0,0,1,0,.765h-.255V2.78a.383.383,0,0,1-.765,0V2.525h-.255a.383.383,0,0,1,0-.765Z" transform="translate(-142.276)" fill="#00e3e5"/>
  <path id="Path_44513" data-name="Path 44513" d="M148.442,186.1h.727a2.442,2.442,0,0,0,2.442-2.442v-.8H146v.8A2.442,2.442,0,0,0,148.442,186.1Z" transform="translate(-142.276 -178.195)" fill="#00e3e5"/>
</svg>
