<svg xmlns="http://www.w3.org/2000/svg" width="13.519" height="13.519" viewBox="0 0 13.519 13.519">
  <g id="doctor" transform="translate(0)">
    <path id="Path_44551" data-name="Path 44551" d="M11.787,303.956,9.5,302.522l-.017.017q-.079.079-.163.152v2.035h.422a.925.925,0,0,1,.924.924v.686a.661.661,0,0,1-.66.66h-.4a.4.4,0,1,1,0-.792h.264v-.554a.132.132,0,0,0-.132-.132H8.053a.132.132,0,0,0-.132.132v.554h.264a.4.4,0,1,1,0,.792h-.4a.661.661,0,0,1-.66-.66v-.686a.925.925,0,0,1,.924-.924h.475v-1.519a3.309,3.309,0,0,1-1.393.3H6.383a3.309,3.309,0,0,1-1.406-.311v1.624a1.189,1.189,0,1,1-.792-.009V302.68q-.077-.068-.15-.141l-.017-.017-2.286,1.434A3.7,3.7,0,0,0,0,307.088v.965H13.519v-.965A3.7,3.7,0,0,0,11.787,303.956Z" transform="translate(0 -294.534)" fill="#00cbff"/>
    <path id="Path_44552" data-name="Path 44552" d="M158.4,417.792a.4.4,0,1,0-.4-.4A.4.4,0,0,0,158.4,417.792Z" transform="translate(-153.828 -405.99)" fill="#00cbff"/>
    <path id="Path_44553" data-name="Path 44553" d="M146,4.036h5.809V1.584A1.584,1.584,0,0,0,150.225,0h-2.64A1.584,1.584,0,0,0,146,1.584Zm2.244-2.214h.264V1.558a.4.4,0,1,1,.792,0v.264h.264a.4.4,0,0,1,0,.792H149.3v.264a.4.4,0,1,1-.792,0V2.614h-.264a.4.4,0,1,1,0-.792Z" transform="translate(-142.145)" fill="#00cbff"/>
    <path id="Path_44554" data-name="Path 44554" d="M148.528,186.216h.753a2.528,2.528,0,0,0,2.528-2.528v-.829H146v.829A2.528,2.528,0,0,0,148.528,186.216Z" transform="translate(-142.145 -178.031)" fill="#00cbff"/>
  </g>
</svg>
