<svg id="prescription" xmlns="http://www.w3.org/2000/svg" width="15.098" height="20.131" viewBox="0 0 15.098 20.131">
  <g id="Group_8125" data-name="Group 8125" transform="translate(0)">
    <path id="Path_44498" data-name="Path 44498" d="M78.975,4.316,74.782.123a.418.418,0,0,0-.3-.123H65.678A1.68,1.68,0,0,0,64,1.678V18.454a1.68,1.68,0,0,0,1.678,1.678H77.421A1.68,1.68,0,0,0,79.1,18.454V4.613A.418.418,0,0,0,78.975,4.316Zm-11.2,13.3a1.258,1.258,0,1,1,1.258-1.258A1.26,1.26,0,0,1,67.775,17.615Zm0-4.194a1.258,1.258,0,1,1,1.258-1.258A1.26,1.26,0,0,1,67.775,13.421Zm2.516-4.194H68.613a.419.419,0,0,1-.419-.419V7.549H66.936a.419.419,0,0,1-.419-.419V5.452a.419.419,0,0,1,.419-.419h1.258V3.775a.419.419,0,0,1,.419-.419h1.678a.419.419,0,0,1,.419.419V5.033h1.258a.419.419,0,0,1,.419.419V7.13a.419.419,0,0,1-.419.419H70.71V8.808A.419.419,0,0,1,70.291,9.227Zm5.872,7.549H71.13a.419.419,0,0,1,0-.839h5.033a.419.419,0,0,1,0,.839Zm0-4.194H71.13a.419.419,0,0,1,0-.839h5.033a.419.419,0,0,1,0,.839Zm-.419-8.388a.84.84,0,0,1-.839-.839V1.432l2.762,2.762Z" transform="translate(-64 0)" fill="#1d4999"/>
  </g>
</svg>
