<svg xmlns="http://www.w3.org/2000/svg" width="16.87" height="18" viewBox="0 0 16.87 18">
  <g id="intravenous-saline-drip" transform="translate(-16.079)">
    <path id="Path_45405" data-name="Path 45405" d="M25.573,1.582A1.584,1.584,0,0,0,23.991,0h-6.33a1.584,1.584,0,0,0-1.582,1.582v.563h9.494Z" fill="#fc7349"/>
    <path id="Path_45406" data-name="Path 45406" d="M25.573,91H16.079v5.273h9.494ZM21.88,94.166h-.527v.526a.527.527,0,0,1-1.055,0v-.526H19.77a.527.527,0,0,1,0-1.055H20.3v-.529a.527.527,0,0,1,1.055,0v.529h.527a.527.527,0,1,1,0,1.055Z" transform="translate(0 -87.801)" fill="#fc7349"/>
    <path id="Path_45407" data-name="Path 45407" d="M22.48,275.746v-1.832l.483-.05A2.981,2.981,0,0,0,25.64,271H16.151a2.98,2.98,0,0,0,2.676,2.863l.485.05v1.832a.527.527,0,0,0,.527.527h2.113A.527.527,0,0,0,22.48,275.746Z" transform="translate(-0.069 -261.473)" fill="#fc7349"/>
    <path id="Path_45408" data-name="Path 45408" d="M149.467,70.492h-.518V63.638a2.638,2.638,0,1,0-5.277,0v10.58A1.584,1.584,0,0,1,142.09,75.8h-2.109a1.584,1.584,0,0,1-1.5-1.09H137.39a2.641,2.641,0,0,0,2.591,2.145h2.109a2.64,2.64,0,0,0,2.637-2.637V63.638a1.584,1.584,0,0,1,3.168,0v6.854h-.536a.527.527,0,0,0-.527.527v2.109a1.584,1.584,0,0,0,1.064,1.494v1.7a.527.527,0,1,0,1.055,0V74.617a1.585,1.585,0,0,0,1.046-1.488V71.02A.527.527,0,0,0,149.467,70.492Z" transform="translate(-117.046 -58.855)" fill="#fc7349"/>
  </g>
</svg>
