<svg id="write" xmlns="http://www.w3.org/2000/svg" width="8.412" height="10" viewBox="0 0 8.412 10">
  <path id="Path_44457" data-name="Path 44457" d="M8.887,8.4a.71.71,0,0,0,.21-.03l1.8-.36a1.157,1.157,0,0,0,.53-.29l4.359-4.359a1.793,1.793,0,0,0,0-2.489l-.37-.39a1.805,1.805,0,0,0-2.5,0L8.557,4.846a1.2,1.2,0,0,0-.29.53L7.887,7.2a1.018,1.018,0,0,0,1,1.2Zm.34-2.829L13.585,1.2a.8.8,0,0,1,1.1,0l.38.38a.776.776,0,0,1,0,1.15L10.716,7.1l-1.849.31Z" transform="translate(-7.875 0.025)" fill="#f2970f"/>
  <path id="Path_44458" data-name="Path 44458" d="M15.858,90.4H8.48a.451.451,0,0,0-.48.48.48.48,0,0,0,.48.48h7.338a.481.481,0,1,0,.04-.96Z" transform="translate(-7.987 -81.36)" fill="#f2970f"/>
</svg>
