<svg xmlns="http://www.w3.org/2000/svg" width="20" height="13.849" viewBox="0 0 20 13.849">
  <g id="Group_18916" data-name="Group 18916" transform="translate(0.001 0)">
    <path id="Path_50092" data-name="Path 50092" d="M6.073,7.624A4.392,4.392,0,0,1,8,1.766,3.161,3.161,0,1,0,2.932,5.4c.04.04.081.078.122.116a5.571,5.571,0,0,0-.716.35,5.661,5.661,0,0,0-2.016,2,2.268,2.268,0,0,0-.017,2.3A2.294,2.294,0,0,0,2.32,11.34H3.613A3.508,3.508,0,0,1,4.1,9.749a6.889,6.889,0,0,1,1.97-2.125Zm0,0" transform="translate(0 0)" fill="#546788"/>
    <path id="Path_50093" data-name="Path 50093" d="M314.786,7.9a5.662,5.662,0,0,0-2.016-2,5.57,5.57,0,0,0-.716-.35c.041-.037.082-.076.122-.116a3.161,3.161,0,1,0-5.071-3.63,4.391,4.391,0,0,1,1.929,5.858A6.887,6.887,0,0,1,311,9.787a3.509,3.509,0,0,1,.49,1.591h1.293a2.3,2.3,0,0,0,2.015-1.173,2.269,2.269,0,0,0-.017-2.3Zm0,0" transform="translate(-295.11 -0.039)" fill="#546788"/>
    <path id="Path_50094" data-name="Path 50094" d="M131.695,70.092a5.593,5.593,0,0,0-.716-.35q.062-.056.122-.116a3.161,3.161,0,1,0-4.47,0c.04.04.081.078.122.116a5.571,5.571,0,0,0-.716.35,5.662,5.662,0,0,0-2.016,2A2.268,2.268,0,0,0,124,74.4a2.294,2.294,0,0,0,2.015,1.173h5.694a2.3,2.3,0,0,0,2.015-1.173,2.269,2.269,0,0,0-.017-2.3A5.661,5.661,0,0,0,131.695,70.092Zm0,0" transform="translate(-118.867 -61.721)" fill="#546788"/>
  </g>
</svg>
