<svg xmlns="http://www.w3.org/2000/svg" width="16.112" height="21.318" viewBox="0 0 16.112 21.318">
  <g id="export-file" transform="translate(-4.448 -2.708)">
    <path id="Path_44786" data-name="Path 44786" d="M17.4,7.667a.888.888,0,0,0,.887.887h4.37L17.4,3.3V7.667Z" transform="translate(-2.565 -0.116)" fill="#1d4999"/>
    <path id="Path_44787" data-name="Path 44787" d="M4.448,5.184V21.55a2.479,2.479,0,0,0,2.476,2.476h11.16A2.479,2.479,0,0,0,20.56,21.55V10.04h-4.84a2.494,2.494,0,0,1-2.491-2.49V2.708h-6.3A2.479,2.479,0,0,0,4.448,5.184ZM9.412,13.74h4.249l-.153-.153a.8.8,0,0,1,1.134-1.134l1.521,1.521a.8.8,0,0,1,0,1.136l-1.521,1.521A.8.8,0,1,1,13.508,15.5l.153-.153H9.412a.8.8,0,0,1,0-1.6Z" fill="#1d4999"/>
  </g>
</svg>
