<svg xmlns="http://www.w3.org/2000/svg" width="35.493" height="28.444" viewBox="0 0 35.493 28.444">
  <g id="fallopian-tubes" transform="translate(-4.998 -9.966)">
    <path id="Path_44556" data-name="Path 44556" d="M6.639,16.2a3.049,3.049,0,0,0-.071,1.306,5.61,5.61,0,0,0,1.207,2.562A5.62,5.62,0,0,0,10.018,21.8a3.062,3.062,0,0,0,1.129.234,2.009,2.009,0,0,0,1.278-.426c1.164-.937.944-3.073-.5-4.869-1.334-1.661-3.166-2.342-4.358-1.7-.312-.05-1.072-.355-1.15-2.066a1.493,1.493,0,0,1,.788-1.37,1.634,1.634,0,0,1,1.7.043,14.781,14.781,0,0,0,6.736,2.1,3.606,3.606,0,0,0-.362,1.569,4.421,4.421,0,0,0,2.385,3.7,3.2,3.2,0,0,1,.866.809,3.5,3.5,0,0,1,.511,3.343,15.3,15.3,0,0,0-.49,7.63c1.051,6.885,3.762,7.552,4.067,7.609a1.03,1.03,0,0,0,.241,0,2.9,2.9,0,0,0,1.356-.809,6.466,6.466,0,0,1,2.832-11.825,11.66,11.66,0,0,0-.61-2.6,3.482,3.482,0,0,1,.511-3.343,3.2,3.2,0,0,1,.866-.809,4.421,4.421,0,0,0,2.385-3.7,3.606,3.606,0,0,0-.362-1.569,14.781,14.781,0,0,0,6.736-2.1,1.649,1.649,0,0,1,1.7-.043,1.531,1.531,0,0,1,.781,1.441c-.078,1.633-.816,1.945-1.15,1.995-1.192-.639-3.024.05-4.358,1.7-1.441,1.8-1.661,3.932-.5,4.869a1.978,1.978,0,0,0,1.263.419,3.531,3.531,0,0,0,1.725-.511,5.919,5.919,0,0,0,1.661-1.448,5.61,5.61,0,0,0,1.207-2.562,3.042,3.042,0,0,0-.071-1.306,3.356,3.356,0,0,0,1.633-3.095l.014-.092a2.891,2.891,0,0,0-1.5-2.648,3.057,3.057,0,0,0-3.166.085,13.985,13.985,0,0,1-7.006,1.916A8.91,8.91,0,0,0,22.744,10.3a8.91,8.91,0,0,0-6.069,2.073,13.9,13.9,0,0,1-7-1.916,3.057,3.057,0,0,0-3.166-.085A2.9,2.9,0,0,0,5,13.014l.007.1A3.351,3.351,0,0,0,6.639,16.2Z" transform="translate(0)" fill="#fff"/>
    <path id="Path_44557" data-name="Path 44557" d="M35.034,34.17a5.05,5.05,0,1,0,5.047,5.054A5.056,5.056,0,0,0,35.034,34.17Zm1.6,5.756h-.887v.894a.71.71,0,0,1-1.42,0v-.894H33.43a.71.71,0,0,1,0-1.42h.894v-.894a.71.71,0,0,1,1.42,0v.894h.894a.71.71,0,1,1-.007,1.42Z" transform="translate(-7.25 -7.024)" fill="#fff"/>
  </g>
</svg>
