<svg xmlns="http://www.w3.org/2000/svg" width="20.221" height="20.588" viewBox="0 0 20.221 20.588">
  <g id="Glyph" transform="translate(0)">
    <path id="Path_45289" data-name="Path 45289" d="M5.4,16.651a28.778,28.778,0,0,0,2.3,3.086h.624a9.3,9.3,0,0,0-.335-1.33A9.82,9.82,0,0,0,5.2,14.225l.485-.535a10.53,10.53,0,0,1,2.99,4.487c.1.284.174.576.243.87.033-.059.066-.118.095-.181.813-1.806.418-4.682-1.31-5.679A3.453,3.453,0,0,0,5,12.992a1.517,1.517,0,0,0-.956.738c-.192.484.335,1.335,1.361,2.921Z" transform="translate(-4.001 -9.262)" fill="#929292"/>
    <path id="Path_45290" data-name="Path 45290" d="M23.6,17.63a2.634,2.634,0,0,0-.162-.636,3.035,3.035,0,0,0-3.191-1.932,1.57,1.57,0,0,0-.795.6,6.14,6.14,0,0,1,.21,4.6c.021-.025.045-.048.065-.072A6.718,6.718,0,0,0,21.1,16.769l.718.079a7.4,7.4,0,0,1-1.521,3.8c-.138.174-.289.338-.444.5h1.666l.03-.014a2.875,2.875,0,0,1,2.054-3.5Z" transform="translate(-13.872 -10.667)" fill="#929292"/>
    <path id="Path_45291" data-name="Path 45291" d="M43.794,22.062h3.617a2.084,2.084,0,0,0-.927-.745,2.645,2.645,0,0,0-.759-.137c-.332-.025-.708-.053-.882-.4-.181-.365.066-.672.264-.92a1.9,1.9,0,0,0,.429-.767c.178-.778.181-2.085-.548-2.494a1.416,1.416,0,0,0-1.1-.078A2.239,2.239,0,0,0,42.6,17.532a2.353,2.353,0,0,0,.042,1.73c.159.583.325,1.2-.113,1.616s-1.094.253-1.723.081a2.724,2.724,0,0,1-.067,1.1H43.06c.09-.511.192-1.024.31-1.527.2-.861.449-1.723.732-2.561l.684.231c-.276.817-.516,1.656-.713,2.5-.105.449-.2.906-.28,1.362Z" transform="translate(-27.468 -11.587)" fill="#929292"/>
    <path id="Path_45292" data-name="Path 45292" d="M31.209,26.947a2.1,2.1,0,0,0,.117-.58l-.6.2-.228-.686.752-.251a2.171,2.171,0,0,0-1.721-1.54v.69h-.722v-.69a2.171,2.171,0,0,0-1.6,1.22l.631.211-.228.686-.6-.2q-.011.108-.011.217a2.126,2.126,0,0,0,.125.722Zm-2.4-1.445h.722v.722h-.722Z" transform="translate(-18.692 -16.472)" fill="#929292"/>
    <path id="Path_45293" data-name="Path 45293" d="M6.763,29.307q-.606-.738-1.167-1.523a5.774,5.774,0,0,0-.955.417,1.143,1.143,0,0,0-.569.542.985.985,0,0,0-.056.564Z" transform="translate(-3.998 -18.832)" fill="#929292"/>
    <path id="Path_45294" data-name="Path 45294" d="M4.018,34a9.764,9.764,0,0,0,9.746,9.391h.722A9.764,9.764,0,0,0,24.232,34Zm5.977,7.549A9.809,9.809,0,0,1,5.87,37.8l.618-.375A9.092,9.092,0,0,0,10.309,40.9Zm1.6.4h-.722v-.722H11.6Z" transform="translate(-4.011 -22.803)" fill="#929292"/>
    <path id="Path_45295" data-name="Path 45295" d="M39.334,6.722V6H37.89A2.89,2.89,0,0,0,35,8.89v.722h1.445A2.89,2.89,0,0,0,39.334,6.722Z" transform="translate(-23.803 -4.916)" fill="#929292"/>
    <ellipse id="Ellipse_726" data-name="Ellipse 726" cx="0.722" cy="0.722" rx="0.722" ry="0.722" transform="translate(7.947 1.084)" fill="#929292"/>
    <ellipse id="Ellipse_727" data-name="Ellipse 727" cx="0.722" cy="0.722" rx="0.722" ry="0.722" transform="translate(3.251)" fill="#929292"/>
  </g>
</svg>
