<svg xmlns="http://www.w3.org/2000/svg" width="16.034" height="16.9" viewBox="0 0 16.034 16.9">
  <g id="fumigator" transform="translate(-4.702 -3)">
    <path id="Path_44585" data-name="Path 44585" d="M27.736,6.406l.2.666a.278.278,0,0,0,.307.179,2.259,2.259,0,0,0,1.613-2.2.242.242,0,0,0-.256-.256h-.64V4.664H30.5a.256.256,0,1,0,0-.512H28.965A1.352,1.352,0,0,0,27.608,3,1.421,1.421,0,0,0,26.2,4.408v.615A1.386,1.386,0,0,0,27.736,6.406Zm.615.256c-.23-.794-.077-.256-.41-1.357H29.35A1.771,1.771,0,0,1,28.351,6.662ZM26.712,4.408a.907.907,0,0,1,.9-.9.891.891,0,0,1,.9.9v.384h-.9a.264.264,0,0,0-.256.333l.23.794a.885.885,0,0,1-.871-.9Z" transform="translate(-15.993)" fill="#fff"/>
    <path id="Path_44586" data-name="Path 44586" d="M18.222,21.928a.254.254,0,0,0-.128-.333,16.364,16.364,0,0,0-3.585-1.255.133.133,0,0,0,.051-.1.8.8,0,0,0-.461-1.075L12.153,18.5c-.563-.871-.973-3.457-2.228-3.457a1.345,1.345,0,0,0-1.511,1l-.077-.077.128-.461a.673.673,0,0,0-.512-.845l-.512-.1a.694.694,0,0,0-.819.487l-.154.512a1.013,1.013,0,0,0-.794.794L4.906,19.7a1.018,1.018,0,0,0,.819,1.255,2.057,2.057,0,0,0,1.357,1.716l-2.2,3.713a1.088,1.088,0,0,0,.154,1.383,1.1,1.1,0,0,0,1.716-.179l2.023-3.2a.154.154,0,0,0,.026-.1l.154-.973a3.747,3.747,0,0,0,1.255.1l.691.794v3.252a1.024,1.024,0,1,0,2.048,0v-3.61a1.027,1.027,0,0,0-.333-.794l-.384-.41A17.782,17.782,0,0,1,13.92,20.7a17.485,17.485,0,0,1,3.943,1.332A.259.259,0,0,0,18.222,21.928ZM9.9,15.552c1.075.333,1.152,2.253,1.895,3.3a.256.256,0,0,0,.128.1l2.023.691a.3.3,0,0,1,.179.384.282.282,0,0,1-.358.154l-2.535-.845s-.435-.768-1.127-2.023a.264.264,0,1,0-.461.256l.743,1.332-.41,2.023a.207.207,0,0,0,.077.23l1.383,1.434a3.191,3.191,0,0,1-1.024.307l-1.28-1.46a.277.277,0,0,0-.179-.077H8.875a.248.248,0,0,0-.179.2l-.154,1.1a7.7,7.7,0,0,1-.819-.282V21.237C9.029,15.5,8.824,15.552,9.9,15.552ZM7.339,15.04l.512.1a.168.168,0,0,1,.128.2l-.128.384c-.2-.051-.128-.026-.845-.179l.1-.384a.2.2,0,0,1,.23-.128ZM5.418,19.8l.768-3.354a.566.566,0,0,1,.64-.41c.768.179.589.128.947.2a.552.552,0,0,1,.41.64c-.461,1.972-.282,1.2-.768,3.38a.566.566,0,0,1-.64.41l-.947-.2A.61.61,0,0,1,5.418,19.8Zm.871,1.255a2.659,2.659,0,0,0,.615.1,1.5,1.5,0,0,0,.333-.051c-.026.1-.026.9-.026,1.024A1.609,1.609,0,0,1,6.289,21.057Zm2.023,3.1-2,3.15a.593.593,0,1,1-1-.64L7.569,22.9a5.283,5.283,0,0,0,.9.307ZM9.029,22.8l.1-.615.64.717a2.266,2.266,0,0,1-.743-.1Zm3.226.615a.726.726,0,0,1,.179.435v3.61a.512.512,0,1,1-1.024,0V24.1a.277.277,0,0,0-.077-.179l-.538-.589a3.369,3.369,0,0,0,1-.384Zm-.384-1.127-1.408-1.434.282-1.306.051.1a.262.262,0,0,0,.154.128l2.381.794a18.786,18.786,0,0,0-1.46,1.716Z" transform="translate(0 -8.583)" fill="#fff"/>
    <path id="Path_44587" data-name="Path 44587" d="M61.335,45.677a.253.253,0,1,0-.358.358l.64.64a.253.253,0,1,0,.358-.358Z" transform="translate(-41.808 -31.692)" fill="#fff"/>
    <path id="Path_44588" data-name="Path 44588" d="M57.547,46.54a.252.252,0,1,0-.487.128l.256.922a.263.263,0,0,0,.307.179.243.243,0,0,0,.179-.307Z" transform="translate(-38.942 -32.248)" fill="#fff"/>
    <path id="Path_44589" data-name="Path 44589" d="M63.015,41.942l-.922-.256a.252.252,0,1,0-.128.487l.922.256a.252.252,0,1,0,.128-.487Z" transform="translate(-42.463 -28.776)" fill="#fff"/>
  </g>
</svg>
