<svg xmlns="http://www.w3.org/2000/svg" xmlns:xlink="http://www.w3.org/1999/xlink" width="15.728" height="15.993" viewBox="0 0 15.728 15.993">
  <defs>
    <clipPath id="clip-path">
      <path id="path2684" d="M0-682.665H15.326v15.326H0Z" transform="translate(0 682.665)" fill="none" stroke="#707070" stroke-width="1.333"/>
    </clipPath>
  </defs>
  <g id="g2670" transform="translate(0.201 683.332)">
    <g id="g2672" transform="translate(1.497 -681.168)">
      <path id="path2674" d="M-537-190.3v3.592h-12.333v-7.963H-537Z" transform="translate(549.332 194.666)" fill="none" stroke="#fff" stroke-linecap="round" stroke-linejoin="round" stroke-width="1"/>
    </g>
    <g id="g2676" transform="translate(1.497 -678.594)">
      <path id="path2678" d="M-537-78.2h-3.7l-1.118,1.8L-543.165-80l-1.347,3.592-.9-1.8h-3.921" transform="translate(549.332 80)" fill="none" stroke="#fff" stroke-linecap="round" stroke-linejoin="round" stroke-width="1"/>
    </g>
    <g id="g2680" transform="translate(0 -682.665)">
      <g id="g2682" clip-path="url(#clip-path)">
        <g id="g2688" transform="translate(5.867 12.453)">
          <path id="path2690" d="M-39.1,0-40,2.574" transform="translate(40)" fill="none" stroke="#fff" stroke-linecap="round" stroke-linejoin="round" stroke-width="1"/>
        </g>
        <g id="g2692" transform="translate(8.561 12.453)">
          <path id="path2694" d="M-39.1-112.092l-.9-2.574" transform="translate(40 114.666)" fill="none" stroke="#fff" stroke-linecap="round" stroke-linejoin="round" stroke-width="1"/>
        </g>
        <g id="g2696" transform="translate(4.071 15.027)">
          <path id="path2698" d="M0,0H7.184" fill="none" stroke="#fff" stroke-linecap="round" stroke-linejoin="round" stroke-width="1"/>
        </g>
      </g>
    </g>
    <g id="g2700" transform="translate(2.095 -671.709)">
      <path id="path2702" d="M-39.1,0H-40" transform="translate(40)" fill="none" stroke="#fff" stroke-linecap="round" stroke-linejoin="round" stroke-width="1"/>
    </g>
    <g id="g2704" transform="translate(4.79 -671.709)">
      <path id="path2706" d="M-39.1,0H-40" transform="translate(40)" fill="none" stroke="#fff" stroke-linecap="round" stroke-linejoin="round" stroke-width="1"/>
    </g>
    <g id="g2708" transform="translate(11.255 -671.709)">
      <path id="path2710" d="M-86.024,0H-88" transform="translate(88)" fill="none" stroke="#fff" stroke-linecap="round" stroke-linejoin="round" stroke-width="1"/>
    </g>
    <g id="g2712" transform="translate(0.299 -682.665)">
      <g id="Group_48" data-name="Group 48" transform="translate(0 0)">
        <g id="g2720" transform="translate(7.065)">
          <path id="path2722" d="M-26.068-13.034a.3.3,0,0,1-.3.3.3.3,0,0,1-.3-.3.3.3,0,0,1,.3-.3.3.3,0,0,1,.3.3" transform="translate(26.667 13.333)" fill="none" stroke="#fff" stroke-width="1.333"/>
        </g>
        <g id="g2724" transform="translate(0 0.299)">
          <path id="path2726" d="M-379.288,0h5.418a.6.6,0,0,1,.6.6V11.555a.6.6,0,0,1-.6.6H-387.4a.6.6,0,0,1-.6-.6V.6a.6.6,0,0,1,.6-.6h5.418" transform="translate(387.999)" fill="none" stroke="#fff" stroke-linecap="round" stroke-linejoin="round" stroke-width="1"/>
        </g>
      </g>
    </g>
  </g>
</svg>
