<svg xmlns="http://www.w3.org/2000/svg" xmlns:xlink="http://www.w3.org/1999/xlink" width="16.469" height="16.469" viewBox="0 0 16.469 16.469">
  <defs>
    <clipPath id="clip-path">
      <path id="path4092" d="M0-682.665H16.469V-666.2H0Z" transform="translate(0 682.665)" fill="#fff"/>
    </clipPath>
  </defs>
  <g id="g4086" transform="translate(0 682.665)">
    <g id="g4088" transform="translate(0 -682.665)">
      <g id="g4090" clip-path="url(#clip-path)">
        <g id="g4096" transform="translate(0.322 0.322)">
          <path id="path4098" d="M-611.784-264.891a.653.653,0,0,0-.585.655h0a.066.066,0,0,1-.066.066h-.626a.515.515,0,0,1-.5-.418,5.5,5.5,0,0,0-.839-2.026.515.515,0,0,1,.06-.654l.432-.432a.08.08,0,0,1,.114,0,.643.643,0,0,0,.91,0,.643.643,0,0,0,0-.91l-1.024-1.024a.643.643,0,0,0-.91,0,.643.643,0,0,0,0,.91.08.08,0,0,1,0,.114l-.432.432a.516.516,0,0,1-.654.06,5.5,5.5,0,0,0-2.026-.839.515.515,0,0,1-.418-.5v-.611a.08.08,0,0,1,.08-.08.643.643,0,0,0,.643-.643.643.643,0,0,0-.643-.643h-1.447a.643.643,0,0,0-.643.643.643.643,0,0,0,.643.643h0a.08.08,0,0,1,.08.08v.611a.515.515,0,0,1-.418.5,5.5,5.5,0,0,0-2.026.839.516.516,0,0,1-.654-.06l-.432-.432a.08.08,0,0,1,0-.114h0a.643.643,0,0,0,0-.91.643.643,0,0,0-.91,0l-1.023,1.024a.643.643,0,0,0,0,.91.643.643,0,0,0,.91,0h0a.08.08,0,0,1,.114,0l.432.432a.515.515,0,0,1,.06.654,5.5,5.5,0,0,0-.839,2.026.515.515,0,0,1-.5.418h-.628a.064.064,0,0,1-.064-.064.654.654,0,0,0-.621-.66.643.643,0,0,0-.665.643v1.432a.653.653,0,0,0,.62.658.643.643,0,0,0,.667-.643.08.08,0,0,1,.08-.08h.611a.515.515,0,0,1,.5.418,5.5,5.5,0,0,0,.839,2.026.516.516,0,0,1-.06.654l-.442.442a.066.066,0,0,1-.093,0l-.01-.01a.643.643,0,0,0-.91,0,.643.643,0,0,0,0,.91l1.023,1.023a.643.643,0,0,0,.949-.043.653.653,0,0,0-.05-.877h0a.066.066,0,0,1,0-.093l.442-.442a.516.516,0,0,1,.654-.06,5.5,5.5,0,0,0,2.026.839.515.515,0,0,1,.418.5v.611a.08.08,0,0,1-.08.08h0a.643.643,0,0,0-.643.643.643.643,0,0,0,.643.643h1.447a.643.643,0,0,0,.643-.643.643.643,0,0,0-.643-.643.08.08,0,0,1-.08-.08v-.611a.515.515,0,0,1,.418-.5,5.5,5.5,0,0,0,2.026-.839.516.516,0,0,1,.654.06l.443.442a.066.066,0,0,1,0,.093h0a.653.653,0,0,0-.05.877.643.643,0,0,0,.949.043l1.024-1.023a.643.643,0,0,0,0-.91.643.643,0,0,0-.91,0l-.01.01a.066.066,0,0,1-.093,0l-.443-.442a.516.516,0,0,1-.06-.654,5.5,5.5,0,0,0,.839-2.026.515.515,0,0,1,.5-.418h.626a.066.066,0,0,1,.066.066.653.653,0,0,0,.585.655.643.643,0,0,0,.7-.641v-1.447A.643.643,0,0,0-611.784-264.891Z" transform="translate(626.908 271.439)" fill="none" stroke="#fff" stroke-linecap="round" stroke-linejoin="round" stroke-width="0.5"/>
        </g>
        <g id="g4100" transform="translate(5.963 4.499)">
          <path id="path4102" d="M-83.274-41.637A1.029,1.029,0,0,1-84.3-40.608a1.029,1.029,0,0,1-1.029-1.029A1.029,1.029,0,0,1-84.3-42.667,1.029,1.029,0,0,1-83.274-41.637Z" transform="translate(85.333 42.667)" fill="none" stroke="#fff" stroke-linecap="round" stroke-linejoin="round" stroke-width="0.5"/>
        </g>
        <g id="g4104" transform="translate(5.232 9.429)">
          <path id="path4106" d="M-68.528-34.264a.847.847,0,0,1-.847.847.847.847,0,0,1-.847-.847.847.847,0,0,1,.847-.847A.847.847,0,0,1-68.528-34.264Z" transform="translate(70.223 35.111)" fill="none" stroke="#fff" stroke-linecap="round" stroke-linejoin="round" stroke-width="0.5"/>
        </g>
        <g id="g4108" transform="translate(8.827 7.484)">
          <path id="path4110" d="M-74.358,0a1.665,1.665,0,0,1,1.48,1.655A1.665,1.665,0,0,1-74.542,3.32,1.665,1.665,0,0,1-76.2,1.85" transform="translate(76.196)" fill="none" stroke="#fff" stroke-linecap="round" stroke-linejoin="round" stroke-width="0.5"/>
        </g>
        <g id="g4112" transform="translate(10.068 5.529)">
          <path id="path4114" d="M0,0H0" fill="none" stroke="#fff" stroke-linecap="round" stroke-linejoin="round" stroke-width="0.5"/>
        </g>
        <g id="g4116" transform="translate(8.235 12.062)">
          <path id="path4118" d="M0,0H0" fill="none" stroke="#fff" stroke-linecap="round" stroke-linejoin="round" stroke-width="0.5"/>
        </g>
        <g id="g4120" transform="translate(4.621 8.239)">
          <path id="path4122" d="M0,0H0" fill="none" stroke="#fff" stroke-linecap="round" stroke-linejoin="round" stroke-width="0.5"/>
        </g>
        <g id="g4124" transform="translate(9.3 7.965)">
          <path id="path4126" d="M0,0H0" fill="none" stroke="#fff" stroke-linecap="round" stroke-linejoin="round" stroke-width="0.5"/>
        </g>
      </g>
    </g>
  </g>
</svg>
