<svg xmlns="http://www.w3.org/2000/svg" width="18.001" height="13.913" viewBox="0 0 18.001 13.913">
  <path id="genders" d="M18,11.773a4.5,4.5,0,1,0-5.355,4.416v1.593h-.962a.855.855,0,1,0,0,1.709h.962v.836a.855.855,0,0,0,1.709,0v-.836h.962a.855.855,0,1,0,0-1.709h-.962V16.189A4.506,4.506,0,0,0,18,11.773Zm-7.291,0A2.791,2.791,0,1,1,13.5,14.564,2.791,2.791,0,0,1,10.709,11.773Zm-5.355.493V10.057l.359.325A.855.855,0,1,0,6.862,9.116L5.074,7.495h0a.843.843,0,0,0-1.144,0h0L2.138,9.116a.855.855,0,0,0,1.148,1.266l.359-.325v2.209a4.5,4.5,0,1,0,1.709,0ZM4.5,19.473a2.791,2.791,0,1,1,2.791-2.791A2.791,2.791,0,0,1,4.5,19.473Z" transform="translate(0.001 -7.271)" fill="#546788"/>
</svg>
