<svg xmlns="http://www.w3.org/2000/svg" width="11.681" height="15.575" viewBox="0 0 11.681 15.575">
  <g id="data-report" transform="translate(-11 -4)">
    <path id="Path_44809" data-name="Path 44809" d="M43.5,6.754h2.6a.277.277,0,0,0-.038-.058l-2.5-2.5a.266.266,0,0,0-.058-.038Z" transform="translate(-23.461 -0.112)" fill="#fff"/>
    <path id="Path_44810" data-name="Path 44810" d="M19.9,6.92a.139.139,0,0,1-.139-.139V4H11.278A.278.278,0,0,0,11,4.278V19.3a.278.278,0,0,0,.278.278H22.4a.278.278,0,0,0,.278-.278V6.92Zm-1.189.973a.215.215,0,0,1,.215-.215h.834a.215.215,0,0,1,.215.215v3.338a.215.215,0,0,1-.215.215h-.834a.215.215,0,0,1-.215-.215Zm-3.261-2.5h2.781a.278.278,0,1,1,0,.556H15.45a.278.278,0,1,1,0-.556Zm2.857,3.616v2.225a.215.215,0,0,1-.215.215h-.834a.215.215,0,0,1-.215-.215V9.006a.215.215,0,0,1,.215-.215h.834A.215.215,0,0,1,18.308,9.006Zm-1.669-.278v2.5a.215.215,0,0,1-.215.215h-.834a.215.215,0,0,1-.215-.215v-2.5a.215.215,0,0,1,.215-.215h.834A.215.215,0,0,1,16.639,8.728ZM13.7,9.563a.215.215,0,0,1,.215-.215h.834a.215.215,0,0,1,.215.215v1.669a.215.215,0,0,1-.215.215H13.92a.215.215,0,0,1-.215-.215Zm-.2,2.225h6.675a.278.278,0,0,1,0,.556H13.5a.278.278,0,0,1,0-.556Zm5.284,1.391a.278.278,0,0,1-.278.278H15.172a.278.278,0,1,1,0-.556h3.338A.278.278,0,0,1,18.787,13.178ZM14.2,14.3v1.8H12.4A1.947,1.947,0,0,1,14.2,14.3Zm.139,3.887a1.948,1.948,0,0,1-1.94-1.808h1.859l.923,1.613A1.931,1.931,0,0,1,14.337,18.185Zm1.084-.331L14.476,16.2V14.3a1.945,1.945,0,0,1,.945,3.556Zm5.034-.225H17.675a.278.278,0,1,1,0-.556h2.781a.278.278,0,1,1,0,.556Zm.556-1.113H17.675a.278.278,0,1,1,0-.556h3.338a.278.278,0,0,1,0,.556Zm0-1.113H17.675a.278.278,0,1,1,0-.556h3.338a.278.278,0,1,1,0,.556Z" fill="#fff"/>
  </g>
</svg>
