<svg xmlns="http://www.w3.org/2000/svg" width="24.193" height="24.996" viewBox="0 0 24.193 24.996">
  <g id="gram_stain" data-name="gram stain" transform="matrix(0.839, 0.545, -0.545, 0.839, -2.314, -55.938)">
    <g id="Group_17768" data-name="Group 17768" transform="translate(41.154 39.972)">
      <g id="Group_17767" data-name="Group 17767" transform="translate(0 0)">
        <path id="Path_48471" data-name="Path 48471" d="M185.87,255a.87.87,0,1,0,.87.87A.871.871,0,0,0,185.87,255Z" transform="translate(-180.058 -245.644)" fill="#546788"/>
        <path id="Path_48472" data-name="Path 48472" d="M295.435,340a.435.435,0,1,0,.435.435A.436.436,0,0,0,295.435,340Z" transform="translate(-285.272 -326.946)" fill="#546788"/>
        <path id="Path_48473" data-name="Path 48473" d="M330.435,230a.435.435,0,1,0,.435.435A.436.436,0,0,0,330.435,230Z" transform="translate(-318.749 -221.732)" fill="#546788"/>
        <path id="Path_48474" data-name="Path 48474" d="M86.221,44.5l-1.7.98a.71.71,0,0,1-.972-.972l.4-.686a.891.891,0,0,0-1.544-.891l-.57.988a.7.7,0,0,1-.611.357.708.708,0,0,1-.717-.713v-2.7a.891.891,0,0,0-1.782,0v2.7a.712.712,0,0,1-1.328.356l-.57-.988a.891.891,0,0,0-1.544.891l.57.988a.71.71,0,0,1-.972.972l-.988-.57A.891.891,0,0,0,73,46.756l.988.57a.712.712,0,0,1-.356,1.328H72.492a.891.891,0,0,0,0,1.782h.792a.712.712,0,0,1,.356,1.328l-1.7.98a1.066,1.066,0,1,0,1.066,1.846l1.7-.98a.708.708,0,0,1,.976.265.7.7,0,0,1,0,.707l-.4.686a.891.891,0,0,0,1.544.891l.57-.988a.7.7,0,0,1,.611-.357.708.708,0,0,1,.717.713v2.7a.892.892,0,0,0,.891.891h0a.892.892,0,0,0,.891-.891v-2.7a.708.708,0,0,1,.717-.713.7.7,0,0,1,.611.357l.57.988a.892.892,0,0,0,1.215.328h0a.892.892,0,0,0,.326-1.217l-.57-.988a.7.7,0,0,1,0-.707.707.707,0,0,1,.976-.265l.988.57a.891.891,0,0,0,.891-1.544l-.988-.57a.712.712,0,0,1,.356-1.328h1.141a.891.891,0,0,0,0-1.782h-.792a.712.712,0,0,1-.356-1.328l1.7-.98A1.066,1.066,0,1,0,86.221,44.5Zm-9.629,2.337a.518.518,0,0,1,.878-.079l.12.16a.083.083,0,0,0,.133,0l.12-.16a.518.518,0,0,1,.878.079.083.083,0,0,0,.141.013l.069-.092a.518.518,0,0,1,.878.079.083.083,0,0,0,.141.013l.069-.092a.518.518,0,0,1,.878.079.083.083,0,0,0,.141.013.218.218,0,1,1,.348.261.518.518,0,0,1-.878-.079.083.083,0,0,0-.141-.013l-.069.092c-.232.309.59-.215.418-.558a7.864,7.864,0,0,0-1.437.466l3.013.65c-.109.145-1.963-2.677-2.143-2.694s-4.787,2.173-4.867,2.011c-.018-.036,2.742.983,2.725.982s.21-.981.185-.949l-.12.16a.518.518,0,0,1-.829,0l-.12-.16a.083.083,0,0,0-.141.013,8.438,8.438,0,0,0,2.031-.113C78.9,46.865,76.538,46.945,76.592,46.838ZM80.92,49.11a.653.653,0,1,1-.653-.653A.653.653,0,0,1,80.92,49.11ZM75.7,52.591a.435.435,0,1,1,.435-.435A.435.435,0,0,1,75.7,52.591ZM77.222,51.5A1.305,1.305,0,1,1,78.527,50.2,1.307,1.307,0,0,1,77.222,51.5Zm5.221-.285c-.053-.031-.213-1.082-.218-1.02l-2.805.432a6.842,6.842,0,0,1-1.434,1.176c-.16.084,1.181.466,1.025.374a.083.083,0,0,0-.125.065l-1.644.9c-.025.345,1.256-.136.932-.257l-.188-.07a3.494,3.494,0,0,0-.765-.233c.013.119.58.546.46.559a7.394,7.394,0,0,0,1.528-.326c-.041-.383-1.433-.542-1.072-.408l.188.07a.083.083,0,0,0,.112-.072l.35,1.2c.028-.384.114-2,.446-1.8a.083.083,0,0,0,.125-.065l.008-.114a.518.518,0,0,1,.781-.408.083.083,0,0,0,.125-.065l.008-.115a.518.518,0,0,1,.782-.408.083.083,0,0,0,.125-.065.218.218,0,0,1,.434.031.518.518,0,0,1-.782.408.083.083,0,0,0-.125.065l-.008.114C80.68,51.569,82.774,51.415,82.443,51.218Zm-.87,3.114a.87.87,0,1,1,.87-.87A.871.871,0,0,1,81.573,54.332ZM83.1,49.545a.87.87,0,1,1,.87-.87A.871.871,0,0,1,83.1,49.545Z" transform="translate(-71.409 -39.972)" fill="#546788"/>
      </g>
    </g>
  </g>
</svg>
