<svg xmlns="http://www.w3.org/2000/svg" width="13.571" height="13.571" viewBox="0 0 13.571 13.571">
  <g id="gross" transform="translate(0)">
    <path id="Path_45958" data-name="Path 45958" d="M35.552,30.966a.6.6,0,0,1-.434-1.042.243.243,0,0,0-.024-.313l-.952-.952a.243.243,0,0,0-.313-.024l-.141.1a.564.564,0,0,1-.872-.361l-.029-.172a.24.24,0,0,0-.238-.2H31.2a.24.24,0,0,0-.238.2l-.029.172a.563.563,0,0,1-.872.361l-.141-.1a.243.243,0,0,0-.313.024l-.952.952a.243.243,0,0,0-.024.313l.1.141a.564.564,0,0,1-.361.872l-.172.029a.24.24,0,0,0-.2.237v1.347a.24.24,0,0,0,.2.238l.172.029a.56.56,0,0,1,.361.872c-.1.134-.226.3-.075.453l.952.952a.243.243,0,0,0,.313.024.6.6,0,0,1,1.042.434.24.24,0,0,0,.238.2h1.348a.24.24,0,0,0,.238-.2l.029-.172a.563.563,0,0,1,.872-.361c.134.1.3.226.453.075l.952-.952a.243.243,0,0,0,.024-.313.6.6,0,0,1,.434-1.042.24.24,0,0,0,.2-.238V31.2a.24.24,0,0,0-.2-.237ZM31.876,34.18A2.3,2.3,0,1,1,33.5,30.247a2.318,2.318,0,0,1-1.626,3.933Z" transform="translate(-22.183 -22.184)" fill="#546788"/>
    <path id="Path_45959" data-name="Path 45959" d="M38.307,36.5a1.817,1.817,0,1,0,1.818,1.818A1.827,1.827,0,0,0,38.307,36.5Zm-.128,1.575h.257a.631.631,0,0,1,.114,1.25.246.246,0,1,1-.485.01h-.276a.242.242,0,1,1,0-.485h.647a.146.146,0,0,0,.148-.145c-.006-.2-.275-.134-.4-.145a.631.631,0,0,1-.114-1.25.246.246,0,1,1,.485-.01h.276a.242.242,0,0,1,0,.485h-.647A.145.145,0,0,0,38.178,38.074Z" transform="translate(-28.614 -28.622)" fill="#546788"/>
    <path id="Path_45960" data-name="Path 45960" d="M10.131,27.876a.761.761,0,0,1,.024-1.071.065.065,0,0,0,.007-.068.067.067,0,0,0-.053-.048.762.762,0,0,1-.778-.744s0-1.347,0-1.347a.722.722,0,0,1,.606-.715c.043-.015.208-.012.221-.068s0-.065,0-.073l-.1-.145a.719.719,0,0,1,.073-.928l.957-.957a.762.762,0,0,1,1.074.022c.042.037.12-.013.116-.046a.762.762,0,0,1,.744-.778h.734a5.265,5.265,0,0,0-1.81-1.621,1.213,1.213,0,0,1-1.074.652H8.226a1.2,1.2,0,0,1-1.074-.659,5.474,5.474,0,0,0-2.395,6.856,1.635,1.635,0,0,0,.868,3.012H11.4c-.2-.2-1.055-1.055-1.27-1.272Z" transform="translate(-4 -15.577)" fill="#546788"/>
    <path id="Path_45961" data-name="Path 45961" d="M14.915,6.2a2.606,2.606,0,0,0,.6.616.729.729,0,0,0,.637,1.066H18.8a.729.729,0,0,0,.637-1.066,2.663,2.663,0,0,0,1.028-1.619A1,1,0,0,0,19.488,4H15.47a1,1,0,0,0-.979,1.192,2.662,2.662,0,0,0,.424,1Z" transform="translate(-11.932 -4)" fill="#546788"/>
  </g>
</svg>
