<svg xmlns="http://www.w3.org/2000/svg" width="32" height="32" viewBox="0 0 32 32">
  <g id="Group_12931" data-name="Group 12931" transform="translate(-569.5 -210)">
    <g id="Rectangle_17439" data-name="Rectangle 17439" transform="translate(569.5 210)" fill="#fffae4" stroke="#e2b913" stroke-width="1">
      <rect width="32" height="32" rx="7" stroke="none"/>
      <rect x="0.5" y="0.5" width="31" height="31" rx="6.5" fill="none"/>
    </g>
    <g id="anesthesia" transform="translate(577.162 217.494)">
      <path id="Path_44492" data-name="Path 44492" d="M10.487,64.272a.5.5,0,0,0-.7,0L1.294,72.76a.5.5,0,0,0,0,.7L2.36,74.531,1.306,75.586a.5.5,0,0,0,0,.7l.354.354L.146,78.158a.5.5,0,0,0,.7.7l1.513-1.513.354.354a.5.5,0,0,0,.7,0l1.054-1.054,1.071,1.072a.5.5,0,0,0,.705,0L7.32,76.654,5.851,75.185a.5.5,0,1,1,.7-.7l1.469,1.469.708-.708L6.255,72.764a.5.5,0,1,1,.7-.7l2.477,2.477.708-.708L8.653,72.336a.5.5,0,0,1,.7-.7l1.493,1.493.708-.708L9.081,69.939a.5.5,0,0,1,.7-.7l2.477,2.477L12.971,71,11.5,69.534a.5.5,0,0,1,.7-.7L13.676,70.3l1.066-1.066a.5.5,0,0,0,0-.7l-4.255-4.255Zm0,0" transform="translate(0 -61.996)" fill="#e9bb00"/>
      <path id="Path_44493" data-name="Path 44493" d="M359.542,4.385,355.3.146a.5.5,0,1,0-.7.7l1.06,1.06-.724.724,2.118,2.118.724-.724,1.06,1.06a.5.5,0,0,0,.7-.7Zm0,0" transform="translate(-342.675 0)" fill="#e9bb00"/>
    </g>
  </g>
</svg>
