<svg xmlns="http://www.w3.org/2000/svg" width="15.124" height="15.125" viewBox="0 0 15.124 15.125">
  <g id="Group_12887" data-name="Group 12887" transform="translate(-1354.187 -1008.244)">
    <g id="Group_21" data-name="Group 21" transform="translate(1354.187 1008.244)">
      <g id="Group_20" data-name="Group 20">
        <path id="Path_44508" data-name="Path 44508" d="M12.91,2.215A7.562,7.562,0,0,0,2.215,12.91,7.562,7.562,0,0,0,12.91,2.215ZM7.562,13.64A6.085,6.085,0,0,1,1.484,7.562c0-.005,0-.011,0-.016s0,0,0,0,0,0,0-.007A6.085,6.085,0,0,1,7.48,1.485h.083a6.078,6.078,0,0,1,0,12.156Z" transform="translate(0 0)" fill="#f2a41d"/>
      </g>
    </g>
    <g id="Group_23" data-name="Group 23" transform="translate(1356.584 1010.637)">
      <g id="Group_22" data-name="Group 22">
        <path id="Path_44509" data-name="Path 44509" d="M90.924,86.563a.447.447,0,0,1,0-.895h.539a5.192,5.192,0,0,0-4.77-4.639v.47a.447.447,0,1,1-.895,0V81.04a5.192,5.192,0,0,0-4.652,4.69h.483a.447.447,0,0,1,0,.895h-.487a5.191,5.191,0,0,0,4.718,4.737v-.567a.447.447,0,1,1,.895,0v.567a5.191,5.191,0,0,0,4.722-4.8Zm-2.805-1.544-1.495,1.495a.447.447,0,0,1-.633,0l-2.6-2.6a.447.447,0,0,1,.633-.633l2.286,2.286,1.179-1.179a.447.447,0,1,1,.633.633Z" transform="translate(-81.142 -81.029)" fill="#f2a41d"/>
      </g>
    </g>
  </g>
</svg>
