<svg xmlns="http://www.w3.org/2000/svg" width="32" height="32" viewBox="0 0 32 32">
  <g id="Group_12930" data-name="Group 12930" transform="translate(-529.5 -210)">
    <g id="Rectangle_17438" data-name="Rectangle 17438" transform="translate(529.5 210)" fill="#e4f0ff" stroke="#2d8af5" stroke-width="1">
      <rect width="32" height="32" rx="7" stroke="none"/>
      <rect x="0.5" y="0.5" width="31" height="31" rx="6.5" fill="none"/>
    </g>
    <g id="oxygen" transform="translate(539.581 217.494)">
      <path id="Path_44488" data-name="Path 44488" d="M28.985,228.782h6.138v6.42H28.985Z" transform="translate(-28.985 -221.18)" fill="#2d8af5"/>
      <path id="Path_44489" data-name="Path 44489" d="M34.043,4.16a1.093,1.093,0,0,0,.316-2.05V1h.809V0H32.553V1h.809V2.11a1.093,1.093,0,0,0,.316,2.05,3.07,3.07,0,0,0-2.825,2.446h6.014A3.07,3.07,0,0,0,34.043,4.16Z" transform="translate(-30.792 0)" fill="#2d8af5"/>
      <path id="Path_44490" data-name="Path 44490" d="M28.985,452h6.138v1.994H28.985Z" transform="translate(-28.985 -436.981)" fill="#2d8af5"/>
      <path id="Path_44491" data-name="Path 44491" d="M191.806,3.637l-.228-1.855a2.03,2.03,0,0,0-4.03,0l-.228,1.855A2.03,2.03,0,0,0,189.065,5.9v8.21a1.91,1.91,0,1,1-3.819,0V5.15a2.5,2.5,0,0,0-2.492-2.492h-.9a2.087,2.087,0,0,1-.037,1h.941a1.5,1.5,0,0,1,1.5,1.5v8.956a2.906,2.906,0,1,0,5.813,0V5.9a2.03,2.03,0,0,0,1.744-2.259Zm-1.744.406h-1V1.871h1Z" transform="translate(-176.735 0)" fill="#2d8af5"/>
    </g>
  </g>
</svg>
