<svg id="growth" xmlns="http://www.w3.org/2000/svg" width="16.172" height="16.173" viewBox="0 0 16.172 16.173">
  <path id="Path_48480" data-name="Path 48480" d="M151,2.843h1.421v9.508h3.791V2.843h1.421L154.317,0Z" transform="translate(-146.23)" fill="#546788"/>
  <path id="Path_48481" data-name="Path 48481" d="M348.369,183.857h.948l-2.369-2.842L346,182.152v5.5h2.369Z" transform="translate(-335.071 -175.297)" fill="#546788"/>
  <path id="Path_48482" data-name="Path 48482" d="M64.317,187.648v-5.5l-.948-1.137L61,183.857h.948v3.791Z" transform="translate(-59.073 -175.297)" fill="#546788"/>
  <path id="Path_48483" data-name="Path 48483" d="M347.774,421l1.421,2.874h3.766l-2.4-2.874Z" transform="translate(-336.789 -407.702)" fill="#546788"/>
  <path id="Path_48484" data-name="Path 48484" d="M154.2,421l-1.421,2.874H159.3L157.878,421Z" transform="translate(-147.952 -407.702)" fill="#546788"/>
  <path id="Path_48485" data-name="Path 48485" d="M5.188,421H2.4L0,423.874H3.766Z" transform="translate(0 -407.702)" fill="#546788"/>
</svg>
