<svg xmlns="http://www.w3.org/2000/svg" width="21.33" height="14.582" viewBox="0 0 21.33 14.582">
  <g id="Layer_x0020_1" transform="translate(0 -270)">
    <path id="Path_47710" data-name="Path 47710" d="M19.993,284.582H1.337A1.363,1.363,0,0,1,0,283.208V271.375A1.355,1.355,0,0,1,1.337,270H19.993a1.355,1.355,0,0,1,1.337,1.375v11.833A1.363,1.363,0,0,1,19.993,284.582Zm-7.66-11.334H9a1.019,1.019,0,0,1,0-2.037h3.336a1.019,1.019,0,0,1,0,2.037ZM9,271.962c-.337,0-.312.537,0,.537h3.336c.312,0,.337-.537,0-.537Zm-3.249,7.073a1.581,1.581,0,1,1,1.587-1.574A1.579,1.579,0,0,1,5.748,279.034Zm2.112,2.5a1.81,1.81,0,0,0-1.075-1.524,1.827,1.827,0,0,1-2.062,0,1.84,1.84,0,0,0-1.087,1.524Zm-4.986,0a2.647,2.647,0,0,1,1.8-2.312c.4-.125.375.362,1.075.362s.662-.487,1.075-.362a2.6,2.6,0,0,1,1.8,2.312H9v-6.5H2.5v6.5Zm12.371-3.286a2.449,2.449,0,0,1-1.762-4.186,2.463,2.463,0,1,1,1.762,4.186Zm0-4.161a1.706,1.706,0,1,0,0,3.411,1.715,1.715,0,0,0,1.712-1.712A1.754,1.754,0,0,0,15.245,274.086Zm0,3.036c-.475,0-.375-.562-.375-.962-.387,0-.962.1-.962-.375s.575-.375.962-.375c0-.362-.087-.912.375-.912s.375.55.375.912c.362,0,.912-.087.912.375s-.55.375-.912.375C15.62,276.56,15.72,277.123,15.245,277.123Zm3.961,2.249h-7.96a.375.375,0,1,1,0-.75h7.96A.375.375,0,0,1,19.206,279.372Zm-1.624,1.412H11.246a.375.375,0,0,1,0-.75h6.335A.375.375,0,0,1,17.581,280.784Zm-2.337,1.375h-4a.375.375,0,0,1,0-.75h4A.375.375,0,0,1,15.245,282.158Z" fill="#929292" fill-rule="evenodd"/>
  </g>
</svg>
