<svg xmlns="http://www.w3.org/2000/svg" width="16.272" height="18.68" viewBox="0 0 16.272 18.68">
  <g id="Group_18934" data-name="Group 18934" transform="translate(-33)">
    <g id="Group_18933" data-name="Group 18933" transform="translate(33)">
      <path id="Path_50137" data-name="Path 50137" d="M41.184,444.149H35.206a2.208,2.208,0,0,1-2.206-2.2v-.365h6.18A5.825,5.825,0,0,0,41.184,444.149Z" transform="translate(-33 -425.469)" fill="#546788"/>
      <path id="Path_50138" data-name="Path 50138" d="M43.1,0H35.206A2.208,2.208,0,0,0,33,2.2V15.016h5.867a5.794,5.794,0,0,1,5.7-6.826h0a5.807,5.807,0,0,1,.734.046V2.2A2.208,2.208,0,0,0,43.1,0ZM39.153,1.633a.547.547,0,1,1-.548.547.547.547,0,0,1,.548-.547Zm1,6.5H38.149a.547.547,0,1,1,0-1.095h.456V4.924h-.189a.547.547,0,1,1,0-1.095h.737a.547.547,0,0,1,.548.547V7.042h.456a.547.547,0,1,1,0,1.095Z" transform="translate(-33)" fill="#546788"/>
    </g>
    <path id="Path_50139" data-name="Path 50139" d="M333.778,341.156c.154.429-.188.929-.605,1.345h0c-.653-.65-.7-1.085-.605-1.346a.625.625,0,0,1,.606-.416h0A.625.625,0,0,1,333.778,341.156Z" transform="translate(-288.602 -328.308)" fill="#546788"/>
    <path id="Path_50140" data-name="Path 50140" d="M225.982,254.49h0a4.7,4.7,0,1,0,0,9.4h0a4.7,4.7,0,1,0,0-9.4Zm2.19,7.06a.549.549,0,0,1-.745.214,12.631,12.631,0,0,1-1.446-.927h0a12.576,12.576,0,0,1-1.446.927.547.547,0,1,1-.53-.958,11.907,11.907,0,0,0,1.131-.707,3.93,3.93,0,0,1-.595-.777,1.922,1.922,0,0,1-.2-1.638,1.716,1.716,0,0,1,1.637-1.142h0a1.715,1.715,0,0,1,1.637,1.142,1.922,1.922,0,0,1-.2,1.638,3.93,3.93,0,0,1-.595.777,11.852,11.852,0,0,0,1.131.707A.547.547,0,0,1,228.172,261.55Z" transform="translate(-181.411 -245.205)" fill="#546788"/>
  </g>
</svg>
