<svg id="Layer_25" xmlns="http://www.w3.org/2000/svg" width="20.806" height="19.545" viewBox="0 0 20.806 19.545">
  <path id="Path_45893" data-name="Path 45893" d="M43.729,21a4.729,4.729,0,1,0,4.729,4.729A4.734,4.734,0,0,0,43.729,21Zm2.837,5.674a.316.316,0,0,1-.315.315H44.99V28.25a.316.316,0,0,1-.315.315H42.783a.316.316,0,0,1-.315-.315V26.99H41.207a.316.316,0,0,1-.315-.315V24.783a.316.316,0,0,1,.315-.315h1.261V23.207a.316.316,0,0,1,.315-.315h1.891a.316.316,0,0,1,.315.315v1.261H46.25a.316.316,0,0,1,.315.315Z" transform="translate(-27.651 -15.956)" fill="#929292"/>
  <path id="Path_45894" data-name="Path 45894" d="M17.186,5H5.207A2.209,2.209,0,0,0,3,7.207V22.338a2.209,2.209,0,0,0,2.207,2.207H17.186a2.209,2.209,0,0,0,2.207-2.207V20.122c-.1.006-.208.009-.315.009a5.359,5.359,0,1,1,0-10.718c.107,0,.211,0,.315.009V7.207A2.209,2.209,0,0,0,17.186,5ZM7.729,21.708a.316.316,0,0,1-.315.315H5.522a.316.316,0,0,1-.315-.315V19.816a.316.316,0,0,1,.315-.315H7.413a.316.316,0,0,1,.315.315Zm0-3.783a.316.316,0,0,1-.315.315H5.522a.316.316,0,0,1-.315-.315V16.033a.316.316,0,0,1,.315-.315H7.413a.316.316,0,0,1,.315.315Zm0-3.783a.316.316,0,0,1-.315.315H5.522a.316.316,0,0,1-.315-.315V12.25a.316.316,0,0,1,.315-.315H7.413a.316.316,0,0,1,.315.315Zm0-3.783a.316.316,0,0,1-.315.315H5.522a.316.316,0,0,1-.315-.315V8.468a.316.316,0,0,1,.315-.315H7.413a.316.316,0,0,1,.315.315Zm.63-3.783a.316.316,0,0,1,.315-.315h5.044a.315.315,0,1,1,0,.63H8.674A.316.316,0,0,1,8.359,6.576Zm3.783,10.4H8.99a.315.315,0,1,1,0-.63h3.152a.315.315,0,0,1,0,.63Zm.315.63a.316.316,0,0,1-.315.315H8.99a.315.315,0,0,1,0-.63h3.152A.316.316,0,0,1,12.457,17.609Zm5.359,3.783a.316.316,0,0,1-.315.315H8.99a.315.315,0,0,1,0-.63H17.5A.316.316,0,0,1,17.816,21.392ZM16.24,20.131a.315.315,0,0,1,0,.63H8.99a.315.315,0,1,1,0-.63Zm-3.783-5.99H8.99a.315.315,0,0,1,0-.63h3.468a.315.315,0,1,1,0,.63Zm0-.946H8.99a.315.315,0,0,1,0-.63h3.468a.315.315,0,0,1,0,.63Zm2.837-2.837H8.99a.315.315,0,1,1,0-.63h6.3a.315.315,0,0,1,0,.63Zm1.576-.946H8.99a.315.315,0,0,1,0-.63H16.87a.315.315,0,1,1,0,.63Z" transform="translate(-3 -5)" fill="#929292"/>
</svg>
