<svg xmlns="http://www.w3.org/2000/svg" width="32.36" height="40.265" viewBox="0 0 32.36 40.265">
  <g id="heart" transform="translate(-8.711 -2.429)">
    <path id="Path_44558" data-name="Path 44558" d="M81.277,30.96c.481,1.142,1.388,1.509,2.553,2.144a16.118,16.118,0,0,1,3.464,2.38.194.194,0,0,0,.323-.166,7.771,7.771,0,0,0-5.6-6.923A.809.809,0,0,0,81,29.064,3.461,3.461,0,0,0,81.277,30.96Z" transform="translate(-48.604 -17.447)" fill="#4b759e"/>
    <path id="Path_44559" data-name="Path 44559" d="M39.7,20.69a10.357,10.357,0,0,0-1.142-1.422c-3.09-3.11-5.634-2.619-6.793-5.369a3.974,3.974,0,0,1,.242-3.83l.01-.02a3.728,3.728,0,0,1,1.827-1.634,2,2,0,0,0,1.28-2.007l0-.049a1.956,1.956,0,0,0-2.3-1.778,7.929,7.929,0,0,0-4.632,2.7,19.138,19.138,0,0,0-1.176,1.764,14.9,14.9,0,0,0-1.076,2.743.655.655,0,0,1-.5.419c-3.208.511-5.585,3.234-6.606,5.722-2.295,5.595,1.244,11.107,3.558,13.9a.484.484,0,0,1-.062.684.491.491,0,0,1-.311.111.474.474,0,0,1-.373-.177,21.089,21.089,0,0,1-3.888-6.809.157.157,0,0,0-.3-.009,2.894,2.894,0,0,0,0,2.263.487.487,0,1,1-.907.354,4.164,4.164,0,0,1,.187-3.454,4.2,4.2,0,0,0,.439-1.892,10.963,10.963,0,0,1,.753-5.336,10.587,10.587,0,0,1,6.875-6.21.331.331,0,0,0,.242-.242A20.054,20.054,0,0,1,26.554,7.56c.1-.192,1.048-2.861,1.305-3.437a1.193,1.193,0,0,0-.5-1.532l-.026-.013a1.188,1.188,0,0,0-1.635.5,13.873,13.873,0,0,0-1.437,4.75.691.691,0,0,1-1.349.108A19.1,19.1,0,0,1,22.4,5.274a1.193,1.193,0,0,0-1.241-1.031l-.029,0a1.187,1.187,0,0,0-1.113,1.3,13.7,13.7,0,0,0,.812,3.6.693.693,0,0,1-.236.789.714.714,0,0,1-1.048-.223c-.259-.475-.462-.89-.609-1.178a1.187,1.187,0,0,0-1.5-.576l-.026.01a1.19,1.19,0,0,0-.642,1.588,13.986,13.986,0,0,0,1.306,2.331.674.674,0,0,1,.02.743c-.062.1-.12.2-.177.295a.292.292,0,0,1-.495.013,17.969,17.969,0,0,0-5.749-5.313,1.982,1.982,0,0,0-2.734.758,2.041,2.041,0,0,0,.746,2.682,17.29,17.29,0,0,1,3.724,3.185.356.356,0,0,1-.268.589H11.173A1.28,1.28,0,0,0,9.891,15.85,1.233,1.233,0,0,0,11.1,17.3h3.534a1.129,1.129,0,0,1,.97,1.6c-1.964,4.435-.8,9.2,1.1,12.476.278.48,1.027,1.509,1.366,1.959a.677.677,0,0,1,.137.454c-.12,1.885-.33,3.827-.615,5.818a1.789,1.789,0,1,0,3.546.471c.119-1.015.216-2,.3-2.951a.157.157,0,0,1,.26-.106,23.582,23.582,0,0,0,12.461,5.623c3.755.334,4.868-1.385,5.473-2.563.694-1.342.324-3.12.786-7.929.166-1.765,1.755-7.5-.717-11.47ZM38.225,36.275c-.039.288-.072.537-.092.74a.489.489,0,0,1-.484.439c-.016,0-.033,0-.052,0a.491.491,0,0,1-.432-.534c.023-.213.056-.471.1-.773.3-2.216.851-6.344-1.306-9.3l-.151-.206-.029-.039a10.869,10.869,0,0,1-.183,1.336,4.613,4.613,0,0,0,.16,3.041.486.486,0,1,1-.884.4,5.5,5.5,0,0,1-.232-3.617,5.276,5.276,0,0,0-.029-2.841,9.2,9.2,0,0,1-1.7-6.832.488.488,0,0,1,.956.193,6.358,6.358,0,0,0-.115,1.673s0,.007.007.007c.337.972,1,1.1,1.836,1.257a2.674,2.674,0,0,1,2.5,1.938.483.483,0,0,1-.331.6.5.5,0,0,1-.137.02.485.485,0,0,1-.465-.35c-.282-.972-.9-1.09-1.748-1.254a4.991,4.991,0,0,1-1.28-.37,11.941,11.941,0,0,0,1.329,2.648.1.1,0,0,0,.016.023c.37.573.759,1.1,1.113,1.591l.151.206c2.39,3.277,1.778,7.821,1.483,10.007Z" transform="translate(0 0)" fill="#4b759e"/>
  </g>
</svg>
