<svg xmlns="http://www.w3.org/2000/svg" width="26.16" height="32.551" viewBox="0 0 26.16 32.551">
  <g id="heart" transform="translate(-8.711 -2.429)">
    <path id="Path_44558" data-name="Path 44558" d="M81.218,30.463c.389.924,1.122,1.22,2.064,1.733a13.03,13.03,0,0,1,2.8,1.924.157.157,0,0,0,.261-.134,6.282,6.282,0,0,0-4.529-5.6.654.654,0,0,0-.82.541A2.8,2.8,0,0,0,81.218,30.463Z" transform="translate(-53.136 -19.074)" fill="#fff"/>
    <path id="Path_44559" data-name="Path 44559" d="M33.761,17.191a8.372,8.372,0,0,0-.923-1.149c-2.5-2.514-4.554-2.117-5.492-4.34a3.212,3.212,0,0,1,.2-3.1l.008-.016a3.014,3.014,0,0,1,1.477-1.321,1.613,1.613,0,0,0,1.035-1.622l0-.04A1.581,1.581,0,0,0,28.2,4.17a6.41,6.41,0,0,0-3.744,2.181,15.471,15.471,0,0,0-.95,1.426A12.041,12.041,0,0,0,22.632,10a.529.529,0,0,1-.4.339,7.472,7.472,0,0,0-5.34,4.626c-1.855,4.523,1.006,8.979,2.877,11.237a.391.391,0,0,1-.05.553.4.4,0,0,1-.251.09.383.383,0,0,1-.3-.143,17.048,17.048,0,0,1-3.143-5.5.127.127,0,0,0-.241-.008,2.34,2.34,0,0,0,0,1.829.394.394,0,1,1-.733.286,3.366,3.366,0,0,1,.151-2.792,3.4,3.4,0,0,0,.355-1.53,8.863,8.863,0,0,1,.609-4.314,8.558,8.558,0,0,1,5.557-5.02.268.268,0,0,0,.2-.2,16.212,16.212,0,0,1,1.223-2.871c.082-.155.847-2.313,1.055-2.779a.965.965,0,0,0-.4-1.239l-.021-.011a.961.961,0,0,0-1.322.4,11.215,11.215,0,0,0-1.162,3.84.559.559,0,0,1-1.09.087,15.444,15.444,0,0,1-.41-2.152.964.964,0,0,0-1-.834l-.024,0a.959.959,0,0,0-.9,1.048A11.077,11.077,0,0,0,18.51,7.86a.56.56,0,0,1-.191.638.577.577,0,0,1-.847-.18c-.209-.384-.373-.72-.492-.953A.96.96,0,0,0,15.766,6.9l-.021.008a.962.962,0,0,0-.519,1.284,11.306,11.306,0,0,0,1.056,1.884.545.545,0,0,1,.016.6c-.05.079-.1.159-.143.238a.236.236,0,0,1-.4.011,14.526,14.526,0,0,0-4.648-4.3,1.6,1.6,0,0,0-2.21.613A1.65,1.65,0,0,0,9.5,9.41a13.977,13.977,0,0,1,3.011,2.575.288.288,0,0,1-.217.476H10.7a1.035,1.035,0,0,0-1.037.817,1,1,0,0,0,.979,1.174H13.5a.912.912,0,0,1,.784,1.3,11.28,11.28,0,0,0,.889,10.086c.225.388.83,1.22,1.1,1.584a.547.547,0,0,1,.11.367c-.1,1.524-.267,3.094-.5,4.7a1.446,1.446,0,1,0,2.866.381c.1-.82.175-1.614.241-2.385a.127.127,0,0,1,.21-.085,19.064,19.064,0,0,0,10.073,4.546c3.035.27,3.935-1.119,4.425-2.072.561-1.085.262-2.522.635-6.41.134-1.427,1.419-6.063-.58-9.272ZM32.57,29.79c-.032.233-.058.434-.074.6a.4.4,0,0,1-.392.355l-.042,0a.4.4,0,0,1-.349-.431c.019-.172.045-.381.079-.625.241-1.792.688-5.129-1.056-7.521L30.615,22l-.024-.032a8.786,8.786,0,0,1-.148,1.08,3.729,3.729,0,0,0,.13,2.459.393.393,0,1,1-.715.326A4.45,4.45,0,0,1,29.67,22.9a4.265,4.265,0,0,0-.024-2.3,7.439,7.439,0,0,1-1.371-5.523.394.394,0,0,1,.773.156,5.14,5.14,0,0,0-.093,1.352s0,.005.005.005c.273.786.807.887,1.485,1.016a2.162,2.162,0,0,1,2.019,1.567.391.391,0,0,1-.267.487.4.4,0,0,1-.111.016.392.392,0,0,1-.376-.283c-.228-.786-.725-.881-1.413-1.014a4.034,4.034,0,0,1-1.035-.3,9.653,9.653,0,0,0,1.074,2.141.079.079,0,0,0,.013.019c.3.463.614.892.9,1.286l.122.167c1.932,2.649,1.437,6.322,1.2,8.09Z" transform="translate(0 0)" fill="#fff"/>
  </g>
</svg>
