<svg xmlns="http://www.w3.org/2000/svg" width="383" height="383" viewBox="0 0 383 383">
  <g id="Group_12881" data-name="Group 12881" transform="translate(-247 -248)">
    <g id="Group_114" data-name="Group 114" transform="translate(0 -27)">
      <g id="Group_113" data-name="Group 113" transform="translate(25.9 25.9)">
        <circle id="Ellipse_350" data-name="Ellipse 350" cx="191.5" cy="191.5" r="191.5" transform="translate(221.1 249.1)" fill="rgba(28,55,81,0.38)"/>
        <circle id="Ellipse_351" data-name="Ellipse 351" cx="154.5" cy="154.5" r="154.5" transform="translate(258.1 286.1)" fill="rgba(28,55,81,0.38)"/>
      </g>
      <g id="Group_112" data-name="Group 112" transform="translate(-271.509 -101.817)">
        <g id="Group_111" data-name="Group 111" transform="translate(591.509 398.817)">
          <path id="Path_44614" data-name="Path 44614" d="M1234.018,398.968c-3.148.8-2.924,4.294-7.192,10.4-5.123,7.329-9.714,8.395-9.31,12.3.266,2.563,2.575,5.258,4.779,5.359,1.076.049,1.927-.528,3.065-1.428,4.8-3.8,17.75-19.143,16.794-22.189C1241.221,400.434,1237.044,398.2,1234.018,398.968Z" transform="translate(-1061.856 -398.817)" fill="#cd0400"/>
          <path id="Path_44615" data-name="Path 44615" d="M1220.07,423.269c-.163-1.514.578-2.748,1.432-4.128,1.323-2.139,8.759-8.089,16.825-19.622a6.727,6.727,0,0,0-4.309-.549c-3.148.8-2.924,4.294-7.192,10.4-5.123,7.329-9.714,8.395-9.31,12.3.266,2.563,2.575,5.258,4.779,5.359a2.689,2.689,0,0,0,.325-.008A5.558,5.558,0,0,1,1220.07,423.269Z" transform="translate(-1061.856 -398.818)" fill="#ba0000"/>
          <path id="Path_44616" data-name="Path 44616" d="M879.891,446.325c.347,3.228,3.842,3.5,9.291,8.576,6.54,6.1,6.952,10.794,10.873,10.939,2.575.1,5.567-1.813,5.976-3.982.2-1.058-.253-1.981-.985-3.234-3.092-5.288-16.47-20.255-19.62-19.734C882.35,439.4,879.558,443.222,879.891,446.325Z" transform="translate(-808.171 -428.917)" fill="#cd0400"/>
          <path id="Path_44617" data-name="Path 44617" d="M902,473.386c-1.522-.05-2.64-.957-3.887-2-1.933-1.61-6.784-9.805-17.074-19.406a6.727,6.727,0,0,0-1.147,4.189c.347,3.228,3.843,3.5,9.291,8.576,6.54,6.1,6.952,10.794,10.873,10.939,2.575.1,5.567-1.813,5.975-3.982a2.638,2.638,0,0,0,.037-.322A5.557,5.557,0,0,1,902,473.386Z" transform="translate(-808.171 -438.766)" fill="#ba0000"/>
          <path id="Path_44618" data-name="Path 44618" d="M749.606,557.3c1.036,2.525,3.922,1.923,9.512,4.748,6.71,3.392,8.143,7.087,11.343,6.286,2.1-.526,4.07-2.769,3.892-4.616a3.934,3.934,0,0,0-1.553-2.381c-3.736-3.546-18.046-12.5-20.467-11.338C749.969,551.128,748.609,554.871,749.606,557.3Z" transform="translate(-710.051 -512.333)" fill="#cd0400"/>
          <path id="Path_44619" data-name="Path 44619" d="M771.493,577.355a5.476,5.476,0,0,1-3.606-.7c-1.938-.847-7.775-6.328-18.335-11.67a5.654,5.654,0,0,0,.056,3.652c1.036,2.525,3.922,1.923,9.512,4.748,6.71,3.392,8.143,7.087,11.343,6.286,2.1-.526,4.07-2.768,3.892-4.616a2.286,2.286,0,0,0-.045-.269A4.673,4.673,0,0,1,771.493,577.355Z" transform="translate(-710.052 -523.671)" fill="#ba0000"/>
          <path id="Path_44620" data-name="Path 44620" d="M1155.033,408.078c-1.937,1.506-.719,3.86-1.819,9.382-1.32,6.628-4.174,8.76-2.709,11.338.963,1.693,3.379,2.857,4.936,2.258.76-.292,1.173-.95,1.688-1.919,2.17-4.09,6.472-18.64,4.885-20.457A5.66,5.66,0,0,0,1155.033,408.078Z" transform="translate(-1011.217 -405.077)" fill="#cd0400"/>
          <path id="Path_44621" data-name="Path 44621" d="M1152.759,429.136a4.925,4.925,0,0,1-.263-3.292c.266-1.883,3.606-8.259,5.686-18.691a5.086,5.086,0,0,0-3.149.928c-1.937,1.506-.719,3.86-1.819,9.382-1.32,6.628-4.174,8.76-2.709,11.338.963,1.693,3.379,2.857,4.936,2.258a2.023,2.023,0,0,0,.222-.1A4.2,4.2,0,0,1,1152.759,429.136Z" transform="translate(-1011.217 -405.081)" fill="#ba0000"/>
          <path id="Path_44622" data-name="Path 44622" d="M818.28,554.888c1.6-5.653-4.089-8.462-9.8-20.667-6.859-14.651-4.381-22.811-10.863-25.7-4.258-1.9-10.567-.715-12.718,2.65-1.049,1.641-.914,3.5-.53,6.094,1.62,10.964,13.969,45.115,19.607,46.369C809.475,564.855,816.744,560.322,818.28,554.888Z" transform="translate(-736.203 -480.564)" fill="#cd0400"/>
          <path id="Path_44623" data-name="Path 44623" d="M1032.057,511.57c-.667-4.062,3.955-14,7.8-18.836,3.211-4.041,10.438-13.134,23.61-17.672,21.108-7.272,40.034.986,45.906,4.169,2.8,1.52,9,4.505,7.846,6.975-1.328,2.832-7.139,8.177-9.538,8.888-4.167,1.234-5.558-.76-10.084-2.5-3.173-1.223-12.338-4.755-20.408-4.721-1.941.008-12.674.053-19.02,7.124-6.121,6.82-6.97,12.85-8.136,18.07C1048.557,519.658,1032.907,516.748,1032.057,511.57Z" transform="translate(-922.476 -453.918)" fill="#cd0400"/>
          <path id="Path_44624" data-name="Path 44624" d="M794.4,511.074c2.521,1.113,3.785,3.388,5.177,5.973,2.157,4.007,4.766,21.037,15.556,44.1a12.168,12.168,0,0,0,4.753-6.257c1.6-5.652-4.089-8.462-9.8-20.667-6.859-14.651-4.381-22.811-10.863-25.7-4.258-1.9-10.567-.715-12.718,2.65a4.834,4.834,0,0,0-.28.516C788.191,510.762,791.4,509.75,794.4,511.074Z" transform="translate(-737.813 -480.564)" fill="#ba0000"/>
          <path id="Path_44625" data-name="Path 44625" d="M1200.5,856.92c-3.5-11.245-47.568-13.87-74.886,8.67-11.19,9.233-24.9,28.047-18.812,42.394,3.906,9.206,14.357,12.788,18.018,14.043,9.9,3.392,26,4.033,34.975-6.359a26.694,26.694,0,0,0,6.094-20.137c-1.3-10.088-3.975-16.427-6.624-19.872a2.971,2.971,0,0,1-.646-2.354,22.28,22.28,0,0,1,5.151-1.091c.914-.082,12.224-.956,16.957,5.564,2.8,3.86,1.461,7.779,4.5,9.274a5.417,5.417,0,0,0,6.094-1.06c2.585-3.113-1.021-10.714-5.034-15.1a27.891,27.891,0,0,0-7.3-5.372c7.565.426,11.849,3.866,16.09,3.866C1198.446,869.384,1201.449,859.98,1200.5,856.92Z" transform="translate(-977.558 -736.683)" fill="#ba0000"/>
          <path id="Path_44626" data-name="Path 44626" d="M1165.438,926.653c-3.579.036-10.45,1-11.333,4.493-.422,1.668.875,2.522,2.358,6.016,1.989,4.689,3.557,12.351.665,15.2-1.623,1.6-4.176,1.021-6.539.865-6.365-.418-24.011-12.847-38.509-13.62-5.584,8.675-8.863,18.667-5.28,27.112,3.906,9.206,14.356,12.788,18.017,14.043,9.9,3.392,26,4.033,34.975-6.359a26.694,26.694,0,0,0,6.094-20.137c-1.3-10.088-3.974-16.427-6.624-19.872a2.97,2.97,0,0,1-.646-2.354,22.277,22.277,0,0,1,5.151-1.091c.914-.082,12.225-.956,16.957,5.564,2.788,3.841,1.477,7.739,4.464,9.25a19.455,19.455,0,0,0-4.2-13.181C1175.8,926.55,1167.39,926.633,1165.438,926.653Z" transform="translate(-977.559 -795.416)" fill="#9e0000"/>
          <path id="Path_44627" data-name="Path 44627" d="M633.472,1051.17c-2.142,6.119-.486,14.442,2.826,31.089,3.819,19.193,10.015,48.805,31.089,79.842,14.494,21.346,25.688,28.143,29.676,30.382,5.5,3.089,16.026,9,29.676,8.479,16.889-.646,28.34-10.75,40.981-21.9,8.861-7.819,24.741-22.179,33.915-47.34a112.458,112.458,0,0,0,5.653-50.873c-1.733-14.728-3.937-33.45-17.664-47.34-14.3-14.474-33.33-15.818-53.7-16.958C706.748,1014.915,644.745,1018.973,633.472,1051.17Z" transform="translate(-622.317 -862.735)" fill="#e44541"/>
          <path id="Path_44628" data-name="Path 44628" d="M913.478,1087.531c-1.733-14.728-3.937-33.449-17.664-47.34-9.168-9.277-20.278-13.156-32.436-15.049,5.565,21.918,8.828,50.792,1.412,82.633-4.7,20.181-13.617,58.462-41.09,69.091-14.638,5.663-32.495,2.679-49.86-7.7,14.366,21.042,25.45,27.776,29.414,30,5.5,3.089,16.026,9,29.676,8.479,16.889-.646,28.34-10.75,40.981-21.9,8.861-7.819,24.741-22.179,33.915-47.34A112.456,112.456,0,0,0,913.478,1087.531Z" transform="translate(-728.508 -869.42)" fill="#d63232"/>
          <path id="Path_44629" data-name="Path 44629" d="M699.216,1139.754c29.77-11.183,32.12-60.488,32.654-71.678a126.7,126.7,0,0,0-8.674-51.811c-31.578.178-79.9,6.869-89.724,34.92-2.142,6.119-.486,14.442,2.826,31.089,2.336,11.739,5.568,27.378,12.541,44.853a61.942,61.942,0,0,0,6.573,4.663C659.868,1134.527,680.08,1146.943,699.216,1139.754Z" transform="translate(-622.317 -862.75)" fill="#ef4c48"/>
          <path id="Path_44630" data-name="Path 44630" d="M995.444,1127.873c-1.733-14.728-3.937-33.45-17.664-47.34q-.872-.882-1.768-1.7a149.783,149.783,0,0,1,3.746,15.548c2.22,12,7.352,41.743-5.575,75.661-3.71,9.734-12.821,32.776-35.839,50.971-9.428,7.452-21.428,16.938-39.025,18.318a55.4,55.4,0,0,1-16.391-1.186c.919.582,1.689,1.026,2.292,1.365,5.5,3.089,16.026,9,29.676,8.479,16.889-.646,28.34-10.75,40.981-21.9,8.861-7.819,24.741-22.179,33.915-47.34A112.455,112.455,0,0,0,995.444,1127.873Z" transform="translate(-810.473 -909.763)" fill="#cc2c2c"/>
          <path id="Path_44631" data-name="Path 44631" d="M833.989,1170.66a33.5,33.5,0,0,0,3.2,1.469c1.024.428,2.03.894,2.975,1.37a49.625,49.625,0,0,1,5.061,2.95c1.44.952,2.6,1.819,3.4,2.442s1.25.992,1.25.992-.41-.414-1.15-1.116-1.815-1.69-3.172-2.8a51.1,51.1,0,0,0-4.849-3.522c-.932-.594-1.9-1.169-2.914-1.72a32.615,32.615,0,0,1-2.889-1.694,8.742,8.742,0,0,1-3.51-4.805c-.308-.979-.614-2.056-.972-3.04-.177-.5-.373-1-.542-1.419-.027-.067-.053-.125-.08-.189-.1-2.722-.039-5,.035-6.658.057-.941.1-1.68.132-2.185.039-.528.06-.809.06-.809l-.136,0c.032-.074.066-.144.1-.218a47.789,47.789,0,0,0,4.345-20.667c.265-33.915,5.342-47.521,4.681-47.693-2.381-.62-8.071,13.2-10.6,21.2-3.114,9.849-1.237,23.582-3.886,33.562-2.962,11.158-4.307,13.13-9.892,21.9-1.7,2.678-3.414,5.131-5.111,7.415a48.044,48.044,0,0,1-8.336,1.242c-.418.024-.852.043-1.293.057l-2.545-1.816-1.322-.942-1.472-1.025c-1.026-.709-2.117-1.475-3.279-2.2-.293-.182-.584-.356-.893-.529-.274-.153-.608-.33-.9-.473a18.146,18.146,0,0,0-1.786-.763,18.758,18.758,0,0,0-3.17-.855c-.459-.078-.876-.139-1.244-.177s-.684-.059-.945-.083l-.812-.033.829.155c.265.063.583.121.95.221s.778.209,1.224.35a19.5,19.5,0,0,1,2.974,1.232,17.634,17.634,0,0,1,1.576.917c.268.176.5.332.773.534.245.179.5.376.747.574.993.8,1.977,1.682,2.9,2.5l1.336,1.19,1.174,1.067.134.122c-.3-.015-.6-.027-.9-.05a49.221,49.221,0,0,1-6.6-1.2c-4.646-1.11-9.606-2.562-14.531-4.077-2.478-.759-4.917-1.541-7.34-2.33s-4.787-1.591-7.144-2.3a25.59,25.59,0,0,0-7.086-1.249,32,32,0,0,0-6.372.575,35.277,35.277,0,0,0-8.907,3.064c-1.013.5-1.779.943-2.3,1.24l-.793.471.824-.419c.543-.263,1.336-.654,2.375-1.087a34.919,34.919,0,0,1,8.949-2.453,30.957,30.957,0,0,1,6.159-.164,23.914,23.914,0,0,1,6.579,1.606c2.24.83,4.554,1.79,6.919,2.728s4.786,1.895,7.2,2.807c3.923,1.488,7.856,2.925,11.714,4.193-.166.11-.327.211-.5.33-.35.241-.688.489-1.067.776-.328.256-.712.559-1.082.876-.735.618-1.466,1.348-2.157,1.993a6.733,6.733,0,0,1-2.288,1.473,7.009,7.009,0,0,1-2.786.436,28.537,28.537,0,0,1-3.183-.368c-1.1-.166-2.168-.283-3.216-.361a42.561,42.561,0,0,0-5.64-.035c-1.633.095-2.974.263-3.907.4s-1.461.232-1.461.232.541-.035,1.491-.063,2.309-.043,3.943.048a43.512,43.512,0,0,1,5.568.659c1.007.187,2.06.421,3.113.7a31.038,31.038,0,0,0,3.348.758,8.959,8.959,0,0,0,3.592-.164,8.748,8.748,0,0,0,3.054-1.485c.854-.628,1.568-1.193,2.3-1.672.358-.24.7-.45,1.082-.681.333-.194.692-.4,1.023-.571a24.781,24.781,0,0,1,3.343-1.464c.25-.088.466-.16.65-.219a41.291,41.291,0,0,0,4.586,1.03,49.211,49.211,0,0,0,6.617.463c1.364.007,2.643-.044,3.839-.127-2.078,2.538-4.112,4.885-6.067,7.138-2.68,3.089-4.092,4.555-5.17,5.687l-.129-.124-.306.459c-.088.129-.2.291-.333.478-.708.762-1.371,1.528-2.337,2.776a20.125,20.125,0,0,1-1.84,1.646,19.182,19.182,0,0,1-2.868,1.883,13.3,13.3,0,0,1-1.293.553l-1.2-.268-1.6-.343c-1.116-.235-2.307-.493-3.54-.706-.31-.052-.616-.1-.935-.142-.284-.037-.625-.076-.919-.1-.607-.054-1.2-.078-1.752-.078a19.614,19.614,0,0,0-2.908.212c-.4.063-.764.128-1.077.2s-.577.134-.8.184l-.67.185.733-.1c.239-.024.52-.064.857-.089s.713-.052,1.13-.068a21.322,21.322,0,0,1,2.9.1c.535.055,1.087.134,1.644.24.288.054.534.106.84.177.271.063.556.136.836.212,1.126.308,2.277.674,3.357,1.012l.6.188c-1.063.3-2.176.573-3.311.838l-.164-.06-.018.1c-1.679.388-3.409.749-5.151,1.09-1.521.3-3.033.571-4.54.833s-2.992.5-4.431.792a11.356,11.356,0,0,0-3.948,1.456,13.8,13.8,0,0,0-2.813,2.415,17.193,17.193,0,0,0-2.951,4.85c-.269.651-.446,1.184-.568,1.546l-.177.561.214-.537c.147-.345.358-.854.67-1.469a16.3,16.3,0,0,1,3.236-4.465,13.224,13.224,0,0,1,2.89-2.08,10.946,10.946,0,0,1,3.859-1.061c1.437-.177,2.966-.292,4.51-.439s3.123-.3,4.679-.477q1.9-.215,3.768-.465c-.089.2-.188.411-.3.624a9.19,9.19,0,0,1-.891,1.378,10.451,10.451,0,0,1-1.359,1.3c-1.041.86-2.235,1.724-3.445,2.567-.607.425-1.217.836-1.825,1.242s-1.214.8-1.786,1.2a5.429,5.429,0,0,0-1.446,1.4,6.594,6.594,0,0,0-.764,1.6,8.225,8.225,0,0,0-.354,2.693c.008.337.034.6.05.786s.031.28.031.28l-.01-.276c0-.179-.008-.443.009-.772a7.8,7.8,0,0,1,.553-2.58,6.346,6.346,0,0,1,.862-1.469,5.243,5.243,0,0,1,1.484-1.21c.595-.355,1.242-.7,1.889-1.064s1.309-.735,1.955-1.113c1.3-.761,2.585-1.539,3.744-2.346a11.555,11.555,0,0,0,1.6-1.3,10.065,10.065,0,0,0,1.129-1.449,10.663,10.663,0,0,0,.925-1.788c1.126-.171,2.24-.353,3.317-.563.818-.166,1.617-.342,2.4-.554a48.174,48.174,0,0,0-6.522,14.2c-4.1,16.058,3.532,30.11,3.886,30.029.317-.072-5.226-11.44-1.855-25.26,1.95-7.995,6.109-13.629,10.725-19.431-.006.418,0,.846.016,1.294a21.088,21.088,0,0,0,.508,3.806,24.192,24.192,0,0,0,1.525,4.037c.4.873.843,1.757,1.3,2.644-.029.056-.055.1-.086.163a11.1,11.1,0,0,0-.921,2.58,10.1,10.1,0,0,0-.235,1.822,11.582,11.582,0,0,0,.207,2.054c.243,1.391.594,2.851.97,4.31.186.726.386,1.459.586,2.173s.407,1.418.574,2.09a5.235,5.235,0,0,1,.185,1.906,6.326,6.326,0,0,1-.436,1.646,7.8,7.8,0,0,1-1.443,2.209c-.222.245-.413.426-.542.55l-.2.188.221-.175c.141-.116.349-.286.594-.518a8.227,8.227,0,0,0,1.663-2.147,6.6,6.6,0,0,0,.6-1.67,5.429,5.429,0,0,0-.023-2.013c-.114-.693-.264-1.4-.4-2.115s-.277-1.441-.4-2.171c-.252-1.453-.48-2.91-.6-4.254a10.461,10.461,0,0,1-.035-1.878,9.174,9.174,0,0,1,.352-1.6,9.486,9.486,0,0,1,.436-1.128q.939,1.756,1.934,3.518c.767,1.365,1.567,2.738,2.354,4.071s1.587,2.643,2.286,3.912a10.942,10.942,0,0,1,1.4,3.749,13.234,13.234,0,0,1,.008,3.56,16.3,16.3,0,0,1-1.722,5.238c-.316.613-.6,1.083-.8,1.4l-.31.488.351-.472c.221-.311.55-.767.92-1.366a17.187,17.187,0,0,0,2.2-5.233,13.81,13.81,0,0,0,.309-3.695,11.352,11.352,0,0,0-1.133-4.053c-.6-1.339-1.288-2.681-1.954-4.055s-1.336-2.759-1.984-4.167c-.9-1.949-1.772-3.906-2.55-5.811l.407.22,1.276.69,1.433.79c.989.549,2.048,1.13,3.047,1.734.248.151.5.307.729.46.262.173.469.316.707.487.46.33.9.677,1.307,1.025a21.307,21.307,0,0,1,2.074,2.031c.276.313.523.6.73.866s.379.492.527.682l.43.6-.328-.613c-.116-.194-.242-.433-.416-.7s-.369-.579-.6-.914a19.571,19.571,0,0,0-1.851-2.253c-.384-.4-.806-.812-1.264-1.215-.221-.2-.484-.416-.707-.6-.25-.2-.5-.39-.748-.579-1-.747-2.013-1.431-2.952-2.078l-1.354-.925-1.232-.828-2.228-1.494a21.15,21.15,0,0,1-1.029-3.616,19.171,19.171,0,0,1-.154-3.427,21.334,21.334,0,0,1,.866-5.128c.181-.61.35-1.087.461-1.4l.193-.517-.111-.02c5.653-6.027,9.128-7.19,17.735-16.871,3.114-3.5,6.149-6.816,8.887-10.5.037.251.071.5.111.756.135.869.288,1.771.463,2.7l.276,1.4.318,1.472c.441,1.96.982,4.008,1.616,6.085s1.351,4.183,2.082,6.282c.257.741.53,1.484.8,2.228-.024.063-.044.11-.07.177a36.516,36.516,0,0,0-1.345,4.248c-.114.451-.216.9-.325,1.408-.09.446-.193.97-.277,1.494-.175,1.033-.282,2.147-.408,3.165a8.741,8.741,0,0,1-2.585,5.36,32.624,32.624,0,0,1-2.536,2.187c-.9.725-1.747,1.465-2.556,2.217a51.145,51.145,0,0,0-4.134,4.339c-1.135,1.335-2.016,2.5-2.616,3.324s-.93,1.305-.93,1.305.374-.445,1.05-1.2,1.659-1.819,2.9-3.015a49.552,49.552,0,0,1,4.446-3.814c.844-.639,1.749-1.278,2.679-1.885a33.632,33.632,0,0,0,2.885-2.022,10.944,10.944,0,0,0,2.524-2.9,11.606,11.606,0,0,0,1.36-3.478c.255-1.133.447-2.109.7-3.035.121-.457.248-.88.391-1.348.13-.4.272-.834.412-1.22.076-.212.153-.4.229-.6l.432,1.063.309.744.3.788a31.711,31.711,0,0,1,.966,3.034,48.744,48.744,0,0,1,1.2,6.233,85.122,85.122,0,0,1,.617,11.427c-.013,3.373-.188,6.187-.3,8.158l-.23,3.1.542-3.059c.315-1.952.776-4.744,1.132-8.129a86.793,86.793,0,0,0,.548-11.673,51.334,51.334,0,0,0-.6-6.672c-.021-.133-.052-.272-.075-.407l1.17.632,1.433.79c.989.549,2.048,1.13,3.048,1.734.247.151.5.307.729.46.262.173.469.316.707.486.46.331.9.677,1.307,1.025a21.354,21.354,0,0,1,2.075,2.031c.276.313.522.6.73.866s.379.492.526.682l.43.6-.328-.613c-.116-.194-.242-.433-.416-.7s-.369-.58-.6-.914a19.544,19.544,0,0,0-1.851-2.252c-.384-.4-.806-.813-1.264-1.216-.221-.2-.484-.416-.707-.6-.25-.2-.5-.391-.748-.579-1-.747-2.013-1.431-2.952-2.078l-1.354-.925-1.232-.828-1.144-.767c-.07-.294-.132-.589-.209-.88l-.223-.814-.255-.848-.471-1.606c-.615-2.143-1.175-4.3-1.681-6.43-.516-2.162-1-4.258-1.4-6.283-.281-1.426-.5-2.8-.7-4.148.144.187.287.375.439.542A10.942,10.942,0,0,0,833.989,1170.66Z" transform="translate(-698.706 -911.636)" fill="#9b1b28"/>
          <path id="Path_44632" data-name="Path 44632" d="M714.407,1262.843c-4.091,3.971-4.362,10-4.059,14.6a29.824,29.824,0,0,0,10.443,21.591c.616.523,13.368,12.4,21.113,7.691,18.915-11.512,13.979-34.728,4.051-46.487C738.417,1251.314,725.112,1252.451,714.407,1262.843Z" transform="translate(-680.734 -1041.551)" fill="#ff685c"/>
          <path id="Path_44633" data-name="Path 44633" d="M871.731,850.579c7.194-3.279,11.021-6.787,23.446-7.867,15.428-1.341,21.424-5.474,29.395-5.8,1.347-.056,14.772-5.841,18.052-30.565.329-2.48,7.051-8.759,33.45-13.563,15.713-2.859,29.728-3.339,35.723-3.874,8.911-.8,11.585-19.736,7.127-25.431-2.395-3.06,2.654-5.626.224-5.7-29.269-.927-59.138,9.74-98.525,16.708-34.445,6.094-33.712-5.556-42.129-5.176a14.327,14.327,0,0,0-9.009,3.179c-4.007,3.488-6.328,10.1-4.239,14.838,2.808,6.365,11.148,3.842,20.137,12.718,2.737,2.7,7.252,11.54,10.775,17.664,1.539,2.675-11.087,10.427-18.724,14.661-2.183,1.211-5.376,2.567-12.188,6.359-4.85,2.7-6.552-4.261-7.885-2.958C846.305,846.575,852.408,859.387,871.731,850.579Z" transform="translate(-787.144 -668.483)" fill="#7aabed"/>
          <path id="Path_44634" data-name="Path 44634" d="M935.211,817.038a22.453,22.453,0,0,1,5.155-5.805c-16.281-.265-17.3-7.23-23.84-6.935a14.327,14.327,0,0,0-9.009,3.179c-4.008,3.488-6.328,10.1-4.239,14.838,2.808,6.365,11.148,3.843,20.137,12.718,2.684,2.65,7.077,11.2,10.569,17.3-.077-5.1-1.848-11.108-2-17.872C931.852,828.481,931.724,822.736,935.211,817.038Z" transform="translate(-825.175 -703.477)" fill="#578de5"/>
          <path id="Path_44635" data-name="Path 44635" d="M881.689,476.583c-4.637-2.037-19.834-8.94-39.427-6.621a39.093,39.093,0,0,1-1.378-12.1c.576-16.2,6.193-31.888,6.394-34.584.256-3.444-12.223-6.442-14.872-5.955-3.315.609-7.684,5.564-13.248,44.514a76.889,76.889,0,0,0-.862,15.191,55.716,55.716,0,0,0-17.862,14.046c-8.948,10.7-11.111,21.981-12.718,28.616-7.066,29.176,5.351,61.432,11.442,65.044,3.3,2.44,8.406,4.843,27.58-4.766,14.838-7.436,20.934-14.571,19.623-18.063,0,0-9.525-19.013-9.892-27.73-1.153-27.379,21.109-28.174,30.382-22.61a18,18,0,0,1,6.976,6.76c33.354-6.956,29.076-5.825,32.768-6.76l9.28-2.353C912.8,504.315,903.267,486.062,881.689,476.583Z" transform="translate(-737.346 -412.678)" fill="#cd0400"/>
          <path id="Path_44636" data-name="Path 44636" d="M802.033,712.254c-2.117-11.43-3.963-16.86-1.062-24.955,1.523-4.251,4.139-8.131,7.964-13.8s6.322-8.414,7.964-10.619c9.277-12.457,7.7-29.925,6.9-38.759a79.119,79.119,0,0,0-4.864-21,73.228,73.228,0,0,0-.643,13.548,55.716,55.716,0,0,0-17.862,14.046c-8.948,10.7-11.111,21.981-12.718,28.616-7.066,29.176,5.351,61.432,11.442,65.044a10.092,10.092,0,0,0,4.211,1.953A67.271,67.271,0,0,0,802.033,712.254Z" transform="translate(-737.346 -552.325)" fill="#b20501"/>
          <path id="Path_44637" data-name="Path 44637" d="M901.5,735.268c-3.663-1.73-29.13-11.048-44.571,14.883-8.13,13.653-4.431,40.055-5.7,45.835-3.984,18.14-23.949,19.161-29.959,19.138,1.686,3.255,3.341,5.457,4.688,6.255,3.3,2.441,8.406,4.843,27.58-4.766,14.838-7.436,20.934-14.572,19.623-18.063,0,0-9.525-19.013-9.892-27.73-1.153-27.379,21.109-28.174,30.382-22.61a17.994,17.994,0,0,1,6.976,6.76c4.967-1.036,16.217-3.14,19.666-3.851C917.792,747.43,908.472,738.563,901.5,735.268Z" transform="translate(-764.142 -649.331)" fill="#ba0000"/>
          <path id="Path_44638" data-name="Path 44638" d="M910.475,770.286c-1.549-1.149-14.331-10.328-27.078-4.779-8.855,3.855-12.314,12.476-13.274,14.867-3.916,9.758-1.528,19.807-1.062,21.769.218.916,1.228,5,2.655,11.15,1.082,4.66,1.487,6.561,1.062,9.026-.347,2.011-1.528,4.222-4.248,7.964-8.416,11.579-21.649,13.574-23.362,13.8a34.411,34.411,0,0,1-10.637-.241,6.46,6.46,0,0,0,1.39,1.211c3.3,2.441,8.406,4.843,27.58-4.766,14.838-7.436,20.934-14.572,19.623-18.063,0,0-9.525-19.013-9.892-27.73-1.153-27.379,21.109-28.174,30.382-22.61a18,18,0,0,1,6.976,6.76c2.409-.5,4.616-.961,6.648-1.383A29.983,29.983,0,0,0,910.475,770.286Z" transform="translate(-774.109 -673.009)" fill="#9e0000"/>
          <path id="Path_44639" data-name="Path 44639" d="M684.7,639.491c-62.291,15.178-64.884,86.981-60.152,92.3,3.2,3.595,11.083,1.422,26.852-2.922,4.945-1.362,10.676-3.218,12.6-6.7,1.5-2.717.2-8.858,6.429-19.76,1.955-3.422,7.736-10.925,14.856-14.623,8.471-4.4-.867-9.485-.369-10.879,3.3-9.223,5.375-24.771-2.159-32.54C682.021,643.615,688.775,638.5,684.7,639.491Z" transform="translate(-615.173 -579.557)" fill="#a7cbff"/>
          <path id="Path_44640" data-name="Path 44640" d="M760.458,742.476a52.5,52.5,0,0,0,2.97-15.851,66.654,66.654,0,0,0-19.7,15.244c-2.045,2.327-7.991,9.429-13.274,23.362a115.3,115.3,0,0,0-6.9,30.136c1.091-.3,2.22-.609,3.4-.934,4.945-1.362,10.676-3.218,12.6-6.7,1.5-2.717.2-8.858,6.429-19.76,1.955-3.422,7.736-10.925,14.856-14.623C769.3,748.955,759.96,743.87,760.458,742.476Z" transform="translate(-690.72 -645.124)" fill="#73aae0"/>
          <path id="Path_44641" data-name="Path 44641" d="M969.519,1081.346c-2.381-.62-8.07,13.2-10.6,21.2-3.113,9.849-1.237,23.582-3.886,33.562-2.962,11.158-4.307,13.13-9.892,21.9a162.81,162.81,0,0,1-15.545,20.137c-5.453,6.285-5.662,5.862-8.479,9.539-3.341,4.361-8.975,11.713-11.305,20.844-4.1,16.058,3.532,30.11,3.886,30.029.317-.072-5.226-11.44-1.855-25.26,2.118-8.682,6.839-14.58,11.923-20.932,8.193-10.236,11.126-9.571,21.462-21.2,5.851-6.582,11.436-12.483,15.262-21.462a47.791,47.791,0,0,0,4.345-20.667C965.1,1095.124,970.18,1081.518,969.519,1081.346Z" transform="translate(-829.769 -911.636)" fill="#ac232b"/>
          <path id="Path_44642" data-name="Path 44642" d="M965.765,1507.68l-.15.534c-.1.376-.24.908-.383,1.592a23.235,23.235,0,0,0-.468,5.706,21.106,21.106,0,0,0,.508,3.806,24.176,24.176,0,0,0,1.526,4.037c1.241,2.679,2.737,5.438,4.283,8.182.767,1.365,1.567,2.738,2.354,4.071s1.587,2.644,2.286,3.912a10.947,10.947,0,0,1,1.4,3.749,13.231,13.231,0,0,1,.008,3.56,16.3,16.3,0,0,1-1.722,5.238c-.315.613-.6,1.082-.8,1.4l-.31.488.351-.472c.221-.311.55-.767.92-1.366a17.183,17.183,0,0,0,2.2-5.233,13.81,13.81,0,0,0,.309-3.694,11.358,11.358,0,0,0-1.133-4.053c-.6-1.339-1.288-2.681-1.954-4.055s-1.336-2.759-1.984-4.167c-1.294-2.8-2.538-5.617-3.509-8.266a21.854,21.854,0,0,1-1.083-3.773,19.216,19.216,0,0,1-.154-3.427,21.331,21.331,0,0,1,.867-5.128c.181-.61.349-1.088.461-1.4l.193-.517Z" transform="translate(-871.946 -1231.987)" fill="#ac232b"/>
          <path id="Path_44643" data-name="Path 44643" d="M744.337,1251.972l.2.33c.143.231.347.554.626.951a16.145,16.145,0,0,0,2.673,2.95,14.676,14.676,0,0,0,2.173,1.552,16.818,16.818,0,0,0,2.774,1.145c1.949.644,4.061,1.2,6.189,1.716,1.057.26,2.134.507,3.185.741s2.1.451,3.072.7a7.613,7.613,0,0,1,2.569,1.071,9.2,9.2,0,0,1,1.81,1.689,11.33,11.33,0,0,1,1.84,3.365c.161.452.262.821.333,1.072l.1.389-.073-.4c-.053-.26-.128-.644-.256-1.116a11.947,11.947,0,0,0-1.609-3.6,9.607,9.607,0,0,0-1.728-1.914,7.894,7.894,0,0,0-2.6-1.352c-.967-.33-1.973-.621-2.987-.936s-2.036-.634-3.058-.974c-2.035-.674-4.057-1.382-5.863-2.149a15.185,15.185,0,0,1-2.43-1.244,13.337,13.337,0,0,1-1.813-1.551,14.846,14.846,0,0,1-2.19-2.877c-.223-.382-.386-.694-.49-.9l-.171-.344Z" transform="translate(-706.34 -1038.583)" fill="#cc2c2c"/>
          <path id="Path_44644" data-name="Path 44644" d="M1090.76,545.152c-.911,2.645-2.47,5.661-.8,5.973,18.119,3.384,31.609,13.514,35.64,16.924a67.8,67.8,0,0,1,16.036,20.623l2.367-.6c-3.071-4.891-12.607-23.143-34.186-32.622a81.261,81.261,0,0,0-16.622-5.521c1.093-5.043,2.143-10.818,7.97-17.31,6.346-7.071,17.079-7.116,19.02-7.124,8.071-.034,17.235,3.5,20.408,4.721,4.526,1.744,5.918,3.739,10.085,2.5a4.738,4.738,0,0,0,.755-.322C1142.617,526.606,1103.877,507.074,1090.76,545.152Z" transform="translate(-965.477 -491.546)" fill="#ba0000"/>
          <path id="Path_44645" data-name="Path 44645" d="M932.707,1164.476l.385.019c.271.011.653.022,1.139.013a16.143,16.143,0,0,0,3.94-.567,14.67,14.67,0,0,0,2.5-.934,16.85,16.85,0,0,0,2.5-1.66c1.624-1.256,3.262-2.7,4.883-4.172.807-.732,1.613-1.486,2.4-2.227s1.546-1.486,2.3-2.156a7.611,7.611,0,0,1,2.324-1.531,9.205,9.205,0,0,1,2.412-.557,11.333,11.333,0,0,1,3.818.356c.464.119.827.242,1.075.323l.379.134-.374-.165c-.245-.1-.6-.254-1.069-.412a11.943,11.943,0,0,0-3.888-.682,9.608,9.608,0,0,0-2.553.363,7.9,7.9,0,0,0-2.572,1.4c-.815.617-1.618,1.289-2.446,1.953s-1.664,1.333-2.517,1.991c-1.7,1.31-3.414,2.591-5.06,3.659a15.2,15.2,0,0,1-2.39,1.319,13.361,13.361,0,0,1-2.3.635,14.843,14.843,0,0,1-3.61.207c-.442-.029-.791-.069-1.019-.1l-.38-.05Z" transform="translate(-847.781 -963.432)" fill="#cc2c2c"/>
          <path id="Path_44646" data-name="Path 44646" d="M936.99,1258.665l.265.013c.186.007.449.015.783.009a11.109,11.109,0,0,0,2.711-.39,10.083,10.083,0,0,0,1.721-.643,11.559,11.559,0,0,0,1.72-1.142c1.117-.864,2.244-1.856,3.359-2.87.555-.5,1.11-1.023,1.648-1.532s1.064-1.022,1.581-1.483a5.235,5.235,0,0,1,1.6-1.053,6.326,6.326,0,0,1,1.66-.383,7.8,7.8,0,0,1,2.627.245c.319.082.569.166.74.222l.261.093-.258-.113c-.169-.07-.416-.175-.735-.283a8.211,8.211,0,0,0-2.675-.469,6.6,6.6,0,0,0-1.756.25,5.434,5.434,0,0,0-1.769.96c-.56.424-1.113.886-1.683,1.344s-1.145.917-1.732,1.37c-1.167.9-2.349,1.783-3.481,2.518a10.457,10.457,0,0,1-1.644.907,9.187,9.187,0,0,1-1.582.437,10.2,10.2,0,0,1-2.484.142c-.3-.019-.544-.047-.7-.066l-.262-.035Z" transform="translate(-851.028 -1037.535)" fill="#cc2c2c"/>
          <path id="Path_44647" data-name="Path 44647" d="M974.578,1578.329l-.135.228c-.093.162-.223.39-.373.689a11.119,11.119,0,0,0-.921,2.579,10.092,10.092,0,0,0-.235,1.822,11.588,11.588,0,0,0,.207,2.054c.243,1.391.594,2.851.97,4.31.186.726.386,1.459.586,2.173s.407,1.418.574,2.09a5.236,5.236,0,0,1,.185,1.906,6.326,6.326,0,0,1-.436,1.646,7.79,7.79,0,0,1-1.443,2.209c-.221.244-.413.426-.542.55l-.2.188.22-.175c.141-.116.349-.286.594-.518a8.218,8.218,0,0,0,1.663-2.147,6.606,6.606,0,0,0,.6-1.67,5.441,5.441,0,0,0-.023-2.013c-.114-.693-.265-1.4-.4-2.115s-.277-1.441-.4-2.171c-.252-1.453-.48-2.91-.6-4.254a10.443,10.443,0,0,1-.035-1.878,9.171,9.171,0,0,1,.352-1.6,10.2,10.2,0,0,1,1.034-2.263c.159-.26.3-.459.386-.589l.153-.215Z" transform="translate(-878.008 -1285.07)" fill="#ac232b"/>
          <path id="Path_44648" data-name="Path 44648" d="M874.256,1531.52l-.067.257c-.049.18-.12.433-.226.75a11.106,11.106,0,0,1-1.184,2.47,10.08,10.08,0,0,1-1.128,1.449,11.559,11.559,0,0,1-1.6,1.3c-1.159.807-2.443,1.585-3.744,2.346-.646.379-1.308.752-1.955,1.113s-1.294.708-1.889,1.064a5.245,5.245,0,0,0-1.484,1.21,6.328,6.328,0,0,0-.862,1.469,7.806,7.806,0,0,0-.553,2.58c-.017.329-.012.593-.009.772l.01.276s-.011-.1-.031-.28-.042-.45-.05-.786a8.219,8.219,0,0,1,.354-2.693,6.609,6.609,0,0,1,.764-1.6,5.429,5.429,0,0,1,1.447-1.4c.572-.408,1.179-.8,1.786-1.2s1.218-.817,1.825-1.242c1.21-.843,2.4-1.708,3.445-2.567a10.445,10.445,0,0,0,1.358-1.3,9.178,9.178,0,0,0,.891-1.378,10.215,10.215,0,0,0,.88-2.327c.072-.3.118-.533.147-.688l.045-.26Z" transform="translate(-792.851 -1249.397)" fill="#ac232b"/>
          <path id="Path_44649" data-name="Path 44649" d="M949.824,1297.361l-.051.26c-.034.183-.08.442-.122.774a11.117,11.117,0,0,0-.005,2.739,10.106,10.106,0,0,0,.388,1.8,11.6,11.6,0,0,0,.882,1.867c.694,1.23,1.513,2.489,2.355,3.738.418.622.852,1.246,1.278,1.852s.858,1.2,1.24,1.778a5.237,5.237,0,0,1,.812,1.734,6.334,6.334,0,0,1,.139,1.7,7.8,7.8,0,0,1-.621,2.564c-.127.3-.247.539-.327.7l-.129.245.149-.238c.094-.157.233-.387.386-.687a8.222,8.222,0,0,0,.85-2.579,6.6,6.6,0,0,0,.006-1.774,5.433,5.433,0,0,0-.695-1.89c-.339-.615-.717-1.229-1.087-1.859s-.743-1.265-1.105-1.911c-.724-1.285-1.425-2.582-1.989-3.808a10.418,10.418,0,0,1-.661-1.758,9.164,9.164,0,0,1-.2-1.629,10.2,10.2,0,0,1,.217-2.479c.063-.3.125-.532.167-.684l.072-.254Z" transform="translate(-860.542 -1073.958)" fill="#cc2c2c"/>
          <path id="Path_44650" data-name="Path 44650" d="M716.862,1245.96l-.3.281c-.211.2-.5.484-.853.865a13.8,13.8,0,0,0-2.329,3.471,12.474,12.474,0,0,0-.895,2.652,15.37,15.37,0,0,0-.156,3.22c.08,2.23.338,4.617.641,7.015.149,1.192.322,2.4.5,3.583s.371,2.35.5,3.452a6.946,6.946,0,0,1-.157,2.984,7.781,7.781,0,0,1-1.213,2.289,10.562,10.562,0,0,1-3.177,2.655c-.464.264-.856.447-1.122.573l-.416.186.444-.159c.284-.109.7-.266,1.207-.5a11.623,11.623,0,0,0,3.56-2.454,8.211,8.211,0,0,0,1.513-2.245,6.973,6.973,0,0,0,.477-3.068c-.027-1.108-.117-2.251-.182-3.407s-.129-2.321-.168-3.492c-.082-2.328-.117-4.65.01-6.75a13.374,13.374,0,0,1,.421-2.868,11.242,11.242,0,0,1,1.049-2.264,12.967,12.967,0,0,1,2.451-2.936c.354-.317.653-.554.849-.708l.332-.253Z" transform="translate(-678.946 -1035.337)" fill="#cc2c2c"/>
          <path id="Path_44651" data-name="Path 44651" d="M855.115,1495.95l-.344.435c-.246.3-.6.727-1.066,1.243a23.214,23.214,0,0,1-4.349,3.722,21.107,21.107,0,0,1-3.382,1.818,24.2,24.2,0,0,1-4.165,1.129c-2.9.564-6.01.968-9.14,1.323-1.556.178-3.136.334-4.679.477s-3.072.263-4.51.439a10.943,10.943,0,0,0-3.859,1.061,13.225,13.225,0,0,0-2.89,2.08,16.3,16.3,0,0,0-3.236,4.465c-.312.615-.523,1.124-.67,1.469l-.214.537.177-.561c.123-.362.3-.895.568-1.546a17.185,17.185,0,0,1,2.951-4.85,13.805,13.805,0,0,1,2.813-2.415,11.355,11.355,0,0,1,3.948-1.456c1.439-.3,2.928-.527,4.431-.792s3.019-.534,4.539-.833c3.025-.591,6.039-1.234,8.754-2a21.851,21.851,0,0,0,3.693-1.333,19.207,19.207,0,0,0,2.868-1.883,21.34,21.34,0,0,0,3.648-3.707c.388-.5.677-.92.863-1.193l.306-.459Z" transform="translate(-757.638 -1221.047)" fill="#ac232b"/>
          <path id="Path_44652" data-name="Path 44652" d="M779.416,1134.834l.834.335,1.023.414,1.593.692c.581.266,1.185.574,1.86.9.664.372,1.388.727,2.139,1.2a32.64,32.64,0,0,1,4.859,3.5,26.9,26.9,0,0,1,4.789,5.456,23.908,23.908,0,0,1,1.868,3.441c.32.692.543,1.3.772,1.931s.412,1.255.587,1.865c.346,1.218.61,2.332.913,3.309a13.7,13.7,0,0,0,1.118,2.7,13.05,13.05,0,0,0,.8,1.258,13.653,13.653,0,0,0,.951,1.185,14.816,14.816,0,0,0,2.382,2.039c1.881,1.34,4.045,2.619,6.137,3.891s4.127,2.457,6.169,3.527l3.067,1.559a22.075,22.075,0,0,1,3.019,1.805l.687.519.621.506c.435.362.832.724,1.215,1.086a26.167,26.167,0,0,1,2.063,2.229,29.7,29.7,0,0,1,2.943,4.329,36.313,36.313,0,0,1,1.748,3.582c.425,1.016.73,1.821.918,2.377l.3.848-.412-.8c-.262-.522-.676-1.275-1.231-2.21a35.558,35.558,0,0,0-2.182-3.235,28.309,28.309,0,0,0-3.349-3.7,24.217,24.217,0,0,0-2.176-1.777c-.395-.28-.8-.557-1.207-.809-.2-.129-.443-.267-.664-.4l-.647-.359a19.284,19.284,0,0,0-2.847-1.2l-3.277-1.126c-2.245-.8-4.56-1.749-6.824-2.724s-4.576-1.929-6.969-3.166a20.68,20.68,0,0,1-3.651-2.351,19.759,19.759,0,0,1-3.057-3.185,20.457,20.457,0,0,1-2.253-3.757c-.593-1.257-1.039-2.415-1.479-3.4-.219-.491-.437-.952-.66-1.381s-.464-.857-.669-1.16a15.516,15.516,0,0,0-1.6-2.16,17.985,17.985,0,0,0-3.672-3.116,23.06,23.06,0,0,0-3.757-1.952c-.58-.264-1.175-.449-1.692-.655-.542-.171-1.045-.346-1.482-.475l-1.141-.315-1.023-.257-.873-.216Z" transform="translate(-730.122 -951.84)" fill="#cc2c2c"/>
          <path id="Path_44653" data-name="Path 44653" d="M1129.018,1020.63c2.11-5.088,18.816,4.889,23.673,7.18,4.575,2.158,19.441,10.106,23.366,25.616,3.823,15.109-4.062,49.5-9.4,44.073-15.925-16.177-27.059-14.409-41.253-22.15-12.613-6.88-14.527-32.911-14.186-39.09C1111.756,1026.494,1124.867,1030.64,1129.018,1020.63Z" transform="translate(-981.977 -864.958)" fill="#ffa5a4"/>
          <path id="Path_44654" data-name="Path 44654" d="M1148.749,1111.286c-4.777-1.945-7.628-1.1-12.069-4.157a19.8,19.8,0,0,1-7.12-8.759c-2.228-5.633.276-7.983-1.661-12.811-2.1-5.244-6.451-5.954-9.755-9.386-1.968-2.046-3.657-5.155-4.18-10.094a6.72,6.72,0,0,0-2.748,5.4c-.341,6.18,1.573,32.211,14.186,39.09,14.194,7.741,25.328,5.973,41.253,22.15a1.909,1.909,0,0,0,.8.513,50.536,50.536,0,0,0-6.353-10.873C1157.371,1117.523,1154.311,1113.551,1148.749,1111.286Z" transform="translate(-981.977 -900.179)" fill="#f98080"/>
          <path id="Path_44655" data-name="Path 44655" d="M935.179,869.316c-2.57,5.436-5.424,30.82-38.343,33.45-7.256.58-12.932,4.3-20.176,7.964-7.678,3.888-8.832,5.485-12.743,5.84a20.881,20.881,0,0,1-10.086-1.615c1.786,4.542,8.476,6.447,19.367,1.482,7.194-3.279,11.021-6.787,23.446-7.867,15.428-1.341,20.41-.288,28.16-2.18,30.382-7.419,0-40.26,52.737-47.753,15.812-2.247,29.728-3.339,35.723-3.874,2.853-.255,3.084-6.079,4.63-9.024C1006.936,844.276,946.135,846.141,935.179,869.316Z" transform="translate(-788.611 -734.341)" fill="#568be8"/>
          <path id="Path_44656" data-name="Path 44656" d="M1485.25,757.91c-4.167-1.353-9.7,4.446-12.355,12.952s-1.431,16.5,2.736,17.85,9.7-4.446,12.355-12.952S1489.417,759.263,1485.25,757.91Zm.46,17.111c-2.208,7.072-6.3,11.451-8.823,11.451a1.7,1.7,0,0,1-.529-.081c-1.076-.349-1.932-1.956-2.291-4.3a24.515,24.515,0,0,1,1.107-10.493c2.208-7.073,6.3-11.451,8.823-11.451a1.69,1.69,0,0,1,.53.081C1486.674,760.928,1488.2,767.037,1485.71,775.022Z" transform="translate(-1252.705 -668.483)" fill="#9cd0ff"/>
          <path id="Path_44657" data-name="Path 44657" d="M1484.2,793.879a1.79,1.79,0,0,1-.545-.081c-1.108-.35-1.99-1.959-2.36-4.3a23.925,23.925,0,0,1,1.14-10.511c2.275-7.086,6.489-11.471,9.089-11.471a1.792,1.792,0,0,1,.545.081c2.213.7,3.789,6.818,1.22,14.816C1491.018,789.494,1486.8,793.879,1484.2,793.879Z" transform="translate(-1259.931 -675.844)" fill="#776174"/>
          <path id="Path_44658" data-name="Path 44658" d="M812.561,1393.584l-.913.218c-.645.148-1.556.351-2.73.566a53.821,53.821,0,0,1-9.84.875,49.158,49.158,0,0,1-6.617-.463,52.884,52.884,0,0,1-7.085-1.75c-4.716-1.453-9.588-3.229-14.437-5.069-2.412-.912-4.839-1.866-7.2-2.807s-4.678-1.9-6.918-2.728a23.914,23.914,0,0,0-6.579-1.606,30.956,30.956,0,0,0-6.159.164,34.914,34.914,0,0,0-8.949,2.453c-1.04.433-1.833.824-2.375,1.087l-.824.419.793-.471c.524-.3,1.29-.739,2.3-1.24a35.274,35.274,0,0,1,8.907-3.065,31.992,31.992,0,0,1,6.371-.575,25.574,25.574,0,0,1,7.086,1.249c2.357.705,4.724,1.513,7.144,2.3s4.862,1.571,7.34,2.33c4.926,1.515,9.885,2.966,14.531,4.076a49.223,49.223,0,0,0,6.6,1.2,44.98,44.98,0,0,0,5.939.03,48.475,48.475,0,0,0,8.814-1.356c1.043-.261,1.858-.5,2.388-.657l.882-.271Z" transform="translate(-697.021 -1135.744)" fill="#ac232b"/>
          <path id="Path_44659" data-name="Path 44659" d="M658.732,1121.28l.768.54c.538.385,1.294.932,2.233,1.669a53.838,53.838,0,0,1,7.175,6.789,49.157,49.157,0,0,1,4.038,5.263,52.838,52.838,0,0,1,3.384,6.466c2.037,4.5,3.935,9.32,5.77,14.172.915,2.411,1.809,4.861,2.668,7.251s1.679,4.761,2.542,6.989a23.9,23.9,0,0,0,3.156,5.991,30.941,30.941,0,0,0,4.2,4.5,34.9,34.9,0,0,0,7.767,5.076c1.013.491,1.831.827,2.388,1.059l.86.339-.879-.282c-.57-.2-1.409-.476-2.455-.9a35.277,35.277,0,0,1-8.2-4.64,32.01,32.01,0,0,1-4.653-4.391,25.573,25.573,0,0,1-3.76-6.134c-1.034-2.232-2-4.541-3.014-6.872s-2.045-4.682-3.119-7.041c-2.129-4.693-4.329-9.369-6.576-13.584a49.275,49.275,0,0,0-3.475-5.737,45.011,45.011,0,0,0-3.913-4.468,48.492,48.492,0,0,0-6.856-5.7c-.887-.608-1.6-1.061-2.074-1.353l-.787-.481Z" transform="translate(-639.913 -941.656)" fill="#cc2c2c"/>
          <path id="Path_44660" data-name="Path 44660" d="M1095.38,1356.733l-.06.809c-.03.5-.075,1.243-.132,2.184-.084,1.893-.152,4.606.018,7.861q.064,1.22.174,2.537.063.667.128,1.354.075.668.152,1.356c.224,1.859.533,3.812.932,5.837s.883,4.121,1.4,6.283c.505,2.134,1.066,4.287,1.681,6.43l.471,1.606.255.848.223.814a34.924,34.924,0,0,1,.727,3.45,51.343,51.343,0,0,1,.6,6.672,86.8,86.8,0,0,1-.548,11.673c-.357,3.386-.817,6.177-1.132,8.129l-.542,3.059s.084-1.125.23-3.1c.117-1.971.292-4.785.3-8.158a85.088,85.088,0,0,0-.617-11.428,48.762,48.762,0,0,0-1.2-6.233,31.7,31.7,0,0,0-.966-3.034l-.3-.788-.309-.744-.645-1.586c-.849-2.124-1.648-4.272-2.386-6.4-.731-2.1-1.453-4.2-2.082-6.282s-1.175-4.125-1.616-6.085q-.161-.746-.318-1.472l-.276-1.4c-.176-.93-.329-1.833-.463-2.7-.537-3.477-.763-6.408-.879-8.46l-.1-2.4-.022-.811Z" transform="translate(-964.617 -1118.441)" fill="#ac232b"/>
          <path id="Path_44661" data-name="Path 44661" d="M1243.263,721.137c7.34-12.614,13.056-32.119,15.326-34.336,2.746-2.681,10.2,1.171,12.084,3.517,1.706,2.129-8.592,25.007-8.592,25.007C1256.47,718.17,1241.536,724.1,1243.263,721.137Z" transform="translate(-1081.115 -614.515)" fill="#7aabed"/>
          <path id="Path_44662" data-name="Path 44662" d="M863.19,1196.334l.5.077c.3.047.772.113,1.36.18a38.513,38.513,0,0,0,4.937.246c.507-.005,1.064-.027,1.586-.054.6-.039,1.145-.076,1.725-.138,1.178-.113,2.388-.324,3.805-.529a13.6,13.6,0,0,1,4.6.071,13.081,13.081,0,0,1,4.44,1.746,41.366,41.366,0,0,1,3.58,2.583c1.1.854,2.23,1.662,3.332,2.4a60.216,60.216,0,0,0,6.322,3.665c1.918.967,3.569,1.679,4.733,2.155s1.84.729,1.84.729-.7-.18-1.908-.536-2.935-.893-4.966-1.665a61.3,61.3,0,0,1-6.792-3.047c-1.218-.641-2.438-1.335-3.663-2.1a39.6,39.6,0,0,0-3.619-2.085,10.286,10.286,0,0,0-7.3-.7c-1.23.309-2.562.686-3.829.943-.641.136-1.291.249-1.844.343-.634.1-1.2.179-1.765.246a42.91,42.91,0,0,1-5.483.3c-.668-.007-1.181-.025-1.553-.043l-.527-.026Z" transform="translate(-795.275 -997.765)" fill="#cc2c2c"/>
          <path id="Path_44663" data-name="Path 44663" d="M1064.574,1480.685l-.2.36c-.119.215-.3.556-.517.985a32.9,32.9,0,0,0-1.582,3.686c-.14.386-.283.816-.412,1.22-.143.468-.27.891-.391,1.348-.253.926-.445,1.9-.7,3.035a11.6,11.6,0,0,1-1.359,3.478,10.95,10.95,0,0,1-2.524,2.9,33.642,33.642,0,0,1-2.885,2.022c-.93.606-1.835,1.246-2.679,1.885a49.586,49.586,0,0,0-4.446,3.814c-1.244,1.2-2.228,2.259-2.9,3.015s-1.05,1.2-1.05,1.2.329-.481.93-1.305,1.48-1.989,2.615-3.324a51.159,51.159,0,0,1,4.134-4.339c.809-.752,1.658-1.492,2.556-2.218a32.629,32.629,0,0,0,2.536-2.187,8.741,8.741,0,0,0,2.585-5.36c.126-1.018.233-2.133.408-3.165.084-.524.187-1.048.277-1.494.108-.509.21-.957.324-1.408a36.494,36.494,0,0,1,1.345-4.248c.2-.506.354-.891.473-1.169l.169-.394Z" transform="translate(-930.691 -1210.458)" fill="#ac232b"/>
          <path id="Path_44664" data-name="Path 44664" d="M859.361,1424.344l-.359.109c-.215.065-.551.173-.964.318a24.711,24.711,0,0,0-3.343,1.464c-.331.173-.69.376-1.023.571-.381.231-.724.441-1.082.681-.732.479-1.446,1.044-2.3,1.672a8.746,8.746,0,0,1-3.054,1.485,8.963,8.963,0,0,1-3.593.164,31.047,31.047,0,0,1-3.348-.758c-1.053-.278-2.106-.512-3.113-.7a43.5,43.5,0,0,0-5.568-.659c-1.634-.09-2.994-.077-3.943-.048s-1.491.063-1.491.063.528-.1,1.461-.232,2.274-.306,3.907-.4a42.6,42.6,0,0,1,5.64.035c1.047.078,2.117.195,3.215.361a28.536,28.536,0,0,0,3.183.368,7.006,7.006,0,0,0,2.786-.436,6.731,6.731,0,0,0,2.288-1.473c.69-.645,1.422-1.375,2.157-1.993.369-.317.753-.62,1.081-.876.379-.287.718-.535,1.067-.776a27.488,27.488,0,0,1,3.494-2.057c.442-.218.787-.376,1.038-.486l.357-.157Z" transform="translate(-767.834 -1166.545)" fill="#ac232b"/>
          <path id="Path_44665" data-name="Path 44665" d="M1090.639,1372.177l.26.318c.156.19.4.493.687.875a32.886,32.886,0,0,1,2.221,3.34c.208.355.426.752.626,1.126.225.435.427.828.628,1.256.416.865.781,1.791,1.236,2.859a11.605,11.605,0,0,0,1.965,3.176,10.94,10.94,0,0,0,3.007,2.4,33.582,33.582,0,0,0,3.2,1.469c1.025.428,2.03.894,2.975,1.37a49.663,49.663,0,0,1,5.061,2.95c1.44.953,2.6,1.819,3.4,2.442s1.25.992,1.25.992-.41-.414-1.15-1.116-1.815-1.69-3.172-2.8a51.1,51.1,0,0,0-4.849-3.522c-.932-.594-1.9-1.169-2.914-1.72a32.673,32.673,0,0,1-2.889-1.694,8.741,8.741,0,0,1-3.51-4.805c-.308-.979-.614-2.056-.972-3.04-.177-.5-.373-1-.542-1.419-.2-.481-.379-.9-.573-1.327a36.579,36.579,0,0,0-2.089-3.935c-.283-.463-.509-.813-.676-1.064l-.237-.357Z" transform="translate(-966.542 -1128.502)" fill="#ac232b"/>
          <path id="Path_44666" data-name="Path 44666" d="M891.169,1269.051s-.149,1.9-.373,4.744c-.055.7-.114,1.466-.176,2.272s-.107,1.674-.163,2.563c-.1,1.772-.232,3.664-.23,5.494,0,.454.016.915.043,1.351.033.491.072.885.133,1.343a19.764,19.764,0,0,0,.524,2.584,23.19,23.19,0,0,0,1.723,4.429c.324.624.639,1.191.941,1.68s.583.907.8,1.259l.757,1.065-.917-.936c-.275-.313-.634-.676-1-1.13s-.788-.964-1.219-1.547a24.284,24.284,0,0,1-2.509-4.308,21.43,21.43,0,0,1-1-2.681c-.137-.455-.274-.986-.374-1.431-.112-.5-.2-.981-.283-1.472-.311-1.953-.48-3.86-.656-5.645-.083-.89-.164-1.75-.241-2.566s-.128-1.6-.186-2.324l-.373-4.744Z" transform="translate(-813.075 -1052.687)" fill="#cc2c2c"/>
          <path id="Path_44667" data-name="Path 44667" d="M939.324,1399.976l-2.449-2.232-1.174-1.067-1.336-1.19c-.927-.819-1.91-1.7-2.9-2.5-.247-.2-.5-.395-.747-.574-.277-.2-.5-.358-.772-.534a17.748,17.748,0,0,0-1.576-.917,19.5,19.5,0,0,0-2.974-1.232c-.446-.14-.858-.259-1.224-.35s-.685-.158-.949-.22l-.829-.155.812.033c.261.024.577.036.946.083s.785.1,1.244.177a18.776,18.776,0,0,1,3.17.856,18.1,18.1,0,0,1,1.786.763c.292.143.626.32.9.473.308.173.6.347.892.529,1.163.728,2.253,1.494,3.279,2.2l1.472,1.025,1.322.942,2.7,1.925Z" transform="translate(-840.124 -1142.817)" fill="#ac232b"/>
          <path id="Path_44668" data-name="Path 44668" d="M891.769,1522.02l-2.881-.939-1.38-.449-1.56-.493c-1.08-.338-2.23-.7-3.357-1.012-.28-.076-.565-.148-.836-.212-.306-.07-.552-.122-.84-.177-.556-.105-1.109-.184-1.644-.24a21.32,21.32,0,0,0-2.9-.1c-.417.016-.8.038-1.13.068s-.618.065-.857.089l-.733.1.67-.185c.221-.05.481-.123.8-.185s.674-.132,1.077-.195a19.593,19.593,0,0,1,2.908-.212c.557,0,1.145.024,1.752.078.294.025.635.064.919.1.319.042.625.09.935.142,1.234.213,2.424.472,3.54.706l1.6.343,1.449.322,2.957.66Z" transform="translate(-803.503 -1239.651)" fill="#ac232b"/>
          <path id="Path_44669" data-name="Path 44669" d="M978.655,1568.081l2.667,1.439,1.276.69,1.433.79c.989.549,2.048,1.13,3.047,1.734.248.151.5.307.729.46.262.173.469.316.707.487.46.33.9.676,1.307,1.025a21.292,21.292,0,0,1,2.075,2.031c.276.313.523.6.73.866s.379.492.526.682l.43.6-.328-.613c-.116-.194-.243-.433-.417-.7s-.369-.579-.6-.914a19.583,19.583,0,0,0-1.851-2.253c-.384-.4-.807-.812-1.264-1.215-.221-.2-.484-.416-.707-.6-.25-.2-.5-.391-.748-.579-1-.747-2.013-1.431-2.952-2.078l-1.354-.925-1.232-.828-2.517-1.687Z" transform="translate(-882.4 -1276.178)" fill="#ac232b"/>
          <path id="Path_44670" data-name="Path 44670" d="M1130,1511.194l2.667,1.439,1.276.69,1.432.791c.989.549,2.048,1.13,3.048,1.734.248.15.5.307.729.459.262.173.469.316.707.487.46.33.9.677,1.307,1.025a21.374,21.374,0,0,1,2.074,2.031c.276.313.522.6.73.866s.379.492.527.682l.43.6-.328-.613c-.116-.194-.242-.433-.417-.7s-.369-.58-.6-.914a19.578,19.578,0,0,0-1.851-2.252c-.384-.4-.807-.813-1.264-1.216-.221-.2-.484-.416-.707-.6-.25-.2-.5-.39-.748-.579-1.005-.747-2.013-1.431-2.952-2.078l-1.354-.925-1.232-.828-2.517-1.687Z" transform="translate(-996.116 -1233.435)" fill="#ac232b"/>
          <path id="Path_44671" data-name="Path 44671" d="M655.843,945.3c-3.009-12.778-11.547-19.989-12.117-43.188-.171-6.959-14.866-1.293-19.945.666-20.48,7.9-29.109,29.389-30.535,35.754-6.736,30.059,7.877,62.143,13.837,54.6,4.282-5.417,10.123-9.451,16.292-12.942a33.359,33.359,0,0,0,9.15-.7c9.518-2.155,14.669-9.575,14.067-12.143C653.866,962.143,658.293,955.708,655.843,945.3Z" transform="translate(-591.509 -774.45)" fill="#ffa5a4"/>
          <path id="Path_44672" data-name="Path 44672" d="M656.7,945.318c-3.009-12.778-11.547-19.989-12.117-43.188-.061-2.486-1.98-3.356-4.648-3.364.394,1.9.8,4.048,1.189,6.426.578,3.564,1.06,7.363,1.593,13.8.849,10.26,1.274,15.391,1.062,18.052-.239,3-1.14,14.318-9.557,23.893-3.468,3.945-12.879,14.992-25.486,12.743-6.595-1.177-12.372-5.689-16.087-12.068,1.718,20.966,10.877,37.12,15.291,31.535q.4-.508.821-1a37.161,37.161,0,0,1,22.732-12.287c.657-.1,1.293-.222,1.888-.357,6.95-1.573,11.571-5.954,13.325-9.2a27.112,27.112,0,0,1,4.881-6.38C656.268,959.3,658.639,953.555,656.7,945.318Z" transform="translate(-592.366 -774.464)" fill="#f98080"/>
          <path id="Path_44673" data-name="Path 44673" d="M640.947,941.166c-1.183-1.19-8.813,3.521-14.085,8.136a37.9,37.9,0,0,0-10.146,13.253c-1.048,2.4-4.376,10.014-1.468,12.367,1.684,1.363,5.032.614,7.22-.666,4.457-2.607,4.311-7.543,6.442-13.835C633.161,947.869,642.229,942.455,640.947,941.166Z" transform="translate(-608.471 -806.183)" fill="#ffc1c0"/>
          <ellipse id="Ellipse_349" data-name="Ellipse 349" cx="20.586" cy="8.265" rx="20.586" ry="8.265" transform="translate(60.314 103.857) rotate(-85.358)" fill="#603e4e"/>
          <path id="Path_44674" data-name="Path 44674" d="M1484.2,793.879a1.79,1.79,0,0,1-.545-.081c-1.108-.35-1.99-1.959-2.36-4.3a23.925,23.925,0,0,1,1.14-10.511c2.275-7.086,6.489-11.471,9.089-11.471a1.792,1.792,0,0,1,.545.081c2.213.7,3.789,6.818,1.22,14.816C1491.018,789.494,1486.8,793.879,1484.2,793.879Z" transform="translate(-1259.931 -675.844)" fill="#603e4e"/>
          <path id="Path_44675" data-name="Path 44675" d="M1495.293,767.593a1.8,1.8,0,0,0-.545-.081,4.826,4.826,0,0,0-2.8,1.23c1.266,2.382,1.68,7.334-.253,13.352-1.567,4.881-4.055,8.48-6.3,10.247a2.793,2.793,0,0,0,1.483,1.458,1.792,1.792,0,0,0,.545.081c2.6,0,6.815-4.386,9.09-11.471C1499.082,774.41,1497.506,768.291,1495.293,767.593Z" transform="translate(-1263.151 -675.844)" fill="#776174"/>
          <path id="Path_44676" data-name="Path 44676" d="M842.3,638.041c-5.886-.478-11.548,10.112-12.648,23.652s2.781,24.905,8.666,25.383,11.548-10.112,12.648-23.652S848.181,638.519,842.3,638.041Zm6.459,25.187c-.92,11.332-5.354,20.219-9.9,19.85s-7.492-9.855-6.571-21.187,5.354-20.219,9.9-19.85S849.675,651.9,848.755,663.228Z" transform="translate(-770.3 -578.552)" fill="#bff1fc"/>
          <path id="Path_44677" data-name="Path 44677" d="M1056.17,744.534s1.247-.3,3.45-.732c1.1-.228,2.439-.466,3.974-.752s3.27-.59,5.163-.909,3.943-.684,6.115-1.018l6.826-1.089,3.591-.563c1.167-.179,2.42-.5,3.64-.75,2.46-.529,4.972-.972,7.308-1.592,1.161-.305,2.414-.7,3.619-1.027,1.209-.345,2.392-.7,3.516-1.077a20.981,20.981,0,0,0,3.116-1.311,12.022,12.022,0,0,0,1.343-.838c.216-.148.419-.313.628-.47l.3-.255.151-.127.019-.016c.027-.026-.166.171-.075.078l.038-.041.076-.082a.026.026,0,0,0-.021.019s.05-.075.074-.109c.056-.076.124-.2.186-.3.128-.222.256-.459.384-.7.258-.488.507-.993.749-1.5l1.389-3.017c.9-1.979,1.667-3.9,2.441-5.645l3.6-8.536c.869-2.07,1.4-3.252,1.4-3.252s-.144,1.286-.555,3.5c-.394,2.222-1.075,5.371-2.1,9.1-.487,1.874-1.128,3.866-1.819,5.983-.346,1.059-.726,2.141-1.162,3.244-.217.553-.444,1.113-.7,1.687-.129.287-.267.577-.421.878-.087.159-.153.3-.259.474-.056.092-.084.149-.164.27s-.186.264-.282.385l-.072.086-.036.043-.114.119-.023.022-.183.176-.369.353c-.259.224-.514.457-.789.67a15.906,15.906,0,0,1-1.73,1.174,20.59,20.59,0,0,1-3.729,1.678c-1.254.45-2.51.8-3.753,1.138s-2.458.652-3.78.954a69.406,69.406,0,0,1-7.708,1.1l-7.409.717-6.9.561c-2.191.187-4.267.311-6.181.452l-5.227.355-4.032.259Z" transform="translate(-940.643 -631.821)" fill="#bbe2ff"/>
          <path id="Path_44678" data-name="Path 44678" d="M1333.766,779.151l.393-.176a11.918,11.918,0,0,1,1.139-.436c1-.351,2.431-.783,4.168-1.228.867-.221,1.808-.461,2.809-.675s2.053-.466,3.151-.66,2.226-.443,3.383-.617l3.506-.553c1.177-.166,2.357-.322,3.52-.456s2.313-.233,3.422-.349c2.223-.2,4.306-.327,6.1-.371s3.29-.024,4.338.021c1.051.06,1.647.123,1.647.123s-.588.146-1.609.351c-.511.108-1.129.254-1.84.388s-1.51.323-2.385.481-1.82.367-2.823.536c-1,.185-2.058.389-3.156.558s-2.226.388-3.379.559l-3.5.524-3.5.468c-1.154.164-2.3.273-3.4.411s-2.173.24-3.188.341-1.974.193-2.863.267c-1.77.165-3.264.259-4.292.342-.514.045-.931.063-1.209.107Z" transform="translate(-1149.221 -680.418)" fill="#bbe2ff"/>
          <path id="Path_44679" data-name="Path 44679" d="M863.32,654.141a4.331,4.331,0,0,0-3.086,1.143c3.129,2.887,4.921,10.859,4.176,20.045-.708,8.719-3.5,15.985-6.817,18.707a4.011,4.011,0,0,0,2.4,1.143c4.549.369,8.983-8.518,9.9-19.85S867.87,654.51,863.32,654.141Z" transform="translate(-791.437 -590.652)" fill="#776174"/>
          <path id="Path_44680" data-name="Path 44680" d="M988.132,659.057s.882-.448,2.5-1.152c.806-.357,1.8-.749,2.962-1.164s2.488-.845,3.966-1.228,3.1-.732,4.843-1.009a44.106,44.106,0,0,1,5.541-.519c.485-.026.974-.026,1.467-.028l.743,0,.793.036c.964.045,1.915.089,2.915.173l3.147.42c1.028.191,2.045.411,3.075.62,1.024.224,2.022.539,3.045.779,1.013.268,2,.612,2.994.912.988.321,1.944.7,2.891,1.084s1.83.858,2.711,1.308c.867.473,1.676,1.01,2.467,1.532s1.5,1.122,2.21,1.678,1.335,1.172,1.968,1.728c.612.583,1.179,1.17,1.715,1.738a34.452,34.452,0,0,1,2.7,3.291,28.528,28.528,0,0,1,1.782,2.756c.456.788.778,1.43.98,1.881s.307.691.307.691l-.473.426s-.237-.119-.659-.358c-.216-.115-.469-.268-.766-.446s-.655-.365-1.025-.6-.8-.477-1.251-.744l-1.444-.879-3.4-2.068-3.972-2.343c-.715-.384-1.425-.813-2.161-1.224-.748-.392-1.475-.853-2.238-1.277s-1.518-.893-2.3-1.34c-.795-.414-1.563-.924-2.383-1.343s-1.642-.862-2.5-1.236-1.729-.727-2.612-1.048l-2.685-.853-2.653-.66c-.934-.187-1.914-.323-2.851-.5l-.63-.116-.676-.086c-.45-.058-.9-.119-1.343-.153a49.13,49.13,0,0,0-9.857.054,57.085,57.085,0,0,0-6.993,1.195c-1.673.391-2.635.679-2.635.679Z" transform="translate(-889.521 -590.518)" fill="#ea3636"/>
          <path id="Path_44681" data-name="Path 44681" d="M716.911,688.069l-1.7.977c-1.076.627-2.6,1.535-4.369,2.709-.887.583-1.823,1.259-2.806,1.975s-1.992,1.518-3.021,2.361-2.073,1.775-3.073,2.711l-1.559,1.5-1.478,1.525-1.453,1.593-1.4,1.633-1.329,1.656c-.421.562-.852,1.106-1.255,1.659-.807,1.106-1.572,2.194-2.266,3.253-.348.529-.69,1.043-1,1.553s-.634.992-.915,1.474-.559.939-.812,1.382-.5.858-.723,1.259l-1.139,2.083-.974,1.843.136-.535c.092-.348.227-.859.427-1.5s.443-1.423.776-2.3.7-1.867,1.182-2.915a49.343,49.343,0,0,1,3.73-6.915c.779-1.2,1.634-2.41,2.552-3.593.464-.586.942-1.167,1.425-1.747l1.509-1.685c.525-.546,1.068-1.08,1.6-1.617s1.072-.983,1.6-1.473c.567-.519,1.112-.957,1.674-1.41s1.114-.875,1.676-1.273a40.325,40.325,0,0,1,6.374-3.8c.964-.471,1.865-.846,2.669-1.153s1.512-.545,2.095-.732,1.049-.306,1.363-.389Z" transform="translate(-662.234 -616.153)" fill="#deeef9"/>
          <path id="Path_44682" data-name="Path 44682" d="M998.421,483.093c.309.175.648.229,2.788,0,2.294-.246,3.788-.186,3.783-.6-.013-1.158-.141-2.384-.217-3.691a10.584,10.584,0,0,0-.212,2.089c-1.506.075-3.04.2-4.606.38a39.094,39.094,0,0,1-1.378-12.1c.576-16.2,6.193-31.888,6.394-34.584.059-.791-.558-1.557-1.569-2.264C990.329,466.6,997.056,482.32,998.421,483.093Z" transform="translate(-895.041 -423.992)" fill="#ba0000"/>
          <path id="Path_44683" data-name="Path 44683" d="M1229.273,1056.062c1.212-1.081,10.054,2.379,16.489,6.665,2.449,1.631,6.588,4.439,9.494,8.887,6.032,9.232,3.266,20.189,1,20.366-1.788.14-1.861-6.544-8.494-16.293C1239.207,1063.114,1227.838,1057.342,1229.273,1056.062Z" transform="translate(-1070.615 -892.503)" fill="#ffc1c0"/>
        </g>
        <path id="Path_44684" data-name="Path 44684" d="M1055,510.632l.216-.845c.158-.547.37-1.358.727-2.363a39.509,39.509,0,0,1,3.809-8,39.146,39.146,0,0,1,3.545-4.809c.346-.4.715-.8,1.082-1.2l.069-.076.035-.038a.419.419,0,0,1,.04-.041l.018-.018.143-.141.287-.284.578-.573c.739-.78,1.655-1.524,2.544-2.3.221-.2.457-.368.69-.548l.705-.534.713-.536c.241-.175.495-.333.744-.5.5-.328,1-.676,1.515-.992l1.583-.918a44.241,44.241,0,0,1,6.776-3,49.1,49.1,0,0,1,7.148-1.856c1.194-.228,2.386-.4,3.557-.544l.9-.11.863-.084.857-.081c.283-.028.568-.052.864-.063l1.737-.087c.57-.013,1.132-.012,1.688-.014s1.107.023,1.65.038l.809.029c.268.01.533.039.8.057.527.046,1.048.074,1.558.133l1.506.176c.983.15,1.933.282,2.834.47.9.167,1.762.374,2.575.567.808.22,1.576.417,2.286.641,1.429.416,2.644.874,3.637,1.257s1.754.733,2.274.965l.789.372-.839-.238c-.546-.157-1.352-.367-2.374-.628s-2.274-.534-3.713-.8-3.068-.521-4.85-.707a55.206,55.206,0,0,0-5.759-.334c-.255,0-.512-.01-.771-.007l-.781.015c-.523.014-1.053.009-1.588.05l-1.618.092-1.626.151c-.137.013-.272.023-.412.04l-.424.057-.854.112-.86.11-.831.128c-1.139.184-2.283.375-3.425.61a53.04,53.04,0,0,0-6.8,1.838,46.8,46.8,0,0,0-6.44,2.769,44.8,44.8,0,0,0-5.728,3.634c-.851.68-1.7,1.307-2.51,2.067l-.609.541-.3.268-.15.134-.019.017c.039-.038,0,0,.005,0l-.035.034-.07.068c-.368.367-.742.722-1.1,1.084a43.845,43.845,0,0,0-3.736,4.359,45.961,45.961,0,0,0-2.723,4.056c-.74,1.258-1.347,2.384-1.816,3.328s-.815,1.7-1.046,2.219Z" transform="translate(-348.254 -61.049)" fill="#ea3636"/>
        <path id="Path_44685" data-name="Path 44685" d="M942.351,433l-.138.494c-.1.32-.222.795-.4,1.39l-1.439,4.938-.931,3.3-1.009,3.681c-.341,1.277-.686,2.6-1.025,3.943l-.507,2.039c-.17.678-.336,1.361-.493,2.049-.335,1.369-.636,2.746-.942,4.1l-.44,2.016-.414,1.971c-.264,1.3-.521,2.55-.751,3.742l-.337,1.738c-.111.561-.218,1.1-.313,1.626-.387,2.093-.71,3.837-.935,5.058l-.267,1.422-.1.5s0-.178-.014-.513-.024-.826-.013-1.449.006-1.383.043-2.251.07-1.849.154-2.916c.139-2.136.4-4.622.8-7.27s.94-5.455,1.6-8.236c.331-1.386.692-2.787,1.072-4.123l.14-.5.147-.509.3-1q.3-.989.614-1.944c.417-1.272.848-2.492,1.276-3.642s.865-2.224,1.277-3.212.812-1.884,1.173-2.674.7-1.471.972-2.03.509-.992.663-1.288Z" transform="translate(-255.745 -25.684)" fill="#ea3636"/>
      </g>
    </g>
  </g>
</svg>
