<svg xmlns="http://www.w3.org/2000/svg" width="14.054" height="16" viewBox="0 0 14.054 16">
  <path id="height_2_" data-name="height (2)" d="M12.412,3.232a1.233,1.233,0,0,0,1.042-1.417A1.233,1.233,0,0,0,12.037.773a1.189,1.189,0,0,0-1.042,1.25A1.34,1.34,0,0,0,12.412,3.232ZM17.08,8.609,14.288,3.566H10.536L7.743,8.609a.528.528,0,0,0,.042.75c.042.042.083.083.125.083a.742.742,0,0,0,1-.25l1.5-2.793v9.8a.715.715,0,0,0,.709.542.815.815,0,0,0,.875-.5c0-.208.042-5.752.042-5.752h.75s0,5.544.042,5.752a.837.837,0,0,0,.875.5.763.763,0,0,0,.709-.542V6.442l1.5,2.793a.772.772,0,0,0,1,.25.52.52,0,0,0,.292-.709.575.575,0,0,0-.125-.167ZM3.2,16.112H4.242V.773H3.2ZM4.576,1.607V2.19H6.868V1.607Zm0,4.752H6.868V5.775H4.576Zm0,4.21H6.868V9.985H4.576v.584Zm0,4.21H6.868v-.584H4.576v.584Zm1.376-2.668H4.576v.584H5.951Zm0-4.21H4.576v.584H5.951V7.9Zm0-4.21H4.576v.584H5.951Z" transform="translate(-3.2 -0.754)" fill="#546788"/>
</svg>
