<svg xmlns="http://www.w3.org/2000/svg" width="12.898" height="15.764" viewBox="0 0 12.898 15.764">
  <path id="Path_50135" data-name="Path 50135" d="M17.106,17.764H7.791a.358.358,0,1,1,0-.717h9.315a1.076,1.076,0,0,0,1.075-1.075V3.791a.358.358,0,1,1,.717,0V15.972A1.793,1.793,0,0,1,17.106,17.764Zm.358-13.972V14.539a1.792,1.792,0,0,1-1.791,1.791H7.791A1.792,1.792,0,0,1,6,14.539V5.224a.37.37,0,0,1,.1-.254L8.97,2.1A.37.37,0,0,1,9.224,2h6.449A1.792,1.792,0,0,1,17.464,3.791ZM9.224,6.3A1.078,1.078,0,0,0,10.3,5.224V3.433a.358.358,0,1,0-.717,0V5.224a.359.359,0,0,1-.358.358H7.433a.358.358,0,0,0,0,.717Zm4.912,2.253a.361.361,0,0,0-.509,0l-1.9,1.9-1.9-1.9a.36.36,0,0,0-.509.509l2.15,2.15a.363.363,0,0,0,.509,0l2.15-2.15a.361.361,0,0,0,0-.509Z" transform="translate(-6 -2)" fill="#546788"/>
</svg>
