<svg xmlns="http://www.w3.org/2000/svg" width="30.5" height="30.5" viewBox="0 0 30.5 30.5">
  <g id="hold" transform="translate(-1618.464 -540)">
    <rect id="Rectangle_21975" data-name="Rectangle 21975" width="30.5" height="30.5" transform="translate(1618.464 540)" fill="#ffddd9" opacity="0.82"/>
    <g id="Слой_2" transform="translate(1625.421 546.956)">
      <g id="_28_Menu" data-name="28 Menu" transform="translate(0 0)">
        <path id="Path_50067" data-name="Path 50067" d="M8.328,16.59a8.294,8.294,0,1,1,5.865-2.429A8.293,8.293,0,0,1,8.328,16.59Zm0-14.968A6.674,6.674,0,1,0,15,8.3,6.681,6.681,0,0,0,8.328,1.622Z" transform="translate(-0.036 -0.002)" fill="#f5311a"/>
        <path id="Path_50068" data-name="Path 50068" d="M186.81,157.8a.81.81,0,0,1-.81-.81V151.81a.81.81,0,0,1,1.62,0v5.184A.81.81,0,0,1,186.81,157.8Z" transform="translate(-179.975 -146.108)" fill="#f5311a"/>
        <path id="Path_50069" data-name="Path 50069" d="M276.81,157.8a.81.81,0,0,1-.81-.81V151.81a.81.81,0,0,1,1.62,0v5.184A.81.81,0,0,1,276.81,157.8Z" transform="translate(-267.059 -146.108)" fill="#f5311a"/>
      </g>
    </g>
  </g>
</svg>
