<svg id="Group_18915" data-name="Group 18915" xmlns="http://www.w3.org/2000/svg" width="16" height="16" viewBox="0 0 16 16">
  <path id="Path_50076" data-name="Path 50076" d="M8,0a8,8,0,1,0,8,8A8.031,8.031,0,0,0,8,0Zm7.031,8a6.994,6.994,0,0,1-1.746,4.622L3.378,2.715A7.02,7.02,0,0,1,15.031,8ZM.969,8A6.994,6.994,0,0,1,2.715,3.378L4.759,5.422,2.278,7.9l.663.663.84-.84v4.962H6.594V8.938H8.275l1.132,1.132v2.618h2.618l.6.6A7.02,7.02,0,0,1,.969,8Z" fill="#546788"/>
  <path id="Path_50077" data-name="Path 50077" d="M241,316h.938v2.812H241Z" transform="translate(-233.469 -306.125)" fill="#546788"/>
  <path id="Path_50078" data-name="Path 50078" d="M200.953,75.333l.84.84.663-.663-2.441-2.441v-2.15h-.937v1.212l-2.344-2.344L194.822,71.7l6.131,6.131Z" transform="translate(-188.734 -67.608)" fill="#546788"/>
</svg>
