<svg xmlns="http://www.w3.org/2000/svg" width="14.95" height="14.95" viewBox="0 0 14.95 14.95">
  <g id="humidity_1_" data-name="humidity (1)" transform="translate(0)">
    <g id="Group_183" data-name="Group 183" transform="translate(0)">
      <g id="Group_182" data-name="Group 182" transform="translate(0)">
        <path id="Path_44720" data-name="Path 44720" d="M9.555.081a.311.311,0,0,0-.418,0A21.574,21.574,0,0,0,4.458,6.325a1.65,1.65,0,0,0-.565-.1A1.688,1.688,0,0,0,2.82,6.6a1.082,1.082,0,0,1-.718.256A1.082,1.082,0,0,1,1.386,6.6,1.686,1.686,0,0,0,.313,6.229a.311.311,0,1,0,0,.623,1.082,1.082,0,0,1,.717.255A1.686,1.686,0,0,0,2.1,7.475a1.688,1.688,0,0,0,1.073-.367,1.136,1.136,0,0,1,1.436,0,1.754,1.754,0,0,0,2.147,0,1.083,1.083,0,0,1,.718-.256.311.311,0,0,0,0-.623A1.69,1.69,0,0,0,6.4,6.6a1.083,1.083,0,0,1-.718.256,1.044,1.044,0,0,1-.679-.229A20.762,20.762,0,0,1,9.346.74c.97.935,4.983,5.018,4.983,8.6A4.976,4.976,0,0,1,6.024,13.05a1.782,1.782,0,0,0,.735-.335,1.083,1.083,0,0,1,.718-.256.311.311,0,1,0,0-.623A1.69,1.69,0,0,0,6.4,12.2a1.136,1.136,0,0,1-1.436,0,1.69,1.69,0,0,0-1.074-.367A1.688,1.688,0,0,0,2.82,12.2a1.082,1.082,0,0,1-.718.256,1.082,1.082,0,0,1-.717-.255,1.686,1.686,0,0,0-1.072-.367.311.311,0,1,0,0,.623,1.082,1.082,0,0,1,.717.255,1.686,1.686,0,0,0,1.072.367,1.688,1.688,0,0,0,1.073-.367,1.136,1.136,0,0,1,1.436,0,2.136,2.136,0,0,0,.466.259,5.6,5.6,0,0,0,9.874-3.629C14.952,5.012,9.775.28,9.555.081Z" transform="translate(-0.002 0)" fill="#fff"/>
        <path id="Path_44721" data-name="Path 44721" d="M.313,341.961a1.082,1.082,0,0,1,.717.255,1.685,1.685,0,0,0,1.072.367.311.311,0,0,0,0-.623,1.082,1.082,0,0,1-.717-.255,1.686,1.686,0,0,0-1.072-.367.311.311,0,1,0,0,.623Z" transform="translate(-0.002 -331.371)" fill="#fff"/>
        <path id="Path_44722" data-name="Path 44722" d="M122.907,341.339a.311.311,0,1,0,0,.623,1.083,1.083,0,0,1,.718.256,1.754,1.754,0,0,0,2.148,0,1.083,1.083,0,0,1,.718-.256,1.245,1.245,0,0,1,.766.262,1.84,1.84,0,0,0,1.1.36.311.311,0,1,0,0-.623,1.245,1.245,0,0,1-.766-.262,1.84,1.84,0,0,0-1.1-.36,1.69,1.69,0,0,0-1.074.367,1.136,1.136,0,0,1-1.436,0A1.689,1.689,0,0,0,122.907,341.339Z" transform="translate(-119.016 -331.372)" fill="#fff"/>
        <path id="Path_44723" data-name="Path 44723" d="M3.893,277.339a1.688,1.688,0,0,0-1.073.367,1.082,1.082,0,0,1-.718.256,1.082,1.082,0,0,1-.717-.255,1.686,1.686,0,0,0-1.072-.367.311.311,0,1,0,0,.623,1.082,1.082,0,0,1,.717.256,1.686,1.686,0,0,0,1.072.367,1.688,1.688,0,0,0,1.073-.367,1.083,1.083,0,0,1,.717-.256.311.311,0,1,0,0-.623Z" transform="translate(-0.002 -269.241)" fill="#fff"/>
        <path id="Path_44724" data-name="Path 44724" d="M185.357,278.217a1.134,1.134,0,0,1,1.435,0,1.75,1.75,0,0,0,2.146,0,1.084,1.084,0,0,1,.717-.255.311.311,0,1,0,0-.623,1.687,1.687,0,0,0-1.073.367,1.133,1.133,0,0,1-1.434,0,1.752,1.752,0,0,0-2.146,0,1.083,1.083,0,0,1-.718.256.311.311,0,0,0,0,.623A1.69,1.69,0,0,0,185.357,278.217Z" transform="translate(-178.6 -269.24)" fill="#fff"/>
      </g>
    </g>
  </g>
</svg>
