<svg id="Page-1" xmlns="http://www.w3.org/2000/svg" width="16.91" height="16.623" viewBox="0 0 16.91 16.623">
  <g id="_019---Priorities" data-name="019---Priorities">
    <path id="Shape" d="M29.745,2.006H27.452V.573A.573.573,0,0,0,26.878,0H20.573A.573.573,0,0,0,20,.573V4.012a.573.573,0,0,0,.573.573h6.305a.573.573,0,0,0,.573-.573V2.579h2.293a.86.86,0,0,1,.86.86V13.47a.86.86,0,0,1-.86.86h-1.6l.657-.657a.287.287,0,0,0-.405-.405l-.944.944v-1.6a.573.573,0,0,0-.573-.573H20.573a.573.573,0,0,0-.573.573V16.05a.573.573,0,0,0,.573.573h6.305a.573.573,0,0,0,.573-.573V15.022l.944.944a.287.287,0,0,0,.405-.405l-.657-.657h1.6a1.435,1.435,0,0,0,1.433-1.433V3.439A1.435,1.435,0,0,0,29.745,2.006ZM21.146.86h1.433a.287.287,0,1,1,0,.573H21.146a.287.287,0,1,1,0-.573Zm3.726,2.866H21.146a.287.287,0,1,1,0-.573h3.726a.287.287,0,1,1,0,.573Zm1.433-1.146H21.146a.287.287,0,1,1,0-.573h5.159a.287.287,0,1,1,0,.573ZM21.146,12.9h1.433a.287.287,0,1,1,0,.573H21.146a.287.287,0,1,1,0-.573Zm3.726,2.866H21.146a.287.287,0,1,1,0-.573h3.726a.287.287,0,1,1,0,.573Zm1.433-1.146H21.146a.287.287,0,1,1,0-.573h5.159a.287.287,0,1,1,0,.573Z" transform="translate(-14.268 0)" fill="#546788"/>
    <path id="Shape-2" data-name="Shape" d="M3.726,0H.86A.86.86,0,0,0,0,.86V3.726a.86.86,0,0,0,.86.86H3.726a.86.86,0,0,0,.86-.86V.86A.86.86,0,0,0,3.726,0Zm-.86,3.726H1.72a.287.287,0,0,1,0-.573h.287V1.838l-.084.084a.287.287,0,0,1-.405-.405L2.09.944a.287.287,0,0,1,.489.2V3.153h.287a.287.287,0,1,1,0,.573Z" fill="#546788"/>
    <path id="Shape-3" data-name="Shape" d="M3.726,21H.86a.86.86,0,0,0-.86.86v2.866a.86.86,0,0,0,.86.86H3.726a.86.86,0,0,0,.86-.86V21.86A.86.86,0,0,0,3.726,21Zm-.86,3.153a.287.287,0,0,1,0,.573H1.72a.287.287,0,0,1-.184-.507c.4-.337,1.044-1.041,1.044-1.5a.287.287,0,1,0-.573,0,.287.287,0,0,1-.573,0,.86.86,0,1,1,1.72,0,2.427,2.427,0,0,1-.728,1.433Z" transform="translate(0 -14.981)" fill="#546788"/>
    <path id="Shape-4" data-name="Shape" d="M20.573,25.586h6.305a.573.573,0,0,0,.573-.573V21.573A.573.573,0,0,0,26.878,21H20.573a.573.573,0,0,0-.573.573v3.439A.573.573,0,0,0,20.573,25.586Zm.573-3.726h1.433a.287.287,0,1,1,0,.573H21.146a.287.287,0,1,1,0-.573Zm0,1.146h5.159a.287.287,0,1,1,0,.573H21.146a.287.287,0,1,1,0-.573Zm0,1.146h3.726a.287.287,0,0,1,0,.573H21.146a.287.287,0,1,1,0-.573Z" transform="translate(-14.268 -14.981)" fill="#546788"/>
    <path id="Shape-5" data-name="Shape" d="M3.726,42H.86a.86.86,0,0,0-.86.86v2.866a.86.86,0,0,0,.86.86H3.726a.86.86,0,0,0,.86-.86V42.86A.86.86,0,0,0,3.726,42Zm-.573,2.866a.86.86,0,1,1-1.72,0,.287.287,0,0,1,.573,0,.287.287,0,1,0,.287-.287.287.287,0,1,1,0-.573.287.287,0,1,0-.287-.287.287.287,0,1,1-.573,0,.86.86,0,1,1,1.5.573.856.856,0,0,1,.22.573Z" transform="translate(0 -29.963)" fill="#546788"/>
  </g>
</svg>
