<svg xmlns="http://www.w3.org/2000/svg" width="16.2" height="12.15" viewBox="0 0 16.2 12.15">
  <path id="id-card" d="M14.344,3H1.856A1.858,1.858,0,0,0,0,4.856v8.438A1.858,1.858,0,0,0,1.856,15.15H14.344A1.858,1.858,0,0,0,16.2,13.294V4.856A1.858,1.858,0,0,0,14.344,3ZM5.063,5.7A1.688,1.688,0,1,1,3.375,7.388,1.69,1.69,0,0,1,5.063,5.7ZM8.1,11.944a.506.506,0,0,1-.506.506H2.531a.506.506,0,0,1-.506-.506v-.338A1.858,1.858,0,0,1,3.881,9.75H6.244A1.858,1.858,0,0,1,8.1,11.606Zm5.569.506H9.956a.506.506,0,0,1,0-1.013h3.713a.506.506,0,0,1,0,1.013Zm0-2.7H9.956a.506.506,0,0,1,0-1.013h3.713a.506.506,0,0,1,0,1.013Zm0-2.7H9.956a.506.506,0,0,1,0-1.013h3.713a.506.506,0,0,1,0,1.013Z" transform="translate(0 -3)" fill="#546788"/>
</svg>
