<svg xmlns="http://www.w3.org/2000/svg" width="16" height="16" viewBox="0 0 16 16">
  <g id="Group_143" data-name="Group 143" transform="translate(-1098 -254)">
    <circle id="Ellipse_348" data-name="Ellipse 348" cx="8" cy="8" r="8" transform="translate(1098 254)" fill="#f62727"/>
    <g id="tool_1_" data-name="tool (1)" transform="translate(1101.757 257.755)">
      <path id="Path_44692" data-name="Path 44692" d="M.185,1.4A.249.249,0,0,1,.6,1.281l.916.916h.7v-.7L1.307.58A.249.249,0,0,1,1.424.163,1.775,1.775,0,0,1,3.1.615a1.74,1.74,0,0,1,.4,1.811l2.8,2.8a1.74,1.74,0,0,1,1.811.4,1.8,1.8,0,0,1,.454,1.678.249.249,0,0,1-.418.117l-.916-.916h-.7v.7l.914.914a.249.249,0,0,1-.117.417A1.774,1.774,0,0,1,5.653,8.09a1.74,1.74,0,0,1-.4-1.811l-2.8-2.8a1.74,1.74,0,0,1-1.811-.4A1.8,1.8,0,0,1,.185,1.4Z" transform="translate(-0.134 -0.108)" fill="#fff"/>
      <g id="Group_142" data-name="Group 142" transform="translate(0 0.002)">
        <path id="Path_44693" data-name="Path 44693" d="M4.243,257.759,2.122,259.88a1.245,1.245,0,0,1-1.565.158l1.916-1.916a.249.249,0,1,0-.352-.352L.206,259.687a1.245,1.245,0,0,1,.158-1.565L2.485,256Z" transform="translate(0 -251.758)" fill="#fff"/>
        <path id="Path_44694" data-name="Path 44694" d="M301.912.713l-.7,1.406a.249.249,0,0,1-.187.135l-1.148.164L298.75,3.542,298.4,3.19l1.123-1.123.164-1.149a.249.249,0,0,1,.135-.187l1.406-.7a.249.249,0,0,1,.287.047l.352.352a.249.249,0,0,1,.047.287Z" transform="translate(-293.452 -0.002)" fill="#fff"/>
      </g>
    </g>
  </g>
</svg>
