<svg id="question" xmlns="http://www.w3.org/2000/svg" width="13.43" height="16.623" viewBox="0 0 13.43 16.623">
  <path id="Path_44858" data-name="Path 44858" d="M26.158,14.594a8.021,8.021,0,0,0-1.7-1.1c-.469-.234-.816-.368-.823-.37-.8-.281-1.086-.569-1.185-.76l-.04-.115c-.011-.041-.021-.079-.031-.115l-.1-.547,0-.026a4.111,4.111,0,0,0,.624-1.124l.02-.031a2.063,2.063,0,0,0,.352-.81c.167-.47.1-.674.053-.756L23.309,8.8l.012-.037a2.934,2.934,0,0,0-.132-2.171l-.01-.024a1.9,1.9,0,0,0-1.2-1.231A3.3,3.3,0,0,0,20.412,5h-.1a3.3,3.3,0,0,0-1.568.339,1.907,1.907,0,0,0-1.2,1.231l-.009.024A2.935,2.935,0,0,0,17.4,8.766l.012.037-.021.034c-.052.082-.115.286.053.756a2.058,2.058,0,0,0,.352.81l.02.031a4.117,4.117,0,0,0,.624,1.124l0,.026-.1.547c-.01.037-.019.075-.031.115l-.04.115c-.1.191-.384.478-1.185.76-.007,0-.354.137-.823.37a8.032,8.032,0,0,0-1.7,1.1,3.206,3.206,0,0,0-.914,2.742c.006.144.016.293.035.45,0,.158.051.286.356.381a19.469,19.469,0,0,0,4.373.866l-.025-.01a1.228,1.228,0,0,1-.7-.595,1.189,1.189,0,0,1-.025-.981l0-.009,0-.009a2.775,2.775,0,0,1,2.754-1.764A2.436,2.436,0,0,1,23.146,18a2.3,2.3,0,0,1-.2.965,18.89,18.89,0,0,0,3.733-.8c.305-.095.356-.222.356-.381.018-.157.029-.305.035-.45a3.206,3.206,0,0,0-.914-2.742Z" transform="translate(-13.647 -5)" fill="#546788"/>
  <path id="Path_44859" data-name="Path 44859" d="M46.254,88.055h-.329c-.4,0-.531.127-.531.524v.235c0,.4.128.524.531.524h.329c.4,0,.531-.127.531-.524v-.235C46.785,88.182,46.657,88.055,46.254,88.055Z" transform="translate(-39.53 -72.715)" fill="#546788"/>
  <path id="Path_44860" data-name="Path 44860" d="M41.933,67.83a1.824,1.824,0,0,0-1.881,1.176c-.074.195-.02.289.175.363l.645.242a.663.663,0,0,0,.074.021l.023,0,.04,0h.009l.01,0a.168.168,0,0,0,.046-.009l.014,0a.172.172,0,0,0,.048-.034l.009-.01a.364.364,0,0,0,.036-.049l.012-.02a.879.879,0,0,0,.043-.084c.175-.39.336-.571.692-.571.316,0,.47.161.47.383,0,.443-.369.537-.712.746a1.113,1.113,0,0,0-.557,1.082c0,.208.067.268.269.268H42c.2,0,.269-.06.269-.268a.459.459,0,0,1,.256-.37c.4-.275,1.182-.49,1.182-1.471C43.707,68.408,43.055,67.83,41.933,67.83Z" transform="translate(-35.149 -56.225)" fill="#546788"/>
</svg>
