<svg xmlns="http://www.w3.org/2000/svg" width="36" height="36" viewBox="0 0 36 36">
  <g id="Group_13048" data-name="Group 13048" transform="translate(-1724 -647.5)">
    <rect id="Rectangle_19444" data-name="Rectangle 19444" width="36" height="36" transform="translate(1724 647.5)" fill="#f3f3f3"/>
    <g id="visible" transform="translate(1731.547 655.802)">
      <g id="Group_8090" data-name="Group 8090" transform="translate(0.975 3.6)">
        <path id="Path_44427" data-name="Path 44427" d="M10.507,16.8c-5.2,0-9.2-5.837-9.39-6.091a.762.762,0,0,1,0-.888c.19-.254,4.187-6.218,9.39-6.218s9.2,5.964,9.39,6.218a.762.762,0,0,1,0,.888C19.707,10.96,15.71,16.8,10.507,16.8ZM2.831,10.262c1.015,1.269,4.124,4.885,7.677,4.885s6.725-3.616,7.677-4.885c-1.015-1.332-4.124-5.076-7.677-5.076S3.782,8.929,2.831,10.262Z" transform="translate(-0.975 -3.6)" fill="#848484"/>
      </g>
      <g id="Group_8091" data-name="Group 8091" transform="translate(6.51 6.201)">
        <path id="Path_44428" data-name="Path 44428" d="M13.7,15.694a4,4,0,1,1,4-4,3.98,3.98,0,0,1-4,4Zm0-6.408A2.411,2.411,0,1,0,16.108,11.7,2.41,2.41,0,0,0,13.7,9.286Z" transform="translate(-9.7 -7.7)" fill="#848484"/>
      </g>
    </g>
  </g>
</svg>
