<svg xmlns="http://www.w3.org/2000/svg" width="11.082" height="16.623" viewBox="0 0 11.082 16.623">
  <path id="phone" d="M15.42,1H7.662A1.663,1.663,0,0,0,6,2.662v13.3a1.663,1.663,0,0,0,1.662,1.662H15.42a1.663,1.663,0,0,0,1.662-1.662V2.662A1.663,1.663,0,0,0,15.42,1ZM10.442,7.286a.65.65,0,0,0-.92,0l-.307.306a1.518,1.518,0,0,0,0,2.147l2.453,2.453a1.518,1.518,0,0,0,2.147,0l.306-.307a.65.65,0,0,0,0-.92l-.46-.46a.434.434,0,0,0-.613,0l-.306.307a.434.434,0,0,1-.613,0L10.595,9.279a.434.434,0,0,1,0-.613l.307-.306a.434.434,0,0,0,0-.613Zm-.349-5.178.185.554H12.8l.185-.554Z" transform="translate(-6 -1)" fill="#546788" fill-rule="evenodd"/>
</svg>
