<svg id="password" xmlns="http://www.w3.org/2000/svg" width="18.574" height="16.818" viewBox="0 0 18.574 16.818">
  <path id="Path_45932" data-name="Path 45932" d="M22.271,31.68H18.983v.55a1.634,1.634,0,0,1-1.635,1.631H11.222A1.633,1.633,0,0,1,9.592,32.23v-.55H6.3a1.3,1.3,0,0,0-1.3,1.3v5.175a1.3,1.3,0,0,0,1.3,1.3h15.97a1.306,1.306,0,0,0,1.3-1.3V32.988A1.309,1.309,0,0,0,22.271,31.68ZM10.42,36.691H9.662l.379.658a.372.372,0,0,1-.137.509.361.361,0,0,1-.182.048A.369.369,0,0,1,9.4,37.72l-.383-.658-.379.658a.371.371,0,1,1-.643-.371l.379-.658H7.612a.371.371,0,0,1,0-.743h.762l-.379-.661a.371.371,0,0,1,.643-.371l.379.661.383-.661a.371.371,0,0,1,.643.371l-.379.661h.758a.371.371,0,0,1,0,.743Zm5.271,0H14.93l.379.658a.371.371,0,1,1-.643.371l-.379-.658-.383.658a.372.372,0,0,1-.505.137.372.372,0,0,1-.137-.509l.379-.658h-.758a.371.371,0,1,1,0-.743h.758l-.379-.661a.371.371,0,0,1,.643-.371l.383.661.379-.661a.371.371,0,0,1,.643.371l-.379.661h.762a.371.371,0,1,1,0,.743Zm5.268,0H20.2l.379.658a.371.371,0,0,1-.134.509.376.376,0,0,1-.509-.137l-.379-.658-.383.658a.368.368,0,0,1-.319.186.371.371,0,0,1-.323-.557l.383-.658h-.762a.371.371,0,0,1,0-.743h.762l-.383-.661a.37.37,0,0,1,.137-.505.366.366,0,0,1,.505.134l.383.661.379-.661a.371.371,0,0,1,.509-.134.366.366,0,0,1,.134.505l-.379.661h.762a.371.371,0,0,1,0,.743Z" transform="translate(-5 -22.645)" fill="#546788"/>
  <path id="Path_45933" data-name="Path 45933" d="M23.313,8.1a2.2,2.2,0,0,1,2.2,2.2.371.371,0,1,0,.743,0,2.938,2.938,0,1,0-5.877,0v1.408h-.126a.891.891,0,0,0-.888.892v4.346a.888.888,0,0,0,.888.888h6.126a.891.891,0,0,0,.892-.888V12.6a.894.894,0,0,0-.892-.892H21.117V10.3A2.2,2.2,0,0,1,23.313,8.1Z" transform="translate(-14.025 -7.36)" fill="#546788"/>
</svg>
