<svg xmlns="http://www.w3.org/2000/svg" width="18.088" height="13.547" viewBox="0 0 18.088 13.547">
  <g id="email_3_" data-name="email (3)" transform="translate(0 -64.266)">
    <path id="Path_45928" data-name="Path 45928" d="M10.556,176.429a2.721,2.721,0,0,1-3.023,0L.12,171.487c-.041-.027-.081-.056-.12-.085v8.1a1.665,1.665,0,0,0,1.665,1.665H16.423a1.665,1.665,0,0,0,1.665-1.665v-8.1c-.039.029-.079.058-.121.086Z" transform="translate(0 -103.351)" fill="#546788"/>
    <path id="Path_45929" data-name="Path 45929" d="M.708,67.254,8.12,72.2a1.661,1.661,0,0,0,1.847,0l7.412-4.941a1.587,1.587,0,0,0,.708-1.324,1.666,1.666,0,0,0-1.665-1.665H1.665A1.667,1.667,0,0,0,0,65.931a1.587,1.587,0,0,0,.708,1.323Z" fill="#546788"/>
  </g>
</svg>
