<svg xmlns="http://www.w3.org/2000/svg" width="36" height="36" viewBox="0 0 36 36">
  <g id="Group_13049" data-name="Group 13049" transform="translate(-1812 -647.5)">
    <rect id="Rectangle_17335" data-name="Rectangle 17335" width="36" height="36" transform="translate(1812 647.5)" fill="#ffedd2"/>
    <g id="write" transform="translate(1814.65 656.525)">
      <path id="Path_44457" data-name="Path 44457" d="M9.679,14.981a1.266,1.266,0,0,0,.374-.053l3.207-.641a2.062,2.062,0,0,0,.944-.517L21.972,6a3.2,3.2,0,0,0,0-4.436L21.313.87a3.218,3.218,0,0,0-4.454,0L9.091,8.656a2.14,2.14,0,0,0-.517.944L7.9,12.843a1.814,1.814,0,0,0,1.782,2.138Zm.606-5.042,7.768-7.786a1.433,1.433,0,0,1,1.96,0l.677.677a1.382,1.382,0,0,1,0,2.049l-7.75,7.786-3.3.552Z" transform="translate(0 0)" fill="#f2970f"/>
      <path id="Path_44458" data-name="Path 44458" d="M22,90.4H8.855A.8.8,0,0,0,8,91.255a.855.855,0,0,0,.855.855H21.932A.857.857,0,1,0,22,90.4Z" transform="translate(-0.103 -74.314)" fill="#f2970f"/>
    </g>
  </g>
</svg>
