<svg xmlns="http://www.w3.org/2000/svg" width="13.376" height="16.623" viewBox="0 0 13.376 16.623">
  <g id="Icon" transform="translate(-50)">
    <path id="IDBadge" d="M61.753,0H51.623A1.624,1.624,0,0,0,50,1.623V15a1.624,1.624,0,0,0,1.623,1.623h10.13A1.624,1.624,0,0,0,63.376,15V1.623A1.624,1.624,0,0,0,61.753,0ZM54.269,1.805a.649.649,0,0,1,.649-.649h3.536a.649.649,0,0,1,0,1.3H54.919A.649.649,0,0,1,54.269,1.805Zm2.419,2.529a2.419,2.419,0,1,1-2.419,2.419A2.419,2.419,0,0,1,56.688,4.334Zm3.627,9.9H53.062a.968.968,0,0,1-.922-1.263l.714-2.23a1.548,1.548,0,0,1,2-.984,5.59,5.59,0,0,0,3.662,0,1.545,1.545,0,0,1,2,.984l.714,2.23A.962.962,0,0,1,60.315,14.237Z" transform="translate(0)" fill="#546788"/>
  </g>
</svg>
