<svg xmlns="http://www.w3.org/2000/svg" width="36" height="36" viewBox="0 0 36 36">
  <g id="Group_13050" data-name="Group 13050" transform="translate(-1856 -647.5)">
    <rect id="Rectangle_18900" data-name="Rectangle 18900" width="36" height="36" transform="translate(1856 647.5)" fill="#ffefef"/>
    <g id="Icon_feather-trash-2" data-name="Icon feather-trash-2" transform="translate(1865.666 656.5)">
      <path id="Path_9743" data-name="Path 9743" d="M4.5,9H21.168" transform="translate(-4.5 -5.436)" fill="none" stroke="#fe3535" stroke-linecap="round" stroke-linejoin="round" stroke-width="1.3"/>
      <path id="Path_9744" data-name="Path 9744" d="M20.464,6.564V19.039a1.818,1.818,0,0,1-1.852,1.782H9.352A1.818,1.818,0,0,1,7.5,19.039V6.564m2.778,0V4.782A1.818,1.818,0,0,1,12.13,3h3.7a1.818,1.818,0,0,1,1.852,1.782V6.564" transform="translate(-5.648 -3)" fill="none" stroke="#fe3535" stroke-linecap="round" stroke-linejoin="round" stroke-width="1.5"/>
      <path id="Path_9745" data-name="Path 9745" d="M15,16.5v5.346" transform="translate(-8.518 -8.481)" fill="none" stroke="#fe3535" stroke-linecap="round" stroke-linejoin="round" stroke-width="1.3"/>
      <path id="Path_9746" data-name="Path 9746" d="M21,16.5v5.346" transform="translate(-10.814 -8.481)" fill="none" stroke="#fe3535" stroke-linecap="round" stroke-linejoin="round" stroke-width="1.3"/>
    </g>
  </g>
</svg>
