<svg xmlns="http://www.w3.org/2000/svg" width="16" height="16" viewBox="0 0 16 16">
  <g id="clock_2_" data-name="clock (2)" transform="translate(0)">
    <g id="Group_21" data-name="Group 21" transform="translate(0 0)">
      <g id="Group_20" data-name="Group 20">
        <path id="Path_44508" data-name="Path 44508" d="M13.657,2.343A8,8,0,0,0,2.343,13.657,8,8,0,0,0,13.657,2.343ZM8,14.43A6.437,6.437,0,0,1,1.57,8c0-.006,0-.012,0-.017s0,0,0,0,0,0,0-.007a6.437,6.437,0,0,1,6.342-6.4H8A6.43,6.43,0,0,1,8,14.43Z" transform="translate(0 0)" fill="#fff"/>
      </g>
    </g>
    <g id="Group_23" data-name="Group 23" transform="translate(3.507 3.501)">
      <g id="Group_22" data-name="Group 22">
        <path id="Path_44509" data-name="Path 44509" d="M89.654,85.845a.389.389,0,0,1,0-.779h.469a4.518,4.518,0,0,0-4.151-4.037v.409a.389.389,0,1,1-.779,0v-.4a4.518,4.518,0,0,0-4.048,4.081h.42a.389.389,0,0,1,0,.779h-.424a4.518,4.518,0,0,0,4.105,4.122v-.494a.389.389,0,1,1,.779,0v.494a4.517,4.517,0,0,0,4.11-4.176ZM87.213,84.5l-1.3,1.3a.389.389,0,0,1-.551,0L83.1,83.538a.389.389,0,0,1,.551-.551l1.989,1.989,1.026-1.026a.389.389,0,1,1,.551.551Z" transform="translate(-81.142 -81.029)" fill="#fff"/>
      </g>
    </g>
  </g>
</svg>
