<svg xmlns="http://www.w3.org/2000/svg" width="20.875" height="15.657" viewBox="0 0 20.875 15.657">
  <path id="id-card_2_" data-name="id-card (2)" d="M18.484,3H2.392A2.394,2.394,0,0,0,0,5.392V16.265a2.394,2.394,0,0,0,2.392,2.392H18.484a2.394,2.394,0,0,0,2.392-2.392V5.392A2.394,2.394,0,0,0,18.484,3ZM6.524,6.479A2.175,2.175,0,1,1,4.349,8.654,2.178,2.178,0,0,1,6.524,6.479Zm3.914,8.046a.653.653,0,0,1-.652.652H3.262a.653.653,0,0,1-.652-.652V14.09A2.394,2.394,0,0,1,5,11.7H8.046a2.394,2.394,0,0,1,2.392,2.392Zm7.176.652H12.83a.652.652,0,1,1,0-1.3h4.784a.652.652,0,0,1,0,1.3Zm0-3.479H12.83a.652.652,0,1,1,0-1.3h4.784a.652.652,0,0,1,0,1.3Zm0-3.479H12.83a.652.652,0,1,1,0-1.3h4.784a.652.652,0,0,1,0,1.3Z" transform="translate(0 -3)" fill="#546788"/>
</svg>
