<svg xmlns="http://www.w3.org/2000/svg" width="18.332" height="16.499" viewBox="0 0 18.332 16.499">
  <path id="Path_50117" data-name="Path 50117" d="M16.665,3h-11A3.654,3.654,0,0,0,2,6.639V15.86A3.654,3.654,0,0,0,5.666,19.5h11a3.654,3.654,0,0,0,3.666-3.639V6.639A3.654,3.654,0,0,0,16.665,3ZM7.958,6.822A2.117,2.117,0,1,1,5.84,8.939,2.124,2.124,0,0,1,7.958,6.822Zm3.547,8.7a.464.464,0,0,1-.339.147H4.75a.464.464,0,0,1-.339-.147.477.477,0,0,1-.119-.348,3.252,3.252,0,0,1,2.924-2.906,7.937,7.937,0,0,1,1.476,0,3.244,3.244,0,0,1,2.924,2.906A.435.435,0,0,1,11.5,15.521Zm6.077.082H15.749a.687.687,0,0,1,0-1.375h1.833a.687.687,0,0,1,0,1.375Zm0-3.666H13.916a.687.687,0,1,1,0-1.375h3.666a.687.687,0,0,1,0,1.375Zm0-3.666H13A.687.687,0,1,1,13,6.9h4.583a.687.687,0,1,1,0,1.375Z" transform="translate(-2 -3)" fill="#546788"/>
</svg>
