<svg id="bank" xmlns="http://www.w3.org/2000/svg" width="13.301" height="13.301" viewBox="0 0 13.301 13.301">
  <path id="Path_44919" data-name="Path 44919" d="M.07,453.392a.39.39,0,0,0,.32.167H12.911a.39.39,0,0,0,.365-.526,3.228,3.228,0,0,0-.551-.9.389.389,0,0,0-.3-.136H.871a.389.389,0,0,0-.3.136,3.228,3.228,0,0,0-.551.9.389.389,0,0,0,.045.359Z" transform="translate(0 -440.258)" fill="#546788"/>
  <path id="Path_44920" data-name="Path 44920" d="M60,241h2.364v4.7H60Z" transform="translate(-58.441 -234.739)" fill="#546788"/>
  <path id="Path_44921" data-name="Path 44921" d="M211,241h2.338v4.7H211Z" transform="translate(-205.518 -234.739)" fill="#546788"/>
  <path id="Path_44922" data-name="Path 44922" d="M361,241h2.364v4.7H361Z" transform="translate(-351.622 -234.739)" fill="#546788"/>
  <path id="Path_44923" data-name="Path 44923" d="M.843,152.445a.394.394,0,0,0,.276.115H12.182a.394.394,0,0,0,.276-.115A3.4,3.4,0,0,0,13.3,151H0A3.4,3.4,0,0,0,.843,152.445Z" transform="translate(0 -147.078)" fill="#546788"/>
  <path id="Path_44924" data-name="Path 44924" d="M22.352,3.144,16.124.041a.39.39,0,0,0-.349,0l-6.228,3.1Z" transform="translate(-9.299 0)" fill="#546788"/>
</svg>
