<svg id="medical-report_1_" data-name="medical-report (1)" xmlns="http://www.w3.org/2000/svg" width="12.33" height="16.187" viewBox="0 0 12.33 16.187">
  <path id="Path_44771" data-name="Path 44771" d="M325,9.661a.158.158,0,0,0,.158.158h3.614a1.735,1.735,0,0,0-.332-.434L325.391,6.5A1.743,1.743,0,0,0,325,6.222Z" transform="translate(-316.653 -6.025)" fill="#546788"/>
  <path id="Path_44772" data-name="Path 44772" d="M69.5,4.742A1.108,1.108,0,0,1,68.4,3.636V0H62.739A1.741,1.741,0,0,0,61,1.739V14.448a1.741,1.741,0,0,0,1.739,1.739h8.852a1.741,1.741,0,0,0,1.739-1.739V4.742ZM66.217,3.32a.474.474,0,0,1,0,.948h-.948v.948a.474.474,0,0,1-.948,0V4.268h-.948a.474.474,0,1,1,0-.948h.948V2.371a.474.474,0,0,1,.948,0V3.32Zm-2.624,7.43a.474.474,0,0,1,0-.948h6.955a.474.474,0,0,1,0,.948ZM66.366,12.8a.474.474,0,0,1-.474.474h-2.3a.474.474,0,0,1,0-.948h2.3A.474.474,0,0,1,66.366,12.8Zm4.182-5.533a.474.474,0,0,1,0,.948H63.592a.474.474,0,0,1,0-.948Z" transform="translate(-61)" fill="#546788"/>
</svg>
