<svg xmlns="http://www.w3.org/2000/svg" width="18" height="18" viewBox="0 0 18 18">
  <g id="apartment" transform="translate(8.25 -2)">
    <path id="Path_44880" data-name="Path 44880" d="M4.8,2a.9.9,0,0,0-.9.9V19.1H3.45a.45.45,0,1,0,0,.9h3.6V17.3a.9.9,0,0,1,.9-.9h1.8a.9.9,0,0,1,.9.9V20h8.1a.45.45,0,1,0,0-.9H18.3V5.6a.9.9,0,0,0-.9-.9H13.8V2.9a.9.9,0,0,0-.9-.9ZM7.05,4.7a.45.45,0,0,0-.45.45v.9a.45.45,0,0,0,.45.45h.9a.45.45,0,0,0,.45-.45v-.9a.45.45,0,0,0-.45-.45ZM6.6,7.85a.45.45,0,0,1,.45-.45h.9a.45.45,0,0,1,.45.45v.9a.45.45,0,0,1-.45.45h-.9a.45.45,0,0,1-.45-.45Zm.45,2.25a.45.45,0,0,0-.45.45v.9a.45.45,0,0,0,.45.45h.9a.45.45,0,0,0,.45-.45v-.9a.45.45,0,0,0-.45-.45ZM6.6,13.25a.45.45,0,0,1,.45-.45h.9a.45.45,0,0,1,.45.45v.9a.45.45,0,0,1-.45.45h-.9a.45.45,0,0,1-.45-.45ZM9.75,4.7a.45.45,0,0,0-.45.45v.9a.45.45,0,0,0,.45.45h.9a.45.45,0,0,0,.45-.45v-.9a.45.45,0,0,0-.45-.45ZM14.7,7.85a.45.45,0,0,1,.45-.45h.9a.45.45,0,0,1,.45.45v.9a.45.45,0,0,1-.45.45h-.9a.45.45,0,0,1-.45-.45Zm.45,2.25a.45.45,0,0,0-.45.45v.9a.45.45,0,0,0,.45.45h.9a.45.45,0,0,0,.45-.45v-.9a.45.45,0,0,0-.45-.45Zm-.45,3.15a.45.45,0,0,1,.45-.45h.9a.45.45,0,0,1,.45.45v.9a.45.45,0,0,1-.45.45h-.9a.45.45,0,0,1-.45-.45Zm.45,2.25a.45.45,0,0,0-.45.45v.9a.45.45,0,0,0,.45.45h.9a.45.45,0,0,0,.45-.45v-.9a.45.45,0,0,0-.45-.45ZM9.3,7.85a.45.45,0,0,1,.45-.45h.9a.45.45,0,0,1,.45.45v.9a.45.45,0,0,1-.45.45h-.9a.45.45,0,0,1-.45-.45Zm.45,2.25a.45.45,0,0,0-.45.45v.9a.45.45,0,0,0,.45.45h.9a.45.45,0,0,0,.45-.45v-.9a.45.45,0,0,0-.45-.45ZM9.3,13.25a.45.45,0,0,1,.45-.45h.9a.45.45,0,0,1,.45.45v.9a.45.45,0,0,1-.45.45h-.9a.45.45,0,0,1-.45-.45Z" transform="translate(-11.25)" fill="#546788" fill-rule="evenodd"/>
    <path id="Path_44881" data-name="Path 44881" d="M10.3,21.7V19H8.5v2.7Z" transform="translate(-0.55 -1.7)" fill="#546788"/>
  </g>
</svg>
