<svg id="cheque" xmlns="http://www.w3.org/2000/svg" width="13.301" height="13.301" viewBox="0 0 13.301 13.301">
  <path id="Path_44925" data-name="Path 44925" d="M210.909,0h-.26A.649.649,0,0,0,210,.649v.909h1.559V.649A.649.649,0,0,0,210.909,0Z" transform="translate(-204.544)" fill="#546788"/>
  <path id="Path_44926" data-name="Path 44926" d="M210,95.378a.39.39,0,0,0,.025.137l.365.973v.449a.39.39,0,1,0,.779,0v-.449l.365-.973a.39.39,0,0,0,.025-.137V90H210Z" transform="translate(-204.544 -87.662)" fill="#546788"/>
  <path id="Path_44927" data-name="Path 44927" d="M270.779,60H270v.779h.39v.779a.39.39,0,1,0,.779,0V60.39A.39.39,0,0,0,270.779,60Z" transform="translate(-262.986 -58.441)" fill="#546788"/>
  <path id="Path_44928" data-name="Path 44928" d="M153.9,162v3.507a1.165,1.165,0,0,1-.074.41l-.315.841v.308a1.169,1.169,0,0,1-2.338,0v-.308l-.315-.841a1.165,1.165,0,0,1-.074-.41V162h-.39a.39.39,0,0,0-.39.39v6.755h9.4V162Zm4.287,5.975h-1.559a.39.39,0,1,1,0-.779h1.559a.39.39,0,0,1,0,.779Zm0-2.078h-3.117a.39.39,0,0,1,0-.779h3.117a.39.39,0,0,1,0,.779Zm0-1.559h-3.117a.39.39,0,0,1,0-.779h3.117a.39.39,0,1,1,0,.779Z" transform="translate(-146.103 -157.791)" fill="#546788"/>
  <path id="Path_44929" data-name="Path 44929" d="M1.595,122.975a2.3,2.3,0,0,1,1.523.6v-5.02a1.559,1.559,0,0,0-3.117,0v5.013a2.329,2.329,0,0,1,1.559-.6Z" transform="translate(0 -113.96)" fill="#546788"/>
  <path id="Path_44930" data-name="Path 44930" d="M11.3,380.507H1.948A1.951,1.951,0,0,1,0,378.559,1.56,1.56,0,0,1,1.583,377a1.574,1.574,0,0,1,1.535,1.582v.756h8.573v.779A.39.39,0,0,1,11.3,380.507Z" transform="translate(0 -367.206)" fill="#546788"/>
</svg>
