<svg id="credit-card" xmlns="http://www.w3.org/2000/svg" width="17.324" height="11.719" viewBox="0 0 17.324 11.719">
  <g id="Group_12430" data-name="Group 12430" transform="translate(0 0)">
    <path id="Path_44931" data-name="Path 44931" d="M16.052,82.82H1.271A1.273,1.273,0,0,0,0,84.091v9.176a1.273,1.273,0,0,0,1.271,1.271H16.052a1.273,1.273,0,0,0,1.271-1.271V84.091A1.273,1.273,0,0,0,16.052,82.82ZM5.329,90.451H7.046a.373.373,0,0,1,0,.746H5.329a.373.373,0,0,1,0-.746ZM1.613,86.709a.373.373,0,0,1,.373-.373H4.221a.373.373,0,0,1,.373.373v1.616a.373.373,0,0,1-.373.373H1.986a.373.373,0,0,1-.373-.373Zm.373,3.742H3.7a.373.373,0,0,1,0,.746H1.986a.373.373,0,0,1,0-.746Zm6.131,2.4H1.986a.373.373,0,1,1,0-.746H8.117a.373.373,0,1,1,0,.746ZM10.389,91.2H8.672a.373.373,0,0,1,0-.746h1.717a.373.373,0,0,1,0,.746Zm3.343,0H12.014a.373.373,0,0,1,0-.746h1.717a.373.373,0,0,1,0,.746Zm1.606-5.449h-4.05a.373.373,0,0,1,0-.746h4.05a.373.373,0,0,1,0,.746Z" transform="translate(0 -82.82)" fill="#546788"/>
  </g>
</svg>
