<svg xmlns="http://www.w3.org/2000/svg" width="14.535" height="16.187" viewBox="0 0 14.535 16.187">
  <g id="medical-assistance" transform="translate(0)">
    <path id="Path_44866" data-name="Path 44866" d="M21.448,54.972a3.622,3.622,0,0,1,.263,1.293,1.17,1.17,0,1,1-.539,0,2.221,2.221,0,0,0-.631-1.635,4.822,4.822,0,0,0-.769-.135c-.019.875-2.912,3.034-2.912,3.034s-2.893-2.159-2.913-3.034a4.748,4.748,0,0,0-.851.157,1.952,1.952,0,0,0-.551,1.573.592.592,0,0,1,.242.268,2.235,2.235,0,0,1,.983,1.106.383.383,0,0,1,.017.289,3.483,3.483,0,0,1,.245,1.207c0,.516,0,1-.562,1.128a.339.339,0,0,1-.217.078h-.376a.342.342,0,0,1-.342-.341v-.013a.344.344,0,0,1,.341-.328h.376a.342.342,0,0,1,.112.019.1.1,0,0,0,.03-.012,1.984,1.984,0,0,0,.042-.531,2.863,2.863,0,0,0-.206-1,.384.384,0,0,1-.157-.168c-.228-.477-.537-.785-.789-.785s-.582.333-.809.828a.39.39,0,0,1-.182.186,2.786,2.786,0,0,0-.184.934,1.854,1.854,0,0,0,.047.532.191.191,0,0,0,.041.014.342.342,0,0,1,.122-.023H11.7a.342.342,0,0,1,.34.307l0,.021a.345.345,0,0,1-.341.355h-.376a.34.34,0,0,1-.206-.07.649.649,0,0,1-.462-.29,1.6,1.6,0,0,1-.137-.847,3.432,3.432,0,0,1,.237-1.185.378.378,0,0,1,.022-.256,2.847,2.847,0,0,1,.585-.862,1.62,1.62,0,0,1,.394-.283.6.6,0,0,1,.252-.283A3.447,3.447,0,0,1,12.223,55a4.8,4.8,0,0,0-2.63,4.281c0,2.39,1.746,2.507,4.031,2.507H20.1c2.286,0,4.032-.117,4.032-2.507a4.8,4.8,0,0,0-2.68-4.305Z" transform="translate(-9.593 -45.597)" fill="#546788"/>
    <path id="Path_44867" data-name="Path 44867" d="M31.769,14.531c2.209,0,4-3.322,4-5.531a4,4,0,0,0-8,0C27.769,11.209,29.56,14.531,31.769,14.531Z" transform="translate(-24.5 -5)" fill="#546788"/>
    <ellipse id="Ellipse_687" data-name="Ellipse 687" cx="0.54" cy="0.54" rx="0.54" ry="0.54" transform="translate(11.318 11.268)" fill="#546788"/>
  </g>
</svg>
