<svg xmlns="http://www.w3.org/2000/svg" width="15.274" height="15.275" viewBox="0 0 15.274 15.275">
  <g id="wallet" transform="translate(0)">
    <g id="Group_12415" data-name="Group 12415" transform="translate(0 0)">
      <g id="Group_12414" data-name="Group 12414">
        <path id="Path_44897" data-name="Path 44897" d="M14.236,12.5h-2.43a2.777,2.777,0,0,1,0-5.554h2.43a.347.347,0,0,0,.347-.347V5.555A1.386,1.386,0,0,0,13.3,4.177L11.311.695A1.374,1.374,0,0,0,9.426.187L2.592,4.166h-1.2A1.39,1.39,0,0,0,0,5.555v8.331a1.39,1.39,0,0,0,1.389,1.389h11.8a1.39,1.39,0,0,0,1.389-1.389V12.845A.347.347,0,0,0,14.236,12.5ZM11.742,2.845,12.5,4.166H9.472ZM3.972,4.166,9.776.787a.671.671,0,0,1,.516-.069.681.681,0,0,1,.417.322h0L5.342,4.166Z" transform="translate(-0.003 0)" fill="#546788"/>
        <path id="Path_44898" data-name="Path 44898" d="M303.183,234.674h-2.43a2.083,2.083,0,1,0,0,4.166h2.43a1.043,1.043,0,0,0,1.041-1.041v-2.083A1.043,1.043,0,0,0,303.183,234.674Zm-2.43,2.777a.694.694,0,1,1,.694-.694A.7.7,0,0,1,300.753,237.451Z" transform="translate(-288.95 -227.037)" fill="#546788"/>
      </g>
    </g>
  </g>
</svg>
