<svg xmlns="http://www.w3.org/2000/svg" width="20.776" height="21.469" viewBox="0 0 20.776 21.469">
  <g id="printer" transform="translate(-8)">
    <path id="Path_44615" data-name="Path 44615" d="M72.621,1.5a1.506,1.506,0,0,0-1.5-1.5H57.5A1.506,1.506,0,0,0,56,1.5v3.69H72.621Z" transform="translate(-45.922)" fill="#1d4999"/>
    <path id="Path_44616" data-name="Path 44616" d="M27.965,152H8.812a.812.812,0,0,0-.812.812v8.072a.812.812,0,0,0,.812.812h3v-2.651a2.2,2.2,0,0,1,2.2-2.2h8.765a2.2,2.2,0,0,1,2.2,2.2V161.7h3a.812.812,0,0,0,.812-.812v-8.072A.812.812,0,0,0,27.965,152Zm-1.959,3.116H24.967a.693.693,0,1,1,0-1.385h1.039a.693.693,0,1,1,0,1.385Zm-3.235,3.116H14.006a.812.812,0,0,0-.812.812v7.034a.812.812,0,0,0,.812.812h8.765a.812.812,0,0,0,.812-.812v-7.034A.812.812,0,0,0,22.771,158.233Zm-2.3,6.579H16.311a.693.693,0,1,1,0-1.385h4.155a.693.693,0,1,1,0,1.385Zm0-3.116H16.311a.693.693,0,0,1,0-1.385h4.155a.693.693,0,0,1,0,1.385Z" transform="translate(0 -145.421)" fill="#1d4999"/>
  </g>
</svg>
