<svg xmlns="http://www.w3.org/2000/svg" width="14.151" height="16.51" viewBox="0 0 14.151 16.51">
  <g id="_50-Income" data-name="50-Income" transform="translate(-4 -2)">
    <path id="Path_50067" data-name="Path 50067" d="M22,21.59a.59.59,0,0,0,.59.59h2.948V21H22.59A.59.59,0,0,0,22,21.59Z" transform="translate(-7.387 -7.797)" fill="#546788"/>
    <path id="Path_50068" data-name="Path 50068" d="M16.972,12.471v-.7A1.769,1.769,0,0,0,15.2,10H13.576L12.4,11.179H15.2a.59.59,0,0,1,.59.59v.59H5.769a.59.59,0,1,1,0-1.179H8.576L7.4,10H5.769A1.769,1.769,0,0,0,4,11.769v8.255a1.769,1.769,0,0,0,1.769,1.769H16.382a1.769,1.769,0,0,0,1.769-1.769V18.845H15.2a1.769,1.769,0,1,1,0-3.538h2.948V14.127a1.769,1.769,0,0,0-1.179-1.657Z" transform="translate(0 -3.283)" fill="#546788"/>
    <path id="Path_50069" data-name="Path 50069" d="M12.941,7.725a.59.59,0,0,0,.837,0l1.769-1.769a.593.593,0,0,0-.419-1.008H13.949V2.59a.59.59,0,0,0-1.179,0V4.948H11.59a.593.593,0,0,0-.419,1.008Z" transform="translate(-2.873)" fill="#546788"/>
  </g>
</svg>
