<svg id="flour" xmlns="http://www.w3.org/2000/svg" width="14.252" height="14.253" viewBox="0 0 14.252 14.253">
  <path id="Path_45342" data-name="Path 45342" d="M5.384,182.2H2.207a.418.418,0,0,1-.418-.418v-5.814a.418.418,0,0,1,.418-.418H8.021a.418.418,0,0,1,.418.418v3.191a2.149,2.149,0,0,1,1.789-.455V174.6H0v8.975a.418.418,0,0,0,.418.418H4.6a1.249,1.249,0,0,1,.3-1.3Z" transform="translate(0 -169.74)" fill="#546788"/>
  <path id="Path_45343" data-name="Path 45343" d="M55.744.418A.418.418,0,0,0,55.326,0H48.618A.418.418,0,0,0,48.2.418V1.789h7.544Z" transform="translate(-46.858)" fill="#546788"/>
  <path id="Path_45344" data-name="Path 45344" d="M15.531,94.267H7.348l-.841,1.4h9.865Z" transform="translate(-6.326 -91.643)" fill="#546788"/>
  <path id="Path_45345" data-name="Path 45345" d="M97.862,243.846l1.384-1.384v-3.6H94.267v4.979Z" transform="translate(-91.643 -232.218)" fill="#546788"/>
  <path id="Path_45346" data-name="Path 45346" d="M201.562,354.577l-3.393-3.393a1.318,1.318,0,0,0-1.855,0l-3.393,3.393a.418.418,0,0,0,.3.713h8.05a.418.418,0,0,0,.3-.713Z" transform="translate(-187.432 -341.037)" fill="#546788"/>
</svg>
