<svg id="surface1" xmlns="http://www.w3.org/2000/svg" width="15.131" height="15.133" viewBox="0 0 15.131 15.133">
  <path id="Path_44490" data-name="Path 44490" d="M105.014.1a.352.352,0,1,0-.5.5l.738.738-.648.624,1.183,1.184.648-.624-.591-.592,1.329,1.329a.352.352,0,1,0,.5-.5Zm0,0" transform="translate(-92.645 0)" fill="#c8726e"/>
  <path id="Path_44491" data-name="Path 44491" d="M14.256,11.358l-3.689-3.69a.352.352,0,1,0-.5.5L10.6,8.7,9.585,9.716l.843.843a.213.213,0,1,1-.3.3l-.844-.843L8.5,10.8l.843.843a.211.211,0,0,1-.287.308l-.011-.011-.843-.843-.779.777.844.843a.211.211,0,0,1-.288.308l-.01-.011L7.13,12.17l-.779.778.843.843a.213.213,0,1,1-.3.3l-.843-.843-.78.78.843.843a.211.211,0,1,1-.287.309l-.011-.011-.843-.843-.777.775.843.843a.211.211,0,0,1-.287.309.084.084,0,0,1-.011-.011L3.9,15.4,2.88,16.42l.721.721-.87.87.442.44L.149,21.48a.211.211,0,1,0,.287.309l.01-.011,3.025-3.024.443.443.871-.872.721.721,7.722-7.722.524.531a.352.352,0,0,0,.5-.5Zm0,0" transform="translate(-0.082 -6.712)" fill="#c8726e"/>
</svg>
