<svg xmlns="http://www.w3.org/2000/svg" width="19.302" height="19.148" viewBox="0 0 19.302 19.148">
  <g id="diet_1_" data-name="diet (1)" transform="translate(0.1 0.1)">
    <path id="Path_45211" data-name="Path 45211" d="M23.42,16.624a2.584,2.584,0,0,0-1.663-.672c.1-.544.2-1.843-.535-1.938a2.349,2.349,0,0,0-1.982.852,1.711,1.711,0,0,0-.981-.31.485.485,0,0,0,0,.97.748.748,0,0,1,.743.711c-4.832-1.687-5.584,4.224-2.839,6.936a2.988,2.988,0,0,0,3.321.683,2.944,2.944,0,0,0,3.315-.683C24.4,21.492,25.13,18.47,23.42,16.624Zm-3.348-1.268c.7-.6,1.031-.362.684.493C20.053,16.45,19.729,16.211,20.073,15.355Zm3.3,4.389c-.153,1.7-1.593,4.1-3.57,3.2a.758.758,0,0,0-.624-.008,2,2,0,0,1-2.341-.453c-1.449-1.353-2.21-5.475.594-5.562.833-.073,1.678.59,2.348.411,2.509-1.118,3.915.167,3.593,2.413Z" transform="translate(-5.303 -5.203)" fill="#6185c7" stroke="#6185c7" stroke-width="0.2"/>
    <path id="Path_45212" data-name="Path 45212" d="M9.578,18.311H2.748A1.552,1.552,0,0,1,1.2,16.763V5.741A1.551,1.551,0,0,1,2.751,4.19h1.28a1.061,1.061,0,0,0,.994,1.291H10.49a1.06,1.06,0,0,0,.994-1.289h1.283a1.552,1.552,0,0,1,1.548,1.552V7.818a.485.485,0,0,0,.97,0V5.741A2.521,2.521,0,0,0,12.767,3.22H11.484c.065-.559-.18-1.109-.806-1.12h-.8a2.165,2.165,0,0,0-4.235,0H4.837c-.625.01-.872.566-.806,1.124H2.748A2.521,2.521,0,0,0,.23,5.744V16.763a2.522,2.522,0,0,0,2.518,2.518h6.83a.485.485,0,0,0,0-.97ZM5,3.068h1.08a.5.5,0,0,0,.485-.508,1.193,1.193,0,1,1,2.384.021.485.485,0,0,0,.485.485h1.076L10.49,4.509,5,4.486Z" transform="translate(-0.23 -0.386)" fill="#6185c7" stroke="#6185c7" stroke-width="0.2"/>
    <path id="Path_45213" data-name="Path 45213" d="M13.155,14.5a.485.485,0,0,0-.485-.485H5.443a.485.485,0,1,0,0,.97H12.67A.485.485,0,0,0,13.155,14.5Z" transform="translate(-1.901 -5.204)" fill="#6185c7" stroke="#6185c7" stroke-width="0.2"/>
    <path id="Path_45214" data-name="Path 45214" d="M7.036,19.053a.485.485,0,0,0,0,.97h3.519a.485.485,0,0,0,0-.97Z" transform="translate(-2.468 -6.984)" fill="#6185c7" stroke="#6185c7" stroke-width="0.2"/>
  </g>
</svg>
