<svg xmlns="http://www.w3.org/2000/svg" width="16.777" height="16.777" viewBox="0 0 16.777 16.777">
  <g id="_x30_4" transform="translate(-2.001 -2)">
    <path id="Path_50095" data-name="Path 50095" d="M14.883,12.785a4.494,4.494,0,1,1,.627-8.939A6.608,6.608,0,0,0,10.916,2H10.39A6.238,6.238,0,0,0,3.8,8.591v.433L2.086,11.878a.6.6,0,0,0,.514.908H4.4v.6H5.3a.3.3,0,1,1,0,.6H4.4a1.8,1.8,0,0,0,1.8,1.8h.6a.6.6,0,0,1,.6.6v1.8a.6.6,0,0,0,.6.6h4.784a.6.6,0,0,0,.6-.6V17.057a1.765,1.765,0,0,1,1.153-1.607,4.693,4.693,0,0,0,2.591-3.272,4.46,4.46,0,0,1-2.247.608Z" fill="#546788"/>
    <path id="Path_50096" data-name="Path 50096" d="M19.019,9.6a.3.3,0,0,1,.273.176l.718,1.585L20.9,7.432a.3.3,0,0,1,.565-.057L22.469,9.6h2.32A3.907,3.907,0,0,0,17,9.6Z" transform="translate(-6.012 -1.603)" fill="#546788"/>
    <path id="Path_50097" data-name="Path 50097" d="M22.276,11.822A.3.3,0,0,1,22,11.646l-.717-1.584L20.4,13.985a.3.3,0,0,1-.262.232h-.03a.3.3,0,0,1-.273-.176l-1.006-2.221H17a3.907,3.907,0,0,0,7.79,0Z" transform="translate(-6.012 -3.231)" fill="#546788"/>
  </g>
</svg>
