<svg xmlns="http://www.w3.org/2000/svg" width="17.636" height="22.25" viewBox="0 0 17.636 22.25">
  <g id="_x36_3_Inventory_Management" transform="translate(-53.735 -0.813)">
    <g id="Group_16655" data-name="Group 16655" transform="translate(53.735 0.813)">
      <path id="Path_45681" data-name="Path 45681" d="M132.561,5.122h6.5a.809.809,0,0,0,.809-.809v-1.1a.48.48,0,0,0-.48-.48h-2.206a1.451,1.451,0,1,0-2.743,0h-2.206a.48.48,0,0,0-.48.48v1.1A.809.809,0,0,0,132.561,5.122ZM135.809,1.5a.768.768,0,0,1,.767.767.759.759,0,0,1-.166.471h-1.2a.759.759,0,0,1-.166-.471A.768.768,0,0,1,135.809,1.5Z" transform="translate(-128.351 -0.813)" fill="#929292"/>
      <path id="Path_45682" data-name="Path 45682" d="M64.791,72.419A3.523,3.523,0,0,1,68.31,68.9a3.379,3.379,0,0,1,.342.016V57.224a1.247,1.247,0,0,0-1.246-1.246h-1.7v1.1a1.264,1.264,0,0,1-1.264,1.264h-6.5a1.265,1.265,0,0,1-1.264-1.264v-1.1h-1.7a1.247,1.247,0,0,0-1.246,1.246V74.577a1.247,1.247,0,0,0,1.246,1.246H67.42A3.525,3.525,0,0,1,64.791,72.419ZM59.8,60.534h6.45a.342.342,0,0,1,0,.684H59.8a.342.342,0,0,1,0-.684Zm0,3.34h6.45a.342.342,0,1,1,0,.684H59.8a.342.342,0,1,1,0-.684Zm-1.866,3.384-1.084,1.081a.341.341,0,0,1-.484,0l-.47-.47a.342.342,0,1,1,.484-.484l.228.228.842-.84a.342.342,0,0,1,.484.484Zm0-3.342L56.849,65a.342.342,0,0,1-.484,0l-.47-.47a.344.344,0,0,1,0-.484.34.34,0,0,1,.484,0l.228.228.842-.842a.344.344,0,0,1,.484,0A.34.34,0,0,1,57.933,63.916Zm0-3.34-1.084,1.084a.341.341,0,0,1-.484,0l-.47-.47a.344.344,0,0,1,0-.484.34.34,0,0,1,.484,0l.228.228.842-.842a.344.344,0,0,1,.484,0A.34.34,0,0,1,57.933,60.575Zm1.524,6.982a.342.342,0,0,1,.342-.342h6.45a.342.342,0,0,1,0,.684H59.8A.342.342,0,0,1,59.457,67.557Z" transform="translate(-53.735 -53.573)" fill="#929292"/>
      <path id="Path_45683" data-name="Path 45683" d="M320.872,362.844a3.062,3.062,0,1,0,3.062,3.063A3.063,3.063,0,0,0,320.872,362.844Zm1.294,2.559-1.491,1.491a.342.342,0,0,1-.484,0l-.614-.614a.342.342,0,1,1,.484-.484l.372.372,1.249-1.249a.342.342,0,1,1,.484.484Z" transform="translate(-306.298 -347.061)" fill="#929292"/>
    </g>
  </g>
</svg>
