<svg id="_x30_7" xmlns="http://www.w3.org/2000/svg" width="22.25" height="22.25" viewBox="0 0 22.25 22.25">
  <path id="Path_47692" data-name="Path 47692" d="M13.173,4.469,13.79,2H7.614l.617,2.469Z" transform="translate(-3.153 -2)" fill="#929292"/>
  <path id="Path_47693" data-name="Path 47693" d="M10.741,16.3V8.754L17.1,6.174V2.795A.8.8,0,0,0,16.3,2H13.456l-.741,2.962a.4.4,0,0,1-.385.3H6.768a.4.4,0,0,1-.385-.3L5.642,2H2.795A.8.8,0,0,0,2,2.795V23.455a.8.8,0,0,0,.795.795H16.3a.8.8,0,0,0,.795-.795V20.364L11.672,17.75a1.573,1.573,0,0,1-.931-1.446ZM5.179,20.277a1.589,1.589,0,1,1,1.589-1.589A1.591,1.591,0,0,1,5.179,20.277Zm0-4.768A1.589,1.589,0,1,1,6.768,13.92,1.591,1.591,0,0,1,5.179,15.509Zm0-4.768A1.589,1.589,0,1,1,6.768,9.152,1.591,1.591,0,0,1,5.179,10.741Z" transform="translate(-2 -2)" fill="#929292"/>
  <path id="Path_47694" data-name="Path 47694" d="M28.459,11.992,22.5,14.641v6.893l5.478-2.448a.794.794,0,0,0,.482-.73V12s0,0,0-.006Z" transform="translate(-6.21 -4.052)" fill="#929292"/>
  <path id="Path_47695" data-name="Path 47695" d="M20.778,8.065a.789.789,0,0,0-.625,0s-5.6,2.411-5.627,2.423l5.939,2.64,5.939-2.64c-.022-.012-5.627-2.423-5.627-2.423Z" transform="translate(-4.572 -3.232)" fill="#929292"/>
  <path id="Path_47696" data-name="Path 47696" d="M14,12v6.357a.794.794,0,0,0,.482.73l5.478,2.448V14.641L14,11.992s0,0,0,.006Z" transform="translate(-4.464 -4.052)" fill="#929292"/>
</svg>
