<svg id="research" xmlns="http://www.w3.org/2000/svg" width="20.29" height="20.38" viewBox="0 0 20.29 20.38">
  <path id="Path_44499" data-name="Path 44499" d="M315.638,8.787v3.218h3.218Z" transform="translate(-303.174 -8.439)" fill="#929292"/>
  <path id="Path_44500" data-name="Path 44500" d="M151.133,120h2.085v1.273h-2.085Z" transform="translate(-145.188 -115.246)" fill="#929292"/>
  <path id="Path_44501" data-name="Path 44501" d="M2.316,75.034V60H1.721a.594.594,0,0,0-.594.594V77.412a.594.594,0,0,0,.594.594H14.185a.594.594,0,0,0,.594-.594v-.595H4.1a1.785,1.785,0,0,1-1.783-1.783Z" transform="translate(-1.127 -57.627)" fill="#929292"/>
  <ellipse id="Ellipse_649" data-name="Ellipse 649" cx="2.378" cy="2.378" rx="2.378" ry="2.378" transform="translate(13.653 9.353)" fill="#929292"/>
  <path id="Path_44502" data-name="Path 44502" d="M71.219,11.73a3.571,3.571,0,0,1,3.567-3.567V4.755H70.624a.594.594,0,0,1-.594-.594V0h-8.3a.594.594,0,0,0-.594.594V17.407a.594.594,0,0,0,.594.594H74.191a.594.594,0,0,0,.594-.594V15.3a3.571,3.571,0,0,1-3.567-3.567ZM63.511,4.161a.594.594,0,0,1,.594-.594h3.274a.594.594,0,0,1,.594.594V6.623a.594.594,0,0,1-.594.594H64.105a.594.594,0,0,1-.594-.594Zm.594,4.245h5.181a.594.594,0,0,1,0,1.189H64.105a.594.594,0,0,1,0-1.189Zm0,2.378h4.741a.594.594,0,0,1,0,1.189H64.105a.594.594,0,0,1,0-1.189Zm5.423,3.567H64.105a.594.594,0,0,1,0-1.189h5.423a.594.594,0,0,1,0,1.189Z" transform="translate(-58.755 0)" fill="#929292"/>
  <path id="Path_44503" data-name="Path 44503" d="M459.776,349.3l-1.18-1.18a3.6,3.6,0,0,1-.841.841l1.18,1.18a.594.594,0,0,0,.841-.841Z" transform="translate(-439.66 -334.325)" fill="#929292"/>
</svg>
