<svg xmlns="http://www.w3.org/2000/svg" width="16.482" height="14.123" viewBox="0 0 16.482 14.123">
  <g id="invoice_2_" data-name="invoice (2)" transform="translate(0)">
    <path id="Path_45962" data-name="Path 45962" d="M17.494,8.192a3.258,3.258,0,0,0-2.3-.96h-.3V6.848a.548.548,0,0,0-1.1,0V7.26H10.776V6.848a.548.548,0,0,0-1.1,0V7.26H6.662V6.848a.548.548,0,0,0-1.1,0V7.26H5.236A3.23,3.23,0,0,0,2,10.5V17.16a3.192,3.192,0,0,0,.96,2.3,3.258,3.258,0,0,0,2.3.96h9.955a3.193,3.193,0,0,0,2.3-.96,3.258,3.258,0,0,0,.96-2.3V10.5a3.334,3.334,0,0,0-.987-2.3ZM10.227,17.6H7.759a.548.548,0,1,1,0-1.1h2.468a.548.548,0,1,1,0,1.1ZM12.7,15.212H7.759a.548.548,0,1,1,0-1.1H12.7a.55.55,0,0,1,.548.548A.569.569,0,0,1,12.7,15.212Zm4.662-3.784H3.1V10.5a2.049,2.049,0,0,1,.631-1.508,2.094,2.094,0,0,1,1.508-.631h.329v.411a.548.548,0,0,0,1.1,0V8.357H9.679v.411a.548.548,0,0,0,1.1,0V8.357h3.017v.411a.548.548,0,0,0,1.1,0V8.357h.329a2.049,2.049,0,0,1,1.508.631,2.094,2.094,0,0,1,.631,1.508Z" transform="translate(-2 -6.3)" fill="#546788"/>
  </g>
</svg>
