<svg xmlns="http://www.w3.org/2000/svg" width="17.228" height="15.726" viewBox="0 0 17.228 15.726">
  <g id="invoice" transform="translate(0 -0.105)">
    <path id="Path_45175" data-name="Path 45175" d="M9.689,302.449H0v1.5a1.718,1.718,0,0,0,1.6,1.711.44.44,0,0,1,.058,0h8.713a2.577,2.577,0,0,1-.683-1.75Zm0,0" transform="translate(0 -289.83)" fill="#546788"/>
    <path id="Path_45176" data-name="Path 45176" d="M63.889,1.18l-.072,10.612h7.461a.414.414,0,0,1,.414.414v1.87a1.782,1.782,0,0,0,1.6,1.75h.141a.412.412,0,0,1,.068.006,1.757,1.757,0,0,0,1.7-1.756V1.312A1.976,1.976,0,0,1,75.61.1H64.983A1.086,1.086,0,0,0,63.889,1.18Zm1.772,1.753h3.92a.414.414,0,1,1,0,.828h-3.92a.414.414,0,1,1,0-.828Zm0,2.96h7.313a.414.414,0,1,1,0,.828H65.661a.414.414,0,1,1,0-.828Zm0,2.96h7.313a.414.414,0,1,1,0,.828H65.661a.414.414,0,1,1,0-.828Zm0,0" transform="translate(-61.175 0)" fill="#546788"/>
    <path id="Path_45177" data-name="Path 45177" d="M359.993,1.019A1.18,1.18,0,0,0,358.8,2.188v5.73h2.376V2.188a1.18,1.18,0,0,0-1.188-1.169Zm0,0" transform="translate(-343.953 -0.876)" fill="#546788"/>
  </g>
</svg>
