<svg xmlns="http://www.w3.org/2000/svg" width="13.804" height="19.196" viewBox="0 0 13.804 19.196">
  <g id="flask" transform="translate(0.164 0.15)">
    <path id="Path_45207" data-name="Path 45207" d="M13.337,16.372l-4-9.74a4.444,4.444,0,0,1-.334-1.694V2.363a1.031,1.031,0,0,1,.3-.734A1.258,1.258,0,0,0,9.682.734V.37A.369.369,0,0,0,9.313,0H4.16A.369.369,0,0,0,3.791.37V.734a1.257,1.257,0,0,0,.371.895,1.031,1.031,0,0,1,.3.734V4.938a4.442,4.442,0,0,1-.334,1.694l-1.1,2.676v0l-2.9,7.061A1.83,1.83,0,0,0,1.829,18.9h9.815a1.83,1.83,0,0,0,1.693-2.525ZM4.815,6.912A5.176,5.176,0,0,0,5.2,4.938V2.363a1.764,1.764,0,0,0-.52-1.256A.525.525,0,0,1,4.529.739H8.944a.524.524,0,0,1-.155.369,1.765,1.765,0,0,0-.52,1.256V4.938a5.179,5.179,0,0,0,.389,1.975l.891,2.172H3.923Zm7.736,10.763a1.076,1.076,0,0,1-.907.484H1.829a1.094,1.094,0,0,1-1.082-1.25h.608a.369.369,0,0,0,0-.738H1.016l.424-1.033h.623a.369.369,0,1,0,0-.738h-.32l.424-1.033h.64a.369.369,0,0,0,0-.738H2.47l.424-1.033h.657a.369.369,0,1,0,0-.738H3.2l.424-1.033H9.852l2.8,6.83a1.076,1.076,0,0,1-.1,1.023Zm0,0" transform="translate(0.002 0)" fill="#6185c7" stroke="#6185c7" stroke-width="0.3"/>
    <path id="Path_45208" data-name="Path 45208" d="M293.484,438.229a.369.369,0,1,0-.683.28l0,0a.369.369,0,1,0,.683-.28Zm0,0" transform="translate(-281.967 -421.834)" fill="#6185c7" stroke="#6185c7" stroke-width="0.3"/>
    <path id="Path_45209" data-name="Path 45209" d="M244.864,319.715l-1.322-3.222a.369.369,0,0,0-.683.28L244.181,320a.369.369,0,0,0,.683-.28Zm0,0" transform="translate(-233.87 -304.592)" fill="#6185c7" stroke="#6185c7" stroke-width="0.3"/>
  </g>
</svg>
