<svg xmlns="http://www.w3.org/2000/svg" width="15.603" height="17.747" viewBox="0 0 15.603 17.747">
  <g id="Group_18924" data-name="Group 18924" transform="translate(-7.381 -4)">
    <path id="Path_50108" data-name="Path 50108" d="M16.7,10.456a1.131,1.131,0,0,1,.569-.984,15.856,15.856,0,0,0,2.986-2.1,2.549,2.549,0,0,1-.432-.929.309.309,0,1,1,.609-.109,3.661,3.661,0,0,0,2.02,2.038c.931.288,2.918,1.561,3.178,3.117a4.406,4.406,0,0,0,.554-1.706,5.566,5.566,0,0,0-.214-2.29C24.622,4,21.792,4.007,21.689,4.007A5.17,5.17,0,0,0,16.2,8.177a8.227,8.227,0,0,0,.5,3.185c0-.022,0-.487,0-.907Z" transform="translate(-5.997)" fill="#546788"/>
    <path id="Path_50109" data-name="Path 50109" d="M27.462,40.144a4.561,4.561,0,0,1-2.815-.205v.715a.472.472,0,0,1-.3.444l-.594.236a4.285,4.285,0,0,0,2.38.963,4.234,4.234,0,0,0,2.809-.979c-.318-.154-.864-.207-.858-.665v-.712a4.682,4.682,0,0,1-.621.2Z" transform="translate(-11.183 -24.549)" fill="#546788"/>
    <path id="Path_50110" data-name="Path 50110" d="M22.976,49.454l-.261-1.144a3.183,3.183,0,0,0-1.933-2.256l-2.362-.938a5.085,5.085,0,0,1-3.266,1.346,4.941,4.941,0,0,1-3.247-1.33l-2.324.923A3.194,3.194,0,0,0,7.647,48.31l-.258,1.144a.31.31,0,0,0,.059.264.318.318,0,0,0,.242.115H22.675a.31.31,0,0,0,.3-.379Z" transform="translate(0 -28.085)" fill="#546788"/>
    <path id="Path_50111" data-name="Path 50111" d="M43.16,25.436c-.229.044-.191.215-.267.4a4.458,4.458,0,0,1-.715,1.336,3.856,3.856,0,0,1-.454.5,2.564,2.564,0,0,0,.985.193,2.538,2.538,0,0,0,2.517-3.033,2.652,2.652,0,0,0-1.01-1.56,4.806,4.806,0,0,1-.674,1.824.9.9,0,0,1-.382.342Z" transform="translate(-23.459 -13.163)" fill="#546788"/>
    <path id="Path_50112" data-name="Path 50112" d="M26.625,22.037a3.886,3.886,0,0,0,.895-2.15c-.353-1.411-2.062-2.394-2.837-2.657a5.306,5.306,0,0,1-1.541-1.088,12,12,0,0,1-3.331,2.3v1.081A3.873,3.873,0,0,0,26.625,22.037Z" transform="translate(-8.49 -8.294)" fill="#546788"/>
  </g>
</svg>
