<svg xmlns="http://www.w3.org/2000/svg" width="14.048" height="13.983" viewBox="0 0 14.048 13.983">
  <g id="Group_17812" data-name="Group 17812" transform="translate(0 -1.183)">
    <g id="Group_17781" data-name="Group 17781" transform="translate(3.478 5.075)">
      <g id="Group_17780" data-name="Group 17780">
        <path id="Path_48494" data-name="Path 48494" d="M127.251,143.024a9.215,9.215,0,0,0-.506,2.687h3.141v-2.687Z" transform="translate(-126.745 -143.024)" fill="#546788"/>
      </g>
    </g>
    <g id="Group_17783" data-name="Group 17783" transform="translate(4.319 1.183)">
      <g id="Group_17782" data-name="Group 17782" transform="translate(0 0)">
        <path id="Path_48495" data-name="Path 48495" d="M158.46,2.552a9.359,9.359,0,0,0-1.029,1.7h2.3V1.183A9.429,9.429,0,0,0,158.46,2.552Z" transform="translate(-157.431 -1.183)" fill="#546788"/>
      </g>
    </g>
    <g id="Group_17785" data-name="Group 17785" transform="translate(0 5.075)">
      <g id="Group_17784" data-name="Group 17784">
        <path id="Path_48496" data-name="Path 48496" d="M.7,143.024a6.988,6.988,0,0,0-.7,2.687H2.653a10.125,10.125,0,0,1,.465-2.687Z" transform="translate(0 -143.024)" fill="#546788"/>
      </g>
    </g>
    <g id="Group_17787" data-name="Group 17787" transform="translate(3.478 8.586)">
      <g id="Group_17786" data-name="Group 17786">
        <path id="Path_48497" data-name="Path 48497" d="M126.771,271.005a9.247,9.247,0,0,0,.512,2.687h2.628v-2.687Z" transform="translate(-126.771 -271.005)" fill="#546788"/>
      </g>
    </g>
    <g id="Group_17789" data-name="Group 17789" transform="translate(4.326 12.098)">
      <g id="Group_17788" data-name="Group 17788">
        <path id="Path_48498" data-name="Path 48498" d="M157.669,398.987a9.307,9.307,0,0,0,1.042,1.724,9.423,9.423,0,0,0,1.25,1.344v-3.068h-2.292Z" transform="translate(-157.669 -398.987)" fill="#546788"/>
      </g>
    </g>
    <g id="Group_17791" data-name="Group 17791" transform="translate(7.443 5.075)">
      <g id="Group_17790" data-name="Group 17790">
        <path id="Path_48499" data-name="Path 48499" d="M273.88,143.024h-2.614v2.687h3.127A9.249,9.249,0,0,0,273.88,143.024Z" transform="translate(-271.266 -143.024)" fill="#546788"/>
      </g>
    </g>
    <g id="Group_17793" data-name="Group 17793" transform="translate(0 8.586)">
      <g id="Group_17792" data-name="Group 17792">
        <path id="Path_48500" data-name="Path 48500" d="M2.653,271.005H0a6.988,6.988,0,0,0,.7,2.687H3.118A10.125,10.125,0,0,1,2.653,271.005Z" transform="translate(0 -271.005)" fill="#546788"/>
      </g>
    </g>
    <g id="Group_17795" data-name="Group 17795" transform="translate(7.443 1.193)">
      <g id="Group_17794" data-name="Group 17794" transform="translate(0 0)">
        <path id="Path_48501" data-name="Path 48501" d="M272.5,2.894a9.432,9.432,0,0,0-1.237-1.333V4.618h2.279A9.3,9.3,0,0,0,272.5,2.894Z" transform="translate(-271.264 -1.561)" fill="#546788"/>
      </g>
    </g>
    <g id="Group_17797" data-name="Group 17797" transform="translate(1.181 1.357)">
      <g id="Group_17796" data-name="Group 17796" transform="translate(0 0)">
        <path id="Path_48502" data-name="Path 48502" d="M43.915,9.38a7.11,7.11,0,0,0-.867,1.052h2.24A10.115,10.115,0,0,1,46.58,8.207c.188-.245.375-.468.556-.668A6.994,6.994,0,0,0,43.915,9.38Z" transform="translate(-43.048 -7.539)" fill="#546788"/>
      </g>
    </g>
    <g id="Group_17799" data-name="Group 17799" transform="translate(1.181 12.098)">
      <g id="Group_17798" data-name="Group 17798">
        <path id="Path_48503" data-name="Path 48503" d="M46.58,401.211a10.112,10.112,0,0,1-1.292-2.225h-2.24a7.106,7.106,0,0,0,.867,1.052,6.993,6.993,0,0,0,3.22,1.841C46.955,401.678,46.767,401.456,46.58,401.211Z" transform="translate(-43.048 -398.986)" fill="#546788"/>
      </g>
    </g>
    <g id="Group_17801" data-name="Group 17801" transform="translate(8.779 12.098)">
      <g id="Group_17800" data-name="Group 17800">
        <path id="Path_48504" data-name="Path 48504" d="M321.811,398.988h0a10.115,10.115,0,0,1-1.292,2.225c-.188.245-.375.468-.556.668a6.993,6.993,0,0,0,3.22-1.841,7.1,7.1,0,0,0,.867-1.052Z" transform="translate(-319.963 -398.988)" fill="#546788"/>
      </g>
    </g>
    <g id="Group_17803" data-name="Group 17803" transform="translate(7.443 12.098)">
      <g id="Group_17802" data-name="Group 17802">
        <path id="Path_48505" data-name="Path 48505" d="M271.265,398.987v3.056a9.5,9.5,0,0,0,2.286-3.056Z" transform="translate(-271.265 -398.987)" fill="#546788"/>
      </g>
    </g>
    <g id="Group_17805" data-name="Group 17805" transform="translate(8.779 1.357)">
      <g id="Group_17804" data-name="Group 17804">
        <path id="Path_48506" data-name="Path 48506" d="M323.183,9.382a6.993,6.993,0,0,0-3.22-1.841c.181.2.369.423.556.668a10.118,10.118,0,0,1,1.292,2.225h2.24A7.111,7.111,0,0,0,323.183,9.382Z" transform="translate(-319.963 -7.541)" fill="#546788"/>
      </g>
    </g>
    <g id="Group_17807" data-name="Group 17807" transform="translate(10.93 5.075)">
      <g id="Group_17806" data-name="Group 17806">
        <path id="Path_48507" data-name="Path 48507" d="M400.784,143.024H398.37a10.123,10.123,0,0,1,.465,2.687h2.653A6.989,6.989,0,0,0,400.784,143.024Z" transform="translate(-398.37 -143.024)" fill="#546788"/>
      </g>
    </g>
    <g id="Group_17809" data-name="Group 17809" transform="translate(7.443 8.586)">
      <g id="Group_17808" data-name="Group 17808">
        <path id="Path_48508" data-name="Path 48508" d="M271.265,271.005v2.687h2.622a9.219,9.219,0,0,0,.506-2.687Z" transform="translate(-271.265 -271.005)" fill="#546788"/>
      </g>
    </g>
    <g id="Group_17811" data-name="Group 17811" transform="translate(10.93 8.586)">
      <g id="Group_17810" data-name="Group 17810">
        <path id="Path_48509" data-name="Path 48509" d="M398.834,271.005a10.127,10.127,0,0,1-.465,2.687h2.414a6.988,6.988,0,0,0,.7-2.687Z" transform="translate(-398.369 -271.005)" fill="#546788"/>
      </g>
    </g>
  </g>
</svg>
