<svg xmlns="http://www.w3.org/2000/svg" width="15.775" height="15.775" viewBox="0 0 15.775 15.775">
  <g id="late" transform="translate(-21.333 -21.333)">
    <path id="Path_45439" data-name="Path 45439" d="M28.862,21.333a7.529,7.529,0,0,0,0,15.058c.179,0,.355-.007.531-.022a4.965,4.965,0,0,1-.889-2.847A5.02,5.02,0,0,1,33.522,28.5a4.965,4.965,0,0,1,2.848.889c.014-.176.022-.351.022-.531A7.528,7.528,0,0,0,28.862,21.333Zm.717,7.529a.717.717,0,0,1-.717.717H25.635a.717.717,0,1,1,0-1.434h2.51V24.2a.717.717,0,1,1,1.434,0Z" transform="translate(0 0)" fill="#3fcbd5"/>
    <path id="Path_45440" data-name="Path 45440" d="M280.918,277.333a3.585,3.585,0,1,0,3.585,3.585,3.585,3.585,0,0,0-3.585-3.585Zm0,6.1a.717.717,0,1,1,.717-.717A.717.717,0,0,1,280.918,283.428Zm.717-2.51a.717.717,0,1,1-1.434,0v-1.793a.717.717,0,1,1,1.434,0Z" transform="translate(-247.395 -247.395)" fill="#3fcbd5"/>
  </g>
</svg>
