<svg xmlns="http://www.w3.org/2000/svg" width="16.063" height="16.063" viewBox="0 0 16.063 16.063">
  <path id="ICU_Monitor" d="M2.51,11.043H13.553a.5.5,0,0,0,.5-.5V2.51a.5.5,0,0,0-.5-.5H2.51a.5.5,0,0,0-.5.5v8.031A.5.5,0,0,0,2.51,11.043Zm.5-1V7.027H4.518a.5.5,0,0,0,.4-.2l.6-.8v2.51a.5.5,0,0,0,.9.3L7.78,7.027h.753a.5.5,0,0,0,.4-.2l.6-.8v2.51a.5.5,0,0,0,.9.3L11.8,7.027h1.255v3.012ZM13.051,3.012V6.023H11.545a.5.5,0,0,0-.4.2l-.6.8V4.518a.5.5,0,0,0-.9-.3L8.282,6.023H7.529a.5.5,0,0,0-.4.2l-.6.8V4.518a.5.5,0,0,0-.9-.3L4.267,6.023H3.012V3.012ZM13.553,0H2.51A2.513,2.513,0,0,0,0,2.51V13.553a2.513,2.513,0,0,0,2.51,2.51H13.553a2.513,2.513,0,0,0,2.51-2.51V2.51A2.513,2.513,0,0,0,13.553,0ZM2.51,1H13.553A1.508,1.508,0,0,1,15.059,2.51v9.537H1V2.51A1.508,1.508,0,0,1,2.51,1ZM13.553,15.059H2.51A1.508,1.508,0,0,1,1,13.553v-.5H15.059v.5A1.508,1.508,0,0,1,13.553,15.059Zm-.5-1a.5.5,0,1,1-.5-.5A.5.5,0,0,1,13.051,14.055Zm-2.008,0a.5.5,0,0,1-.5.5h-1a.5.5,0,0,1,0-1h1A.5.5,0,0,1,11.043,14.055Zm-3.012,0a.5.5,0,0,1-.5.5h-1a.5.5,0,0,1,0-1h1A.5.5,0,0,1,8.031,14.055Zm-3.012,0a.5.5,0,0,1-.5.5h-1a.5.5,0,0,1,0-1h1A.5.5,0,0,1,5.02,14.055Z" fill="#6185c7"/>
</svg>
