<svg id="lists" xmlns="http://www.w3.org/2000/svg" width="15.863" height="18.507" viewBox="0 0 15.863 18.507">
  <path id="Path_45222" data-name="Path 45222" d="M16.558,20.507a3.309,3.309,0,0,0,3.3-3.3V5.3a3.309,3.309,0,0,0-3.3-3.3H7.3A3.309,3.309,0,0,0,4,5.3V17.2a3.309,3.309,0,0,0,3.3,3.3ZM5.322,5.3A1.985,1.985,0,0,1,7.3,3.322h9.254A1.985,1.985,0,0,1,18.541,5.3V17.2a1.985,1.985,0,0,1-1.983,1.983H7.3A1.985,1.985,0,0,1,5.322,17.2Z" transform="translate(-4 -2)" fill="#6185c7"/>
  <path id="Path_45223" data-name="Path 45223" d="M13.661,16.322h5.288a.661.661,0,0,0,0-1.322H13.661a.661.661,0,0,0,0,1.322Z" transform="translate(-7.051 -6.407)" fill="#6185c7"/>
  <path id="Path_45224" data-name="Path 45224" d="M13.661,11.322h5.288a.661.661,0,0,0,0-1.322H13.661a.661.661,0,0,0,0,1.322Z" transform="translate(-7.051 -4.712)" fill="#6185c7"/>
  <path id="Path_45225" data-name="Path 45225" d="M13.661,21.322h5.288a.661.661,0,1,0,0-1.322H13.661a.661.661,0,1,0,0,1.322Z" transform="translate(-7.051 -8.103)" fill="#6185c7"/>
  <path id="Path_45226" data-name="Path 45226" d="M9.679,11.322a.661.661,0,1,0,0-1.322H9.672a.661.661,0,0,0,.006,1.322Z" transform="translate(-5.7 -4.712)" fill="#6185c7"/>
  <path id="Path_45227" data-name="Path 45227" d="M9.679,16.322a.661.661,0,1,0,0-1.322H9.672a.661.661,0,0,0,.006,1.322Z" transform="translate(-5.7 -6.407)" fill="#6185c7"/>
  <path id="Path_45228" data-name="Path 45228" d="M9.679,21.322a.661.661,0,1,0,0-1.322H9.672a.661.661,0,0,0,.006,1.322Z" transform="translate(-5.7 -8.103)" fill="#6185c7"/>
</svg>
