<svg xmlns="http://www.w3.org/2000/svg" width="23.36" height="23.36" viewBox="0 0 23.36 23.36">
  <g id="maintenance" transform="translate(0 0)">
    <path id="Path_47515" data-name="Path 47515" d="M280.118,10.713,281.529,9.3a4.79,4.79,0,0,0,6.235-5.755.684.684,0,0,0-1.144-.3l-2.191,2.191L282.494,3.5l2.191-2.191a.684.684,0,0,0-.3-1.144A4.79,4.79,0,0,0,278.626,6.4L277.215,7.81Z" transform="translate(-264.567 -0.001)" fill="#929292"/>
    <path id="Path_47516" data-name="Path 47516" d="M7.809,277.213,6.4,278.624A4.79,4.79,0,0,0,.163,284.38a.684.684,0,0,0,1.144.3L3.5,282.492l1.936,1.936-2.191,2.191a.684.684,0,0,0,.3,1.144A4.79,4.79,0,0,0,9.3,281.527l1.411-1.411Z" transform="translate(0 -264.565)" fill="#929292"/>
    <path id="Path_47517" data-name="Path 47517" d="M21.959,15.184a4.8,4.8,0,0,0-5-1.126L9.3,6.4A4.79,4.79,0,0,0,3.546.163a.684.684,0,0,0-.3,1.144L5.434,3.5,3.5,5.434,1.307,3.243a.684.684,0,0,0-1.144.3A4.79,4.79,0,0,0,6.4,9.3l7.661,7.661a4.791,4.791,0,1,0,7.9-1.778Zm-2.021,3.952-.8.8H18l-.8-.8V18l.8-.8h1.134l.8.8Z" transform="translate(0 0)" fill="#929292"/>
  </g>
</svg>
