<svg xmlns="http://www.w3.org/2000/svg" width="18.544" height="17.748" viewBox="0 0 18.544 17.748">
  <g id="Group_18925" data-name="Group 18925" transform="translate(0 -11)">
    <path id="Path_50114" data-name="Path 50114" d="M242.788,11.342a.543.543,0,0,0-.5-.342h-4.346a.543.543,0,0,0-.5.342l-.588,1.469h6.531Z" transform="translate(-228.267)" fill="#546788"/>
    <path id="Path_50115" data-name="Path 50115" d="M13.4,137.7a6.66,6.66,0,0,0-.953-3.441h-.6a3.419,3.419,0,0,0-1.731.468,4.526,4.526,0,1,1-4.739-1.356,7.848,7.848,0,0,1,2.372-2.29A6.7,6.7,0,1,0,13.4,137.7Z" transform="translate(0 -115.654)" fill="#546788"/>
    <path id="Path_50116" data-name="Path 50116" d="M150,92.576,151.8,91h-6.2l1.8,1.576a6.7,6.7,0,0,0-4.447,10.014h.6a3.42,3.42,0,0,0,1.731-.468,4.526,4.526,0,1,1,4.739,1.356,7.849,7.849,0,0,1-2.372,2.29A6.7,6.7,0,0,0,150,92.576Z" transform="translate(-136.857 -77.102)" fill="#546788"/>
  </g>
</svg>
