<svg xmlns="http://www.w3.org/2000/svg" width="12.519" height="14.124" viewBox="0 0 12.519 14.124">
  <path id="med" d="M6.489,11.311a3.827,3.827,0,0,0,4.3,3.259,3.773,3.773,0,0,0,3.259-3.259Zm-4.889-4h6V3.237A3.046,3.046,0,0,0,4.341.5,2.947,2.947,0,0,0,1.6,3.237ZM4.563.94v.519A1.883,1.883,0,0,0,2.637,3.237H2.119A2.388,2.388,0,0,1,4.563.94ZM2.119,3.755h.519v.519H2.119ZM1.6,11.829a2.69,2.69,0,0,0,2,2.593,3.126,3.126,0,0,0,3.333-.889,4.261,4.261,0,0,1-.963-2.3h0v-.519h0A3.757,3.757,0,0,1,7.6,7.829V7.681h-6v4.148Zm8.667-4.3a3.709,3.709,0,0,0-3.778,3.259h7.63a3.774,3.774,0,0,0-3.852-3.259Z" transform="translate(-1.6 -0.484)" fill="#546788"/>
</svg>
