<svg xmlns="http://www.w3.org/2000/svg" width="15.085" height="17.122" viewBox="0 0 15.085 17.122">
  <g id="Group_18936" data-name="Group 18936" transform="translate(-30.505)">
    <path id="Path_50141" data-name="Path 50141" d="M153.674,129a3.547,3.547,0,1,0,3.547,3.547A3.551,3.551,0,0,0,153.674,129Zm2.208,4.048h-1.707v1.707h-1v-1.707h-1.707v-1h1.707v-1.707h1v1.707h1.707Z" transform="translate(-115.627 -124.692)" fill="#546788"/>
    <path id="Path_50142" data-name="Path 50142" d="M45.108,2.7A2.234,2.234,0,0,1,42.96.495L42.954,0H33.141l-.006.495A2.234,2.234,0,0,1,30.987,2.7l-.482.019V6.754a10.247,10.247,0,0,0,4.932,8.825l2.611,1.544,2.611-1.544A10.246,10.246,0,0,0,45.59,6.754V2.719Zm-7.061,9.7A4.549,4.549,0,1,1,42.6,7.856,4.554,4.554,0,0,1,38.047,12.4Z" transform="translate(0)" fill="#546788"/>
  </g>
</svg>
