<svg xmlns="http://www.w3.org/2000/svg" width="19.764" height="21.019" viewBox="0 0 19.764 21.019">
  <g id="medicine_1_" data-name="medicine (1)" transform="translate(0.15 0.15)">
    <g id="Group_12934" data-name="Group 12934" transform="translate(4.016 5.06)">
      <g id="Group_12933" data-name="Group 12933">
        <path id="Path_45204" data-name="Path 45204" d="M116.1,125.994a.4.4,0,1,0,.4.4A.4.4,0,0,0,116.1,125.994Z" transform="translate(-115.696 -125.994)" fill="#1d4999" stroke="#1d4999" stroke-width="0.3"/>
      </g>
    </g>
    <g id="Group_12936" data-name="Group 12936" transform="translate(4.417 10.963)">
      <g id="Group_12935" data-name="Group 12935" transform="translate(0)">
        <path id="Path_45205" data-name="Path 45205" d="M129.31,274.592h-1.2v-1.2a.4.4,0,1,0-.8,0v1.2h-1.2a.4.4,0,1,0,0,.8h1.2v1.2a.4.4,0,1,0,.8,0v-1.2h1.2a.4.4,0,1,0,0-.8Z" transform="translate(-125.696 -272.986)" fill="#1d4999" stroke="#1d4999" stroke-width="0.3"/>
      </g>
    </g>
    <g id="Group_12938" data-name="Group 12938">
      <g id="Group_12937" data-name="Group 12937">
        <path id="Path_45206" data-name="Path 45206" d="M34.57,12.93a3.211,3.211,0,0,0-4.388-1.176l-1.631.942V9.209a2.022,2.022,0,0,0-.4-1.2L26.142,5.327V4.187a1.207,1.207,0,0,0,.8-1.136V1.2A1.206,1.206,0,0,0,25.74,0H18.512a1.206,1.206,0,0,0-1.2,1.2V3.052a1.207,1.207,0,0,0,.8,1.136v1.14L16.1,8a2.022,2.022,0,0,0-.4,1.2v7.777a2.01,2.01,0,0,0,2.008,2.008h6.454a3.209,3.209,0,0,0,4.364,1.136l4.869-2.811A3.215,3.215,0,0,0,34.57,12.93ZM18.11,1.2a.4.4,0,0,1,.4-.4H25.74a.4.4,0,0,1,.4.4V3.052a.4.4,0,0,1-.4.4H18.512a.4.4,0,0,1-.4-.4V1.2ZM16.745,8.486,18.833,5.7a.4.4,0,0,0,.08-.241v-1.2h6.425v.8H21.724a.4.4,0,0,0,0,.8h3.815l1.967,2.623a1.215,1.215,0,0,1,.233.589H16.513A1.215,1.215,0,0,1,16.745,8.486Zm.964,9.7a1.206,1.206,0,0,1-1.2-1.2v-.406h7.3a3.218,3.218,0,0,0,.019,1.61h-6.11Zm6.406-2.409H16.5v-5.9H27.748V13.16l-2.434,1.406A3.189,3.189,0,0,0,24.115,15.781Zm4.01,3.653a2.409,2.409,0,1,1-2.409-4.173L27.895,14,30.3,18.175Zm4.869-2.811L31,17.774,28.59,13.6l1.993-1.151a2.409,2.409,0,1,1,2.409,4.173Z" transform="translate(-15.701)" fill="#1d4999" stroke="#1d4999" stroke-width="0.3"/>
      </g>
    </g>
  </g>
</svg>
