<svg id="medical-records" xmlns="http://www.w3.org/2000/svg" width="12.568" height="12.568" viewBox="0 0 12.568 12.568">
  <path id="Path_44502" data-name="Path 44502" d="M75.262,3.454l.507,1.014h4.314V3.191H77.75a.86.86,0,0,1-.859-.859V0H71.368A.368.368,0,0,0,71,.368V2.5h2.725A1.709,1.709,0,0,1,75.262,3.454Z" transform="translate(-69.257)" fill="#f99614"/>
  <path id="Path_44503" data-name="Path 44503" d="M341.123,11.026h2.116L341,8.787V10.9A.123.123,0,0,0,341.123,11.026Z" transform="translate(-332.629 -8.571)" fill="#f99614"/>
  <path id="Path_44504" data-name="Path 44504" d="M192.964,297.859V297h-.736v.859a.368.368,0,0,1-.368.368H191v.736h.859a.368.368,0,0,1,.368.368v.859h.736v-.859a.368.368,0,0,1,.368-.368h.859v-.736h-.859A.368.368,0,0,1,192.964,297.859Z" transform="translate(-186.311 -289.71)" fill="#f99614"/>
  <path id="Path_44505" data-name="Path 44505" d="M11.586,133.964h-5.3a.368.368,0,0,1-.329-.2l-.609-1.217A.982.982,0,0,0,4.468,132H.982a.982.982,0,0,0-.982.982v7.364a.982.982,0,0,0,.982.982h10.6a.982.982,0,0,0,.982-.982v-5.4A.982.982,0,0,0,11.586,133.964Zm-2.97,4.418a.368.368,0,0,1-.368.368H7.389v.859a.368.368,0,0,1-.368.368H5.548a.368.368,0,0,1-.368-.368v-.859H4.32a.368.368,0,0,1-.368-.368v-1.473a.368.368,0,0,1,.368-.368h.859v-.859a.368.368,0,0,1,.368-.368H7.02a.368.368,0,0,1,.368.368v.859h.859a.368.368,0,0,1,.368.368Z" transform="translate(0 -128.76)" fill="#f99614"/>
  <path id="Path_44506" data-name="Path 44506" d="M471,123.812v1.428h.025a1.709,1.709,0,0,1,.982.309v-.432A1.352,1.352,0,0,0,471,123.812Z" transform="translate(-459.438 -120.773)" fill="#f99614"/>
</svg>
