<svg xmlns="http://www.w3.org/2000/svg" width="14.19" height="15.802" viewBox="0 0 14.19 15.802">
  <g id="medical-assistance" transform="translate(0)">
    <path id="Path_44866" data-name="Path 44866" d="M21.166,54.961a3.536,3.536,0,0,1,.257,1.262,1.142,1.142,0,1,1-.526,0,2.169,2.169,0,0,0-.616-1.6,4.707,4.707,0,0,0-.751-.132c-.019.854-2.842,2.962-2.842,2.962s-2.824-2.108-2.843-2.962a4.634,4.634,0,0,0-.831.153,1.906,1.906,0,0,0-.538,1.536.578.578,0,0,1,.236.262,2.182,2.182,0,0,1,.96,1.08.374.374,0,0,1,.017.282,3.4,3.4,0,0,1,.239,1.178c0,.5,0,.979-.549,1.1a.331.331,0,0,1-.212.077H12.8a.334.334,0,0,1-.333-.333v-.013a.335.335,0,0,1,.333-.32h.367a.333.333,0,0,1,.11.019.1.1,0,0,0,.029-.011,1.937,1.937,0,0,0,.041-.518,2.8,2.8,0,0,0-.2-.972.375.375,0,0,1-.153-.164c-.222-.465-.525-.766-.77-.766s-.569.325-.79.808a.38.38,0,0,1-.178.181,2.72,2.72,0,0,0-.179.912,1.81,1.81,0,0,0,.046.52.186.186,0,0,0,.04.014.334.334,0,0,1,.119-.022h.367a.334.334,0,0,1,.332.3l0,.021a.337.337,0,0,1-.333.347h-.367a.331.331,0,0,1-.2-.069.634.634,0,0,1-.451-.283,1.56,1.56,0,0,1-.134-.827,3.35,3.35,0,0,1,.231-1.157.369.369,0,0,1,.022-.25,2.779,2.779,0,0,1,.572-.842,1.582,1.582,0,0,1,.384-.277.583.583,0,0,1,.246-.277,3.365,3.365,0,0,1,.211-1.205,4.683,4.683,0,0,0-2.568,4.179c0,2.333,1.7,2.447,3.936,2.447h6.318c2.231,0,3.937-.114,3.937-2.447a4.683,4.683,0,0,0-2.616-4.2Z" transform="translate(-9.593 -45.809)" fill="#546788"/>
    <path id="Path_44867" data-name="Path 44867" d="M31.674,14.3c2.157,0,3.905-3.243,3.905-5.4a3.9,3.9,0,0,0-7.81,0C27.769,11.061,29.517,14.3,31.674,14.3Z" transform="translate(-24.578 -5)" fill="#546788"/>
    <ellipse id="Ellipse_687" data-name="Ellipse 687" cx="0.527" cy="0.527" rx="0.527" ry="0.527" transform="translate(11.049 11)" fill="#546788"/>
  </g>
</svg>
