<svg xmlns="http://www.w3.org/2000/svg" width="16.947" height="16.1" viewBox="0 0 16.947 16.1">
  <path id="Path_50123" data-name="Path 50123" d="M16.4,3H4.542A2.5,2.5,0,0,0,2,5.542v12.71a.89.89,0,0,0,.424.763.764.764,0,0,0,.424.085.635.635,0,0,0,.424-.085l3.813-2.373a1.075,1.075,0,0,1,.508-.085H16.4a2.5,2.5,0,0,0,2.542-2.542V5.542A2.5,2.5,0,0,0,16.4,3ZM7.084,10.626a.847.847,0,1,1,0-1.695.847.847,0,0,1,0,1.695Zm3.389,0a.847.847,0,1,1,.847-.847A.8.8,0,0,1,10.473,10.626Zm3.389,0a.847.847,0,1,1,.847-.847A.8.8,0,0,1,13.863,10.626Z" transform="translate(-2 -3)" fill="#546788"/>
</svg>
