<svg xmlns="http://www.w3.org/2000/svg" width="10.099" height="15.576" viewBox="0 0 10.099 15.576">
  <g id="microphone" transform="translate(-0.501 -0.001)">
    <path id="Path_44811" data-name="Path 44811" d="M10.6,260.281a.465.465,0,0,0-.929,0,4.12,4.12,0,1,1-8.241,0,.465.465,0,0,0-.929,0,5.056,5.056,0,0,0,4.585,5.028v1.25H3.362a.465.465,0,1,0,0,.929H7.739a.465.465,0,0,0,0-.929H6.015v-1.25a5.056,5.056,0,0,0,4.585-5.028Zm0,0" transform="translate(0 -251.912)" fill="#fff"/>
    <path id="Path_44812" data-name="Path 44812" d="M71.689,11.343a2.978,2.978,0,0,0,2.974-2.974V2.975a2.974,2.974,0,0,0-5.948,0V8.369A2.978,2.978,0,0,0,71.689,11.343Zm0,0" transform="translate(-66.138 0)" fill="#fff"/>
  </g>
</svg>
