<svg xmlns="http://www.w3.org/2000/svg" width="17.034" height="16.035" viewBox="0 0 17.034 16.035">
  <g id="Group_18917" data-name="Group 18917" transform="translate(0 0)">
    <circle id="Ellipse_1006" data-name="Ellipse 1006" cx="1.433" cy="1.433" r="1.433" transform="translate(7.164 0)" fill="#546788"/>
    <path id="Path_50098" data-name="Path 50098" d="M8.971,99.668v2.255H3.338v-.971L1.523,98.029A3.446,3.446,0,0,1,1,96.211V91.177A1.216,1.216,0,0,1,2.253,90a1.216,1.216,0,0,1,1.252,1.177v2.049a2.272,2.272,0,0,0-.417.26,2.067,2.067,0,0,0-.8,1.438,2.02,2.02,0,0,0,.519,1.546l2.075,2.323a.518.518,0,0,0,.643.1l.009-.005a.449.449,0,0,0,.116-.694L3.578,95.864a1.128,1.128,0,0,1,.155-1.658,1.309,1.309,0,0,1,1.764.145l2.5,2.8A3.787,3.787,0,0,1,8.971,99.668Z" transform="translate(-1 -88.598)" fill="#546788"/>
    <path id="Path_50099" data-name="Path 50099" d="M279.791,98.029l-1.815,2.922v.971h-5.633V99.668a3.787,3.787,0,0,1,.977-2.521l2.5-2.8a1.309,1.309,0,0,1,1.764-.145,1.128,1.128,0,0,1,.155,1.658l-2.076,2.324a.449.449,0,0,0,.116.694l.009.005a.518.518,0,0,0,.643-.1l2.075-2.323a2.02,2.02,0,0,0,.519-1.546,2.066,2.066,0,0,0-.8-1.438,2.27,2.27,0,0,0-.417-.26V91.177a1.255,1.255,0,0,1,2.505,0v5.035A3.446,3.446,0,0,1,279.791,98.029Z" transform="translate(-263.28 -88.598)" fill="#546788"/>
    <path id="Path_50100" data-name="Path 50100" d="M41.5,0H47.68V2H41.5a.5.5,0,0,1-.5-.5V.5A.5.5,0,0,1,41.5,0Z" transform="translate(-39.664 14.031)" fill="#546788"/>
    <path id="Path_50101" data-name="Path 50101" d="M277.68.5v1a.5.5,0,0,1-.5.5H271V0h6.179A.5.5,0,0,1,277.68.5Z" transform="translate(-261.982 14.031)" fill="#546788"/>
    <path id="Path_50102" data-name="Path 50102" d="M165.069,379.768a2.161,2.161,0,0,1-2.993,0A2.571,2.571,0,0,0,161,381.859v1.083a.406.406,0,0,0,.406.406h4.333a.406.406,0,0,0,.406-.406v-1.083A2.571,2.571,0,0,0,165.069,379.768Z" transform="translate(-155.021 -376.85)" fill="#546788"/>
  </g>
</svg>
