<svg id="Mobile_No." data-name="Mobile No." xmlns="http://www.w3.org/2000/svg" width="8.125" height="15.569" viewBox="0 0 8.125 15.569">
  <path id="Path_45362" data-name="Path 45362" d="M8.124,2.164V.931A.932.932,0,0,0,7.193,0H.931A.932.932,0,0,0,0,.931V2.164Zm0,0" fill="#546788"/>
  <path id="Path_45363" data-name="Path 45363" d="M0,440.848v1.233a.932.932,0,0,0,.931.931H7.194a.932.932,0,0,0,.931-.931v-1.233Zm4.793,1.519H3.332a.461.461,0,0,1,0-.921H4.793a.461.461,0,0,1,0,.921Zm0,0" transform="translate(0 -427.442)" fill="#546788"/>
  <path id="Path_45364" data-name="Path 45364" d="M0,101.449H8.125v9.4H0Zm0,0" transform="translate(0 -98.364)" fill="#546788"/>
</svg>
