<svg xmlns="http://www.w3.org/2000/svg" width="15.997" height="16" viewBox="0 0 15.997 16">
  <path id="file-edit" d="M15.343,5.014V2.506L18,5.159H15.488A.144.144,0,0,1,15.343,5.014Zm2.909,1.018V16.65a1.6,1.6,0,0,1-1.6,1.6H7.925a2.183,2.183,0,0,1-2.182-2.182v-2.9l2.042,2.042a1.448,1.448,0,0,0,1.03.425h1.647a1.455,1.455,0,0,0,1.455-1.455V12.531a1.439,1.439,0,0,0-.431-1.03L5.743,5.758V3.85a1.6,1.6,0,0,1,1.6-1.6H14.47V5.014a1.023,1.023,0,0,0,1.018,1.018Zm-1.164,8.291a.44.44,0,0,0-.436-.436H13.743a.436.436,0,0,0,0,.873h2.909A.44.44,0,0,0,17.088,14.323ZM7.337,8.586,5.062,6.311a1.166,1.166,0,0,0-1.647,0l-.82.82a1.166,1.166,0,0,0,0,1.647l2.2,2.2.873.873,2.74,2.74a.576.576,0,0,0,.413.169h1.647a.584.584,0,0,0,.582-.582V12.531a.6.6,0,0,0-.169-.413L8.222,9.459l-.873-.873Z" transform="translate(-2.255 -2.25)" fill="#1d4999"/>
</svg>
