<svg xmlns="http://www.w3.org/2000/svg" width="13.318" height="12.842" viewBox="0 0 13.318 12.842">
  <g id="moisturizing" transform="translate(0)">
    <path id="Path_44709" data-name="Path 44709" d="M4.156,30.709a5.5,5.5,0,0,0,1.746.242c.9,0,1.526-.476,2.378-.476.821,0,1.465.476,2.378.476s1.551-.476,2.378-.476c.849,0,1.472.476,2.378.476a5.5,5.5,0,0,0,1.746-.242A.238.238,0,0,0,17,30.262a5.148,5.148,0,0,1-1.584.214c-.811,0-1.425-.476-2.378-.476s-1.539.476-2.378.476S9.226,30,8.281,30s-1.569.476-2.378.476a5.17,5.17,0,0,1-1.584-.213.238.238,0,0,0-.163.447Z" transform="translate(-4 -24.055)" fill="#fff"/>
    <path id="Path_44710" data-name="Path 44710" d="M15.416,35.951a5.5,5.5,0,0,0,1.746-.242A.238.238,0,0,0,17,35.262a5.148,5.148,0,0,1-1.584.214c-.811,0-1.425-.476-2.378-.476s-1.539.476-2.378.476S9.226,35,8.281,35s-1.569.476-2.378.476a5.17,5.17,0,0,1-1.584-.213.238.238,0,0,0-.163.447,5.517,5.517,0,0,0,1.746.242c.9,0,1.526-.476,2.378-.476.821,0,1.465.476,2.378.476s1.551-.476,2.378-.476c.849,0,1.472.476,2.378.476Z" transform="translate(-4 -27.866)" fill="#fff"/>
    <path id="Path_44711" data-name="Path 44711" d="M25.9,10.708a1.913,1.913,0,0,0,1.9-1.919,1.944,1.944,0,0,0-.226-.908L26.113,5.127a.238.238,0,0,0-.42,0L24.225,7.882A1.947,1.947,0,0,0,24,8.789,1.913,1.913,0,0,0,25.9,10.708ZM24.645,8.1,25.9,5.744,27.159,8.1a1.467,1.467,0,0,1,.17.685,1.427,1.427,0,1,1-2.854,0A1.466,1.466,0,0,1,24.645,8.1Z" transform="translate(-19.244 -5.001)" fill="#fff"/>
    <path id="Path_44712" data-name="Path 44712" d="M28.951,21.141a.238.238,0,0,0,0-.476.485.485,0,0,1-.476-.493.238.238,0,0,0-.476,0A.961.961,0,0,0,28.951,21.141Z" transform="translate(-22.292 -16.385)" fill="#fff"/>
    <path id="Path_44713" data-name="Path 44713" d="M29.161,42.155a.247.247,0,0,0-.419,0l-.634,1.178a1.162,1.162,0,0,0-.108.49.957.957,0,1,0,1.9,0,1.181,1.181,0,0,0-.113-.5Zm-.209,2.253a.54.54,0,0,1-.476-.586.684.684,0,0,1,.057-.277l.419-.777.413.764a.694.694,0,0,1,.063.29A.54.54,0,0,1,28.951,44.409Z" transform="translate(-22.292 -33.231)" fill="#fff"/>
    <path id="Path_44714" data-name="Path 44714" d="M53.789,43.321l-.629-1.165a.247.247,0,0,0-.419,0l-.635,1.178a1.167,1.167,0,0,0-.107.49.957.957,0,1,0,1.9,0A1.181,1.181,0,0,0,53.789,43.321Zm-.838,1.088a.54.54,0,0,1-.476-.586.687.687,0,0,1,.057-.277l.419-.777.412.764a.694.694,0,0,1,.063.29A.54.54,0,0,1,52.951,44.409Z" transform="translate(-40.584 -33.232)" fill="#fff"/>
    <path id="Path_44715" data-name="Path 44715" d="M5.161,42.125a.238.238,0,0,0-.419,0L4.107,43.3A1.172,1.172,0,0,0,4,43.793a1.012,1.012,0,0,0,.951,1.061A1.012,1.012,0,0,0,5.9,43.793a1.176,1.176,0,0,0-.114-.5Zm-.209,2.253a.54.54,0,0,1-.476-.586.692.692,0,0,1,.056-.277l.42-.777.413.765a.691.691,0,0,1,.063.289A.54.54,0,0,1,4.951,44.379Z" transform="translate(-4 -33.201)" fill="#fff"/>
    <path id="Path_44716" data-name="Path 44716" d="M41.161,47.155a.247.247,0,0,0-.419,0l-.635,1.178a1.166,1.166,0,0,0-.107.49.957.957,0,1,0,1.9,0,1.181,1.181,0,0,0-.113-.5Zm-.209,2.253a.54.54,0,0,1-.476-.586.688.688,0,0,1,.057-.277l.419-.777.412.764a.694.694,0,0,1,.063.29A.54.54,0,0,1,40.951,49.409Z" transform="translate(-31.438 -37.042)" fill="#fff"/>
    <path id="Path_44717" data-name="Path 44717" d="M17.161,47.125a.238.238,0,0,0-.419,0L16.107,48.3a1.172,1.172,0,0,0-.107.489.957.957,0,1,0,1.9,0,1.176,1.176,0,0,0-.114-.5Zm-.209,2.253a.54.54,0,0,1-.476-.586.692.692,0,0,1,.056-.277l.42-.777.413.765a.691.691,0,0,1,.063.289A.54.54,0,0,1,16.951,49.379Z" transform="translate(-13.146 -37.012)" fill="#fff"/>
    <path id="Path_44718" data-name="Path 44718" d="M48.01,13.741a.239.239,0,0,0,.337,0l.951-.951a.238.238,0,0,0-.336-.336L48.416,13V10.243a.238.238,0,0,0-.476,0V13l-.545-.545a.238.238,0,0,0-.336.336Z" transform="translate(-36.763 -8.817)" fill="#fff"/>
    <path id="Path_44719" data-name="Path 44719" d="M8.01,13.741a.238.238,0,0,0,.337,0L9.3,12.79a.238.238,0,0,0-.336-.336L8.416,13V10.244a.238.238,0,0,0-.476,0V13L7.4,12.454a.238.238,0,0,0-.336.336Z" transform="translate(-6.276 -8.817)" fill="#fff"/>
  </g>
</svg>
