<svg id="nurse_1_" data-name="nurse (1)" xmlns="http://www.w3.org/2000/svg" width="13.059" height="13.059" viewBox="0 0 13.059 13.059">
  <g id="Group_25" data-name="Group 25" transform="translate(3.523 1.837)">
    <g id="Group_24" data-name="Group 24">
      <path id="Path_44525" data-name="Path 44525" d="M138.962,73.688l-.286-1.427a.272.272,0,1,0-.533.107l.286,1.427a.272.272,0,0,0,.267.219.258.258,0,0,0,.053-.005A.272.272,0,0,0,138.962,73.688Z" transform="translate(-138.138 -72.042)" fill="#00e3e5"/>
    </g>
  </g>
  <g id="Group_27" data-name="Group 27" transform="translate(8.705 1.837)">
    <g id="Group_26" data-name="Group 26">
      <path id="Path_44526" data-name="Path 44526" d="M341.927,72.041a.27.27,0,0,0-.32.213l-.285,1.427a.272.272,0,0,0,.213.32.263.263,0,0,0,.054.005.272.272,0,0,0,.267-.219l.285-1.427A.272.272,0,0,0,341.927,72.041Z" transform="translate(-341.316 -72.035)" fill="#00e3e5"/>
    </g>
  </g>
  <g id="Group_29" data-name="Group 29" transform="translate(2.721 4.837)">
    <g id="Group_28" data-name="Group 28">
      <path id="Path_44527" data-name="Path 44527" d="M114.178,189.849a.272.272,0,0,0-.516.171,1.649,1.649,0,0,1,.078.517c0,.528-.193.823-.289.8a.272.272,0,0,0-.408.165c-.38,1.536-1.412,2.568-2.568,2.568s-2.187-1.032-2.568-2.568a.275.275,0,0,0-.17-.181.293.293,0,0,0-.255.028c-.067,0-.272-.289-.272-.816a1.672,1.672,0,0,1,.077-.518.272.272,0,0,0-.516-.171,2.224,2.224,0,0,0-.105.689c0,.758.335,1.334.784,1.36a3.042,3.042,0,0,0,6.049,0c.449-.026.784-.6.784-1.36A2.2,2.2,0,0,0,114.178,189.849Z" transform="translate(-106.666 -189.662)" fill="#00e3e5"/>
    </g>
  </g>
  <g id="Group_31" data-name="Group 31" transform="translate(4.897 5.441)">
    <g id="Group_30" data-name="Group 30">
      <path id="Path_44528" data-name="Path 44528" d="M192.816,213.333h-.544a.272.272,0,1,0,0,.544h.544a.272.272,0,1,0,0-.544Z" transform="translate(-192 -213.333)" fill="#00e3e5"/>
    </g>
  </g>
  <g id="Group_33" data-name="Group 33" transform="translate(7.073 5.441)">
    <g id="Group_32" data-name="Group 32">
      <path id="Path_44529" data-name="Path 44529" d="M278.149,213.333h-.544a.272.272,0,0,0,0,.544h.544a.272.272,0,0,0,0-.544Z" transform="translate(-277.333 -213.333)" fill="#00e3e5"/>
    </g>
  </g>
  <g id="Group_35" data-name="Group 35" transform="translate(1.632 4.081)">
    <g id="Group_34" data-name="Group 34">
      <path id="Path_44530" data-name="Path 44530" d="M67.2,164.461l-1.578-2.1v-2.086a.272.272,0,0,0-.544,0,6.856,6.856,0,0,1-1.009,3.344.272.272,0,0,0,0,.385c.6.6,2.649.866,2.88.894l.033,0a.272.272,0,0,0,.218-.435Z" transform="translate(-63.994 -159.999)" fill="#00e3e5"/>
    </g>
  </g>
  <g id="Group_37" data-name="Group 37" transform="translate(8.162 4.081)">
    <g id="Group_36" data-name="Group 36">
      <path id="Path_44531" data-name="Path 44531" d="M323.19,163.615a6.856,6.856,0,0,1-1.009-3.344.272.272,0,1,0-.544,0v2.086l-1.578,2.1a.272.272,0,0,0,.218.435l.033,0c.231-.028,2.279-.292,2.88-.894A.273.273,0,0,0,323.19,163.615Z" transform="translate(-320.005 -159.999)" fill="#00e3e5"/>
    </g>
  </g>
  <g id="Group_39" data-name="Group 39" transform="translate(3.265)">
    <g id="Group_38" data-name="Group 38">
      <path id="Path_44532" data-name="Path 44532" d="M134.365.565a8.768,8.768,0,0,0-6.192,0,.272.272,0,0,0-.163.305l.544,2.721a.272.272,0,0,0,.267.218h4.9a.272.272,0,0,0,.267-.219l.544-2.721A.271.271,0,0,0,134.365.565Zm-2.552,1.612h-.272v.272a.272.272,0,1,1-.544,0V2.176h-.272a.272.272,0,1,1,0-.544H131V1.36a.272.272,0,0,1,.544,0v.272h.272a.272.272,0,0,1,0,.544Z" transform="translate(-128.004)" fill="#00e3e5"/>
    </g>
  </g>
  <g id="Group_41" data-name="Group 41" transform="translate(6.783 2.732)">
    <g id="Group_40" data-name="Group 40">
      <path id="Path_44533" data-name="Path 44533" d="M269.129,107.115l-.193.965a.817.817,0,0,1-.8.656h-2.195a6.382,6.382,0,0,0,3.192,1.029.272.272,0,0,0,.266-.214,3.729,3.729,0,0,0,.1-.815A3.783,3.783,0,0,0,269.129,107.115Z" transform="translate(-265.941 -107.115)" fill="#00e3e5"/>
    </g>
  </g>
  <g id="Group_43" data-name="Group 43" transform="translate(2.721 2.732)">
    <g id="Group_42" data-name="Group 42">
      <path id="Path_44534" data-name="Path 44534" d="M108.027,108.736a.818.818,0,0,1-.8-.656l-.193-.965a3.783,3.783,0,0,0-.367,1.621,3.731,3.731,0,0,0,.1.815.271.271,0,0,0,.366.194,4.467,4.467,0,0,0,1.465-1.009Z" transform="translate(-106.667 -107.115)" fill="#00e3e5"/>
    </g>
  </g>
  <g id="Group_45" data-name="Group 45" transform="translate(0 9.499)">
    <g id="Group_44" data-name="Group 44">
      <path id="Path_44535" data-name="Path 44535" d="M10.684,372.538l-.219-.076a.272.272,0,0,0-.357.306l.217,1.187a.81.81,0,0,1-.132.611.824.824,0,0,1-.525.339l-2.993.544a.817.817,0,0,1-.146.013.828.828,0,0,1-.146-.013L3.39,374.9a.821.821,0,0,1-.525-.338.812.812,0,0,1-.132-.611l.217-1.187a.272.272,0,0,0-.357-.306l-.218.076A3.355,3.355,0,0,0,0,375.734a.272.272,0,0,0,.272.272H12.787a.272.272,0,0,0,.272-.272A3.357,3.357,0,0,0,10.684,372.538Z" transform="translate(0 -372.447)" fill="#00e3e5"/>
    </g>
  </g>
  <g id="Group_47" data-name="Group 47" transform="translate(3.265 9.088)">
    <g id="Group_46" data-name="Group 46">
      <path id="Path_44536" data-name="Path 44536" d="M134.521,358.358l-.327-1.793a.272.272,0,0,0-.434-.166l-2.5,1.936-2.5-1.936a.272.272,0,0,0-.434.166L128,358.358a.272.272,0,0,0,.219.317l2.993.544a.271.271,0,0,0,.1,0l2.993-.544a.272.272,0,0,0,.219-.317Z" transform="translate(-127.996 -356.341)" fill="#00e3e5"/>
    </g>
  </g>
</svg>
