<svg xmlns="http://www.w3.org/2000/svg" width="14.879" height="14.821" viewBox="0 0 14.879 14.821">
  <g id="nutrient" transform="translate(0 -0.999)">
    <path id="Path_45074" data-name="Path 45074" d="M.436,252.871a.436.436,0,0,0-.436.436v2.325a.436.436,0,0,0,.436.436H1.1v-1.154a.436.436,0,1,1,.872,0v1.154h1.1v-1.735a.436.436,0,1,1,.872,0v1.735h1.1v-1.154a.436.436,0,1,1,.872,0v1.154H7v-1.735a.436.436,0,1,1,.872,0v1.735h1.1v-1.154a.436.436,0,1,1,.872,0v1.154h1.1v-1.735a.436.436,0,1,1,.872,0v1.735h1.1v-1.154a.436.436,0,1,1,.872,0v1.073a1.6,1.6,0,0,0,1.1-1.518v-1.833a1.732,1.732,0,0,1-.872.235Z" transform="translate(0 -244.324)" fill="#546788"/>
    <path id="Path_45075" data-name="Path 45075" d="M53.217,403.913a1.8,1.8,0,0,0,1.453-.789,1.8,1.8,0,0,0,1.453.789c1.44,0,2.8-1.192,3.675-3.205H49.542C50.417,402.721,51.777,403.913,53.217,403.913Z" transform="translate(-48.102 -388.093)" fill="#546788"/>
    <path id="Path_45076" data-name="Path 45076" d="M446.724,171h-1.056a6.9,6.9,0,0,1,.383,1.634l.013.109h.66a.872.872,0,0,0,0-1.744Z" transform="translate(-432.717 -165.06)" fill="#546788"/>
    <path id="Path_45077" data-name="Path 45077" d="M171.173,1.784a2.484,2.484,0,0,1,.967,1.661,4,4,0,0,1,.457.255,4.006,4.006,0,0,1,.422-.239A3.36,3.36,0,0,0,171.7,1.087a.436.436,0,1,0-.523.7Z" transform="translate(-166.03 0)" fill="#546788"/>
    <path id="Path_45078" data-name="Path 45078" d="M246.488,12.78a3.284,3.284,0,0,0,.422-1.472A.29.29,0,0,0,246.6,11a2.918,2.918,0,0,0-1.845.714,2.622,2.622,0,0,0-.663,1.407,4.326,4.326,0,0,1,1.8-.379A4.787,4.787,0,0,1,246.488,12.78Z" transform="translate(-237.001 -9.71)" fill="#546788"/>
    <path id="Path_45079" data-name="Path 45079" d="M33.777,102.2a3.239,3.239,0,0,0-2.6-1.2,3.32,3.32,0,0,0-2.072.685.415.415,0,0,1-.506,0A3.32,3.32,0,0,0,26.53,101a3.239,3.239,0,0,0-2.6,1.2,4.882,4.882,0,0,0-.978,2.573h11.8A4.883,4.883,0,0,0,33.777,102.2Z" transform="translate(-22.287 -97.094)" fill="#546788"/>
  </g>
</svg>
