<svg id="g2835" xmlns="http://www.w3.org/2000/svg" xmlns:xlink="http://www.w3.org/1999/xlink" width="19" height="19" viewBox="0 0 19 19">
  <defs>
    <clipPath id="clip-path">
      <path id="path2841" d="M0-682.665H19v19H0Z" transform="translate(0 682.665)" fill="none"/>
    </clipPath>
  </defs>
  <g id="g2837">
    <g id="g2839" clip-path="url(#clip-path)">
      <g id="g2845" transform="translate(1.225 1.153)">
        <path id="path2847" d="M0-237.431v-5.464a1.338,1.338,0,0,1,1.334-1.334H3.422m4.925,15.453H1.334A1.338,1.338,0,0,1,0-230.11v-4.357m9.28-9.762h2.089a1.338,1.338,0,0,1,1.334,1.334v6.5" transform="translate(0 244.229)" fill="none" stroke="#6185c7" stroke-linecap="round" stroke-linejoin="round" stroke-width="1"/>
      </g>
      <g id="g2849" transform="translate(3.276 10.435)">
        <path id="path2851" d="M-1.908-55.333A2.054,2.054,0,0,1,.559-56.862a2.054,2.054,0,0,1,1.529,2.468A2.051,2.051,0,0,1-.378-52.865,2.053,2.053,0,0,1-1.908-55.333Z" transform="translate(1.963 56.917)" fill="none" stroke="#6185c7" stroke-linecap="round" stroke-linejoin="round" stroke-width="1"/>
      </g>
      <g id="g2853" transform="translate(3.613 4.77)">
        <path id="path2855" d="M0,0H8.422" fill="none" stroke="#6185c7" stroke-linecap="round" stroke-linejoin="round" stroke-width="1"/>
      </g>
      <g id="g2857" transform="translate(3.613 6.707)">
        <path id="path2859" d="M0,0H6.793" fill="none" stroke="#6185c7" stroke-linecap="round" stroke-linejoin="round" stroke-width="1"/>
      </g>
      <g id="g2861" transform="translate(4.598 11.948)">
        <path id="path2863" d="M0-21.861l.483.453.981-1.079" transform="translate(0 22.487)" fill="none" stroke="#6185c7" stroke-linecap="round" stroke-linejoin="round" stroke-width="1"/>
      </g>
      <g id="g2865" transform="translate(4.647 0.371)">
        <path id="path2867" d="M-10.761,0H-5.52a.309.309,0,0,1,.308.308v1.01a.309.309,0,0,1-.308.308h-5.241a.309.309,0,0,1-.308-.308V.308A.309.309,0,0,1-10.761,0Z" transform="translate(11.069)" fill="none" stroke="#6185c7" stroke-linecap="round" stroke-linejoin="round" stroke-width="1"/>
      </g>
      <g id="g2869" transform="translate(3.613 8.643)">
        <path id="path2871" d="M0,0H5.737" fill="none" stroke="#6185c7" stroke-linecap="round" stroke-linejoin="round" stroke-width="1"/>
      </g>
      <g id="g2873" transform="translate(9.083 10.455)">
        <path id="path2875" d="M-151.781-9.082c-5.633-1.971-5.585,7.913-1.037,7.913h2.075c4.549,0,4.6-9.885-1.037-7.913Z" transform="translate(156.127 9.342)" fill="none" stroke="#6185c7" stroke-linecap="round" stroke-linejoin="round" stroke-width="1"/>
      </g>
      <g id="g2877" transform="translate(11.449 8.908)">
        <path id="path2879" d="M-69.157-63.146h0a1.725,1.725,0,0,0-1.98-1.8,2.031,2.031,0,0,0,.88,1.558" transform="translate(71.137 64.954)" fill="none" stroke="#6185c7" stroke-linecap="round" stroke-linejoin="round" stroke-width="1"/>
      </g>
      <g id="g2881" transform="translate(13.429 7.935)">
        <path id="path2883" d="M-.028-97.136A2.65,2.65,0,0,1,3.02-99.91a3,3,0,0,1-1.583,2.516" transform="translate(0.029 99.916)" fill="none" stroke="#6185c7" stroke-linecap="round" stroke-linejoin="round" stroke-width="1"/>
      </g>
      <g id="g2885" transform="translate(1.225 9.425)">
        <path id="path2887" d="M0-.257V-.264" transform="translate(0 0.264)" fill="none" stroke="#6185c7" stroke-linecap="round" stroke-linejoin="round" stroke-width="1"/>
      </g>
    </g>
  </g>
</svg>
