<svg xmlns="http://www.w3.org/2000/svg" width="26.383" height="22.513" viewBox="0 0 26.383 22.513">
  <g id="hospital" transform="translate(0.001)">
    <g id="Group_12672" data-name="Group 12672" transform="translate(17.401 0)">
      <path id="Path_45024" data-name="Path 45024" d="M243.022,3.674l.038.027c.258.185.5.377.73.572,1.673,1.426,2.552,3.056,2.172,4.064a1.457,1.457,0,0,0,.163-.187c.749-1.032.018-2.879-1.64-4.411.053-.05.107-.1.161-.16a5.444,5.444,0,0,0,1.4-3.472L244.541,0a3.927,3.927,0,0,1-.989,2.537,2.776,2.776,0,0,1-.279.256c-2.13-1.4-4.413-1.656-5.244-.547a2.184,2.184,0,0,1,.917-.176A7.7,7.7,0,0,1,243.022,3.674Z" transform="translate(-237.44 0)" fill="#929292"/>
      <path id="Path_45025" data-name="Path 45025" d="M233.151,34.606c2.194,1.578,4.545,2.069,5.3,1.118.01-.012.02-.024.029-.036.642-.893-.261-2.667-2.042-4.174q-.257-.218-.538-.427l-.14-.1c-2.03-1.46-4.195-1.99-5.1-1.308a1.048,1.048,0,0,0-.223.225C229.711,30.9,230.929,33.008,233.151,34.606Zm1.693-.016c-.2.276-.855.142-1.467-.3s-.948-1.02-.75-1.3.855-.142,1.467.3S235.043,34.314,234.844,34.59Zm2.184-.7c.612.44.948,1.02.75,1.3s-.855.142-1.467-.3-.948-1.02-.749-1.3S236.417,33.45,237.029,33.89ZM234.063,31c.2-.275.855-.142,1.467.3s.947,1.02.749,1.3-.855.142-1.467-.3-.948-1.02-.75-1.3Zm-2.934-.6c.2-.275.855-.142,1.467.3s.948,1.02.75,1.3-.855.142-1.467-.3S230.931,30.68,231.129,30.4Z" transform="translate(-230.224 -27.161)" fill="#929292"/>
    </g>
    <g id="Group_12673" data-name="Group 12673" transform="translate(3.672 3.947)">
      <path id="Path_45026" data-name="Path 45026" d="M153.455,242.114h-.29l-.122,1.121h.412Z" transform="translate(-145.148 -227.76)" fill="#929292"/>
      <path id="Path_45027" data-name="Path 45027" d="M152.282,287.113h-1.82a.934.934,0,0,0,1.82,0Z" transform="translate(-142.762 -269.358)" fill="#929292"/>
      <path id="Path_45028" data-name="Path 45028" d="M157.709,213.553a1.4,1.4,0,0,1-.228-.4c-.078-.01-.159-.018-.238-.026l-.046.427h.513Z" transform="translate(-148.987 -200.963)" fill="#929292"/>
      <path id="Path_45029" data-name="Path 45029" d="M142.033,116.183a.744.744,0,0,1,.584,0c.135.057.268.109.4.157q.225.048.472.077.189.022.393.034c.152.009.311.014.477.014.465,0,.926-.034,1.365-.076l.031,0-.027-.246v-.38l-.03.027-.007.006a.756.756,0,0,1-.987-1.144c.188-.164.357-.327.507-.485a3.921,3.921,0,0,0,.515-.656l0-.006v-1.331a1.271,1.271,0,0,1,.243.273.754.754,0,0,1,.126.419h0a1.424,1.424,0,0,1-.242.722q-.055.092-.127.193a4.582,4.582,0,0,1-.4.486c-.148.156-.32.323-.522.5a.6.6,0,1,0,.8.911l.072-.065.058-.052a6.113,6.113,0,0,0,1.164-1.351,2.617,2.617,0,0,0,.414-1.343h0a1.975,1.975,0,0,0-.334-1.1,2.865,2.865,0,0,0-1-.888,3.469,3.469,0,0,0-.585-.263l-.047-.013a.582.582,0,0,0-.2-.034h-.178a1.842,1.842,0,0,1-1.281.514,1.865,1.865,0,0,1-.421-.049,1.84,1.84,0,0,1-.859-.465h-.181a.582.582,0,0,0-.2.035l-.047.013a3.583,3.583,0,0,0-.918.474,2.635,2.635,0,0,0-.667.677,1.978,1.978,0,0,0-.334,1.1,2.619,2.619,0,0,0,.414,1.344,6.11,6.11,0,0,0,1.164,1.351l.058.052.072.065a.6.6,0,0,0,.8-.911c-.2-.176-.374-.342-.522-.5a4.583,4.583,0,0,1-.4-.485q-.072-.1-.127-.194a1.422,1.422,0,0,1-.242-.721h0a.76.76,0,0,1,.134-.432,1.25,1.25,0,0,1,.235-.26V113.5l0,0a3.94,3.94,0,0,0,.515.656c.149.158.319.321.507.485a.756.756,0,0,1,.229.777l.652.481.258.19a.149.149,0,0,1,.047.059.15.15,0,0,1-.015.153l-.045.061a.151.151,0,0,1-.211.032l-.081-.06-.8-.589a.753.753,0,0,1-1.022.04l-.008-.006-.03-.027v.378h0Q141.849,116.157,142.033,116.183Z" transform="translate(-133.147 -106.154)" fill="#929292"/>
      <path id="Path_45030" data-name="Path 45030" d="M216.495,243.235h.487l-.122-1.121h-.365Z" transform="translate(-203.804 -227.76)" fill="#929292"/>
      <path id="Path_45031" data-name="Path 45031" d="M202.449,287.832a.934.934,0,0,0,.809-.719h-1.82A.934.934,0,0,0,202.449,287.832Z" transform="translate(-189.884 -269.358)" fill="#929292"/>
      <ellipse id="Ellipse_705" data-name="Ellipse 705" cx="1.7" cy="1.7" rx="1.7" ry="1.7" transform="translate(15.454 9.376) rotate(-7.992)" fill="#929292"/>
      <path id="Path_45032" data-name="Path 45032" d="M76.366,187.764h0a15.617,15.617,0,0,1,3.888-.518,11.922,11.922,0,0,1,1.193.058c.12.012.232.025.336.039a1.258,1.258,0,0,0,.318.54h5.845a1.578,1.578,0,0,0,.643-1.45c-.1-.657-.974-1.02-1.743-.871-.314.033-.67.076-1.046.113l-.089.009a12.2,12.2,0,0,1-1.784.059l-.048,0,.049.012a8.6,8.6,0,0,0,1.485.238c.15.011.292.017.423.019h.142a5.62,5.62,0,0,0,1.007-.076.756.756,0,0,1,.308,1.48A6.958,6.958,0,0,1,86,187.52h-.023a9.948,9.948,0,0,1-1.877-.184c-.243-.047-.5-.106-.757-.177a10.242,10.242,0,0,1-1.287-.445.757.757,0,0,1-.2-1.267l-.188-.021-.016,0a13.8,13.8,0,0,0-1.4-.069,17.5,17.5,0,0,0-4.359.578.945.945,0,1,0,.471,1.83Z" transform="translate(-73.175 -175.292)" fill="#929292"/>
      <path id="Path_45033" data-name="Path 45033" d="M163.732,186.487q-.242-.073-.492-.164c-.137-.05-.274-.1-.414-.162a.606.606,0,0,0-.793.321c0,.008-.006.016-.009.024a.6.6,0,0,0,.33.768,10.133,10.133,0,0,0,1.244.433c.249.069.49.126.724.172a9.774,9.774,0,0,0,1.895.19h.006a6.771,6.771,0,0,0,1.278-.1.6.6,0,0,0-.247-1.184h0a5.8,5.8,0,0,1-1.037.079h-.125a8.545,8.545,0,0,1-1.276-.118c-.2-.034-.413-.077-.631-.13Q163.963,186.556,163.732,186.487Z" transform="translate(-153.415 -175.992)" fill="#929292"/>
      <path id="Path_45034" data-name="Path 45034" d="M60.126,225.642h3.489c0-.011,0-.021,0-.031a1.145,1.145,0,1,1,2.289,0c0,.011,0,.021,0,.031h.886a.378.378,0,0,0,.378-.378v-1.222a.378.378,0,0,0-.378-.378h-5.65V222.24h8.08a.378.378,0,0,0,.378-.378v-.706a.378.378,0,0,0-.378-.378H48.974a.378.378,0,0,0-.378.378v.706a.378.378,0,0,0,.378.378h8.08v1.424H51.4a.378.378,0,0,0-.378.378v1.222a.378.378,0,0,0,.378.378h.886c0-.011,0-.021,0-.032a1.145,1.145,0,0,1,2.289,0c0,.011,0,.021,0,.032h5.55Z" transform="translate(-48.596 -208.038)" fill="#929292"/>
      <path id="Path_45035" data-name="Path 45035" d="M101.428,272.546a.993.993,0,1,0-1.987,0c0,.011,0,.021,0,.031a.992.992,0,0,0,1.984,0C101.427,272.566,101.428,272.556,101.428,272.546Z" transform="translate(-95.598 -254.973)" fill="#929292"/>
      <path id="Path_45036" data-name="Path 45036" d="M251.248,272.546a.993.993,0,1,0-1.987,0c0,.011,0,.021,0,.031a.992.992,0,0,0,1.984,0C251.247,272.566,251.248,272.556,251.248,272.546Z" transform="translate(-234.093 -254.973)" fill="#929292"/>
      <path id="Path_45037" data-name="Path 45037" d="M197.548,103.38l.047.151a1.714,1.714,0,0,0,.229-.151,1.694,1.694,0,0,0,.477-.587,4.776,4.776,0,0,1-.808.406Z" transform="translate(-186.237 -98.97)" fill="#929292"/>
      <path id="Path_45038" data-name="Path 45038" d="M166.521,88.332l.024-.076a.131.131,0,0,1,.157-.084,2.089,2.089,0,0,0,.987,0,.131.131,0,0,1,.157.084l.023.076c.111-.044.266-.111.435-.2a3.617,3.617,0,0,0,.517-.318c.011-.037.022-.073.03-.111a1.693,1.693,0,0,0-.017-.839,7.473,7.473,0,0,1-1.639.39,7.472,7.472,0,0,1-1.639-.39c-.006.022-.012.045-.018.068a1.692,1.692,0,0,0,.03.882,3.611,3.611,0,0,0,.517.318C166.255,88.221,166.41,88.287,166.521,88.332Z" transform="translate(-156.658 -84.247)" fill="#929292"/>
      <path id="Path_45039" data-name="Path 45039" d="M168.558,103.38l.056-.181a4.77,4.77,0,0,1-.808-.406,1.706,1.706,0,0,0,.476.587,1.685,1.685,0,0,0,.229.151Z" transform="translate(-158.795 -98.97)" fill="#929292"/>
      <path id="Path_45040" data-name="Path 45040" d="M166.218,54.7a7.439,7.439,0,0,0,1.592.383A7.443,7.443,0,0,0,169.4,54.7l.058-.02s0-.093-.01-.24c-.028-.5-.13-1.644-.473-1.894a2.277,2.277,0,0,0-2.335,0c-.342.248-.443,1.382-.472,1.888-.009.15-.011.245-.011.245Z" transform="translate(-157.273 -52.221)" fill="#929292"/>
    </g>
    <g id="Group_12674" data-name="Group 12674" transform="translate(-0.001 4.191)">
      <path id="Path_45041" data-name="Path 45041" d="M75.066,159.043h3.483v-.454H75.138A.755.755,0,0,1,75.066,159.043Z" transform="translate(-69.392 -150.792)" fill="#929292"/>
      <path id="Path_45042" data-name="Path 45042" d="M27.41,99.385a1.7,1.7,0,0,0,2.268.739Z" transform="translate(-25.338 -96.063)" fill="#929292"/>
      <path id="Path_45043" data-name="Path 45043" d="M38.878,78.77c-.168.075-.329.147-.482.212l2.186.8a1.7,1.7,0,0,0-.019-1.607l-.026,0a6.591,6.591,0,0,0-1.659.59Z" transform="translate(-35.494 -76.458)" fill="#929292"/>
      <path id="Path_45044" data-name="Path 45044" d="M27.158,91.084l.256-.553-1.454-.517a2.3,2.3,0,0,1-.753.2l-.031,0a1.7,1.7,0,0,0,.087.326l1.872.6C27.136,91.132,27.155,91.09,27.158,91.084Z" transform="translate(-23.272 -87.401)" fill="#929292"/>
      <path id="Path_45045" data-name="Path 45045" d="M1.059,120.269a7.85,7.85,0,0,1,.388,2.632,15.035,15.035,0,0,1-.423,3.393.945.945,0,1,0,1.841.427h0a16.909,16.909,0,0,0,.472-3.82,9.225,9.225,0,0,0-.61-3.556c0-.024,0-.049,0-.075a6.908,6.908,0,0,1,.087-1.655,2.294,2.294,0,0,1-.292-.2,2.934,2.934,0,0,1-.824-1.088,4.492,4.492,0,0,1-.38-1.431v-.02a.756.756,0,0,1,.7-.805l.052,0a.758.758,0,0,1,.754.7c0,.007,0,.015,0,.027,0,.029.008.071.017.124a3.24,3.24,0,0,0,.1.43,2.281,2.281,0,0,0,.242.549c.043-.17.084-.333.121-.485.251-.742.01-1.654-.627-1.845a1.73,1.73,0,0,0-2.019,1.2,8.352,8.352,0,0,0-.623,4.173,1.423,1.423,0,0,0,1.023,1.318Z" transform="translate(0.001 -109.13)" fill="#929292"/>
      <path id="Path_45046" data-name="Path 45046" d="M20.623,123.5c-.009-.057-.015-.1-.018-.131s0-.025,0-.031v0a.6.6,0,1,0-1.207.081h0a4.338,4.338,0,0,0,.368,1.4,2.821,2.821,0,0,0,.782,1.033,2.135,2.135,0,0,0,.223.158,2.369,2.369,0,0,0,1.248.345h.014a3.561,3.561,0,0,0,1.081-.183.606.606,0,0,0,.41-.689.625.625,0,0,0-.017-.071.6.6,0,0,0-.76-.392,2.359,2.359,0,0,1-.714.126,1.11,1.11,0,0,1-.73-.238,1.264,1.264,0,0,1-.237-.252,2.342,2.342,0,0,1-.337-.7,3.418,3.418,0,0,1-.1-.45Z" transform="translate(-17.928 -117.686)" fill="#929292"/>
      <path id="Path_45047" data-name="Path 45047" d="M21.761,57.72a.815.815,0,0,0,.081.316.191.191,0,0,0,.139.068,1.445,1.445,0,0,0,.575-.124c.071-.026.145-.055.222-.086a12.155,12.155,0,0,1,2.3-.875l.048-.006c.4-.034-.091-.972-.83-1.35a1.9,1.9,0,0,0-2.224.3,2.652,2.652,0,0,0-.326,1.593c0,.058.009.113.015.164Z" transform="translate(-20.096 -55.441)" fill="#929292"/>
      <path id="Path_45048" data-name="Path 45048" d="M90.3,143.609H92a.151.151,0,0,0,.151-.151v-.718a.151.151,0,0,0-.151-.151H90.3a.151.151,0,0,0-.151.151v.718A.151.151,0,0,0,90.3,143.609Z" transform="translate(-83.334 -136.002)" fill="#929292"/>
    </g>
  </g>
</svg>
