<svg xmlns="http://www.w3.org/2000/svg" width="16.172" height="16.173" viewBox="0 0 16.172 16.173">
  <g id="organism" transform="translate(-2 -2)">
    <path id="Path_48477" data-name="Path 48477" d="M16.577,14.44a3.631,3.631,0,0,0-3.627,3.627,1,1,0,0,0,2,0,1.63,1.63,0,0,1,1.627-1.627,1,1,0,1,0,0-2Zm-2.734,3.7a.5.5,0,1,1,.5-.5A.5.5,0,0,1,13.843,18.136Zm1.007-1.589a.5.5,0,1,1,.5-.5A.5.5,0,0,1,14.85,16.547Zm1.679-.5a.5.5,0,1,1,.5-.5A.5.5,0,0,1,16.529,16.043Z" transform="translate(-7.175 -8.151)" fill="#546788"/>
    <path id="Path_48478" data-name="Path 48478" d="M18.693,10.662a5.675,5.675,0,1,0,0,8.023A5.635,5.635,0,0,0,18.693,10.662Zm-.865.559a.672.672,0,1,1-.672.672A.671.671,0,0,1,17.827,11.22Zm-3.3,7.74a.345.345,0,0,1-.314.2.381.381,0,0,1-.148-.031c-.414-.193-.428-.652-.434-.955a1.089,1.089,0,0,0-.041-.352,1.471,1.471,0,0,0-.29.2.961.961,0,0,1-1.014.279c-.417-.193-.428-.652-.434-.955a1.125,1.125,0,0,0-.041-.355.342.342,0,0,1-.165-.455.351.351,0,0,1,.462-.165c.417.193.428.652.434.955a1.125,1.125,0,0,0,.041.355,1.376,1.376,0,0,0,.29-.2.963.963,0,0,1,1.014-.279c.417.193.428.652.434.955a1.089,1.089,0,0,0,.041.352A.342.342,0,0,1,14.528,18.96Zm-.076-3.334a.672.672,0,1,1,.672-.672A.671.671,0,0,1,14.452,15.626ZM14,13.565a.939.939,0,0,0-.938.938,1.689,1.689,0,0,1-3.379,0A4.323,4.323,0,0,1,14,10.186a1.689,1.689,0,0,1,0,3.379Zm4.7.952a1.089,1.089,0,0,0-.352.041,1.371,1.371,0,0,0,.2.286.961.961,0,0,1,.279,1.014c-.193.414-.652.428-.955.434a1.089,1.089,0,0,0-.352.041,1.471,1.471,0,0,0,.2.29.961.961,0,0,1,.279,1.014c-.193.417-.652.428-.955.434a1.125,1.125,0,0,0-.355.041.34.34,0,0,1-.31.2.381.381,0,0,1-.148-.031.348.348,0,0,1-.165-.462c.193-.417.652-.428.955-.434a1.125,1.125,0,0,0,.355-.041,1.376,1.376,0,0,0-.2-.29.961.961,0,0,1-.279-1.014c.193-.417.652-.428.955-.434a1.089,1.089,0,0,0,.352-.041,1.371,1.371,0,0,0-.2-.286.961.961,0,0,1-.279-1.014c.193-.417.652-.428.955-.434a1.089,1.089,0,0,0,.352-.041.342.342,0,0,1,.455-.165.349.349,0,0,1,.165.462C19.455,14.5,19,14.509,18.693,14.516Z" transform="translate(-4.595 -4.587)" fill="#546788"/>
    <path id="Path_48479" data-name="Path 48479" d="M15.8,4.369a8.086,8.086,0,1,0,0,11.436A8.086,8.086,0,0,0,15.8,4.369Zm-5.72,12.081a6.361,6.361,0,1,1,4.5-1.862A6.33,6.33,0,0,1,10.085,16.449Z" transform="translate(0)" fill="#546788"/>
  </g>
</svg>
