<svg id="Page-1" xmlns="http://www.w3.org/2000/svg" width="16.452" height="16.173" viewBox="0 0 16.452 16.173">
  <g id="_019---Priorities" data-name="019---Priorities">
    <path id="Shape" d="M29.481,1.952H27.25V.558A.558.558,0,0,0,26.692,0H20.558A.558.558,0,0,0,20,.558V3.9a.558.558,0,0,0,.558.558h6.135A.558.558,0,0,0,27.25,3.9V2.51h2.231a.837.837,0,0,1,.837.837v9.759a.837.837,0,0,1-.837.837H27.923l.639-.639a.279.279,0,0,0-.394-.394l-.918.918V12.269a.558.558,0,0,0-.558-.558H20.558a.558.558,0,0,0-.558.558v3.346a.558.558,0,0,0,.558.558h6.135a.558.558,0,0,0,.558-.558v-1l.918.918a.279.279,0,0,0,.394-.394l-.639-.639h1.558a1.4,1.4,0,0,0,1.394-1.394V3.346A1.4,1.4,0,0,0,29.481,1.952ZM21.115.837H22.51a.279.279,0,1,1,0,.558H21.115a.279.279,0,0,1,0-.558ZM24.74,3.625H21.115a.279.279,0,0,1,0-.558H24.74a.279.279,0,0,1,0,.558ZM26.135,2.51H21.115a.279.279,0,0,1,0-.558h5.019a.279.279,0,1,1,0,.558ZM21.115,12.548H22.51a.279.279,0,1,1,0,.558H21.115a.279.279,0,0,1,0-.558Zm3.625,2.788H21.115a.279.279,0,1,1,0-.558H24.74a.279.279,0,1,1,0,.558Zm1.394-1.115H21.115a.279.279,0,1,1,0-.558h5.019a.279.279,0,1,1,0,.558Z" transform="translate(-14.423 0)" fill="#546788"/>
    <path id="Shape-2" data-name="Shape" d="M3.625,0H.837A.837.837,0,0,0,0,.837V3.625a.837.837,0,0,0,.837.837H3.625a.837.837,0,0,0,.837-.837V.837A.837.837,0,0,0,3.625,0ZM2.788,3.625H1.673a.279.279,0,0,1,0-.558h.279V1.788L1.87,1.87a.279.279,0,0,1-.394-.394L2.034.918a.279.279,0,0,1,.476.2V3.067h.279a.279.279,0,1,1,0,.558Z" fill="#546788"/>
    <path id="Shape-3" data-name="Shape" d="M3.625,21H.837A.837.837,0,0,0,0,21.837v2.788a.837.837,0,0,0,.837.837H3.625a.837.837,0,0,0,.837-.837V21.837A.837.837,0,0,0,3.625,21Zm-.837,3.067a.279.279,0,0,1,0,.558H1.673a.279.279,0,0,1-.179-.493c.393-.328,1.015-1.013,1.015-1.459a.279.279,0,1,0-.558,0,.279.279,0,0,1-.558,0,.837.837,0,0,1,1.673,0,2.361,2.361,0,0,1-.708,1.394Z" transform="translate(0 -15.144)" fill="#546788"/>
    <path id="Shape-4" data-name="Shape" d="M20.558,25.461h6.135a.558.558,0,0,0,.558-.558V21.558A.558.558,0,0,0,26.692,21H20.558a.558.558,0,0,0-.558.558V24.9A.558.558,0,0,0,20.558,25.461Zm.558-3.625H22.51a.279.279,0,1,1,0,.558H21.115a.279.279,0,1,1,0-.558Zm0,1.115h5.019a.279.279,0,1,1,0,.558H21.115a.279.279,0,0,1,0-.558Zm0,1.115H24.74a.279.279,0,0,1,0,.558H21.115a.279.279,0,0,1,0-.558Z" transform="translate(-14.423 -15.144)" fill="#546788"/>
    <path id="Shape-5" data-name="Shape" d="M3.625,42H.837A.837.837,0,0,0,0,42.837v2.788a.837.837,0,0,0,.837.837H3.625a.837.837,0,0,0,.837-.837V42.837A.837.837,0,0,0,3.625,42Zm-.558,2.788a.837.837,0,1,1-1.673,0,.279.279,0,0,1,.558,0,.279.279,0,1,0,.279-.279.279.279,0,1,1,0-.558.279.279,0,1,0-.279-.279.279.279,0,1,1-.558,0,.837.837,0,1,1,1.459.558.833.833,0,0,1,.214.558Z" transform="translate(0 -30.289)" fill="#546788"/>
  </g>
</svg>
