<svg id="Layer_x0020_1" xmlns="http://www.w3.org/2000/svg" width="14" height="18.667" viewBox="0 0 14 18.667">
  <path id="Path_44512" data-name="Path 44512" d="M77.745,46.609H64.255A.249.249,0,0,1,64,46.354v-17.1A.249.249,0,0,1,64.255,29h2.37v.62a1.418,1.418,0,0,0,1.458,1.458h5.833a1.432,1.432,0,0,0,1.422-1.458V29h2.406a.249.249,0,0,1,.255.255v17.1A.249.249,0,0,1,77.745,46.609ZM75.74,44.057H66.224a.255.255,0,1,1,0-.51H75.74a.255.255,0,0,1,0,.51Zm0-1.385H66.224a.255.255,0,1,1,0-.51H75.74a.255.255,0,1,1,0,.51Zm0-1.422H66.224a.255.255,0,1,1,0-.51H75.74a.255.255,0,0,1,0,.51Zm0-1.422H66.224a.255.255,0,1,1,0-.51H75.74a.255.255,0,0,1,0,.51Zm0-1.385H66.224a.255.255,0,1,1,0-.51H75.74a.255.255,0,0,1,0,.51Zm-2.734-1.714H68.922a.249.249,0,0,1-.255-.255,1.868,1.868,0,0,1,1.9-1.9h.8a1.868,1.868,0,0,1,1.9,1.9A.249.249,0,0,1,73.005,36.729Zm-3.792-.51h3.5a1.341,1.341,0,0,0-1.349-1.13h-.8A1.341,1.341,0,0,0,69.214,36.219Zm1.75-1.932A1.385,1.385,0,0,1,69.578,32.9a1.386,1.386,0,0,1,2.771,0A1.385,1.385,0,0,1,70.964,34.286Zm0-2.224a.834.834,0,0,0-.875.839.875.875,0,1,0,1.75,0A.856.856,0,0,0,70.964,32.063Z" transform="translate(-64 -27.943)" fill="#929292" fill-rule="evenodd"/>
  <path id="Path_44513" data-name="Path 44513" d="M156.781,2.625h-5.833A.92.92,0,0,1,150,1.677V.948A.92.92,0,0,1,150.948,0h5.833a.911.911,0,0,1,.911.948v.729A.911.911,0,0,1,156.781,2.625Z" transform="translate(-146.865)" fill="#929292" fill-rule="evenodd"/>
</svg>
