<svg id="patient_2_" data-name="patient (2)" xmlns="http://www.w3.org/2000/svg" width="14.367" height="16" viewBox="0 0 14.367 16">
  <path id="Path_44850" data-name="Path 44850" d="M13.578,61.7h6.4c2.259,0,3.986-.116,3.986-2.478A4.742,4.742,0,0,0,19.655,54.5c-.019.865-2.878,3-2.878,3s-2.859-2.134-2.879-3a4.742,4.742,0,0,0-4.305,4.722c0,2.362,1.726,2.478,3.985,2.478Zm5.332-3.225a.135.135,0,0,1,.142-.127h.772v-.772a.135.135,0,0,1,.127-.142h.762a.135.135,0,0,1,.127.142v.772h.772a.135.135,0,0,1,.142.127v.762a.135.135,0,0,1-.142.127H20.84v.772a.135.135,0,0,1-.127.142h-.762a.135.135,0,0,1-.127-.142v-.772h-.772a.135.135,0,0,1-.142-.127Z" transform="translate(-9.593 -45.701)" fill="#546788"/>
  <path id="Path_44851" data-name="Path 44851" d="M31.723,14.421c2.184,0,3.954-3.284,3.954-5.467a3.954,3.954,0,0,0-7.908,0C27.769,11.137,29.539,14.421,31.723,14.421Z" transform="translate(-24.538 -5)" fill="#546788"/>
</svg>
