<svg id="_x38_47_x2C__Hospital_Website_x2C__Medical_App_x2C__Medical_Consulting" xmlns="http://www.w3.org/2000/svg" width="16.932" height="16.932" viewBox="0 0 16.932 16.932">
  <g id="Group_8252" data-name="Group 8252" transform="translate(0 0)">
    <path id="Path_44776" data-name="Path 44776" d="M90,173.342a2.306,2.306,0,0,1,1.244-.931.962.962,0,1,1,1.36,0,2.306,2.306,0,0,1,1.244.931V170H90Z" transform="translate(-88.076 -164.997)" fill="#1d4999"/>
    <path id="Path_44777" data-name="Path 44777" d="M126.154,200.577a.577.577,0,1,0-.577.577A.578.578,0,0,0,126.154,200.577Z" transform="translate(-121.729 -193.843)" fill="#1d4999"/>
    <path id="Path_44778" data-name="Path 44778" d="M210,430h3.463v.77H210Z" transform="translate(-203.458 -414.992)" fill="#1d4999"/>
    <path id="Path_44779" data-name="Path 44779" d="M166.927,460h-6.542a.385.385,0,1,0,0,.77h6.542a.385.385,0,1,0,0-.77Z" transform="translate(-155.382 -443.838)" fill="#1d4999"/>
    <path id="Path_44780" data-name="Path 44780" d="M92.9,240a1.912,1.912,0,0,0-1.885,1.539h3.77A1.912,1.912,0,0,0,92.9,240Z" transform="translate(-89.052 -232.304)" fill="#1d4999"/>
    <path id="Path_44781" data-name="Path 44781" d="M250.385,50.77a.385.385,0,1,0-.385-.385A.385.385,0,0,0,250.385,50.77Z" transform="translate(-241.919 -49.615)" fill="#1d4999"/>
    <path id="Path_44782" data-name="Path 44782" d="M40,380.462a1.079,1.079,0,0,0,1.077,1.077H55.469a1.079,1.079,0,0,0,1.077-1.077V380H40Z" transform="translate(-40 -366.916)" fill="#1d4999"/>
    <path id="Path_44783" data-name="Path 44783" d="M352.5,45a2.5,2.5,0,1,0-2.5-2.5A2.5,2.5,0,0,0,352.5,45Zm-1.318-2.3a.192.192,0,0,1,.272,0l.68.68,1.769-1.769a.192.192,0,0,1,.272.272l-1.9,1.9a.192.192,0,0,1-.272,0l-.816-.816A.192.192,0,0,1,351.183,42.7Z" transform="translate(-338.071 -40)" fill="#1d4999"/>
    <path id="Path_44784" data-name="Path 44784" d="M80.577,81.154A.577.577,0,1,0,80,80.577.578.578,0,0,0,80.577,81.154Z" transform="translate(-78.461 -78.461)" fill="#1d4999"/>
    <path id="Path_44785" data-name="Path 44785" d="M54.43,122.309A2.891,2.891,0,0,1,51.6,120H41.077A1.079,1.079,0,0,0,40,121.077v8.543H56.547v-8.238A2.878,2.878,0,0,1,54.43,122.309Zm-6.927,0h3.463a.192.192,0,1,1,0,.385H47.5a.192.192,0,1,1,0-.385Zm0,1.154h4.618a.192.192,0,1,1,0,.385H47.5a.192.192,0,1,1,0-.385Zm-1.347,2.886a.192.192,0,0,1-.184.192h-4.25a.192.192,0,0,1-.184-.192v-4.618a.192.192,0,0,1,.192-.192h4.233a.192.192,0,0,1,.192.192Zm7.119-.192H47.5a.192.192,0,1,1,0-.385h5.772a.192.192,0,1,1,0,.385Zm0-1.154H47.5a.192.192,0,0,1,0-.385h5.772a.192.192,0,0,1,0,.385Z" transform="translate(-40 -116.922)" fill="#1d4999"/>
  </g>
</svg>
