<svg id="prescription" xmlns="http://www.w3.org/2000/svg" width="20.341" height="27.121" viewBox="0 0 20.341 27.121">
  <g id="Group_8125" data-name="Group 8125" transform="translate(0)">
    <path id="Path_44498" data-name="Path 44498" d="M84.174,5.815,78.526.166a.563.563,0,0,0-.4-.166H66.26A2.263,2.263,0,0,0,64,2.26v22.6a2.263,2.263,0,0,0,2.26,2.26H82.081a2.263,2.263,0,0,0,2.26-2.26V6.215A.563.563,0,0,0,84.174,5.815ZM69.085,23.731a1.7,1.7,0,1,1,1.7-1.7A1.7,1.7,0,0,1,69.085,23.731Zm0-5.65a1.7,1.7,0,1,1,1.7-1.7A1.7,1.7,0,0,1,69.085,18.081Zm3.39-5.65h-2.26a.565.565,0,0,1-.565-.565v-1.7h-1.7a.565.565,0,0,1-.565-.565V7.345a.565.565,0,0,1,.565-.565h1.7v-1.7a.565.565,0,0,1,.565-.565h2.26a.565.565,0,0,1,.565.565v1.7h1.7a.565.565,0,0,1,.565.565v2.26a.565.565,0,0,1-.565.565h-1.7v1.7A.565.565,0,0,1,72.475,12.431Zm7.91,10.17h-6.78a.565.565,0,0,1,0-1.13h6.78a.565.565,0,0,1,0,1.13Zm0-5.65h-6.78a.565.565,0,0,1,0-1.13h6.78a.565.565,0,0,1,0,1.13Zm-.565-11.3a1.131,1.131,0,0,1-1.13-1.13V1.929L82.412,5.65Z" transform="translate(-64 0)" fill="#fff"/>
  </g>
</svg>
