<svg xmlns="http://www.w3.org/2000/svg" width="17.264" height="20.561" viewBox="0 0 17.264 20.561">
  <g id="personal-data" transform="translate(-41.05)">
    <path id="Path_45199" data-name="Path 45199" d="M53.5,8.787,49.837,12.45H53.5Z" transform="translate(-8.434 -8.434)" fill="#929292"/>
    <circle id="Ellipse_718" data-name="Ellipse 718" cx="0.602" cy="0.602" r="0.602" transform="translate(49.985 3.293)" fill="#929292"/>
    <g id="Group_12924" data-name="Group 12924" transform="translate(44.058 3.012)">
      <path id="Path_45200" data-name="Path 45200" d="M128.4,75v12.73a3.015,3.015,0,0,1-3.012,3.012H115.95a1.809,1.809,0,0,0,1.807,1.807H128.4a1.809,1.809,0,0,0,1.807-1.807V76.809A1.809,1.809,0,0,0,128.4,75Z" transform="translate(-115.95 -75.002)" fill="#929292"/>
    </g>
    <path id="Path_45201" data-name="Path 45201" d="M53.5,0H46.271V4.618a.6.6,0,0,1-.6.6H41.05V15.742a1.809,1.809,0,0,0,1.807,1.807H53.5a1.809,1.809,0,0,0,1.807-1.807V1.807A1.809,1.809,0,0,0,53.5,0ZM43.761,7.309h2.811a.6.6,0,0,1,0,1.2H43.761a.6.6,0,1,1,0-1.2ZM52.6,15.742H43.761a.6.6,0,1,1,0-1.2H52.6a.6.6,0,0,1,0,1.2Zm0-2.409H43.761a.6.6,0,1,1,0-1.2H52.6a.6.6,0,0,1,0,1.2Zm0-2.409H43.761a.6.6,0,1,1,0-1.2H52.6a.6.6,0,0,1,0,1.2Zm.6-3.012a.6.6,0,0,1-.6.6H48.58a.6.6,0,0,1-.6-.6v-.8A2.609,2.609,0,0,1,49.121,4.95a1.807,1.807,0,1,1,2.933,0A2.61,2.61,0,0,1,53.2,7.108Z" transform="translate(0)" fill="#929292"/>
    <path id="Path_45202" data-name="Path 45202" d="M244.956,142a1.407,1.407,0,0,0-1.406,1.406v.2h2.811v-.2A1.407,1.407,0,0,0,244.956,142Z" transform="translate(-194.368 -136.298)" fill="#929292"/>
  </g>
</svg>
