<svg xmlns="http://www.w3.org/2000/svg" width="21.298" height="22.873" viewBox="0 0 21.298 22.873">
  <g id="pharmacy" transform="translate(-4.997 -3)">
    <path id="Path_45970" data-name="Path 45970" d="M28.648,3H18.394A.394.394,0,0,0,18,3.394v7.887a.394.394,0,0,0,.394.394H28.648a.394.394,0,0,0,.394-.394V3.394A.394.394,0,0,0,28.648,3ZM26.282,8.127a.394.394,0,0,1-.394.394H24.7V9.7a.394.394,0,0,1-.394.394H22.732a.394.394,0,0,1-.394-.394V8.521H21.155a.394.394,0,0,1-.394-.394V6.549a.394.394,0,0,1,.394-.394h1.183V4.972a.394.394,0,0,1,.394-.394H24.31a.394.394,0,0,1,.394.394V6.155h1.183a.394.394,0,0,1,.394.394Z" transform="translate(-7.875)" fill="#929292"/>
    <path id="Path_45971" data-name="Path 45971" d="M24.705,36.825a3.281,3.281,0,0,1-2.114-.765,3.281,3.281,0,0,1-2.114.765,4.2,4.2,0,0,1-3.013-.765,3.281,3.281,0,0,1-2.114.765,4.2,4.2,0,0,1-3.013-.765,4.2,4.2,0,0,1-3.013.765A3.3,3.3,0,0,1,8,36.545V45.5a.394.394,0,0,0,.394.394h1.972V38.8a.394.394,0,0,1,.394-.394h5.127a.394.394,0,0,1,.394.394v7.1H26.535a.394.394,0,0,0,.394-.394V36.545A5.072,5.072,0,0,1,24.705,36.825Zm-.536,6.31a.394.394,0,0,1-.394.394H18.253a.394.394,0,0,1-.394-.394V38.8a.394.394,0,0,1,.394-.394h5.521a.394.394,0,0,1,.394.394Z" transform="translate(-1.819 -20.022)" fill="#929292"/>
    <path id="Path_45972" data-name="Path 45972" d="M10.125,18.45a1.183,1.183,0,0,1-.789-1.112V13H6.575a.394.394,0,0,0-.394.319L5,19.487a.54.54,0,0,0,0,.075A2.508,2.508,0,0,0,7.506,22.07h.9a2.5,2.5,0,0,0,1.719-.682Z" transform="translate(0 -6.056)" fill="#929292"/>
    <path id="Path_45973" data-name="Path 45973" d="M24.338,27H20v2.867a2.5,2.5,0,0,0,1.719.682h.9a2.5,2.5,0,0,0,1.719-.682Z" transform="translate(-9.087 -14.535)" fill="#929292"/>
    <path id="Path_45974" data-name="Path 45974" d="M37.338,27H33v2.867a2.5,2.5,0,0,0,1.719.682h.9a2.5,2.5,0,0,0,1.719-.682Z" transform="translate(-16.96 -14.535)" fill="#929292"/>
    <path id="Path_45975" data-name="Path 45975" d="M51.127,19.487l-1.183-6.168A.394.394,0,0,0,49.549,13H46.789v4.338A1.183,1.183,0,0,1,46,18.45v2.938a2.5,2.5,0,0,0,1.719.682h.9a2.508,2.508,0,0,0,2.508-2.508A.541.541,0,0,0,51.127,19.487Z" transform="translate(-24.833 -6.056)" fill="#929292"/>
  </g>
</svg>
