<svg xmlns="http://www.w3.org/2000/svg" width="14.898" height="16" viewBox="0 0 14.898 16">
  <g id="Group_18931" data-name="Group 18931" transform="translate(-4.997 -3)">
    <path id="Path_50126" data-name="Path 50126" d="M25.448,3H18.276A.276.276,0,0,0,18,3.276V8.793a.276.276,0,0,0,.276.276h7.172a.276.276,0,0,0,.276-.276V3.276A.276.276,0,0,0,25.448,3ZM23.793,6.586a.276.276,0,0,1-.276.276H22.69V7.69a.276.276,0,0,1-.276.276h-1.1a.276.276,0,0,1-.276-.276V6.862h-.828a.276.276,0,0,1-.276-.276v-1.1a.276.276,0,0,1,.276-.276h.828V4.379A.276.276,0,0,1,21.31,4.1h1.1a.276.276,0,0,1,.276.276v.828h.828a.276.276,0,0,1,.276.276Z" transform="translate(-9.416)" fill="#546788"/>
    <path id="Path_50127" data-name="Path 50127" d="M19.686,36.6a2.3,2.3,0,0,1-1.479-.535,2.3,2.3,0,0,1-1.479.535,2.939,2.939,0,0,1-2.108-.535,2.3,2.3,0,0,1-1.479.535,2.939,2.939,0,0,1-2.108-.535,2.939,2.939,0,0,1-2.108.535A2.306,2.306,0,0,1,8,36.4v6.265a.276.276,0,0,0,.276.276H9.655V37.974a.276.276,0,0,1,.276-.276h3.586a.276.276,0,0,1,.276.276V42.94h7.172a.276.276,0,0,0,.276-.276V36.4A3.548,3.548,0,0,1,19.686,36.6Zm-.375,4.414a.276.276,0,0,1-.276.276H15.172a.276.276,0,0,1-.276-.276V37.974a.276.276,0,0,1,.276-.276h3.862a.276.276,0,0,1,.276.276Z" transform="translate(-2.175 -23.94)" fill="#546788"/>
    <path id="Path_50128" data-name="Path 50128" d="M8.584,16.812a.828.828,0,0,1-.552-.778V13H6.1a.276.276,0,0,0-.276.223L5,17.538a.378.378,0,0,0,0,.052,1.754,1.754,0,0,0,1.754,1.754h.629a1.752,1.752,0,0,0,1.2-.477Z" transform="translate(0 -7.241)" fill="#546788"/>
    <path id="Path_50129" data-name="Path 50129" d="M23.034,27H20v2.006a1.752,1.752,0,0,0,1.2.477h.629a1.752,1.752,0,0,0,1.2-.477Z" transform="translate(-10.864 -17.379)" fill="#546788"/>
    <path id="Path_50130" data-name="Path 50130" d="M36.034,27H33v2.006a1.752,1.752,0,0,0,1.2.477h.629a1.752,1.752,0,0,0,1.2-.477Z" transform="translate(-20.278 -17.379)" fill="#546788"/>
    <path id="Path_50131" data-name="Path 50131" d="M49.586,17.538l-.828-4.314A.276.276,0,0,0,48.483,13H46.552v3.034a.828.828,0,0,1-.552.778v2.055a1.752,1.752,0,0,0,1.2.477h.629a1.754,1.754,0,0,0,1.754-1.754A.378.378,0,0,0,49.586,17.538Z" transform="translate(-29.692 -7.241)" fill="#546788"/>
  </g>
</svg>
