<svg xmlns="http://www.w3.org/2000/svg" width="21.67" height="19.475" viewBox="0 0 21.67 19.475">
  <path id="physical-therapy" d="M20.379,38.736a2.243,2.243,0,1,0-2.243-2.243A2.245,2.245,0,0,0,20.379,38.736Zm0-3.877a1.634,1.634,0,1,1-1.634,1.634A1.636,1.636,0,0,1,20.379,34.859Zm9.175,14.852a2.243,2.243,0,1,0-2.655,0,1.238,1.238,0,0,0-.889.992H25a1.981,1.981,0,0,0-1.427-3.356h-.334V42.234a2.74,2.74,0,0,0-4.815-1.792l-4.41,4.41a1.131,1.131,0,0,0-.177.229l-1-.576a1.131,1.131,0,0,0-1.131,1.959l4.478,2.585H11.043a1.13,1.13,0,0,0-1,1.654H9.77a.77.77,0,0,0-.77.77v1.283a.77.77,0,0,0,.77.77H29.69a.77.77,0,0,0,.77-.77V51.473s0,0,0-.005h0V50.9a1.237,1.237,0,0,0-.905-1.19Zm-2.961-1.806a1.634,1.634,0,1,1,1.634,1.634A1.636,1.636,0,0,1,26.593,47.906Zm.637,2.37h2a.628.628,0,0,1,.6.441.767.767,0,0,0-.133-.012H26.636A.627.627,0,0,1,27.23,50.275ZM20.5,40.1a2.136,2.136,0,0,1,2.133,2.133v5.114H19.489l1.69-1.023a1.648,1.648,0,0,0,.762-1.014l.289-1.078a.3.3,0,1,0-.588-.158l-.289,1.078a1.045,1.045,0,0,1-.489.651l-2.9,1.756a.523.523,0,1,1-.541-.894l2.813-1.7a.3.3,0,0,0,.136-.182l.643-2.4a.3.3,0,1,0-.588-.157l-.611,2.281-1.449.876V42.234a2.123,2.123,0,0,1,.5-1.373l.02-.02a.306.306,0,0,0,.038-.046A2.128,2.128,0,0,1,20.5,40.1Zm-3.858,6.6-.806-.465,1.923-1.923v1.442l-.651.393A1.125,1.125,0,0,0,16.641,46.7Zm-2.195-1.415,3.325-3.325a2.76,2.76,0,0,0-.014.276V43.45l-2.572,2.572a.523.523,0,0,1-.739-.739Zm-3.927,4.9a.523.523,0,0,1,.523-.523h6.281a.3.3,0,0,0,.152-.568l-5.461-3.153a.523.523,0,0,1,.523-.905l1.151.664a1.132,1.132,0,0,0,1.657.956l1.247.719a1.131,1.131,0,0,0,1.686.71l.206-.125h5.092a1.374,1.374,0,1,1,0,2.748H19.253a.523.523,0,0,1,0-1.045h4.236a.3.3,0,0,0,0-.608H19.253a1.13,1.13,0,0,0-1,1.654H11.043a.523.523,0,0,1-.523-.523Zm19.331,2.575a.161.161,0,0,1-.161.161H9.77a.161.161,0,0,1-.161-.161V51.473a.161.161,0,0,1,.161-.161H29.69a.161.161,0,0,1,.161.161Z" transform="translate(-8.9 -34.151)" fill="#6185c7" stroke="#6185c7" stroke-width="0.2"/>
</svg>
