<svg xmlns="http://www.w3.org/2000/svg" width="16.879" height="13.503" viewBox="0 0 16.879 13.503">
  <path id="Path_50136" data-name="Path 50136" d="M4.532,4A2.532,2.532,0,0,0,2,6.532v8.439A2.532,2.532,0,0,0,4.532,17.5H16.347a2.532,2.532,0,0,0,2.532-2.532V6.532A2.532,2.532,0,0,0,16.347,4ZM7.908,9.064a.844.844,0,1,1-.844-.844A.844.844,0,0,1,7.908,9.064Zm.844,0a1.688,1.688,0,0,1-1.688,1.688A2.532,2.532,0,0,1,9.6,13.283v.422a.422.422,0,0,1-.844,0v-.422a1.688,1.688,0,0,0-3.376,0v.422a.422.422,0,0,1-.844,0v-.422a2.532,2.532,0,0,1,2.531-2.532A1.688,1.688,0,1,1,8.752,9.064Zm2.954-.844a.422.422,0,0,0,0,.844h4.22a.422.422,0,1,0,0-.844Zm-.422,2.11a.422.422,0,0,1,.422-.422h2.532a.422.422,0,1,1,0,.844H11.705A.422.422,0,0,1,11.283,10.33Zm.422,1.266a.422.422,0,1,0,0,.844h1.688a.422.422,0,1,0,0-.844Z" transform="translate(-2 -4)" fill="#546788" fill-rule="evenodd"/>
</svg>
