<svg id="prescription_1_" data-name="prescription (1)" xmlns="http://www.w3.org/2000/svg" width="11.605" height="14.261" viewBox="0 0 11.605 14.261">
  <g id="Group_8133" data-name="Group 8133" transform="translate(0)">
    <path id="Path_44549" data-name="Path 44549" d="M58.717,0H48.25a.569.569,0,0,0-.569.569V13.692a.569.569,0,0,0,.569.569H55.8a.569.569,0,0,0,.4-.167l2.92-2.92a.569.569,0,0,0,.167-.4V.569A.569.569,0,0,0,58.717,0ZM53.158,10.7h-.852v.852a.569.569,0,1,1-1.138,0V10.7h-.852a.569.569,0,1,1,0-1.138h.852V8.711a.569.569,0,1,1,1.138,0v.852h.852a.569.569,0,0,1,0,1.138Zm.1-3.761H50.315a.569.569,0,1,1,0-1.138h2.941a.569.569,0,1,1,0,1.138Zm3.4-1.746H50.315a.569.569,0,1,1,0-1.138h6.337a.569.569,0,1,1,0,1.138Zm0-1.746H50.315a.569.569,0,1,1,0-1.138h6.337a.569.569,0,1,1,0,1.138Z" transform="translate(-47.681)" fill="#546788"/>
  </g>
</svg>
