<svg xmlns="http://www.w3.org/2000/svg" width="15.484" height="16" viewBox="0 0 15.484 16">
  <g id="printer" transform="translate(-8)">
    <path id="Path_44615" data-name="Path 44615" d="M68.387,1.121A1.122,1.122,0,0,0,67.266,0H57.121A1.122,1.122,0,0,0,56,1.121v2.75H68.387Z" transform="translate(-46.452)" fill="#fff"/>
    <path id="Path_44616" data-name="Path 44616" d="M22.879,152H8.6a.605.605,0,0,0-.6.6v6.016a.605.605,0,0,0,.6.6h2.234V157.25a1.639,1.639,0,0,1,1.637-1.637h6.532a1.639,1.639,0,0,1,1.637,1.637v1.976h2.234a.605.605,0,0,0,.6-.6V152.6A.605.605,0,0,0,22.879,152Zm-1.46,2.323h-.774a.516.516,0,1,1,0-1.032h.774a.516.516,0,0,1,0,1.032Zm-2.411,2.323H12.476a.605.605,0,0,0-.6.6v5.242a.605.605,0,0,0,.6.6h6.532a.605.605,0,0,0,.6-.6V157.25A.605.605,0,0,0,19.008,156.645Zm-1.718,4.9h-3.1a.516.516,0,1,1,0-1.032h3.1a.516.516,0,1,1,0,1.032Zm0-2.323h-3.1a.516.516,0,1,1,0-1.032h3.1a.516.516,0,1,1,0,1.032Z" transform="translate(0 -147.097)" fill="#fff"/>
  </g>
</svg>
