<svg xmlns="http://www.w3.org/2000/svg" width="15.44" height="17.498" viewBox="0 0 15.44 17.498">
  <g id="Page-1" transform="translate(0 0)">
    <g id="shield_filled" transform="translate(0 0)">
      <path id="performance_-speed_-indicator_-shield_-security_-protection" data-name="performance,-speed,-indicator,-shield,-security,-protection" d="M300.312,419.13l7.205-3.088a.514.514,0,0,1,.405,0l7.205,3.088a.515.515,0,0,1,.312.473v3.554a10.808,10.808,0,0,1-7.173,10.178l-.374.134a.515.515,0,0,1-.346,0l-.374-.134A10.808,10.808,0,0,1,300,423.157V419.6A.515.515,0,0,1,300.312,419.13Zm7.2,6.161a.772.772,0,1,0,.921.46l.515-1.029a.515.515,0,1,0-.921-.46Zm-2.113-.027a2.316,2.316,0,0,1,4.632,0,.515.515,0,0,0,1.029,0,3.345,3.345,0,0,0-6.69,0,.515.515,0,0,0,1.029,0Z" transform="translate(-300 -416)" fill="#546788"/>
    </g>
  </g>
</svg>
