<svg xmlns="http://www.w3.org/2000/svg" width="17.845" height="18" viewBox="0 0 17.845 18">
  <g id="Group_18932" data-name="Group 18932" transform="translate(-0.332)">
    <path id="Path_50132" data-name="Path 50132" d="M93.494,3.913A3.913,3.913,0,1,1,89.581,0,3.913,3.913,0,0,1,93.494,3.913Zm0,0" transform="translate(-82.205)" fill="#546788"/>
    <path id="Path_50133" data-name="Path 50133" d="M9.359,262.887a15.188,15.188,0,0,0,0-4.383l.633-1.1a1.962,1.962,0,0,1,1.7-.978,1.992,1.992,0,0,1,.282.02,2.059,2.059,0,0,1,.091-.186A3.692,3.692,0,0,0,10.7,256H4.05a3.722,3.722,0,0,0-3.717,3.717v2.739a.587.587,0,0,0,.587.587h8.53Zm0,0" transform="translate(0 -246.608)" fill="#546788"/>
    <path id="Path_50134" data-name="Path 50134" d="M288.566,281.612a2.847,2.847,0,0,0,.037-.367,3,3,0,0,0-.037-.367l.705-.534a.391.391,0,0,0,.1-.508l-.633-1.1a.392.392,0,0,0-.491-.165l-.811.342a2.913,2.913,0,0,0-.641-.381l-.108-.862a.392.392,0,0,0-.388-.343h-1.266a.391.391,0,0,0-.388.343l-.108.862a2.924,2.924,0,0,0-.641.381l-.811-.342a.391.391,0,0,0-.491.165l-.633,1.1a.392.392,0,0,0,.1.508l.705.534a2.847,2.847,0,0,0-.037.367,3,3,0,0,0,.037.367l-.705.534a.391.391,0,0,0-.1.508l.633,1.1a.392.392,0,0,0,.491.165l.811-.343a2.912,2.912,0,0,0,.641.381l.108.862a.39.39,0,0,0,.387.343H286.3a.391.391,0,0,0,.388-.343l.108-.862a2.92,2.92,0,0,0,.641-.381l.812.342a.391.391,0,0,0,.491-.165l.633-1.1a.392.392,0,0,0-.1-.508Zm-2.9,1.2a1.565,1.565,0,1,1,1.565-1.565A1.565,1.565,0,0,1,285.668,282.81Zm0,0" transform="translate(-271.248 -267.158)" fill="#546788"/>
  </g>
</svg>
