<svg id="Group_18938" data-name="Group 18938" xmlns="http://www.w3.org/2000/svg" width="18.499" height="18.499" viewBox="0 0 18.499 18.499">
  <path id="Path_50143" data-name="Path 50143" d="M17.15,0H15.223V2.7h.385a.578.578,0,0,1,0,1.156H13.681a.578.578,0,0,1,0-1.156h.385V0H9.827V2.7h.385a.578.578,0,1,1,0,1.156H8.286a.578.578,0,0,1,0-1.156h.385V0H4.432V2.7h.385a.578.578,0,1,1,0,1.156H2.89a.578.578,0,0,1,0-1.156h.385V0H1.349A1.35,1.35,0,0,0,0,1.349V12.525a1.35,1.35,0,0,0,1.349,1.349h15.8A1.35,1.35,0,0,0,18.5,12.525V1.349A1.35,1.35,0,0,0,17.15,0Z" fill="#546788"/>
  <path id="Path_50144" data-name="Path 50144" d="M8.5,22.39a.578.578,0,0,0,.578.578h4.239a.578.578,0,0,0,.578-.578V19.5H8.5Z" transform="translate(-1.948 -4.47)" fill="#546788"/>
</svg>
