<svg xmlns="http://www.w3.org/2000/svg" width="14.707" height="11.407" viewBox="0 0 14.707 11.407">
  <g id="pulse" transform="translate(0 454.589)">
    <path id="Path_6526" data-name="Path 6526" d="M4.237-454.572a3.522,3.522,0,0,0-2.083,1.054,3.968,3.968,0,0,0-.89,3.585c.029.126.06.253.072.279.017.043-.029.049-.508.057-.439.006-.54.017-.62.06a.406.406,0,0,0-.207.388.407.407,0,0,0,.167.365c.072.055.129.057.83.066l.75.009.115.192a4.651,4.651,0,0,0,.27.382c.083.1,1.158,1.215,2.384,2.47,2.534,2.588,2.416,2.482,2.838,2.482s.3.106,2.838-2.482c1.227-1.255,2.3-2.367,2.384-2.47a4.651,4.651,0,0,0,.27-.382l.115-.192.75-.009c.7-.009.758-.012.83-.066a.407.407,0,0,0,.167-.365.406.406,0,0,0-.207-.388c-.08-.043-.181-.055-.62-.06-.48-.009-.526-.014-.508-.057.011-.026.043-.152.072-.279a4.087,4.087,0,0,0-.086-2.2,3.474,3.474,0,0,0-2.648-2.4,4.584,4.584,0,0,0-1.373,0,3.639,3.639,0,0,0-1.8.913l-.187.175-.187-.175a3.6,3.6,0,0,0-1.778-.908A4.861,4.861,0,0,0,4.237-454.572Zm1.927,3.105c.124.075.112.052.873,1.936.35.867.649,1.6.661,1.62s.227-.2.721-.767a4.63,4.63,0,0,1,.807-.853,13.729,13.729,0,0,1,2.091-.043c1.092,0,1.982.006,1.982.014a4.918,4.918,0,0,1-.236.566l-.118.253-1.7,0h-1.7l-.7.821c-.971,1.132-1.046,1.209-1.166,1.232a.415.415,0,0,1-.373-.1,13.7,13.7,0,0,1-.758-1.749,16.4,16.4,0,0,0-.7-1.64c-.014.017-.21.316-.434.666a3.741,3.741,0,0,1-.5.7l-.095.066H1.761l-.118-.253a4.918,4.918,0,0,1-.236-.566c0-.009.692-.017,1.54-.02l1.54-.009.58-.913a7.612,7.612,0,0,1,.664-.968A.441.441,0,0,1,6.164-451.467Z" transform="translate(0 0)" fill="#7b7b7b"/>
  </g>
</svg>
