<svg xmlns="http://www.w3.org/2000/svg" width="16.536" height="13.12" viewBox="0 0 16.536 13.12">
  <path id="pulse" d="M46.542,54.974a2.036,2.036,0,0,0-1.82,1.01h-.917l-1-2.555a.815.815,0,0,0-.788-.473.8.8,0,0,0-.763.5l-1.373,4.107-1.772-8.888a.781.781,0,0,0-.768-.576.805.805,0,0,0-.819.522l-2.209,7.361H32v1.388h2.953a.8.8,0,0,0,.788-.526l1.415-4.837,1.72,8.632a.777.777,0,0,0,.755.58h.046a.8.8,0,0,0,.781-.5L42.1,56l.351.9a.812.812,0,0,0,.77.473h1.5a2.112,2.112,0,0,0,2.371.943,1.721,1.721,0,0,0,1.423-1.875A1.919,1.919,0,0,0,46.542,54.974Z" transform="translate(-32 -48.1)" fill="#fc7349"/>
</svg>
