<svg id="purchase" xmlns="http://www.w3.org/2000/svg" width="18.731" height="18.511" viewBox="0 0 18.731 18.511">
  <path id="Path_45934" data-name="Path 45934" d="M57.893,352.792a1.572,1.572,0,0,1-.571-.107l-4.439-1.723v2.893a.549.549,0,0,0,.363.516l6.571,2.367v-5.7l-.56.964A1.583,1.583,0,0,1,57.893,352.792Z" transform="translate(-50.948 -338.233)" fill="#1d4999"/>
  <path id="Path_45935" data-name="Path 45935" d="M274.247,351.57a1.583,1.583,0,0,1-1.364-.785l-.456-.786v5.522l6.587-2.372a.549.549,0,0,0,.363-.516v-2.939l-4.559,1.77A1.571,1.571,0,0,1,274.247,351.57Z" transform="translate(-262.46 -337.01)" fill="#1d4999"/>
  <path id="Path_45936" data-name="Path 45936" d="M94.978,154.3a4.829,4.829,0,0,1-.779-1.339l-1.463.527Z" transform="translate(-89.344 -147.476)" fill="#1d4999"/>
  <path id="Path_45937" data-name="Path 45937" d="M360.27,153.112l-1.467-.537a4.829,4.829,0,0,1-.784,1.353Z" transform="translate(-344.922 -147.103)" fill="#1d4999"/>
  <path id="Path_45938" data-name="Path 45938" d="M18.662,192.094l-1.821-3.178a.517.517,0,0,0-.624-.229l-6.852,2.482-6.852-2.482a.517.517,0,0,0-.624.229L.074,192.084a.534.534,0,0,0-.074.288.517.517,0,0,0,.329.461l6.428,2.5a.516.516,0,0,0,.634-.222l1.974-3.532,1.974,3.532a.516.516,0,0,0,.634.222l6.428-2.5a.517.517,0,0,0,.261-.738Z" transform="translate(0.001 -181.864)" fill="#1d4999"/>
  <path id="Path_45939" data-name="Path 45939" d="M156.82,10.534a3.766,3.766,0,1,0-3.766-3.766A3.771,3.771,0,0,0,156.82,10.534Zm-1.559-3.19a.549.549,0,0,1,.776-.776l.31.31L157.621,5.6a.549.549,0,0,1,.776.776l-1.662,1.662a.549.549,0,0,1-.776,0Z" transform="translate(-147.455 -3.001)" fill="#1d4999"/>
</svg>
