<svg id="measuring-cup" xmlns="http://www.w3.org/2000/svg" width="17.448" height="14.124" viewBox="0 0 17.448 14.124">
  <g id="Group_12991" data-name="Group 12991" transform="translate(0 0)">
    <path id="Path_45280" data-name="Path 45280" d="M3.461,48.777H2.047A2.049,2.049,0,0,0,0,50.824v5.854H1.037V50.824a1.011,1.011,0,0,1,1.01-1.01h.9V60.551a2.352,2.352,0,0,0,2.35,2.35h8.383a2.352,2.352,0,0,0,2.35-2.35v-9.2l1.423-2.57Zm1.383,3.8H7.426v1.037H4.844Zm0,3.457H7.426v1.037H4.844Zm3.6,2.766h-3.6V57.765h3.6V58.8Zm0-3.457h-3.6V54.308h3.6v1.037Zm0-3.457h-3.6V50.851h3.6v1.037Z" transform="translate(0 -48.777)" fill="#546788"/>
  </g>
</svg>
