<svg xmlns="http://www.w3.org/2000/svg" width="17.265" height="17.3" viewBox="0 0 17.265 17.3">
  <g id="Page-1" transform="translate(0 0.05)">
    <g id="_037---Waypoint-Flag" data-name="037---Waypoint-Flag" transform="translate(0 -0.05)">
      <path id="Shape" d="M4.373,25.158l.318-.089a.575.575,0,0,0,.4-.709L1.453,11.345a.719.719,0,0,0-.886-.5l-.041.011a.719.719,0,0,0-.5.886L3.664,24.759a.575.575,0,0,0,.709.4Z" transform="translate(0 -7.879)" fill="#546788"/>
      <path id="Shape-2" data-name="Shape" d="M21.723,9.133a13.78,13.78,0,0,1-3.17-2.181.283.283,0,0,1-.08-.289,40.77,40.77,0,0,0,1.046-5.416c.036-.3-.128-.393-.3-.185C15.827,5.117,9.962.321,6.47,4.006a1.189,1.189,0,0,1,.1.247L8.928,12.7c3.5-3.64,9.342,1.126,12.727-2.92.173-.209.206-.59.069-.649Z" transform="translate(-4.543 -0.95)" fill="#546788"/>
    </g>
  </g>
</svg>
