<svg id="report" xmlns="http://www.w3.org/2000/svg" width="12.417" height="16.932" viewBox="0 0 12.417 16.932">
  <path id="Path_44773" data-name="Path 44773" d="M16.75,7.758h1.933A2.4,2.4,0,0,0,16.75,5.826Z" transform="translate(-10.118 -3.102)" fill="#546788"/>
  <path id="Path_44774" data-name="Path 44774" d="M14.149,10.58A2.4,2.4,0,0,0,16.5,8.6H14.149a.423.423,0,0,1-.423-.423V5.826a2.4,2.4,0,0,0,.423,4.755Z" transform="translate(-7.94 -3.102)" fill="#546788"/>
  <path id="Path_44775" data-name="Path 44775" d="M16.288,1H6.129A1.129,1.129,0,0,0,5,2.129V16.8a1.129,1.129,0,0,0,1.129,1.129H16.288A1.129,1.129,0,0,0,17.417,16.8V2.129A1.129,1.129,0,0,0,16.288,1ZM11.208,2.834A3.245,3.245,0,1,1,7.963,6.079,3.249,3.249,0,0,1,11.208,2.834ZM15.159,16.1h-7.9a.423.423,0,1,1,0-.847h7.9a.423.423,0,0,1,0,.847Zm0-2.258h-7.9a.423.423,0,1,1,0-.847h7.9a.423.423,0,0,1,0,.847Zm0-2.258h-7.9a.423.423,0,1,1,0-.847h7.9a.423.423,0,0,1,0,.847Z" transform="translate(-5 -1)" fill="#546788"/>
</svg>
