<svg xmlns="http://www.w3.org/2000/svg" width="15.524" height="16" viewBox="0 0 15.524 16">
  <g id="refer" transform="translate(-7.613)">
    <path id="Path_44815" data-name="Path 44815" d="M111.108,5.564a2.027,2.027,0,0,0,2.042-2.027V2.027a2.027,2.027,0,0,0-4.053,0V3.512A2.043,2.043,0,0,0,111.108,5.564Z" transform="translate(-98.313)" fill="#1d4999"/>
    <path id="Path_44816" data-name="Path 44816" d="M276.222,122.125a2.438,2.438,0,0,0,2.457-2.438v-1.817a2.438,2.438,0,1,0-4.877,0v1.786A2.458,2.458,0,0,0,276.222,122.125Z" transform="translate(-257.871 -111.824)" fill="#1d4999"/>
    <path id="Path_44817" data-name="Path 44817" d="M10.343,273.639v-2.048h.738l-1.734-2.557-1.734,2.557h.738v2.048a2.988,2.988,0,0,0,2.988,2.988h2.656v-1.992H11.338A1,1,0,0,1,10.343,273.639Z" transform="translate(0 -260.627)" fill="#1d4999"/>
    <path id="Path_44818" data-name="Path 44818" d="M70.395,188.246a4.9,4.9,0,0,1,.9-.519,3.4,3.4,0,0,1-.609-1.95V183.99c0-.074,0-.147.007-.219q-.1-.046-.21-.085a2.952,2.952,0,0,1-1.98.76h-.022a2.925,2.925,0,0,1-1.952-.761,3,3,0,0,0-1.428,1.089l2.353,3.471h2.937Z" transform="translate(-55.694 -177.945)" fill="#1d4999"/>
    <path id="Path_44819" data-name="Path 44819" d="M212.113,336.538a3.351,3.351,0,0,1-2.085.72H210a3.326,3.326,0,0,1-2.051-.721,3.993,3.993,0,0,0-2.5,2.554h1.136v2.929H214.8V340.3A3.985,3.985,0,0,0,212.113,336.538Z" transform="translate(-191.658 -326.02)" fill="#1d4999"/>
  </g>
</svg>
