<svg xmlns="http://www.w3.org/2000/svg" width="18.589" height="26.724" viewBox="0 0 18.589 26.724">
  <path id="form" d="M39.906,5.294V4.146a.377.377,0,0,1,.376-.376h7.075a.377.377,0,0,1,.376.376V5.294a.377.377,0,0,1-.376.376H40.282A.377.377,0,0,1,39.906,5.294ZM45.99,2a2.178,2.178,0,0,0-4.341,0Zm7.124,4.516V24.348a2.379,2.379,0,0,1-2.376,2.376H36.9a2.379,2.379,0,0,1-2.376-2.376V6.519A2.379,2.379,0,0,1,36.9,4.143h1.238s0,0,0,0V5.294a2.146,2.146,0,0,0,2.143,2.143h7.075A2.146,2.146,0,0,0,49.5,5.294V4.146s0,0,0,0h1.238A2.379,2.379,0,0,1,53.114,6.519ZM40.847,16.9a.884.884,0,0,0-1.216.289L38.8,18.544l-.431-.34a.884.884,0,0,0-1.093,1.388l1.21.953a.884.884,0,0,0,1.3-.231l1.356-2.2A.884.884,0,0,0,40.847,16.9Zm0-6.362a.884.884,0,0,0-1.216.289L38.8,12.182l-.431-.34a.884.884,0,0,0-1.093,1.388l1.21.953a.884.884,0,0,0,1.3-.231l1.356-2.2A.884.884,0,0,0,40.847,10.538ZM50,19.852a.883.883,0,0,0-.884-.884H43.341a.884.884,0,1,0,0,1.767h5.773A.883.883,0,0,0,50,19.852Zm0-6.362a.883.883,0,0,0-.884-.884H43.341a.884.884,0,0,0,0,1.767h5.773A.883.883,0,0,0,50,13.49Z" transform="translate(-34.525)" fill="#1d4999"/>
</svg>
