<svg id="Group_18914" data-name="Group 18914" xmlns="http://www.w3.org/2000/svg" width="16.732" height="16.731" viewBox="0 0 16.732 16.731">
  <path id="Path_50070" data-name="Path 50070" d="M280.172,274.43a3.99,3.99,0,0,1-5.092,5.106,4.041,4.041,0,0,0,4.058,2.646,4,4,0,0,0,1.034-7.752Z" transform="translate(-266.091 -265.462)" fill="#546788"/>
  <path id="Path_50071" data-name="Path 50071" d="M293.9,2.133h-2.456L290.214,0l-1.228,2.133H286.53l1.228,2.133L286.53,6.4h2.456l1.228,2.133L291.442,6.4H293.9L292.67,4.266Z" transform="translate(-277.167)" fill="#546788"/>
  <path id="Path_50072" data-name="Path 50072" d="M5.45,279.66H2.321v2.227H.1v3.138H2.321v2.227H5.45v-2.227H7.672v-3.138H5.45Z" transform="translate(-0.097 -270.521)" fill="#546788"/>
  <path id="Path_50073" data-name="Path 50073" d="M261.57,256.759l.452-.863.452.863.868-.455-.51-.973h.891v-.98h-1.212v-.891h-.98v.891H260.32v.98h.891l-.51.973Z" transform="translate(-251.813 -245.177)" fill="#546788"/>
  <path id="Path_50074" data-name="Path 50074" d="M1.167,6.513A2.578,2.578,0,0,1,1.1,5.928,2.662,2.662,0,0,1,3.785,3.3,1.681,1.681,0,0,0,5.491,1.646a1.613,1.613,0,0,0-.2-.775A1.734,1.734,0,0,0,3.691,0,3.78,3.78,0,0,0,1.167,6.513Z" transform="translate(0 0)" fill="#546788"/>
  <path id="Path_50075" data-name="Path 50075" d="M65.346,35.7a1.681,1.681,0,0,0-1.706,1.651,1.726,1.726,0,0,0,1.931,1.639,3.781,3.781,0,0,0,2.394-6.505,2.691,2.691,0,0,1,.067.584A2.662,2.662,0,0,1,65.346,35.7Z" transform="translate(-61.56 -31.426)" fill="#546788"/>
</svg>
