<svg id="patient-therapy" xmlns="http://www.w3.org/2000/svg" width="14.562" height="22.027" viewBox="0 0 14.562 22.027">
  <path id="Path_44531" data-name="Path 44531" d="M26.4,10.34H25.11v1.168a1.6,1.6,0,0,1-1.6,1.6H18.033a1.6,1.6,0,0,1-1.6-1.6V10.34H15.146A1.659,1.659,0,0,0,13.49,12V28.217a1.659,1.659,0,0,0,1.656,1.656H26.4a1.659,1.659,0,0,0,1.656-1.656V12A1.659,1.659,0,0,0,26.4,10.34Zm-7.721,5.534h1.7v-1.7a.393.393,0,0,1,.787,0v1.7h1.7a.393.393,0,1,1,0,.787h-1.7v1.7a.393.393,0,0,1-.787,0v-1.7h-1.7a.393.393,0,1,1,0-.787ZM17.4,20.461h8.422a.393.393,0,1,1,0,.787H17.4a.393.393,0,1,1,0-.787ZM15.716,23.2a.419.419,0,1,1-.3.123A.421.421,0,0,1,15.716,23.2ZM15.3,20.854a.421.421,0,1,1,.421.421A.421.421,0,0,1,15.3,20.854Zm.421,5.113a.421.421,0,1,1-.421.421A.421.421,0,0,1,15.716,25.967ZM17.4,23.23h8.422a.393.393,0,1,1,0,.787H17.4a.393.393,0,1,1,0-.787Zm0,2.765h8.422a.393.393,0,1,1,0,.787H17.4a.393.393,0,1,1,0-.787Z" transform="translate(-13.49 -7.846)" fill="#929292"/>
  <path id="Path_44532" data-name="Path 44532" d="M23.784,8.476H29.26a.816.816,0,0,0,.814-.814V6.136a.816.816,0,0,0-.814-.814h-.7A1.725,1.725,0,0,0,26.884,4H26.16a1.725,1.725,0,0,0-1.672,1.322h-.7a.816.816,0,0,0-.814.814V7.662a.816.816,0,0,0,.814.814Z" transform="translate(-19.241 -4)" fill="#929292"/>
</svg>
