<svg xmlns="http://www.w3.org/2000/svg" width="16.35" height="19.468" viewBox="0 0 16.35 19.468">
  <g id="medical-report" transform="translate(-41)">
    <path id="Path_44281" data-name="Path 44281" d="M55.259,21h-.951v1.291a1.334,1.334,0,0,1-1.332,1.332h-7.6a1.334,1.334,0,0,1-1.332-1.332V21h-.951A2.094,2.094,0,0,0,41,23.091V37.578a2.094,2.094,0,0,0,2.091,2.091H55.259a2.094,2.094,0,0,0,2.091-2.091V23.091A2.094,2.094,0,0,0,55.259,21ZM49.9,35.449a.57.57,0,1,1,0-1.141h1.331V32.978a.57.57,0,1,1,1.141,0v1.331H53.7a.57.57,0,1,1,0,1.141H52.369V36.78a.57.57,0,1,1-1.141,0V35.449Zm3.821-4.6H44.593a.57.57,0,1,1,0-1.141h9.126a.57.57,0,0,1,0,1.141Zm-9.126,1.9H47.61a.57.57,0,0,1,0,1.141H44.593a.57.57,0,1,1,0-1.141Zm0-6.084h9.126a.57.57,0,0,1,0,1.141H44.593a.57.57,0,1,1,0-1.141Z" transform="translate(0 -20.201)" fill="#546788"/>
    <path id="Path_44282" data-name="Path 44282" d="M151,2.09a.192.192,0,0,0,.192.192h7.6a.192.192,0,0,0,.192-.192V.192A.192.192,0,0,0,158.793,0h-7.6A.192.192,0,0,0,151,.192Z" transform="translate(-105.817 0)" fill="#546788"/>
  </g>
</svg>
