<svg id="ARROW_48" data-name="ARROW 48" xmlns="http://www.w3.org/2000/svg" width="21.471" height="16.173" viewBox="0 0 21.471 16.173">
  <path id="Path_44803" data-name="Path 44803" d="M143.7,71.072a1.009,1.009,0,0,1,1.428,0l1.107,1.11a6.069,6.069,0,0,0-9.174-5.6c-.131.079-.261.163-.386.252a1.011,1.011,0,0,1-1.167-1.651q.252-.177.514-.336A8.088,8.088,0,0,1,148.259,72l.93-.928a1.01,1.01,0,1,1,1.426,1.43l-2.749,2.747a1.009,1.009,0,0,1-1.428,0L143.695,72.5A1.009,1.009,0,0,1,143.7,71.072Z" transform="translate(-129.442 -63.698)" fill="#1d4999"/>
  <path id="Path_44804" data-name="Path 44804" d="M4.084,166.962a1.009,1.009,0,0,1,1.428,0l2.745,2.75a1.01,1.01,0,1,1-1.43,1.426l-1.107-1.109a6.069,6.069,0,0,0,9.174,5.6c.132-.079.264-.165.39-.255a1.009,1.009,0,1,1,1.167,1.648c-.168.119-.343.233-.519.339a8.088,8.088,0,0,1-12.24-7.154l-.93.93a1.009,1.009,0,0,1-1.426-1.427Z" transform="translate(-1.064 -162.335)" fill="#1d4999"/>
</svg>
