<svg xmlns="http://www.w3.org/2000/svg" width="15.684" height="16" viewBox="0 0 15.684 16">
  <g id="Layer_x0020_1" transform="translate(-5)">
    <path id="Path_45357" data-name="Path 45357" d="M15.375,15.125h-9.5A.873.873,0,0,1,5,14.25V.875A.894.894,0,0,1,5.875,0h9.5a.873.873,0,0,1,.875.875V6.844a3.514,3.514,0,1,0,0,5.844V14.25A.873.873,0,0,1,15.375,15.125ZM11,13.563H6.719a.219.219,0,0,1,0-.437h4.25A.219.219,0,1,1,11,13.563Zm-.875-1.937H6.719a.219.219,0,0,1,0-.437h3.406A.219.219,0,1,1,10.125,11.625ZM9.656,9.719H6.719a.236.236,0,0,1,0-.469H9.656A.234.234,0,0,1,9.656,9.719Zm.625-1.937H6.719a.236.236,0,0,1,0-.469h3.563A.234.234,0,0,1,10.281,7.781ZM14.5,5.844H6.719a.236.236,0,0,1,0-.469H14.5A.234.234,0,0,1,14.5,5.844ZM12.375,3.906h-3.5a.234.234,0,0,1,0-.469h3.5A.234.234,0,0,1,12.375,3.906Z" fill="#fff" fill-rule="evenodd"/>
    <path id="Path_45358" data-name="Path 45358" d="M205.5,215.637a2.22,2.22,0,1,1,1.594,3.781A2.216,2.216,0,0,1,205.5,215.637ZM204,217.23a3.072,3.072,0,1,1,5.438,1.938l.813.813-.312.313-.812-.781A3.089,3.089,0,0,1,204,217.23Z" transform="translate(-192.781 -207.449)" fill="#fff" fill-rule="evenodd"/>
    <path id="Path_45359" data-name="Path 45359" d="M361.977,369.717a.239.239,0,0,1-.156-.062l-1.125-1.094a.232.232,0,0,1,.313-.344l1.125,1.125A.219.219,0,0,1,361.977,369.717Z" transform="translate(-344.508 -356.655)" fill="#fff" fill-rule="evenodd"/>
    <path id="Path_45360" data-name="Path 45360" d="M383.552,391.02a.528.528,0,0,1-.156-.062l-2.125-2.094a.537.537,0,0,1,0-.75l.813-.844a.577.577,0,0,1,.781,0l2.125,2.094a.237.237,0,0,1,0,.313l-1.25,1.25A.27.27,0,0,1,383.552,391.02Z" transform="translate(-364.364 -375.02)" fill="#fff" fill-rule="evenodd"/>
  </g>
</svg>
