<svg xmlns="http://www.w3.org/2000/svg" width="18.645" height="18" viewBox="0 0 18.645 18">
  <g id="home_2_" data-name="home (2)" transform="translate(-16.252 -19.148)">
    <path id="Path_44882" data-name="Path 44882" d="M36.116,61.823v8.366h4.427V65.48a.445.445,0,0,1,.445-.445h4.558a.445.445,0,0,1,.445.445v4.709h4.174v-8.5l-6.926-5.357Z" transform="translate(-17.653 -33.04)" fill="#546788"/>
    <path id="Path_44883" data-name="Path 44883" d="M83.885,142.551h3.667v4.264H83.885Z" transform="translate(-60.104 -109.666)" fill="#546788"/>
    <path id="Path_44884" data-name="Path 44884" d="M34.533,26.713l-2.841-2.2a.446.446,0,0,1-.173-.352V19.148h-2V21.93a.445.445,0,0,1-.718.352l-3.218-2.49-8.97,6.921a.942.942,0,0,0-.364.742.937.937,0,0,0,1.509.745l7.554-5.828a.445.445,0,0,1,.544,0l7.528,5.823a.937.937,0,0,0,1.51-.741A.943.943,0,0,0,34.533,26.713Z" fill="#546788"/>
  </g>
</svg>
