<svg id="lungs" xmlns="http://www.w3.org/2000/svg" width="19.108" height="16.331" viewBox="0 0 19.108 16.331">
  <path id="Path_44439" data-name="Path 44439" d="M5.875,17.471c-.22.323-.12.923-.382,1.871a1.928,1.928,0,0,0,1.051.738.349.349,0,0,1,.271.428.423.423,0,0,1-.483.257,2.549,2.549,0,0,1-1.18-.628,2.763,2.763,0,0,1-1.375,1.122.45.45,0,0,1-.557-.163.334.334,0,0,1,.191-.476c1.184-.5,1.308-1.306,1.462-2.485-.528.071-1.317.263-1.387.777a.405.405,0,0,1-.457.312c-.731-.085-.511-1.622,1.977-1.835a1.758,1.758,0,0,1,.228-.38,1.118,1.118,0,0,1,.2-1.566c.332-.284.258-.071-.071-.6-.677.1-.71.355-1.013.355a.418.418,0,0,1-.39-.232.323.323,0,0,1,.12-.393,2.508,2.508,0,0,1,1.005-.415,2.325,2.325,0,0,1,0-.944.415.415,0,0,1,.478-.3.372.372,0,0,1,.353.408,1.6,1.6,0,0,0,.357,1.42l1.607-1.374a4.243,4.243,0,0,1-.233-1.658.665.665,0,0,0-.256-.514.915.915,0,0,0-.612-.2,3.534,3.534,0,0,0-2.671,1.157A11.635,11.635,0,0,0,1,19.974a5.27,5.27,0,0,0,.557,3.121,1.165,1.165,0,0,0,1.13.685c1.5,0,1.8-.767,3.713-1.42,1.1-.355,2.077-.82,2.077-1.775V16.679C7.47,17.258,6.814,17.843,5.875,17.471Z" transform="translate(-0.999 -7.448)" fill="#546788"/>
  <path id="Path_44440" data-name="Path 44440" d="M33.387,12.156A3.534,3.534,0,0,0,30.716,11a.915.915,0,0,0-.612.2.665.665,0,0,0-.256.514,4.178,4.178,0,0,1-.216,1.651l1.607,1.374a1.6,1.6,0,0,0,.357-1.42.372.372,0,0,1,.353-.408.415.415,0,0,1,.478.3,2.325,2.325,0,0,1,0,.944,2.508,2.508,0,0,1,1.005.415.323.323,0,0,1,.12.393.418.418,0,0,1-.39.232c-.3,0-.336-.266-1.009-.355a3.676,3.676,0,0,1-.32.422l.228.2a1.123,1.123,0,0,1,.2,1.566,1.766,1.766,0,0,1,.228.369c2.542.224,2.712,1.828,1.931,1.828s.12-.834-1.8-1.093c.158,1.2.282,2.006,1.462,2.5a.342.342,0,0,1,.224.4.407.407,0,0,1-.406.275,2.591,2.591,0,0,1-1.558-1.164,2.374,2.374,0,0,1-1.271.643.411.411,0,0,1-.469-.309.373.373,0,0,1,.361-.4,1.928,1.928,0,0,0,1.051-.738,13.54,13.54,0,0,0-.382-1.871c-.918.355-1.524-.17-2.6-.813v3.937c0,.962.964,1.42,2.077,1.775,1.894.65,2.218,1.42,3.713,1.42a1.165,1.165,0,0,0,1.13-.685,5.367,5.367,0,0,0,.544-3.121,11.635,11.635,0,0,0-3.107-7.818Z" transform="translate(-17.387 -7.448)" fill="#546788"/>
  <path id="Path_44441" data-name="Path 44441" d="M21.836,9.489C19.256,7.284,18.55,6.936,18.55,5.8V1H16.058V5.8a1.986,1.986,0,0,1-.731,1.509L12.773,9.489a.5.5,0,0,0-.073.772.719.719,0,0,0,.9.062l3.236-1.938a.948.948,0,0,1,.955,0l3.236,1.938a.717.717,0,0,0,.825-.12A.488.488,0,0,0,21.836,9.489Z" transform="translate(-7.75 -1)" fill="#546788"/>
</svg>
