<svg id="tag" xmlns="http://www.w3.org/2000/svg" width="18.73" height="18.73" viewBox="0 0 18.73 18.73">
  <ellipse id="Ellipse_837" data-name="Ellipse 837" cx="0.627" cy="0.627" rx="0.627" ry="0.627" transform="translate(8.738 12.063)" fill="#1d4999"/>
  <ellipse id="Ellipse_838" data-name="Ellipse 838" cx="0.627" cy="0.627" rx="0.627" ry="0.627" transform="translate(8.738 5.413)" fill="#1d4999"/>
  <path id="Path_45948" data-name="Path 45948" d="M18.226.505A1.712,1.712,0,0,0,17.006,0H10.44A1.713,1.713,0,0,0,9.221.505L.505,9.221a1.724,1.724,0,0,0,0,2.439l6.566,6.566a1.724,1.724,0,0,0,2.439,0L18.225,9.51A1.713,1.713,0,0,0,18.73,8.29V1.724a1.711,1.711,0,0,0-.5-1.219ZM9.365,4.316A1.724,1.724,0,1,1,7.641,6.04,1.726,1.726,0,0,1,9.365,4.316Zm0,10.1A1.724,1.724,0,1,1,11.09,12.69,1.726,1.726,0,0,1,9.365,14.414Zm3.527-4.5H5.839a.549.549,0,1,1,0-1.1h7.053a.549.549,0,1,1,0,1.1Zm2.351-5.878a.549.549,0,1,1,.549-.549A.549.549,0,0,1,15.243,4.036Z" transform="translate(0 0)" fill="#1d4999"/>
</svg>
