<svg id="Layer_8" data-name="Layer 8" xmlns="http://www.w3.org/2000/svg" width="15.575" height="15.575" viewBox="0 0 15.575 15.575">
  <path id="Path_44808" data-name="Path 44808" d="M5.894,4.781V2h5.563V4.781a.556.556,0,0,1-.556.556H6.45A.556.556,0,0,1,5.894,4.781ZM5.338,17.575h8.9V15.662h-8.9Zm0-3.026h8.9V13.437h-8.9ZM17.019,5.727,14.443,2.606A1.669,1.669,0,0,0,13.159,2h-.59V4.781A1.669,1.669,0,0,1,10.9,6.45H6.45A1.669,1.669,0,0,1,4.781,4.781V2H3.669A1.669,1.669,0,0,0,2,3.669V15.906a1.669,1.669,0,0,0,1.669,1.669h.556V12.013a1.669,1.669,0,0,1,1.669-1.669h7.788a1.669,1.669,0,0,1,1.669,1.669v5.563h.556a1.669,1.669,0,0,0,1.669-1.669V6.962a1.669,1.669,0,0,0-.556-1.235Zm-3.338,5.729H5.894a.556.556,0,0,0-.556.556v.312h8.9v-.312A.556.556,0,0,0,13.681,11.456Z" transform="translate(-2 -2)" fill="#fff"/>
</svg>
