<svg id="save_1_" data-name="save (1)" xmlns="http://www.w3.org/2000/svg" width="10" height="10" viewBox="0 0 10 10">
  <g id="Group_16993" data-name="Group 16993">
    <path id="Path_45890" data-name="Path 45890" d="M8.209,0H1.172A1.173,1.173,0,0,0,0,1.172V8.828A1.173,1.173,0,0,0,1.172,10H8.828A1.173,1.173,0,0,0,10,8.828V1.791ZM3.066.781H5.391V2.266h.781V.781h.781V2.656a.391.391,0,0,1-.391.391H3.457a.391.391,0,0,1-.391-.391ZM7.734,9.219H2.285V5.781a.391.391,0,0,1,.391-.391H7.344a.391.391,0,0,1,.391.391Zm1.484-.391a.391.391,0,0,1-.391.391H8.516V5.781A1.173,1.173,0,0,0,7.344,4.609H2.676A1.173,1.173,0,0,0,1.5,5.781V9.219H1.172a.391.391,0,0,1-.391-.391V1.172A.391.391,0,0,1,1.172.781H2.285V2.656A1.173,1.173,0,0,0,3.457,3.828H6.563A1.173,1.173,0,0,0,7.734,2.656V.781h.151L9.219,2.115Z" fill="#2d8af5"/>
  </g>
</svg>
