<svg id="review" xmlns="http://www.w3.org/2000/svg" width="19.161" height="17.699" viewBox="0 0 19.161 17.699">
  <circle id="Ellipse_719" data-name="Ellipse 719" cx="0.639" cy="0.639" r="0.639" transform="translate(11.815 13.021)" fill="#6185c7"/>
  <circle id="Ellipse_720" data-name="Ellipse 720" cx="0.639" cy="0.639" r="0.639" transform="translate(14.689 13.021)" fill="#6185c7"/>
  <circle id="Ellipse_721" data-name="Ellipse 721" cx="0.639" cy="0.639" r="0.639" transform="translate(8.942 13.021)" fill="#6185c7"/>
  <circle id="Ellipse_722" data-name="Ellipse 722" cx="0.639" cy="0.639" r="0.639" transform="translate(6.036 13.021)" fill="#6185c7"/>
  <circle id="Ellipse_723" data-name="Ellipse 723" cx="0.639" cy="0.639" r="0.639" transform="translate(3.194 13.021)" fill="#6185c7"/>
  <rect id="Rectangle_19415" data-name="Rectangle 19415" width="12.774" height="1.277" rx="0.639" transform="translate(3.193 9.973)" fill="#6185c7"/>
  <path id="Path_45220" data-name="Path 45220" d="M15.215,9.117a1.632,1.632,0,0,1-.758-.188L13.8,8.582a.347.347,0,0,0-.324,0l-.66.347A1.627,1.627,0,0,1,10.45,7.215l.126-.736a.35.35,0,0,0-.1-.308L9.941,5.65a1.626,1.626,0,0,1,.9-2.773l.738-.107a.348.348,0,0,0,.262-.19l.331-.67a1.626,1.626,0,0,1,2.916,0l.331.669a.351.351,0,0,0,.263.191l.738.107a1.626,1.626,0,0,1,.9,2.773l-.535.521a.351.351,0,0,0-.1.309l.126.735a1.629,1.629,0,0,1-1.6,1.9ZM13.633,7.264a1.631,1.631,0,0,1,.758.188l.66.347a.35.35,0,0,0,.506-.369L15.431,6.7a1.627,1.627,0,0,1,.468-1.44l.535-.521a.35.35,0,0,0-.193-.6L15.5,4.032a1.626,1.626,0,0,1-1.225-.89l-.33-.669a.349.349,0,0,0-.626,0l-.331.669a1.626,1.626,0,0,1-1.224.89l-.738.107a.35.35,0,0,0-.193.6l.535.521a1.625,1.625,0,0,1,.468,1.44l-.126.736a.349.349,0,0,0,.507.367l.66-.347a1.628,1.628,0,0,1,.758-.188Z" transform="translate(-4.052 -1.002)" fill="#6185c7"/>
  <path id="Path_45221" data-name="Path 45221" d="M16.968,20.765H4.194A3.194,3.194,0,0,1,1,17.571V9.907A3.194,3.194,0,0,1,4.194,6.713h.868a.639.639,0,0,1,0,1.277H4.194A1.916,1.916,0,0,0,2.277,9.907v7.664a1.916,1.916,0,0,0,1.916,1.916H16.968a1.916,1.916,0,0,0,1.916-1.916V9.907A1.916,1.916,0,0,0,16.968,7.99h-.952a.639.639,0,1,1,0-1.277h.952a3.194,3.194,0,0,1,3.194,3.194v7.664A3.194,3.194,0,0,1,16.968,20.765Z" transform="translate(-1 -3.065)" fill="#6185c7"/>
</svg>
