<svg id="shopping-bag_1_" data-name="shopping-bag (1)" xmlns="http://www.w3.org/2000/svg" width="18.73" height="18.73" viewBox="0 0 18.73 18.73">
  <path id="Path_45940" data-name="Path 45940" d="M301,182h6.622v1.1H301Zm0,0" transform="translate(-289.989 -175.342)" fill="#929292"/>
  <path id="Path_45941" data-name="Path 45941" d="M277.622,242H272.1l-1.1,2.195h5.524Zm0,0" transform="translate(-261.086 -233.147)" fill="#929292"/>
  <path id="Path_45942" data-name="Path 45942" d="M92.1,2.744a1.646,1.646,0,0,1,3.292,0V4.463h1.1V2.744a2.744,2.744,0,0,0-5.487,0V4.463h1.1Zm0,0" transform="translate(-87.671)" fill="#929292"/>
  <path id="Path_45943" data-name="Path 45943" d="M331.549,408.1a.549.549,0,1,0-.549-.549A.549.549,0,0,0,331.549,408.1Zm0,0" transform="translate(-318.891 -392.111)" fill="#929292"/>
  <path id="Path_45944" data-name="Path 45944" d="M271,338.585h5.524V332H271Zm2.744-4.939a1.646,1.646,0,1,1-1.646,1.646A1.648,1.648,0,0,1,273.744,333.646Zm0,0" transform="translate(-261.086 -319.854)" fill="#929292"/>
  <path id="Path_45945" data-name="Path 45945" d="M0,413.211v3.614H3.651Zm0,0" transform="translate(0 -398.095)" fill="#929292"/>
  <path id="Path_45946" data-name="Path 45946" d="M8.816,136.268v-7.946l1.1-2.195V123.1h2.195V122H8.816v3.292h-1.1V122H4.427v3.292h-1.1V122H0v9.1l5.206,5.169Zm0,0" transform="translate(0 -117.537)" fill="#929292"/>
  <path id="Path_45947" data-name="Path 45947" d="M452,247.871v7.423h2.195v-7.682l-1.033-2.065Zm0,0" transform="translate(-435.465 -236.564)" fill="#929292"/>
</svg>
