<svg id="sketch_icon" xmlns="http://www.w3.org/2000/svg" width="7.242" height="15.771" viewBox="0 0 7.242 15.771">
  <path id="Path_44442" data-name="Path 44442" d="M32.551,89.659h5.983a.055.055,0,0,1,.059.068,1.432,1.432,0,0,1-1.372.867H33.863a1.434,1.434,0,0,1-1.372-.867A.055.055,0,0,1,32.551,89.659Z" transform="translate(-32.417 -74.823)" fill="#1d4999"/>
  <path id="Path_44443" data-name="Path 44443" d="M36.216,23.347H34.552A2.214,2.214,0,0,0,32.3,25a.129.129,0,0,0,.139.136h5.9A.128.128,0,0,0,38.473,25,2.216,2.216,0,0,0,36.216,23.347Z" transform="translate(-32.262 -20.132)" fill="#1d4999"/>
  <path id="Path_44444" data-name="Path 44444" d="M38.38,44.5c0,.073,0,.214-.089.214H32.206c-.1,0-.068-.141-.068-.212,0,0,0-7.73,0-8.79a.132.132,0,0,1,.139-.121h5.953a.132.132,0,0,1,.139.121C38.376,36.77,38.38,44.5,38.38,44.5Z" transform="translate(-32.134 -30.229)" fill="#1d4999"/>
  <path id="Path_44445" data-name="Path 44445" d="M44.485,12.355v1.251a.192.192,0,0,1-.2.177H42.607a.192.192,0,0,1-.2-.177V12.355a.192.192,0,0,1,.2-.177H44.28A.192.192,0,0,1,44.485,12.355Z" transform="translate(-40.321 -10.921)" fill="#1d4999"/>
  <path id="Path_44446" data-name="Path 44446" d="M41.582,5.454a.42.42,0,0,1-.154.32.562.562,0,0,1-.37.133H37.946a.493.493,0,0,1-.524-.453.423.423,0,0,1,.154-.32A.57.57,0,0,1,37.946,5h3.111A.492.492,0,0,1,41.582,5.454Z" transform="translate(-36.35 -5.003)" fill="#1d4999"/>
  <path id="Path_44447" data-name="Path 44447" d="M55.5,17.165a.827.827,0,0,0,.027.212.044.044,0,0,1-.047.053h-.72a.06.06,0,0,1-.063-.056v-.416a.06.06,0,0,1,.063-.055h.72a.044.044,0,0,1,.047.053A.82.82,0,0,0,55.5,17.165Z" transform="translate(-50.121 -14.817)" fill="#1d4999"/>
  <path id="Path_44448" data-name="Path 44448" d="M38.242,16.909H38.5a.061.061,0,0,1,.065.056v.414a.061.061,0,0,1-.065.056h-.257a.132.132,0,0,1-.141-.121V17.03A.132.132,0,0,1,38.242,16.909Z" transform="translate(-36.892 -14.823)" fill="#1d4999"/>
  <ellipse id="Ellipse_638" data-name="Ellipse 638" cx="0.729" cy="0.631" rx="0.729" ry="0.631" transform="translate(5.783 1.718)" fill="#1d4999"/>
</svg>
