<svg xmlns="http://www.w3.org/2000/svg" width="33.132" height="32.551" viewBox="0 0 33.132 32.551">
  <g id="Solid" transform="translate(-32 -32)">
    <path id="Path_44560" data-name="Path 44560" d="M53.507,43.625H53.6l8.64-8.413a1.905,1.905,0,0,0,.566-1.341A1.873,1.873,0,0,0,60.936,32h-.02a1.884,1.884,0,0,0-1.323.548l-11.1,11.1a3.509,3.509,0,0,1,.359-.018Zm5.642-9.13,1.163,1.163-.822.822-1.163-1.163Zm-1.744,1.744L58.568,37.4l-.822.822-1.163-1.163Zm-1.744,1.744,1.163,1.163L56,39.967,54.839,38.8Zm-1.744,1.744,1.163,1.163-.822.822L53.1,40.549ZM52.174,41.47l1.163,1.163-.822.822-1.163-1.163Zm7.272-1.914h5.686v15.1a11.078,11.078,0,0,1-7.691-3.7l-1.175-1.321a.581.581,0,0,0-.434-.2H48.857a2.325,2.325,0,1,1,0-4.65H59.9V43.625H55.267Zm-21.8,10.633a1.887,1.887,0,0,1,0-2.666l6.435-6.435a5.2,5.2,0,0,1,3.7-1.532h3.164L40.308,50.19a1.885,1.885,0,0,1-2.665,0Zm27.49,5.628v.978a5.259,5.259,0,0,1-4.069,1.943H58.738a.581.581,0,0,0-.432.192l-4.512,5.013a1.892,1.892,0,0,1-1.327.607A1.868,1.868,0,0,1,50.6,62.675v-.031a1.832,1.832,0,0,1,.537-1.3l.015-.015,5.09-5.09-.822-.822-5.09,5.09a1.885,1.885,0,0,1-.61.408,1.933,1.933,0,0,1-1.8-.191,1.9,1.9,0,0,1-.259-2.882l5.091-5.091-.822-.822-5.09,5.09a1.9,1.9,0,0,1-2.865-.233,1.822,1.822,0,0,1-.044-2.131l4.239-4.127a3.487,3.487,0,0,0,.684.068h6.714l1,1.126A12.241,12.241,0,0,0,65.132,55.817Zm-19.763-8.7a3.509,3.509,0,0,1,.018-.359L32,60.141v4.392a9.174,9.174,0,0,0,5.954-2.689l2.765-2.765V56.413A.581.581,0,0,1,40.895,56l6.1-5.938A3.488,3.488,0,0,1,45.369,47.113Zm-8.7,13.759a9.668,9.668,0,0,1-3.326,1.906l-.368-1.1A8.51,8.51,0,0,0,35.907,60l3.267-2.858.766.875Zm6.542-8.116-1.163-1.163.822-.822,1.163,1.163Zm1.744-1.744L43.8,49.849l.822-.822L45.78,50.19Z" fill="#fff"/>
  </g>
</svg>
