<svg xmlns="http://www.w3.org/2000/svg" width="13.76" height="13.519" viewBox="0 0 13.76 13.519">
  <g id="Solid" transform="translate(-32 -32)">
    <path id="Path_44550" data-name="Path 44550" d="M40.932,36.828h.039l3.588-3.494a.791.791,0,0,0,.235-.557A.778.778,0,0,0,44.017,32h-.008a.783.783,0,0,0-.55.228l-4.608,4.608A1.458,1.458,0,0,1,39,36.828Zm2.343-3.792.483.483-.341.341-.483-.483Zm-.724.724.483.483-.341.341L42.21,34.1Zm-.724.724.483.483-.341.341-.483-.483Zm-.724.724.483.483-.341.341-.483-.483Zm-.724.724.483.483-.341.341-.483-.483Zm3.02-.795H45.76v6.27a4.6,4.6,0,0,1-3.194-1.536l-.488-.549a.241.241,0,0,0-.18-.081H39a.966.966,0,1,1,0-1.931h4.587v-.483H41.663Zm-9.055,4.416a.784.784,0,0,1,0-1.107l2.673-2.673a2.158,2.158,0,0,1,1.536-.636h1.314L35.45,39.554a.783.783,0,0,1-1.107,0ZM45.76,41.891V42.3a2.184,2.184,0,0,1-1.69.807H43.1a.241.241,0,0,0-.179.08l-1.874,2.082a.786.786,0,0,1-.551.252.776.776,0,0,1-.775-.779v-.013a.761.761,0,0,1,.223-.538l.006-.006,2.114-2.114-.341-.341-2.114,2.114a.783.783,0,0,1-.253.17.8.8,0,0,1-.746-.079.79.79,0,0,1-.108-1.2L40.62,40.62l-.341-.341-2.114,2.114a.791.791,0,0,1-1.19-.1.757.757,0,0,1-.018-.885l1.76-1.714a1.448,1.448,0,0,0,.284.028h2.788l.416.468a5.084,5.084,0,0,0,3.555,1.7Zm-8.208-3.615a1.457,1.457,0,0,1,.008-.149L32,43.687v1.824a3.81,3.81,0,0,0,2.473-1.117l1.148-1.148V42.139a.241.241,0,0,1,.073-.173L38.227,39.5A1.448,1.448,0,0,1,37.552,38.276ZM33.94,43.991a4.015,4.015,0,0,1-1.381.791l-.153-.458a3.534,3.534,0,0,0,1.216-.7l1.357-1.187.318.363Zm2.717-3.371-.483-.483.341-.341.483.483Zm.724-.724-.483-.483.341-.341.483.483Z" transform="translate(0 0)" fill="#00e2e2"/>
  </g>
</svg>
