<svg id="project-plan" xmlns="http://www.w3.org/2000/svg" width="15.837" height="22.873" viewBox="0 0 15.837 22.873">
  <g id="Group_17259" data-name="Group 17259" transform="translate(3.324 0)">
    <path id="Path_47697" data-name="Path 47697" d="M20.457,6.289h8.506a.358.358,0,0,0,.357-.357V3.68A.7.7,0,0,0,28.642,3h-.965c-.322-1.358-.715-2-2.966-2-2.216,0-2.645.643-2.966,2h-.965a.679.679,0,0,0-.679.679V5.932A.338.338,0,0,0,20.457,6.289Z" transform="translate(-20.1 -1)" fill="#929292"/>
  </g>
  <g id="Group_17260" data-name="Group 17260" transform="translate(0 2.966)">
    <path id="Path_47698" data-name="Path 47698" d="M26.311,9.3H24.059v1.608h.393a.358.358,0,0,1,.357.357V26.991a.384.384,0,0,1-.357.357H13.016a.384.384,0,0,1-.357-.357V11.266a.358.358,0,0,1,.357-.357h.393V9.3H11.157a.338.338,0,0,0-.357.357V28.849a.358.358,0,0,0,.357.357H26.275a.358.358,0,0,0,.357-.357V9.657A.311.311,0,0,0,26.311,9.3Z" transform="translate(-10.8 -9.3)" fill="#929292"/>
  </g>
  <g id="Group_17261" data-name="Group 17261" transform="translate(6.326 7.791)">
    <path id="Path_47699" data-name="Path 47699" d="M28.5,22.8h2.859v2.859H28.5Z" transform="translate(-28.5 -22.8)" fill="#929292"/>
  </g>
  <g id="Group_17262" data-name="Group 17262" transform="translate(9.185 15.654)">
    <path id="Path_47700" data-name="Path 47700" d="M36.5,44.8h2.144v2.144H36.5Z" transform="translate(-36.5 -44.8)" fill="#929292"/>
  </g>
  <g id="Group_17263" data-name="Group 17263" transform="translate(2.573 5.289)">
    <path id="Path_47701" data-name="Path 47701" d="M18,30.811H28.722V15.8h-.107a1.041,1.041,0,0,1-1,.715H19.108a1.041,1.041,0,0,1-1-.715H18Zm9.471-4.646v2.144a.717.717,0,0,1-.715.715H24.612a.717.717,0,0,1-.715-.715V26.164a.717.717,0,0,1,.715-.715h2.144A.717.717,0,0,1,27.471,26.164Zm-7-2.966a.338.338,0,0,1,.357-.357h2.037v-.965H21.788a.717.717,0,0,1-.715-.715V18.3a.717.717,0,0,1,.715-.715h2.859a.717.717,0,0,1,.715.715v2.859a.717.717,0,0,1-.715.715H23.575v.965H25.47a.358.358,0,0,1,.357.357v.822a.358.358,0,0,1-.357.357.338.338,0,0,1-.357-.357v-.465H21.181v.465a.357.357,0,1,1-.715,0Zm-1.215,2.966a.717.717,0,0,1,.715-.715H22.11a.717.717,0,0,1,.715.715v2.144a.717.717,0,0,1-.715.715H19.966a.717.717,0,0,1-.715-.715Z" transform="translate(-18 -15.8)" fill="#929292"/>
  </g>
  <g id="Group_17264" data-name="Group 17264" transform="translate(4.539 15.654)">
    <path id="Path_47702" data-name="Path 47702" d="M23.5,44.8h2.144v2.144H23.5Z" transform="translate(-23.5 -44.8)" fill="#929292"/>
  </g>
</svg>
