<svg xmlns="http://www.w3.org/2000/svg" width="16.879" height="16" viewBox="0 0 16.879 16">
  <g id="_x35_0_x5F_22-42_x2C__Map_x2C__states_x2C__usa_x2C__wisconsin_x2C__location_pin" transform="translate(0 0)">
    <g id="XMLID_1860_" transform="translate(0 0)">
      <g id="XMLID_1861_" transform="translate(0)">
        <g id="XMLID_1862_">
          <path id="XMLID_1879_" d="M104.77,72.543c1.58-2.026,3.77-2.894,3.77-5.273a3.77,3.77,0,1,0-7.54,0C101,69.649,103.19,70.516,104.77,72.543Zm0-7.8a2.524,2.524,0,1,1-2.524,2.524A2.526,2.526,0,0,1,104.77,64.746Z" transform="translate(-98.404 -62.941)" fill="#546788"/>
          <path id="XMLID_1876_" d="M145.422,110.06a2.138,2.138,0,1,0-2.138-2.138A2.14,2.14,0,0,0,145.422,110.06Zm0-3.5a1.366,1.366,0,1,1-1.366,1.366A1.367,1.367,0,0,1,145.422,106.557Z" transform="translate(-139.056 -103.593)" fill="#546788"/>
          <path id="XMLID_904_" d="M174.264,137.744a.98.98,0,1,0-.98-.98A.981.981,0,0,0,174.264,137.744Z" transform="translate(-167.898 -132.435)" fill="#546788"/>
          <path id="XMLID_903_" d="M392.158,85.816A1.158,1.158,0,1,0,391,84.658,1.159,1.159,0,0,0,392.158,85.816Z" transform="translate(-377.209 -82.169)" fill="#546788"/>
          <path id="XMLID_902_" d="M61.579,433.5a.579.579,0,1,0,.579.579A.58.58,0,0,0,61.579,433.5Z" transform="translate(-59.948 -418.658)" fill="#546788"/>
          <path id="XMLID_901_" d="M321,333.5h.772v.772H321Z" transform="translate(-309.912 -322.518)" fill="#546788"/>
          <path id="XMLID_1869_" d="M67.167,194.843l-.636-.636a.158.158,0,0,0-.219,0l-1.948,1.948a.537.537,0,0,1-.382.158H62.959a.537.537,0,0,1-.382-.158l-1.214-1.214a2.026,2.026,0,0,0-.834-.5c-.722,1.588-2.455,2.49-3.672,4.158a.193.193,0,0,1-.312,0c-1.239-1.7-3.02-2.608-3.713-4.251h-.545A1.287,1.287,0,0,0,51,195.631V198.2a2.456,2.456,0,0,0,.653,1.671l2.1,2.275a2.092,2.092,0,0,0,1.533.671H57.1a.537.537,0,0,1,.382.158l1.436,1.436a.156.156,0,0,0,.109.045h1.024a.154.154,0,0,0,.11-.045l.308-.308a.155.155,0,0,0,0-.219.541.541,0,0,1,0-.765l.144-.144a.537.537,0,0,1,.382-.158H64.31a.537.537,0,0,1,.382.158l1.374,1.374a.155.155,0,0,0,.219,0l.39-.39a.154.154,0,0,0,.045-.109v-.532a.154.154,0,0,0-.045-.11l-.944-.944a.537.537,0,0,1-.158-.382v-.7a.537.537,0,0,1,.158-.382l.78-.78a.154.154,0,0,0,.045-.11V196.92a.537.537,0,0,1,.158-.382l.452-.452a.154.154,0,0,0,.045-.109v-1.024a.154.154,0,0,0-.045-.11Zm-2.85,4.7H62.58v.772h.965a.193.193,0,0,1,0,.386H62.58v1.353a.193.193,0,0,1-.386,0V200.7h-.772v.579a.193.193,0,1,1-.386,0V200.7h-5.6a.193.193,0,0,1,0-.386h5.6v-.772H59.685a.193.193,0,1,1,0-.386h1.351v-1.737a.193.193,0,1,1,.386,0v1.737h.772V197.8a.193.193,0,0,1,.386,0v1.351h1.737a.193.193,0,1,1,0,.386Z" transform="translate(-50.334 -188.56)" fill="#546788"/>
          <ellipse id="XMLID_898_" cx="0.256" cy="0.256" rx="0.256" ry="0.256" transform="translate(10.229)" fill="#546788"/>
          <ellipse id="XMLID_897_" cx="0.256" cy="0.256" rx="0.256" ry="0.256" transform="translate(13.298 4.603)" fill="#546788"/>
          <ellipse id="XMLID_896_" cx="0.256" cy="0.256" rx="0.256" ry="0.256" transform="translate(1.534 1.023)" fill="#546788"/>
          <ellipse id="XMLID_895_" cx="0.256" cy="0.256" rx="0.256" ry="0.256" transform="translate(12.786 15.344)" fill="#546788"/>
          <ellipse id="XMLID_894_" cx="0.256" cy="0.256" rx="0.256" ry="0.256" transform="translate(5.626 15.344)" fill="#546788"/>
          <ellipse id="XMLID_893_" cx="0.511" cy="0.256" rx="0.511" ry="0.256" transform="translate(0 12.786)" fill="#546788"/>
        </g>
      </g>
    </g>
  </g>
</svg>
