<svg xmlns="http://www.w3.org/2000/svg" width="30" height="30" viewBox="0 0 30 30">
  <g id="Group_18005" data-name="Group 18005" transform="translate(-1298 -657)">
    <rect id="Rectangle_21464" data-name="Rectangle 21464" width="30" height="30" transform="translate(1298 657)" fill="#fff3e2"/>
    <g id="Group_18003" data-name="Group 18003" transform="translate(1303.868 663.264)">
      <path id="Path_48584" data-name="Path 48584" d="M15.623,15.556A9.132,9.132,0,0,0,2.706,2.644l0,0h0l-.028.027A9.132,9.132,0,0,0,15.59,15.59l.026-.026,0,0,0,0Zm-.79-12.125a8.063,8.063,0,0,1,.393,10.98l-3.367-3.367,1.707-1.707A3.278,3.278,0,0,0,8.93,4.7L7.223,6.409l-3.37-3.37a8.062,8.062,0,0,1,10.98.393ZM7.98,7.165,9.687,5.458A2.208,2.208,0,0,1,12.809,8.58L11.1,10.287Zm2.365,3.879L8.58,12.809a2.21,2.21,0,0,1-3.12,0l0,0a2.207,2.207,0,0,1,0-3.121L7.223,7.922ZM3.432,14.833A8.062,8.062,0,0,1,3.093,3.792L6.466,7.165,4.7,8.93a3.277,3.277,0,0,0,0,4.633l0,0a3.281,3.281,0,0,0,4.635,0L11.1,11.8l3.371,3.371a8.062,8.062,0,0,1-11.041-.339Z" transform="translate(0 0)" fill="#bc781a" stroke="#bc781a" stroke-width="0.2"/>
    </g>
  </g>
</svg>
