<svg xmlns="http://www.w3.org/2000/svg" width="15.776" height="15.776" viewBox="0 0 15.776 15.776">
  <g id="layer1" transform="translate(-34.021 -31.617)">
    <path id="path24731" d="M41.909,31.617A7.888,7.888,0,1,0,49.8,39.5a7.9,7.9,0,0,0-7.888-7.888Zm0,1.052A6.836,6.836,0,1,1,35.073,39.5,6.828,6.828,0,0,1,41.909,32.669ZM41.9,34.245a5.256,5.256,0,0,0-4.6,7.8.526.526,0,0,0,.832.118l6.43-6.43a.526.526,0,0,0-.118-.832A5.342,5.342,0,0,0,41.9,34.245Zm3.778,2.6-6.429,6.43a.526.526,0,0,0,.118.832,5.258,5.258,0,0,0,7.143-7.143.527.527,0,0,0-.832-.118Z" transform="translate(0 0)" fill="#6f85a5"/>
  </g>
</svg>
