<svg xmlns="http://www.w3.org/2000/svg" width="8.351" height="14.407" viewBox="0 0 8.351 14.407">
  <path id="Subtraction_67" data-name="Subtraction 67" d="M10185.311-13348.594h-6.268a1.046,1.046,0,0,1-1.043-1.047v-1.311h8.351v1.311A1.045,1.045,0,0,1,10185.311-13348.594Zm1.04-2.713H10178v-6.271h8.351v6.271Zm-3.585-2.15c.055.569.5.909,1.187.909a1.042,1.042,0,0,0,1.137-1.13v-2.217h-.784v.312a.723.723,0,0,0-.661-.342,1.019,1.019,0,0,0-.955,1.15,1.019,1.019,0,0,0,.955,1.15.738.738,0,0,0,.661-.339v.285c0,.3-.135.449-.4.449-.2,0-.339-.085-.369-.229Zm-1.183-1.744h0v1.55h.784v-2.82h-.945l-.691,1.831-.707-1.831h-.949v2.82h.785v-1.569l.536,1.569h.654Zm2.313.893a.414.414,0,0,1-.406-.466.415.415,0,0,1,.406-.467.416.416,0,0,1,.409.467A.415.415,0,0,1,10183.9-13354.309Zm2.441-3.625h-8.324a1.306,1.306,0,0,1,.521-.882,1.7,1.7,0,0,0,.667-1.349v-.577h5.949v.577a1.7,1.7,0,0,0,.671,1.349,1.313,1.313,0,0,1,.517.881Zm-.893-3.166h-6.536a.307.307,0,0,1-.309-.306v-1.287a.309.309,0,0,1,.309-.309h6.536a.307.307,0,0,1,.306.309v1.287A.305.305,0,0,1,10185.444-13361.1Z" transform="translate(-10178 13363.001)" fill="#7b7b7b"/>
</svg>
