<svg xmlns="http://www.w3.org/2000/svg" width="9.771" height="13.467" viewBox="0 0 9.771 13.467">
  <g id="_x31_1_Sport_Nutrition" transform="translate(0 0)">
    <g id="Group_12998" data-name="Group 12998" transform="translate(0 0)">
      <path id="Path_45296" data-name="Path 45296" d="M70.262,215.932h9.771v-5.306H70.262Zm3.618-2.571,1.548-1.857a.144.144,0,0,1,.249.13,11.583,11.583,0,0,1-.363,1.185h.972a.143.143,0,0,1,.1.242l-1.759,1.884a.144.144,0,0,1-.236-.158l.544-1.19h-.95A.144.144,0,0,1,73.88,213.361Z" transform="translate(-70.262 -205.086)" fill="#546788"/>
      <path id="Path_45297" data-name="Path 45297" d="M78.867,85.893a1.008,1.008,0,0,1-.473-.641H71.84a1,1,0,0,1-.6.55,1.424,1.424,0,0,0-.976,1.354v1.116h9.771v-.879C80.032,86.333,79.026,86.029,78.867,85.893Z" transform="translate(-70.261 -83.01)" fill="#546788"/>
      <path id="Path_45298" data-name="Path 45298" d="M70.262,424.2a1.042,1.042,0,0,0,1.041,1.041h7.689a1.042,1.042,0,0,0,1.041-1.041v-1.3H70.262Z" transform="translate(-70.262 -411.772)" fill="#546788"/>
      <path id="Path_45299" data-name="Path 45299" d="M105.67,1.973h6.692a.626.626,0,0,0,.625-.625V.634a.626.626,0,0,0-.625-.625H105.67a.626.626,0,0,0-.625.625v.715A.626.626,0,0,0,105.67,1.973Z" transform="translate(-104.13 -0.009)" fill="#546788"/>
    </g>
  </g>
</svg>
