<svg xmlns="http://www.w3.org/2000/svg" width="16.428" height="13.381" viewBox="0 0 16.428 13.381">
  <path id="supplier" d="M3.949,46.844a1.586,1.586,0,1,0,.464,1.121,1.58,1.58,0,0,0-.464-1.121Zm9.8,2.628H8.814v4.937h4.937V49.472Zm2.676,5.351H11.49v4.937h4.937Zm-5.351,0H6.139v4.937h4.937V54.823ZM.813,55.693a1.043,1.043,0,0,1-.486-.158A.9.9,0,0,1,0,54.72l.025-3.162a1.194,1.194,0,0,1,.351-.836,1.169,1.169,0,0,1,.829-.345H6.236a.207.207,0,0,0,.147-.061l1.262-1.262a.424.424,0,0,1,.6,0h0l.011.011a.424.424,0,0,1,0,.6L6.563,51.352h-1.4a.207.207,0,0,0-.145.059l-.472.463a.207.207,0,0,0-.074.158v7.076a.653.653,0,0,1-.652.652H3.711a.653.653,0,0,1-.652-.652V54.7a.207.207,0,1,0-.414,0v4.406a.653.653,0,0,1-.652.652H1.879a.653.653,0,0,1-.652-.652V51.614a.207.207,0,1,0-.414,0v4.078Z" transform="translate(0.002 -46.38)" fill="#546788" fill-rule="evenodd"/>
</svg>
