<svg xmlns="http://www.w3.org/2000/svg" width="14.363" height="14.111" viewBox="0 0 14.363 14.111">
  <path id="Path_45266" data-name="Path 45266" d="M41.323,37.04h.041l3.746-3.647a.826.826,0,0,0,.245-.581A.812.812,0,0,0,44.544,32h-.009a.817.817,0,0,0-.574.238l-4.81,4.81a1.523,1.523,0,0,1,.156-.008Zm2.446-3.958.5.5-.356.356-.5-.5Zm-.756.756.5.5-.356.356-.5-.5Zm-.756.756.5.5-.356.356-.5-.5Zm-.756.756.5.5-.356.356-.5-.5Zm-.756.756.5.5-.356.356-.5-.5Zm3.152-.83h2.465V41.82a4.8,4.8,0,0,1-3.334-1.6l-.509-.573a.252.252,0,0,0-.188-.085H39.307a1.008,1.008,0,1,1,0-2.016h4.788v-.5H42.086Zm-9.452,4.609a.818.818,0,0,1,0-1.156l2.79-2.79a2.253,2.253,0,0,1,1.6-.664h1.372l-4.61,4.61a.817.817,0,0,1-1.155,0Zm11.917,2.44v.424a2.28,2.28,0,0,1-1.764.842H43.591a.252.252,0,0,0-.187.083l-1.956,2.173a.82.82,0,0,1-.575.263.81.81,0,0,1-.809-.813v-.013a.794.794,0,0,1,.233-.562l.007-.007,2.207-2.207-.356-.356L39.946,44.36a.817.817,0,0,1-.265.177.838.838,0,0,1-.779-.083A.825.825,0,0,1,38.79,43.2L41,41l-.356-.356-2.207,2.207a.825.825,0,0,1-1.242-.1.79.79,0,0,1-.019-.924l1.837-1.789a1.511,1.511,0,0,0,.3.029h2.911l.434.488a5.306,5.306,0,0,0,3.711,1.773ZM37.8,38.551A1.52,1.52,0,0,1,37.8,38.4L32,44.2v1.9a3.977,3.977,0,0,0,2.581-1.166l1.2-1.2V42.583a.252.252,0,0,1,.076-.18L38.5,39.828A1.512,1.512,0,0,1,37.8,38.551Zm-3.77,5.964a4.191,4.191,0,0,1-1.442.826l-.159-.478a3.689,3.689,0,0,0,1.269-.727L35.11,42.9l.332.379ZM36.861,41l-.5-.5.356-.356.5.5Zm.756-.756-.5-.5.356-.356.5.5Z" transform="translate(-32 -32)" fill="#546788"/>
</svg>
