<svg xmlns="http://www.w3.org/2000/svg" width="27.444" height="32.551" viewBox="0 0 27.444 32.551">
  <g id="surgery_1_" data-name="surgery (1)" transform="translate(-40.167)">
    <path id="Path_44576" data-name="Path 44576" d="M55.421,22.472a3.465,3.465,0,0,0-2.111.747V22.4a.944.944,0,0,0,0-.095L52.284,12.095a.954.954,0,0,0-.275-.579l-.858-.858.858-.858a.954.954,0,0,0,.27-.539L53.3,2.11a.953.953,0,0,0-.091-.561L52.7.527a.954.954,0,0,0-1.706.853l.378.755-.934,6.541-.633.633-.633-.633-.934-6.541.378-.755A.954.954,0,0,0,46.907.527L46.4,1.549a.954.954,0,0,0-.091.561l1.021,7.15a.954.954,0,0,0,.27.539l.858.858-.858.858a.953.953,0,0,0-.275.579L46.3,22.309a.945.945,0,0,0,0,.095v.814c-2.81-2.078-6.139.448-6.129,4.293.209,6.795,7.921,6.551,8.036,0v-5.06l.983-9.828.617-.617.617.617.983,9.828v5.06c0,2.913,1.882,5.039,4.018,5.039,5.252-.179,5.4-9.814,0-10.079ZM44.185,30.644c-1.144,0-2.111-1.434-2.111-3.132.155-4.153,4.067-4.152,4.221,0C46.3,29.209,45.329,30.644,44.185,30.644Zm11.236,0c-1.144,0-2.111-1.434-2.111-3.132.155-4.153,4.067-4.152,4.221,0C57.531,29.209,56.565,30.644,55.421,30.644Z" transform="translate(0 0)" fill="#fff"/>
    <path id="Path_44577" data-name="Path 44577" d="M377.566,236.66v14.508a3,3,0,0,0,5.993,0V236.66A4.929,4.929,0,0,1,377.566,236.66Z" transform="translate(-315.949 -221.614)" fill="#fff"/>
    <path id="Path_44578" data-name="Path 44578" d="M382.605,0a5.045,5.045,0,0,0-5.039,5.039v6.129a3,3,0,0,0,5.993,0V.954A.954.954,0,0,0,382.605,0Z" transform="translate(-315.949)" fill="#fff"/>
  </g>
</svg>
