<svg xmlns="http://www.w3.org/2000/svg" width="11.382" height="9.626" viewBox="0 0 11.382 9.626">
  <g id="switch" transform="translate(-0.5 13.062) rotate(-90)">
    <path id="Path_45373" data-name="Path 45373" d="M5.65,4.2,6.92,2.929v8.242a.711.711,0,1,0,1.423,0V1.212a.711.711,0,0,0-1.214-.5L4.644,3.193A.711.711,0,0,0,5.65,4.2Z" transform="translate(-1 0)" fill="#1d4999"/>
    <path id="Path_45374" data-name="Path 45374" d="M17.364,11.829a.711.711,0,0,0,.775-.154l2.484-2.484a.711.711,0,1,0-1.006-1.006L18.347,9.454V1.212a.711.711,0,1,0-1.423,0v9.959a.709.709,0,0,0,.439.657Z" transform="translate(-7.769 -0.001)" fill="#1d4999"/>
  </g>
</svg>
