<svg xmlns="http://www.w3.org/2000/svg" width="12.806" height="14.261" viewBox="0 0 12.806 14.261">
  <g id="patient" transform="translate(-9.593 -5)">
    <path id="Path_44613" data-name="Path 44613" d="M13.145,60.918h5.7c2.014,0,3.553-.1,3.553-2.208A4.227,4.227,0,0,0,18.561,54.5C18.544,55.272,16,57.174,16,57.174s-2.549-1.9-2.566-2.673A4.227,4.227,0,0,0,9.593,58.71c0,2.105,1.538,2.208,3.552,2.208ZM17.9,58.044a.12.12,0,0,1,.127-.113h.688v-.688a.121.121,0,0,1,.113-.127H19.5a.12.12,0,0,1,.113.127v.688h.688a.121.121,0,0,1,.127.113v.679a.12.12,0,0,1-.127.113h-.688v.688a.121.121,0,0,1-.113.127h-.679a.12.12,0,0,1-.113-.127v-.688h-.688a.121.121,0,0,1-.127-.113Z" transform="translate(0 -41.657)" fill="#546788"/>
    <path id="Path_44614" data-name="Path 44614" d="M31.293,13.4c1.947,0,3.524-2.927,3.524-4.873a3.524,3.524,0,0,0-7.048,0C27.769,10.47,29.347,13.4,31.293,13.4Z" transform="translate(-15.296)" fill="#546788"/>
  </g>
</svg>
