<svg xmlns="http://www.w3.org/2000/svg" width="17" height="17" viewBox="0 0 17 17">
  <g id="Group_18939" data-name="Group 18939" transform="translate(0 -0.001)">
    <path id="Path_50145" data-name="Path 50145" d="M118.464,8.856l3.869-3.87a2.92,2.92,0,0,0-3.87-4.361,2.92,2.92,0,0,0-3.87,4.361Zm-1.305-5.292h.807V2.756h1v.807h.807v1h-.807v.807h-1V4.56h-.807Z" transform="translate(-109.964 0)" fill="#546788"/>
    <path id="Path_50146" data-name="Path 50146" d="M278.4,85.535v3.853s0,0,0,.005a1.708,1.708,0,0,1-.5,1.215l-2.826,2.826-.7-.7,2.826-2.826a.723.723,0,1,0-1.022-1.022l-2.955,2.955a3.534,3.534,0,0,0-1.042,2.515v3.725H276.1v-1.4l4.037-4.037V83.862h-.064A1.675,1.675,0,0,0,278.4,85.535Z" transform="translate(-263.138 -81.077)" fill="#546788"/>
    <path id="Path_50147" data-name="Path 50147" d="M3.966,88.882A.723.723,0,0,0,2.944,89.9L5.77,92.73l-.7.7L2.24,90.609a1.707,1.707,0,0,1-.5-1.215v-.005h0V85.535A1.675,1.675,0,0,0,.064,83.862H0V92.64l4.037,4.037v1.4H7.963V94.352a3.534,3.534,0,0,0-1.042-2.515Z" transform="translate(0 -81.077)" fill="#546788"/>
  </g>
</svg>
