<svg id="temperature" xmlns="http://www.w3.org/2000/svg" width="17.166" height="16.331" viewBox="0 0 17.166 16.331">
  <g id="Group_8096" data-name="Group 8096" transform="translate(0 1.914)">
    <g id="Group_8094" data-name="Group 8094" transform="translate(14.927 0)">
      <g id="Group_8093" data-name="Group 8093">
        <g id="Group_8092" data-name="Group 8092">
          <path id="Path_44449" data-name="Path 44449" d="M427.679,60.957h-1.12a.484.484,0,1,1,0-.957h1.12a.484.484,0,1,1,0,.957Z" transform="translate(-426 -60)" fill="#546788"/>
          <path id="Path_44450" data-name="Path 44450" d="M427.119,120.957h-.56a.484.484,0,1,1,0-.957h.56a.484.484,0,1,1,0,.957Z" transform="translate(-426 -118.086)" fill="#546788"/>
          <path id="Path_44451" data-name="Path 44451" d="M427.679,180.957h-1.12a.484.484,0,1,1,0-.957h1.12a.484.484,0,1,1,0,.957Z" transform="translate(-426 -176.172)" fill="#546788"/>
          <path id="Path_44452" data-name="Path 44452" d="M427.119,240.957h-.56a.484.484,0,1,1,0-.957h.56a.484.484,0,1,1,0,.957Z" transform="translate(-426 -234.259)" fill="#546788"/>
          <path id="Path_44453" data-name="Path 44453" d="M427.679,300.957h-1.12a.484.484,0,1,1,0-.957h1.12a.484.484,0,1,1,0,.957Z" transform="translate(-426 -292.345)" fill="#546788"/>
        </g>
      </g>
    </g>
    <g id="Group_8095" data-name="Group 8095">
      <path id="Path_44454" data-name="Path 44454" d="M28.612,66.219V61.633l.537.459a.629.629,0,0,0,.792,0,.431.431,0,0,0,0-.677L28.448,60.14a.629.629,0,0,0-.792,0l-1.493,1.276a.431.431,0,0,0,0,.677.629.629,0,0,0,.792,0l.537-.459v4.586a.567.567,0,0,0,1.12,0Z" transform="translate(-26 -59.999)" fill="#546788"/>
      <path id="Path_44455" data-name="Path 44455" d="M89.942,184.606a.629.629,0,0,0-.792,0l-.537.459v-4.586a.567.567,0,0,0-1.12,0v4.586l-.537-.459a.629.629,0,0,0-.792,0,.431.431,0,0,0,0,.677l1.493,1.276a.629.629,0,0,0,.792,0l1.493-1.276A.431.431,0,0,0,89.942,184.606Z" transform="translate(-83.761 -176.172)" fill="#546788"/>
    </g>
  </g>
  <g id="Group_8097" data-name="Group 8097" transform="translate(7.09)">
    <ellipse id="Ellipse_639" data-name="Ellipse 639" cx="0.554" cy="0.474" rx="0.554" ry="0.474" transform="translate(3.44 12.544)" fill="#546788"/>
    <path id="Path_44456" data-name="Path 44456" d="M222.344,10.352V2.073a2.456,2.456,0,0,0-4.851,0v8.278A3.2,3.2,0,0,0,216,12.982a3.967,3.967,0,0,0,7.837,0A3.2,3.2,0,0,0,222.344,10.352Zm-2.426,4.066a1.574,1.574,0,0,1-1.679-1.435,1.472,1.472,0,0,1,1.12-1.353V6.22a.567.567,0,0,1,1.12,0v5.409a1.472,1.472,0,0,1,1.12,1.353A1.574,1.574,0,0,1,219.918,14.417Z" transform="translate(-216)" fill="#546788"/>
  </g>
</svg>
