<svg xmlns="http://www.w3.org/2000/svg" width="7.623" height="15.771" viewBox="0 0 7.623 15.771">
  <path id="temprature" d="M56.81,335.938A3.892,3.892,0,0,1,53,331.969a4.035,4.035,0,0,1,1.27-2.959v-6.3a2.54,2.54,0,1,1,5.081,0v6.3a4.035,4.035,0,0,1,1.27,2.959A3.892,3.892,0,0,1,56.81,335.938ZM58.5,330l-.423-.394v-6.895a1.27,1.27,0,1,0-2.54,0V329.6l-.423.394a2.685,2.685,0,0,0-.847,1.973,2.54,2.54,0,1,0,5.081,0A2.685,2.685,0,0,0,58.5,330Zm-1.693,3.957a1.946,1.946,0,0,1-1.905-1.985,1.981,1.981,0,0,1,1.27-1.871v-4.745h1.27V330.1a1.981,1.981,0,0,1,1.27,1.871A1.946,1.946,0,0,1,56.81,333.954Z" transform="translate(-52.999 -320.167)" fill="#fc7349" fill-rule="evenodd"/>
</svg>
