<svg xmlns="http://www.w3.org/2000/svg" width="12.832" height="19.113" viewBox="0 0 12.832 19.113">
  <path id="Path_50113" data-name="Path 50113" d="M88.531,2.6,87.181,0h2.127l1.063,2.051-.286.552H88.531Zm-4.4,15.189V4.233a1.324,1.324,0,0,1,1.323-1.323h4.474l-.711,1.372h-.683a.154.154,0,1,0,0,.308h4.028a.154.154,0,1,0,0-.308h-.523l.711-1.372h2.892a1.324,1.324,0,0,1,1.323,1.323V17.791a1.324,1.324,0,0,1-1.323,1.323H85.452a1.324,1.324,0,0,1-1.323-1.323ZM89.041,7.533a3.458,3.458,0,0,0,.415,1.6,1.128,1.128,0,0,0,2.18,0,3.458,3.458,0,0,0,.415-1.6,1.506,1.506,0,1,0-3.009,0Zm-2.155,7.2a.154.154,0,0,0,.122.06h7.076a.154.154,0,0,0,.149-.192l-.772-3.042a2.108,2.108,0,0,0-1.94-1.51h-.007a.154.154,0,0,0-.128.068l-.84,1.252-.84-1.252a.154.154,0,0,0-.128-.068H89.57a2.108,2.108,0,0,0-1.94,1.51L86.858,14.6a.154.154,0,0,0,.028.133Zm-1.029,2.694a.154.154,0,0,0,.154.154h9.069a.154.154,0,0,0,.154-.154V15.864a.154.154,0,0,0-.154-.154H86.011a.154.154,0,0,0-.154.154Zm3.7-13.148h2.127L93.909,0H91.782Z" transform="translate(-84.129)" fill="#546788"/>
</svg>
