<svg xmlns="http://www.w3.org/2000/svg" width="17.869" height="16.38" viewBox="0 0 17.869 16.38">
  <g id="transfer" transform="translate(0 -1)">
    <path id="Path_45355" data-name="Path 45355" d="M18.077,11.424a.559.559,0,0,1-.558-.558A3.913,3.913,0,0,0,13.61,6.956h-5.4v2.42a.559.559,0,0,1-.944.4L3.173,5.871a.558.558,0,0,1,0-.807L7.268,1.155a.559.559,0,0,1,.944.4v2.42h4.653a5.777,5.777,0,0,1,5.77,5.77v1.117A.559.559,0,0,1,18.077,11.424Z" transform="translate(-0.766)" fill="#1d4999"/>
    <path id="Path_45356" data-name="Path 45356" d="M10.424,18.865v-2.42H5.77A5.777,5.777,0,0,1,0,10.675V9.558a.558.558,0,0,1,1.117,0,3.913,3.913,0,0,0,3.909,3.909h5.4v-2.42a.559.559,0,0,1,.944-.4l4.095,3.909a.558.558,0,0,1,0,.807l-4.095,3.909A.559.559,0,0,1,10.424,18.865Z" transform="translate(0 -2.044)" fill="#1d4999"/>
  </g>
</svg>
