<svg xmlns="http://www.w3.org/2000/svg" width="14.139" height="21" viewBox="0 0 14.139 21">
  <g id="blood-drop" transform="translate(-83.641 0.001)">
    <path id="Path_44907" data-name="Path 44907" d="M90.4,107.621a.674.674,0,0,0-1.037,0c-1.5,1.8-5.723,7.14-5.723,10.019a6.242,6.242,0,1,0,12.482,0c0-2.878-4.225-8.217-5.723-10.019Zm.9,9.49h-.8v.8a.615.615,0,0,1-1.23,0v-.8h-.8a.615.615,0,0,1,0-1.23h.8v-.8a.615.615,0,0,1,1.23,0v.8h.8a.615.615,0,0,1,0,1.23Z" transform="translate(0 -102.975)" fill="#546788"/>
    <g id="Group_12429" data-name="Group 12429" transform="translate(92.888 -0.001)">
      <path id="Path_44908" data-name="Path 44908" d="M313.987,3.728a2.446,2.446,0,1,1-4.892,0c0-.947,1.2-2.582,1.92-3.476a.675.675,0,0,1,1.052,0c.719.894,1.92,2.53,1.92,3.476Z" transform="translate(-309.095 0.001)" fill="#546788"/>
    </g>
  </g>
</svg>
