<svg id="diet_2_" data-name="diet (2)" xmlns="http://www.w3.org/2000/svg" width="15.301" height="15.291" viewBox="0 0 15.301 15.291">
  <path id="Path_45271" data-name="Path 45271" d="M16.955,4.5h.532a2.719,2.719,0,0,0-.6-1.455l-.375.375a.273.273,0,1,1-.386-.386l.375-.375a2.719,2.719,0,0,0-1.455-.6v.532a.273.273,0,1,1-.546,0V2.051a2.719,2.719,0,0,0-1.455.6l.375.375a.273.273,0,1,1-.386.386l-.375-.375a2.719,2.719,0,0,0-.6,1.455h.532a.273.273,0,0,1,0,.546h-.532a2.719,2.719,0,0,0,.6,1.455l.375-.375a.273.273,0,1,1,.386.386l-.375.375a2.719,2.719,0,0,0,1.455.6V6.955a.273.273,0,1,1,.546,0v.532a2.719,2.719,0,0,0,1.455-.6l-.375-.375a.273.273,0,1,1,.386-.386l.375.375a2.719,2.719,0,0,0,.6-1.455h-.532a.273.273,0,0,1,0-.546Zm-1.912.546H14.5a.273.273,0,0,1,0-.546v-.82a.273.273,0,1,1,.546,0V4.5a.273.273,0,0,1,0,.546Z" transform="translate(-9.305 -2.051)" fill="#546788"/>
  <path id="Path_45272" data-name="Path 45272" d="M41.273,27.279a.273.273,0,0,0,.273-.273,4.028,4.028,0,0,1,.749-2.549.275.275,0,0,0-.022-.387A.27.27,0,0,0,42.093,24h-.017a.273.273,0,0,0-.188.092A4.549,4.549,0,0,0,41,27.005.273.273,0,0,0,41.273,27.279Z" transform="translate(-30.345 -18.003)" fill="#546788"/>
  <path id="Path_45273" data-name="Path 45273" d="M3.639,17.021a1.093,1.093,0,0,1-1.093-1.093V6.639A1.093,1.093,0,0,1,3.639,5.546h.848A3.279,3.279,0,0,1,4.807,5H3.639A1.641,1.641,0,0,0,2,6.639v9.289a1.641,1.641,0,0,0,1.639,1.639H8.8c-.1-.176-.185-.359-.266-.546Z" transform="translate(-2 -4.194)" fill="#546788"/>
  <path id="Path_45274" data-name="Path 45274" d="M34.294,10.62a4.31,4.31,0,0,1,.24-.418V6.639A1.641,1.641,0,0,0,32.894,5H31.727a3.279,3.279,0,0,1,.32.546h.847a1.093,1.093,0,0,1,1.093,1.093v3.815a2.278,2.278,0,0,1,.3.16Z" transform="translate(-23.605 -4.194)" fill="#546788"/>
  <path id="Path_45275" data-name="Path 45275" d="M32.517,27.021a4.949,4.949,0,0,1,1.524.219,5.565,5.565,0,0,1,.252-.914.72.72,0,0,0-.074-.055,1.3,1.3,0,0,0-.882-.21c-.148,0-.322,0-.539-.014a2.461,2.461,0,0,1-.767-.146,3.51,3.51,0,0,0,.246,1.134A2.126,2.126,0,0,1,32.517,27.021Z" transform="translate(-23.826 -19.385)" fill="#546788"/>
  <path id="Path_45276" data-name="Path 45276" d="M12.754,13.009a.379.379,0,0,1,.376.007,1.544,1.544,0,0,0,.776.2c.21.011.377.013.519.014.118,0,.222,0,.319.008V9.546A.546.546,0,0,0,14.2,9h-.658A3.279,3.279,0,1,1,7.2,9H6.546A.546.546,0,0,0,6,9.546v9.289a.546.546,0,0,0,.546.546h4.685a5.761,5.761,0,0,1-.314-1.822,2.814,2.814,0,0,1,1.9-2.7,4.4,4.4,0,0,1-.258-1.522A.379.379,0,0,1,12.754,13.009Z" transform="translate(-4.907 -7.101)" fill="#546788"/>
  <path id="Path_45277" data-name="Path 45277" d="M32.606,32a4.317,4.317,0,0,0-1.378.2,4.822,4.822,0,0,0-.04.618.82.82,0,1,1-1.639,0c0-.209.012-.405.03-.595A4.271,4.271,0,0,0,28.131,32,2.211,2.211,0,0,0,26,34.274c0,2.442,2,4.828,3.167,4.828a1.816,1.816,0,0,0,1.052-.246.273.273,0,0,1,.3,0,1.816,1.816,0,0,0,1.052.246c1.163,0,3.167-2.385,3.167-4.828A2.211,2.211,0,0,0,32.606,32Z" transform="translate(-19.44 -23.816)" fill="#546788"/>
</svg>
