<svg xmlns="http://www.w3.org/2000/svg" width="18.73" height="19.044" viewBox="0 0 18.73 19.044">
  <g id="unit_1_" data-name="unit (1)" transform="translate(-0.198)">
    <path id="Path_45949" data-name="Path 45949" d="M11.226,5.951A2.976,2.976,0,1,1,14.2,2.976,2.979,2.979,0,0,1,11.226,5.951Zm0-4.364a1.389,1.389,0,1,0,1.389,1.389A1.39,1.39,0,0,0,11.226,1.587Z" transform="translate(-1.663)" fill="#929292"/>
    <path id="Path_45950" data-name="Path 45950" d="M15.393,12.5H14.5v1.389h.893a.694.694,0,0,0,0-1.389Z" transform="translate(-2.953 -2.581)" fill="#929292"/>
    <path id="Path_45951" data-name="Path 45951" d="M16.813,7.14A1.387,1.387,0,0,0,15.447,6H3.678A1.388,1.388,0,0,0,2.312,7.14L.22,18.646a1.389,1.389,0,0,0,1.366,1.637H17.539a1.389,1.389,0,0,0,1.366-1.637ZM8.174,16.316H5.4a.6.6,0,0,1-.6-.6V10.563a.6.6,0,1,1,1.19,0v4.563H8.174a.6.6,0,0,1,0,1.19Zm6.15-1.885a1.886,1.886,0,0,1-1.885,1.885H10.951a.6.6,0,0,1-.6-.6V10.563a.6.6,0,0,1,.6-.6h1.488a1.883,1.883,0,0,1,1.373,3.174A1.876,1.876,0,0,1,14.324,14.431Z" transform="translate(0 -1.239)" fill="#929292"/>
    <path id="Path_45952" data-name="Path 45952" d="M15.393,15.75H14.5v1.389h.893a.694.694,0,0,0,0-1.389Z" transform="translate(-2.953 -3.252)" fill="#929292"/>
  </g>
</svg>
