<svg xmlns="http://www.w3.org/2000/svg" width="9.305" height="16.284" viewBox="0 0 9.305 16.284">
  <path id="up-down" d="M10.653,3a1.163,1.163,0,0,1,.822.341L14.965,6.83A1.163,1.163,0,1,1,13.32,8.475L10.653,5.808,7.986,8.475A1.163,1.163,0,1,1,6.341,6.83L9.83,3.341A1.163,1.163,0,0,1,10.653,3ZM6.341,13.809a1.163,1.163,0,0,1,1.645,0l2.667,2.667,2.667-2.667a1.163,1.163,0,1,1,1.645,1.645l-3.489,3.489a1.163,1.163,0,0,1-1.645,0L6.341,15.454A1.163,1.163,0,0,1,6.341,13.809Z" transform="translate(-6 -3)" fill="#546788" fill-rule="evenodd"/>
</svg>
