<svg xmlns="http://www.w3.org/2000/svg" width="13.057" height="15.651" viewBox="0 0 13.057 15.651">
  <g id="user_3_" data-name="user (3)" transform="translate(0 0)">
    <path id="Path_44875" data-name="Path 44875" d="M90.8,7.539a3.647,3.647,0,0,0,2.665-1.1,3.647,3.647,0,0,0,1.1-2.665,3.648,3.648,0,0,0-1.1-2.665,3.769,3.769,0,0,0-5.33,0,3.648,3.648,0,0,0-1.1,2.665,3.647,3.647,0,0,0,1.1,2.665A3.648,3.648,0,0,0,90.8,7.539Zm0,0" transform="translate(-84.371 0)" fill="#546788"/>
    <path id="Path_44876" data-name="Path 44876" d="M13.026,251.791a9.31,9.31,0,0,0-.127-.989,7.791,7.791,0,0,0-.243-.994,4.912,4.912,0,0,0-.409-.927,3.5,3.5,0,0,0-.616-.8,2.718,2.718,0,0,0-.885-.556,3.06,3.06,0,0,0-1.13-.2,1.147,1.147,0,0,0-.613.26c-.184.12-.4.258-.638.411a3.656,3.656,0,0,1-.826.364,3.207,3.207,0,0,1-2.02,0,3.649,3.649,0,0,1-.825-.364c-.237-.152-.452-.29-.639-.412a1.146,1.146,0,0,0-.612-.26,3.056,3.056,0,0,0-1.13.2,2.715,2.715,0,0,0-.886.556,3.5,3.5,0,0,0-.616.8,4.92,4.92,0,0,0-.409.927,7.811,7.811,0,0,0-.243.994,9.278,9.278,0,0,0-.127.989c-.021.3-.031.61-.031.924a2.6,2.6,0,0,0,.772,1.966,2.778,2.778,0,0,0,1.989.726H10.3a2.778,2.778,0,0,0,1.989-.726,2.6,2.6,0,0,0,.772-1.966c0-.315-.011-.626-.032-.924Zm0,0" transform="translate(0 -239.756)" fill="#546788"/>
  </g>
</svg>
