<svg id="user_3_" data-name="user (3)" xmlns="http://www.w3.org/2000/svg" width="13.868" height="16.623" viewBox="0 0 13.868 16.623">
  <path id="Path_44875" data-name="Path 44875" d="M91.035,8.007a3.874,3.874,0,0,0,2.831-1.173A3.874,3.874,0,0,0,95.039,4a3.874,3.874,0,0,0-1.173-2.831,4,4,0,0,0-5.662,0A3.874,3.874,0,0,0,87.032,4,3.874,3.874,0,0,0,88.2,6.835,3.875,3.875,0,0,0,91.035,8.007Zm0,0" transform="translate(-84.206 0)" fill="#546788"/>
  <path id="Path_44876" data-name="Path 44876" d="M13.835,252.069a9.889,9.889,0,0,0-.135-1.05,8.275,8.275,0,0,0-.258-1.056,5.216,5.216,0,0,0-.434-.985,3.717,3.717,0,0,0-.655-.853,2.887,2.887,0,0,0-.94-.591,3.25,3.25,0,0,0-1.2-.217,1.219,1.219,0,0,0-.651.276c-.2.127-.423.274-.678.437a3.884,3.884,0,0,1-.877.386,3.406,3.406,0,0,1-2.146,0,3.875,3.875,0,0,1-.876-.386c-.252-.161-.481-.308-.678-.437a1.217,1.217,0,0,0-.65-.276,3.245,3.245,0,0,0-1.2.218,2.884,2.884,0,0,0-.94.591,3.718,3.718,0,0,0-.654.853,5.226,5.226,0,0,0-.434.985,8.3,8.3,0,0,0-.258,1.056,9.854,9.854,0,0,0-.135,1.051c-.022.318-.033.648-.033.982a2.76,2.76,0,0,0,.82,2.088,2.951,2.951,0,0,0,2.112.771h8a2.95,2.95,0,0,0,2.112-.771,2.759,2.759,0,0,0,.82-2.088c0-.335-.011-.665-.034-.982Zm0,0" transform="translate(0 -239.287)" fill="#546788"/>
</svg>
