<svg xmlns="http://www.w3.org/2000/svg" width="15.585" height="18.68" viewBox="0 0 15.585 18.68">
  <g id="user_3_" data-name="user (3)" transform="translate(0 0)">
    <path id="Path_44875" data-name="Path 44875" d="M91.531,9A4.353,4.353,0,0,0,94.712,7.68,4.353,4.353,0,0,0,96.03,4.5a4.354,4.354,0,0,0-1.318-3.181,4.5,4.5,0,0,0-6.362,0A4.354,4.354,0,0,0,87.032,4.5,4.353,4.353,0,0,0,88.35,7.68,4.354,4.354,0,0,0,91.531,9Zm0,0" transform="translate(-83.857 0)" fill="#546788"/>
    <path id="Path_44876" data-name="Path 44876" d="M15.547,252.657a11.113,11.113,0,0,0-.151-1.18,9.3,9.3,0,0,0-.29-1.187,5.862,5.862,0,0,0-.488-1.107,4.177,4.177,0,0,0-.736-.959,3.244,3.244,0,0,0-1.057-.664,3.652,3.652,0,0,0-1.349-.244,1.369,1.369,0,0,0-.731.31c-.219.143-.476.308-.762.491a4.365,4.365,0,0,1-.986.434,3.827,3.827,0,0,1-2.411,0,4.355,4.355,0,0,1-.985-.434c-.283-.181-.54-.346-.762-.491a1.367,1.367,0,0,0-.731-.31,3.648,3.648,0,0,0-1.349.244,3.241,3.241,0,0,0-1.057.664,4.178,4.178,0,0,0-.735.959,5.873,5.873,0,0,0-.488,1.107,9.321,9.321,0,0,0-.29,1.187,11.074,11.074,0,0,0-.151,1.181c-.025.357-.037.728-.037,1.1a3.1,3.1,0,0,0,.921,2.347,3.316,3.316,0,0,0,2.374.866H12.29a3.316,3.316,0,0,0,2.374-.866,3.1,3.1,0,0,0,.921-2.347c0-.376-.013-.748-.038-1.1Zm0,0" transform="translate(0 -238.293)" fill="#546788"/>
  </g>
</svg>
