<svg xmlns="http://www.w3.org/2000/svg" width="16" height="16" viewBox="0 0 16 16">
  <g id="Group_12440" data-name="Group 12440" transform="translate(-1685 -244)">
    <rect id="Rectangle_18834" data-name="Rectangle 18834" width="16" height="16" rx="8" transform="translate(1685 244)" fill="#319731"/>
    <g id="check" transform="translate(1688.82 248.843)">
      <path id="Path_44397" data-name="Path 44397" d="M8.68-439.85c-.191.064-.2.07-2.632,2.657l-2.4,2.545L2.569-435.8c-1.007-1.067-1.093-1.154-1.206-1.211a.7.7,0,0,0-.827.122.811.811,0,0,0-.228.705c.046.26.016.227,1.528,1.828,1.322,1.4,1.4,1.486,1.515,1.538a.749.749,0,0,0,.468.048c.222-.064.127.031,2.967-2.989,2.94-3.13,2.772-2.938,2.818-3.215a.79.79,0,0,0-.532-.877A.8.8,0,0,0,8.68-439.85Z" transform="translate(-0.298 439.875)" fill="#fff"/>
    </g>
  </g>
</svg>
