<svg id="statistics" xmlns="http://www.w3.org/2000/svg" width="21.693" height="22.986" viewBox="0 0 21.693 22.986">
  <path id="Path_44533" data-name="Path 44533" d="M322.6,16.546h-2.722a.383.383,0,0,1-.383-.383V13.441a.287.287,0,0,1,.49-.2l2.817,2.817A.287.287,0,0,1,322.6,16.546Z" transform="translate(-304.846 -12.523)" fill="#929292"/>
  <path id="Path_44534" data-name="Path 44534" d="M28.537,4.789a1.149,1.149,0,0,1-1.149-1.149V.287A.287.287,0,0,0,27.1,0H14.649A1.149,1.149,0,0,0,13.5,1.149V21.837a1.149,1.149,0,0,0,1.149,1.149H31.027a1.145,1.145,0,0,0,.362-.058.382.382,0,0,0,.261-.366c0-.232,0-.778,0-2.287a.377.377,0,0,0-.14-.3,2.117,2.117,0,0,1-.807-1.663v-.154a.384.384,0,0,0-.138-.291,1.146,1.146,0,0,1-.4-.871V11.073a.386.386,0,0,0-.109-.268,1.15,1.15,0,0,1,.5-1.9.378.378,0,0,0,.277-.361V7.573a.377.377,0,0,0-.094-.25,1.149,1.149,0,0,1,.86-1.912h.287a.287.287,0,0,0,.287-.287V5.076a.287.287,0,0,0-.287-.287H28.537ZM24.61,6.728a.383.383,0,1,1,0-.766,10.692,10.692,0,0,1,1.521.015.382.382,0,0,1,.275.368V7.758a.383.383,0,1,1-.766,0V7.27l-2.924,2.924a.384.384,0,0,1-.542,0L20.96,8.98l-3.454,3.455a.383.383,0,0,1-.542-.542l3.725-3.725a.384.384,0,0,1,.542,0l1.213,1.214L25.1,6.728ZM16.756,2.634h3.256a.383.383,0,0,1,0,.766H16.756a.383.383,0,1,1,0-.766Zm0,2.394h4.214a.383.383,0,0,1,0,.766H16.756a.383.383,0,1,1,0-.766ZM29.3,19.3a.383.383,0,0,1-.383.383H16.756a.383.383,0,0,1-.383-.383V14.845a.383.383,0,0,1,.383-.383h2.778a.383.383,0,0,1,.383.383v4.07h1.245V12.93a.383.383,0,0,1,.383-.383h2.586a.383.383,0,0,1,.383.383v5.986h1.245v-7.9a.383.383,0,0,1,.383-.383H28.92a.383.383,0,0,1,.383.383Z" transform="translate(-13.5)" fill="#929292"/>
  <path id="Path_44535" data-name="Path 44535" d="M89.5,318h2.011v3.687H89.5Z" transform="translate(-85.86 -302.772)" fill="#929292"/>
  <path id="Path_44536" data-name="Path 44536" d="M189.5,278h1.82v5.6H189.5Z" transform="translate(-181.072 -264.687)" fill="#929292"/>
  <path id="Path_44537" data-name="Path 44537" d="M285.5,238h2.011v7.518H285.5Z" transform="translate(-272.474 -226.603)" fill="#929292"/>
  <path id="Path_44538" data-name="Path 44538" d="M386.755,129.358a.383.383,0,0,1-.382.408V131.3a.383.383,0,0,1-.383.383h-1.724a.383.383,0,0,1-.383-.383v-1.532a.383.383,0,0,1-.382-.408.392.392,0,0,1,.4-.358h2.464A.392.392,0,0,1,386.755,129.358Z" transform="translate(-365.781 -122.822)" fill="#929292"/>
  <path id="Path_44539" data-name="Path 44539" d="M391.5,379a.383.383,0,0,1,.374.469,1.358,1.358,0,0,1-.961,1v2.969a.392.392,0,0,1-.358.4.383.383,0,0,1-.408-.382v-3a1.359,1.359,0,0,1-.913-.992.383.383,0,0,1,.375-.465Z" transform="translate(-371.235 -360.85)" fill="#929292"/>
  <path id="Path_44540" data-name="Path 44540" d="M373.193,201.383a.383.383,0,0,1-.383.383h-.1v6.609a.383.383,0,0,1-.383.383h-3.017a.383.383,0,0,1-.383-.383v-6.609h-.048a.383.383,0,1,1,0-.766h3.927A.383.383,0,0,1,373.193,201.383Z" transform="translate(-351.5 -191.374)" fill="#929292"/>
</svg>
