<svg width="12" height="8" viewBox="0 0 12 8" fill="none" xmlns="http://www.w3.org/2000/svg">
<g id="Vector">
<path d="M10.9961 0H1.61829C1.46895 0 1.32849 0.0351556 1.20113 0.0940667L4.8584 3.76347C4.85864 3.76371 4.85893 3.76376 4.85918 3.764C4.85942 3.76425 4.85947 3.76458 4.85947 3.76458L6.04864 4.95769C6.17495 5.084 6.43944 5.084 6.56575 4.95769L7.75469 3.76478C7.75469 3.76478 7.75498 3.76425 7.75522 3.764C7.75522 3.764 7.75575 3.76371 7.756 3.76347L11.4132 0.0940445C11.2858 0.0351112 11.1454 0 10.9961 0Z" fill="#434242"/>
<path d="M7.99064 4.47224L7.03773 5.42838C6.65131 5.81616 5.9714 5.82451 5.57662 5.42838L4.62367 4.47224L1.20109 7.90593C1.32849 7.96484 1.46895 8 1.61829 8H10.9961C11.1454 8 11.2858 7.96489 11.4132 7.90596L7.99064 4.47224Z" fill="#434242"/>
<path d="M0.724642 0.560268C0.658731 0.693556 0.618286 0.841512 0.618286 1V7C0.618286 7.15849 0.658686 7.30645 0.724619 7.43973L4.15313 4.00011L0.724642 0.560268Z" fill="#434242"/>
<path d="M11.8897 0.560221L8.46125 4.00011L11.8897 7.43978C11.9556 7.30649 11.9961 7.15853 11.9961 7V0.999999C11.9961 0.841466 11.9556 0.69351 11.8897 0.560221Z" fill="#434242"/>
</g>
</svg>
