<svg xmlns="http://www.w3.org/2000/svg" width="17.95" height="11.819" viewBox="0 0 17.95 11.819">
  <g id="_x32_4_x2C__Healthy_Food_x2C__diet_x2C__fruits_and_vegetables_x2C__food_x2C__vegetarian_x2C__vegetables" transform="translate(-1 -88.1)">
    <g id="Group_12428" data-name="Group 12428" transform="translate(1 88.1)">
      <g id="Group_12427" data-name="Group 12427">
        <path id="Path_44903" data-name="Path 44903" d="M6.862,100.977l.132.026a3.03,3.03,0,0,1,1-2.919A2.989,2.989,0,0,0,7.386,96.4a2.243,2.243,0,0,0-.02-1.123.281.281,0,0,0-.2-.2,2.449,2.449,0,0,0-2.379.673V95.08a.281.281,0,1,0-.561,0v1.764a1.991,1.991,0,0,0-1.862-.911C1.244,96.178.73,97.9,1.14,99.649a5.225,5.225,0,0,0,.507,1.329.858.858,0,0,1,1.37-.058l.945,1.149a2.638,2.638,0,0,0,.661.574v0A1.88,1.88,0,0,1,6.862,100.977Z" transform="translate(-1 -94.563)" fill="#546788"/>
        <path id="Path_44904" data-name="Path 44904" d="M4.646,276.992,3.7,275.843a.3.3,0,0,0-.46.379l.977,1.187a.281.281,0,0,1-.244.458l-1.49-.145a.3.3,0,0,0-.058.593l1.49.145a.281.281,0,0,1,.151.5l-1.187.977a.3.3,0,1,0,.379.46l1.149-.945a3.21,3.21,0,0,1,1.175-.611l.1-1.02a3.19,3.19,0,0,1-1.035-.826Z" transform="translate(-2.116 -269.13)" fill="#546788"/>
        <path id="Path_44905" data-name="Path 44905" d="M185.6,94.662l.785.156a1.811,1.811,0,1,1,2.7.539l.786.157a2.476,2.476,0,0,0,.482-2.224,2.415,2.415,0,0,1,.135-1.591,1.546,1.546,0,0,0,.12-.79,1.592,1.592,0,0,0,1.346-1.406.281.281,0,0,0-.114-.257,1.6,1.6,0,0,0-1.452-.218l.21-.547a.281.281,0,0,0-.524-.2l-.507,1.318a1.56,1.56,0,0,0-1.981.97,2.564,2.564,0,0,1-1,1.308A2.468,2.468,0,0,0,185.6,94.662Z" transform="translate(-178.994 -88.1)" fill="#546788"/>
        <path id="Path_44906" data-name="Path 44906" d="M337.9,171.019a2.093,2.093,0,0,1-.175.8,1.852,1.852,0,0,0-.107,1.22,3.023,3.023,0,0,1-.049,1.747,6,6,0,0,0,3.268-2.558A2.534,2.534,0,0,0,337.9,171.019Z" transform="translate(-325.712 -168)" fill="#546788"/>
        <path id="Path_44907" data-name="Path 44907" d="M221.967,218.355a1.252,1.252,0,0,0-1.076,2.247l.844.168A1.254,1.254,0,0,0,221.967,218.355Z" transform="translate(-212.573 -213.698)" fill="#546788"/>
        <path id="Path_44908" data-name="Path 44908" d="M126.38,287.487l-2.27-.452-.065.671a.281.281,0,0,1-.559-.054l.071-.726-1.728-.344-.088.9a.281.281,0,1,1-.559-.054l.093-.957-1.729-.344-.11,1.131a.281.281,0,0,1-.559-.054l.115-1.187-1.728-.344-.132,1.362a.281.281,0,1,1-.559-.054l.138-1.418-1.441-.287a1.319,1.319,0,0,0-1.569,1.165l-.218,2.244a1.319,1.319,0,0,0,1.316,1.446h.306l.149-1.533a.281.281,0,1,1,.559.054l-.144,1.477,1.762,0,.127-1.3a.281.281,0,0,1,.559.054L118,290.12l1.762,0,.1-1.072a.281.281,0,1,1,.559.054l-.1,1.016,1.762,0,.082-.842a.281.281,0,0,1,.559.054l-.076.786,3.478-.01a1.318,1.318,0,0,0,.254-2.611Z" transform="translate(-109.519 -278.31)" fill="#546788"/>
        <path id="Path_44909" data-name="Path 44909" d="M327.476,136.992l-.045.068,3.62.721a5.657,5.657,0,0,0,1.5-1.009,4.313,4.313,0,0,0,.575-5.57.389.389,0,0,0-.555-.084.381.381,0,0,0-.148.265,6.3,6.3,0,0,1-1.263,3.221A6.653,6.653,0,0,1,327.476,136.992Z" transform="translate(-315.942 -129.526)" fill="#546788"/>
      </g>
    </g>
  </g>
</svg>
