<svg xmlns="http://www.w3.org/2000/svg" width="14.696" height="15.771" viewBox="0 0 14.696 15.771">
  <path id="oxygen-tank" d="M6.075,4.151V3.434a.359.359,0,0,1,.358-.358h.717V4.509H6.434A.359.359,0,0,1,6.075,4.151Zm5.735-.358A1.071,1.071,0,0,0,10.018,3V4.588a1.071,1.071,0,0,0,1.792-.8Zm5.377,6.427v4.326a1.434,1.434,0,1,1-2.867,0V5.584a2.152,2.152,0,0,0-1.826-2.123,1.673,1.673,0,0,1-.014.726,1.435,1.435,0,0,1,1.122,1.4v8.961a2.151,2.151,0,1,0,4.3,0V10.219a2.61,2.61,0,0,1-.717,0Zm.358-6.786c-1.586,0-2.151,2.037-2.151,3.943a2.151,2.151,0,0,0,4.3,0C19.7,5.471,19.131,3.434,17.545,3.434ZM9.3,5.3V2.358A.359.359,0,0,0,8.943,2H8.226a.359.359,0,0,0-.358.358V5.3A3.59,3.59,0,0,0,5,8.81v8.6a.358.358,0,0,0,.358.358H11.81a.358.358,0,0,0,.358-.358V8.81A3.59,3.59,0,0,0,9.3,5.3Z" transform="translate(-5 -2)" fill="#fc7349"/>
</svg>
