<svg xmlns="http://www.w3.org/2000/svg" width="15.158" height="17.2" viewBox="0 0 15.158 17.2">
  <path id="ventilation_1_" data-name="ventilation (1)" d="M42.45,7.112H39.14V5.7a.282.282,0,0,0-.282-.282h-2.8a.846.846,0,0,1-.845-.845V1.408a.846.846,0,0,1,.845-.845h5.61a.846.846,0,0,1,.845.845V4.577a.846.846,0,0,1-.845.845H38.522a.282.282,0,0,0,0,.563h3.141a1.41,1.41,0,0,0,1.408-1.408V1.408A1.41,1.41,0,0,0,41.663,0h-5.61a1.41,1.41,0,0,0-1.408,1.408V4.577a1.41,1.41,0,0,0,1.408,1.408h2.523V7.112h-3.31A1.41,1.41,0,0,0,33.859,8.52v3.8a1.41,1.41,0,0,0,1.408,1.408h.985a2.64,2.64,0,0,1-5.28-.035V11.548H32.1a.282.282,0,0,0,0-.563H30.972V9.964a.282.282,0,1,0-.563,0v1.021h-.07a.775.775,0,0,1-.775-.775V8.955a1.127,1.127,0,1,1,2.253,0v2.313a.282.282,0,0,0,.563,0V8.955a1.69,1.69,0,0,0-3.38,0V10.21a1.339,1.339,0,0,0,1.338,1.338h.07V13.7a3.208,3.208,0,0,0,3.2,3.2H38.26a3.208,3.208,0,0,0,3.2-3.2V12.247a1.128,1.128,0,0,0,1.021-1.122V9.858a1.128,1.128,0,0,0-1.127-1.127h-.352a1.128,1.128,0,0,0-1.127,1.127v1.268A1.128,1.128,0,0,0,40.9,12.247v.921H35.6a.282.282,0,1,0,0,.563h5.3a2.643,2.643,0,0,1-2.64,2.605H35.425A3.2,3.2,0,0,0,36.816,13.7V11.055a.282.282,0,0,0-.563,0v.387h-.106a.423.423,0,0,1-.423-.423V9.964a.423.423,0,0,1,.423-.423h.775a.423.423,0,0,1,.423.423v.7a.282.282,0,0,0,.563,0v-.7a.987.987,0,0,0-.986-.986h-.775a.987.987,0,0,0-.986.986V11.02a.987.987,0,0,0,.986.986h.106v1.162h-.986a.846.846,0,0,1-.845-.845V8.52a.846.846,0,0,1,.845-.845H42.45a.846.846,0,0,1,.845.845v3.8a.846.846,0,0,1-.845.845.282.282,0,1,0,0,.563,1.41,1.41,0,0,0,1.408-1.408V8.52A1.41,1.41,0,0,0,42.45,7.112Zm-2.007,4.014V9.858a.564.564,0,0,1,.563-.563h.352a.564.564,0,0,1,.563.563v1.268a.564.564,0,0,1-.563.563h-.352A.564.564,0,0,1,40.443,11.126Zm.187-7.852a.282.282,0,0,1,0-.563h.729a.282.282,0,1,1,0,.563Zm-.467-1.066-1.389,1.9a.282.282,0,0,1-.455,0l-.61-.835h-1.35a.282.282,0,1,1,0-.563h1.493a.282.282,0,0,1,.227.115l.467.639,1.162-1.59a.282.282,0,0,1,.455.332Z" transform="translate(-28.85 0.15)" fill="#fff" stroke="#fff" stroke-width="0.3"/>
</svg>
