<svg xmlns="http://www.w3.org/2000/svg" width="24.262" height="24.262" viewBox="0 0 24.262 24.262">
  <g id="Group_17253" data-name="Group 17253" transform="translate(-1334.5 -1017.5)">
    <rect id="Rectangle_20647" data-name="Rectangle 20647" width="24.262" height="24.262" transform="translate(1334.5 1017.5)" fill="#dff2fe"/>
    <g id="visible" transform="translate(1339.128 1024.436)">
      <g id="Group_8090" data-name="Group 8090" transform="translate(0 0)">
        <path id="Path_44427" data-name="Path 44427" d="M8.479,13.989c-4.1,0-7.242-4.595-7.392-4.795a.6.6,0,0,1,0-.7c.15-.2,3.3-4.895,7.392-4.895s7.242,4.695,7.392,4.895a.6.6,0,0,1,0,.7C15.721,9.394,12.575,13.989,8.479,13.989ZM2.436,8.844c.8,1,3.246,3.846,6.043,3.846s5.294-2.847,6.043-3.846c-.8-1.049-3.246-4-6.043-4S3.185,7.8,2.436,8.844Z" transform="translate(-0.975 -3.6)" fill="#3ca9ee"/>
      </g>
      <g id="Group_8091" data-name="Group 8091" transform="translate(4.357 2.048)">
        <path id="Path_44428" data-name="Path 44428" d="M12.847,13.993a3.147,3.147,0,1,1,3.147-3.147,3.133,3.133,0,0,1-3.147,3.147Zm0-5.044a1.9,1.9,0,1,0,1.9,1.9,1.9,1.9,0,0,0-1.9-1.9Z" transform="translate(-9.7 -7.7)" fill="#3ca9ee"/>
      </g>
    </g>
  </g>
</svg>
