<svg xmlns="http://www.w3.org/2000/svg" width="30" height="30" viewBox="0 0 30 30">
  <g id="view" transform="translate(19728.586 1263.893)">
    <rect id="Rectangle_21719" data-name="Rectangle 21719" width="30" height="30" transform="translate(-19728.586 -1263.893)" fill="#dff2fe"/>
    <g id="visible" transform="translate(-19722.441 -1257.959)">
      <g id="Group_8090" data-name="Group 8090" transform="translate(0.975 3.6)">
        <path id="Path_44427" data-name="Path 44427" d="M8.873,14.533c-4.31,0-7.622-4.836-7.779-5.046a.631.631,0,0,1,0-.736C1.251,8.541,4.562,3.6,8.873,3.6s7.622,4.941,7.779,5.151a.632.632,0,0,1,0,.736C16.494,9.7,13.183,14.533,8.873,14.533ZM2.512,9.119c.841,1.051,3.417,4.047,6.36,4.047s5.572-3,6.36-4.047c-.841-1.1-3.417-4.205-6.36-4.205S3.3,8.015,2.512,9.119Z" transform="translate(-0.975 -3.6)" fill="#3ca9ee"/>
      </g>
      <g id="Group_8091" data-name="Group 8091" transform="translate(5.561 5.755)">
        <path id="Path_44428" data-name="Path 44428" d="M13.011,14.323a3.311,3.311,0,1,1,3.311-3.311,3.3,3.3,0,0,1-3.311,3.311Zm0-5.309a2,2,0,1,0,2,2,2,2,0,0,0-2-2Z" transform="translate(-9.7 -7.7)" fill="#3ca9ee"/>
      </g>
    </g>
  </g>
</svg>
