<svg xmlns="http://www.w3.org/2000/svg" width="14.129" height="13.554" viewBox="0 0 14.129 13.554">
  <path id="virus" d="M6.359,13.4a.459.459,0,0,0-.458.458v1.168a.458.458,0,1,0,.916,0V14.6H7.2a2.711,2.711,0,0,0,.673,1.621L7.6,16.5l-.271-.271a.458.458,0,1,0-.648.648L7.5,17.7a.458.458,0,0,0,.648-.648l-.308-.309.274-.274a2.71,2.71,0,0,0,1.621.673v.4H9.36a.458.458,0,1,0,0,.916h1.168a.458.458,0,0,0,0-.916h-.44v-.4a2.71,2.71,0,0,0,1.621-.673l.289.289-.272.272a.458.458,0,0,0,.648.648l.826-.826a.458.458,0,1,0-.648-.648l-.307.307-.289-.289a2.708,2.708,0,0,0,.673-1.621h.411V15a.458.458,0,1,0,.916,0V13.832a.458.458,0,1,0-.916,0v.424h-.411a2.709,2.709,0,0,0-.673-1.621l.288-.288.287.287a.458.458,0,0,0,.648-.648l-.826-.826a.458.458,0,1,0-.648.648L12,12.1l-.288.288a2.709,2.709,0,0,0-1.621-.673V11.32h.41a.458.458,0,0,0,0-.916H9.33a.458.458,0,1,0,0,.916h.41v.395a2.709,2.709,0,0,0-1.621.673l-.273-.273.286-.286a.458.458,0,0,0-.648-.648l-.826.826a.458.458,0,1,0,.648.648l.294-.293.273.273A2.71,2.71,0,0,0,7.2,14.256H6.818v-.393A.459.459,0,0,0,6.36,13.4Zm2.317,1.565a.232.232,0,0,1-.231-.231v-.614a.231.231,0,0,1,.231-.231h.7v-.7a.232.232,0,0,1,.231-.231h.615a.231.231,0,0,1,.231.231v.7h.7a.231.231,0,0,1,.231.231v.615a.231.231,0,0,1-.231.231h-.7v.7a.231.231,0,0,1-.231.231H9.606a.232.232,0,0,1-.231-.231v-.7Zm.118-.728h.7a.231.231,0,0,0,.231-.231v-.7H10.1v.7a.231.231,0,0,0,.231.231h.7v.38h-.7a.231.231,0,0,0-.231.231v.7H9.724v-.7a.231.231,0,0,0-.231-.231h-.7Zm-6.93,9.717L0,20.117l2.007-.975,1.865,3.841ZM14.126,19.29a.707.707,0,0,1-.27.5L9.964,22.747a.627.627,0,0,1-.519.121l-4.528-.881a.573.573,0,0,0-.419.075l-.529.322-1.406-2.9,1.8-1.258a1.032,1.032,0,0,1,.93-.142l4.419,1.4a.654.654,0,0,1,.427.815l-.015.046a.647.647,0,0,1-.768.442L5.9,19.994a.174.174,0,1,0-.078.34l3.459.792a.992.992,0,0,0,.221.025,1.006,1.006,0,0,0,.958-.7l.015-.046a1,1,0,0,0,.044-.344l2.523-1.276a.725.725,0,0,1,.934.1l.015.017A.492.492,0,0,1,14.126,19.29Z" transform="translate(0 -10.404)" fill="#ff1118" fill-rule="evenodd"/>
</svg>
