<svg xmlns="http://www.w3.org/2000/svg" width="20.146" height="19.097" viewBox="0 0 20.146 19.097">
  <g id="heartbeat" transform="translate(0.1 0.1)">
    <path id="Fill-33" d="M10.9,16.645a.523.523,0,0,1-.492-.45l-.739-5.173L9.3,12.091a.526.526,0,0,1-.5.357H5.674a.525.525,0,0,1,0-1.051H8.428L9.376,8.6a.533.533,0,0,1,.546-.355.526.526,0,0,1,.471.449l.671,4.695,1.45-5.8a.541.541,0,0,1,.536-.4.525.525,0,0,1,.492.45l.735,5.147.347-1.04a.525.525,0,0,1,.5-.359h3.149a.525.525,0,0,1,0,1.051H15.5l-.93,2.789a.525.525,0,0,1-1.017-.092l-.671-4.695-1.45,5.8a.524.524,0,0,1-.509.4H10.9ZM3.05,8.773c0,6.289,7.439,11.093,8.923,11.989,1.484-.9,8.923-5.7,8.923-11.989,0-1.633-.767-4.724-3.674-4.724a7.2,7.2,0,0,0-4.857,2.187.543.543,0,0,1-.783,0A7.2,7.2,0,0,0,6.724,4.049C3.817,4.049,3.05,7.139,3.05,8.773Zm8.668,13.056C11.321,21.61,2,16.343,2,8.773,2,5.993,3.478,3,6.724,3a8.019,8.019,0,0,1,5.249,2.15A8.019,8.019,0,0,1,17.222,3c3.246,0,4.724,2.994,4.724,5.774,0,7.57-9.321,12.837-9.718,13.056a.525.525,0,0,1-.51,0Z" transform="translate(-2 -2.999)" fill="#6185c7" stroke="#6185c7" stroke-width="0.2" fill-rule="evenodd"/>
  </g>
</svg>
