<svg id="monitor_1_" data-name="monitor (1)" xmlns="http://www.w3.org/2000/svg" width="16" height="16" viewBox="0 0 16 16">
  <g id="Page-1_14_">
    <g id="body_care_filled_14_">
      <path id="monitor_x2C_-vitals_x2C_-life_x2C_-support_x2C_-lifeline_x2C_-medic" d="M297.412,536h13.177A1.412,1.412,0,0,1,312,537.412v13.177A1.412,1.412,0,0,1,310.588,552H297.412A1.412,1.412,0,0,1,296,550.588V537.412A1.412,1.412,0,0,1,297.412,536Zm1.882,12.941h4.235a.471.471,0,1,0,0-.941h-4.235a.471.471,0,1,0,0,.941Zm2.27-5.023.821,2.134a.471.471,0,0,0,.831.092l.8-1.2h4.689a.471.471,0,0,0,0-.941h-4.941a.471.471,0,0,0-.392.21l-.437.655-.85-2.21a.471.471,0,0,0-.848-.064l-.806,1.41h-1.139a.471.471,0,0,0,0,.941h1.412a.471.471,0,0,0,.409-.237Zm3.059-4.471.821,2.133a.471.471,0,0,0,.831.092l.8-1.2h1.631a.471.471,0,0,0,0-.941h-1.882a.471.471,0,0,0-.392.21l-.437.655-.85-2.21a.471.471,0,0,0-.848-.064l-.806,1.41h-4.2a.471.471,0,0,0,0,.941h4.471a.471.471,0,0,0,.409-.237Zm3.848,9.729a.706.706,0,1,0-.706-.706A.706.706,0,0,0,308.471,549.176Z" transform="translate(-296 -536)" fill="#1d4999"/>
    </g>
  </g>
</svg>
