<svg id="XMLID_11_" xmlns="http://www.w3.org/2000/svg" width="19.835" height="16.334" viewBox="0 0 19.835 16.334">
  <path id="XMLID_12_" d="M0,45v5.25H2.092L3.5,48.842l1.167,1.167,1.152-1.152,1.73,1.612,1.23-1.121,1.687.9h9.369V45Zm15.751,2.917H14.584V46.75h1.167Zm2.333,0H16.918V46.75h1.167Z" transform="translate(0 -45)" fill="#929292"/>
  <path id="XMLID_364_" d="M0,317.333H7.584v2.333H6.417v1.167h7v-1.167H12.251v-2.333h7.584V315H0Z" transform="translate(0 -304.499)" fill="#929292"/>
  <path id="XMLID_363_" d="M8.955,186.131l-1.415,1.29-1.693-1.577-1.181,1.181L3.5,185.858l-.925.925H0V189.7H19.835v-2.917H10.173Z" transform="translate(0 -180.366)" fill="#929292"/>
</svg>
