<svg xmlns="http://www.w3.org/2000/svg" width="10.921" height="17.064" viewBox="0 0 10.921 17.064">
  <g id="Group_18930" data-name="Group 18930" transform="translate(-78.336)">
    <g id="Group_18927" data-name="Group 18927" transform="translate(78.336 8.211)">
      <g id="Group_18926" data-name="Group 18926">
        <path id="Path_50124" data-name="Path 50124" d="M89.257,210.01a.6.6,0,1,0-1.2,0,4.256,4.256,0,1,1-8.512,0,.6.6,0,1,0-1.2,0,5.46,5.46,0,0,0,4.858,5.44v1.606H81.006a.6.6,0,0,0,0,1.2h5.581a.6.6,0,0,0,0-1.2H84.4v-1.606A5.46,5.46,0,0,0,89.257,210.01Z" transform="translate(-78.336 -209.408)" fill="#546788"/>
      </g>
    </g>
    <g id="Group_18929" data-name="Group 18929" transform="translate(80.444)">
      <g id="Group_18928" data-name="Group 18928">
        <path id="Path_50125" data-name="Path 50125" d="M135.449,0A3.358,3.358,0,0,0,132.1,3.353v5.44a3.353,3.353,0,1,0,6.705.02V3.353A3.359,3.359,0,0,0,135.449,0Z" transform="translate(-132.096 0)" fill="#546788"/>
      </g>
    </g>
  </g>
</svg>
