<svg xmlns="http://www.w3.org/2000/svg" width="16.385" height="16.173" viewBox="0 0 16.385 16.173">
  <g id="wet_mount" data-name="wet mount" transform="translate(-0.002 -3.329)">
    <g id="Page-1" transform="translate(0.002 3.329)">
      <g id="_x30_01---Paint-Splat" transform="translate(0 0)">
        <path id="Shape" d="M258.971,429.345a1.7,1.7,0,0,0-.251-.949.892.892,0,0,0-1.646.15,1.458,1.458,0,0,0,.125,1.506,1.164,1.164,0,0,0,.646.416C258.617,430.651,258.962,430.009,258.971,429.345Z" transform="translate(-248.731 -414.327)" fill="#546788"/>
        <path id="Shape_1_" d="M15.5,44.465a5.132,5.132,0,0,0-1.384.239,2.863,2.863,0,0,1-1.413.141c-.828-.237-.2-1.382.092-1.8a6.187,6.187,0,0,0,.9-1.411.934.934,0,0,0-.344-1.1.745.745,0,0,0-.587-.074c-.517.156-.824.763-1.141,1.161-.243.306-.861,1.066-1.33.807a.535.535,0,0,1-.22-.4c-.035-.207-.043-.42-.068-.628a1.394,1.394,0,0,0-.134-.492.647.647,0,0,0-.377-.329c-.283-.081-.476.12-.6.347a8.963,8.963,0,0,0-.477,1.4,1.744,1.744,0,0,1-.618.974c-.429.236-.725-.292-.87-.612a12.2,12.2,0,0,0-.5-1.143,1.48,1.48,0,0,0-1.1-.827,1.228,1.228,0,0,0-1.17.971,1.975,1.975,0,0,0,.208,1.372,9.833,9.833,0,0,0,1.855,2.08c.424.476-.767.3-.963.27-1.075-.176-2.38-.731-3.164.342a.849.849,0,0,0-.145.848.772.772,0,0,0,.4.356,3.356,3.356,0,0,0,1.4.1h.047a5.473,5.473,0,0,1,1.465.124c.318.083.718.246.771.613a.6.6,0,0,1,0,.158c0,.019-.006.038-.01.057-.121.582-.841.809-1.352.912a10.67,10.67,0,0,1-1.8.121,2.025,2.025,0,0,0-1.7.6,1.2,1.2,0,0,0-.19.685.709.709,0,0,0,.215.505.723.723,0,0,0,.345.161,1.605,1.605,0,0,0,.384.019c.381-.017.758-.087,1.136-.137.409-.053.819-.089,1.229-.133.312-.033.635-.066.95-.071.339-.005.811.034,1,.367a.729.729,0,0,1,0,.609,3.371,3.371,0,0,1-.636.956,2.765,2.765,0,0,0-.583.8.858.858,0,0,0,.471,1.1,1.447,1.447,0,0,0,1.075-.19,3.378,3.378,0,0,0,.858-.735c.365-.4.635-.876,1.017-1.262A3.619,3.619,0,0,1,9.7,51.5a1.775,1.775,0,0,1,1.6.037,1.84,1.84,0,0,1,.613.678c.477.809.787,1.989,1.908,2.071a1.607,1.607,0,0,0,1.219-.475,1.267,1.267,0,0,0,.41-1.267,1.711,1.711,0,0,0-1.063-.819A5.84,5.84,0,0,1,12.928,51a1.769,1.769,0,0,1-.628-.876.739.739,0,0,1-.012-.435c.105-.334.477-.382.778-.344s.6.1.9.141c.4.057.872.1,1.123-.288a.725.725,0,0,0-.314-1.037,1.2,1.2,0,0,0-.576-.085c-.121.008-.242.028-.364.026a.5.5,0,0,1-.529-.384.825.825,0,0,1,.148-.552c.308-.453.9-.461,1.4-.489a1.584,1.584,0,0,0,1.454-.666,1.358,1.358,0,0,0,.17-.747.9.9,0,0,0-.969-.8ZM9.6,43.2A2.639,2.639,0,0,1,8.489,44.54a1.834,1.834,0,0,1-.893.234,1.8,1.8,0,0,1-.606-.1.283.283,0,0,1,.19-.532,1.263,1.263,0,0,0,1.036-.093,2.062,2.062,0,0,0,.869-1.065.283.283,0,1,1,.52.221Z" transform="translate(-1.002 -39.251)" fill="#546788"/>
        <circle id="Oval" cx="0.706" cy="0.706" r="0.706" transform="translate(5.651)" fill="#546788"/>
        <circle id="Oval_1_" cx="0.848" cy="0.848" r="0.848" transform="translate(0.001 3.457)" fill="#546788"/>
        <circle id="Oval_2_" cx="0.706" cy="0.706" r="0.706" transform="translate(14.973 10.237)" fill="#546788"/>
      </g>
    </g>
  </g>
</svg>
