<svg xmlns="http://www.w3.org/2000/svg" width="11.826" height="11.819" viewBox="0 0 11.826 11.819">
  <g id="Wheat_Bag" data-name="Wheat Bag" transform="translate(0.001)">
    <g id="Glyph" transform="translate(-0.001)">
      <path id="Path_44899" data-name="Path 44899" d="M226.4,145.71c-.125-.481-.157-.665,0-.924-.125-.481-.157-.665,0-.924-.122-.474-.154-.654-.009-.907a1.072,1.072,0,0,0-.233-.433l-.5-.97a.185.185,0,0,0-.328.17l.427.821a1.9,1.9,0,0,0-.312.216,1.755,1.755,0,0,0-.715-.59l-.482-.926a.185.185,0,0,0-.328.17l.482.926a1.756,1.756,0,0,0,.071.923,1.833,1.833,0,0,0-.356.131l-.427-.82a.185.185,0,0,0-.328.17l.5.969a1.417,1.417,0,0,0,.387.667,1.743,1.743,0,0,0-.2.09.185.185,0,0,0-.078.248,2.081,2.081,0,0,0,.48.587.185.185,0,0,0-.054.232,2.08,2.08,0,0,0,.48.587.185.185,0,0,0-.054.232,2.08,2.08,0,0,0,.48.587.185.185,0,0,0-.054.232,1.858,1.858,0,0,0,.962.858,2,2,0,0,0,1.208-.171A2.122,2.122,0,0,1,226.4,145.71Z" transform="translate(-218.178 -137.886)" fill="#546788"/>
      <path id="Path_44900" data-name="Path 44900" d="M371.217,100.156a2.081,2.081,0,0,0,.155-.743.185.185,0,0,0-.184-.184,1.491,1.491,0,0,0-.253.025,1.356,1.356,0,0,0,.068-.779V97.382a.185.185,0,0,0-.37,0v.926a1.906,1.906,0,0,0-.376.048,1.755,1.755,0,0,0-.363-.853V96.458a.185.185,0,0,0-.37,0V97.5a1.755,1.755,0,0,0-.362.852,1.834,1.834,0,0,0-.377-.048v-.925a.185.185,0,0,0-.37,0v1.092a1.417,1.417,0,0,0,.036.77,1.735,1.735,0,0,0-.222-.015.185.185,0,0,0-.184.184,2.081,2.081,0,0,0,.155.743.185.185,0,0,0-.155.181,2.081,2.081,0,0,0,.155.743.185.185,0,0,0-.155.181,2.081,2.081,0,0,0,.155.743.185.185,0,0,0-.155.181,1.858,1.858,0,0,0,.458,1.2,1.747,1.747,0,0,0,1.02.446V105.7a.185.185,0,0,0,.37,0v-1.861a1.746,1.746,0,0,0,1.019-.446,1.857,1.857,0,0,0,.458-1.2.185.185,0,0,0-.155-.181,2.08,2.08,0,0,0,.155-.743.185.185,0,0,0-.155-.181,2.081,2.081,0,0,0,.155-.743A.185.185,0,0,0,371.217,100.156Z" transform="translate(-359.546 -94.055)" fill="#546788"/>
      <path id="Path_44901" data-name="Path 44901" d="M8.682,229.389c-1,.079-2.061-.714-2-1.413-.326-.362-.448-.524-.426-.82-.326-.362-.448-.524-.426-.82-.37-.405-.592-.745-.3-1.114-.159-.267-.427-.858-.6-1.222H.437a15.561,15.561,0,0,0-.081,4.954,3.336,3.336,0,0,0-.356.589.625.625,0,0,0,.865.563,17.5,17.5,0,0,0,7.932.141.434.434,0,0,0,.3-.626h0A.433.433,0,0,0,8.682,229.389Z" transform="translate(0 -218.826)" fill="#546788"/>
      <path id="Path_44902" data-name="Path 44902" d="M8.991,2.782C8.138,1.823,6.135,0,5.173,0,4.068,0,1.943,2.062,1.2,2.957H.565A.562.562,0,0,0,0,3.484a.552.552,0,0,0,.141.4A.554.554,0,0,0,.5,4.8v0H4.785A.569.569,0,0,1,5.4,4.223a.166.166,0,0,0,.156-.239L5.409,3.7a.554.554,0,0,1,.984-.511c.085.167.285.47.462.244A.561.561,0,0,1,7.8,3.5l.005.01A.367.367,0,0,0,8.5,3.335V3.327A.546.546,0,0,1,8.991,2.782Zm-5.481-.2A.185.185,0,1,1,3.694,2.4.185.185,0,0,1,3.51,2.587Zm.739-.739a.185.185,0,1,1,.185-.185A.185.185,0,0,1,4.249,1.848Zm.37.739A.185.185,0,1,1,4.8,2.4.185.185,0,0,1,4.618,2.587ZM4.8,1.109A.185.185,0,1,1,4.988.924.185.185,0,0,1,4.8,1.109Zm.37.554a.185.185,0,1,1,.185-.185A.185.185,0,0,1,5.173,1.663Zm.37.924A.185.185,0,1,1,5.727,2.4.185.185,0,0,1,5.542,2.587Zm.185-1.293a.185.185,0,1,1,.185-.185A.185.185,0,0,1,5.727,1.293Zm.37.739a.185.185,0,1,1,.185-.185A.185.185,0,0,1,6.1,2.033Zm.739.554A.185.185,0,1,1,7.021,2.4.185.185,0,0,1,6.836,2.587Z" transform="translate(0.001)" fill="#546788"/>
    </g>
  </g>
</svg>
