<svg xmlns="http://www.w3.org/2000/svg" width="18" height="18" viewBox="0 0 18 18">
  <path id="zoom-out" d="M7,12V8A1.015,1.015,0,0,1,8,7h4a1,1,0,0,1,0,2H10.41l3.3,3.29a1,1,0,1,1-1.42,1.42L9,10.41V12a1,1,0,0,1-2,0ZM24.92,7.62A1.015,1.015,0,0,0,24,7H20a1,1,0,0,0,0,2h1.59l-3.3,3.29a1,1,0,1,0,1.42,1.42L23,10.41V12a1,1,0,0,0,2,0V8A1,1,0,0,0,24.92,7.62ZM24,19a1,1,0,0,0-1,1v1.59l-3.29-3.3a1,1,0,0,0-1.42,1.42L21.59,23H20a1,1,0,1,0,0,2h4a1.015,1.015,0,0,0,1-1V20a1,1,0,0,0-1-1Zm-11.71-.71L9,21.59V20a1,1,0,0,0-2,0v4a1.015,1.015,0,0,0,1,1h4a1,1,0,0,0,0-2H10.41l3.3-3.29a1,1,0,1,0-1.42-1.42ZM16,14a2,2,0,1,0,2,2,2,2,0,0,0-2-2Z" transform="translate(-7 -7)" fill="#112437"/>
</svg>
