<svg id="blood-pressure" xmlns="http://www.w3.org/2000/svg" width="15.929" height="16.331" viewBox="0 0 15.929 16.331">
  <path id="Path_44437" data-name="Path 44437" d="M11.982,14.446a.84.84,0,0,1-.663-.3L9.963,12.4H8.8a.746.746,0,0,1-.8-.681.746.746,0,0,1,.8-.681h1.593a.841.841,0,0,1,.663.3l.831,1.066,1.775-3.035A.816.816,0,0,1,14.341,9a.826.826,0,0,1,.714.329L17.212,12.4h1.142a.689.689,0,1,1,0,1.361H16.761a.831.831,0,0,1-.683-.33l-1.643-2.34L12.7,14.07a.812.812,0,0,1-.663.375Z" transform="translate(-3.221 -2.88)" fill="#929292"/>
  <path id="Path_44438" data-name="Path 44438" d="M15.54,12.257a2.5,2.5,0,0,1-2.047-.994l-.151-.211-.446.756a2.4,2.4,0,0,1-1.983,1.123l-.151.007a2.513,2.513,0,0,1-1.991-.912L7.886,10.9H7.575A2.243,2.243,0,0,1,5.186,8.853,2.243,2.243,0,0,1,7.575,6.811H9.168a2.662,2.662,0,0,1,1.163.259L11.016,5.9a2.438,2.438,0,0,1,2.047-1.13,2.741,2.741,0,0,1,.98.15A33.274,33.274,0,0,0,9.59.153a.7.7,0,0,0-.844,0C8.467.391,2,6.014,2,10.167c0,3.4,3.218,6.174,7.168,6.174a7.21,7.21,0,0,0,6.746-4.084Z" transform="translate(-2 -0.01)" fill="#929292"/>
</svg>
