<svg xmlns="http://www.w3.org/2000/svg" width="38.496" height="36" viewBox="0 0 38.496 36">
  <path id="existingComplain" d="M39.445,32.343A2.986,2.986,0,0,1,35.732,34.2l-7.1-2.422-7.83,2.1a3.361,3.361,0,0,1-2.179-.242l-10.17-5.65a2.908,2.908,0,0,1-1.13-3.955h0a3,3,0,0,1,4.036-1.13l9.04,5,7.587-2.018a2.457,2.457,0,0,1,1.7.081l7.991,2.664a2.91,2.91,0,0,1,1.776,3.713ZM33.714,18.3l-3.955,2.179a1.436,1.436,0,0,1-1.937-.484l-.969-1.372c.161-.081.323-.081.484-.161l2.341-1.049,1.049-.484a.768.768,0,0,0,.565.161,1.049,1.049,0,1,0,0-2.1,1.117,1.117,0,0,0-1.049.888l-.969.646a2.324,2.324,0,0,1,.081-1.049,2.093,2.093,0,0,1,2.664-1.211,2.182,2.182,0,0,1,1.291,1.372,1.407,1.407,0,0,1,1.13,1.7A1.286,1.286,0,0,1,33.714,18.3Zm-9.444-.969a2.731,2.731,0,0,1-1.211-1.857A2.857,2.857,0,0,0,25.4,12.648v-.161h0a1.423,1.423,0,0,1,1.211.646L28.952,16.6l-2.018.888a2.831,2.831,0,0,1-2.664-.161Zm.161-6.215a3.564,3.564,0,0,1-4.843-.807,3.331,3.331,0,0,1-.4-3.229,12.821,12.821,0,0,0,6.538,0,3.1,3.1,0,0,1-.242,2.906,2.851,2.851,0,0,1-1.049,1.13Zm1.211-5a12.512,12.512,0,0,1-6.457,0c-.161,0-.242-.161-.161-.323.161-.726.4-2.018.565-2.825a.282.282,0,0,1,.081-.161h.242a10.494,10.494,0,0,0,5,0h.242c.081,0,.081.081.081.161.161.807.4,2.1.565,2.906.081.081,0,.242-.161.242ZM23.3,4.253h-.4v-.4h-.969v.4h-.4v.969h.4v.4H22.9v-.4h.4V4.253Zm-2.664,8.395v-.161h3.794v.161a1.9,1.9,0,0,1-3.794,0Zm-1.049-.161v.161a2.947,2.947,0,0,0,2.5,2.906,3.56,3.56,0,0,0,1.7,2.664,4,4,0,0,0,2.1.646,4.051,4.051,0,0,0,.969-.161l.484,2.1.807,3.713c-.161,0-.323.081-.484.081l-7.1,1.776-3.794-2.1.888-4.278-2.018,3.713-2.5-1.534,5-8.96a1.369,1.369,0,0,1,1.291-.726ZM6.431,22.657a2.235,2.235,0,0,1-.726.081,3.35,3.35,0,1,1,3.39-3.39A3.141,3.141,0,0,1,8.53,21.2a4.15,4.15,0,0,1-2.1,1.453Zm-2.5,4.2,2.664,1.534,11.7,6.7H37.023a1.78,1.78,0,0,1,1.211.484,1.724,1.724,0,0,1,.646,1.372A1.827,1.827,0,0,1,37.023,38.8H17.813a1.627,1.627,0,0,1-.888-.242L2.073,30a1.85,1.85,0,0,1-.726-2.5h0a1.867,1.867,0,0,1,2.583-.646Z" transform="translate(-1.121 -2.8)" fill="#1d4999"/>
</svg>
