<svg xmlns="http://www.w3.org/2000/svg" width="36.407" height="39.233" viewBox="0 0 36.407 39.233">
  <path id="patientHistory" d="M26.476,2.557H21.471a.809.809,0,0,0-.807.807h0V6.916a1.415,1.415,0,0,1-1.372,1.372H10.653A1.415,1.415,0,0,1,9.281,6.916L9.2,3.364a.809.809,0,0,0-.807-.807H3.307a.809.809,0,0,0-.807.807h0V39.933H27.283V3.364a.809.809,0,0,0-.807-.807ZM10.088,14.746h3.875V10.629H15.82v4.117h3.875v1.776H15.82v4.2H14.044v-4.2H10.169V14.746ZM23.166,33.8a.9.9,0,0,1-.888.888H7.989A.9.9,0,0,1,7.1,33.8h0v-.4a.9.9,0,0,1,.888-.888H22.278a.9.9,0,0,1,.888.888h0v.4Zm0-4.359a.9.9,0,0,1-.888.888H7.989a.9.9,0,0,1-.888-.888h0v-.4a.9.9,0,0,1,.888-.888H22.278a.9.9,0,0,1,.888.888v.4Zm0-4.359a.9.9,0,0,1-.888.888H7.989a.9.9,0,0,1-.888-.888h0v-.4a.9.9,0,0,1,.888-.888H22.278a.9.9,0,0,1,.888.888h0v.4ZM17.6,6.27H12.429a.694.694,0,0,1-.646-.646v-4.2a.637.637,0,0,1,.646-.646H17.6a.694.694,0,0,1,.646.646h0v4.2a.637.637,0,0,1-.646.646Zm11.947,6.054V5.705h1.7l.081-4.2A.809.809,0,0,1,32.126.7h1.292a.809.809,0,0,1,.807.807h0V5.786h3.956a.745.745,0,0,1,.727.807h0V19.671H37.535V8.288a.552.552,0,0,0-.565-.565H36.4a.552.552,0,0,0-.565.565v4.036Zm0,4.844v10.9l2.1,4.44v3.875a.933.933,0,0,0,.969.969h.323a.982.982,0,0,0,.969-.969V32.425l2.018-4.117V17.168Zm6.377-1.211H29.543V13.616h6.377Z" transform="translate(-2.5 -0.7)" fill="#1d4999"/>
</svg>
