<svg xmlns="http://www.w3.org/2000/svg" width="30.565" height="39" viewBox="0 0 30.565 39">
  <path id="physicalExamination" d="M36.6,29.552l-1.46,9.006a1.641,1.641,0,0,1-3.245-.487l1.136-7.221-1.542-.162c.081.243.081-.325.081,7.951a1.352,1.352,0,0,1-1.379,1.3,1.334,1.334,0,0,1-1.3-1.3V36.529H23.7v2.109a1.3,1.3,0,0,1-2.6,0h0V31.012a1.282,1.282,0,0,1,1.3-1.3h1.866a1.346,1.346,0,0,1-.487-1.3c0-.325.406-3.57,1.3-9.006H25a.791.791,0,0,1-.73.325,1.258,1.258,0,0,1-.73-1.217l-.162-.162a1.543,1.543,0,0,1-1.055.081l-6.734-1.542a1.256,1.256,0,0,1-.892-.649l-2.677-3.813,1.542,4.625a1.97,1.97,0,0,0,1.7,1.136l1.055.243-.406,4.706,1.866,5.03a2.247,2.247,0,0,1,.081,1.055L15.91,38.4a1.83,1.83,0,1,1-3.57-.811L14.206,28.9l-2.028-6-.73-.081.892,6a2.246,2.246,0,0,1-.081.73L9.744,38.558a1.85,1.85,0,0,1-2.353,1.217,1.9,1.9,0,0,1-1.3-2.191l2.353-8.6-.811-6.491.811-11.845a2.3,2.3,0,0,1,2.515-2.109l4.138.325a2.246,2.246,0,0,1,2.109,2.515h0l-.081,1.217-2.272-1.866,2.353,3.326,5.274,1.217a7.558,7.558,0,0,0-3.651-4.543A8.591,8.591,0,0,1,15.1,7.24a3.183,3.183,0,0,1-2.677-3.57A3.183,3.183,0,0,1,15.991.993,3.228,3.228,0,0,1,18.75,4.157h0a20.537,20.537,0,0,1,2.515,6.734,9.914,9.914,0,0,1,2.6,4.787.978.978,0,0,1,.406.406,1,1,0,0,1,.892-.568,1.449,1.449,0,0,1,.73,1.785,2.226,2.226,0,0,1,1.866-.649l3.57.568a2.038,2.038,0,0,1,1.7,2.353h0l-.568,3.245-1.379-.568-1.623-3.083.974,4.3,4.462,1.7a1.382,1.382,0,0,1,.811,1.785,1.455,1.455,0,0,1-.406.568A1.841,1.841,0,0,1,36.6,29.552ZM18.263,5.78a3.505,3.505,0,0,1-1.7,1.379A8.029,8.029,0,0,0,19.8,9.836c-.487-1.379-.974-2.759-1.542-4.057ZM23.78,32.31v2.434h5.193V32.31Zm5.03-6.41A1.4,1.4,0,0,1,28,24.927L26.863,19.9l-.243,5.355a1.945,1.945,0,0,0,1.136,1.785l.243.081,4.706.325Zm1.866-10.223a3,3,0,1,1,3-3,3,3,0,0,1-3,3Z" transform="translate(-6.062 -0.962)" fill="#1d4999"/>
</svg>
