<svg xmlns="http://www.w3.org/2000/svg" width="33.29" height="39" viewBox="0 0 33.29 39">
  <path id="provisionalDiagonisys" d="M9.514,21.32a2.65,2.65,0,0,0,1.216,1.945,7.434,7.434,0,0,0,1.864.729,19.452,19.452,0,0,1-2.269,4.944,5.709,5.709,0,0,0,0,6,10.642,10.642,0,0,0,9,4.944A7.952,7.952,0,0,0,25.8,36.557,13.715,13.715,0,0,0,27.182,24.4c-1.3-4.214.405-6.4,1.621-7.375a5.274,5.274,0,1,0-.162-7.456,5.412,5.412,0,0,0-1.378,4.863c-2.188,1.621-4.782,5.187-3,10.86,1.135,3.566.81,7.213-.892,9.483a4.955,4.955,0,0,1-4.052,2.107,7.291,7.291,0,0,1-6.4-3.4,3.04,3.04,0,0,1-.081-3,22.034,22.034,0,0,0,2.756-6.322,7.592,7.592,0,0,0,2.594-.892,2.394,2.394,0,0,0,1.3-1.864c3.485-3.161,5.106-8.834,5.187-9.158a1.473,1.473,0,0,0-.729-1.7c.486-4.3-1.135-6.4-2.026-7.294a.976.976,0,0,0-.486-1.054L19.645,1.058a.892.892,0,0,0-1.216.243l-.081.081L17.537,3a.715.715,0,0,0,.324,1.054c.162.162.243.162.243.162l1.945.567a1.2,1.2,0,0,0,1.378-.567c.81.81,1.945,2.675,1.54,6.241a1.383,1.383,0,0,0-1.135,1.054,20.217,20.217,0,0,1-3.89,7.375,2.51,2.51,0,0,0-2.026.081,2.378,2.378,0,0,1-1.3.324h-.081a2.732,2.732,0,0,1-1.378-.405,2.541,2.541,0,0,0-2.026-.162,20.529,20.529,0,0,1-3.809-7.213A1.383,1.383,0,0,0,6.191,10.46c-.405-3.485.729-5.349,1.54-6.16a1.371,1.371,0,0,0,1.378.567l2.026-.648a.792.792,0,0,0,.567-.973c0-.081-.081-.162-.081-.243l-.81-1.621A.851.851,0,0,0,9.676.977l-.081.081L7.731,2.274a1.111,1.111,0,0,0-.486,1.054c-.973.892-2.512,3-2.026,7.294a1.473,1.473,0,0,0-.729,1.7A21.919,21.919,0,0,0,9.514,21.32ZM32.45,11.189A2.067,2.067,0,1,1,30.343,13.3a2.145,2.145,0,0,1,2.107-2.107Z" transform="translate(-4.44 -0.88)" fill="#1d4999"/>
</svg>
