<svg xmlns="http://www.w3.org/2000/svg" width="20.583" height="16.331" viewBox="0 0 20.583 16.331">
  <path id="pulse" d="M50.1,56.656a2.534,2.534,0,0,0-2.265,1.257H46.695l-1.24-3.181a1.015,1.015,0,0,0-.98-.589,1,1,0,0,0-.949.625l-1.709,5.113L39.611,48.818a.972.972,0,0,0-.956-.717,1,1,0,0,0-1.02.65l-2.749,9.163H32V59.64h3.675a.994.994,0,0,0,.98-.654l1.762-6.021,2.141,10.744a.968.968,0,0,0,.94.722h.057a1,1,0,0,0,.972-.628l2.043-5.875.437,1.124a1.011,1.011,0,0,0,.959.589h1.87a2.629,2.629,0,0,0,2.951,1.174,2.142,2.142,0,0,0,1.771-2.334A2.388,2.388,0,0,0,50.1,56.656Z" transform="translate(-32 -48.1)" fill="#929292"/>
</svg>
