<svg id="sketch_icon" xmlns="http://www.w3.org/2000/svg" width="7.499" height="16.331" viewBox="0 0 7.499 16.331">
  <path id="Path_44442" data-name="Path 44442" d="M32.553,89.659h6.2a.057.057,0,0,1,.062.071,1.483,1.483,0,0,1-1.42.9H33.912a1.485,1.485,0,0,1-1.42-.9A.057.057,0,0,1,32.553,89.659Z" transform="translate(-32.414 -74.297)" fill="#929292"/>
  <path id="Path_44443" data-name="Path 44443" d="M36.356,23.347H34.632A2.293,2.293,0,0,0,32.3,25.063a.133.133,0,0,0,.144.141h6.107a.132.132,0,0,0,.144-.141A2.294,2.294,0,0,0,36.356,23.347Z" transform="translate(-32.261 -20.018)" fill="#929292"/>
  <path id="Path_44444" data-name="Path 44444" d="M38.6,44.814c0,.076,0,.222-.093.222h-6.3c-.1,0-.07-.146-.07-.22,0,0,0-8,0-9.1a.136.136,0,0,1,.144-.125h6.164a.136.136,0,0,1,.144.125C38.6,36.812,38.6,44.814,38.6,44.814Z" transform="translate(-32.134 -30.039)" fill="#929292"/>
  <path id="Path_44445" data-name="Path 44445" d="M44.559,12.361v1.3a.2.2,0,0,1-.212.183H42.614a.2.2,0,0,1-.212-.183v-1.3a.2.2,0,0,1,.212-.183h1.733A.2.2,0,0,1,44.559,12.361Z" transform="translate(-40.247 -10.876)" fill="#929292"/>
  <path id="Path_44446" data-name="Path 44446" d="M41.729,5.47a.435.435,0,0,1-.16.332.582.582,0,0,1-.383.138H37.965a.511.511,0,0,1-.543-.469.438.438,0,0,1,.16-.332A.59.59,0,0,1,37.965,5h3.221A.509.509,0,0,1,41.729,5.47Z" transform="translate(-36.312 -5.003)" fill="#929292"/>
  <path id="Path_44447" data-name="Path 44447" d="M55.525,17.174a.856.856,0,0,0,.028.219.046.046,0,0,1-.049.054h-.745a.062.062,0,0,1-.065-.058v-.431a.062.062,0,0,1,.065-.057H55.5a.046.046,0,0,1,.049.055.849.849,0,0,0-.028.218Z" transform="translate(-49.958 -14.743)" fill="#929292"/>
  <path id="Path_44448" data-name="Path 44448" d="M38.247,16.909h.266a.063.063,0,0,1,.068.058V17.4a.063.063,0,0,1-.068.058h-.266a.136.136,0,0,1-.146-.125v-.3A.136.136,0,0,1,38.247,16.909Z" transform="translate(-36.849 -14.748)" fill="#929292"/>
  <ellipse id="Ellipse_638" data-name="Ellipse 638" cx="0.755" cy="0.653" rx="0.755" ry="0.653" transform="translate(5.989 1.779)" fill="#929292"/>
</svg>
