<svg id="weighing-scale" xmlns="http://www.w3.org/2000/svg" width="15.369" height="16.331" viewBox="0 0 15.369 16.331">
  <path id="Path_44474" data-name="Path 44474" d="M29.949,0h-8.86a3.229,3.229,0,0,0-3.237,3.546l1.042,9.9a3.239,3.239,0,0,0,3.237,2.882h2.9V12.487a.484.484,0,0,1,.968,0v3.844h2.9a3.239,3.239,0,0,0,3.237-2.882l1.042-9.9A3.229,3.229,0,0,0,29.949,0Zm1.06,5.237L28.372,8.231a.487.487,0,0,1-.365.164H23.031a.487.487,0,0,1-.365-.164L20.029,5.237a.473.473,0,0,1,0-.627,7.142,7.142,0,0,1,10.981,0,.473.473,0,0,1,0,.627Z" transform="translate(-17.834 0)" fill="#929292"/>
  <path id="Path_44475" data-name="Path 44475" d="M125.359,95.567l-.42.491a.488.488,0,0,1-.682.061.474.474,0,0,1-.062-.673l.326-.394a6.039,6.039,0,0,0-2.283-.655v.589a.484.484,0,0,1-.968,0V94.4a6.04,6.04,0,0,0-2.283.655l.326.394a.474.474,0,0,1-.062.673.488.488,0,0,1-.682-.061l-.421-.49a6.968,6.968,0,0,0-.871.75l2.208,2.507h1.289l.76-1.626a.242.242,0,0,1,.437,0l.76,1.626h1.289l2.208-2.507A6.959,6.959,0,0,0,125.359,95.567Z" transform="translate(-114.07 -91.386)" fill="#929292"/>
</svg>
