<svg xmlns="http://www.w3.org/2000/svg" width="17.789" height="15.947" viewBox="0 0 17.789 15.947">
  <g id="food" transform="translate(0 -26.5)">
    <path id="Path_48462" data-name="Path 48462" d="M233.141,30.4a3.538,3.538,0,0,1,.5,1.425l2.309-2.785a2.722,2.722,0,0,1,1.464-.909,3.05,3.05,0,0,0-2.705-1.628,3.7,3.7,0,0,0-2.206.66,3.508,3.508,0,0,1,.64,3.237Z" transform="translate(-224.423)" fill="#98cb37"/>
    <path id="Path_48463" data-name="Path 48463" d="M.657,33.357H5.686l-1.06-1.07H2.69a.511.511,0,1,1,0-1.021H3.6L1.888,29.549a.511.511,0,0,1,.723-.722l1.716,1.716v-.915a.511.511,0,0,1,1.022,0v1.937l1.82,1.792H8.1a2.483,2.483,0,0,0-.566-2.413A2.469,2.469,0,0,0,4.187,27.6a2.481,2.481,0,0,0-3.412-.02A2.467,2.467,0,0,0,.7,31.088a2.459,2.459,0,0,0-.04,2.269Z" transform="translate(-0.002 -0.395)" fill="#98cb37"/>
    <path id="Path_48464" data-name="Path 48464" d="M279.735,59.006l-2.7,3.26h5.873l.049-.041a1.671,1.671,0,0,0,.222-2.35,2.406,2.406,0,0,1,1.345-.031.521.521,0,0,0,.308-1,3.556,3.556,0,0,0-1.549-.074,3.557,3.557,0,0,0-.074-1.549.521.521,0,0,0-1,.307,2.409,2.409,0,0,1-.028,1.338,1.67,1.67,0,0,0-2.448.134Z" transform="translate(-267.407 -29.304)" fill="#98cb37"/>
    <path id="Path_48465" data-name="Path 48465" d="M17.267,242.5H.521a.5.5,0,0,0-.521.477,7.42,7.42,0,0,0,2.493,5.507q.213.2.438.374H14.857q.225-.179.438-.374a7.42,7.42,0,0,0,2.493-5.507A.5.5,0,0,0,17.267,242.5Z" transform="translate(0 -208.494)" fill="#98cb37"/>
    <path id="Path_48466" data-name="Path 48466" d="M69.374,455.5H56.519a.521.521,0,1,0,0,1.042H69.374a.521.521,0,1,0,0-1.042Z" transform="translate(-54.052 -414.095)" fill="#98cb37"/>
  </g>
</svg>
