<svg id="d" xmlns="http://www.w3.org/2000/svg" width="13.315" height="13.995" viewBox="0 0 13.315 13.995">
  <path id="Path_7" data-name="Path 7" d="M3.9,24" transform="translate(-1.622 -10.005)" fill="#ee1c4e"/>
  <g id="Group_7" data-name="Group 7" transform="translate(0 0)">
    <path id="Path_8" data-name="Path 8" d="M11.861,6.4H9V16.677h3.036c3.036,0,5.022-1.635,5.022-5.2C17.058,7.977,15.015,6.4,11.861,6.4Zm-.117,8.409h-.467V8.269h.467c1.752,0,2.92.759,2.92,3.212S13.5,14.809,11.745,14.809Z" transform="translate(-3.744 -2.683)" fill="#ff4600"/>
    <path id="Path_9" data-name="Path 9" d="M11.795,3.635q.088-.175.175-.175a.5.5,0,0,0,0-.409c-.058-.117-2.686-2.8-2.861-2.92A.581.581,0,0,0,8.583.073a9.3,9.3,0,0,0-.759.759v.409l-.292.292-.292.292-.584-.058a3.381,3.381,0,0,0-1.4.058c-.467.175-.409.117-2.861,2.511C-.118,6.9,0,6.73,0,7.2s-.117.35,2.161,2.569c2.1,2.1,2.1,2.161,2.511,2.161V2.992h5.956A4.9,4.9,0,0,1,11.795,3.635Z" transform="translate(0.002 -0.034)" fill="#fff"/>
  </g>
</svg>
