<svg id="f" xmlns="http://www.w3.org/2000/svg" width="13.14" height="14" viewBox="0 0 13.14 14">
  <path id="Path_13" data-name="Path 13" d="M3.9,24" transform="translate(-1.622 -10)" fill="#ee1c4e"/>
  <g id="Group_9" data-name="Group 9" transform="translate(6.366 3.606)">
    <path id="Path_14" data-name="Path 14" d="M10.9,6.2h6.774V8.477H13.645v1.985H17.09V12.74H13.645v3.854H10.9Z" transform="translate(-10.9 -6.2)" fill="#5252ff"/>
  </g>
  <path id="Path_15" data-name="Path 15" d="M5.78,2.989h7.066c-.7-.759-2.745-2.8-2.92-2.92a.805.805,0,0,0-.526,0,3.843,3.843,0,0,0-.818.876v.467l-.35.292L7.941,2,7.3,1.937A3.914,3.914,0,0,0,5.78,2c-.526.175-.467.117-3.153,2.745C-.117,7.543,0,7.368,0,7.894s-.117.409,2.336,2.861S4.613,13.091,5.2,13.091a.767.767,0,0,0,.584-.175Z" transform="translate(0.002 -0.025)" fill="#fff"/>
  <path id="Path_16" data-name="Path 16" d="M5.3,9" transform="translate(-2.204 -3.759)" fill="#5252ff"/>
</svg>
