<svg id="n" xmlns="http://www.w3.org/2000/svg" width="14.016" height="14" viewBox="0 0 14.016 14">
  <path id="Path_20" data-name="Path 20" d="M3.9,24" transform="translate(-1.622 -10)" fill="#ee1c4e"/>
  <g id="Group_13" data-name="Group 13" transform="translate(0 0)">
    <g id="Group_12" data-name="Group 12" transform="translate(6.308 4.54)">
      <path id="Path_21" data-name="Path 21" d="M10.8,7.8h2.569l2.1,4.2.876,2.1h.058a33.686,33.686,0,0,1-.292-3.62V7.8h2.394v9.46H15.939L13.836,13l-.876-2.1H12.9a34.964,34.964,0,0,1,.292,3.62V17.26H10.8Z" transform="translate(-10.8 -7.8)" fill="red"/>
    </g>
    <path id="Path_22" data-name="Path 22" d="M11.97,2.989c-.058-.117-2.686-2.8-2.861-2.92a.805.805,0,0,0-.526,0,9.3,9.3,0,0,0-.759.759v.409l-.292.292-.292.292-.584-.058a3.381,3.381,0,0,0-1.4.058c-.467.175-.409.117-2.861,2.511C-.118,6.9,0,6.726,0,7.193s-.117.35,2.161,2.569c2.219,2.219,2.1,2.161,2.569,2.161.292,0,.35.058.993-.526V3.864h3.62l.876,1.869a.994.994,0,0,0-.058-.409L10.1,4.857l.292-.292.292-.292h.175a.438.438,0,0,0,.292-.058A3.6,3.6,0,0,0,11.97,3.4.5.5,0,0,0,11.97,2.989Z" transform="translate(0.002 -0.025)" fill="#fff"/>
  </g>
</svg>
