<svg xmlns="http://www.w3.org/2000/svg" width="17" height="12.699" viewBox="0 0 17 12.699">
  <g id="image_2022_09_16T09_41_16_458Z" transform="translate(-0.138 194)">
    <path id="Path_11679" data-name="Path 11679" d="M.659-193.882a1.146,1.146,0,0,0-.36.295c-.137.183-.137.249-.157,5.072-.013,3.214.007,4.968.046,5.118a1.14,1.14,0,0,0,.268.425c.17.164.262.2.622.216l.425.026v.648c0,.569.013.648.124.713a12.166,12.166,0,0,0,2.677-.013,1.686,1.686,0,0,0,.079-.72v-.641h8.508v.641a1.686,1.686,0,0,0,.079.72,12.166,12.166,0,0,0,2.677.013c.111-.065.124-.144.124-.72v-.654h.353a.961.961,0,0,0,.91-.524c.1-.216.111-.563.1-5.184-.02-4.889-.02-4.955-.157-5.138a1.146,1.146,0,0,0-.36-.295c-.209-.111-.726-.118-7.978-.118S.869-193.993.659-193.882Zm15.793.576c.092.092.1.628.1,4.909,0,3.194-.02,4.856-.065,4.941-.065.124-.223.124-7.841.124-5.962,0-7.8-.02-7.854-.079a48.436,48.436,0,0,1-.079-4.935c0-4.333.013-4.869.1-4.961s.89-.1,7.815-.1S16.361-193.4,16.452-193.306ZM3.794-182.317v.425h-1.7v-.851h1.7Zm11.388,0v.425H13.416v-.38a1.187,1.187,0,0,1,.046-.425,4.569,4.569,0,0,1,.884-.046h.838Z" fill="#fff"/>
    <path id="Path_11680" data-name="Path 11680" d="M21.131-172.869c-.124.124-.131.216-.131,3.587,0,3.272.007,3.469.118,3.567s.694.111,7.036.111h6.911l.1-.144c.092-.131.1-.576.1-3.567,0-3.338-.007-3.43-.131-3.554s-.216-.131-7-.131S21.262-173,21.131-172.869Zm13.548,2.193v1.734h-3l-.131-.445c-.072-.242-.262-.89-.425-1.446a5.451,5.451,0,0,0-.38-1.06.274.274,0,0,0-.36.02c-.039.046-.236.753-.445,1.571l-.38,1.492h-.9l-.373.569c-.209.321-.386.589-.393.6-.046.065-.118-.118-.707-1.728a15.414,15.414,0,0,0-.713-1.787c-.079-.079-.131-.085-.249-.033s-.275.4-.772,1.721-.635,1.63-.687,1.538c-.033-.059-.144-.242-.242-.4l-.183-.288H21.589v-3.8h13.09Zm-3.757,1.217a6.074,6.074,0,0,0,.373,1.054,16.566,16.566,0,0,0,1.734.052h1.649v2.16H21.589v-1.833h2.454l.321.6c.308.556.334.589.524.569s.209-.039.759-1.492c.308-.812.583-1.532.615-1.6.039-.1.2.262.648,1.505.334.9.628,1.676.654,1.721a.309.309,0,0,0,.209.079c.131,0,.249-.137.668-.785l.511-.785h.471c.419,0,.484-.02.563-.151a8.346,8.346,0,0,0,.34-1.139,8.489,8.489,0,0,1,.275-.975C30.621-170.474,30.765-170.009,30.922-169.459Z" transform="translate(-19.496 -19.626)" fill="#fff"/>
    <path id="Path_11681" data-name="Path 11681" d="M138.941-53.856a.613.613,0,0,0,.275,1.008.661.661,0,0,0,.753-.622.713.713,0,0,0-.17-.327.45.45,0,0,0-.445-.2A.5.5,0,0,0,138.941-53.856Z" transform="translate(-129.563 -130.837)" fill="#fff"/>
    <path id="Path_11682" data-name="Path 11682" d="M164.552-53.856a.569.569,0,0,0-.144.648.7.7,0,0,0,.55.386.656.656,0,0,0,.55-.412.553.553,0,0,0-.55-.766A.49.49,0,0,0,164.552-53.856Z" transform="translate(-153.473 -130.837)" fill="#fff"/>
    <path id="Path_11683" data-name="Path 11683" d="M190.275-53.985a.8.8,0,0,0-.275.569.63.63,0,0,0,.53.537.583.583,0,0,0,.484-.988A.753.753,0,0,0,190.275-53.985Z" transform="translate(-177.435 -130.806)" fill="#fff"/>
    <path id="Path_11684" data-name="Path 11684" d="M216.242-53.836a.611.611,0,0,0,.425,1.014.649.649,0,0,0,.589-.622.542.542,0,0,0-.589-.556A.506.506,0,0,0,216.242-53.836Z" transform="translate(-201.812 -130.837)" fill="#fff"/>
    <path id="Path_11685" data-name="Path 11685" d="M21.2-48.9c-.131.124-.131.157,0,.34.092.131.151.144.818.144.785,0,.975-.059.975-.281,0-.268-.111-.308-.923-.308C21.453-49,21.277-48.98,21.2-48.9Z" transform="translate(-19.59 -135.51)" fill="#fff"/>
    <path id="Path_11686" data-name="Path 11686" d="M58.262-48.836a.216.216,0,0,0,.046.295c.1.118.2.131.857.131.772,0,.942-.059.942-.321,0-.229-.137-.268-.962-.268C58.347-49,58.334-49,58.262-48.836Z" transform="translate(-54.285 -135.51)" fill="#fff"/>
    <path id="Path_11687" data-name="Path 11687" d="M95.111-48.876c-.092.177-.085.242.039.36a3.213,3.213,0,0,0,1.689,0c.124-.118.131-.183.039-.36-.065-.111-.144-.124-.884-.124S95.176-48.987,95.111-48.876Z" transform="translate(-88.698 -135.51)" fill="#fff"/>
  </g>
</svg>
