<svg xmlns="http://www.w3.org/2000/svg" width="15.93" height="15.947" viewBox="0 0 15.93 15.947">
  <g id="medicine" transform="translate(-0.264 0.001)">
    <g id="Group_17760" data-name="Group 17760" transform="translate(5.547 -0.001)">
      <g id="Group_17759" data-name="Group 17759">
        <path id="Path_48467" data-name="Path 48467" d="M179.33,1.229a4.212,4.212,0,0,0-5.948,0L169.915,4.7l3.937,3.937a4.6,4.6,0,0,1,4.8-.721l.674-.736A4.211,4.211,0,0,0,179.33,1.229Z" transform="translate(-169.915 0.001)" fill="#e8c44f"/>
      </g>
    </g>
    <g id="Group_17762" data-name="Group 17762" transform="translate(0.263 5.357)">
      <g id="Group_17761" data-name="Group 17761" transform="translate(0)">
        <path id="Path_48468" data-name="Path 48468" d="M8.828,175.95l-3.942-3.942-3.394,3.4a4.228,4.228,0,0,0,5.979,5.979l.688-.691a4.6,4.6,0,0,1,.669-4.742Z" transform="translate(-0.263 -172.008)" fill="#e8c44f"/>
      </g>
    </g>
    <g id="Group_17764" data-name="Group 17764" transform="translate(8.717 8.517)">
      <g id="Group_17763" data-name="Group 17763">
        <path id="Path_48469" data-name="Path 48469" d="M271.7,277.169a3.726,3.726,0,0,0,3.271,3.691v-7.382A3.726,3.726,0,0,0,271.7,277.169Z" transform="translate(-271.703 -273.478)" fill="#e8c44f"/>
      </g>
    </g>
    <g id="Group_17766" data-name="Group 17766" transform="translate(12.923 8.517)">
      <g id="Group_17765" data-name="Group 17765">
        <path id="Path_48470" data-name="Path 48470" d="M406.722,273.478v7.382a3.718,3.718,0,0,0,0-7.382Z" transform="translate(-406.722 -273.478)" fill="#e8c44f"/>
      </g>
    </g>
  </g>
</svg>
