<svg id="Layer_1" data-name="Layer 1" xmlns="http://www.w3.org/2000/svg" viewBox="0 0 200.52 242"><defs><style>.cls-1{fill:#6aa7fe;}</style></defs><title>Nasal pronge</title><path className="cls-1" d="M110.89,210.15L121.37,247H230.9s-20.62-28.4-20.62-53.75c0,0-5.07-16.9,23.33-49.36,0,0,14.2-16.23,17.92-39.21l-50.71-9.47s-20.28-8.11-33.13,10.14c0,0-11.49,11.83-23.66,13.52L68.64,144.57s-13.18,5.75-2.37,15.21c0,0-4.39,8.34,1,10.43,0,0,3,3.77-2.37,18.31,0,0-7.44,23,36.51,17.24C101.43,205.76,108.66,202.29,110.89,210.15Z" transform="translate(-51.2 -5)"/><path className="cls-1" d="M164.64,5.29L176.14,58s4.73,32.45-23.83,49.36l-92.12,31.1s-15.55-1.69-5.75-14.87c0,0,7.1-6.08,20.62-33.13,0,0,11.16-41.92,17.24-50C92.3,40.45,115.29,1.24,164.64,5.29Z" transform="translate(-51.2 -5)"/><path className="cls-1" d="M172.42,5.29s83.84,11.16,79.1,90.26l-48.68-9.13s-18.59,1.69-18.59-25.35Z" transform="translate(-51.2 -5)"/></svg>