<svg xmlns="http://www.w3.org/2000/svg" width="415.978" height="468" viewBox="0 0 415.978 468">
  <g id="Group_18825" data-name="Group 18825" transform="translate(-26.011)">
    <g id="Group_18820" data-name="Group 18820">
      <path id="Path_50034" data-name="Path 50034" d="M32.307,412.7a6.3,6.3,0,0,0-6.3,6.3V461.7a6.3,6.3,0,0,0,6.3,6.3H435.693a6.3,6.3,0,0,0,6.3-6.3V419a6.3,6.3,0,0,0-6.3-6.3Z" fill="#f3242a"/>
      <path id="Path_50035" data-name="Path 50035" d="M234,111.432c-86.577,0-157.012,70.436-157.012,157.012V383.319H391.011V268.444c0-86.577-70.434-157.012-157.011-157.012Zm0,61.288a95.831,95.831,0,0,0-95.723,95.724H108.9A125.247,125.247,0,0,1,234,143.339V172.72Z" fill="#f3242a"/>
    </g>
    <g id="Group_18824" data-name="Group 18824">
      <g id="Group_18821" data-name="Group 18821">
        <path id="Path_50036" data-name="Path 50036" d="M219.309,0H248.69V51.817H219.309Z" fill="#f3242a"/>
      </g>
      <g id="Group_18822" data-name="Group 18822">
        <path id="Path_50037" data-name="Path 50037" d="M66.973,63.1H96.354v51.817H66.973Z" transform="translate(-39.02 83.815) rotate(-45)" fill="#f3242a"/>
      </g>
      <g id="Group_18823" data-name="Group 18823">
        <path id="Path_50038" data-name="Path 50038" d="M360.428,74.318h51.817V103.7H360.428Z" transform="translate(50.217 299.251) rotate(-45)" fill="#f3242a"/>
      </g>
    </g>
  </g>
</svg>
