<?xml version="1.0" encoding="utf-8"?>
<!-- Generator: Adobe Illustrator 23.0.5, SVG Export Plug-In . SVG Version: 6.00 Build 0)  -->
<svg version="1.1" id="Layer_1" xmlns="http://www.w3.org/2000/svg" xmlns:xlink="http://www.w3.org/1999/xlink" x="0px" y="0px"
	 viewBox="0 0 512 512" style="enable-background:new 0 0 512 512;" xml:space="preserve">
<style type="text/css">
	.st0{fill:#19B2D7;}
	.st1{fill:#39E24C;}
</style>
<g transform="translate(0.000000,512.000000) scale(0.100000,-0.100000)">
	<path class="st0" d="M1020,5088c-227-141-269-177-273-241c-2-25-18-53-59-103c-103-126-167-274-203-464c-16-84-23-379-10-412
		c4-10-4-23-25-38c-41-29-73-94-74-150c-1-77,90-329,204-567c120-250,257-459,391-598c49-51,70-81,77-110c27-114,82-180,201-239
		c47-24,112-52,144-62s57-23,57-31c0-23-88-251-134-349c-24-50-77-152-119-225c-88-157-114-217-133-317c-85-441,271-924,816-1106
		c155-52,272-70,450-69c146,0,176,3,264,26c426,114,726,466,836,982c16,75,23,150,27,297c7,266-14,429-91,703c-54,191-60,230-60,385
		c-1,120,3,158,22,223c37,128,111,254,200,340l40,39l63-48c355-263,848-149,1040,241c54,112,72,189,71,315c-1,194-65,346-206,485
		c-90,89-198,152-316,182c-77,20-253,22-320,4c-315-84-521-332-537-646c-2-55-1-118,4-140l9-40l-111-110c-124-122-188-213-252-355
		c-49-109-68-176-88-310c-31-197-16-354,57-640c68-267,79-330,85-515c4-124,2-185-12-270c-55-353-226-612-470-714
		c-297-125-755,3-999,278c-73,83-134,206-142,287c-10,91,9,155,78,272c126,217,215,416,290,650c23,70,42,128,43,129
		c1,2,46,14,100,28c136,34,273,102,319,158c38,47,75,121,76,151c0,10,37,57,83,105c46,47,99,106,118,131c173,218,389,650,474,948
		c24,85,26,98,14,144c-8,37-23,63-53,92l-41,41l6,95c12,170-13,375-61,516c-36,104-113,234-188,316c-15,16-26,42-28,65
		c-2,20-12,49-22,63s-78,65-152,115c-122,81-140,90-182,90c-62,0-79-18-158-168c-106-201-96-224,136-293c82-24,162-44,177-44
		c35,0,95,25,123,51l22,20l31-38c47-56,118-206,141-298c25-96,39-267,32-388l-5-87l-41-19c-66-30-91-66-131-185
		c-118-352-288-675-452-857l-34-37l-93,5c-92,6-96,5-187-33c-83-34-103-39-174-38c-72,0-89,4-165,39c-81,38-90,40-188,40h-103
		l-43,50c-152,177-310,480-423,810c-48,142-71,176-140,206l-41,19l-4,83c-5,129,9,301,32,390c24,95,95,245,141,300l31,38l22-20
		c28-26,88-51,124-51c15,0,95,20,176,44c232,69,241,86,141,282c-37,73-77,142-90,154s-40,24-62,27C1082,5121,1065,5115,1020,5088z
		 M4165,3746c102-47,161-146,153-258c-10-151-119-252-269-251c-224,1-344,254-206,434C3915,3766,4054,3798,4165,3746z"/>
</g>
<path class="st1" d="M284.9,90.3L284.9,90.3c-12.4,0-22.5-10.1-22.5-22.5v0c0-12.4,10.1-22.5,22.5-22.5h0
	c12.4,0,22.5,10.1,22.5,22.5v0C307.5,80.2,297.4,90.3,284.9,90.3z"/>
</svg>
