<svg xmlns="http://www.w3.org/2000/svg" width="9.381" height="15.947" viewBox="0 0 9.381 15.947">
  <g id="supplement" transform="translate(-105)">
    <path id="XMLID_2126_" d="M142.5,1.407A1.409,1.409,0,0,0,141.1,0h-4.69A1.409,1.409,0,0,0,135,1.407v.469h7.5Z" transform="translate(-29.062)" fill="#40c3f3"/>
    <path id="XMLID_2118_" d="M105,216.567h9.381V210H105Zm4.784-5.441.75.563-.844,1.126h1.876l-1.97,2.627-.75-.563.844-1.126h-1.876Z" transform="translate(0 -203.433)" fill="#40c3f3"/>
    <path id="XMLID_2116_" d="M112.7,90.938H112.5V90h-5.628v.938h-.194A1.684,1.684,0,0,0,105,92.62v.194h9.381V92.62A1.684,1.684,0,0,0,112.7,90.938Z" transform="translate(0 -87.186)" fill="#40c3f3"/>
    <path id="XMLID_2115_" d="M105,450.194a1.684,1.684,0,0,0,1.682,1.682H112.7a1.684,1.684,0,0,0,1.682-1.682V450H105Z" transform="translate(0 -435.929)" fill="#40c3f3"/>
  </g>
</svg>
