<svg xmlns="http://www.w3.org/2000/svg" width="359.2" height="140.5" viewBox="0 0 359.2 140.5">
  <g id="V-FiO2" transform="translate(-0.9)">
    <path id="Path_50063" data-name="Path 50063" d="M337.4,71.4a27.416,27.416,0,0,1,9,1.5,20.791,20.791,0,0,1,6.9,4,22.559,22.559,0,0,1,4.4,6.2,21.2,21.2,0,0,1,1.5,7.8,23.8,23.8,0,0,1-1.1,7,25.6,25.6,0,0,1-2.9,6c-1.3,1.9-2.7,3.7-4.2,5.5-1.6,1.8-3.3,3.7-5.1,5.5l-13.2,13.5a30.992,30.992,0,0,1,5.1-1.1c1.6-.2,3.2-.3,4.8-.4h12.6a4.738,4.738,0,0,1,3.6,1.3,4.446,4.446,0,0,1,1.3,3.3v8.4H312.6v-4.6a9.291,9.291,0,0,1,.5-2.9,6,6,0,0,1,2-2.7l19.5-19.8c1.6-1.6,3.1-3.3,4.4-4.8a24.7,24.7,0,0,0,3.1-4.6,18.536,18.536,0,0,0,1.8-4.4,15.7,15.7,0,0,0,.5-4.8,9.244,9.244,0,0,0-2-6.2c-1.3-1.5-3.3-2.2-5.9-2.2a7.173,7.173,0,0,0-2.9.6,9.206,9.206,0,0,0-2.4,1.3,7.689,7.689,0,0,0-1.8,1.8,9.206,9.206,0,0,0-1.3,2.4,8.718,8.718,0,0,1-1.8,3.1,5.614,5.614,0,0,1-3.1.9h-.9a1.978,1.978,0,0,1-1.1-.2l-7.7-1.3a25.345,25.345,0,0,1,2.9-8.8,19.684,19.684,0,0,1,5.3-6.2,20.953,20.953,0,0,1,7.1-3.7A42.842,42.842,0,0,1,337.4,71.4Z" fill="#fff"/>
    <path id="Path_50064" data-name="Path 50064" d="M182,4.7V20.4H146V42.6h30V58.3H146V92.4H125.5V4.7Z" fill="#fff"/>
    <path id="Path_50065" data-name="Path 50065" d="M313.4,49.7c0,31.9-17.1,51.2-42.4,51.2-25.6,0-40.6-21.8-40.6-49.5,0-29.2,16.5-50.9,42-50.9C299,.5,313.4,22.8,313.4,49.7ZM251.1,51c0,19,7.9,32.5,21,32.5s20.7-14.1,20.7-33C292.8,33,285.4,18,272,18,258.8,17.9,251.1,32.1,251.1,51Z" fill="#fff"/>
    <path id="Path_50066" data-name="Path 50066" d="M213.3,10.5c0,5.7-4.4,10.3-11.1,10.3-6.5,0-10.9-4.6-10.7-10.3-.1-6,4.2-10.5,10.9-10.5S213.2,4.5,213.3,10.5ZM192,95.5V29h20.7V95.5Z" fill="#fff"/>
    <path id="Path_50067" data-name="Path 50067" d="M101.4,85.8v9.9a4.439,4.439,0,0,1-4.4,4.4H94.3a4.439,4.439,0,0,1-4.4-4.4V85.8a4.439,4.439,0,0,1,4.4-4.4H97A4.507,4.507,0,0,1,101.4,85.8Zm15-10.4V105a10.926,10.926,0,0,1-10.9,10.9h-1.1a2.22,2.22,0,0,1-2.2-2.2v-10a1.99,1.99,0,0,1,.7-1.6,8.614,8.614,0,0,0,2.9-6.5V85.7A8.813,8.813,0,0,0,97,76.9H94.3a8.813,8.813,0,0,0-8.8,8.8v9.9a8.813,8.813,0,0,0,8.8,8.8h1.4a2.22,2.22,0,0,1,2.2,2.2v9A24.967,24.967,0,0,1,73,140.5H36.8a24.967,24.967,0,0,1-24.9-24.9V99h-.5A10.478,10.478,0,0,1,.9,88.6V78.8A13.086,13.086,0,0,1,14.3,65.7,13.3,13.3,0,0,1,27.2,79.1v9.5a10.706,10.706,0,0,1-2.8,7.1,2.19,2.19,0,0,1-3.8-1.5V86.7a2.178,2.178,0,0,0-2.3-2.2,2.208,2.208,0,0,0-2,2.3v28.7a20.848,20.848,0,0,0,20.8,20.8,20.557,20.557,0,0,0,20.3-20.2H49.7a10.926,10.926,0,0,1-10.9-10.9V75.4A10.926,10.926,0,0,1,49.7,64.5H75.4V55.7H55.8A10.926,10.926,0,0,1,44.9,44.8V20.2A10.926,10.926,0,0,1,55.8,9.3H99.4a10.926,10.926,0,0,1,10.9,10.9V44.8A10.926,10.926,0,0,1,99.4,55.7H79.8v8.8h25.7A10.926,10.926,0,0,1,116.4,75.4ZM89.1,32.5a2.22,2.22,0,0,0,2.2,2.2H97a2.2,2.2,0,0,0,0-4.4H91.3A2.22,2.22,0,0,0,89.1,32.5ZM76.9,41.1,87.7,26.3a2.22,2.22,0,1,0-3.6-2.6l-9,12.4-3.6-5a2.138,2.138,0,0,0-1.8-.9H58.1a2.2,2.2,0,1,0,0,4.4H68.6l4.7,6.5a2.25,2.25,0,0,0,3.6,0Zm-8.6,74.8a2.22,2.22,0,0,1-2.2-2.2V102.8A2.138,2.138,0,0,1,67,101a7.539,7.539,0,0,0,3.2-6.2V86.6a7.7,7.7,0,0,0-7.7-7.7h-6a7.7,7.7,0,0,0-7.7,7.7v8.2a7.7,7.7,0,0,0,7.7,7.7.789.789,0,0,0,.8-.8c0-3,.1-3-.2-3.3a1.072,1.072,0,0,0-.6-.2,3.329,3.329,0,0,1-3.3-3.3V86.7a3.329,3.329,0,0,1,3.3-3.3h6a3.329,3.329,0,0,1,3.3,3.3v4.2A2.112,2.112,0,0,1,63.7,93a2.191,2.191,0,0,0-2,2.2v20.5a24.821,24.821,0,0,1-10.8,20.5h22a20.551,20.551,0,0,0,20.5-20.3Z" fill="#fff"/>
  </g>
</svg>
