<svg xmlns="http://www.w3.org/2000/svg" width="30" height="30" viewBox="0 0 30 30">
  <g id="Group_12683" data-name="Group 12683" transform="translate(-1788 -693.226)">
    <rect id="Rectangle_17337" data-name="Rectangle 17337" width="30" height="30" transform="translate(1788 693.226)" fill="#e6f5e1"/>
    <g id="chat_1_" data-name="chat (1)" transform="translate(1794.51 684.04)">
      <g id="Group_12676" data-name="Group 12676" transform="translate(0 16)">
        <g id="Group_12675" data-name="Group 12675">
          <path id="Path_45049" data-name="Path 45049" d="M8.457,16C3.735,16,0,19.381,0,23.462A6.952,6.952,0,0,0,1.94,28.22a3.026,3.026,0,0,1-.8,2.85.5.5,0,0,0,.352.849,5.488,5.488,0,0,0,3.8-1.535,9.388,9.388,0,0,0,3.165.54c4.736,0,8.524-3.391,8.524-7.462S13.191,16,8.457,16Zm0,13.937a8.371,8.371,0,0,1-3.11-.594.5.5,0,0,0-.551.126,4.491,4.491,0,0,1-2.233,1.325,4.023,4.023,0,0,0,.3-2.961.5.5,0,0,0-.122-.21,5.986,5.986,0,0,1-1.757-4.16c0-3.566,3.354-6.474,7.469-6.474,4.151,0,7.535,2.908,7.535,6.474S12.609,29.937,8.457,29.937Z" transform="translate(0 -16)" fill="#48b02c"/>
        </g>
      </g>
      <g id="Group_12678" data-name="Group 12678" transform="translate(2.985 21.97)">
        <g id="Group_12677" data-name="Group 12677">
          <path id="Path_45050" data-name="Path 45050" d="M91.492,196a1.492,1.492,0,1,0,1.492,1.492A1.494,1.494,0,0,0,91.492,196Zm0,1.99a.5.5,0,1,1,.5-.5A.5.5,0,0,1,91.492,197.99Z" transform="translate(-90 -196)" fill="#48b02c"/>
        </g>
      </g>
      <g id="Group_12680" data-name="Group 12680" transform="translate(6.965 21.97)">
        <g id="Group_12679" data-name="Group 12679">
          <path id="Path_45051" data-name="Path 45051" d="M211.492,196a1.492,1.492,0,1,0,1.492,1.492A1.494,1.494,0,0,0,211.492,196Zm0,1.99a.5.5,0,1,1,.5-.5A.5.5,0,0,1,211.492,197.99Z" transform="translate(-210 -196)" fill="#48b02c"/>
        </g>
      </g>
      <g id="Group_12682" data-name="Group 12682" transform="translate(11.011 21.97)">
        <g id="Group_12681" data-name="Group 12681">
          <path id="Path_45052" data-name="Path 45052" d="M333.493,196a1.492,1.492,0,1,0,1.492,1.492A1.494,1.494,0,0,0,333.493,196Zm0,1.99a.5.5,0,1,1,.5-.5A.5.5,0,0,1,333.493,197.99Z" transform="translate(-332 -196)" fill="#48b02c"/>
        </g>
      </g>
    </g>
  </g>
</svg>
