<svg xmlns="http://www.w3.org/2000/svg" width="30" height="30" viewBox="0 0 30 30">
  <g id="Group_17133" data-name="Group 17133" transform="translate(-1826 -326.226)">
    <rect id="Rectangle_17337" data-name="Rectangle 17337" width="30" height="30" transform="translate(1826 326.226)" fill="#ffefef"/>
    <g id="Group_12759" data-name="Group 12759" transform="translate(0 -686.946)">
      <path id="bell_1_" data-name="bell (1)" d="M5.608,3.312a5.021,5.021,0,0,1,6.769,0A4.41,4.41,0,0,1,13.8,6.536a6.925,6.925,0,0,0,.911,3.687l.007.012c.259.423.462.756.6,1,.068.12.13.234.175.333a1.419,1.419,0,0,1,.067.174.843.843,0,0,1,.036.316.949.949,0,0,1-.415.74.844.844,0,0,1-.267.129,1.3,1.3,0,0,1-.178.037c-.1.014-.22.022-.341.026-.24.009-.575.009-.993.009H4.582c-.419,0-.753,0-.993-.009-.121,0-.239-.012-.341-.026a1.3,1.3,0,0,1-.178-.037.844.844,0,0,1-.267-.129.949.949,0,0,1-.415-.74.841.841,0,0,1,.036-.316,1.416,1.416,0,0,1,.067-.174c.045-.1.106-.213.175-.333.137-.24.34-.573.6-1l.008-.013a6.925,6.925,0,0,0,.911-3.687A4.41,4.41,0,0,1,5.608,3.312Zm3.385.062a3.59,3.59,0,0,0-2.447.942,3.036,3.036,0,0,0-.989,2.219,8.288,8.288,0,0,1-1.113,4.4c-.167.273-.3.5-.414.681h9.925c-.11-.183-.247-.408-.414-.681a8.289,8.289,0,0,1-1.113-4.4,3.036,3.036,0,0,0-.989-2.219,3.591,3.591,0,0,0-2.447-.942ZM6.244,15.057a.687.687,0,0,1,.687-.687h4.123a.687.687,0,1,1,0,1.374H6.931A.687.687,0,0,1,6.244,15.057Z" transform="translate(1830.858 1022.148)" fill="#fe3535" fill-rule="evenodd"/>
      <text id="_0" data-name="0" transform="translate(1845.049 1026.451)" fill="#fe3535" font-size="9" font-family="Poppins-SemiBold, Poppins" font-weight="600"><tspan x="0" y="0">0</tspan></text>
    </g>
  </g>
</svg>
