<svg xmlns="http://www.w3.org/2000/svg" width="30" height="30" viewBox="0 0 30 30">
  <g id="Group_17132" data-name="Group 17132" transform="translate(-1750 -326)">
    <rect id="Rectangle_18955" data-name="Rectangle 18955" width="30" height="30" transform="translate(1750 326)" fill="#dff2fe"/>
    <g id="visible" transform="translate(1756.806 332.379)">
      <g id="Group_8090" data-name="Group 8090" transform="translate(0.975 3.6)">
        <path id="Path_44427" data-name="Path 44427" d="M8.463,13.966c-4.087,0-7.227-4.585-7.376-4.785a.6.6,0,0,1,0-.7c.15-.2,3.289-4.884,7.376-4.884s7.227,4.685,7.376,4.884a.6.6,0,0,1,0,.7C15.69,9.381,12.55,13.966,8.463,13.966ZM2.433,8.833c.8,1,3.24,3.838,6.03,3.838s5.283-2.841,6.03-3.838c-.8-1.047-3.24-3.987-6.03-3.987S3.18,7.786,2.433,8.833Z" transform="translate(-0.975 -3.6)" fill="#3ca9ee"/>
      </g>
      <g id="Group_8091" data-name="Group 8091" transform="translate(5.323 5.643)">
        <path id="Path_44428" data-name="Path 44428" d="M12.84,13.98a3.14,3.14,0,1,1,3.14-3.14A3.127,3.127,0,0,1,12.84,13.98Zm0-5.034a1.894,1.894,0,1,0,1.894,1.894A1.893,1.893,0,0,0,12.84,8.946Z" transform="translate(-9.7 -7.7)" fill="#3ca9ee"/>
      </g>
    </g>
  </g>
</svg>
