<svg xmlns="http://www.w3.org/2000/svg" width="14.698" height="14.701" viewBox="0 0 14.698 14.701">
  <g id="notes" transform="translate(-0.038)">
    <g id="Group_12505" data-name="Group 12505" transform="translate(12.182 5.142)">
      <g id="Group_12504" data-name="Group 12504">
        <path id="Path_44934" data-name="Path 44934" d="M425.11,179.4a1.293,1.293,0,0,0-1.819.158l-.279.33,1.98,1.661.267-.329A1.289,1.289,0,0,0,425.11,179.4Z" transform="translate(-423.012 -179.099)" fill="#546788"/>
      </g>
    </g>
    <g id="Group_12507" data-name="Group 12507" transform="translate(7.864 10.065)">
      <g id="Group_12506" data-name="Group 12506">
        <path id="Path_44935" data-name="Path 44935" d="M273.443,350.534l-.147.174a1.3,1.3,0,0,0-.266.53l-.4,1.676a.431.431,0,0,0,.59.5l1.581-.686a1.3,1.3,0,0,0,.475-.354l.148-.175Z" transform="translate(-272.617 -350.534)" fill="#546788"/>
      </g>
    </g>
    <g id="Group_12509" data-name="Group 12509" transform="translate(9.246 6.59)">
      <g id="Group_12508" data-name="Group 12508">
        <path id="Path_44936" data-name="Path 44936" d="M323.114,229.517l-2.381,2.817,1.98,1.661,2.381-2.817Z" transform="translate(-320.733 -229.517)" fill="#546788"/>
      </g>
    </g>
    <g id="Group_12511" data-name="Group 12511" transform="translate(8.652 0.066)">
      <g id="Group_12510" data-name="Group 12510">
        <path id="Path_44937" data-name="Path 44937" d="M302.221,4.138l-1.636-1.554a1.271,1.271,0,0,0-.546-.289V4.812H302.6A1.3,1.3,0,0,0,302.221,4.138Z" transform="translate(-300.039 -2.294)" fill="#546788"/>
      </g>
    </g>
    <g id="Group_12513" data-name="Group 12513" transform="translate(0.038)">
      <g id="Group_12512" data-name="Group 12512">
        <path id="Path_44938" data-name="Path 44938" d="M7.439,10.569a2.171,2.171,0,0,1,.443-.882l3.354-3.968V3.445H8.221a.43.43,0,0,1-.431-.431V0H1.33A1.293,1.293,0,0,0,.038,1.292V13.408A1.293,1.293,0,0,0,1.33,14.7H9.944a1.293,1.293,0,0,0,1.292-1.292V12.39l-.056.066a2.162,2.162,0,0,1-.789.588l-1.582.686a1.292,1.292,0,0,1-1.771-1.486ZM2.191,2.584H6.5a.431.431,0,0,1,0,.861H2.191a.431.431,0,0,1,0-.861Zm0,2.613H9.082a.431.431,0,1,1,0,.861H2.191a.431.431,0,0,1,0-.861Zm3.445,6.03H2.191a.431.431,0,0,1,0-.861H5.637a.431.431,0,1,1,0,.861ZM2.191,8.642a.431.431,0,1,1,0-.861H7.36a.431.431,0,0,1,0,.861Z" transform="translate(-0.038)" fill="#546788"/>
      </g>
    </g>
  </g>
</svg>
