<svg xmlns="http://www.w3.org/2000/svg" width="16.759" height="12.766" viewBox="0 0 16.759 12.766">
  <g id="supplement" transform="translate(0.001 4.75)">
    <path id="Path_45058" data-name="Path 45058" d="M159.878,257.858a7.24,7.24,0,0,1-3.778,1.748v4.036h3.032a2.939,2.939,0,0,0,.746-5.784Zm-6.213,1.856a1.418,1.418,0,0,1-.638-.147,1.5,1.5,0,0,1-.687-.687,3.6,3.6,0,0,1-.236-1.129,2.946,2.946,0,0,0,.069,5.892h2.946V259.7a2.4,2.4,0,0,1-.265.01Zm0,0" transform="translate(-145.32 -255.626)" fill="#546788"/>
    <path id="Path_45059" data-name="Path 45059" d="M223.837-4.21a6.692,6.692,0,0,0-1.159,1.139,7.062,7.062,0,0,0-1.444,3.034,5.65,5.65,0,0,1-1.129-3.4v-.825a.486.486,0,0,1,.491-.491h.825a5.642,5.642,0,0,1,2.416.54Zm0,0" transform="translate(-214.343 0)" fill="#546788"/>
    <path id="Path_45060" data-name="Path 45060" d="M302.743-4.75h-1.316a6.154,6.154,0,0,0-6.079,7.2l3.123-3.123a.475.475,0,0,1,.687,0,.474.474,0,0,1,0,.687l-3.093,3.093c2.134,0,4.116-.157,5.764-2.121a6.128,6.128,0,0,0,1.4-3.928V-4.259a.486.486,0,0,0-.491-.491Zm0,0" transform="translate(-287.524)" fill="#546788"/>
    <path id="Path_45061" data-name="Path 45061" d="M4.221,211.036a3.922,3.922,0,0,0-.206,5.627,2.882,2.882,0,0,1-1.07.206A2.941,2.941,0,0,1,.86,211.842l2.094-2.092Zm0,0" transform="translate(0 -208.883)" fill="#546788"/>
    <path id="Path_45062" data-name="Path 45062" d="M142.09,129.33a3.865,3.865,0,0,0-1.581.432l-1.4-1.4,1.483-1.483A6.487,6.487,0,0,0,142.09,129.33Zm0,0" transform="translate(-135.464 -128.178)" fill="#546788"/>
  </g>
</svg>
