<svg id="XMLID_11_" xmlns="http://www.w3.org/2000/svg" width="15.897" height="13.092" viewBox="0 0 15.897 13.092">
  <path id="XMLID_12_" d="M0,45v4.208H1.677l1.129-1.129.935.935.924-.924,1.386,1.292.986-.9,1.352.724H15.9V45Zm12.624,2.338h-.935V46.4h.935Zm1.87,0H13.56V46.4h.935Z" transform="translate(0 -45)" fill="#546788"/>
  <path id="XMLID_364_" d="M0,316.87H6.078v1.87H5.143v.935h5.611v-.935H9.819v-1.87H15.9V315H0Z" transform="translate(0 -306.584)" fill="#546788"/>
  <path id="XMLID_363_" d="M7.178,186.074l-1.134,1.034-1.357-1.264-.947.947-.935-.935-.741.741H0v2.338H15.9V186.6H8.153Z" transform="translate(0 -181.454)" fill="#546788"/>
</svg>
