<svg id="blood-transfusion" xmlns="http://www.w3.org/2000/svg" width="16.099" height="16.099" viewBox="0 0 16.099 16.099">
  <g id="Group_12428" data-name="Group 12428">
    <g id="Group_12427" data-name="Group 12427">
      <path id="Path_44903" data-name="Path 44903" d="M125.985,327.26a5.635,5.635,0,0,0,.518,2.684,6.256,6.256,0,0,1,.033-2.413A1.283,1.283,0,0,1,125.985,327.26Z" transform="translate(-122.019 -316.97)" fill="#546788"/>
      <circle id="Ellipse_696" data-name="Ellipse 696" cx="0.394" cy="0.394" r="0.394" transform="translate(4.149 8.179)" fill="#546788"/>
      <path id="Path_44904" data-name="Path 44904" d="M5.542,2.771A2.771,2.771,0,1,0,2.771,5.542,2.774,2.774,0,0,0,5.542,2.771ZM.66,3.3V2.243H2.243V.66H3.3V2.243H4.882V3.3H3.3V4.882H2.243V3.3Z" fill="#546788"/>
      <path id="Path_44905" data-name="Path 44905" d="M338.509,335.738a2.771,2.771,0,1,0,2.771,2.771A2.774,2.774,0,0,0,338.509,335.738Zm-2.111,3.3v-1.056h4.223v1.056Z" transform="translate(-325.181 -325.181)" fill="#546788"/>
      <path id="Path_44906" data-name="Path 44906" d="M94.558,11.874l.092,0c-.376-4.327-3.5-8.42-5.371-10.244a19.956,19.956,0,0,0-2.245,2.65c0,.023,0,.046,0,.07A3.038,3.038,0,0,1,85.35,7.07a12.8,12.8,0,0,0-1.483,5.656,5.261,5.261,0,0,0,5.41,4.952,5.606,5.606,0,0,0,2.947-.83,3.033,3.033,0,0,1,2.333-4.974ZM86.3,15.728a.132.132,0,0,1-.175-.029,5.721,5.721,0,0,1-1.172-4.122.132.132,0,0,1,.226-.082,1.122,1.122,0,0,0,.735.4.132.132,0,0,1,.124.158,5.2,5.2,0,0,0,.309,3.5.132.132,0,0,1-.046.171Zm-.523-4.916a.658.658,0,1,1,.658-.658A.658.658,0,0,1,85.773,10.812Z" transform="translate(-81.23 -1.582)" fill="#546788"/>
    </g>
  </g>
</svg>
