<svg xmlns="http://www.w3.org/2000/svg" width="12.375" height="16.235" viewBox="0 0 12.375 16.235">
  <g id="blood-cells_1_" data-name="blood-cells (1)" transform="translate(-60.831 0)">
    <path id="Path_44970" data-name="Path 44970" d="M154.164,218.326a3.332,3.332,0,1,0-3.332-3.332A3.336,3.336,0,0,0,154.164,218.326Zm.952-4.759h.952a.476.476,0,1,1,0,.952h-.952a.476.476,0,0,1,0-.952Zm-.615,2.043.952.952a.476.476,0,0,1-.673.673l-.952-.952a.476.476,0,0,1,.673-.673Zm-2.577-.952.952-.952a.476.476,0,1,1,.673.673l-.952.952a.476.476,0,0,1-.673-.673Z" transform="translate(-87.145 -204.947)" fill="#546788"/>
    <path id="Path_44971" data-name="Path 44971" d="M67.018,16.235a6.194,6.194,0,0,0,6.187-6.187,6.132,6.132,0,0,0-1.234-3.7L67.4.18a.494.494,0,0,0-.762,0L62.065,6.343a6.132,6.132,0,0,0-1.234,3.7A6.194,6.194,0,0,0,67.018,16.235Zm0-10.471a4.284,4.284,0,1,1-4.284,4.284A4.288,4.288,0,0,1,67.018,5.764Z" fill="#546788"/>
  </g>
</svg>
