<svg xmlns="http://www.w3.org/2000/svg" width="13.912" height="19.189" viewBox="0 0 13.912 19.189">
  <g id="blood-donation" transform="translate(-70.371)">
    <g id="Layer_2_1_" transform="translate(70.371)">
      <g id="Layer_1-2_1_" transform="translate(0)">
        <g id="blood_donation">
          <path id="Path_44912" data-name="Path 44912" d="M81.482,11.381a2.812,2.812,0,0,0-2.808,2.808v2.188a1.645,1.645,0,0,1-3.282,0v-2.64c.868-.069,1.094-.868,1.123-1.615l1.823-.729h0a1.426,1.426,0,0,0,.9-1.331V1.433A1.437,1.437,0,0,0,77.814,0H71.8a1.433,1.433,0,0,0-1.433,1.433h0v8.621a1.426,1.426,0,0,0,.9,1.331l1.823.729c0,.729.259,1.55,1.123,1.615v2.651a2.808,2.808,0,0,0,5.616,0V14.193a1.641,1.641,0,0,1,3.282,0v1.094h1.167V14.193A2.812,2.812,0,0,0,81.482,11.381ZM74.225,8.216V6.808H72.818V5.641h1.408v-1.4h1.163v1.4H76.8V6.808H75.389V8.216Z" transform="translate(-70.371)" fill="#546788"/>
        </g>
      </g>
    </g>
  </g>
</svg>
