<svg id="doctor" xmlns="http://www.w3.org/2000/svg" width="12.609" height="16.173" viewBox="0 0 12.609 16.173">
  <path id="Path_44789" data-name="Path 44789" d="M17.09,0A3.513,3.513,0,1,0,20.6,3.512,3.515,3.515,0,0,0,17.09,0Z" transform="translate(-10.786)" fill="#546788"/>
  <path id="Path_44790" data-name="Path 44790" d="M14.308,22.885a7.729,7.729,0,0,1,.257,2.094c.517.458,1.872,1.808,1.577,3.14a1.56,1.56,0,0,1-1.092,1.107.337.337,0,0,1-.218-.638.91.91,0,0,0,.649-.6c.2-.913-.809-2.022-1.371-2.515-.673.326-1.944,1.127-1.993,2.045a.9.9,0,0,0,.463.765.337.337,0,1,1-.379.558,1.557,1.557,0,0,1-.756-1.376c.076-1.424,1.937-2.394,2.456-2.638a9.182,9.182,0,0,0-.334-2.139.376.376,0,0,1,0-.055,5.839,5.839,0,0,0-1.537-.211h-.865a5.85,5.85,0,0,0-1.715.257.308.308,0,0,1-.019.072A14.656,14.656,0,0,0,8.343,26.6a1.38,1.38,0,1,1-.679-.015,16.432,16.432,0,0,1,.914-3.552A5.874,5.874,0,0,0,5.291,28.3V30.7a.337.337,0,0,0,.337.337H17.563A.341.341,0,0,0,17.9,30.7V28.3a5.883,5.883,0,0,0-3.592-5.411Z" transform="translate(-5.291 -14.868)" fill="#546788"/>
</svg>
