<svg xmlns="http://www.w3.org/2000/svg" width="14.159" height="17.596" viewBox="0 0 14.159 17.596">
  <g id="Icon" transform="translate(-50)">
    <path id="IDBadge" d="M62.441,0H51.718A1.719,1.719,0,0,0,50,1.718V15.878A1.719,1.719,0,0,0,51.718,17.6H62.441a1.719,1.719,0,0,0,1.718-1.718V1.718A1.719,1.719,0,0,0,62.441,0ZM54.519,1.911a.687.687,0,0,1,.687-.687h3.743a.687.687,0,0,1,0,1.375H55.207A.687.687,0,0,1,54.519,1.911Zm2.56,2.677a2.56,2.56,0,1,1-2.56,2.56A2.56,2.56,0,0,1,57.08,4.588ZM60.918,15.07H53.241a1.025,1.025,0,0,1-.976-1.337l.756-2.361a1.638,1.638,0,0,1,2.117-1.041,5.917,5.917,0,0,0,3.877,0,1.636,1.636,0,0,1,2.117,1.041l.756,2.361A1.018,1.018,0,0,1,60.918,15.07Z" fill="#546788"/>
  </g>
</svg>
