<svg xmlns="http://www.w3.org/2000/svg" width="13.378" height="16.035" viewBox="0 0 13.378 16.035">
  <g id="user_3_" data-name="user (3)" transform="translate(0 0)">
    <path id="Path_44875" data-name="Path 44875" d="M90.894,7.724a3.737,3.737,0,0,0,2.731-1.131,3.737,3.737,0,0,0,1.131-2.731,3.737,3.737,0,0,0-1.131-2.731,3.861,3.861,0,0,0-5.461,0,3.737,3.737,0,0,0-1.131,2.73,3.737,3.737,0,0,0,1.132,2.731A3.738,3.738,0,0,0,90.894,7.724Zm0,0" transform="translate(-84.306 0)" fill="#546788"/>
    <path id="Path_44876" data-name="Path 44876" d="M13.345,251.9a9.54,9.54,0,0,0-.13-1.013,7.982,7.982,0,0,0-.249-1.019,5.032,5.032,0,0,0-.419-.95,3.585,3.585,0,0,0-.631-.823,2.784,2.784,0,0,0-.907-.57,3.135,3.135,0,0,0-1.158-.21,1.175,1.175,0,0,0-.628.266c-.188.123-.408.265-.654.422a3.747,3.747,0,0,1-.846.373,3.285,3.285,0,0,1-2.07,0A3.738,3.738,0,0,1,4.808,248c-.243-.155-.464-.3-.654-.422a1.174,1.174,0,0,0-.627-.266,3.131,3.131,0,0,0-1.158.21,2.782,2.782,0,0,0-.907.57,3.586,3.586,0,0,0-.631.823,5.041,5.041,0,0,0-.419.95,8,8,0,0,0-.249,1.019,9.506,9.506,0,0,0-.13,1.014c-.021.307-.032.625-.032.947a2.662,2.662,0,0,0,.791,2.014,2.847,2.847,0,0,0,2.038.743h7.721a2.846,2.846,0,0,0,2.038-.743,2.661,2.661,0,0,0,.791-2.014c0-.323-.011-.642-.032-.947Zm0,0" transform="translate(0 -239.571)" fill="#546788"/>
  </g>
</svg>
