<svg id="blood-cells" xmlns="http://www.w3.org/2000/svg" width="18" height="18" viewBox="0 0 18 18">
  <path id="Path_44909" data-name="Path 44909" d="M1.47,5.767a5.955,5.955,0,0,0,3.276.912,5.955,5.955,0,0,0,3.276-.912A2.949,2.949,0,0,0,9.492,3.34,2.949,2.949,0,0,0,8.022.912,5.955,5.955,0,0,0,4.746,0,5.955,5.955,0,0,0,1.47.912,2.949,2.949,0,0,0,0,3.34,2.949,2.949,0,0,0,1.47,5.767Zm.877-2.852a.527.527,0,0,1,.738.111,2.484,2.484,0,0,0,1.661.489,2.478,2.478,0,0,0,1.662-.491.527.527,0,1,1,.847.629,3.279,3.279,0,0,1-2.509.917,3.279,3.279,0,0,1-2.509-.917.527.527,0,0,1,.111-.738Z" transform="translate(0 0)" fill="#546788"/>
  <path id="Path_44910" data-name="Path 44910" d="M6.476,279.705a5.955,5.955,0,0,0-2.961-1.671,2.949,2.949,0,0,0-2.756.677,2.948,2.948,0,0,0-.677,2.756,5.955,5.955,0,0,0,1.671,2.961A5.955,5.955,0,0,0,4.714,286.1a2.949,2.949,0,0,0,2.756-.677,2.949,2.949,0,0,0,.677-2.756A5.955,5.955,0,0,0,6.476,279.705Zm-.809,4.357a3.279,3.279,0,0,1-2.422-1.125,3.279,3.279,0,0,1-1.126-2.422.527.527,0,1,1,1.043.156,2.484,2.484,0,0,0,.828,1.52,2.478,2.478,0,0,0,1.523.828.527.527,0,1,1,.154,1.043Z" transform="translate(0 -268.181)" fill="#546788"/>
  <path id="Path_44911" data-name="Path 44911" d="M236.059,100.872a3.559,3.559,0,0,0-3.326-.81,7.79,7.79,0,0,0-5.687,5.687,3.293,3.293,0,0,0,4.136,4.136,7.79,7.79,0,0,0,5.687-5.687A3.559,3.559,0,0,0,236.059,100.872Zm-1.325,3.186a5.828,5.828,0,0,1-3.693,3.693,1.78,1.78,0,0,1-1.694-.167.527.527,0,0,1,.7-.783,1.66,1.66,0,0,0,.85-.11,4.874,4.874,0,0,0,2.774-2.774,1.661,1.661,0,0,0,.11-.85.527.527,0,0,1,.783-.7A1.78,1.78,0,0,1,234.734,104.058Z" transform="translate(-218.967 -96.449)" fill="#546788"/>
</svg>
