<svg xmlns="http://www.w3.org/2000/svg" width="14.879" height="16.939" viewBox="0 0 14.879 16.939">
  <path id="height_2_" data-name="height (2)" d="M12.953,3.378a1.305,1.305,0,0,0,1.1-1.5,1.305,1.305,0,0,0-1.5-1.1,1.259,1.259,0,0,0-1.1,1.324A1.419,1.419,0,0,0,12.953,3.378ZM17.9,9.071l-2.957-5.34H10.967L8.01,9.071a.559.559,0,0,0,.044.794c.044.044.088.088.132.088a.785.785,0,0,0,1.059-.265l1.589-2.957V17.1a.756.756,0,0,0,.75.574.863.863,0,0,0,.927-.53c0-.221.044-6.09.044-6.09h.794s0,5.869.044,6.09a.886.886,0,0,0,.927.53.808.808,0,0,0,.75-.574V6.776L16.66,9.733A.818.818,0,0,0,17.719,10a.551.551,0,0,0,.309-.75.609.609,0,0,0-.132-.177ZM3.2,17.014H4.3V.774H3.2ZM4.656,1.657v.618H7.083V1.657Zm0,5.031H7.083V6.07H4.656Zm0,4.457H7.083v-.618H4.656v.618Zm0,4.457H7.083v-.618H4.656V15.6Zm1.456-2.824H4.656V13.4H6.113Zm0-4.457H4.656v.618H6.113V8.32Zm0-4.457H4.656v.618H6.113Z" transform="translate(-3.2 -0.754)" fill="#546788"/>
</svg>
