<svg xmlns="http://www.w3.org/2000/svg" width="17.903" height="17.992" viewBox="0 0 17.903 17.992">
  <g id="research" transform="translate(-3.504)">
    <path id="Path_44913" data-name="Path 44913" d="M315.638,8.787V12h3.217Z" transform="translate(-302.054 -8.439)" fill="#546788"/>
    <path id="Path_44914" data-name="Path 44914" d="M151.133,120h2.084v1.272h-2.084Z" transform="translate(-144.065 -115.249)" fill="#546788"/>
    <circle id="Ellipse_697" data-name="Ellipse 697" cx="2.376" cy="2.376" r="2.376" transform="translate(14.772 9.348)" fill="#546788"/>
    <path id="Path_44916" data-name="Path 44916" d="M71.213,11.724a3.569,3.569,0,0,1,3.565-3.565V4.753H70.619a.594.594,0,0,1-.594-.594V0h-8.3a.594.594,0,0,0-.594.594V17.4a.594.594,0,0,0,.594.594H74.184a.594.594,0,0,0,.594-.594V15.289a3.569,3.569,0,0,1-3.565-3.565Zm-7.7-7.565a.594.594,0,0,1,.594-.594h3.272a.594.594,0,0,1,.594.594v2.46a.594.594,0,0,1-.594.594H64.1a.594.594,0,0,1-.594-.594ZM64.1,8.4h5.178a.594.594,0,1,1,0,1.188H64.1a.594.594,0,0,1,0-1.188Zm0,2.377h4.739a.594.594,0,1,1,0,1.188H64.1a.594.594,0,0,1,0-1.188Zm5.42,3.565H64.1a.594.594,0,0,1,0-1.188h5.42a.594.594,0,1,1,0,1.188Z" transform="translate(-57.629)" fill="#546788"/>
    <path id="Path_44917" data-name="Path 44917" d="M459.775,349.3l-1.179-1.179a3.6,3.6,0,0,1-.84.84l1.179,1.179a.594.594,0,1,0,.84-.84Z" transform="translate(-438.543 -334.333)" fill="#546788"/>
  </g>
</svg>
