<svg xmlns="http://www.w3.org/2000/svg" width="12.333" height="18.5" viewBox="0 0 12.333 18.5">
  <path id="phone" d="M16.483,1H7.85A1.851,1.851,0,0,0,6,2.85v14.8A1.851,1.851,0,0,0,7.85,19.5h8.633a1.851,1.851,0,0,0,1.85-1.85V2.85A1.851,1.851,0,0,0,16.483,1Zm-5.54,7A.723.723,0,0,0,9.92,8l-.342.341a1.69,1.69,0,0,0,0,2.389l2.73,2.73a1.69,1.69,0,0,0,2.389,0l.341-.342a.723.723,0,0,0,0-1.024l-.512-.512a.483.483,0,0,0-.683,0l-.341.342a.483.483,0,0,1-.683,0l-1.706-1.706a.483.483,0,0,1,0-.683l.342-.341a.483.483,0,0,0,0-.683Zm-.388-5.762.206.617h2.811l.206-.617Z" transform="translate(-6 -1)" fill="#546788" fill-rule="evenodd"/>
</svg>
