<svg xmlns="http://www.w3.org/2000/svg" width="15.321" height="14.913" viewBox="0 0 15.321 14.913">
  <path id="heart-attack" d="M15.161,4.227a5.125,5.125,0,0,0-1.573-2.7A3.958,3.958,0,0,0,10.988.5a3.629,3.629,0,0,0-2.006.612,4.952,4.952,0,0,0-1.322,1.3A4.077,4.077,0,0,0,4.332.5a3.957,3.957,0,0,0-2.6,1.031,5.126,5.126,0,0,0-1.573,2.7,6.5,6.5,0,0,0,.1,3.244H2.576l.837-1.809a.435.435,0,0,1,.8,0L5.738,8.95,7.259,5.662a.435.435,0,0,1,.8,0L8.9,7.472h3.126a.486.486,0,0,1,0,.97h-3.4a.447.447,0,0,1-.4-.268l-.56-1.21L6.139,10.251a.435.435,0,0,1-.8,0L3.815,6.963l-.56,1.21a.447.447,0,0,1-.4.268H.594a9.524,9.524,0,0,0,.556,1.115,17.07,17.07,0,0,0,6.295,5.8.42.42,0,0,0,.43,0,17.079,17.079,0,0,0,6.3-5.8,7.164,7.164,0,0,0,.99-5.329Zm0,0" transform="translate(0 -0.5)" fill="#546788"/>
</svg>
