<svg xmlns="http://www.w3.org/2000/svg" width="8.912" height="18.439" viewBox="0 0 8.912 18.439">
  <path id="temprature" d="M57.455,338.606A4.551,4.551,0,0,1,53,333.965a4.717,4.717,0,0,1,1.485-3.459v-7.369a2.97,2.97,0,0,1,5.94,0v7.369a4.717,4.717,0,0,1,1.485,3.459A4.551,4.551,0,0,1,57.455,338.606Zm1.98-6.947-.495-.461v-8.061a1.485,1.485,0,1,0-2.97,0V331.2l-.495.461a3.14,3.14,0,0,0-.991,2.306,2.97,2.97,0,0,0,5.94,0,3.139,3.139,0,0,0-.991-2.306Zm-1.98,4.627a2.275,2.275,0,0,1-2.228-2.32,2.316,2.316,0,0,1,1.485-2.187V326.23H58.2v5.544a2.316,2.316,0,0,1,1.485,2.187A2.275,2.275,0,0,1,57.455,336.286Z" transform="translate(-52.999 -320.167)" fill="#546788" fill-rule="evenodd"/>
</svg>
