<svg xmlns="http://www.w3.org/2000/svg" width="15.369" height="16.331" viewBox="0 0 15.369 16.331">
  <path id="Path_44474" data-name="Path 44474" d="M29.949,0h-8.86a3.229,3.229,0,0,0-3.237,3.546l1.042,9.9a3.239,3.239,0,0,0,3.237,2.882h2.9V12.487a.484.484,0,0,1,.968,0v3.844h2.9a3.239,3.239,0,0,0,3.237-2.882l1.042-9.9A3.229,3.229,0,0,0,29.949,0Zm1.06,5.237L28.372,8.231a.487.487,0,0,1-.365.164H23.031a.487.487,0,0,1-.365-.164L20.029,5.237a.473.473,0,0,1,0-.627,7.142,7.142,0,0,1,10.981,0,.473.473,0,0,1,0,.627Z" transform="translate(-17.834)" fill="#546788"/>
</svg>
