<svg xmlns="http://www.w3.org/2000/svg" width="17.12" height="16" viewBox="0 0 17.12 16">
  <g id="calendar_4_" data-name="calendar (4)" transform="translate(-1 -2)">
    <path id="Path_44796" data-name="Path 44796" d="M16.253,2h-1.6V3.6a.533.533,0,1,1-1.067,0V2H5.053V3.6a.533.533,0,1,1-1.067,0V2h-1.6A1.469,1.469,0,0,0,1,3.6V5.52H18.067V3.6A1.8,1.8,0,0,0,16.253,2ZM1,6.64V16.4A1.447,1.447,0,0,0,2.44,18H16.307a1.8,1.8,0,0,0,1.813-1.6V6.64ZM5.747,15.6H4.467a.421.421,0,0,1-.427-.427V13.84a.421.421,0,0,1,.427-.427H5.8a.421.421,0,0,1,.427.427v1.333a.467.467,0,0,1-.48.427Zm0-4.8H4.467a.421.421,0,0,1-.427-.427V9.04a.421.421,0,0,1,.427-.427H5.8a.421.421,0,0,1,.427.427v1.333a.467.467,0,0,1-.48.427Zm4.267,4.8H8.68a.421.421,0,0,1-.427-.427V13.84a.421.421,0,0,1,.427-.427h1.333a.421.421,0,0,1,.427.427v1.333A.393.393,0,0,1,10.013,15.6Zm0-4.8H8.68a.421.421,0,0,1-.427-.427V9.04a.421.421,0,0,1,.427-.427h1.333a.421.421,0,0,1,.427.427v1.333A.393.393,0,0,1,10.013,10.8Zm4.267,4.8H12.947a.421.421,0,0,1-.427-.427V13.84a.421.421,0,0,1,.427-.427H14.28a.421.421,0,0,1,.427.427v1.333A.393.393,0,0,1,14.28,15.6Zm0-4.8H12.947a.421.421,0,0,1-.427-.427V9.04a.421.421,0,0,1,.427-.427H14.28a.421.421,0,0,1,.427.427v1.333A.393.393,0,0,1,14.28,10.8Z" fill="#1d4999"/>
  </g>
</svg>
