<svg xmlns="http://www.w3.org/2000/svg" width="11.724" height="16.335" viewBox="0 0 11.724 16.335">
  <g id="Layer_4" transform="translate(-16.42 -4)">
    <g id="Group_8183" data-name="Group 8183" transform="translate(16.42 4)">
      <path id="Path_44699" data-name="Path 44699" d="M16.552,12.81a12.673,12.673,0,0,1,.6,1.49c.4,1.5,1.6,6.036,5.8,6.036h.086a4.96,4.96,0,0,0,3.6-1.229,5.048,5.048,0,0,0,1.51-3.586l-.037-7.342a.807.807,0,0,0-1.613,0l-.014,4.047a.341.341,0,0,1-.34.339h0a.34.34,0,0,1-.34-.34v-6.1a.743.743,0,0,0-.742-.742h-.128a.743.743,0,0,0-.739.669V11.7a.34.34,0,0,1-.34.34h0a.34.34,0,0,1-.34-.34V4.742A.743.743,0,0,0,22.766,4h-.128a.743.743,0,0,0-.742.742l.017,6.692a.34.34,0,0,1-.34.34h0a.34.34,0,0,1-.34-.339l-.017-5.184a.744.744,0,0,0-.726-.586h-.128a.743.743,0,0,0-.742.742v6.123L20.654,14.3a.34.34,0,0,1-.586.347l-1.7-2.84a1.047,1.047,0,0,0-.913-.538,1.027,1.027,0,0,0-.5.132,1.038,1.038,0,0,0-.4,1.412Z" transform="translate(-16.42 -4)" fill="#929292"/>
    </g>
  </g>
</svg>
