<svg xmlns="http://www.w3.org/2000/svg" width="10.968" height="18.331" viewBox="0 0 10.968 18.331">
  <path id="tap_1_" data-name="tap (1)" d="M113.785,10.078l0,2.974a4.766,4.766,0,0,1-1.179,3.141,2.686,2.686,0,0,0-.693,1.85.286.286,0,0,1-.286.288h-5.488a.286.286,0,0,1-.286-.288,2.686,2.686,0,0,0-.695-1.85,4.781,4.781,0,0,1-1.189-3.149l0-2.526a1.276,1.276,0,0,1,1.275-1.274h.152l0-5.4a1.274,1.274,0,1,1,2.549,0l0,4.081a1.352,1.352,0,0,1,.7-.193h0a1.293,1.293,0,0,1,1.005.459,1.184,1.184,0,0,1,.3-.243,1.367,1.367,0,0,1,1.345,0,1.2,1.2,0,0,1,.6.985l.045-.028a1.235,1.235,0,0,1,1.232,0A1.29,1.29,0,0,1,113.785,10.078Zm-5.617-7.439a.285.285,0,0,0,.2-.083L109.4,1.534a.286.286,0,1,0-.4-.406L107.967,2.15a.286.286,0,0,0,.2.49Zm.622.922a.286.286,0,1,0,0,.573l1.449,0h0a.286.286,0,0,0,0-.573l-1.449,0Zm-3.953.286a.286.286,0,0,0-.286-.286h0l-1.448,0a.286.286,0,0,0,0,.573h0l1.448,0a.286.286,0,0,0,.286-.287Zm1.834-1.83h0a.286.286,0,0,0,.286-.287l0-1.444A.286.286,0,0,0,106.669,0h0a.286.286,0,0,0-.286.287l0,1.444A.286.286,0,0,0,106.672,2.017Zm-1.7.539a.286.286,0,1,0,.4-.406L104.35,1.128a.286.286,0,0,0-.4.406Z" transform="translate(-102.817 0)" fill="#929292"/>
</svg>
