<svg xmlns="http://www.w3.org/2000/svg" width="17.181" height="17.18" viewBox="0 0 17.181 17.18">
  <g id="dermatology" transform="translate(-2 -2.005)">
    <path id="Path_44660" data-name="Path 44660" d="M47.666,48.355l.4.4.69-.69-.4-.4a6.524,6.524,0,0,1-.689.689Z" transform="translate(-31.655 -31.652)" fill="#929292"/>
    <path id="Path_44661" data-name="Path 44661" d="M50.385,51.076l1.58,1.582a.225.225,0,0,0,.315,0l.377-.377a.226.226,0,0,0,0-.317l-1.58-1.578Z" transform="translate(-33.54 -33.537)" fill="#929292"/>
    <path id="Path_44662" data-name="Path 44662" d="M2,10.253a2.478,2.478,0,0,0,.524,1.517l2.2,2.792a3.1,3.1,0,0,1,.655,1.895v2.421a.307.307,0,0,0,.307.307h6.136a.307.307,0,0,0,.307-.307v-.629c-.1,0-.2.016-.307.016A6.443,6.443,0,1,1,13.352,5.571V4.2a.957.957,0,0,0-.83-.968.936.936,0,0,0-1.011.916.307.307,0,1,1-.614,0V3.589a.957.957,0,0,0-.83-.968.936.936,0,0,0-1.011.916.307.307,0,1,1-.614,0V2.975a.957.957,0,0,0-.83-.968A.934.934,0,0,0,6.6,2.924V3.23a.307.307,0,1,1-.614,0,.93.93,0,0,0-1.01-.916.957.957,0,0,0-.831.967V9.367a.307.307,0,0,1-.614,0V5.1A1.843,1.843,0,0,0,2,6.912Z" fill="#929292"/>
    <path id="Path_44663" data-name="Path 44663" d="M40.682,24.808a4.6,4.6,0,0,0-2.455-4.068v3.24a2.753,2.753,0,0,1-.239,1.123l-.8,1.808a2.138,2.138,0,0,0-.184.873v1.534A4.61,4.61,0,0,0,40.682,24.808Z" transform="translate(-24.261 -12.987)" fill="#929292"/>
    <path id="Path_44664" data-name="Path 44664" d="M15,20.829A5.829,5.829,0,1,0,20.829,15,5.829,5.829,0,0,0,15,20.829Zm6.443-3.989a.307.307,0,0,1,.307.307v.307a.307.307,0,1,1-.614,0v-.307A.307.307,0,0,1,21.443,16.841Zm0,2.455a.307.307,0,0,1-.307-.307v-.307a.307.307,0,0,1,.614,0v.307A.307.307,0,0,1,21.443,19.3Zm.307.92v.307a.307.307,0,1,1-.614,0v-.307a.307.307,0,1,1,.614,0Zm-.614-4.3a.307.307,0,0,1-.307.307,4.6,4.6,0,0,0,0,9.2c.1,0,.2-.009.307-.016v-1.61a2.753,2.753,0,0,1,.239-1.123l.8-1.808A2.138,2.138,0,0,0,22.364,20V16.49q-.188-.067-.384-.118a.307.307,0,1,1,.153-.594,5.218,5.218,0,1,1-1.3-.165A.307.307,0,0,1,21.136,15.92Zm-.92,6.75a.307.307,0,0,1-.307-.307v-.307a.307.307,0,0,1,.614,0v.307A.307.307,0,0,1,20.216,22.67Zm.307.92V23.9a.307.307,0,0,1-.614,0v-.307a.307.307,0,1,1,.614,0Zm-.307-2.455a.307.307,0,0,1-.307-.307v-.307a.307.307,0,0,1,.614,0v.307A.307.307,0,0,1,20.216,21.136Zm0-1.534a.307.307,0,0,1-.307-.307v-.307a.307.307,0,0,1,.614,0V19.3A.307.307,0,0,1,20.216,19.6Zm0-1.534a.307.307,0,0,1-.307-.307v-.307a.307.307,0,1,1,.614,0v.307A.307.307,0,0,1,20.216,18.068ZM18.989,21.75a.307.307,0,0,1-.307-.307v-.307a.307.307,0,1,1,.614,0v.307A.307.307,0,0,1,18.989,21.75Zm.307.92v.307a.307.307,0,0,1-.614,0V22.67a.307.307,0,0,1,.614,0Zm-.307-2.455a.307.307,0,0,1-.307-.307V19.6a.307.307,0,0,1,.614,0v.307A.307.307,0,0,1,18.989,20.216Zm0-1.534a.307.307,0,0,1-.307-.307v-.307a.307.307,0,1,1,.614,0v.307A.307.307,0,0,1,18.989,18.682Zm-1.227,2.761a.307.307,0,0,1-.307-.307v-.307a.307.307,0,1,1,.614,0v.307A.307.307,0,0,1,17.761,21.443Zm.307.92v.307a.307.307,0,1,1-.614,0v-.307a.307.307,0,1,1,.614,0Zm-.307-2.455a.307.307,0,0,1-.307-.307V19.3a.307.307,0,1,1,.614,0V19.6A.307.307,0,0,1,17.761,19.909Z" transform="translate(-9.011 -9.008)" fill="#929292"/>
  </g>
</svg>
