<svg xmlns="http://www.w3.org/2000/svg" width="16.103" height="16.331" viewBox="0 0 16.103 16.331">
  <path id="spinal" d="M20.534,10.644l-1.8-3.291a3.135,3.135,0,0,0-3.353-1.72,1.388,1.388,0,0,1-.982-.406A1.374,1.374,0,0,1,14,4.247.248.248,0,0,0,13.749,4H11.275a.248.248,0,0,0-.247.247,1.374,1.374,0,0,1-.406.98,1.393,1.393,0,0,1-.96.408A3.141,3.141,0,0,0,6.289,7.35l-1.8,3.293a.249.249,0,0,0-.03.119v4.159a.247.247,0,0,0,.448.144l3.026-4.2c.079.8.2,1.569.312,2.319.374,2.457.7,4.58-.371,6.792a.251.251,0,0,0,.012.24.247.247,0,0,0,.21.116h4.355a.375.375,0,0,1-.4-.262c-.322-.04-.544-.3-.418-.824a.247.247,0,0,1,.48.116.412.412,0,0,0-.017.22c.21-.064.48-.01.473.238a.247.247,0,0,1,.109.483,1.084,1.084,0,0,1-.228.03h4.471a.25.25,0,0,0,.223-.356c-1.071-2.212-.747-4.335-.371-6.792.114-.75.233-1.519.312-2.319l3.026,4.2a.247.247,0,0,0,.448-.144V10.763a.249.249,0,0,0-.03-.119ZM8.142,10.421h-.02a.248.248,0,0,1-.247-.228C7.845,9.807,7.83,9.407,7.83,9a.247.247,0,1,1,.495,0c0,.391.015.777.045,1.151A.246.246,0,0,1,8.142,10.421Zm2.61.057a2.058,2.058,0,0,1-1.267.977.313.313,0,0,1-.064.01.245.245,0,0,1-.238-.183.25.25,0,0,1,.173-.3,1.573,1.573,0,0,0,.965-.745,1.539,1.539,0,0,0,.144-1.185.247.247,0,0,1,.171-.3c.487-.139.5,1.054.116,1.735Zm1.707,1.878a.513.513,0,0,0,.111.173A1.261,1.261,0,0,0,12.7,12.4a.248.248,0,0,1,.384,0,.247.247,0,0,1,.393.3c-.25.327-.473.337-.626.233-.277.183-.616.124-.841-.366A.247.247,0,0,1,12.46,12.356Zm0-1.01a.513.513,0,0,0,.111.173,1.018,1.018,0,0,0,.131-.131.246.246,0,0,1,.384,0,.248.248,0,0,1,.346-.047c.317.242-.242.807-.581.579-.349.23-.663.017-.841-.366a.248.248,0,0,1,.45-.208Zm1.294,3.274c-.223.351-.44.379-.6.294-.552.443-1.153-.413-.772-.624a.25.25,0,0,1,.337.1.453.453,0,0,0,.116.156,1.467,1.467,0,0,0,.124-.148.249.249,0,0,1,.379-.037A.247.247,0,1,1,13.754,14.62Zm0,1.01c-.069.106-.23.359-.48.332a.33.33,0,0,1-.121-.037c-.53.426-1.165-.408-.772-.624a.248.248,0,0,1,.337.1.453.453,0,0,0,.116.156,1.467,1.467,0,0,0,.124-.148.244.244,0,0,1,.235-.106.253.253,0,0,1,.144.069s0,0,0,0a.247.247,0,1,1,.416.267Zm-.074-2.363c.334.213-.168.824-.527.636-.329.265-.663.087-.871-.287a.248.248,0,0,1,.433-.24.453.453,0,0,0,.116.156,1.467,1.467,0,0,0,.124-.148.249.249,0,0,1,.379-.037A.252.252,0,0,1,13.68,13.267Zm-.826-2.358c-.577.379-1.113-.512-.72-.693a.249.249,0,0,1,.329.121.513.513,0,0,0,.111.173,1.019,1.019,0,0,0,.131-.131.247.247,0,0,1,.24-.087.25.25,0,0,1,.141.084.248.248,0,0,1,.346-.047c.312.238-.23.812-.579.579Zm-.784-6.015a.248.248,0,0,1,.166.309.412.412,0,0,0-.03.218.484.484,0,0,0,.188,0,.248.248,0,0,1,.272.277.244.244,0,0,1,.29.208c.057.4-.735.406-.819,0-.653-.126-.49-1.143-.067-1.015Zm-.257,1.012a.248.248,0,0,1,.166.309.421.421,0,0,0-.03.22.476.476,0,0,0,.188,0,.247.247,0,0,1,.272.277.245.245,0,0,1,.29.208c.054.379-.732.418-.819,0-.651-.131-.487-1.146-.067-1.017Zm-.554,1.178a.247.247,0,0,1,.287.2.468.468,0,0,0,.067.2,1.071,1.071,0,0,0,.158-.094.247.247,0,0,1,.371.1.245.245,0,0,1,.346.042c.247.314-.435.72-.708.416C11.151,8.152,10.817,7.165,11.257,7.083Zm.255,1.079a.244.244,0,0,1,.312.156.455.455,0,0,0,.092.181,1.058,1.058,0,0,0,.146-.119.248.248,0,0,1,.381.037.247.247,0,0,1,.351-.01c.29.275-.327.777-.638.52-.6.309-1.069-.624-.643-.765Zm.413.985a.246.246,0,0,1,.3.173.492.492,0,0,0,.082.188,1.037,1.037,0,0,0,.151-.111.247.247,0,0,1,.379.059.25.25,0,0,1,.351.007c.265.277-.346.774-.666.483C11.918,10.223,11.495,9.268,11.925,9.147Zm.47,9.91c-.322-.04-.544-.294-.418-.824a.248.248,0,0,1,.483.116.412.412,0,0,0-.017.22.642.642,0,0,0,.178-.015.248.248,0,0,1,.294.252.25.25,0,0,1,.3.186c.084.391-.705.468-.817.064Zm.413-.972c-.322.037-.6-.161-.584-.708a.247.247,0,0,1,.495.01.449.449,0,0,0,.027.213.982.982,0,0,0,.163-.059.247.247,0,0,1,.346.171.246.246,0,0,1,.324.111c.178.356-.569.626-.772.262Zm.421-1.062c-.309.131-.628.012-.765-.51a.248.248,0,0,1,.48-.124.513.513,0,0,0,.079.191.95.95,0,0,0,.151-.106.249.249,0,0,1,.379.067.247.247,0,0,1,.349.015C14.172,16.847,13.524,17.3,13.229,17.023Zm2.633-5.946a2.072,2.072,0,0,1-2.071-2.071.247.247,0,0,1,.495,0,1.579,1.579,0,0,0,1.576,1.576.247.247,0,1,1,0,.495Zm1.284-.883a.248.248,0,0,1-.247.228h-.02a.248.248,0,0,1-.228-.267c.03-.374.045-.76.045-1.151a.247.247,0,1,1,.495,0C17.191,9.409,17.176,9.81,17.146,10.193Z" transform="translate(-4.46 -4)" fill="#929292"/>
</svg>
