<svg id="fungus" xmlns="http://www.w3.org/2000/svg" width="16.331" height="16.331" viewBox="0 0 16.331 16.331">
  <path id="Path_44630" data-name="Path 44630" d="M361.847,2.474a.948.948,0,0,0-.3-.692l-.153-.146.005-.212a.955.955,0,0,0-.979-.979l-.212.005L360.066.3a.955.955,0,0,0-1.384,0l-.146.153-.212-.005a.955.955,0,0,0-.979.979l.005.212-.153.146a.955.955,0,0,0,0,1.384l.153.146-.005.212a.955.955,0,0,0,.979.979l.212-.005.146.153a.955.955,0,0,0,1.384,0l.146-.153.212.005a.955.955,0,0,0,.979-.979l-.005-.212.153-.146A.948.948,0,0,0,361.847,2.474Z" transform="translate(-345.516 0)" fill="#929292"/>
  <path id="Path_44631" data-name="Path 44631" d="M87,59.708l-.329-.255.206-.361a1.1,1.1,0,0,0,.063-.972l-.01-.022A1.916,1.916,0,0,1,84.8,57.87a1.913,1.913,0,0,1-1.745-1.745,1.893,1.893,0,0,1-.451-1.234,1.95,1.95,0,0,1,.017-.259,1.122,1.122,0,0,0-.136.066l-.362.207-.255-.33a1.1,1.1,0,0,0-1.75,0l-.255.329L79.5,54.7a1.1,1.1,0,0,0-1.616.67l-.109.4-.413-.053a1.1,1.1,0,0,0-1.238,1.237l.052.413-.4.109a1.1,1.1,0,0,0-.669,1.617l.207.362-.33.255a1.1,1.1,0,0,0,0,1.75l.079.061a2.285,2.285,0,0,1,.258-.015,2.216,2.216,0,0,1,1.47.551,2.238,2.238,0,0,1,2.08,2.08,2.243,2.243,0,0,1,.324,2.454,1.118,1.118,0,0,0,.306-.12l.362-.207.255.33a1.1,1.1,0,0,0,1.75,0l.255-.329.361.206A1.1,1.1,0,0,0,84.1,65.8l.109-.4.413.053a1.1,1.1,0,0,0,1.238-1.237L85.8,63.8l.4-.109a1.1,1.1,0,0,0,.669-1.617l-.207-.362.33-.255a1.1,1.1,0,0,0,0-1.75Z" transform="translate(-72.173 -52.417)" fill="#929292"/>
  <path id="Path_44632" data-name="Path 44632" d="M5.737,316.925l.005-.212A1.281,1.281,0,0,0,4.43,315.4l-.212.005-.146-.153a1.281,1.281,0,0,0-1.856,0l-.146.153-.212-.005a1.281,1.281,0,0,0-1.312,1.312l.005.212-.153.146a1.281,1.281,0,0,0,0,1.856l.153.146-.005.212A1.281,1.281,0,0,0,1.858,320.6l.212-.005.146.153a1.28,1.28,0,0,0,1.856,0l.146-.153.212.005a1.281,1.281,0,0,0,1.312-1.312l-.005-.212.153-.146a1.281,1.281,0,0,0,0-1.856Z" transform="translate(0 -304.812)" fill="#929292"/>
  <path id="Path_44633" data-name="Path 44633" d="M26.532,37.032l-.005.212a.951.951,0,0,0,.646.924q.028-.088.063-.175a2.047,2.047,0,0,1,1-1.065,2.064,2.064,0,0,1,1.935-1.934,2.049,2.049,0,0,1,.24-.382.96.96,0,0,0-.126-.156.943.943,0,0,0-.7-.278l-.212.005-.146-.153a.95.95,0,0,0-1.376,0l-.146.153-.212-.005a.95.95,0,0,0-.973.973l.005.212-.153.146a.95.95,0,0,0,0,1.376Z" transform="translate(-25.251 -32.659)" fill="#929292"/>
</svg>
