<svg id="teeth_1_" data-name="teeth (1)" xmlns="http://www.w3.org/2000/svg" width="24.133" height="11.836" viewBox="0 0 24.133 11.836">
  <path id="Path_44645" data-name="Path 44645" d="M10.8,31.578a3.764,3.764,0,0,0,2.2-.707.447.447,0,0,1,.519,0,3.84,3.84,0,0,0,4.4,0,.446.446,0,0,1,.518,0,3.851,3.851,0,0,0,4.4,0,.447.447,0,0,1,.518,0,3.8,3.8,0,0,0,6-3.053l-.032-.024a2.4,2.4,0,0,0-.351-.214c-.022-.011-.044-.024-.067-.034a2.381,2.381,0,0,0-.443-.156v.384a2.9,2.9,0,0,1-5.363,1.547,2.9,2.9,0,0,1-4.916,0,2.9,2.9,0,0,1-4.916,0,2.9,2.9,0,0,1-5.363-1.547v-.384a2.377,2.377,0,0,0-.444.156c-.022.01-.042.022-.064.033a2.4,2.4,0,0,0-.356.217L7,27.822a3.8,3.8,0,0,0,3.8,3.756Z" transform="translate(-6.106 -23.535)" fill="#929292"/>
  <path id="Path_44646" data-name="Path 44646" d="M29.006,30.64a4.688,4.688,0,0,1-7.024,2.93,4.754,4.754,0,0,1-4.916,0,4.742,4.742,0,0,1-4.916,0,4.645,4.645,0,0,1-2.458.7A4.7,4.7,0,0,1,5.127,30.64,2.081,2.081,0,0,0,5,31.36v4.459a54.709,54.709,0,0,0,24.133,0V31.362a2.085,2.085,0,0,0-.127-.721Z" transform="translate(-5 -25.33)" fill="#929292"/>
  <path id="Path_44647" data-name="Path 44647" d="M13.011,25.013A2.013,2.013,0,0,0,15.022,23V18.959a10.13,10.13,0,0,0-4.022,0V23A2.013,2.013,0,0,0,13.011,25.013Z" transform="translate(-8.319 -18.758)" fill="#929292"/>
  <path id="Path_44648" data-name="Path 44648" d="M46.011,25.013A2.013,2.013,0,0,0,48.022,23V18.959a10.13,10.13,0,0,0-4.022,0V23A2.013,2.013,0,0,0,46.011,25.013Z" transform="translate(-26.57 -18.758)" fill="#929292"/>
  <path id="Path_44649" data-name="Path 44649" d="M35.011,25.013A2.013,2.013,0,0,0,37.022,23V18.959a10.13,10.13,0,0,0-4.022,0V23A2.013,2.013,0,0,0,35.011,25.013Z" transform="translate(-20.486 -18.758)" fill="#929292"/>
  <path id="Path_44650" data-name="Path 44650" d="M24.011,25.013A2.013,2.013,0,0,0,26.022,23V18.959a10.13,10.13,0,0,0-4.022,0V23a2.013,2.013,0,0,0,2.011,2.011Z" transform="translate(-14.402 -18.758)" fill="#929292"/>
</svg>
