<svg xmlns="http://www.w3.org/2000/svg" width="18.127" height="16.331" viewBox="0 0 18.127 16.331">
  <path id="heart-attack" d="M17.938,4.582a5.541,5.541,0,0,0-1.861-2.952A4.9,4.9,0,0,0,13,.5a4.543,4.543,0,0,0-2.374.67A5.675,5.675,0,0,0,9.062,2.595,4.918,4.918,0,0,0,5.126.5,4.9,4.9,0,0,0,2.05,1.629,5.541,5.541,0,0,0,.19,4.581,6.606,6.606,0,0,0,.3,8.134H3.048l.991-1.981a.531.531,0,0,1,.95,0l1.8,3.6,1.8-3.6a.531.531,0,0,1,.95,0l.991,1.981h3.7a.531.531,0,0,1,0,1.062H10.2A.531.531,0,0,1,9.726,8.9L9.064,7.578l-1.8,3.6a.531.531,0,0,1-.95,0l-1.8-3.6L3.851,8.9a.531.531,0,0,1-.475.293H.7a10.139,10.139,0,0,0,.658,1.221,19.663,19.663,0,0,0,7.448,6.349.531.531,0,0,0,.509,0,19.674,19.674,0,0,0,7.451-6.349,7.35,7.35,0,0,0,1.171-5.836Zm0,0" transform="translate(0 -0.5)" fill="#929292"/>
</svg>
