<svg xmlns="http://www.w3.org/2000/svg" width="13.062" height="19.251" viewBox="0 0 13.062 19.251">
  <g id="heart" transform="translate(-13.643 -4)">
    <path id="Path_44651" data-name="Path 44651" d="M17.736,37.593a.321.321,0,0,0-.614-.185c-.243.808.144,1.811,1.153,2.98a.321.321,0,0,0,.486-.419c-.831-.964-1.195-1.808-1.024-2.376Z" transform="translate(-2.315 -22.535)" fill="#929292"/>
    <path id="Path_44652" data-name="Path 44652" d="M25.626,11.77a.514.514,0,0,1,.227,1h0l-.871.2c-.034-.071-.073-.138-.108-.208-.1-.194-.194-.384-.3-.572-.029-.053-.055-.11-.084-.163ZM19.7,5.562a.851.851,0,0,0,.289-.58l.057-.786a.21.21,0,0,1,.219-.2l.884.089a.94.94,0,0,0,1.684.573l.156-.2a.443.443,0,0,1,.643-.062.212.212,0,0,1,.044.263.863.863,0,0,0-.007.816,4.718,4.718,0,0,0-4.337,3.045.2.2,0,0,1-.2.134c-.328-.019-.79-.028-1.164-.034A4.666,4.666,0,0,1,19.7,5.562Zm-5.477.606a.211.211,0,0,1,.143-.3L15.12,5.7a.211.211,0,0,1,.218.086l.158.229a.853.853,0,0,0,1.463-.1l.38-.757a.211.211,0,0,1,.3-.081l.985.65a4.638,4.638,0,0,0-1.3,2.889h-.007a.32.32,0,0,0-.057.005A3.6,3.6,0,0,0,15.2,9.9V8.271a.855.855,0,0,0-.095-.39ZM16.8,21.893a.211.211,0,0,1-.209.211c-.356,0-.824,0-1.182,0A.211.211,0,0,1,15.2,21.9v-2.3a17.676,17.676,0,0,0,1.6,1.442v.857Zm8.694-1.932h0c-.508,2.529-1.8,3.61-3.827,3.206a5.034,5.034,0,0,1-1.6-.647,21.225,21.225,0,0,1-4.948-3.961c-1.264-1.466-1.723-2.812-1.358-4.031a11.8,11.8,0,0,1,1.386-3.485,3.543,3.543,0,0,1,2.2-1.787h.2c.354,0,1.092.013,1.545.039a.844.844,0,0,0,.835-.545A4.159,4.159,0,0,1,24.122,6.1h.056c.208,0,.421.016.648.038a.214.214,0,0,1,.149.082.211.211,0,0,1,.043.162c-.009.067-.021.176-.033.3a6.258,6.258,0,0,1-.1.739.191.191,0,0,1-.15.12c-.081.013-.18.021-.292.03A2.747,2.747,0,0,0,22.074,8.79a.844.844,0,0,0,.086.993,15.415,15.415,0,0,1,1.562,2.193c.063.106.122.217.183.326a.32.32,0,0,0-.023.129,2.663,2.663,0,0,1-1.637,2.2,3.058,3.058,0,0,1-1.561-2.845.321.321,0,1,0-.639-.059,3.552,3.552,0,0,0,1.536,3.231,3.6,3.6,0,0,0-1.537,3.276.321.321,0,0,0,.318.324h0a.321.321,0,0,0,.321-.318c.023-2.467,1.574-2.913,1.638-2.93l0,0,.019-.007a.313.313,0,0,0,.044-.017l.021-.012h0a3.776,3.776,0,0,0,1.966-2.069c.043.09.09.177.132.268a14.839,14.839,0,0,1,.634,1.614l.037.114a10.8,10.8,0,0,1,.367,1.583,8.959,8.959,0,0,1-.054,3.175Zm1.132-3.879a.51.51,0,0,1-.321.227l-.18.041c0-.011,0-.022-.007-.032-.028-.151-.06-.3-.1-.458-.006-.024-.012-.048-.018-.072-.031-.131-.065-.263-.1-.4,0-.015-.007-.031-.012-.046l.185-.042a.516.516,0,0,1,.55.779Z" fill="#929292"/>
  </g>
</svg>
