<svg xmlns="http://www.w3.org/2000/svg" width="22.344" height="13.057" viewBox="0 0 22.344 13.057">
  <g id="Layer_2" data-name="Layer 2" transform="translate(-0.828 -5.473)">
    <path id="Path_44665" data-name="Path 44665" d="M22.53,10.65,19.44,8.12a11.78,11.78,0,0,0-14.88,0L1.47,10.65a1.74,1.74,0,0,0,0,2.7l3.09,2.53a11.77,11.77,0,0,0,14.88,0l3.09-2.53a1.74,1.74,0,0,0,0-2.7ZM12,18.25A6.25,6.25,0,1,1,18.25,12,6.25,6.25,0,0,1,12,18.25Z" fill="#929292"/>
    <path id="Path_44666" data-name="Path 44666" d="M16,12a4,4,0,1,1-4-4,3.79,3.79,0,0,1,1.07.15,1.89,1.89,0,0,0-.4,1.18,2,2,0,0,0,2,2,1.89,1.89,0,0,0,1.18-.4A3.79,3.79,0,0,1,16,12Z" fill="#929292"/>
  </g>
</svg>
