<svg xmlns="http://www.w3.org/2000/svg" width="19.459" height="18.331" viewBox="0 0 19.459 18.331">
  <g id="identification-parade" transform="translate(-0.001 -0.5)">
    <path id="Path_44667" data-name="Path 44667" d="M328.859,282.523a2.223,2.223,0,0,1,.207.183,2.183,2.183,0,0,1,.513.809H333.5a1.309,1.309,0,0,0,1.268-.992Zm0,0" transform="translate(-316.36 -271.305)" fill="#929292"/>
    <path id="Path_44668" data-name="Path 44668" d="M204.176,29.687c.042-.042.086-.082.131-.12V27.477a1.309,1.309,0,0,0-1.014,1.274v1.821Zm0,0" transform="translate(-195.566 -25.951)" fill="#929292"/>
    <path id="Path_44669" data-name="Path 44669" d="M269.73.5h-8.1a.719.719,0,0,0-.719.719V3.107a2.262,2.262,0,0,1,.246-.014,2.2,2.2,0,0,1,1.552,3.748l-1.112,1.112a2.185,2.185,0,0,1,.529,1.263,2.214,2.214,0,0,1,.846.827h6.762a.719.719,0,0,0,.719-.719v-8.1A.719.719,0,0,0,269.73.5Zm-4.052,1.322a1.326,1.326,0,1,1-1.327,1.326,1.326,1.326,0,0,1,1.327-1.326ZM268,8.133a.588.588,0,0,1-.588.588h-3.459a.588.588,0,0,1-.588-.588V5.981a1.163,1.163,0,0,1,1.163-1.163h2.309A1.163,1.163,0,0,1,268,5.981Zm0,0" transform="translate(-250.99)" fill="#929292"/>
    <path id="Path_44670" data-name="Path 44670" d="M10.8,105.813a1.02,1.02,0,0,0-1.443,0l.309-.309a1.02,1.02,0,0,0-1.443-1.443l2.661-2.661a1.02,1.02,0,1,0-1.443-1.443l-4.311,4.311L3.249,106.15l-.027-.035,1.317-2.121a1.388,1.388,0,0,0-.188-1.631.8.8,0,0,0-1.294.149l-1.69,2.721A8.234,8.234,0,0,0,0,109.4a1.174,1.174,0,0,0,.342.907l3.576,3.575a1.175,1.175,0,0,0,1.069.32l.531-.11a5.725,5.725,0,0,0,2.889-1.558l3.465-3.464a1.02,1.02,0,0,0-1.443-1.443l.367-.367a1.02,1.02,0,0,0,0-1.443Zm0,0" transform="translate(0 -95.39)" fill="#929292"/>
  </g>
</svg>
