<svg xmlns="http://www.w3.org/2000/svg" width="18.995" height="12.78" viewBox="0 0 18.995 12.78">
  <g id="lips" transform="translate(-2.2 -6.6)">
    <path id="Path_44617" data-name="Path 44617" d="M7.9,11.852a2.927,2.927,0,0,1,2.276-.175,5.392,5.392,0,0,0,2.889,0,2.927,2.927,0,0,1,2.276.175c1.838.875,3.326.963,5.865.35l-.525-.525c-.788-.788-1.926-2.013-3.064-3.064C16.043,7.3,14.905,6.6,14.117,6.6a3.069,3.069,0,0,0-2.013.613.529.529,0,0,1-.7,0A3.656,3.656,0,0,0,9.39,6.6c-.875,0-1.926.613-3.5,2.013a25.136,25.136,0,0,0-3.064,3.064L2.3,12.2h0a7.214,7.214,0,0,0,5.6-.35Z" transform="translate(-0.012)" fill="#929292"/>
    <path id="Path_44618" data-name="Path 44618" d="M18.394,14.558a9.523,9.523,0,0,1-3.589-.788,1.777,1.777,0,0,0-1.488-.088,5.967,5.967,0,0,1-3.5,0,2.184,2.184,0,0,0-1.488.088,7.626,7.626,0,0,1-3.589.788,8.855,8.855,0,0,1-2.539-.35,10.157,10.157,0,0,0,2.188,3.151,10.74,10.74,0,0,0,2.889,2.013,10.3,10.3,0,0,0,4.377.875,10.3,10.3,0,0,0,4.377-.875,9.082,9.082,0,0,0,2.889-2.013,11.88,11.88,0,0,0,2.188-3.151,10.048,10.048,0,0,1-2.714.35Z" transform="translate(0 -0.868)" fill="#929292"/>
  </g>
</svg>
