<svg xmlns="http://www.w3.org/2000/svg" width="16.897" height="15.521" viewBox="0 0 16.897 15.521">
  <g id="liver_1_" data-name="liver (1)" transform="translate(0 -19.542)">
    <path id="Path_44658" data-name="Path 44658" d="M381.8,24.972a6.955,6.955,0,0,0-1.7-3.768,3.4,3.4,0,0,0-.283-.293.283.283,0,0,1,.051-.456,7.386,7.386,0,0,0,.953-.641,1.4,1.4,0,0,1,1.223-.211,1.29,1.29,0,0,1,.772.792,6,6,0,0,1-.48,5.458.282.282,0,0,1-.519-.166A4.279,4.279,0,0,0,381.8,24.972Z" transform="translate(-366.354)" fill="#929292"/>
    <path id="Path_44659" data-name="Path 44659" d="M14.885,54.034a6.4,6.4,0,0,0-1.57-3.466,2.771,2.771,0,0,0-2.552-.935c-3.266.51-6.738-.154-8.847,1.542-3.126,2.517-2.083,9.8.661,12.1a2.741,2.741,0,0,0,1.676.786c1.217,0,1.761-1.49,2.7-2.579a.284.284,0,0,0,.032-.325,6.03,6.03,0,0,0-1.959-2.069.282.282,0,0,1,.306-.473,6.664,6.664,0,0,1,1.963,1.966,6.193,6.193,0,0,1,.525,1.013,6.365,6.365,0,0,1,.445,1.846.282.282,0,0,0,.363.255l1.658-.5a.282.282,0,0,0,.176-.384,12.312,12.312,0,0,1-.872-2.953,3.886,3.886,0,0,1,.087-2.1,3.726,3.726,0,0,1,.45-.888.282.282,0,0,1,.514.157.286.286,0,0,1-.05.162,3.148,3.148,0,0,0-.425.887,2.95,2.95,0,0,0-.1,1.168.282.282,0,0,0,.4.23c.644-.289,1.329-.611,2.009-.987a4.687,4.687,0,0,0,2.433-4,3.49,3.49,0,0,0-.019-.447ZM4.243,53.479a6.874,6.874,0,0,0-1.675,3.208.282.282,0,0,1-.55-.121A7.439,7.439,0,0,1,3.831,53.1a.282.282,0,1,1,.412.384Zm.528-1.233.056-.042a.282.282,0,1,1,.337.452.333.333,0,0,1-.222.1A.282.282,0,0,1,4.772,52.246ZM7.8,57.67a.281.281,0,0,1-.428.121,11.521,11.521,0,0,0-1.581-.978.282.282,0,0,1,.257-.5,11.953,11.953,0,0,1,1.372.822,6.477,6.477,0,0,1,1.148-1.69.282.282,0,1,1,.41.386A5.925,5.925,0,0,0,7.8,57.67Z" transform="translate(0 -28.999)" fill="#929292"/>
  </g>
</svg>
