<svg xmlns="http://www.w3.org/2000/svg" width="17.816" height="16.331" viewBox="0 0 17.816 16.331">
  <path id="lungs_1_" data-name="lungs (1)" d="M22.248,16.3a1.485,1.485,0,0,0-1.485,1.485v1.676L19.65,18.349V13.333H18.165v5.016l-1.113,1.113V17.787A1.485,1.485,0,0,0,15.567,16.3C12.493,16.3,10,20.623,10,25.952v1.485a2.227,2.227,0,0,0,2.227,2.227H13.34c2.049,0,3.712-2.659,3.712-5.939V22.612l-3.34,3.34-.787-.787L13.993,24.1H12.227V22.983h1.767a2.951,2.951,0,0,1-1.024-2.227h1.113a1.854,1.854,0,0,0,1.444,1.806l3.381-3.381,3.381,3.381a1.853,1.853,0,0,0,1.444-1.806h1.113a2.951,2.951,0,0,1-1.024,2.227h1.767V24.1H23.823l1.068,1.068-.787.787-3.34-3.34v1.113c0,3.28,1.662,5.939,3.712,5.939h1.113a2.227,2.227,0,0,0,2.227-2.227V25.952c0-5.329-2.493-9.65-5.567-9.65Z" transform="translate(-10 -13.333)" fill="#929292"/>
</svg>
