<svg xmlns="http://www.w3.org/2000/svg" width="16.331" height="16.331" viewBox="0 0 16.331 16.331">
  <g id="neck" transform="translate(0 -0.001)">
    <path id="Path_44671" data-name="Path 44671" d="M98.216.307a6.459,6.459,0,0,0-7.583,9.318,2.848,2.848,0,0,1,.194,2.38l-1.6,4.327h7.24l.3-1.59,1.894.6a.994.994,0,0,0,1.247-.647l.708-2.234,1.969-.072-.38-3.87.42-1.325A6.343,6.343,0,0,0,98.216.307ZM95.531,6.9l-.912-.289a.646.646,0,0,0-1.232-.39L93.03,7.35a1.445,1.445,0,0,0,.456,1.54l0,0a.279.279,0,0,0,.256.047.287.287,0,0,0,.2-.185l.91.3a1.244,1.244,0,0,1-.838.807,1.262,1.262,0,0,1-.353.05,1.222,1.222,0,0,1-.777-.276,2.42,2.42,0,0,1-.764-2.575l.356-1.124a1.6,1.6,0,0,1,3.056.969Z" transform="translate(-86.384 0)" fill="#929292"/>
    <path id="Path_44672" data-name="Path 44672" d="M2.172,384.945l-2.053-.258L0,385.636l.808.1-.291.7,2.053.259.12-.949-.809-.1Z" transform="translate(0 -372.415)" fill="#929292"/>
    <path id="Path_44673" data-name="Path 44673" d="M36.683,294.321l1.66,1.235.571-.768-.654-.487.6-.469L37.2,292.6l-.571.768.654.486Z" transform="translate(-35.461 -283.264)" fill="#929292"/>
  </g>
</svg>
