<svg id="nail" xmlns="http://www.w3.org/2000/svg" width="10.615" height="16.331" viewBox="0 0 10.615 16.331">
  <path id="Path_44634" data-name="Path 44634" d="M39,13.348a3.368,3.368,0,0,1,.052-.593l0-.021a3.348,3.348,0,0,1,6.64.613v4.137a1.5,1.5,0,0,1-1.5,1.5H40.5a1.5,1.5,0,0,1-1.5-1.5Z" transform="translate(-37.04 -10)" fill="#929292"/>
  <path id="Path_44635" data-name="Path 44635" d="M28.306,30.6A4.882,4.882,0,0,0,27,33.935v8.819a.817.817,0,0,0,.817.817H36.8a.817.817,0,0,0,.817-.817V33.935A4.882,4.882,0,0,0,36.309,30.6v4.12a2.15,2.15,0,0,1-2.15,2.15h-3.7a2.15,2.15,0,0,1-2.15-2.15Zm2.45,10.762a.327.327,0,1,0,0,.653h3.266a.327.327,0,0,0,0-.653Z" transform="translate(-27 -27.239)" fill="#929292" fill-rule="evenodd"/>
</svg>
