<svg xmlns="http://www.w3.org/2000/svg" width="17.025" height="17.02" viewBox="0 0 17.025 17.02">
  <g id="MEDICAL" transform="translate(0.074 0.001)">
    <circle id="Ellipse_652" data-name="Ellipse 652" cx="0.694" cy="0.694" r="0.694" transform="translate(10.971 11.091)" fill="#929292"/>
    <path id="Path_44674" data-name="Path 44674" d="M16.951,9.812a3.317,3.317,0,0,0-1.207-2.563,7.356,7.356,0,0,0-.557-1.809A1.741,1.741,0,1,0,13.041,2.7a7.4,7.4,0,0,0-1.706-1.014,3.324,3.324,0,0,0-5.441-.5A1.741,1.741,0,0,0,3.215,3.257,7.435,7.435,0,0,0,2.181,4.543c-.048,0-.1-.005-.145-.005a2.109,2.109,0,0,0-1,3.964v.008a7.38,7.38,0,0,0,1.7,4.716,3.377,3.377,0,0,0-.033.47,3.324,3.324,0,0,0,5.795,2.223,7.374,7.374,0,0,0,3.841-1.1,1.741,1.741,0,0,0,2.8-2.04,3.324,3.324,0,0,0,1.823-2.966ZM4.4,4.284a.465.465,0,0,1,.657-.033.735.735,0,0,0,1.2-.748.465.465,0,1,1,.9-.254A1.666,1.666,0,0,1,5.63,5.368l-.089,0a1.655,1.655,0,0,1-1.113-.428A.465.465,0,0,1,4.4,4.284Zm1.529,8.6A2.815,2.815,0,1,1,8.74,10.067a2.815,2.815,0,0,1-2.815,2.815Zm5.74.528a1.626,1.626,0,1,1,1.625-1.625,1.626,1.626,0,0,1-1.625,1.625Zm-.353-5.35a2.048,2.048,0,1,1,2.048-2.048A2.048,2.048,0,0,1,11.311,8.061Z" transform="translate(0 0)" fill="#929292"/>
    <circle id="Ellipse_653" data-name="Ellipse 653" cx="1.118" cy="1.118" r="1.118" transform="translate(10.194 4.895)" fill="#929292"/>
    <circle id="Ellipse_654" data-name="Ellipse 654" cx="1.885" cy="1.885" r="1.885" transform="translate(4.041 8.183)" fill="#929292"/>
  </g>
</svg>
