<svg id="lungs_2_" data-name="lungs (2)" xmlns="http://www.w3.org/2000/svg" width="16.477" height="15.575" viewBox="0 0 16.477 15.575">
  <g id="Group_12374" data-name="Group 12374" transform="translate(6.308 0)">
    <g id="Group_12373" data-name="Group 12373" transform="translate(0 0)">
      <path id="Path_44843" data-name="Path 44843" d="M195.131,18.715c-.979,0-1.027-.318-1.027-.928V14.458a.772.772,0,0,0-1.545,0v3.329c0,.61-.048.928-1.028.928a.131.131,0,0,0-.131.129v1.287a.131.131,0,0,0,.132.129,2.8,2.8,0,0,0,1.8-.522,2.806,2.806,0,0,0,1.8.522.131.131,0,0,0,.131-.129V18.844A.131.131,0,0,0,195.131,18.715Z" transform="translate(-191.4 -13.686)" fill="#546788"/>
    </g>
  </g>
  <g id="Group_12376" data-name="Group 12376" transform="translate(0 1.172)">
    <g id="Group_12375" data-name="Group 12375" transform="translate(0 0)">
      <path id="Path_44844" data-name="Path 44844" d="M6.756,56.552a22.62,22.62,0,0,1-.184-2.471c0-2.07-.227-4.822-2.184-4.822C2.008,49.258,0,55.577,0,59.545c0,.125-.016,3.077.793,3.892a.691.691,0,0,0,.5.224,1.551,1.551,0,0,0,1.063-.443,6.4,6.4,0,0,1,2.455-1.185C7.286,61.319,7.029,59,6.756,56.552Z" transform="translate(0 -49.258)" fill="#546788"/>
    </g>
  </g>
  <g id="Group_12378" data-name="Group 12378" transform="translate(9.553 1.172)">
    <g id="Group_12377" data-name="Group 12377">
      <path id="Path_44845" data-name="Path 44845" d="M296.812,59.546c0-3.969-2.008-10.288-4.388-10.288-1.958,0-2.184,2.752-2.184,4.822a22.689,22.689,0,0,1-.184,2.471c-.273,2.452-.53,4.767,1.945,5.481a6.407,6.407,0,0,1,2.455,1.185,1.55,1.55,0,0,0,1.063.443.691.691,0,0,0,.5-.224C296.828,62.622,296.813,59.67,296.812,59.546Z" transform="translate(-289.888 -49.258)" fill="#546788"/>
    </g>
  </g>
</svg>
