<svg xmlns="http://www.w3.org/2000/svg" width="10.165" height="20" viewBox="0 0 10.165 20">
  <g id="Layer_x0020_1" transform="translate(-47.971 -10.5)">
    <g id="_219094512" transform="translate(47.971 10.5)">
      <path id="_219094632" d="M56.757,71.632a.689.689,0,0,1,1.379,0L58.1,76.385c-.06,2.352-2.165,3.417-4.293,3.363a4.974,4.974,0,0,1-3.74-1.633,3.836,3.836,0,0,1-.789-2.292,7.04,7.04,0,0,0-.417-1.98L48.22,72.2c-.168-.432-.438-1.036-.049-1.425a.944.944,0,0,1,1.244-.127l1.453,2.189a.223.223,0,0,0,.419-.1v-5.54a2.822,2.822,0,0,0,1.379.018v3.986a.222.222,0,0,0,.444,0V69.606a.689.689,0,1,1,1.379,0v3.647a.222.222,0,1,0,.444,0v-2.3a.689.689,0,1,1,1.379,0V74a.222.222,0,0,0,.444,0Z" transform="translate(-47.971 -59.75)" fill="#929292"/>
      <path id="_219094128" d="M61.474,10.5h2.964a.908.908,0,0,1,.905.905v3.8a2.387,2.387,0,0,1-4.774,0v-3.8A.908.908,0,0,1,61.474,10.5Zm1.482,4.7a.776.776,0,1,1-.776.776A.776.776,0,0,1,62.956,15.2Zm-1.388-3.441v2.346a.262.262,0,0,0,.261.261h2.253a.262.262,0,0,0,.261-.261V11.763a.262.262,0,0,0-.261-.261H61.829A.262.262,0,0,0,61.568,11.763Z" transform="translate(-58.915 -10.5)" fill="#929292" fill-rule="evenodd"/>
    </g>
  </g>
</svg>
