<svg xmlns="http://www.w3.org/2000/svg" width="20.5" height="20.5" viewBox="0 0 20.5 20.5">
  <g id="blood-pressure-gauge" transform="translate(-2 -2)">
    <path id="Path_44653" data-name="Path 44653" d="M13,35h1.464v.732H13Z" transform="translate(-6.973 -20.92)" fill="#929292"/>
    <path id="Path_44654" data-name="Path 44654" d="M9,28.739v1.194a.366.366,0,0,0,.366.366h3.661a.366.366,0,0,0,.366-.366V28.739a5.456,5.456,0,0,1-4.393,0Z" transform="translate(-4.438 -16.951)" fill="#929292"/>
    <circle id="Ellipse_651" data-name="Ellipse 651" cx="0.418" cy="0.418" r="0.418" transform="translate(6.184 6.184)" fill="#929292"/>
    <path id="Path_44655" data-name="Path 44655" d="M6.759,11.518A4.759,4.759,0,1,0,2,6.759,4.764,4.764,0,0,0,6.759,11.518ZM3.912,3.912a4.031,4.031,0,0,1,4.774-.686.359.359,0,0,1,.593.394,4.017,4.017,0,0,1,.327,5.986.366.366,0,0,1-.518-.518,3.3,3.3,0,0,0,0-4.659c-.068-.068-.138-.13-.21-.19L7.635,6.1a1.088,1.088,0,0,1,.222.655A1.115,1.115,0,1,1,7.026,5.7L8.27,3.832A3.294,3.294,0,0,0,4.43,9.088a.366.366,0,0,1-.518.518,4.031,4.031,0,0,1,0-5.694Z" fill="#929292"/>
    <path id="Path_44656" data-name="Path 44656" d="M19.125,44.589A4.4,4.4,0,0,1,14.732,40.2v-1.83H14V40.2a5.131,5.131,0,0,0,5.125,5.125H22.42A5.131,5.131,0,0,0,27.545,40.2V38h-.732v2.2a4.4,4.4,0,0,1-4.393,4.393Z" transform="translate(-7.607 -22.821)" fill="#929292"/>
    <path id="Path_44657" data-name="Path 44657" d="M45.866,2.98a.366.366,0,0,1-.19-.321V2H44.212v.659a.365.365,0,0,1-.19.321,3.492,3.492,0,0,0-1.379,1.583h1.2a.366.366,0,0,1,0,.732h-1.5a7.081,7.081,0,0,0-.325,1.83h1.455a.366.366,0,0,1,0,.732H42.024a7.1,7.1,0,0,0,.325,1.83h1.5a.366.366,0,1,1,0,.732h-1.2A3.493,3.493,0,0,0,44.021,12a.367.367,0,0,1,.19.321v2.123h1.464V12.323a.366.366,0,0,1,.19-.321c1.2-.658,2.006-2.471,2.006-4.511S47.066,3.638,45.866,2.98Z" transform="translate(-25.372 0)" fill="#929292"/>
  </g>
</svg>
