<svg xmlns="http://www.w3.org/2000/svg" width="16.253" height="16.331" viewBox="0 0 16.253 16.331">
  <g id="bladder" transform="translate(-1.072 -1)">
    <path id="Path_44692" data-name="Path 44692" d="M3.466,1.018a.544.544,0,0,0-.389.665A6.913,6.913,0,0,0,5.419,4.948a1.637,1.637,0,0,0,1.034.364,1.657,1.657,0,0,0,.715-.162,7.169,7.169,0,0,1,5.872,0,1.652,1.652,0,0,0,1.749-.2A6.912,6.912,0,0,0,17.13,1.682.544.544,0,0,0,16.078,1.4,5.96,5.96,0,0,1,14.1,4.1a.557.557,0,0,1-.592.064,8.277,8.277,0,0,0-6.81,0A.558.558,0,0,1,6.107,4.1,5.966,5.966,0,0,1,4.13,1.4a.544.544,0,0,0-.664-.386Z" transform="translate(-0.906 0)" fill="#929292"/>
    <path id="Path_44693" data-name="Path 44693" d="M1.159,5.872a14.365,14.365,0,0,0,1.7,2.177.549.549,0,0,1,.125.621c-1.335,2.818.429,5.748,3.468,6.832a.61.61,0,0,1,.327.25A6.012,6.012,0,0,1,7.4,18.627a.546.546,0,0,0,.544.544h2.5A.546.546,0,0,0,11,18.627a6.012,6.012,0,0,1,.626-2.874.61.61,0,0,1,.327-.25c2.359-.878,3.884-2.672,3.919-4.883a4.464,4.464,0,0,0-.452-1.949.549.549,0,0,1,.125-.621,14.365,14.365,0,0,0,1.7-2.177.545.545,0,0,0-.925-.577,13.269,13.269,0,0,1-1.546,1.987,1.636,1.636,0,0,0-.332,1.862,3.22,3.22,0,0,1,.332,1.644h-2.02a.578.578,0,0,1-.533-.354,2.679,2.679,0,0,0-2.5-1.7H8.687a2.7,2.7,0,0,0-2.5,1.7.578.578,0,0,1-.533.354H3.63a3.22,3.22,0,0,1,.332-1.644A1.636,1.636,0,0,0,3.63,7.282,13.271,13.271,0,0,1,2.084,5.3a.545.545,0,0,0-.925.577Z" transform="translate(0 -1.84)" fill="#929292"/>
  </g>
</svg>
