<svg id="skin" xmlns="http://www.w3.org/2000/svg" width="19.053" height="16.331" viewBox="0 0 19.053 16.331">
  <path id="Path_44636" data-name="Path 44636" d="M4,24H6.344a10.716,10.716,0,0,0-.235,2.143,1.762,1.762,0,0,1-.524.068c-.793,0-.793-.34-1.585-.34Z" transform="translate(-4 -18.556)" fill="#929292"/>
  <path id="Path_44637" data-name="Path 44637" d="M23.059,24a10.75,10.75,0,0,0-.235,2.147,2.683,2.683,0,0,0-1.079-.276,2.023,2.023,0,0,0-.347.027c-.065-.667-.1-1.3-.119-1.9Z" transform="translate(-15.401 -18.556)" fill="#929292"/>
  <path id="Path_44638" data-name="Path 44638" d="M38.673,24a10.743,10.743,0,0,0-.228,1.871H38.4c-.711,0-.786.272-1.361.33a.839.839,0,0,0-.007-.088c-.078-.745-.119-1.453-.139-2.113Z" transform="translate(-25.7 -18.556)" fill="#929292"/>
  <path id="Path_44639" data-name="Path 44639" d="M55.058,24v1.871c-.8,0-.8.34-1.589.34a1.8,1.8,0,0,1-.827-.184c-.075-.714-.112-1.392-.133-2.028Z" transform="translate(-36.005 -18.556)" fill="#929292"/>
  <path id="Path_44640" data-name="Path 44640" d="M4,53H23.053v1.021H4Z" transform="translate(-4 -37.69)" fill="#929292"/>
  <g id="Group_8176" data-name="Group 8176" transform="translate(2.79 0)">
    <path id="Path_44641" data-name="Path 44641" d="M12.2,15.628c0,.915.527,1.558,1.232,1.558a1.3,1.3,0,0,0,1.32-1.558A24.836,24.836,0,0,1,15.044,8,13.724,13.724,0,0,0,12.2,15.628Z" transform="translate(-12.2 -8)" fill="#929292"/>
    <path id="Path_44642" data-name="Path 44642" d="M27.82,15.628c0,.915.527,1.558,1.232,1.558a1.3,1.3,0,0,0,1.32-1.558A24.836,24.836,0,0,1,30.664,8,13.724,13.724,0,0,0,27.82,15.628Z" transform="translate(-22.506 -8)" fill="#929292"/>
    <path id="Path_44643" data-name="Path 44643" d="M43.44,15.628c0,.915.527,1.558,1.232,1.558a1.3,1.3,0,0,0,1.32-1.558A24.836,24.836,0,0,1,46.284,8,13.724,13.724,0,0,0,43.44,15.628Z" transform="translate(-32.811 -8)" fill="#929292"/>
  </g>
  <path id="Path_44644" data-name="Path 44644" d="M22.526,31.616a2.419,2.419,0,0,1-1.062.225,2.376,2.376,0,0,1-.83-.133,1.907,1.907,0,0,1-.47,1.01,2.028,2.028,0,0,1-1.517.653A1.972,1.972,0,0,1,16.766,31.5a.434.434,0,0,0-.068,0,1.091,1.091,0,0,0-.527.116,2.381,2.381,0,0,1-.871.218h0a1.9,1.9,0,0,1-.442.885,2.039,2.039,0,0,1-1.517.653,1.921,1.921,0,0,1-1.83-1.565,2.352,2.352,0,0,1-.633-.191,1.091,1.091,0,0,0-.527-.116,1.142,1.142,0,0,0-.32.037,1.957,1.957,0,0,1-.487,1.181,2.034,2.034,0,0,1-1.517.653,1.929,1.929,0,0,1-1.837-1.6,2.638,2.638,0,0,1-.6.065,2.406,2.406,0,0,1-1.062-.225A1.087,1.087,0,0,0,4,31.5v6.635H23.053V31.5A1.091,1.091,0,0,0,22.526,31.616ZM19.31,34.052h.68a.34.34,0,0,1,0,.68h-.68a.34.34,0,0,1,0-.68Zm-2.041,0h.68a.34.34,0,0,1,0,.68h-.68a.34.34,0,1,1,0-.68Zm-2.041,0h.68a.34.34,0,0,1,0,.68h-.68a.34.34,0,0,1,0-.68Zm-2.041,0h.68a.34.34,0,0,1,0,.68h-.68a.34.34,0,0,1,0-.68Zm-2.041,0h.68a.34.34,0,0,1,0,.68h-.68a.34.34,0,0,1,0-.68Zm-2.041,0h.68a.34.34,0,1,1,0,.68H9.1a.34.34,0,1,1,0-.68Zm-2.041,0h.68a.34.34,0,0,1,0,.68h-.68a.34.34,0,1,1,0-.68ZM5.7,35.753a.341.341,0,0,1,.34-.34h.68a.34.34,0,0,1,0,.68h-.68A.341.341,0,0,1,5.7,35.753Zm2.041,1.7h-.68a.34.34,0,0,1,0-.68h.68a.34.34,0,0,1,0,.68Zm0-1.7a.341.341,0,0,1,.34-.34h.68a.34.34,0,0,1,0,.68h-.68A.341.341,0,0,1,7.743,35.753Zm2.041,1.7H9.1a.34.34,0,0,1,0-.68h.68a.34.34,0,1,1,0,.68Zm0-1.7a.341.341,0,0,1,.34-.34h.68a.34.34,0,0,1,0,.68h-.68A.341.341,0,0,1,9.784,35.753Zm2.041,1.7h-.68a.34.34,0,0,1,0-.68h.68a.34.34,0,1,1,0,.68Zm0-1.7a.341.341,0,0,1,.34-.34h.68a.34.34,0,0,1,0,.68h-.68A.341.341,0,0,1,11.825,35.753Zm2.041,1.7h-.68a.34.34,0,1,1,0-.68h.68a.34.34,0,0,1,0,.68Zm0-1.7a.341.341,0,0,1,.34-.34h.68a.34.34,0,1,1,0,.68h-.68A.341.341,0,0,1,13.867,35.753Zm2.041,1.7h-.68a.34.34,0,0,1,0-.68h.68a.34.34,0,0,1,0,.68Zm0-1.7a.341.341,0,0,1,.34-.34h.68a.34.34,0,1,1,0,.68h-.68A.341.341,0,0,1,15.908,35.753Zm2.041,1.7h-.68a.34.34,0,1,1,0-.68h.68a.34.34,0,0,1,0,.68Zm0-1.7a.341.341,0,0,1,.34-.34h.68a.34.34,0,0,1,0,.68h-.68A.341.341,0,0,1,17.95,35.753Zm2.041,1.7h-.68a.34.34,0,0,1,0-.68h.68a.34.34,0,0,1,0,.68Zm1.021-1.361h-.68a.34.34,0,0,1,0-.68h.68a.34.34,0,1,1,0,.68Z" transform="translate(-4 -23.505)" fill="#929292"/>
</svg>
