<svg xmlns="http://www.w3.org/2000/svg" width="13.328" height="19.137" viewBox="0 0 13.328 19.137">
  <g id="heart_2_" data-name="heart (2)" transform="translate(-77.714)">
    <g id="Group_8182" data-name="Group 8182" transform="translate(77.714)">
      <g id="Group_8181" data-name="Group 8181">
        <path id="Path_44683" data-name="Path 44683" d="M178.724,6.712l.185.065.138.048.027.01h.211a4.667,4.667,0,0,1,.73-1.392l.041-.057q.089-.121.181-.237c.03-.038.062-.076.093-.113q.069-.084.139-.163l.084-.094c.042-.046.084-.091.126-.135.034-.769.349-1.909,1.364-1.909a.342.342,0,0,1,0,.683c-.286,0-.452.258-.549.55.021-.013.043-.022.064-.035q.109-.064.219-.118c.054-.027.107-.051.161-.074s.127-.053.19-.076c.041-.015.082-.03.123-.043.089-.028.178-.052.266-.073l.1-.023c.1-.02.2-.038.292-.051l.046-.006a6.529,6.529,0,0,1,.689-.047h.006a2.713,2.713,0,0,0,.1-.687,1.807,1.807,0,0,0-1.462-1.581.342.342,0,0,1-.247-.328V.342a.342.342,0,0,0-.683,0V.7a.342.342,0,0,1-.311.34,2.722,2.722,0,0,0-.773.178.342.342,0,0,1-.444-.19l-.3-.745A.227.227,0,0,0,179.1.43l.324,1.134a.341.341,0,0,1-.07.317h0c-.713.828-1.074,2.276-1.074,4.3v.374l.007,0C178.442,6.614,178.587,6.664,178.724,6.712Z" transform="translate(-174.525)" fill="#929292"/>
        <path id="Path_44684" data-name="Path 44684" d="M79.062,187.086a1.568,1.568,0,0,1,.119-.134c.158-.158.412-.366.735-.629,1.022-.835,2.924-2.389,2.924-3.572a.678.678,0,0,0-.013-.135c0-.009,0-.016-.007-.025a.463.463,0,0,0-.034-.1l-.008-.016a.467.467,0,0,0-.046-.062,1.36,1.36,0,0,1-.134-.109c-.01-.01-.016-.023-.025-.033a2.916,2.916,0,0,0-.575-.26l-.152-.054-.16-.056a10.847,10.847,0,0,1-1.391-.558l-.02-.006h-.015a1.6,1.6,0,0,0-1.282.59s-.009,0-.013.008a5.243,5.243,0,0,0-1.252,3.888,8.641,8.641,0,0,0,.3,3.079.337.337,0,0,1,.046,0,.638.638,0,0,0,.087-.006l.007,0c.147-.022.234-.111.312-.3l0-.005a3.985,3.985,0,0,0,.14-.444,2.886,2.886,0,0,1,.449-1.048Z" transform="translate(-77.714 -174.549)" fill="#929292"/>
        <path id="Path_44685" data-name="Path 44685" d="M317.935,168.059c-.006.025-.01.05-.016.074v0s0,.006,0,.009c-.018.062-.04.123-.064.184-.006.015-.01.031-.016.046l0,.007a1.754,1.754,0,0,1-.1.2c-.008.013-.014.028-.022.041l0,.006c-.015.023-.026.048-.042.07s-.018.02-.026.031a1.488,1.488,0,0,1-.148.178h0a.748.748,0,0,0-.12.154l0,.007a.393.393,0,0,0-.027.061.315.315,0,0,0-.014.045.244.244,0,0,0-.005.038.209.209,0,0,0,.011.082.247.247,0,0,0,.015.032l.011.019a.38.38,0,0,0,.036.048l.019.02a.564.564,0,0,0,.047.043l.036.026c.016.011.031.022.049.033s.043.023.066.035l.04.02c.032.014.067.027.1.039l.023.008c.043.014.089.025.137.035l.012,0c.049.01.1.017.154.023l.013,0c.058.006.119.009.182.009.1,0,.182,0,.261-.01l.043,0c.072-.007.136-.016.193-.027l.038-.008a1.173,1.173,0,0,0,.118-.032l.035-.011a.685.685,0,0,0,.1-.046l.032-.02a.463.463,0,0,0,.055-.042l.012-.01a.39.39,0,0,0,.1-.172.336.336,0,0,1,.023-.048A1.163,1.163,0,0,0,319.3,169a2.463,2.463,0,0,0-1.3-1.958c0,.029,0,.062.005.092s0,.034,0,.051c0,.051,0,.1,0,.157v.016s0,.008,0,.011v.006c0,.009,0,.017,0,.025h0v0c0,.011,0,.023,0,.034v.062c0,.026,0,.052,0,.078,0,0,0,0,0,.007,0,.045-.006.089-.01.134v.017c0,.027-.007.053-.01.08h0l0,.005c0,.025-.006.05-.01.074h0C317.961,167.953,317.948,168.006,317.935,168.059Z" transform="translate(-308.36 -160.8)" fill="#929292"/>
        <path id="Path_44686" data-name="Path 44686" d="M224.859,109.741c-.089.008-.176.02-.263.034l-.1.015c-.074.014-.147.031-.22.05-.043.011-.086.023-.129.036-.068.021-.135.045-.2.072q-.065.026-.13.056c-.071.032-.141.068-.212.108-.034.019-.068.041-.1.062a2.951,2.951,0,0,0-.243.168l-.053.043a3.6,3.6,0,0,0-.284.253h0c-.093.093-.182.189-.267.285l-.025.029a6.419,6.419,0,0,0-.657.9l-.013.022c-.051.085-.1.168-.138.248l-.029.056c-.038.076-.073.15-.1.22l-.01.023a1.471,1.471,0,0,0-.111.4c0,.008,0,.014-.006.021a.29.29,0,0,0,0,.036,1.291,1.291,0,0,1,.134.121,3.059,3.059,0,0,0,.73.316l.065.019q.081.023.163.043l.1.023c.048.01.1.02.143.029s.083.013.124.019.077.011.114.015c.078.008.154.013.226.013.225,0,.439-.008.646-.02l.078,0c.194-.013.377-.032.552-.056l.056-.008,0,0h0l0,0a1.56,1.56,0,0,1,.125-.143l.005-.006,0,0a.871.871,0,0,0,.125-.166c.011-.019.021-.038.032-.058a1.2,1.2,0,0,0,.068-.158l.011-.03.007-.02a1.689,1.689,0,0,0,.051-.213l0-.012a2.271,2.271,0,0,0,.025-.234c0-.012,0-.024,0-.037,0-.064,0-.127,0-.189,0-.032,0-.063,0-.093s0-.056-.006-.083-.006-.072-.009-.1l-.059-.354a.338.338,0,0,1,0-.121c0-.008.005-.015.007-.022a.337.337,0,0,1,.05-.106c0-.005,0-.012.008-.018s.008-.005.011-.009a.335.335,0,0,1,.1-.086h0a2.972,2.972,0,0,1,1.662-.138.5.5,0,0,0,.513-.27.492.492,0,0,0,.017-.408.5.5,0,0,0-.3-.286,4.464,4.464,0,0,0-1.4-.3h-.182c-.235,0-.46.006-.679.024Z" transform="translate(-216.192 -105.612)" fill="#929292"/>
        <path id="Path_44687" data-name="Path 44687" d="M89.881,6.43A1.945,1.945,0,0,1,91.118,6.1c.144-.062.3-.119.471-.176V2.392A3.86,3.86,0,0,0,91.07.462.923.923,0,0,0,90.275,0H88.933a4.409,4.409,0,0,1,.948,2.392Z" transform="translate(-88.514)" fill="#929292"/>
        <path id="Path_44688" data-name="Path 44688" d="M114.286,447.433v1.559a.854.854,0,0,0,1.709,0V448.8A6.974,6.974,0,0,1,114.286,447.433Z" transform="translate(-112.919 -430.709)" fill="#929292"/>
        <path id="Path_44689" data-name="Path 44689" d="M326.584,246.723a1.253,1.253,0,0,1-.365.207c-.027.011-.054.022-.082.031l-.04.012a2.377,2.377,0,0,1-.56.091c-.066.212-.169.551-.27.934,0,.01.01.018.012.029s.32,1.5,1.457,1.787a2.169,2.169,0,0,1,1.257,1.224.342.342,0,0,1-.63.266c-.083-.2-.389-.726-.793-.827A2.516,2.516,0,0,1,325,249.188a4.043,4.043,0,0,0-.059.615,2.41,2.41,0,0,0,.464,1.191,3.3,3.3,0,0,1,.55,1.358,4.688,4.688,0,0,1,1.342,1.4c.206.411.382.486.41.5a.342.342,0,0,1-.032.682.828.828,0,0,1-.5-.217,1.332,1.332,0,0,1-.286.458.342.342,0,1,1-.483-.483,1.235,1.235,0,0,0,.237-.7,3.452,3.452,0,0,0-.742-.812,4.791,4.791,0,0,1-.728,1.639,2.836,2.836,0,0,0-.574,1.461l.418.1a6.862,6.862,0,0,0,1.632.261c.766,0,2.05-.444,2.05-3.417A14.215,14.215,0,0,0,326.584,246.723Z" transform="translate(-315.375 -237.501)" fill="#929292"/>
        <path id="Path_44690" data-name="Path 44690" d="M111.41,226.955c-.081-.135-.164-.276-.242-.423a1.257,1.257,0,0,1-1,.589.342.342,0,1,1,0-.683c.361,0,.641-.616.7-.788a1.874,1.874,0,0,1-.016-.238,11.978,11.978,0,0,1,.572-2.776l-.058-.011c-.038-.008-.073-.019-.11-.029s-.082-.021-.121-.035-.074-.028-.111-.043-.067-.027-.1-.043-.071-.037-.106-.057-.055-.032-.081-.049-.066-.046-.1-.071-.044-.036-.064-.055a1.178,1.178,0,0,1-.084-.084c-.017-.019-.033-.039-.049-.059a1.026,1.026,0,0,1-.069-.1c0-.007-.011-.014-.015-.021s-.01-.024-.016-.036-.031-.05-.042-.077-.013-.041-.02-.061l-.009-.027a.883.883,0,0,1-.036-.179v0l-.086.006q-.173.016-.355.026l-.147.008c-.166.007-.334.012-.509.012a2.8,2.8,0,0,1-.295-.018c-.068-.007-.138-.019-.209-.03-.035-.006-.069-.01-.1-.016-.08-.015-.16-.033-.242-.053l-.092-.022c-.076-.02-.15-.042-.225-.065l-.12-.038c-.027-.009-.056-.017-.082-.026,0,.037-.009.073-.013.11s-.008.09-.015.135-.021.1-.033.147-.02.089-.034.134-.034.1-.052.147-.032.089-.051.133-.046.1-.07.148-.042.088-.065.131-.057.1-.087.149-.05.086-.078.128-.067.1-.1.149-.054.08-.084.12v0a1.344,1.344,0,0,0,.242.785h0a2.554,2.554,0,0,0,.789.583.339.339,0,0,1,.339.341.344.344,0,0,1-.345.342.861.861,0,0,1-.345-.088c0,.041,0,.075,0,.088a.342.342,0,1,1-.683,0,1.343,1.343,0,0,0-.242-.784,1.431,1.431,0,0,1-.335-.59l-.008.009c-.035.037-.069.074-.1.111s-.1.1-.148.148l-.106.106c-.052.051-.105.1-.159.15l-.1.1c-.056.051-.112.1-.168.152l-.1.087-.192.167-.026.022a8.153,8.153,0,0,1,.3,1.584s0,.006,0,.009a2.22,2.22,0,0,0,.7.1.342.342,0,0,1,0,.683,3.308,3.308,0,0,1-.66-.06,1.08,1.08,0,0,0,.476.782.342.342,0,0,1-.159.645.336.336,0,0,1-.151-.036,1.817,1.817,0,0,1-.872-1.673,6.672,6.672,0,0,0-.215-1.552l-.227.186c-.3.241-.55.45-.684.583a.946.946,0,0,0-.141.184,2.873,2.873,0,0,0-.26.71c-.025.091-.053.189-.084.287l-.008.025c-.014.043-.028.085-.044.127s-.025.062-.038.092-.035.078-.054.116-.042.08-.066.118c-.014.022-.029.043-.045.065a1.118,1.118,0,0,1-.074.091c-.018.021-.036.042-.056.061a.943.943,0,0,1-.119.1l-.019.015a5.516,5.516,0,0,0,.435.751q.145.215.31.417c.039.048.078.1.118.141q.086.1.177.194c.055.057.111.111.167.166q.124.12.257.234c.07.06.14.12.212.176s.123.093.186.139.115.083.173.122.143.1.216.142l.115.069c.089.053.178.106.271.156a7.881,7.881,0,0,0,2.213.791l.009,0a4.05,4.05,0,0,0,.692.08,11.191,11.191,0,0,1,2.059.183,3.621,3.621,0,0,1,.668-1.68,3.443,3.443,0,0,0,.689-1.921A2.411,2.411,0,0,0,111.41,226.955Z" transform="translate(-101.963 -213.109)" fill="#929292"/>
        <path id="Path_44691" data-name="Path 44691" d="M179.555,494.174a.843.843,0,0,0,.553-.2,8.581,8.581,0,0,1-1.392-.487A.855.855,0,0,0,179.555,494.174Z" transform="translate(-174.942 -475.037)" fill="#929292"/>
      </g>
    </g>
  </g>
</svg>
