<svg xmlns="http://www.w3.org/2000/svg" width="12.268" height="16.331" viewBox="0 0 12.268 16.331">
  <path id="teeth" d="M3.5,3.912s-.258-2.9,2.32-3.48A7.1,7.1,0,0,1,8.329.561,8.161,8.161,0,0,0,11.744.368s2.062-.387,3.093.838c0,0,1.933,1.289.193,4.9l-.709,1.8a32.764,32.764,0,0,1-.258,5.542,7.793,7.793,0,0,1-.644,2.513s-1.031,1.611-1.8-.129L11.164,11.9s-.387-1.869-1.611-1.675c0,0-1.031,0-1.289,1.482,0,0-.129.9-.258,2.706,0,0,0,2.255-1.16,2.191,0,0-1.031.258-1.353-1.8a23.274,23.274,0,0,1-.451-6.895A9.823,9.823,0,0,1,3.5,3.912Z" transform="translate(-3.489 -0.31)" fill="#929292"/>
</svg>
