<svg xmlns="http://www.w3.org/2000/svg" width="11.929" height="16.331" viewBox="0 0 11.929 16.331">
  <g id="throat_1_" data-name="throat (1)" transform="translate(-2.378 -0.115)">
    <path id="Path_44619" data-name="Path 44619" d="M11.738,16.446H6.588s.636-5.214-1.78-4.9c0,0-1.907.381-1.208-1.144a.614.614,0,0,0,0-.509s-.954-.064-.318-.636c0,0,.827-.572-.254-1.144,0,0-1.462-.636,0-1.4,0,0,.89-.445.954-3.052,0,0-.254-2.162,2.607-3.116,0,0,6.994-2.416,7.693,4.133a5.751,5.751,0,0,1-1.844,4.641s-.89.763-.763,3.306Z" transform="translate(0 0)" fill="#929292"/>
    <path id="Path_44620" data-name="Path 44620" d="M3.5,14.9H7.124a1.913,1.913,0,0,1,1.907,1.907V21.83" transform="translate(-0.409 -5.384)" fill="none" stroke="#fff" stroke-width="1"/>
  </g>
</svg>
