<svg xmlns="http://www.w3.org/2000/svg" width="18.935" height="15.331" viewBox="0 0 18.935 15.331">
  <g id="tongue" transform="translate(0.075 -3.734)">
    <path id="Path_44621" data-name="Path 44621" d="M3.1,6.3v6.3a7.187,7.187,0,0,0,7.171,7.171h0A7.187,7.187,0,0,0,17.442,12.6V6.3A18.262,18.262,0,0,1,3.1,6.3Z" transform="translate(-0.875 -0.707)" fill="#929292"/>
    <path id="Path_44622" data-name="Path 44622" d="M4.983,12.6V7.024A11.35,11.35,0,0,1,3.1,6.3v6.3a7.187,7.187,0,0,0,7.171,7.171h0a4.13,4.13,0,0,0,.942-.072A7.189,7.189,0,0,1,4.983,12.6Z" transform="translate(-0.875 -0.707)" fill="#929292"/>
    <path id="Path_44623" data-name="Path 44623" d="M12.89,15.533a.312.312,0,0,1-.29-.29V8.217c0-.145.145-.217.29-.217a.312.312,0,0,1,.29.29v6.954A.312.312,0,0,1,12.89,15.533Z" transform="translate(-3.494 -1.176)" fill="#929292"/>
    <path id="Path_44624" data-name="Path 44624" d="M-.021,4.216a.462.462,0,0,1,0-.435c.145-.072.29-.072.362.072a7.311,7.311,0,0,0,3.477,2.1c5.07,1.738,12.169.724,14.559-2.1a.261.261,0,0,1,.435.29C15.408,8.418,3.456,8.418-.021,4.216Z" transform="translate(0)" fill="#929292"/>
  </g>
</svg>
