<svg xmlns="http://www.w3.org/2000/svg" width="10.401" height="14.124" viewBox="0 0 10.401 14.124">
  <g id="frequency" transform="translate(0 -0.393)">
    <rect id="Rectangle_17386" data-name="Rectangle 17386" width="5.574" height="2.23" rx="1.115" transform="translate(2.628 0.393)" fill="#546788"/>
    <path id="Path_44541" data-name="Path 44541" d="M21.361,8h-1.3V9.04a1.04,1.04,0,0,1-1.04,1.04H15.38a1.04,1.04,0,0,1-1.04-1.04V8h-1.3A1.04,1.04,0,0,0,12,9.04V20.481a1.04,1.04,0,0,0,1.04,1.04h8.321a1.04,1.04,0,0,0,1.04-1.04V9.04A1.04,1.04,0,0,0,21.361,8Zm-.32,7.845H19.1l-.447,2.236a.644.644,0,0,1-1.266-.029l-.343-2.208H15.721l-.244,1.4a.631.631,0,0,1-.616.533.643.643,0,0,1-.645-.5l-.333-1.43H13.36a.26.26,0,0,1,0-.52h1.924l.491-2.829a.645.645,0,0,1,1.272.013l.437,2.816H18.67l.234-1.181a.645.645,0,0,1,1.261-.018l.276,1.2h.6a.26.26,0,1,1,0,.52Z" transform="translate(-12 -7.005)" fill="#546788"/>
    <path id="Path_44542" data-name="Path 44542" d="M40.023,31.638a.115.115,0,0,0-.12.1l-.213,1.079H40.4l-.25-1.082A.114.114,0,0,0,40.023,31.638Z" transform="translate(-32.49 -24.496)" fill="#546788"/>
    <path id="Path_44543" data-name="Path 44543" d="M33.73,40.3a.124.124,0,0,0,.244.005L34.4,38.17h-1Z" transform="translate(-27.835 -29.33)" fill="#546788"/>
    <path id="Path_44544" data-name="Path 44544" d="M21.6,39.483a.123.123,0,0,0,.242-.008l.229-1.305H21.29Z" transform="translate(-18.874 -29.33)" fill="#546788"/>
    <path id="Path_44545" data-name="Path 44545" d="M27.261,25.239a.127.127,0,0,0-.125.1l-.476,2.741h1.147l-.424-2.738A.115.115,0,0,0,27.261,25.239Z" transform="translate(-22.848 -19.761)" fill="#546788"/>
  </g>
</svg>
