<svg xmlns="http://www.w3.org/2000/svg" width="16.823" height="15.771" viewBox="0 0 16.823 15.771">
  <g id="blood-pressure_2_" data-name="blood-pressure (2)" transform="translate(0 -16)">
    <path id="Path_44742" data-name="Path 44742" d="M92.464,166a2.464,2.464,0,1,0,2.464,2.464A2.467,2.467,0,0,0,92.464,166Zm.493,2.957h-.986v-1.971h.986Z" transform="translate(-87.043 -145.071)" fill="#fc7349"/>
    <path id="Path_44743" data-name="Path 44743" d="M9.364,16.986a2.451,2.451,0,0,1,1.479.494h0A1.48,1.48,0,0,0,9.364,16H1.479A1.48,1.48,0,0,0,0,17.479H0a2.451,2.451,0,0,1,1.479-.494Z" transform="translate(0 0)" fill="#fc7349"/>
    <path id="Path_44744" data-name="Path 44744" d="M14.358,16a2.759,2.759,0,0,0-2.5,2.957,2.882,2.882,0,0,0,2,2.9v6.465a2.5,2.5,0,0,1-4.944.493h.443a1.48,1.48,0,0,0,1.479-1.479V19.45a1.48,1.48,0,0,0-1.479-1.479H1.479A1.48,1.48,0,0,0,0,19.45v7.886a1.48,1.48,0,0,0,1.479,1.479H7.921a3.485,3.485,0,0,0,6.93-.493V21.856a2.88,2.88,0,0,0,1.971-2.9A2.745,2.745,0,0,0,14.358,16ZM5.421,26.843a3.45,3.45,0,1,1,3.45-3.45A3.454,3.454,0,0,1,5.421,26.843Z" transform="translate(0 0)" fill="#fc7349"/>
  </g>
</svg>
