<svg id="Layer_x0020_1" xmlns="http://www.w3.org/2000/svg" width="12" height="16" viewBox="0 0 12 16">
  <path id="Path_44512" data-name="Path 44512" d="M75.781,44.094H64.219A.214.214,0,0,1,64,43.875V29.219A.214.214,0,0,1,64.219,29H66.25v.531a1.215,1.215,0,0,0,1.25,1.25h5a1.227,1.227,0,0,0,1.219-1.25V29h2.062a.214.214,0,0,1,.219.219V43.875A.214.214,0,0,1,75.781,44.094Zm-1.719-2.187H65.906a.219.219,0,1,1,0-.437h8.156a.219.219,0,0,1,0,.438Zm0-1.188H65.906a.219.219,0,1,1,0-.437h8.156a.219.219,0,1,1,0,.437Zm0-1.219H65.906a.219.219,0,1,1,0-.438h8.156a.219.219,0,0,1,0,.438Zm0-1.219H65.906a.219.219,0,1,1,0-.437h8.156a.219.219,0,0,1,0,.437Zm0-1.187H65.906a.219.219,0,1,1,0-.438h8.156a.219.219,0,0,1,0,.438Zm-2.344-1.469h-3.5A.214.214,0,0,1,68,35.406a1.6,1.6,0,0,1,1.625-1.625h.688a1.6,1.6,0,0,1,1.625,1.625A.214.214,0,0,1,71.719,35.625Zm-3.25-.437h3a1.149,1.149,0,0,0-1.156-.969h-.688A1.149,1.149,0,0,0,68.469,35.188Zm1.5-1.656a1.187,1.187,0,0,1-1.187-1.187,1.188,1.188,0,0,1,2.375,0A1.187,1.187,0,0,1,69.969,33.531Zm0-1.906a.715.715,0,0,0-.75.719.75.75,0,1,0,1.5,0A.734.734,0,0,0,69.969,31.625Z" transform="translate(-64 -28.094)" fill="#1d4999" fill-rule="evenodd"/>
  <path id="Path_44513" data-name="Path 44513" d="M155.812,2.25h-5A.788.788,0,0,1,150,1.438V.813A.788.788,0,0,1,150.812,0h5a.781.781,0,0,1,.781.813v.625A.781.781,0,0,1,155.812,2.25Z" transform="translate(-147.312)" fill="#1d4999" fill-rule="evenodd"/>
</svg>
