<svg xmlns="http://www.w3.org/2000/svg" width="14.745" height="16.771" viewBox="0 0 14.745 16.771">
  <path id="ventilation" d="M41.823,9.783v1.258a.56.56,0,0,1-.559.559h-.349a.56.56,0,0,1-.559-.559V9.783a.56.56,0,0,1,.559-.559h.349A.56.56,0,0,1,41.823,9.783Zm1.922-1.328v3.774a1.4,1.4,0,0,1-1.4,1.4h-.14a.279.279,0,0,1-.28-.28V12.071a.274.274,0,0,1,.089-.2,1.115,1.115,0,0,0,.365-.826V9.783a1.118,1.118,0,0,0-1.118-1.118h-.349A1.118,1.118,0,0,0,39.8,9.783v1.258a1.118,1.118,0,0,0,1.118,1.118h.175a.28.28,0,0,1,.279.28v1.153a3.183,3.183,0,0,1-3.18,3.18H33.577a3.183,3.183,0,0,1-3.18-3.18V11.46h-.07A1.328,1.328,0,0,1,29,10.133V8.887a1.677,1.677,0,1,1,3.354.028v1.218a1.321,1.321,0,0,1-.355.9.28.28,0,0,1-.484-.191V9.888a.28.28,0,0,0-.3-.279.286.286,0,0,0-.261.288v3.66a2.651,2.651,0,0,0,2.653,2.655A2.623,2.623,0,0,0,36.2,13.627h-.978a1.4,1.4,0,0,1-1.4-1.4V8.456a1.4,1.4,0,0,1,1.4-1.4H38.5V5.94H36a1.4,1.4,0,0,1-1.4-1.4V1.4A1.4,1.4,0,0,1,36,0h5.567a1.4,1.4,0,0,1,1.4,1.4V4.542a1.4,1.4,0,0,1-1.4,1.4h-2.5V7.058h3.284A1.4,1.4,0,0,1,43.745,8.456ZM40.261,2.97a.28.28,0,0,0,.28.28h.724a.28.28,0,0,0,0-.559h-.724A.28.28,0,0,0,40.261,2.97ZM38.7,4.078l1.379-1.887a.28.28,0,0,0-.451-.33L38.473,3.439,38.009,2.8a.279.279,0,0,0-.226-.115H36.3a.28.28,0,1,0,0,.559h1.34l.606.829a.28.28,0,0,0,.451,0Zm-1.1,9.548a.279.279,0,0,1-.279-.279V11.957a.274.274,0,0,1,.112-.224.977.977,0,0,0,.412-.8V9.888a.978.978,0,0,0-.978-.978h-.769a.979.979,0,0,0-.978.978v1.048a.979.979,0,0,0,.978.978.1.1,0,0,0,.1-.1c0-.38.009-.384-.031-.423a.1.1,0,0,0-.074-.031.419.419,0,0,1-.419-.419V9.888a.419.419,0,0,1,.419-.419h.769a.419.419,0,0,1,.419.419v.531a.278.278,0,0,1-.264.274.276.276,0,0,0-.26.278v2.621a3.178,3.178,0,0,1-1.381,2.621h2.813a2.623,2.623,0,0,0,2.62-2.586Z" transform="translate(-29)" fill="#fc7349"/>
</svg>
